<?xml version="1.0" encoding="iso-8859-1"?>
<!-- Generator: Adobe Illustrator 19.0.0, SVG Export Plug-In . SVG Version: 6.00 Build 0)  -->
<svg xmlns="http://www.w3.org/2000/svg" xmlns:xlink="http://www.w3.org/1999/xlink" version="1.1" id="Capa_1" x="0px" y="0px" viewBox="0 0 512.001 512.001" style="enable-background:new 0 0 512.001 512.001;" xml:space="preserve">
<path style="fill:#2C3E50;" d="M449.441,264.911c53.353,23.958,77.187,86.632,53.229,139.985  c-3.99,8.889-9.189,17.178-15.448,24.646l-0.088,0.265c0,0,0-0.265,0.088-0.265c8.333-37.428-4.114-76.437-32.573-102.133  l-10.416,53.318c5.447,12.906,8.236,26.774,8.21,40.783c0.026,36.863-19.138,71.079-50.581,90.305l-0.177,0.177  c0,0,0.088-0.177,0.177-0.177c13.903-23.093,18.538-50.599,12.976-76.975H97.139c-5.561,26.376-0.927,53.883,12.976,76.975  c0.088,0,0.177,0.177,0.177,0.177l-0.177-0.177c-31.443-19.226-50.608-53.441-50.581-90.305c-0.026-14.009,2.763-27.877,8.21-40.783  L57.327,327.41c-28.46,25.697-40.906,64.705-32.573,102.133c0.088,0,0.088,0.265,0.088,0.265l-0.088-0.265  c-37.57-44.826-31.69-111.614,13.135-149.184c7.468-6.259,15.757-11.458,24.646-15.448H449.441z"/>
<path style="fill:#9BC8C2;" d="M453.502,317.788c-1.148,108.366-89.899,195.298-198.264,194.204  c-26.676,0.071-53.088-5.217-77.681-15.536c-68.024-27.93-114.474-91.841-120.053-165.161c-0.353-4.414-0.53-8.916-0.53-13.506  c0.018-8.916,0.583-17.814,1.677-26.659c0.883-8.386,2.207-17.214,3.884-26.217c3.655-19.27,8.518-38.285,14.565-56.937  c1.059-3.354,2.207-6.797,3.354-10.24c0.177-0.441,0.265-0.794,0.441-1.236c3.266-9.622,6.974-19.332,10.946-28.954  c1.854-4.502,3.708-8.916,5.738-13.329c3.443-7.945,7.238-15.889,11.211-23.658c3.708-7.327,7.592-14.477,11.652-21.451  c4.237-7.327,8.563-14.477,13.153-21.362c2.207-3.443,4.502-6.709,6.797-9.975c1.236-1.677,2.383-3.266,3.531-4.855h0.177  c6.347-8.739,13.215-17.081,20.568-24.982c5.994-6.373,12.332-12.411,18.979-18.096C203.288,11.714,228.72,1.148,255.414,0  c32.75,0,63.646,18.891,90.923,48.198c7.565,8.139,14.636,16.71,21.186,25.688c0.088,0.088,0.088,0.088,0.088,0.177  c0.088,0.265,0.265,0.53,0.353,0.794c0.883,1.236,1.677,2.383,2.648,3.619c6.621,9.445,13.065,19.42,19.067,29.925  c0.079,0.256,0.203,0.486,0.353,0.706c3.972,6.797,7.856,13.947,11.476,21.186c6.179,12.182,11.891,24.602,17.125,37.252  c3.972,9.622,7.68,19.244,10.946,28.954c0.185,0.486,0.335,0.989,0.441,1.501c1.148,3.354,2.295,6.709,3.266,9.975  c2.56,7.856,4.855,15.625,6.885,23.216l0.088,0.088c5.367,19.632,9.234,39.635,11.564,59.85  C452.928,299.974,453.484,308.872,453.502,317.788z"/>
<path style="fill:#2C3E50;" d="M232.251,243.143c-12.508,34.356-54.342,69.463-85.997,57.943s-41.145-65.305-28.636-99.662  s54.342-69.463,85.997-57.943S244.76,208.778,232.251,243.143z"/>
<circle style="fill:#C03A2B;" cx="189.35" cy="224.852" r="44.137"/>
<path d="M189.385,233.662c-1.183,0.026-2.357-0.185-3.452-0.618c-1.059-0.459-2.013-1.121-2.816-1.942  c-0.856-0.821-1.518-1.81-1.951-2.913c-1.863-4.458,0.247-9.587,4.705-11.449c0.018-0.009,0.044-0.018,0.062-0.026  c3.293-1.342,7.071-0.618,9.631,1.854c0.803,0.856,1.465,1.836,1.942,2.913c0.83,2.163,0.83,4.546,0,6.709  c-0.424,1.103-1.086,2.101-1.942,2.913c-0.812,0.821-1.765,1.483-2.825,1.942C191.672,233.468,190.533,233.68,189.385,233.662z"/>
<path style="fill:#2C3E50;" d="M278.225,243.143c12.508,34.356,54.342,69.463,85.997,57.943s41.145-65.305,28.636-99.662  c-12.508-34.356-54.342-69.463-85.997-57.943S265.716,208.778,278.225,243.143z"/>
<circle style="fill:#C03A2B;" cx="321.144" cy="224.852" r="44.137"/>
<path d="M321.091,233.662c-2.322,0.009-4.546-0.918-6.179-2.56c-0.856-0.821-1.518-1.81-1.942-2.913  c-1.351-3.301-0.591-7.097,1.942-9.622c0.406-0.397,0.847-0.75,1.324-1.059c0.45-0.353,0.953-0.618,1.501-0.794  c0.53-0.256,1.095-0.433,1.668-0.53c2.878-0.538,5.835,0.353,7.945,2.383c0.803,0.856,1.465,1.836,1.942,2.913  c1.289,3.31,0.53,7.071-1.942,9.622c-0.812,0.821-1.765,1.483-2.825,1.942C323.439,233.477,322.273,233.689,321.091,233.662z"/>
<path d="M237.583,361.925c-4.873,0-8.827-3.946-8.827-8.827v-8.827c0-4.882,3.955-8.827,8.827-8.827s8.827,3.946,8.827,8.827v8.827  C246.41,357.979,242.456,361.925,237.583,361.925z"/>
<path d="M272.902,361.925c-4.882,0-8.827-3.946-8.827-8.827v-8.827c0-4.882,3.946-8.827,8.827-8.827s8.827,3.946,8.827,8.827v8.827  C281.729,357.979,277.774,361.925,272.902,361.925z"/>
<g>
	<path style="fill:#C03A2B;" d="M140.481,414.889c-24.373,0-44.137-19.765-44.137-44.137s19.765-44.137,44.137-44.137   s44.137,19.765,44.137,44.137C184.592,395.116,164.845,414.863,140.481,414.889z M140.481,344.27   c-14.627,0-26.482,11.855-26.482,26.482c0,14.627,11.855,26.482,26.482,26.482c14.627,0,26.482-11.855,26.482-26.482   C166.946,356.134,155.099,344.288,140.481,344.27z"/>
	<path style="fill:#C03A2B;" d="M140.481,379.58c-2.348,0.026-4.608-0.9-6.267-2.56c-0.777-0.883-1.43-1.863-1.951-2.913   c-0.424-1.068-0.627-2.207-0.609-3.354c-0.035-1.156,0.212-2.304,0.706-3.354c0.45-1.068,1.077-2.057,1.854-2.913   c3.505-3.266,8.942-3.266,12.447,0c0.856,0.821,1.518,1.81,1.942,2.913c0.945,2.136,0.945,4.573,0,6.709   c-0.45,1.086-1.103,2.083-1.942,2.913C145.045,378.688,142.812,379.615,140.481,379.58z"/>
	<path style="fill:#C03A2B;" d="M369.995,414.889c-24.373,0-44.137-19.765-44.137-44.137s19.765-44.137,44.137-44.137   s44.137,19.765,44.137,44.137C414.105,395.116,394.358,414.863,369.995,414.889z M369.995,344.27   c-14.627,0-26.482,11.855-26.482,26.482c0,14.627,11.855,26.482,26.482,26.482s26.482-11.855,26.482-26.482   C396.459,356.134,384.613,344.288,369.995,344.27z"/>
	<path style="fill:#C03A2B;" d="M369.995,379.58c-1.156-0.018-2.295-0.256-3.354-0.706c-1.068-0.45-2.057-1.077-2.913-1.854   c-0.777-0.856-1.404-1.845-1.854-2.913c-0.945-2.136-0.945-4.573,0-6.709c0.45-1.068,1.077-2.057,1.854-2.913   c0.415-0.38,0.856-0.733,1.315-1.059c0.494-0.335,1.033-0.6,1.598-0.794c0.503-0.256,1.033-0.433,1.589-0.538   c1.721-0.362,3.513-0.177,5.12,0.538c0.547,0.177,1.05,0.441,1.501,0.794c0.503,0.3,0.98,0.662,1.412,1.059   c0.794,0.847,1.43,1.836,1.854,2.913c0.945,2.136,0.945,4.573,0,6.709c-0.803,2.216-2.551,3.964-4.767,4.767   C372.29,379.324,371.151,379.562,369.995,379.58z"/>
</g>
<path style="fill:#547580;" d="M317.03,430.073v72.297h-0.088c-40.103,12.826-83.216,12.826-123.319,0h-0.177v-72.12  c18.873-10.505,40.2-15.801,61.792-15.36C276.812,414.43,298.13,419.674,317.03,430.073z"/>
<g>
</g>
<g>
</g>
<g>
</g>
<g>
</g>
<g>
</g>
<g>
</g>
<g>
</g>
<g>
</g>
<g>
</g>
<g>
</g>
<g>
</g>
<g>
</g>
<g>
</g>
<g>
</g>
<g>
</g>
</svg>
