<?xml version="1.0" encoding="iso-8859-1"?>
<!-- Generator: Adobe Illustrator 19.0.0, SVG Export Plug-In . SVG Version: 6.00 Build 0)  -->
<svg xmlns="http://www.w3.org/2000/svg" xmlns:xlink="http://www.w3.org/1999/xlink" version="1.1" id="Capa_1" x="0px" y="0px" viewBox="0 0 512 512" style="enable-background:new 0 0 512 512;" xml:space="preserve">
<circle style="fill:#0081C6;" cx="372.558" cy="143.301" r="48.325"/>
<circle style="fill:#F3C74F;" cx="372.558" cy="143.301" r="22.562"/>
<circle style="fill:#0081C6;" cx="139.442" cy="143.301" r="48.325"/>
<circle style="fill:#F3C74F;" cx="139.442" cy="143.301" r="22.562"/>
<path style="opacity:0.2;enable-background:new    ;" d="M168.011,104.325c-22.721,20.535-41.992,48.804-55.681,78.976  c7.731,5.25,17.064,8.321,27.114,8.321c26.689,0,48.325-21.636,48.325-48.325C187.769,127.296,179.988,113.121,168.011,104.325z"/>
<path style="fill:#40BAB3;" d="M407.84,275.814c0-83.611-69.704-204.063-151.84-204.063S104.159,192.204,104.159,275.814  c0,83.612,67.981,151.391,151.84,151.391S407.84,359.426,407.84,275.814z"/>
<g>
	<path style="fill:#892641;" d="M180.103,258.306h-25.347c-4.379,0-7.928-3.548-7.928-7.928c0-4.378,3.548-7.928,7.928-7.928h25.347   c4.379,0,7.928,3.549,7.928,7.928C188.03,254.757,184.481,258.306,180.103,258.306z"/>
	<path style="fill:#892641;" d="M357.245,258.306h-25.347c-4.378,0-7.928-3.548-7.928-7.928c0-4.378,3.549-7.928,7.928-7.928h25.347   c4.379,0,7.928,3.549,7.928,7.928C365.173,254.757,361.623,258.306,357.245,258.306z"/>
</g>
<path style="fill:#FFFFFF;" d="M106.717,303.58C119.796,373.93,181.654,427.207,256,427.207S392.203,373.93,405.283,303.58H106.717z  "/>
<path style="fill:#0081C6;" d="M133.596,365.393c27.636,37.482,72.166,61.813,122.403,61.813s94.767-24.331,122.403-61.813H133.596z  "/>
<path style="opacity:0.2;enable-background:new    ;" d="M272.101,411.105c-83.859,0-151.84-67.781-151.84-151.391  c0-41.942,17.554-93.136,45.406-133.761c6.212,2.503,13.194,3.913,20.579,3.913c9.395,0,18.136-2.283,25.468-6.198  c12.748,3.915,27.949,6.198,44.286,6.198c16.337,0,31.538-2.283,44.286-6.198c7.332,3.915,16.072,6.198,25.468,6.198  c8.596,0,16.644-1.913,23.567-5.236c-25.976-31.266-58.533-52.878-93.321-52.878c-82.136,0-151.84,120.451-151.84,204.063  c0,83.611,67.981,151.391,151.84,151.391c46.106,0,87.408-20.494,115.256-52.839C344.651,397.259,309.999,411.105,272.101,411.105z"/>
<path style="opacity:0.2;enable-background:new    ;" d="M406.059,251.53c-49.773,15.966-163.69,60.738-210.424,163.229  c18.502,8.002,38.911,12.448,60.365,12.448c83.859,0,151.84-67.781,151.84-151.391C407.84,267.999,407.23,259.862,406.059,251.53z"/>
<path style="fill:#C7E2EC;" d="M327.312,147.352c-9.732-5.618-22.175-2.284-27.793,7.448c-3.914,6.78-3.472,14.869,0.439,21.057  l-29.477,51.056c5.971,3.689,10.432,9.587,12.235,16.557l33.588-58.176c7.315,0.294,14.541-3.369,18.456-10.147  C340.378,165.414,337.043,152.97,327.312,147.352z"/>
<path style="opacity:0.4;fill:#FFFFFF;enable-background:new    ;" d="M327.312,147.352c-2.534-1.463-5.252-2.305-7.986-2.6  c-4.546,2.265-7.677,6.947-7.677,12.37c0,7.636,6.19,13.827,13.827,13.827c5.122,0,9.583-2.793,11.972-6.931  C337.128,157.335,333.538,150.946,327.312,147.352z"/>
<path style="fill:#892641;" d="M288.619,195.495l-18.139,31.417c5.971,3.689,10.432,9.587,12.235,16.557l22.249-38.537  L288.619,195.495z"/>
<circle style="fill:#394049;" cx="256" cy="25.955" r="18.033"/>
<path style="fill:#C7E2EC;" d="M325.754,40.31c-7.153,0-13.928,1.323-19.991,3.682C292.002,37.54,274.748,33.321,256,33.321  s-36.002,4.22-49.763,10.671c-6.063-2.357-12.839-3.682-19.991-3.682c-25.848,0-46.802,17.217-46.802,38.456  s20.954,38.456,46.802,38.456c9.396,0,18.136-2.283,25.468-6.199c12.748,3.916,27.949,6.199,44.286,6.199  c16.337,0,31.538-2.283,44.286-6.199c7.332,3.916,16.072,6.199,25.468,6.199c25.848,0,46.802-17.217,46.802-38.456  S351.601,40.31,325.754,40.31z"/>
<g>
	<path style="opacity:0.4;fill:#FFFFFF;enable-background:new    ;" d="M325.754,40.31c-2.36,0-4.674,0.157-6.939,0.435   c-0.814,2.841-1.259,5.839-1.259,8.942c0,17.915,14.522,32.438,32.438,32.438c8.542,0,16.309-3.307,22.101-8.705   C368.928,54.713,349.393,40.31,325.754,40.31z"/>
	<path style="opacity:0.2;fill:#FFFFFF;enable-background:new    ;" d="M255.999,33.319c-1.678,0-3.339,0.045-4.991,0.112   c-0.307,1.549-0.47,3.149-0.47,4.787c0,13.554,10.988,24.542,24.542,24.542c12.514,0,22.833-9.368,24.344-21.473   C286.856,36.39,271.974,33.319,255.999,33.319z"/>
</g>
<path style="opacity:0.1;enable-background:new    ;" d="M334.534,108.001c-7.451,0-14.495-1.423-20.76-3.949  c-3.453-1.392-7.275-1.561-10.884-0.646c-11.547,2.929-24.74,4.595-38.762,4.595c-14.871,0-28.809-1.874-40.839-5.14  c-2.362-0.642-4.881-0.521-7.118,0.475c-6.678,2.972-14.322,4.666-22.45,4.666c-26.091,0-47.24-17.379-47.24-38.815  c0-5.235,1.269-10.226,3.556-14.782c-6.617,6.633-10.591,15.114-10.591,24.36c0,21.238,20.954,38.456,46.802,38.456  c9.396,0,18.136-2.283,25.468-6.199c12.748,3.916,27.949,6.199,44.286,6.199c16.337,0,31.538-2.283,44.287-6.199  c7.33,3.916,16.072,6.199,25.468,6.199c17.387,0,32.548-7.797,40.618-19.36C357.974,104.158,346.8,108.001,334.534,108.001z"/>
<path style="fill:#8E78CF;" d="M331.136,504.072c-9.669-162.166-185.15-232.745-231.063-255.373  c-10.026-4.942-21.981,1.318-23.604,12.378c-6.14,41.812-12.854,138.242-13.415,230.7c-0.041,6.779,5.442,12.296,12.22,12.296  h255.862V504.072z"/>
<path style="opacity:0.2;enable-background:new    ;" d="M246.268,338.615c-43.717,39.692-80.582,93.575-84.868,165.457h169.736  C326.85,432.192,289.985,378.308,246.268,338.615z"/>
<path style="fill:#8E78CF;" d="M180.863,504.072c9.668-162.166,185.15-232.745,231.062-255.373  c10.026-4.942,21.981,1.318,23.604,12.378c6.14,41.812,12.854,138.242,13.415,230.7c0.041,6.779-5.442,12.296-12.22,12.296H180.863  V504.072z"/>
<g style="opacity:0.1;">
	<path d="M266.267,412.117c-1.475,0-2.965-0.411-4.295-1.27c-3.677-2.376-4.733-7.284-2.357-10.961l15.144-23.439   c2.377-3.676,7.284-4.73,10.961-2.356c3.676,2.376,4.732,7.284,2.356,10.961l-15.144,23.439   C271.417,410.838,268.868,412.117,266.267,412.117z"/>
	<path d="M366.366,363.872c-1.628,0-3.27-0.5-4.684-1.537l-17.209-12.623c-3.53-2.59-4.293-7.552-1.703-11.082   c2.59-3.531,7.552-4.295,11.082-1.702l17.209,12.623c3.53,2.59,4.292,7.552,1.703,11.082   C371.211,362.75,368.803,363.872,366.366,363.872z"/>
	<path d="M373.136,478.234c-2.071,0-4.137-0.805-5.692-2.409c-3.048-3.144-2.97-8.162,0.172-11.209l23.145-22.443   c3.144-3.051,8.163-2.97,11.209,0.172c3.048,3.144,2.971,8.162-0.172,11.209l-23.145,22.443   C377.115,477.491,375.123,478.234,373.136,478.234z"/>
	<path d="M246.62,475.779c-2.007,0-4.016-0.758-5.559-2.276l-17.827-17.534c-3.121-3.07-3.164-8.088-0.093-11.21   c3.071-3.124,8.092-3.162,11.21-0.093l17.827,17.534c3.121,3.07,3.164,8.088,0.093,11.21   C250.72,474.988,248.671,475.779,246.62,475.779z"/>
	<path d="M388.202,393.315c-1.775,0-3.56-0.593-5.037-1.81c-3.379-2.784-3.862-7.78-1.079-11.159l19.635-23.833   c2.783-3.379,7.781-3.861,11.159-1.078c3.379,2.784,3.862,7.78,1.078,11.159l-19.635,23.833   C392.757,392.331,390.488,393.315,388.202,393.315z"/>
	<path d="M378.396,317.583c-1.555,0-3.126-0.457-4.502-1.408c-3.601-2.489-4.502-7.428-2.012-11.03l12.609-18.236   c2.489-3.6,7.427-4.504,11.029-2.012c3.601,2.489,4.502,7.428,2.012,11.029l-12.609,18.236   C383.384,316.388,380.911,317.583,378.396,317.583z"/>
	<path d="M311.656,470.479c-2.821,0-5.551-1.508-6.984-4.165l-12.516-23.203c-2.079-3.853-0.639-8.662,3.213-10.74   c3.853-2.08,8.661-0.64,10.74,3.213l12.516,23.203c2.079,3.854,0.639,8.662-3.213,10.74   C314.217,470.174,312.927,470.479,311.656,470.479z"/>
	<path d="M344.567,423.74c-0.989,0-1.997-0.187-2.97-0.581l-19.545-7.91c-4.059-1.643-6.017-6.264-4.375-10.323   c1.643-4.058,6.263-6.018,10.323-4.375l19.545,7.91c4.059,1.643,6.017,6.264,4.375,10.323   C350.671,421.868,347.702,423.74,344.567,423.74z"/>
</g>
<g style="opacity:0.1;">
	<path d="M125.895,339.355c-1.897,0-3.8-0.677-5.317-2.05l-21.738-19.669c-3.246-2.937-3.498-7.951-0.559-11.198   c2.939-3.246,7.951-3.497,11.198-0.559l21.738,19.669c3.246,2.937,3.498,7.951,0.559,11.198   C130.211,338.476,128.056,339.355,125.895,339.355z"/>
	<path d="M162.009,365.276c-3.08,0-6.01-1.805-7.296-4.818c-1.719-4.027,0.153-8.685,4.179-10.404l25.764-10.996   c4.033-1.716,8.686,0.153,10.404,4.18c1.719,4.027-0.153,8.685-4.179,10.404l-25.764,10.996   C164.101,365.071,163.046,365.276,162.009,365.276z"/>
	<path d="M121.697,467.013c-2.563,0-5.079-1.241-6.605-3.535l-14.973-22.484c-2.427-3.645-1.44-8.566,2.204-10.992   c3.646-2.429,8.566-1.44,10.992,2.204l14.973,22.484c2.427,3.645,1.44,8.566-2.204,10.992   C124.732,466.583,123.206,467.013,121.697,467.013z"/>
	<path d="M149.978,423.852c-3.041,0-5.94-1.759-7.252-4.719c-1.774-4.002,0.034-8.686,4.037-10.459l26.108-11.568   c4.001-1.78,8.686,0.032,10.46,4.036c1.774,4.002-0.034,8.686-4.037,10.46l-26.108,11.568   C152.142,423.633,151.05,423.852,149.978,423.852z"/>
	<path d="M99.244,400.395c-1.99,0-3.982-0.744-5.522-2.24c-3.141-3.051-3.215-8.069-0.165-11.21l21.844-22.497   c3.051-3.143,8.07-3.214,11.21-0.165c3.141,3.051,3.215,8.069,0.165,11.21l-21.844,22.497   C103.378,399.591,101.312,400.395,99.244,400.395z"/>
</g>
<path d="M339.979,223.204h9.183c4.379,0,7.928-3.548,7.928-7.928s-3.548-7.928-7.928-7.928h-9.183c-4.379,0-7.928,3.548-7.928,7.928  S335.6,223.204,339.979,223.204z M162.837,223.204h9.183c4.379,0,7.928-3.548,7.928-7.928s-3.548-7.928-7.928-7.928h-9.183  c-4.379,0-7.928,3.548-7.928,7.928S158.458,223.204,162.837,223.204z M228.404,258.33c4.379,0,7.928-3.548,7.928-7.928  c0-10.845,8.823-19.667,19.667-19.667c10.844,0,19.667,8.823,19.667,19.667c0,4.379,3.549,7.928,7.928,7.928  c4.379,0,7.928-3.548,7.928-7.928c0-19.587-15.936-35.522-35.522-35.522s-35.522,15.936-35.522,35.522  C220.477,254.781,224.026,258.33,228.404,258.33z M443.373,259.925c-1.146-7.802-5.81-14.381-12.798-18.051  c-5.779-3.036-12.293-3.626-18.376-1.775c-2.951-15.608-7.615-31.439-13.703-46.878c18.419-9.562,30.314-28.698,30.314-49.926  c0-28.665-21.558-52.374-49.309-55.809c0.637-2.826,0.984-5.741,0.984-8.723c0-25.576-24.553-46.383-54.73-46.383  c-6.795,0-13.386,1.032-19.645,3.071c-7.638-3.306-15.787-5.827-24.239-7.519c0.051-0.657,0.086-1.317,0.086-1.978  C281.955,11.644,270.312,0,255.999,0c-14.312,0-25.956,11.644-25.956,25.956c0,0.661,0.035,1.32,0.085,1.978  c-8.452,1.691-16.602,4.212-24.239,7.519c-6.259-2.04-12.85-3.071-19.645-3.071c-30.178,0-54.73,20.808-54.73,46.383  c0,2.982,0.347,5.896,0.984,8.723c-27.752,3.434-49.309,27.142-49.309,55.809c0,21.227,11.895,40.364,30.314,49.925  c-6.09,15.439-10.753,31.27-13.703,46.878c-6.084-1.851-12.597-1.259-18.376,1.775c-6.988,3.67-11.653,10.249-12.797,18.051  c-6.116,41.637-12.925,137.028-13.499,231.803c-0.033,5.405,2.047,10.493,5.858,14.327c3.81,3.834,8.885,5.945,14.29,5.945h361.448  c5.405,0,10.48-2.111,14.291-5.945c3.811-3.834,5.891-8.921,5.858-14.327C456.298,396.954,449.488,301.562,443.373,259.925z   M372.47,102.901c0.029,0,0.057-0.002,0.086-0.002c22.275,0,40.397,18.123,40.397,40.397c0,14.838-8.092,28.251-20.717,35.289  c-1.386-3.008-2.823-5.994-4.312-8.951c9.141-5.341,15.122-15.25,15.122-26.338c0-16.812-13.677-30.49-30.49-30.49  c-6.523,0-12.771,2.101-17.914,5.837c-0.098-0.116-0.196-0.234-0.294-0.35C361.725,114.447,367.949,109.162,372.47,102.901z   M173.757,123.914c4.015,0.797,8.191,1.232,12.488,1.232c9.206,0,18.198-1.945,26.213-5.647c13.216,3.7,28.193,5.647,43.541,5.647  c15.348,0,30.325-1.947,43.541-5.647c8.015,3.702,17.008,5.647,26.213,5.647c4.297,0,8.473-0.435,12.488-1.232  c29.006,32.44,51.659,79.668,59.064,122.989c-0.208,0.098-0.411,0.193-0.622,0.294c-31.463,14.853-90.874,42.912-140.634,89.669  c-49.591-46.634-108.534-74.468-140.737-89.67c-0.21-0.099-0.412-0.195-0.619-0.293  C122.098,203.584,144.751,156.357,173.757,123.914z M124.809,143.296c0-8.069,6.565-14.634,14.634-14.634  c2.928,0,5.74,0.888,8.114,2.471c-5.69,7.763-11.024,15.98-15.944,24.523C127.486,153.036,124.809,148.434,124.809,143.296z   M364.442,131.132c2.374-1.583,5.186-2.471,8.114-2.471c8.069,0,14.634,6.565,14.634,14.634c0,5.137-2.677,9.739-6.804,12.359  C375.466,147.112,370.132,138.895,364.442,131.132z M255.999,15.855c5.508,0,9.993,4.434,10.091,9.92  c-3.341-0.253-6.709-0.383-10.091-0.383s-6.749,0.13-10.091,0.383C246.006,20.29,250.492,15.855,255.999,15.855z M186.245,48.237  c5.998,0,11.756,1.057,17.119,3.143c2.019,0.786,4.274,0.71,6.237-0.21c9.655-4.526,25.542-9.921,46.398-9.921  s36.743,5.395,46.398,9.921c1.964,0.92,4.219,0.994,6.237,0.21c5.362-2.086,11.121-3.143,17.118-3.143  c21.435,0,38.874,13.695,38.874,30.528s-17.439,30.527-38.874,30.527c-7.772,0-15.287-1.82-21.732-5.263  c-1.161-0.619-2.445-0.935-3.736-0.935c-0.782,0-1.568,0.115-2.328,0.35c-12.456,3.826-26.966,5.849-41.959,5.849  c-14.994,0-29.503-2.022-41.959-5.849c-2.015-0.62-4.201-0.409-6.063,0.586c-6.446,3.444-13.96,5.263-21.732,5.263  c-21.435,0-38.874-13.694-38.874-30.527S164.81,48.237,186.245,48.237z M99.046,143.296c0-22.275,18.123-40.397,40.397-40.397  c0.029,0,0.057,0.002,0.086,0.002c4.521,6.262,10.746,11.547,18.123,15.393c-0.098,0.116-0.196,0.234-0.294,0.35  c-5.145-3.737-11.393-5.837-17.914-5.837c-16.812,0-30.49,13.677-30.49,30.49c0,11.087,5.981,20.997,15.122,26.338  c-1.488,2.956-2.926,5.942-4.312,8.951C107.137,171.546,99.046,158.134,99.046,143.296z M75.275,496.145  c-1.152,0-2.233-0.45-3.045-1.266c-0.813-0.816-1.256-1.901-1.248-3.053c0.55-90.642,7.209-187.917,13.331-229.596  c0.401-2.729,2.034-5.031,4.482-6.318c2.454-1.291,5.289-1.327,7.773-0.101c3.373,1.662,7.36,3.543,11.975,5.723  c31.297,14.775,88.506,41.794,136.192,86.463c-36.384,37.614-65.566,86.198-71.221,148.147H75.275V496.145z M439.769,494.878  c-0.812,0.816-1.893,1.266-3.045,1.266H189.439c5.785-58.821,35.236-111.603,87.634-156.995  c45.542-39.452,98.128-64.278,126.379-77.614c4.616-2.179,8.603-4.061,11.978-5.724c2.484-1.223,5.318-1.187,7.773,0.101  c2.448,1.286,4.081,3.589,4.483,6.318c6.121,41.68,12.782,138.954,13.33,229.596C441.025,492.978,440.582,494.061,439.769,494.878z"/>
<g>
</g>
<g>
</g>
<g>
</g>
<g>
</g>
<g>
</g>
<g>
</g>
<g>
</g>
<g>
</g>
<g>
</g>
<g>
</g>
<g>
</g>
<g>
</g>
<g>
</g>
<g>
</g>
<g>
</g>
</svg>
