<?xml version="1.0" encoding="iso-8859-1"?>
<!-- Generator: Adobe Illustrator 19.0.0, SVG Export Plug-In . SVG Version: 6.00 Build 0)  -->
<svg xmlns="http://www.w3.org/2000/svg" xmlns:xlink="http://www.w3.org/1999/xlink" version="1.1" id="Layer_1" x="0px" y="0px" viewBox="0 0 512 512" style="enable-background:new 0 0 512 512;" xml:space="preserve">
<polygon style="fill:#E24260;" points="422.522,7.603 422.522,504.395 311.058,504.395 255.995,202.356 207.999,465.706   200.943,504.395 89.479,504.395 89.479,7.603 "/>
<path style="fill:#CE2647;" d="M207.999,465.706l-7.056,38.689H89.479V7.603h50.713c-9.388,28.662-79.03,261.738,67.797,458.093  C207.989,465.696,207.989,465.706,207.999,465.706z"/>
<g>
	<polygon style="fill:#2DADC1;" points="422.518,7.603 422.518,51.807 355.836,51.807 155.639,51.807 89.485,51.807 89.485,7.603     "/>
	<path style="fill:#2DADC1;" d="M135.099,498.596v5.799H89.485V358.987C119.12,399.501,135.099,448.399,135.099,498.596z"/>
</g>
<g>
	<path style="fill:#52BED3;" d="M422.518,358.987v145.408h-45.624v-5.799C376.894,448.399,392.873,399.501,422.518,358.987z"/>
	<path style="fill:#52BED3;" d="M372.129,165.907c12.592,88.165-16.566,177.162-78.889,240.782l-37.239-204.334l-37.27,204.425   l-0.497-0.091c-62.322-63.62-91.481-152.617-78.889-240.782l16.293-114.1h200.197L372.129,165.907z"/>
</g>
<path d="M422.518,0H89.481c-4.2,0-7.604,3.405-7.604,7.604v496.792c0,4.199,3.404,7.604,7.604,7.604h111.458  c3.673,0,6.822-2.626,7.481-6.24l47.581-261.005l47.581,261.005c0.658,3.614,3.807,6.24,7.48,6.24h111.458  c4.2,0,7.604-3.405,7.604-7.604v-55.685c0-4.199-3.404-7.604-7.604-7.604s-7.604,3.405-7.604,7.604v48.081H384.52  c0.306-39.814,10.736-78.127,30.396-112.212v35.237c0,4.199,3.404,7.604,7.604,7.604s7.604-3.405,7.604-7.604V7.604  C430.122,3.405,426.718,0,422.518,0z M414.914,15.208V44.2H97.085V15.208H414.914z M97.085,384.579  c19.661,34.085,30.09,72.399,30.397,112.213H97.085V384.579z M369.311,496.792h-51.907l-15.975-87.633  c30.041-31.522,53.025-69.918,66.579-111.289c13.966-42.627,17.996-88.63,11.653-133.038l-6.022-42.175  c-0.594-4.158-4.456-7.046-8.603-6.452c-4.158,0.593-7.045,4.445-6.452,8.603l6.022,42.176c6.015,42.11,2.193,85.733-11.049,126.153  c-11.688,35.671-30.775,69.001-55.555,97.227l-34.522-189.372c-0.658-3.614-3.807-6.24-7.48-6.24s-6.822,2.626-7.48,6.24  l-34.612,189.866c-10.247-11.601-19.541-24.052-27.711-37.17c-2.221-3.565-6.91-4.656-10.474-2.434  c-3.565,2.22-4.655,6.909-2.434,10.474c10.688,17.162,23.207,33.235,37.207,47.856l-15.9,87.208h-51.906  c-0.365-50.673-16.105-99.069-45.605-140.246V59.408h49.792l-15.054,105.424c-8.474,59.336,1.186,119.055,27.938,172.7  c1.331,2.668,4.019,4.213,6.811,4.213c1.14,0,2.298-0.258,3.387-0.801c3.758-1.874,5.286-6.44,3.412-10.198  c-25.368-50.87-34.528-107.498-26.492-163.763L162.24,59.408h187.005l4.9,34.315c0.541,3.793,3.795,6.53,7.518,6.53  c0.359,0,0.721-0.025,1.085-0.077c4.158-0.594,7.045-4.446,6.452-8.603l-4.593-32.165h50.307v297.137  C385.416,397.724,369.676,446.12,369.311,496.792z"/>
<g>
</g>
<g>
</g>
<g>
</g>
<g>
</g>
<g>
</g>
<g>
</g>
<g>
</g>
<g>
</g>
<g>
</g>
<g>
</g>
<g>
</g>
<g>
</g>
<g>
</g>
<g>
</g>
<g>
</g>
</svg>
