<?xml version="1.0" encoding="iso-8859-1"?>
<!-- Generator: Adobe Illustrator 19.0.0, SVG Export Plug-In . SVG Version: 6.00 Build 0)  -->
<svg xmlns="http://www.w3.org/2000/svg" xmlns:xlink="http://www.w3.org/1999/xlink" version="1.1" id="Capa_1" x="0px" y="0px" viewBox="0 0 512.001 512.001" style="enable-background:new 0 0 512.001 512.001;" xml:space="preserve">
<path style="fill:#F3C74F;" d="M103.607,302.099c-4.425,0-8.895-0.123-13.329-0.405c-25.465-1.622-43.498-8.059-55.13-19.679  c-10.345-10.334-14.908-24.388-12.845-39.574c2.762-20.338,15.329-40.007,35.387-55.382c16.731-12.825,37.909-22.037,58.107-25.275  c13.343-2.139,25.898,6.943,28.038,20.29c2.14,13.345-6.944,25.898-20.29,28.038c-24.531,3.933-56.229,28.6-50.489,37.067  s25.637,8.864,65.727,3.374c13.378-1.841,25.734,7.533,27.566,20.925c1.834,13.391-7.534,25.733-20.925,27.566  C134.491,300.541,119.336,302.099,103.607,302.099z"/>
<path style="opacity:0.2;enable-background:new    ;" d="M143.834,182.074c-1.4-8.733-7.26-15.638-14.88-18.771  c-5.512,16.234-9.527,32.532-11.834,48.259c2.175-0.616,4.326-1.115,6.425-1.45C136.889,207.972,145.973,195.419,143.834,182.074z"/>
<path style="opacity:0.2;enable-background:new    ;" d="M166.35,271.478c-1.833-13.392-14.189-22.766-27.566-20.925  c-12.696,1.739-23.359,2.885-32.197,3.373c-0.043,1.593-0.066,3.175-0.066,4.747c0,14.941,1.883,29.442,5.416,43.286  c12.664-0.414,24.503-1.683,33.488-2.913C158.815,297.21,168.183,284.867,166.35,271.478z"/>
<path style="fill:#F3C74F;" d="M349.382,504.021c-13.432,0-24.319-10.888-24.319-24.32v-92.092c0-13.432,10.888-24.32,24.319-24.32  c13.432,0,24.319,10.888,24.319,24.32v92.092C373.701,493.133,362.813,504.021,349.382,504.021z"/>
<path style="opacity:0.2;enable-background:new    ;" d="M349.382,363.289c-13.432,0-24.319,10.888-24.319,24.32v51.005  c17.172-2.742,33.513-7.963,48.639-15.291v-35.714C373.701,374.176,362.813,363.289,349.382,363.289z"/>
<path style="fill:#F3C74F;" d="M244.808,504.021c-13.432,0-24.319-10.888-24.319-24.32v-92.092c0-13.432,10.888-24.32,24.319-24.32  c13.432,0,24.319,10.888,24.319,24.32v92.092C269.127,493.133,258.24,504.021,244.808,504.021z"/>
<path style="opacity:0.2;enable-background:new    ;" d="M244.808,363.289c-13.432,0-24.319,10.888-24.319,24.32v35.714  c15.126,7.329,31.467,12.549,48.639,15.291v-51.005C269.127,374.176,258.24,363.289,244.808,363.289z"/>
<circle style="fill:#0081C6;" cx="431.809" cy="90.675" r="55.85"/>
<circle style="fill:#F3C74F;" cx="431.809" cy="90.675" r="26.078"/>
<circle style="fill:#0081C6;" cx="162.38" cy="90.675" r="55.85"/>
<circle style="fill:#F3C74F;" cx="162.38" cy="90.675" r="26.078"/>
<path style="opacity:0.2;enable-background:new    ;" d="M195.395,45.628c-26.262,23.735-48.536,56.409-64.358,91.283  c8.937,6.068,19.723,9.617,31.339,9.617c30.848,0,55.855-25.008,55.855-55.855C218.232,72.179,209.239,55.794,195.395,45.628z"/>
<path style="fill:#40BAB3;" d="M472.597,243.841c0-96.64-80.567-235.862-175.502-235.862S121.593,147.201,121.593,243.841  s78.575,174.982,175.502,174.982C394.022,418.823,472.597,340.481,472.597,243.841z"/>
<g>
	<path style="fill:#E6595A;" d="M209.371,214.973h-29.299c-4.408,0-7.98-3.572-7.98-7.98c0-4.408,3.572-7.98,7.98-7.98h29.299   c4.408,0,7.98,3.572,7.98,7.98C217.351,211.401,213.779,214.973,209.371,214.973z"/>
	<path style="fill:#E6595A;" d="M414.118,214.973h-29.299c-4.408,0-7.98-3.572-7.98-7.98c0-4.408,3.572-7.98,7.98-7.98h29.299   c4.408,0,7.98,3.572,7.98,7.98C422.098,211.401,418.525,214.973,414.118,214.973z"/>
</g>
<path style="fill:#FFFFFF;" d="M124.549,275.934c15.119,81.311,86.615,142.891,172.546,142.891s157.427-61.579,172.546-142.891  H124.549z"/>
<path style="fill:#0081C6;" d="M155.617,347.378c31.943,43.323,83.412,71.445,141.478,71.445  c58.066,0,109.535-28.122,141.478-71.445H155.617z"/>
<path style="opacity:0.2;enable-background:new    ;" d="M315.705,400.214c-96.927,0-175.502-78.342-175.502-174.982  c0-58.18,29.208-131.782,73.165-181.159c-54.135,47.788-91.775,133.719-91.775,199.768c0,96.64,78.575,174.983,175.502,174.983  c53.291,0,101.029-23.687,133.217-61.072C399.562,384.211,359.509,400.214,315.705,400.214z"/>
<path style="fill:#F3C74F;" d="M385.869,325.571c6.895-3.334,13.553-6.897,19.91-10.832c6.364-3.935,12.422-8.249,18.329-13.109  c5.908-4.85,11.684-10.276,17.533-16.158c5.846-5.872,11.77-12.166,17.889-18.478c6.857-7.072,18.149-7.247,25.22-0.39  c6.008,5.825,7.038,14.852,3.008,21.773l-0.047,0.072c-4.25,7.297-8.462,14.789-13.062,22.468  c-4.593,7.667-9.622,15.531-15.332,23.243c-5.696,7.714-12.057,15.218-18.85,22.219c-6.792,7.014-13.98,13.537-21.336,19.673  l-0.46,0.384c-12.931,10.787-32.159,9.047-42.945-3.884c-10.786-12.931-9.047-32.159,3.884-42.945  C381.527,328.01,383.725,326.624,385.869,325.571z"/>
<g>
	<path style="fill:#892641;" d="M358.335,288.905h30.935v-37.696c0-17.085-13.85-30.935-30.935-30.935l0,0V288.905z"/>
	<path style="fill:#892641;" d="M420.205,288.905H389.27v-37.696c0-17.085,13.85-30.935,30.935-30.935l0,0V288.905z"/>
</g>
<g>
	<path style="fill:#E6595A;" d="M389.27,311.274L389.27,311.274v-24.466c0-23.619-19.147-42.766-42.766-42.766l0,0v24.466   C346.504,292.128,365.651,311.274,389.27,311.274z"/>
	<path style="fill:#E6595A;" d="M389.27,311.274L389.27,311.274v-24.466c0-23.619,19.147-42.766,42.766-42.766l0,0v24.466   C432.036,292.128,412.889,311.274,389.27,311.274z"/>
</g>
<path d="M194.722,156.039c-10.712,0-19.428,8.715-19.428,19.429c0,4.408,3.572,7.98,7.98,7.98s7.98-3.572,7.98-7.98  c0-1.913,1.556-3.469,3.468-3.469c1.913,0,3.469,1.556,3.469,3.469c0,4.408,3.572,7.98,7.98,7.98s7.98-3.572,7.98-7.98  C214.149,164.755,205.434,156.039,194.722,156.039z M490.306,260.877c-2.944-2.855-6.408-4.837-10.072-6.01  c0.219-3.673,0.343-7.359,0.343-11.026c0-29.643-7.364-63.339-20.36-95.991c21.483-10.668,35.433-32.715,35.433-57.178  c0-35.199-28.637-63.835-63.835-63.835c-15.208,0-29.88,5.488-41.357,15.242c-6.963-6.511-14.1-12.347-21.328-17.382  C345.606,8.309,321.371,0,297.095,0c-24.275,0-48.512,8.309-72.034,24.696c-7.228,5.035-14.365,10.872-21.328,17.383  c-11.478-9.754-26.149-15.242-41.357-15.242c-35.199,0-63.835,28.637-63.835,63.835c0,24.463,13.95,46.51,35.433,57.178  c-1.02,2.563-2.001,5.134-2.952,7.708c-5.207-1.945-10.882-2.55-16.489-1.652c-21.462,3.44-43.951,13.216-61.698,26.821  c-21.742,16.666-35.392,38.201-38.44,60.64c-2.407,17.715,2.961,34.157,15.112,46.294c13.065,13.052,32.778,20.247,60.265,21.998  c4.402,0.28,9.057,0.421,13.835,0.421c6.998,0,14.414-0.305,22.11-0.899c16.114,41.887,47.244,76.41,86.79,96.985v73.536  c0,17.809,14.49,32.299,32.299,32.299s32.299-14.49,32.299-32.299v-53.986c6.567,0.713,13.234,1.09,19.987,1.09  c6.727,0,13.395-0.364,19.988-1.07v53.967c0,17.809,14.49,32.299,32.299,32.299c17.809,0,32.3-14.49,32.3-32.299V432.11  c1.038,3.202,4.041,5.517,7.589,5.517c4.408,0,7.98-3.572,7.98-7.98v-32.482c3.092-2.017,6.135-4.135,9.125-6.35  c6.345-1.204,12.314-4.002,17.412-8.253l0.456-0.381c8.213-6.851,15.394-13.474,21.952-20.243  c7.035-7.252,13.611-15.003,19.535-23.027c5.186-7.003,10.195-14.595,15.764-23.89c3.035-5.066,5.908-10.062,8.688-14.894  c1.452-2.525,2.892-5.027,4.335-7.507c0.047-0.073,0.091-0.149,0.136-0.225C500.637,282.12,498.85,269.16,490.306,260.877z   M431.815,42.797c26.398,0,47.875,21.477,47.875,47.875c0,18.031-10.102,34.312-25.742,42.463c-1.906-4.189-3.911-8.343-5.995-12.46  c10.789-5.808,17.918-17.205,17.918-30.003c0-18.779-15.278-34.058-34.058-34.058c-7.667,0-15.005,2.587-20.913,7.18  c-2.994-3.59-6.046-7.049-9.144-10.378C410.216,46.603,420.833,42.797,431.815,42.797z M440.393,106.601  c-4.184-7.349-8.637-14.52-13.354-21.43c-2.051-3.005-4.146-5.945-6.276-8.825c3.13-2.413,7.004-3.772,11.052-3.772  c9.979,0,18.098,8.118,18.098,18.098C449.912,97.473,446.119,103.515,440.393,106.601z M114.5,90.672  c0-26.399,21.477-47.875,47.875-47.875c10.982,0,21.598,3.807,30.057,10.62c-3.099,3.329-6.151,6.788-9.145,10.378  c-5.907-4.594-13.246-7.18-20.912-7.18c-18.779,0-34.058,15.278-34.058,34.058c0,12.798,7.129,24.195,17.919,30.003  c-2.084,4.117-4.089,8.271-5.995,12.46C124.602,124.984,114.5,108.703,114.5,90.672z M173.428,76.346  c-2.13,2.88-4.224,5.82-6.276,8.824c-4.718,6.911-9.171,14.081-13.354,21.43c-5.727-3.087-9.52-9.128-9.52-15.929  c0-9.979,8.118-18.098,18.098-18.098C166.423,72.574,170.298,73.933,173.428,76.346z M117.681,203.169  c-20.95,5.07-46.05,21.882-51.891,35.391c-2.783,6.44-0.781,10.97,0.66,13.097c5.301,7.819,15.916,10.559,31.16,10.559  c5.102,0,10.736-0.313,16.851-0.84c1.058,11.036,3.095,21.79,6.037,32.172c-10.698,0.684-20.727,0.752-29.713,0.182  c-23.443-1.494-39.797-7.173-49.997-17.362c-8.54-8.53-12.297-20.197-10.577-32.855c2.477-18.236,13.96-36.036,32.334-50.121  c15.714-12.045,35.584-20.693,54.516-23.729c3.003-0.479,6.044-0.107,8.806,1.012C122.45,181.585,119.702,192.476,117.681,203.169z   M113.633,245.417c-21.973,1.859-29.87,0.036-32.693-1.613c3.33-5.655,18.333-17.573,34.071-23.216  c-0.918,7.956-1.398,15.736-1.398,23.253C113.613,244.368,113.629,244.89,113.633,245.417z M261.147,479.701  c0,9.01-7.33,16.339-16.34,16.339s-16.339-7.33-16.339-16.339v-66.185c10.453,4.219,21.379,7.507,32.679,9.754V479.701z   M365.722,479.701c0,9.01-7.33,16.339-16.34,16.339c-9.01,0-16.339-7.33-16.339-16.339v-56.385  c11.203-2.207,22.13-5.445,32.679-9.693L365.722,479.701L365.722,479.701z M381.29,388.267  c-25.452,14.822-54.199,22.577-84.195,22.577c-92.371,0-167.521-74.917-167.521-167.003c0-46.458,19.45-103.808,50.761-149.671  c33.932-49.704,76.491-78.21,116.761-78.21c40.271,0,82.829,28.506,116.761,78.21c31.311,45.862,50.761,103.212,50.761,149.67  c0,3.685-0.135,7.39-0.377,11.076c-3.838,1.261-7.439,3.427-10.44,6.523c-2.175,2.242-4.324,4.484-6.454,6.704  c-2.726,2.841-5.346,5.567-7.942,8.226c0.4-2.563,0.612-5.188,0.612-7.862v-24.465c0-4.408-3.572-7.98-7.98-7.98  c-1.297,0-2.577,0.065-3.85,0.161v-15.95c0-4.408-3.572-7.98-7.98-7.98c-12.602,0-23.819,6.027-30.935,15.343  c-7.117-9.316-18.333-15.343-30.935-15.343c-4.408,0-7.98,3.572-7.98,7.98v15.95c-1.273-0.096-2.554-0.161-3.851-0.161  c-4.408,0-7.98,3.572-7.98,7.98v24.465c0,25.266,18.564,46.274,42.766,50.114v0.347c-2.434,1.287-4.768,2.823-6.789,4.509  c-16.29,13.589-18.488,37.895-4.902,54.184c3.296,3.953,7.265,7.143,11.69,9.46v1.144H381.29z M424.056,252.948v15.561  c0,16.436-11.458,30.247-26.805,33.862v-15.562C397.25,270.373,408.709,256.563,424.056,252.948z M397.303,249.862  c0.541-9.266,6.588-17.078,14.922-20.177v10.407C406.675,242.455,401.636,245.787,397.303,249.862z M381.29,286.809v15.562  c-15.347-3.616-26.806-17.426-26.806-33.862v-15.561C369.832,256.563,381.29,270.373,381.29,286.809z M366.315,240.092v-10.407  c8.333,3.098,14.381,10.91,14.922,20.177C376.904,245.787,371.866,242.456,366.315,240.092z M480.934,284.238  c-0.04,0.065-0.08,0.13-0.118,0.197c-1.486,2.554-2.97,5.132-4.466,7.733c-2.745,4.772-5.583,9.707-8.544,14.65  c-5.297,8.84-10.032,16.02-14.908,22.604c-5.508,7.462-11.617,14.661-18.162,21.407c-6.165,6.365-12.941,12.612-20.717,19.097  l-0.456,0.381c-4.619,3.852-10.462,5.672-16.448,5.133c-5.988-0.542-11.407-3.384-15.258-7.999  c-7.951-9.531-6.665-23.754,2.869-31.705c1.331-1.111,2.979-2.173,4.643-2.991c7.652-3.702,14.395-7.371,20.607-11.216  c6.798-4.203,13.078-8.695,19.195-13.727c5.654-4.64,11.415-9.947,18.125-16.696c3.829-3.846,7.586-7.762,11.565-11.907  c2.111-2.2,4.242-4.422,6.398-6.645c3.783-3.904,10.037-3.997,13.938-0.215C482.424,275.465,483.129,280.34,480.934,284.238z   M331.477,168.334c-4.408,0-7.98,3.572-7.98,7.98c0,5.079-4.133,9.21-9.211,9.21s-9.21-4.132-9.21-9.21  c0-4.408-3.572-7.98-7.98-7.98c-4.408,0-7.98,3.572-7.98,7.98c0,5.079-4.133,9.21-9.211,9.21s-9.21-4.132-9.21-9.21  c0-4.408-3.572-7.98-7.98-7.98s-7.98,3.572-7.98,7.98c0,13.879,11.291,25.17,25.17,25.17c6.641,0,12.688-2.584,17.191-6.801  c4.502,4.217,10.55,6.801,17.19,6.801c13.88,0,25.171-11.291,25.171-25.17C339.457,171.906,335.885,168.334,331.477,168.334z   M388.021,183.448c4.408,0,7.98-3.572,7.98-7.98c0-1.913,1.556-3.469,3.468-3.469c1.913,0,3.469,1.556,3.469,3.469  c0,4.408,3.572,7.98,7.98,7.98c4.407,0,7.98-3.572,7.98-7.98c0-10.712-8.715-19.429-19.429-19.429  c-10.712,0-19.428,8.715-19.428,19.429C380.041,179.876,383.613,183.448,388.021,183.448z"/>
<g>
</g>
<g>
</g>
<g>
</g>
<g>
</g>
<g>
</g>
<g>
</g>
<g>
</g>
<g>
</g>
<g>
</g>
<g>
</g>
<g>
</g>
<g>
</g>
<g>
</g>
<g>
</g>
<g>
</g>
</svg>
