<?xml version="1.0" encoding="iso-8859-1"?>
<!-- Generator: Adobe Illustrator 19.0.0, SVG Export Plug-In . SVG Version: 6.00 Build 0)  -->
<svg xmlns="http://www.w3.org/2000/svg" xmlns:xlink="http://www.w3.org/1999/xlink" version="1.1" id="Layer_1" x="0px" y="0px" viewBox="0 0 512.001 512.001" style="enable-background:new 0 0 512.001 512.001;" xml:space="preserve">
<polygon style="fill:#4697D3;" points="144.204,69.834 144.207,69.834 144.207,69.832 "/>
<path style="fill:#52BED3;" d="M427.933,132.048v-19.002v-67l0,0h-70.928v-23.79l-0.004,0.001H286.07l-0.004-0.001v21.959h-70.928  h-0.001v25.617h-70.93V176.62v48.444c0,15.335,1.587,30.528,4.69,45.348l18.282,52.927c7.233,14.628,16.106,28.5,26.508,41.335  l207.431-0.368C461.324,351.574,504.4,298.433,504.4,236.883v-79.214l0.005-0.004L427.933,132.048z"/>
<path style="fill:#E24260;" d="M286.068,91.434V44.512c0,0,40.425-4.065,70.936,26.183v-4.136h0.284c0,0,40.171-4.034,70.642,25.899  v20.587v19.006v27.663c0,0,45.594,1.105,76.47,50.713v26.456c0,55.143-34.586,103.545-85.076,122.166  c-63.1-125.258-275.117-147.071-275.117-147.071v-35.356V89.113c3.71-0.294,41.894-2.544,70.926,26.497V69.833v-4.582  C215.132,65.251,255.546,61.207,286.068,91.434z"/>
<polygon style="fill:#E23434;" points="261.525,270.413 144.204,270.413 155.231,323.339 276.227,323.339 "/>
<polygon style="fill:#4697D3;" points="7.603,194.903 7.606,194.903 7.606,194.901 "/>
<path style="fill:#52BED3;" d="M291.332,257.117v-19.002v-67l0,0h-70.928v-23.788l-0.004,0.001h-70.932l-0.004-0.001v21.959H78.536  h-0.001v25.617H7.606V301.69v48.444c0,15.335,1.587,30.528,4.69,45.348l18.282,52.927c7.233,14.628,16.106,28.5,26.508,41.335  l207.431-0.368c60.205-12.732,103.281-65.872,103.281-127.423v-79.214l0.005-0.004L291.332,257.117z"/>
<g>
	<path style="fill:#E24260;" d="M149.466,216.503v-46.922c0,0,40.425-4.065,70.936,26.183v-4.136h0.284   c0,0,40.171-4.034,70.642,25.899v20.587v19.006v27.663c0,0,45.594,1.105,76.47,50.713v26.456   c0,55.143-34.586,103.545-85.076,122.166C219.622,358.861,7.605,337.047,7.605,337.047v-35.356v-87.509   c3.71-0.294,41.894-2.544,70.926,26.497v-45.777v-4.582C78.531,190.32,118.945,186.276,149.466,216.503z"/>
	<polygon style="fill:#E24260;" points="124.924,395.482 7.603,395.482 18.63,448.408 139.626,448.408  "/>
</g>
<path d="M370.218,275.526l-71.283-23.88v-13.531c0-0.004-0.001-67.001-0.001-67.001c0-4.199-3.404-7.602-7.602-7.602h-63.325  v-16.186c0-2.261-1.009-4.405-2.749-5.85c-1.376-1.141-3.098-1.752-4.856-1.752c-0.012,0-0.024,0-0.038,0h-70.789  c-1.821-0.025-3.613,0.605-5.025,1.801c-1.705,1.444-2.688,3.566-2.688,5.801v14.356H78.536c-4.199,0-7.602,3.404-7.602,7.602  v18.015H7.677c-1.409-0.015-2.851,0.373-4.103,1.156c-2.322,1.452-3.641,4.002-3.571,6.647v155.031  c0,13.076,1.142,26.174,3.368,39.046c-0.618,0.416-1.185,0.915-1.665,1.506c-1.443,1.775-2.011,4.107-1.544,6.346l11.027,52.925  c0.735,3.525,3.842,6.052,7.442,6.052h7.298c7.095,13.626,15.565,26.57,25.25,38.521c1.443,1.781,3.614,2.816,5.907,2.816  c0.004,0,0.009,0,0.013,0l207.432-0.368c0.524-0.001,1.046-0.056,1.559-0.164c30.818-6.517,58.715-23.584,78.551-48.055  c19.835-24.472,30.76-55.3,30.76-86.805v-78.937c0.018-0.494-0.012-0.993-0.092-1.492  C374.858,278.734,372.898,276.424,370.218,275.526z M360.195,288.204v24.525c-22.963-25.446-48.817-32.686-61.261-34.74v-10.307  L360.195,288.204z M283.73,178.718v22.743c-21.367-14.646-43.988-17.325-55.724-17.603v-5.14H283.73z M212.802,154.93v16.107  c0,0.026-0.004,0.052-0.004,0.078c0,0.026,0.004,0.052,0.004,0.078v8.41c-21.286-14.701-43.869-17.475-55.736-17.791v-6.884h55.736  V154.93z M141.861,176.887v23.465c-21.284-14.694-43.857-17.473-55.723-17.793v-5.672L141.861,176.887L141.861,176.887z   M70.932,202.506v21.931c-21.195-14.753-43.728-17.623-55.725-17.977v-3.953h55.725V202.506z M332.828,439.184  c-12.488,15.408-28.579,27.491-46.629,35.308c-13.023-23.42-31.976-44.774-56.458-63.545c-3.332-2.555-8.105-1.925-10.659,1.407  c-2.555,3.332-1.925,8.104,1.407,10.659c22.052,16.91,39.232,35.955,51.2,56.706c-2.637,0.765-5.294,1.469-7.987,2.057  l-202.959,0.36c-6.468-8.263-12.319-17.012-17.507-26.125h96.389c2.376,0,4.615-1.111,6.053-3.002s1.908-4.347,1.272-6.635  l-14.702-52.925c-0.914-3.29-3.91-5.568-7.326-5.568H69.651c-4.199,0-7.602,3.404-7.602,7.602c0,4.199,3.404,7.602,7.602,7.602  h49.495l10.478,37.72H24.812l-7.859-37.72h25.33c4.199,0,7.602-3.404,7.602-7.602c0-4.199-3.404-7.602-7.602-7.602H18.571  c-2.228-12.433-3.362-25.1-3.362-37.747v-4.442c27.273,3.884,115.751,19.305,185.249,63.37c1.263,0.801,2.671,1.183,4.064,1.183  c2.517,0,4.98-1.249,6.428-3.533c2.248-3.546,1.196-8.243-2.35-10.491c-74.752-47.397-167.543-62.483-193.39-65.911V221.687  c11.724,0.427,35.762,3.754,55.725,22.234v19.825c0,4.199,3.404,7.602,7.602,7.602s7.602-3.404,7.602-7.602v-65.931  c11.6,0.424,35.763,3.684,55.723,21.954v29.13c0,4.199,3.404,7.602,7.602,7.602c4.199,0,7.602-3.404,7.602-7.602v-71.86  c11.557,0.381,35.662,3.571,55.736,21.973v61.429c0,4.199,3.404,7.602,7.602,7.602s7.602-3.404,7.602-7.602v-61.331  c11.434,0.376,35.667,3.506,55.724,21.708v115.614c0,4.199,3.403,7.602,7.602,7.602s7.602-3.404,7.602-7.602v-42.97  c13.171,2.695,40.443,12.042,61.261,44.247v24.244C360.195,389.983,350.477,417.412,332.828,439.184z"/>
<path d="M506.93,150.508c-0.037-0.015-0.071-0.036-0.109-0.05l-71.284-23.88V46.047l0,0l0,0c0-4.199-3.403-7.602-7.602-7.602  h-63.326V22.257c0-4.199-3.403-7.602-7.602-7.602h-70.94c-4.2,0-7.602,3.404-7.602,7.602v14.356h-63.326  c-4.199,0-7.602,3.404-7.602,7.602v18.016l-63.329,0.002c-4.199,0-7.602,3.404-7.602,7.602v59.62c0,4.199,3.404,7.602,7.602,7.602  s7.602-3.404,7.602-7.602V96.619c11.723,0.427,35.763,3.753,55.727,22.235v7.224c0,4.199,3.404,7.602,7.602,7.602  s7.602-3.404,7.602-7.602V72.72c11.554,0.382,35.646,3.581,55.724,21.984v29.127c0,4.199,3.403,7.602,7.602,7.602  s7.602-3.404,7.602-7.602v-71.86c11.558,0.381,35.663,3.572,55.735,21.973v61.428c0,4.199,3.403,7.602,7.602,7.602  s7.602-3.404,7.602-7.602V74.044c11.433,0.375,35.662,3.503,55.724,21.692v115.628c0,4.199,3.403,7.602,7.602,7.602  s7.602-3.404,7.602-7.602v-43.012c13.18,2.632,40.323,11.883,61.26,44.287v24.25c0,22.069-5.951,43.737-17.211,62.662  c-2.147,3.609-0.962,8.273,2.646,10.42c1.218,0.725,2.557,1.07,3.88,1.07c2.593,0,5.119-1.327,6.54-3.717  c12.658-21.276,19.349-45.632,19.349-70.436v-79.217C512.001,154.36,509.882,151.552,506.93,150.508z M349.403,29.86v16.108  c0,0.026-0.004,0.052-0.004,0.078s0.004,0.052,0.004,0.078v8.411c-21.286-14.7-43.869-17.475-55.735-17.791V29.86H349.403z   M151.808,81.39v-3.953h55.727v21.931C186.338,84.614,163.803,81.744,151.808,81.39z M222.74,57.493v-5.674h55.724v23.467  C257.176,60.585,234.602,57.808,222.74,57.493z M364.608,58.792v-5.144h55.724v22.736C398.963,61.747,376.344,59.07,364.608,58.792z   M435.536,152.921v-10.308l61.26,20.521v24.524C473.832,162.216,447.98,154.975,435.536,152.921z"/>
<path d="M478.017,315.84c-3.189-2.733-7.989-2.36-10.719,0.828c-12.139,14.172-27.413,25.4-44.463,32.768  c-8.045-14.464-18.391-28.201-30.824-40.914c-2.936-3-7.748-3.056-10.751-0.12c-3.001,2.936-3.055,7.749-0.12,10.751  c10.861,11.106,19.971,23.021,27.176,35.513c-2.652,0.767-5.332,1.448-8.025,2.037l-11.138,0.057  c-4.2,0.021-7.585,3.442-7.564,7.641c0.021,4.185,3.421,7.564,7.601,7.564c0.013,0,0.026,0,0.04,0l11.928-0.061  c0.517-0.003,1.033-0.058,1.538-0.165c6.538-1.386,13.018-3.255,19.258-5.554c0.123-0.046,0.244-0.094,0.364-0.145  c21.809-8.112,41.35-21.758,56.531-39.481C481.577,323.371,481.205,318.572,478.017,315.84z"/>
<g>
</g>
<g>
</g>
<g>
</g>
<g>
</g>
<g>
</g>
<g>
</g>
<g>
</g>
<g>
</g>
<g>
</g>
<g>
</g>
<g>
</g>
<g>
</g>
<g>
</g>
<g>
</g>
<g>
</g>
</svg>
