<?xml version="1.0" encoding="iso-8859-1"?>
<!-- Generator: Adobe Illustrator 19.0.0, SVG Export Plug-In . SVG Version: 6.00 Build 0)  -->
<svg xmlns="http://www.w3.org/2000/svg" xmlns:xlink="http://www.w3.org/1999/xlink" version="1.1" id="Capa_1" x="0px" y="0px" viewBox="0 0 512.001 512.001" style="enable-background:new 0 0 512.001 512.001;" xml:space="preserve">
<g>
	<path style="fill:#F3C74F;" d="M451.504,356.787c-4.973,0-9.991-1.52-14.316-4.675c-10.851-7.918-13.228-23.132-5.311-33.983   c2.937-4.025,3.355-7.398,1.444-11.644c-3.941-8.756-15.455-16.413-26.216-17.436c-13.372-1.269-23.182-13.139-21.913-26.512   c1.268-13.374,13.117-23.199,26.512-21.913c28.318,2.688,54.832,21.134,65.976,45.898c9.086,20.189,6.714,42.161-6.508,60.28   C466.41,353.326,459.009,356.787,451.504,356.787z"/>
	<path style="fill:#F3C74F;" d="M60.495,356.787c-7.505,0-14.905-3.461-19.666-9.986c-13.222-18.119-15.594-40.09-6.509-60.28   c11.144-24.764,37.658-43.208,65.975-45.898c13.383-1.285,25.242,8.541,26.512,21.913c1.269,13.373-8.541,25.242-21.914,26.512   c-10.76,1.023-22.275,8.679-26.215,17.436c-1.911,4.245-1.493,7.619,1.443,11.644c7.918,10.851,5.541,26.065-5.311,33.983   C70.488,355.266,65.469,356.787,60.495,356.787z"/>
</g>
<path style="opacity:0.2;enable-background:new    ;" d="M126.807,262.536c-1.269-13.373-13.13-23.198-26.512-21.913  c-11.23,1.067-22.172,4.619-31.989,10.053c0.239,19.807,3.776,38.821,10.093,56.522c0.094-0.239,0.17-0.471,0.279-0.715  c3.94-8.756,15.455-16.413,26.215-17.435C118.266,287.778,128.078,275.908,126.807,262.536z"/>
<path style="fill:#F3C74F;" d="M308.291,504.04c-13.433,0-24.321-10.889-24.321-24.321v-92.1c0-13.433,10.889-24.321,24.321-24.321  c13.433,0,24.321,10.889,24.321,24.321v92.1C332.612,493.151,321.724,504.04,308.291,504.04z"/>
<path style="opacity:0.2;enable-background:new    ;" d="M308.291,363.297c-13.433,0-24.321,10.889-24.321,24.321v51.009  c17.174-2.742,33.516-7.963,48.643-15.293v-35.716C332.612,374.186,321.724,363.297,308.291,363.297z"/>
<path style="fill:#F3C74F;" d="M203.709,504.04c-13.433,0-24.321-10.889-24.321-24.321v-92.1c0-13.433,10.889-24.321,24.321-24.321  c13.433,0,24.321,10.889,24.321,24.321v92.1C228.03,493.151,217.141,504.04,203.709,504.04z"/>
<path style="opacity:0.2;enable-background:new    ;" d="M203.709,363.297c-13.433,0-24.321,10.889-24.321,24.321v35.716  c15.127,7.329,31.469,12.55,48.643,15.293v-51.009C228.03,374.186,217.141,363.297,203.709,363.297z"/>
<circle style="fill:#0081C6;" cx="390.734" cy="90.658" r="55.86"/>
<circle style="fill:#F3C74F;" cx="390.734" cy="90.658" r="26.08"/>
<circle style="fill:#0081C6;" cx="121.266" cy="90.658" r="55.86"/>
<circle style="fill:#F3C74F;" cx="121.266" cy="90.658" r="26.08"/>
<path style="opacity:0.2;enable-background:new    ;" d="M154.292,45.611c-26.263,23.736-48.539,56.413-64.364,91.29  c8.937,6.069,19.725,9.618,31.342,9.618c30.85,0,55.86-25.01,55.86-55.86C177.131,72.165,168.137,55.777,154.292,45.611z"/>
<path style="fill:#40BAB3;" d="M431.515,243.839c0-96.648-80.573-235.88-175.515-235.88S80.484,147.192,80.484,243.839  s78.581,174.996,175.515,174.996S431.515,340.488,431.515,243.839z"/>
<path style="fill:#F0B0B7;" d="M256,227.366c26.997,0,42.719,10.369,54.401,0.464c21.275-18.039-10.371-45.711-54.401-45.711  s-75.676,27.673-54.401,45.711C213.281,237.735,229.004,227.366,256,227.366z"/>
<path style="fill:#E6595A;" d="M256,205.609c-18.225,0-32.999,11.166-32.999,24.942c0,0.257,0.015,0.512,0.025,0.766  c8.771-1.353,19.459-3.95,32.974-3.95c13.514,0,24.202,2.598,32.974,3.95c0.011-0.255,0.025-0.509,0.025-0.766  C288.999,216.775,274.225,205.609,256,205.609z"/>
<g>
	<circle style="fill:#FFFFFF;" cx="153.021" cy="166" r="30.605"/>
	<circle style="fill:#FFFFFF;" cx="358.98" cy="166" r="30.605"/>
	<path style="fill:#FFFFFF;" d="M83.441,275.935C98.56,357.253,170.062,418.837,256,418.837s157.44-61.584,172.559-142.902H83.441z"/>
</g>
<path style="fill:#0081C6;" d="M114.511,347.386c31.946,43.327,83.418,71.451,141.489,71.451s109.544-28.124,141.489-71.451H114.511  z"/>
<path style="opacity:0.2;enable-background:new    ;" d="M274.611,400.224c-96.934,0-175.515-78.348-175.515-174.996  c0-58.186,29.211-131.792,73.17-181.173c-54.139,47.792-91.783,133.729-91.783,199.784c0,96.648,78.581,174.997,175.515,174.997  c53.295,0,101.037-23.689,133.227-61.077C358.476,384.221,318.419,400.224,274.611,400.224z"/>
<g>
	<path style="fill:#F3C74F;" d="M92.493,370.059c-21.897,0-40.646-8.159-51.664-23.259c-7.918-10.851-5.541-26.065,5.31-33.983   c10.849-7.917,26.066-5.54,33.983,5.311c1.629,2.232,10.786,5.117,24.581,1.675c18.986-4.739,42.654-20.798,46.874-50.463   c1.891-13.298,14.2-22.542,27.504-20.654c13.298,1.892,22.546,14.206,20.654,27.504c-7.622,53.594-49.612,82.414-83.255,90.809   C108.233,369.056,100.167,370.059,92.493,370.059z"/>
	<path style="fill:#F3C74F;" d="M419.508,370.059c-7.677,0-15.738-1.002-23.989-3.062c-33.643-8.395-75.633-37.215-83.256-90.809   c-1.892-13.298,7.356-25.613,20.654-27.504c13.287-1.886,25.613,7.355,27.504,20.654c4.22,29.666,27.888,45.726,46.875,50.463   c13.798,3.445,22.953,0.557,24.581-1.675c7.917-10.852,23.131-13.228,33.983-5.311c10.851,7.918,13.228,23.132,5.311,33.983   C460.155,361.898,441.401,370.059,419.508,370.059z"/>
</g>
<g style="opacity:0.3;">
	<path d="M116.935,255.841c-3.709,0-7.029-2.606-7.793-6.382c-0.872-4.309,1.914-8.51,6.222-9.381   c15.476-3.133,32.32-12.552,50.063-27.996c3.316-2.887,8.343-2.539,11.23,0.778c2.886,3.316,2.538,8.343-0.778,11.23   c-19.848,17.275-39.146,27.904-57.357,31.591C117.99,255.789,117.458,255.841,116.935,255.841z"/>
	<path d="M105.581,232.313c-3.662,0-6.958-2.543-7.769-6.266c-0.937-4.295,1.786-8.536,6.081-9.473   c6.964-1.519,14.762-5.026,16.824-7.031c3.151-3.064,8.191-2.993,11.255,0.157c3.065,3.152,2.994,8.191-0.157,11.255   c-5.664,5.508-17.774,9.699-24.531,11.172C106.713,232.252,106.142,232.313,105.581,232.313z"/>
	<path d="M395.065,255.841c-0.523,0-1.055-0.052-1.588-0.159c-18.21-3.687-37.508-14.315-57.356-31.591   c-3.317-2.887-3.665-7.914-0.778-11.23c2.887-3.317,7.914-3.663,11.23-0.778c17.744,15.444,34.587,24.863,50.063,27.996   c4.309,0.871,7.095,5.072,6.221,9.381C402.094,253.235,398.775,255.841,395.065,255.841z"/>
	<path d="M406.418,232.313c-0.561,0-1.131-0.061-1.703-0.185c-6.756-1.474-18.865-5.664-24.53-11.172   c-3.152-3.065-3.222-8.104-0.157-11.255c3.063-3.15,8.102-3.224,11.255-0.157c2.062,2.005,9.86,5.512,16.824,7.031   c4.295,0.937,7.017,5.178,6.081,9.473C413.375,229.77,410.08,232.313,406.418,232.313z"/>
</g>
<path d="M323.651,206.756c-6.818-18.583-35.901-32.596-67.651-32.596c-31.749,0-60.834,14.014-67.65,32.596  c-3.605,9.829-0.653,19.722,8.102,27.145c5.524,4.683,11.579,6.146,17.988,6.146c5.207,0,10.649-0.966,16.229-1.956  c7.3-1.297,15.573-2.765,25.331-2.765c9.759,0,18.033,1.469,25.331,2.765c12.449,2.208,24.207,4.298,34.218-4.19  C324.303,226.478,327.257,216.584,323.651,206.756z M305.253,221.758c-4.12,3.493-9.769,2.677-21.139,0.658  c-7.552-1.342-16.953-3.01-28.114-3.01s-20.561,1.668-28.114,3.01c-11.371,2.019-17.02,2.835-21.139-0.658  c-4.694-3.98-4.31-7.179-3.451-9.519c1.84-5.018,8.039-10.459,16.58-14.555c10.228-4.904,23.058-7.605,36.125-7.605  s25.897,2.701,36.125,7.605c8.541,4.096,14.741,9.537,16.581,14.555C309.564,214.581,309.948,217.778,305.253,221.758z   M358.981,204.563c21.266,0,38.566-17.301,38.566-38.565s-17.301-38.565-38.566-38.565c-21.265,0-38.565,17.301-38.565,38.565  S337.715,204.563,358.981,204.563z M358.981,143.353c12.487,0,22.646,10.158,22.646,22.645c0,12.487-10.159,22.645-22.646,22.645  c-12.487,0-22.645-10.158-22.645-22.645C336.335,153.512,346.493,143.353,358.981,143.353z M484.938,283.254  c-8.448-18.774-25.237-34.715-45.515-43.515c-0.64-28.634-7.909-60.743-20.315-91.908c21.491-10.661,35.441-32.699,35.441-57.173  c0-35.19-28.63-63.82-63.82-63.82c-15.211,0-29.883,5.491-41.361,15.251c-6.968-6.516-14.109-12.357-21.341-17.395  C304.507,8.308,280.272,0,256,0c-24.273,0-48.507,8.308-72.028,24.695c-7.232,5.038-14.373,10.88-21.341,17.395  c-11.477-9.759-26.15-15.251-41.361-15.251c-35.19,0-63.82,28.63-63.82,63.82c0,24.474,13.951,46.512,35.442,57.173  c-12.406,31.163-19.676,63.272-20.315,91.908c-20.278,8.799-37.065,24.739-45.515,43.514c-10.293,22.872-7.618,47.744,7.341,68.245  c0.395,0.54,0.802,1.06,1.224,1.569C48.23,369.158,68.42,378.02,92.494,378.02c8.425,0,17.145-1.11,25.916-3.299  c2.391-0.596,4.823-1.297,7.279-2.088c13.499,13.593,28.837,24.848,45.74,33.6v73.487c0,17.799,14.482,32.281,32.281,32.281  c17.8,0,32.282-14.482,32.282-32.281v-54c6.605,0.711,13.277,1.076,20.009,1.076c6.733,0,13.405-0.365,20.01-1.076v53.999  c0,17.799,14.482,32.281,32.281,32.281c17.8,0,32.282-14.482,32.282-32.281v-73.488c16.907-8.755,32.241-20.01,45.734-33.599  c2.458,0.792,4.893,1.492,7.285,2.09c8.775,2.187,17.494,3.297,25.915,3.297c24.074,0,44.262-8.861,56.865-24.953  c0.421-0.508,0.832-1.033,1.228-1.574C492.557,330.998,495.23,306.126,484.938,283.254z M426.471,311.601  c-0.05,0.209-0.143,0.439-0.287,0.704C426.28,312.07,426.376,311.836,426.471,311.601z M390.729,42.758  c26.413,0,47.9,21.487,47.9,47.9c0,18.056-10.113,34.346-25.773,42.496c-1.911-4.203-3.923-8.37-6.014-12.5  c10.794-5.802,17.927-17.198,17.927-29.997c0-18.77-15.27-34.04-34.04-34.04c-7.67,0-15.01,2.59-20.918,7.188  c-3.002-3.601-6.063-7.07-9.172-10.409C369.106,46.573,379.735,42.758,390.729,42.758z M399.3,106.617  c-4.187-7.355-8.643-14.532-13.365-21.448c-2.055-3.01-4.153-5.956-6.287-8.841c3.137-2.424,7.023-3.789,11.081-3.789  c9.991,0,18.12,8.129,18.12,18.12C408.85,97.476,405.044,103.529,399.3,106.617z M73.37,90.659c0-26.413,21.488-47.9,47.9-47.9  c10.995,0,21.624,3.814,30.089,10.64c-3.109,3.339-6.169,6.808-9.172,10.409c-5.907-4.6-13.247-7.189-20.917-7.189  c-18.769,0-34.04,15.27-34.04,34.04c0,12.799,7.133,24.195,17.927,29.997c-2.091,4.13-4.102,8.297-6.014,12.5  C83.483,125.005,73.37,108.715,73.37,90.659z M132.353,76.328c-2.134,2.885-4.233,5.831-6.287,8.841  c-4.722,6.917-9.178,14.093-13.365,21.448c-5.744-3.086-9.55-9.141-9.55-15.958c0-9.991,8.129-18.12,18.12-18.12  C125.33,72.539,129.215,73.904,132.353,76.328z M85.816,312.306c-0.143-0.264-0.237-0.495-0.288-0.704  C85.623,311.837,85.721,312.071,85.816,312.306z M114.554,359.273c-7.512,1.875-14.935,2.825-22.062,2.825  c-19.112,0-34.877-6.72-44.392-18.923c-0.054-0.069-0.109-0.139-0.166-0.206c-0.235-0.28-0.463-0.567-0.676-0.86  c-11.489-15.744-13.558-34.814-5.68-52.322c6.029-13.399,17.409-25.07,31.436-32.61c0.865,12.121,2.913,23.998,6.131,35.573  c-3.406,3.186-6.046,6.733-7.726,10.465c-3.088,6.861-2.347,13.274,2.272,19.606c4.698,6.436,18.244,8.371,32.938,4.705  c21.384-5.336,48.051-23.484,52.827-57.067c1.27-8.929,9.571-15.158,18.503-13.895c8.932,1.27,15.165,9.571,13.895,18.504  C184.79,324.747,145.798,351.478,114.554,359.273z M220.07,479.719c0,9.021-7.34,16.361-16.362,16.361  c-9.021,0-16.361-7.34-16.361-16.361v-66.172c10.628,4.285,21.557,7.532,32.724,9.742L220.07,479.719L220.07,479.719z   M324.654,479.719c0,9.021-7.34,16.361-16.362,16.361c-9.021,0-16.361-7.34-16.361-16.361v-56.43  c11.166-2.21,22.096-5.46,32.724-9.745L324.654,479.719L324.654,479.719z M256,410.877c-42.95,0-83.077-15.824-114.152-44.765  c29.856-14.535,59.305-43.356,65.769-88.802c2.506-17.622-9.792-33.998-27.416-36.505c-17.631-2.511-33.998,9.796-36.504,27.415  c-3.647,25.636-24.146,39.592-40.696,43.801c-9.655-21.458-14.557-44.361-14.557-68.179c0-46.464,19.454-103.824,50.768-149.694  C173.152,44.432,215.719,15.92,256,15.92s82.848,28.512,116.788,78.225c31.315,45.87,50.768,103.229,50.768,149.694  c0,23.818-4.902,46.722-14.558,68.18c-16.55-4.21-37.049-18.168-40.696-43.803c-2.506-17.617-18.883-29.917-36.506-27.413  c-17.622,2.507-29.92,18.884-27.413,36.505c6.463,45.448,35.914,74.269,65.772,88.805C339.084,395.057,298.976,410.877,256,410.877z   M464.742,342.108c-0.217,0.296-0.444,0.582-0.675,0.859c-0.057,0.069-0.114,0.139-0.169,0.209  c-9.515,12.203-25.278,18.924-44.391,18.924c-7.124,0-14.547-0.95-22.062-2.824c-31.244-7.798-70.237-34.529-77.302-84.209  c-1.269-8.931,4.964-17.23,13.893-18.502c8.93-1.271,17.236,4.964,18.506,13.894c4.776,33.582,31.443,51.73,52.827,57.068  c14.696,3.665,28.241,1.73,32.94-4.709c4.617-6.33,5.359-12.741,2.271-19.6c-1.68-3.734-4.321-7.282-7.727-10.467  c3.218-11.575,5.266-23.453,6.131-35.573c14.028,7.54,25.407,19.212,31.436,32.61C478.299,307.294,476.23,326.365,464.742,342.108z   M153.02,127.433c-21.266,0-38.566,17.301-38.566,38.565c0,21.265,17.301,38.565,38.566,38.565s38.565-17.301,38.565-38.565  S174.285,127.433,153.02,127.433z M153.02,188.644c-12.487,0-22.646-10.158-22.646-22.645c0-12.487,10.159-22.645,22.646-22.645  c12.487,0,22.645,10.158,22.645,22.645C175.665,178.486,165.507,188.644,153.02,188.644z"/>
<g>
</g>
<g>
</g>
<g>
</g>
<g>
</g>
<g>
</g>
<g>
</g>
<g>
</g>
<g>
</g>
<g>
</g>
<g>
</g>
<g>
</g>
<g>
</g>
<g>
</g>
<g>
</g>
<g>
</g>
</svg>
