<?xml version="1.0" encoding="iso-8859-1"?>
<!-- Generator: Adobe Illustrator 19.0.0, SVG Export Plug-In . SVG Version: 6.00 Build 0)  -->
<svg xmlns="http://www.w3.org/2000/svg" xmlns:xlink="http://www.w3.org/1999/xlink" version="1.1" id="Capa_1" x="0px" y="0px" viewBox="0 0 512.001 512.001" style="enable-background:new 0 0 512.001 512.001;" xml:space="preserve">
<g>
	<path style="fill:#2C2F38;" d="M84.316,406.062c-14.724,17.231-34.365,29.554-56.284,35.31L9.274,511.991   c0,0,72.703-56.849,149.625-30.278"/>
	<path style="fill:#2C2F38;" d="M353.103,481.713c76.922-26.571,149.625,30.278,149.625,30.278l-18.758-70.619   c-21.919-5.755-41.56-18.079-56.284-35.31"/>
</g>
<g>
	<path style="fill:#F29C1F;" d="M84.395,259.527c-10.39,30.287-17.558,61.598-21.362,93.394   c-26.738-1.73-47.006-24.814-45.276-51.552c1.651-25.538,22.863-45.399,48.454-45.373C72.443,255.969,78.622,257.17,84.395,259.527   z"/>
	<path style="fill:#F29C1F;" d="M494.341,304.547c0.035,25.847-20.259,47.156-46.079,48.374   c-3.769-31.717-10.928-62.94-21.362-93.129c5.985-2.48,12.403-3.769,18.891-3.796c26.8-0.018,48.533,21.698,48.551,48.498   C494.341,304.511,494.341,304.529,494.341,304.547z"/>
</g>
<path style="fill:#F0C419;" d="M454.265,317.788c-1.148,108.366-89.899,195.298-198.264,194.204  c-108.366,1.095-197.117-85.838-198.264-194.204c0.018-8.916,0.583-17.814,1.677-26.659c3.354-28.265,9.534-56.125,18.449-83.154  c1.059-3.354,2.207-6.797,3.354-10.24c0.177-0.441,0.265-0.794,0.441-1.236c3.266-9.622,6.974-19.332,10.946-28.954  c1.854-4.502,3.708-8.916,5.738-13.329c3.443-7.945,7.238-15.889,11.211-23.658c3.708-7.327,7.592-14.477,11.652-21.451  c4.237-7.327,8.563-14.477,13.153-21.362c2.207-3.443,4.502-6.709,6.797-9.975c1.236-1.677,2.383-3.266,3.531-4.855h0.177  c6.347-8.739,13.215-17.081,20.568-24.982c5.994-6.373,12.332-12.411,18.979-18.096C204.051,11.714,229.483,1.148,256.177,0  c32.75,0,63.646,18.891,90.923,48.198c7.565,8.139,14.636,16.71,21.186,25.688c0.088,0.088,0.088,0.088,0.088,0.177  c0.088,0.265,0.265,0.53,0.353,0.794c0.883,1.236,1.677,2.383,2.648,3.619c6.621,9.445,13.065,19.42,19.067,29.925  c0.079,0.256,0.203,0.486,0.353,0.706c3.972,6.797,7.856,13.947,11.476,21.186c6.179,12.182,11.891,24.602,17.125,37.252  c3.972,9.622,7.68,19.244,10.946,28.954c0.185,0.486,0.335,0.989,0.441,1.501c1.148,3.354,2.295,6.709,3.266,9.975  c2.56,7.856,4.855,15.625,6.885,23.216l0.088,0.088c5.367,19.632,9.233,39.635,11.564,59.85  C453.682,299.974,454.238,308.872,454.265,317.788z"/>
<g>
	<circle style="fill:#FFFFFF;" cx="172.14" cy="286.892" r="57.378"/>
	<circle style="fill:#FFFFFF;" cx="339.861" cy="286.892" r="57.378"/>
</g>
<g>
	<path style="fill:#C03A2B;" d="M167.726,397.235l7.583,53.079c0.706,4.996,4.996,8.713,10.046,8.713h0.044   c5.049,0,9.339-3.716,10.046-8.713l7.592-53.079H167.726z"/>
	<path style="fill:#C03A2B;" d="M308.965,397.235l7.583,53.079c0.706,4.996,4.996,8.713,10.046,8.713h0.044   c5.049,0,9.339-3.716,10.046-8.713l7.592-53.079H308.965z"/>
</g>
<path style="fill:#2C2F38;" d="M420.985,171.517c-39.326-39.935-103.59-40.43-143.525-1.103c-9.022,8.88-16.295,19.376-21.46,30.94  c-22.854-51.181-82.863-74.15-134.045-51.296c-11.564,5.164-22.051,12.438-30.94,21.459l1.589-3.972  c1.854-4.502,3.708-8.916,5.738-13.329c3.443-7.945,7.238-15.889,11.211-23.658c3.708-7.327,7.592-14.477,11.652-21.451  c4.237-7.327,8.563-14.477,13.153-21.362c2.207-3.443,4.502-6.709,6.797-9.975c1.236-1.677,2.383-3.266,3.531-4.855h0.177  c6.347-8.739,13.215-17.081,20.568-24.982c5.994-6.373,12.332-12.411,18.979-18.096C204.051,11.714,229.483,1.148,256.177,0  c32.75,0,63.646,18.891,90.923,48.198c7.565,8.139,14.636,16.71,21.186,25.688c0.088,0.088,0.088,0.088,0.088,0.177  c0.088,0.265,0.265,0.53,0.353,0.794c0.883,1.236,1.677,2.383,2.648,3.619c6.621,9.445,13.065,19.42,19.067,29.925  c0.079,0.256,0.203,0.486,0.353,0.706c3.972,6.797,7.856,13.947,11.476,21.186c6.179,12.182,11.891,24.602,17.125,37.252  L420.985,171.517z"/>
<g>
	<circle style="fill:#C03A2B;" cx="172.14" cy="286.892" r="22.069"/>
	<circle style="fill:#C03A2B;" cx="339.861" cy="286.892" r="22.069"/>
</g>
<path style="fill:#2C2F38;" d="M370.757,406.062H141.244c-4.873,0-8.827-3.955-8.827-8.827c0-4.873,3.955-8.827,8.827-8.827h229.513  c4.873,0,8.827,3.955,8.827,8.827C379.585,402.107,375.63,406.062,370.757,406.062z"/>
<g>
</g>
<g>
</g>
<g>
</g>
<g>
</g>
<g>
</g>
<g>
</g>
<g>
</g>
<g>
</g>
<g>
</g>
<g>
</g>
<g>
</g>
<g>
</g>
<g>
</g>
<g>
</g>
<g>
</g>
</svg>
