<?xml version="1.0" encoding="iso-8859-1"?>
<!-- Generator: Adobe Illustrator 19.0.0, SVG Export Plug-In . SVG Version: 6.00 Build 0)  -->
<svg xmlns="http://www.w3.org/2000/svg" xmlns:xlink="http://www.w3.org/1999/xlink" version="1.1" id="Layer_1" x="0px" y="0px" viewBox="0 0 512 512" style="enable-background:new 0 0 512 512;" xml:space="preserve">
<path style="fill:#EDD154;" d="M302.725,7.604h-93.45c-11.491,0-20.805,9.315-20.805,20.805v58.254h135.062V28.409  C323.53,16.919,314.216,7.604,302.725,7.604z"/>
<path style="fill:#EAB849;" d="M251.855,7.604h-42.58c-11.491,0-20.805,9.315-20.805,20.805v58.254h42.58V28.409  C231.049,16.919,240.364,7.604,251.855,7.604z"/>
<path style="fill:#52BED3;" d="M393.53,177.475v277.281c0,27.415-22.224,49.639-49.629,49.639H168.098  c-27.405,0-49.629-22.224-49.629-49.639V177.475c0-13.707,5.556-26.117,14.539-35.1c8.983-8.983,21.382-14.539,35.09-14.539  c4.593,0,8.831-1.521,12.237-4.086c4.938-3.711,8.131-9.622,8.131-16.272V86.664h135.067v20.815  c0,11.244,9.115,20.358,20.368,20.358C371.306,127.837,393.53,150.061,393.53,177.475z"/>
<g>
	<path style="fill:#2DADC1;" d="M324.05,504.395H168.098c-27.405,0-49.629-22.224-49.629-49.639V177.475   c0-13.707,5.556-26.117,14.539-35.1c8.983-8.983,21.382-14.539,35.09-14.539c4.593,0,8.831-1.521,12.237-4.086l3.812,4.086   C184.148,127.837,110.278,446.027,324.05,504.395z"/>
	<path style="fill:#2DADC1;" d="M234.334,86.664v41.173h-66.236c4.593,0,8.831-1.521,12.237-4.086   c4.938-3.711,8.131-9.622,8.131-16.272V86.664C188.467,86.664,234.334,86.664,234.334,86.664z"/>
</g>
<polygon style="fill:#EAB849;" points="328.816,308.805 348.415,278.779 314.92,266.01 313.112,230.21 278.511,239.532 256,211.657   233.488,239.533 198.887,230.21 197.079,266.011 163.583,278.779 183.184,308.805 163.583,338.831 197.079,351.6 198.887,387.399   233.489,378.078 256,405.953 278.511,378.078 313.113,387.399 314.921,351.599 348.415,338.83 "/>
<circle style="fill:#EDD154;" cx="256" cy="308.802" r="48.158"/>
<path d="M343.897,120.238c-7.037,0-12.763-5.725-12.763-12.762V28.409C331.134,12.744,318.39,0,302.725,0h-93.45  c-15.665,0-28.409,12.744-28.409,28.409v79.065c0,7.037-5.725,12.762-12.762,12.762c-31.562,0-57.239,25.677-57.239,57.239v55.293  c0,4.199,3.405,7.604,7.604,7.604s7.604-3.405,7.604-7.604v-55.292c0-23.176,18.855-42.031,42.031-42.031H276.91  c4.199,0,7.604-3.405,7.604-7.604s-3.405-7.604-7.604-7.604h-83.932c1.973-3.829,3.094-8.167,3.094-12.762V94.268h119.854v13.207  c0,15.423,12.548,27.97,27.97,27.97c23.176,0,42.032,18.855,42.032,42.031V454.76c0,23.176-18.855,42.031-42.032,42.031H168.102  c-23.176,0-42.031-18.855-42.031-42.031V258.116c0-4.199-3.405-7.604-7.604-7.604s-7.604,3.405-7.604,7.604v196.646  c0,31.561,25.677,57.239,57.239,57.239h175.794c31.562,0,57.24-25.677,57.24-57.239V177.476  C401.136,145.915,375.459,120.238,343.897,120.238z M209.275,15.208h93.45c7.28,0,13.201,5.922,13.201,13.201v12.768H196.073V28.409  C196.073,21.13,201.995,15.208,209.275,15.208z M196.073,79.06V56.385h35.671c-0.045,0.333-0.075,0.669-0.075,1.014  c0,4.199,3.405,7.604,7.604,7.604h33.456c4.199,0,7.604-3.405,7.604-7.604c0-0.345-0.03-0.681-0.075-1.014h35.671V79.06H196.073z"/>
<path d="M256,253.047c-30.745,0-55.758,25.013-55.758,55.758s25.013,55.758,55.758,55.758c8.375,0,16.43-1.813,23.941-5.39  c3.792-1.805,5.403-6.343,3.597-10.134c-1.805-3.792-6.341-5.403-10.135-3.597c-5.454,2.596-11.31,3.913-17.405,3.913  c-22.36,0-40.55-18.191-40.55-40.55s18.191-40.55,40.55-40.55c22.36,0,40.55,18.191,40.55,40.55c0,8.224-2.446,16.141-7.076,22.894  c-2.374,3.464-1.49,8.197,1.973,10.572c3.465,2.374,8.197,1.49,10.572-1.973c6.371-9.295,9.739-20.185,9.739-31.493  C311.758,278.06,286.745,253.047,256,253.047z"/>
<path d="M355.647,276.429c-0.711-2.188-2.373-3.937-4.523-4.756l-28.86-11.001l-1.558-30.846c-0.116-2.295-1.264-4.415-3.123-5.767  c-1.858-1.351-4.227-1.789-6.449-1.191l-29.819,8.034l-19.399-24.022c-1.444-1.787-3.617-2.827-5.916-2.827  c-2.297,0-4.472,1.039-5.916,2.827l-19.399,24.022l-29.821-8.034c-2.219-0.598-4.59-0.159-6.449,1.192  c-1.858,1.351-3.007,3.471-3.124,5.767l-1.557,30.846l-28.86,11.001c-2.149,0.819-3.813,2.568-4.523,4.756  c-0.711,2.188-0.393,4.58,0.865,6.506l16.887,25.869l-16.887,25.87c-1.257,1.926-1.576,4.318-0.865,6.506s2.373,3.937,4.523,4.756  l28.86,11.001l1.558,30.846c0.116,2.295,1.264,4.415,3.123,5.767c1.859,1.352,4.23,1.79,6.449,1.191l29.819-8.034l19.399,24.022  c1.444,1.787,3.618,2.827,5.916,2.827c2.298,0,4.472-1.039,5.916-2.827l19.399-24.022l29.82,8.034  c2.219,0.598,4.591,0.159,6.449-1.191c1.858-1.351,3.007-3.471,3.123-5.767l1.557-30.846l28.86-11.001  c2.149-0.819,3.813-2.568,4.523-4.756c0.711-2.188,0.393-4.58-0.865-6.506l-16.887-25.869l16.887-25.87  C356.04,281.009,356.358,278.617,355.647,276.429z M322.448,312.962l14.442,22.124l-24.678,9.408  c-2.818,1.074-4.734,3.711-4.886,6.722l-1.332,26.391l-25.505-6.871c-2.91-0.784-6.002,0.222-7.894,2.565L256,393.851l-16.596-20.55  c-1.465-1.815-3.653-2.827-5.916-2.827c-0.658,0-1.323,0.085-1.978,0.263l-25.504,6.871l-1.333-26.391  c-0.152-3.011-2.068-5.648-4.886-6.722l-24.679-9.408l14.442-22.125c1.649-2.526,1.649-5.787,0-8.313l-14.442-22.124l24.678-9.408  c2.818-1.074,4.734-3.711,4.886-6.722l1.332-26.391l25.505,6.871c2.909,0.784,6.002-0.223,7.894-2.565L256,223.759l16.595,20.55  c1.892,2.343,4.987,3.349,7.894,2.565l25.504-6.871l1.333,26.391c0.152,3.011,2.068,5.648,4.886,6.722l24.679,9.408l-14.442,22.125  C320.799,307.175,320.799,310.436,322.448,312.962z"/>
<g>
</g>
<g>
</g>
<g>
</g>
<g>
</g>
<g>
</g>
<g>
</g>
<g>
</g>
<g>
</g>
<g>
</g>
<g>
</g>
<g>
</g>
<g>
</g>
<g>
</g>
<g>
</g>
<g>
</g>
</svg>
