<?xml version="1.0" encoding="iso-8859-1"?>
<!-- Generator: Adobe Illustrator 19.0.0, SVG Export Plug-In . SVG Version: 6.00 Build 0)  -->
<svg xmlns="http://www.w3.org/2000/svg" xmlns:xlink="http://www.w3.org/1999/xlink" version="1.1" id="Capa_1" x="0px" y="0px" viewBox="0 0 512.002 512.002" style="enable-background:new 0 0 512.002 512.002;" xml:space="preserve">
<path style="fill:#A27B5A;" d="M23.955,409.238h464.092c5.663,0,10.253-4.591,10.253-10.253v-11.132  c0-5.663-4.591-10.253-10.253-10.253H23.955c-5.663,0-10.253,4.591-10.253,10.253v11.132  C13.701,404.647,18.292,409.238,23.955,409.238z"/>
<rect x="167.172" y="377.596" style="opacity:0.2;enable-background:new    ;" width="15.525" height="31.64"/>
<rect x="270.013" y="377.596" style="opacity:0.2;enable-background:new    ;" width="15.525" height="31.64"/>
<path style="fill:#593C00;" d="M61.861,200.972H450.14c11.617,0,21.034,9.417,21.034,21.034v155.591H40.827V222.006  C40.827,210.389,50.244,200.972,61.861,200.972z"/>
<rect x="40.827" y="348.157" style="opacity:0.2;enable-background:new    ;" width="430.345" height="29.443"/>
<path style="opacity:0.1;fill:#FFFFFF;enable-background:new    ;" d="M450.14,200.972h-75.969  c-5.789,9.491-9.127,20.641-9.127,32.573c0,34.596,28.045,62.642,62.642,62.642c16.898,0,32.222-6.703,43.49-17.58v-56.6  C471.174,210.389,461.757,200.972,450.14,200.972z"/>
<circle style="fill:#0081C6;" cx="377.216" cy="82.336" r="50.261"/>
<circle style="fill:#F3C74F;" cx="377.216" cy="82.336" r="23.458"/>
<circle style="fill:#0081C6;" cx="134.79" cy="82.336" r="50.261"/>
<circle style="fill:#F3C74F;" cx="134.79" cy="82.336" r="23.458"/>
<path style="opacity:0.2;enable-background:new    ;" d="M164.496,41.814c-23.629,21.356-43.671,50.754-57.907,82.132  c8.041,5.46,17.745,8.653,28.197,8.653c27.756,0,50.256-22.501,50.256-50.256C185.043,65.703,176.952,50.96,164.496,41.814z"/>
<path style="fill:#40BAB3;" d="M413.909,220.156c0-86.952-72.491-212.217-157.909-212.217S98.092,133.203,98.092,220.156  s70.698,157.442,157.909,157.442S413.909,307.108,413.909,220.156z"/>
<g>
	<path style="fill:#F0B0B7;" d="M177.071,201.643h-26.362c-4.385,0-7.939-3.554-7.939-7.939c0-4.386,3.555-7.939,7.939-7.939h26.362   c4.385,0,7.939,3.554,7.939,7.939C185.01,198.089,181.455,201.643,177.071,201.643z"/>
	<path style="fill:#F0B0B7;" d="M361.292,201.643h-26.362c-4.385,0-7.939-3.554-7.939-7.939c0-4.386,3.555-7.939,7.939-7.939h26.362   c4.385,0,7.939,3.554,7.939,7.939C369.232,198.089,365.677,201.643,361.292,201.643z"/>
</g>
<path style="fill:#FFFFFF;" d="M100.752,249.031c13.603,73.16,77.932,128.566,155.248,128.566s141.646-55.405,155.248-128.566  H100.752z"/>
<path style="fill:#0081C6;" d="M128.705,313.315c28.74,38.98,75.05,64.283,127.296,64.283s98.555-25.302,127.296-64.283H128.705z"/>
<path style="opacity:0.2;enable-background:new    ;" d="M272.745,360.853c-87.21,0-157.909-70.489-157.909-157.441  c0-52.348,26.28-118.572,65.83-162.998c-48.709,42.997-82.576,120.313-82.576,179.743c0,86.953,70.698,157.442,157.909,157.442  c47.949,0,90.901-21.312,119.861-54.95C348.196,346.454,312.158,360.853,272.745,360.853z"/>
<path style="fill:#F3C74F;" d="M174.878,298.8c-31.16,0-57.956-12.904-81.793-39.353c-8.092-8.976-7.373-22.812,1.604-30.903  c8.978-8.091,22.813-7.372,30.903,1.605c33.518,37.186,65.164,26.702,114.02,6.51c20.912-8.642,42.537-17.579,64.545-19.773  c12.024-1.197,22.746,7.577,23.945,19.603c1.199,12.025-7.577,22.746-19.603,23.945c-15.593,1.555-33.361,8.898-52.172,16.672  c-24.378,10.075-49.587,20.493-76.746,21.599C178.004,298.768,176.433,298.8,174.878,298.8z"/>
<path style="opacity:0.06;enable-background:new    ;" d="M174.878,298.8c-31.16,0-57.956-12.904-81.793-39.353  c-8.092-8.976-7.373-22.812,1.604-30.903c8.978-8.091,22.813-7.372,30.903,1.605c33.518,37.186,65.164,26.702,114.02,6.51  c20.912-8.642,42.537-17.579,64.545-19.773c12.024-1.197,22.746,7.577,23.945,19.603c1.199,12.025-7.577,22.746-19.603,23.945  c-15.593,1.555-33.361,8.898-52.172,16.672c-24.378,10.075-49.587,20.493-76.746,21.599  C178.004,298.768,176.433,298.8,174.878,298.8z"/>
<path style="opacity:0.2;enable-background:new    ;" d="M255.189,241.281c-4.457-1.842-8.948-3.693-13.467-5.494  c-0.703,0.29-1.408,0.581-2.11,0.871c-27.597,11.405-49.703,19.711-69.756,18.08c3.458,5.61,9.381,9.614,16.445,10.318  c15.593,1.555,33.361,8.898,52.172,16.672c1.076,0.445,2.155,0.89,3.234,1.335c4.911-1.95,9.782-3.96,14.618-5.959  c18.812-7.774,36.579-15.118,52.172-16.672c1.771-0.177,3.459-0.581,5.068-1.145C296.512,257.807,277.675,250.575,255.189,241.281z"/>
<g>
	<path style="fill:#F3C74F;" d="M337.123,298.8c-1.557,0-3.124-0.032-4.703-0.096c-27.159-1.107-52.367-11.525-76.746-21.599   c-18.812-7.774-36.579-15.118-52.172-16.672c-12.025-1.198-20.802-11.92-19.603-23.945c1.199-12.025,11.923-20.805,23.945-19.603   c22.008,2.194,43.633,11.131,64.545,19.773c48.857,20.191,80.502,30.678,114.02-6.51c8.09-8.976,21.926-9.694,30.903-1.605   c8.977,8.091,9.696,21.927,1.604,30.903C395.08,285.893,368.28,298.8,337.123,298.8z"/>
	<path style="fill:#F3C74F;" d="M204.579,439.872c-12.085,0-21.882-9.796-21.882-21.882v-61.945   c0-12.085,9.796-21.882,21.882-21.882c12.085,0,21.882,9.796,21.882,21.882v61.945   C226.461,430.076,216.664,439.872,204.579,439.872z"/>
	<path style="fill:#F3C74F;" d="M307.422,439.872c-12.085,0-21.882-9.796-21.882-21.882v-61.945   c0-12.085,9.796-21.882,21.882-21.882c12.085,0,21.882,9.796,21.882,21.882v61.945   C329.304,430.076,319.508,439.872,307.422,439.872z"/>
</g>
<path style="fill:#593C00;" d="M77.021,504.061H48.336c-4.148,0-7.51-3.362-7.51-7.51v-87.314H84.53v87.314  C84.53,500.699,81.168,504.061,77.021,504.061z"/>
<rect x="40.827" y="409.237" style="opacity:0.3;enable-background:new    ;" width="43.698" height="23.107"/>
<path style="fill:#593C00;" d="M434.98,504.061h28.684c4.148,0,7.51-3.362,7.51-7.51v-87.314h-43.704v87.314  C427.471,500.699,430.833,504.061,434.98,504.061z"/>
<rect x="427.466" y="409.237" style="opacity:0.3;enable-background:new    ;" width="43.698" height="23.107"/>
<rect x="84.528" y="453.221" style="fill:#A27B5A;" width="342.938" height="21.739"/>
<rect x="413.906" y="453.221" style="opacity:0.2;enable-background:new    ;" width="13.561" height="21.739"/>
<path d="M488.047,369.658h-8.933V222.006c0-15.976-12.997-28.973-28.973-28.973h-30.356c-2.773-19.122-8.272-39.202-16.05-58.88  c19.238-9.834,31.676-29.718,31.676-51.81c0-32.089-26.107-58.197-58.196-58.197c-13.629,0-26.799,4.841-37.185,13.46  c-6.136-5.698-12.419-10.818-18.781-15.25C299.953,7.522,278.001,0,256.001,0s-43.953,7.522-65.247,22.356  c-6.362,4.432-12.646,9.552-18.781,15.25c-10.386-8.619-23.556-13.46-37.185-13.46c-32.089,0-58.197,26.107-58.197,58.197  c0,22.093,12.439,41.976,31.676,51.81c-7.777,19.677-13.277,39.757-16.05,58.88H61.861c-15.976,0-28.973,12.997-28.973,28.973  V369.66h-8.933c-10.032,0-18.193,8.162-18.193,18.193v11.133c0,10.032,8.161,18.193,18.193,18.193h8.933v79.375  c0,8.518,6.931,15.449,15.449,15.449h28.684c8.518,0,15.449-6.931,15.449-15.449v-13.653h327.063v13.653  c0,8.518,6.931,15.449,15.449,15.449h28.684c8.518,0,15.449-6.931,15.449-15.449v-79.375h8.933c10.032,0,18.193-8.162,18.193-18.193  v-11.133C506.24,377.82,498.078,369.658,488.047,369.658z M424.813,264.762c5.334-5.915,8.044-13.555,7.63-21.51  c-0.413-7.955-3.899-15.273-9.816-20.606c-0.266-0.24-0.54-0.467-0.812-0.695c0.006-0.599,0.033-1.199,0.033-1.794  c0-3.681-0.138-7.438-0.385-11.245h28.677c7.221,0,13.095,5.874,13.095,13.095v147.653h-125.99v-5.298  c34.249-19.205,60.416-49.645,74.154-86.333C415.969,274.028,420.44,269.614,424.813,264.762z M192.577,445.282H92.47v-28.104  h82.288v0.814C174.758,430.165,182.095,440.654,192.577,445.282z M190.636,417.991v-61.945c0-7.688,6.254-13.943,13.943-13.943  c7.688,0,13.943,6.254,13.943,13.943v61.945c0,7.688-6.254,13.943-13.943,13.943C196.89,431.933,190.636,425.679,190.636,417.991z   M234.4,417.991v-0.814h43.202v0.814c0,12.175,7.337,22.662,17.819,27.29h-78.84C227.063,440.654,234.4,430.165,234.4,417.991z   M234.4,401.299v-15.762h43.202v15.762H234.4z M293.48,417.991v-61.945c0-7.688,6.254-13.943,13.943-13.943  s13.943,6.254,13.943,13.943v61.945c0,7.688-6.254,13.943-13.943,13.943S293.48,425.679,293.48,417.991z M307.422,326.225  c-16.444,0-29.821,13.378-29.821,29.821v12.067c-14.251,2.038-28.957,2.037-43.202-0.001v-12.066  c0-16.443-13.377-29.821-29.821-29.821c-13.21,0-24.434,8.637-28.34,20.557c-20.61-12.899-37.632-30.452-49.778-51.202  c14.987,7.468,31.049,11.159,48.418,11.159c1.658,0,3.348-0.034,5.026-0.103c27.406-1.118,52.178-10.941,76.097-20.81  c23.977,9.888,48.805,19.696,76.096,20.81c1.678,0.068,3.369,0.103,5.025,0.103c17.368,0,33.43-3.69,48.417-11.16  c-12.147,20.749-29.169,38.304-49.778,51.202C331.856,334.861,320.632,326.225,307.422,326.225z M416.586,244.075  c0.194,3.719-1.073,7.289-3.567,10.055c-23.391,25.953-49.583,37.882-80.274,36.64c-25.749-1.049-50.292-11.191-74.049-21.009  c-19.364-8.003-37.653-15.56-54.407-17.231c-3.705-0.369-7.045-2.16-9.404-5.042c-2.36-2.881-3.455-6.508-3.086-10.214  c0.369-3.706,2.161-7.047,5.043-9.408c2.514-2.058,5.596-3.154,8.801-3.154c0.468,0,0.94,0.022,1.412,0.07  c20.842,2.079,41.918,10.787,62.301,19.211c25.06,10.356,45.801,18.322,65.578,18.861c21.778,0.581,39.992-8.11,57.372-27.393  c5.147-5.711,13.98-6.168,19.691-1.024C414.763,236.934,416.394,240.356,416.586,244.075z M278.286,230.499  c8.579-2.656,17.596-4.81,26.658-5.714c7.644-0.764,14.495,4.841,15.257,12.491c0.255,2.56-0.216,5.11-1.303,7.388  C306.565,241.784,292.968,236.531,278.286,230.499z M377.215,40.025c23.333,0,42.317,18.984,42.317,42.318  c0,15.687-8.624,29.844-22.051,37.159c-1.517-3.311-3.1-6.599-4.74-9.86c9.585-5.457,15.878-15.757,15.878-27.3  c0-17.315-14.088-31.403-31.403-31.403c-6.816,0-13.343,2.228-18.686,6.184c-2.372-2.827-4.787-5.563-7.233-8.211  C358.665,43.209,367.789,40.025,377.215,40.025z M392.739,82.342c0,5.577-2.966,10.566-7.517,13.307  c-3.667-6.403-7.56-12.654-11.677-18.685c-1.705-2.497-3.447-4.941-5.212-7.343c2.574-1.796,5.663-2.803,8.884-2.803  C385.774,66.818,392.739,73.782,392.739,82.342z M92.47,82.342c0-23.334,18.984-42.318,42.318-42.318  c9.426,0,18.55,3.184,25.918,8.888c-2.446,2.648-4.86,5.383-7.233,8.211c-5.343-3.956-11.87-6.184-18.686-6.184  c-17.315,0-31.403,14.088-31.403,31.403c0,11.543,6.293,21.843,15.878,27.3c-1.641,3.261-3.223,6.548-4.74,9.86  C101.093,112.185,92.47,98.029,92.47,82.342z M143.67,69.621c-1.766,2.403-3.507,4.846-5.212,7.343  c-4.118,6.031-8.01,12.283-11.678,18.685c-4.551-2.742-7.517-7.732-7.517-13.307c0-8.56,6.964-15.524,15.524-15.524  C138.007,66.818,141.096,67.824,143.67,69.621z M151.571,85.917c30.388-44.51,68.45-70.038,104.429-70.038  s74.041,25.528,104.429,70.038c26.98,39.52,44.134,88.53,45.449,129.252c-9.193-0.986-18.718,2.287-25.367,9.664  c-14.226,15.782-28.165,22.583-45.143,22.152c-0.134-0.003-0.273-0.017-0.408-0.022c1.05-3.617,1.424-7.437,1.042-11.263  c-1.63-16.36-16.267-28.34-32.633-26.715c-16.988,1.695-33.307,7.106-47.369,12.508c-15.361-5.893-31.118-10.888-47.365-12.508  c-7.923-0.789-15.685,1.552-21.851,6.598c-6.164,5.046-9.994,12.191-10.785,20.117c-0.383,3.845-0.023,7.649,1.019,11.253  c-17.492,0.562-31.253-6.282-45.529-22.119c-6.649-7.378-16.174-10.65-25.368-9.665C107.437,174.446,124.591,125.437,151.571,85.917  z M95.415,244.074c0.193-3.719,1.823-7.14,4.589-9.634c2.766-2.492,6.328-3.767,10.058-3.566c3.719,0.194,7.14,1.823,9.634,4.59  c19.853,22.025,40.776,30.299,67.374,26.506c4.45,3.566,9.835,5.783,15.644,6.362c9.622,0.96,20.502,4.455,32.098,8.912  c-17.914,6.94-36.354,12.744-55.554,13.527c-30.648,1.262-56.885-10.686-80.278-36.64C96.488,251.366,95.222,247.794,95.415,244.074  z M48.766,222.006c0-7.221,5.874-13.095,13.095-13.095h28.677c-0.247,3.808-0.385,7.565-0.385,11.245  c0,0.595,0.026,1.195,0.033,1.793c-0.272,0.229-0.546,0.455-0.812,0.695c-5.916,5.333-9.402,12.651-9.815,20.606  c-0.413,7.956,2.297,15.596,7.629,21.51c4.374,4.853,8.844,9.267,13.418,13.267c13.737,36.687,39.902,67.125,74.153,86.331v5.298  H48.766V222.006z M76.591,496.121H48.766v-78.944h27.825C76.591,417.178,76.591,496.121,76.591,496.121z M23.954,401.299  c-1.277,0-2.314-1.037-2.314-2.314v-11.133c0-1.277,1.037-2.314,2.314-2.314h150.803V401.3H23.954V401.299z M419.531,467.02H92.47  v-5.859h327.063v5.859H419.531z M419.531,445.282H319.423c10.482-4.628,17.819-15.116,17.819-27.29v-0.814h82.288v28.104H419.531z   M463.235,496.121H435.41v-78.944h27.825V496.121z M490.361,398.984c0,1.277-1.037,2.314-2.314,2.314H337.244v-15.762h150.802  c1.277,0,2.314,1.037,2.314,2.314v11.134H490.361z M239.342,189.507h33.318c4.385,0,7.939-3.554,7.939-7.939  s-3.555-7.939-7.939-7.939h-33.318c-4.385,0-7.939,3.554-7.939,7.939S234.957,189.507,239.342,189.507z M331.452,157.333h8.72v2.028  c0,4.386,3.555,7.939,7.939,7.939s7.939-3.554,7.939-7.939v-2.028h8.72c4.385,0,7.939-3.555,7.939-7.939  c0-4.386-3.555-7.939-7.939-7.939h-33.318c-4.385,0-7.939,3.554-7.939,7.939C323.513,153.778,327.067,157.333,331.452,157.333z   M147.231,157.333h8.72v2.028c0,4.386,3.555,7.939,7.939,7.939s7.939-3.554,7.939-7.939v-2.028h8.72  c4.385,0,7.939-3.555,7.939-7.939c0-4.386-3.555-7.939-7.939-7.939h-33.318c-4.385,0-7.939,3.554-7.939,7.939  C139.292,153.778,142.846,157.333,147.231,157.333z"/>
<g>
</g>
<g>
</g>
<g>
</g>
<g>
</g>
<g>
</g>
<g>
</g>
<g>
</g>
<g>
</g>
<g>
</g>
<g>
</g>
<g>
</g>
<g>
</g>
<g>
</g>
<g>
</g>
<g>
</g>
</svg>
