<?xml version="1.0" encoding="iso-8859-1"?>
<!-- Generator: Adobe Illustrator 19.0.0, SVG Export Plug-In . SVG Version: 6.00 Build 0)  -->
<svg xmlns="http://www.w3.org/2000/svg" xmlns:xlink="http://www.w3.org/1999/xlink" version="1.1" id="Capa_1" x="0px" y="0px" viewBox="0 0 512.001 512.001" style="enable-background:new 0 0 512.001 512.001;" xml:space="preserve">
<path style="fill:#C03A2B;" d="M143.098,98.779c-2.03,3.443-4.061,6.885-6.091,10.328c-4.061,6.974-7.945,14.124-11.652,21.451  c-3.972,7.768-7.768,15.713-11.211,23.658c-0.159,0.282-0.274,0.574-0.353,0.883c-1.942,4.149-3.619,8.21-5.385,12.447  c-1.677,4.061-3.266,8.121-4.855,12.182l-7.945-3.178c-9.834-2.233-15.995-12.014-13.762-21.848c0.212-0.945,0.503-1.88,0.874-2.781  c9.622-35.31-66.912-26.482-66.912-26.482V45.02c0,0,76.534-8.827,66.912,26.482C75.656,97.631,119.705,99.573,143.098,98.779z"/>
<g>
	<path style="fill:#F29C1F;" d="M86.249,259.527c-10.39,30.287-17.558,61.598-21.362,93.394   c-26.738-1.73-47.006-24.814-45.276-51.552c1.651-25.538,22.863-45.399,48.454-45.373C74.297,255.969,80.476,257.17,86.249,259.527   z"/>
	<path style="fill:#F29C1F;" d="M496.195,304.547c0.035,25.847-20.259,47.156-46.079,48.374   c-3.769-31.717-10.928-62.94-21.362-93.129c5.985-2.48,12.403-3.769,18.891-3.796c26.8-0.018,48.533,21.698,48.551,48.498   C496.195,304.511,496.195,304.529,496.195,304.547z"/>
</g>
<path style="fill:#F0C419;" d="M456.119,317.788c-1.148,108.366-89.899,195.298-198.264,194.204  C149.489,513.086,60.738,426.153,59.59,317.788c0.018-8.916,0.583-17.814,1.677-26.659c3.354-28.265,9.534-56.125,18.449-83.154  c1.059-3.354,2.207-6.797,3.354-10.24c0.177-0.441,0.265-0.794,0.441-1.236c3.266-9.622,6.974-19.332,10.946-28.954  c1.854-4.502,3.708-8.916,5.738-13.329c3.443-7.945,7.238-15.889,11.211-23.658c3.708-7.327,7.592-14.477,11.652-21.451  c4.237-7.327,8.563-14.477,13.153-21.362c2.207-3.443,4.502-6.709,6.797-9.975c1.236-1.677,2.383-3.266,3.531-4.855h0.177  c6.347-8.739,13.215-17.081,20.568-24.982c5.994-6.373,12.332-12.411,18.979-18.096C205.905,11.714,231.337,1.148,258.031,0  c32.75,0,63.646,18.891,90.923,48.198c7.565,8.139,14.636,16.71,21.186,25.688c0.088,0.088,0.088,0.088,0.088,0.177  c0.088,0.265,0.265,0.53,0.353,0.794c0.883,1.236,1.677,2.383,2.648,3.619c6.621,9.445,13.065,19.42,19.067,29.925  c0.079,0.256,0.203,0.486,0.353,0.706c3.972,6.797,7.856,13.947,11.476,21.186c6.179,12.182,11.891,24.602,17.125,37.252  c3.972,9.622,7.68,19.244,10.946,28.954c0.185,0.486,0.335,0.989,0.441,1.501c1.148,3.354,2.295,6.709,3.266,9.975  c2.56,7.856,4.855,15.625,6.885,23.216l0.088,0.088c5.367,19.632,9.233,39.635,11.564,59.85  C455.536,299.974,456.092,308.872,456.119,317.788z"/>
<path style="fill:#E64C3C;" d="M415.866,155.098c-52.205,8.783-105.073,13.012-158.011,12.623  c-52.938,0.388-105.806-3.84-158.011-12.623c0.079-0.309,0.194-0.609,0.353-0.883c3.443-7.945,7.238-15.889,11.211-23.658  c3.708-7.327,7.592-14.477,11.652-21.451c2.03-3.443,4.061-6.885,6.091-10.328c2.295-3.708,4.679-7.415,7.062-11.034  c1.324-2.119,2.737-4.149,4.149-6.179c39,4.581,78.229,6.824,117.493,6.709c39.264,0.115,78.494-2.127,117.493-6.709  c5.914,8.474,11.564,17.478,16.949,26.835c0.079,0.256,0.203,0.486,0.353,0.706c3.972,6.797,7.856,13.947,11.476,21.186  C408.274,138.414,412.246,146.712,415.866,155.098z"/>
<g>
	<path style="fill:#2FA8CC;" d="M198.799,259.791c3.972,5.261,6.117,11.679,6.091,18.273c0.044,17.063-13.744,30.931-30.808,30.984   c-17.063,0.044-30.931-13.744-30.984-30.808c-0.026-9.913,4.696-19.226,12.712-25.061"/>
	<path style="fill:#2FA8CC;" d="M359.9,253.171c13.762,10.054,16.763,29.369,6.709,43.131   c-10.054,13.762-29.369,16.763-43.131,6.709c-7.962-5.817-12.667-15.086-12.659-24.946c-0.026-6.594,2.119-13.012,6.091-18.273"/>
</g>
<g>
	<path style="fill:#2C2F38;" d="M337.293,386.677c-1.227,0-2.445-0.256-3.566-0.759c-7.433-3.275-15.095-6.003-22.925-8.157   c-8.368-2.313-16.878-4.043-25.485-5.191c-18.229-2.41-36.696-2.41-54.933,0c-8.607,1.148-17.116,2.878-25.485,5.191   c-7.83,2.154-15.492,4.882-22.925,8.157c-4.449,1.986-9.675-0.009-11.652-4.467c-1.986-4.449,0.009-9.675,4.467-11.652   c0.009-0.009,0.026-0.009,0.035-0.018c8.218-3.628,16.693-6.647,25.352-9.03c9.145-2.525,18.458-4.423,27.859-5.676   c19.791-2.622,39.829-2.622,59.62,0c9.41,1.253,18.714,3.151,27.859,5.676c8.66,2.392,17.134,5.411,25.352,9.03   c4.458,1.977,6.462,7.194,4.484,11.652C343.948,384.62,340.779,386.677,337.293,386.677z"/>
	<path style="fill:#2C2F38;" d="M178.416,406.062c-2.957,0.009-5.72-1.474-7.353-3.928c-17.134-25.705-6.779-47.394,1.103-55.277   c3.443-3.452,9.03-3.46,12.482-0.018c3.434,3.425,3.46,8.969,0.071,12.429c-1.315,1.404-11.926,13.638,1.033,33.068   c2.701,4.061,1.607,9.534-2.445,12.244C181.85,405.541,180.155,406.062,178.416,406.062z"/>
	<path style="fill:#2C2F38;" d="M337.293,406.062c-4.873-0.009-8.827-3.964-8.819-8.836c0-1.739,0.521-3.443,1.483-4.89   c13.48-20.224,1.227-32.873,1.103-32.997c-3.425-3.46-3.399-9.057,0.062-12.482c3.443-3.407,8.978-3.407,12.42,0   c7.883,7.883,18.237,29.572,1.103,55.277C343.004,404.588,340.241,406.071,337.293,406.062z"/>
	<path style="fill:#2C2F38;" d="M284.328,423.938c-2.048,0-4.034-0.715-5.614-2.021c-12.429-9.066-29.298-9.066-41.727,0   c-3.76,3.107-9.331,2.569-12.429-1.192c-3.107-3.76-2.569-9.331,1.192-12.429l0,0c18.855-14.759,45.347-14.759,64.202,0   c3.76,3.098,4.299,8.669,1.192,12.429C289.465,422.763,286.967,423.946,284.328,423.938L284.328,423.938z"/>
	<path style="fill:#2C2F38;" d="M231.381,273.65c-0.45,0-0.909-0.035-1.351-0.106L115.274,255.89   c-4.829-0.697-8.174-5.173-7.477-10.001c0.697-4.829,5.173-8.174,10.001-7.477c0.053,0.009,0.115,0.018,0.168,0.026l114.757,17.655   c4.82,0.741,8.121,5.252,7.38,10.072C239.423,270.473,235.724,273.642,231.381,273.65z"/>
	<path style="fill:#2C2F38;" d="M284.328,273.65c-4.873-0.009-8.819-3.964-8.819-8.836c0.009-4.352,3.178-8.051,7.477-8.713   l114.757-17.655c4.811-0.786,9.348,2.472,10.143,7.283c0.786,4.811-2.472,9.348-7.283,10.143c-0.053,0.009-0.115,0.018-0.168,0.026   l-114.757,17.655C285.228,273.615,284.778,273.65,284.328,273.65z"/>
</g>
<g>
</g>
<g>
</g>
<g>
</g>
<g>
</g>
<g>
</g>
<g>
</g>
<g>
</g>
<g>
</g>
<g>
</g>
<g>
</g>
<g>
</g>
<g>
</g>
<g>
</g>
<g>
</g>
<g>
</g>
</svg>
