<?xml version="1.0" encoding="iso-8859-1"?>
<!-- Generator: Adobe Illustrator 19.0.0, SVG Export Plug-In . SVG Version: 6.00 Build 0)  -->
<svg xmlns="http://www.w3.org/2000/svg" xmlns:xlink="http://www.w3.org/1999/xlink" version="1.1" id="Capa_1" x="0px" y="0px" viewBox="0 0 512.001 512.001" style="enable-background:new 0 0 512.001 512.001;" xml:space="preserve">
<path style="fill:#C03A2B;" d="M143.098,98.779c-2.03,3.443-4.061,6.885-6.091,10.328c-4.061,6.974-7.945,14.124-11.652,21.451  c-3.972,7.768-7.768,15.713-11.211,23.658c-0.159,0.282-0.274,0.574-0.353,0.883c-1.942,4.149-3.619,8.21-5.385,12.447  c-1.677,4.061-3.266,8.121-4.855,12.182l-7.945-3.178c-9.834-2.233-15.995-12.014-13.762-21.848c0.212-0.945,0.503-1.88,0.874-2.781  c9.622-35.31-66.912-26.482-66.912-26.482V45.02c0,0,76.534-8.827,66.912,26.482C75.656,97.631,119.705,99.573,143.098,98.779z"/>
<g>
	<path style="fill:#F29C1F;" d="M86.249,259.527c-10.39,30.287-17.558,61.598-21.362,93.394   c-26.738-1.73-47.006-24.814-45.276-51.552c1.651-25.538,22.863-45.399,48.454-45.373C74.297,255.969,80.476,257.17,86.249,259.527   z"/>
	<path style="fill:#F29C1F;" d="M496.195,304.547c0.035,25.847-20.259,47.156-46.079,48.374   c-3.769-31.717-10.928-62.94-21.362-93.129c5.985-2.48,12.403-3.769,18.891-3.796c26.8-0.018,48.533,21.698,48.551,48.498   C496.195,304.511,496.195,304.529,496.195,304.547z"/>
</g>
<path style="fill:#F0C419;" d="M456.119,317.788c-1.148,108.366-89.899,195.298-198.264,194.204  C149.489,513.086,60.738,426.153,59.59,317.788c0.018-8.916,0.583-17.814,1.677-26.659c3.354-28.265,9.534-56.125,18.449-83.154  c1.059-3.354,2.207-6.797,3.354-10.24c0.177-0.441,0.265-0.794,0.441-1.236c3.266-9.622,6.974-19.332,10.946-28.954  c1.854-4.502,3.708-8.916,5.738-13.329c3.443-7.945,7.238-15.889,11.211-23.658c3.708-7.327,7.592-14.477,11.652-21.451  c4.237-7.327,8.563-14.477,13.153-21.362c2.207-3.443,4.502-6.709,6.797-9.975c1.236-1.677,2.383-3.266,3.531-4.855h0.177  c6.347-8.739,13.215-17.081,20.568-24.982c5.994-6.373,12.332-12.411,18.979-18.096C205.905,11.714,231.337,1.148,258.031,0  c32.75,0,63.646,18.891,90.923,48.198c7.565,8.139,14.636,16.71,21.186,25.688c0.088,0.088,0.088,0.088,0.088,0.177  c0.088,0.265,0.265,0.53,0.353,0.794c0.883,1.236,1.677,2.383,2.648,3.619c6.621,9.445,13.065,19.42,19.067,29.925  c0.079,0.256,0.203,0.486,0.353,0.706c3.972,6.797,7.856,13.947,11.476,21.186c6.179,12.182,11.891,24.602,17.125,37.252  c3.972,9.622,7.68,19.244,10.946,28.954c0.185,0.486,0.335,0.989,0.441,1.501c1.148,3.354,2.295,6.709,3.266,9.975  c2.56,7.856,4.855,15.625,6.885,23.216l0.088,0.088c5.367,19.632,9.233,39.635,11.564,59.85  C455.536,299.974,456.092,308.872,456.119,317.788z"/>
<path style="fill:#E64C3C;" d="M415.866,155.098c-52.205,8.783-105.073,13.012-158.011,12.623  c-52.938,0.388-105.806-3.84-158.011-12.623c0.079-0.309,0.194-0.609,0.353-0.883c3.443-7.945,7.238-15.889,11.211-23.658  c3.708-7.327,7.592-14.477,11.652-21.451c2.03-3.443,4.061-6.885,6.091-10.328c2.295-3.708,4.679-7.415,7.062-11.034  c1.324-2.119,2.737-4.149,4.149-6.179c39,4.581,78.229,6.824,117.493,6.709c39.264,0.115,78.494-2.127,117.493-6.709  c5.914,8.474,11.564,17.478,16.949,26.835c0.079,0.256,0.203,0.486,0.353,0.706c3.972,6.797,7.856,13.947,11.476,21.186  C408.274,138.414,412.246,146.712,415.866,155.098z"/>
<path style="fill:#2C2F38;" d="M399.032,326.615c0,78.008-63.231,141.239-141.239,141.239s-141.239-63.231-141.239-141.239  c0.079-10.761,0.962-21.504,2.648-32.132c0.441-3.354,1.059-6.797,1.677-10.24c44.826,10.84,90.799,16.181,136.914,15.889  c46.115,0.291,92.088-5.049,136.913-15.889c0.618,3.443,1.236,6.885,1.677,10.24C398.069,305.111,398.961,315.854,399.032,326.615z"/>
<path style="fill:#D1D4D1;" d="M355.309,292.276v27.294c0.044,8.739-6.347,16.181-14.989,17.461  c-27.215,3.69-54.651,5.526-82.113,5.482c-27.462,0.044-54.898-1.783-82.113-5.482c-8.651-1.271-15.042-8.713-14.989-17.461v-27.118  c31.955,5.182,64.281,7.75,96.66,7.68C290.437,300.23,323.063,297.608,355.309,292.276z"/>
<path style="fill:#FF5364;" d="M346.57,436.252c-51.473,41.904-125.226,42.16-176.99,0.618  c22.051-48.948,79.606-70.761,128.554-48.719C319.558,397.808,336.763,414.889,346.57,436.252z"/>
<g>
	<path style="fill:#2FA8CC;" d="M207.626,215.654c3.972,5.261,6.117,11.679,6.091,18.273c0.044,17.063-13.744,30.931-30.808,30.984   c-17.063,0.053-30.931-13.744-30.984-30.808c-0.026-9.913,4.696-19.226,12.712-25.061"/>
	<path style="fill:#2FA8CC;" d="M351.072,209.034c13.762,10.054,16.763,29.369,6.709,43.131   c-10.054,13.762-29.369,16.763-43.131,6.709c-7.962-5.817-12.667-15.086-12.659-24.946c-0.026-6.594,2.119-13.012,6.091-18.273"/>
</g>
<g>
	<path style="fill:#2C2F38;" d="M240.208,229.513c-0.45,0-0.909-0.035-1.351-0.106l-114.757-17.655   c-4.82-0.733-8.13-5.235-7.397-10.054c0.733-4.82,5.235-8.13,10.054-7.397c0.009,0,0.018,0,0.026,0l114.757,17.655   c4.82,0.742,8.121,5.243,7.38,10.063C248.259,226.327,244.56,229.504,240.208,229.513z"/>
	<path style="fill:#2C2F38;" d="M275.492,229.513c-4.873-0.009-8.819-3.964-8.81-8.836c0.009-4.352,3.187-8.051,7.486-8.713   l114.757-17.655c4.82-0.75,9.331,2.551,10.072,7.371c0.75,4.82-2.551,9.331-7.371,10.072c-0.009,0-0.018,0-0.026,0l-114.757,17.655   C276.401,229.478,275.942,229.513,275.492,229.513z"/>
</g>
<g>
</g>
<g>
</g>
<g>
</g>
<g>
</g>
<g>
</g>
<g>
</g>
<g>
</g>
<g>
</g>
<g>
</g>
<g>
</g>
<g>
</g>
<g>
</g>
<g>
</g>
<g>
</g>
<g>
</g>
</svg>
