<?xml version="1.0" encoding="iso-8859-1"?>
<!-- Generator: Adobe Illustrator 19.0.0, SVG Export Plug-In . SVG Version: 6.00 Build 0)  -->
<svg xmlns="http://www.w3.org/2000/svg" xmlns:xlink="http://www.w3.org/1999/xlink" version="1.1" id="Layer_1" x="0px" y="0px" viewBox="0 0 512.001 512.001" style="enable-background:new 0 0 512.001 512.001;" xml:space="preserve">
<path style="fill:#E24260;" d="M496.442,322.795c-19.141,11.324-61.002,34.206-86.844,34.206H71.001  c-41.972,0-72.336-40.077-60.992-80.477l19.405-69.072c2.514-8.942,7.837-16.505,14.863-21.828s15.745-8.415,25.031-8.415  c3.812,0,7.371,1.318,10.189,3.569c2.818,2.251,4.897,5.424,5.738,9.145c2.19,9.662,7.117,18.239,13.91,24.91  c6.793,6.661,15.461,11.406,25.163,13.413c16.677,3.457,33.973-1.724,46.018-13.768l59.491-59.481l27.454,18.959l86.287,59.583  l23.318,16.1c21.25,14.66,46.453,22.517,72.265,22.517h23.389c9.925,0,19.192,3.437,26.522,9.287  c7.33,5.86,12.734,14.133,14.934,23.805C505.547,312.109,502.505,319.206,496.442,322.795z"/>
<path style="fill:#CE2647;" d="M273.239,357.002H71.001c-41.972,0-72.336-40.077-60.992-80.477l19.405-69.072  c2.514-8.942,7.837-16.505,14.863-21.828s15.745-8.415,25.031-8.415c3.812,0,7.371,1.318,10.189,3.569  c2.818,2.251,4.897,5.424,5.738,9.145c2.19,9.662,7.117,18.239,13.91,24.91C99.144,214.833,125.727,324.884,273.239,357.002z"/>
<g>
	<path style="fill:#EDD154;" d="M497.233,290.13c3.163,4.451,5.485,9.55,6.752,15.116c1.561,6.864-1.48,13.96-7.543,17.549   c-19.141,11.324-61.002,34.206-86.844,34.206H71.001c-41.557,0-71.738-39.286-61.306-79.281l0.03,0.01   c7.026,26.542,31.216,47.143,61.265,47.143h338.587c25.873,0,67.754-22.902,86.905-34.237c0.243-0.122,0.487-0.304,0.73-0.487   L497.233,290.13z"/>
	<path style="fill:#EDD154;" d="M223.072,211.264l49.582-54.09l27.268,18.542l-50.306,59.013   c-3.984,4.675-10.106,6.952-16.177,6.017l0,0C219.443,238.594,213.504,221.704,223.072,211.264z"/>
	<path style="fill:#EDD154;" d="M300.261,230.093l32.383-33.653l27.268,18.542l-34.066,38.669c-3.919,4.45-9.836,6.595-15.696,5.694   l0,0C296.219,257.202,290.488,240.249,300.261,230.093z"/>
</g>
<path d="M511.4,303.56c-2.508-11.024-8.758-20.988-17.605-28.062c-8.847-7.059-19.95-10.947-31.264-10.947h-23.389  c-24.374,0-47.871-7.321-67.946-21.171l-16.272-11.234l10.693-12.138c1.442-1.637,2.112-3.815,1.838-5.98  c-0.274-2.165-1.463-4.108-3.269-5.334l-27.268-18.542c-3.063-2.084-7.185-1.655-9.754,1.016l-12.609,13.104l-18.242-12.6  l9.396-11.022c1.401-1.644,2.037-3.807,1.749-5.947c-0.288-2.141-1.473-4.058-3.259-5.273l-27.268-18.542  c-3.122-2.122-7.329-1.634-9.881,1.15l-10.908,11.899l-22.005-15.196c-3.02-2.085-7.101-1.716-9.696,0.88l-59.493,59.482  c-10.271,10.271-24.883,14.645-39.099,11.699c-8.091-1.674-15.484-5.615-21.375-11.391c-5.912-5.806-9.999-13.125-11.821-21.163  c-1.192-5.268-4.178-10.03-8.41-13.409c-4.224-3.373-9.527-5.231-14.934-5.231c-10.781,0-21.024,3.443-29.622,9.958  c-8.587,6.505-14.67,15.436-17.593,25.832L2.688,274.469c-6.058,21.57-1.768,44.183,11.764,62.04  C27.986,354.365,48.596,364.606,71,364.606h52.743c4.2,0,7.604-3.404,7.604-7.604c0-4.199-3.403-7.604-7.604-7.604H71.001  c-17.602,0-33.795-8.046-44.427-22.075c-4.572-6.032-7.791-12.758-9.609-19.809c13.181,15.451,32.736,24.972,54.03,24.972h338.584  c24.851,0,61.761-18.619,84.889-31.874c0.896,2.03,1.608,4.145,2.103,6.321c0.833,3.664-0.775,7.409-3.999,9.318  c-50.57,29.917-74.872,33.147-82.974,33.147H149.595c-4.2,0-7.604,3.404-7.604,7.604c0,4.199,3.403,7.604,7.604,7.604h260.004  c27.065,0,68.454-22.095,90.718-35.267C509.251,324.049,513.704,313.69,511.4,303.56z M333.674,206.336l14.834,10.088  l-28.368,32.201c-2.217,2.516-5.522,3.715-8.833,3.205c-3.683-0.567-6.593-3.012-7.786-6.541c-1.193-3.529-0.363-7.239,2.219-9.923  l0,0L333.674,206.336z M17.602,277.612l11.388-40.537c20.23,5.517,38.843,15.988,54.17,30.574  c14.568,13.863,25.578,30.873,32.233,49.629H70.995C46.355,317.278,24.671,301.06,17.602,277.612z M131.423,317.278  c-7.196-23.015-20.17-43.886-37.78-60.645c-17.128-16.298-37.926-28.01-60.541-34.196l3.632-12.926  c2.018-7.176,6.214-13.339,12.135-17.825c5.934-4.495,13.001-6.872,20.439-6.872c2,0,3.882,0.659,5.444,1.907  c1.567,1.251,2.628,2.939,3.067,4.884c2.47,10.892,8.001,20.8,16.001,28.658c7.983,7.828,17.992,13.164,28.944,15.429  c19.243,3.989,39.032-1.931,52.937-15.836l55.01-55l15.058,10.398l-14.666,15.999c-2.838,3.095-2.629,7.906,0.466,10.742  c3.098,2.839,7.908,2.629,10.743-0.467l31.504-34.368l14.819,10.076l-44.805,52.561c-2.292,2.688-5.743,3.972-9.235,3.435  c-3.752-0.577-6.743-3.06-8.003-6.642c-1.259-3.581-0.481-7.39,2.085-10.188c2.838-3.095,2.629-7.906-0.466-10.742  c-3.097-2.838-7.907-2.628-10.744,0.467c-6.326,6.901-8.328,16.675-5.222,25.508c3.105,8.832,10.784,15.204,20.037,16.628  c1.312,0.202,2.621,0.301,3.917,0.301c7.35,0,14.326-3.18,19.203-8.9l30.994-36.358l17.474,12.071l-9.089,9.446l0,0  c-6.497,6.752-8.669,16.46-5.669,25.338c3.001,8.877,10.62,15.277,19.88,16.702c1.287,0.198,2.571,0.295,3.846,0.295  c7.116,0,13.911-3.028,18.711-8.478l13.251-15.04l17.756,12.259c22.628,15.611,49.11,23.862,76.583,23.862h23.389  c7.881,0,15.616,2.708,21.774,7.622c0.368,0.294,0.729,0.597,1.084,0.905c-45.706,26.049-68.099,28.992-75.809,28.992H131.423  V317.278z"/>
<g>
</g>
<g>
</g>
<g>
</g>
<g>
</g>
<g>
</g>
<g>
</g>
<g>
</g>
<g>
</g>
<g>
</g>
<g>
</g>
<g>
</g>
<g>
</g>
<g>
</g>
<g>
</g>
<g>
</g>
</svg>
