<?xml version="1.0" encoding="iso-8859-1"?>
<!-- Generator: Adobe Illustrator 19.0.0, SVG Export Plug-In . SVG Version: 6.00 Build 0)  -->
<svg xmlns="http://www.w3.org/2000/svg" xmlns:xlink="http://www.w3.org/1999/xlink" version="1.1" id="Capa_1" x="0px" y="0px" viewBox="0 0 512.001 512.001" style="enable-background:new 0 0 512.001 512.001;" xml:space="preserve">
<path style="fill:#F3C74F;" d="M38.848,373.459c-7.462,0-14.79-3.583-19.285-10.229c-12.213-18.054-14.847-41.639-7.227-64.71  c7.976-24.148,26.084-43.771,47.258-51.214c12.119-4.261,25.396,2.111,29.655,14.23c4.259,12.118-2.111,25.396-14.231,29.655  c-7.628,2.681-15.069,11.489-18.512,21.917c-1.449,4.387-4.195,15.512,1.585,24.057c7.198,10.639,4.407,25.1-6.232,32.297  C47.866,372.164,43.333,373.459,38.848,373.459z"/>
<path style="opacity:0.2;enable-background:new    ;" d="M89.249,261.537c-4.26-12.118-17.536-18.491-29.655-14.23  c-7.067,2.484-13.79,6.331-19.91,11.244c1.707,20.733,7.199,40.396,15.796,58.298c0.337-1.497,0.712-2.785,1.027-3.74  c3.444-10.428,10.884-19.236,18.512-21.917C87.138,286.933,93.509,273.656,89.249,261.537z"/>
<path style="fill:#F3C74F;" d="M271.095,495.528c-12.846,0-23.259-10.413-23.259-23.259v-92.727  c0-12.846,10.413-23.259,23.259-23.259c12.846,0,23.259,10.413,23.259,23.259v92.727  C294.354,485.115,283.94,495.528,271.095,495.528z"/>
<path style="opacity:0.2;enable-background:new    ;" d="M271.095,356.283c-12.846,0-23.259,10.413-23.259,23.259v48.78  c16.424-2.622,32.051-7.616,46.518-14.625v-34.156C294.354,366.696,283.94,356.283,271.095,356.283z"/>
<path style="fill:#F3C74F;" d="M171.083,495.528c-12.846,0-23.259-10.413-23.259-23.259v-92.727  c0-12.846,10.413-23.259,23.259-23.259c12.846,0,23.259,10.413,23.259,23.259v92.727  C194.341,485.115,183.928,495.528,171.083,495.528z"/>
<path style="opacity:0.2;enable-background:new    ;" d="M171.083,356.283c-12.846,0-23.259,10.413-23.259,23.259v34.156  c14.466,7.009,30.094,12.001,46.518,14.625v-48.78C194.341,366.696,183.928,356.283,171.083,356.283z"/>
<path style="fill:#F3C74F;" d="M416.462,380.207c-12.846,0-23.259-10.413-23.259-23.259c0-20.759-1.173-37.124-6.9-49.514  c-7.472-16.169-22.634-23.022-35.008-27.185c-12.174-4.096-18.724-17.287-14.627-29.462c4.096-12.174,17.287-18.721,29.462-14.627  c67.903,22.848,73.59,74.328,73.59,120.787C439.72,369.794,429.308,380.207,416.462,380.207z"/>
<circle style="fill:#0081C6;" cx="349.929" cy="95.562" r="53.419"/>
<circle style="fill:#F3C74F;" cx="349.929" cy="95.562" r="24.934"/>
<circle style="fill:#0081C6;" cx="92.246" cy="95.562" r="53.419"/>
<circle style="fill:#F3C74F;" cx="92.246" cy="95.562" r="24.934"/>
<path style="opacity:0.2;enable-background:new    ;" d="M123.826,52.48c-25.116,22.7-46.419,53.947-61.551,87.3  c8.546,5.804,18.862,9.198,29.972,9.198c29.503,0,53.419-23.917,53.419-53.419C145.666,77.873,137.066,62.202,123.826,52.48z"/>
<path style="fill:#40BAB3;" d="M388.935,242.046c0-92.425-77.053-225.573-167.846-225.573S53.243,149.622,53.243,242.046  s75.148,167.35,167.846,167.35S388.935,334.471,388.935,242.046z"/>
<path style="fill:#FFFFFF;" d="M56.07,272.738c14.459,77.764,82.836,136.657,165.019,136.657s150.56-58.893,165.019-136.657H56.07z"/>
<path style="fill:#0081C6;" d="M85.783,341.067c30.549,41.433,79.773,68.328,135.306,68.328s104.756-26.895,135.306-68.328H85.783z"/>
<path style="opacity:0.2;enable-background:new    ;" d="M238.888,391.596c-92.698,0-167.846-74.924-167.846-167.35  c0-55.642,27.934-126.033,69.973-173.256C89.241,96.695,53.243,178.876,53.243,242.045c0,92.425,75.148,167.35,167.846,167.35  c50.967,0,96.622-22.653,127.405-58.407C319.086,376.292,280.78,391.596,238.888,391.596z"/>
<path style="opacity:0.2;enable-background:new    ;" d="M243.721,199.043h-49.648c-8.113,0-15.608,4.33-19.661,11.357  l-6.747,11.699c-2.747,4.763,0.69,10.713,6.188,10.713h21.242c7.224,0,14.151-2.869,19.259-7.977l0,0  c2.508-2.508,6.575-2.508,9.084,0l0,0c5.108,5.108,12.036,7.977,19.259,7.977h21.242c5.498,0,8.935-5.951,6.189-10.713  l-6.747-11.699C259.329,203.373,251.834,199.043,243.721,199.043z"/>
<g>
	<path style="fill:#F0B0B7;" d="M137.191,217.506h-28.02c-4.446,0-8.05-3.603-8.05-8.05s3.604-8.05,8.05-8.05h28.02   c4.446,0,8.05,3.603,8.05,8.05S141.637,217.506,137.191,217.506z"/>
	<path style="fill:#F0B0B7;" d="M333.007,217.506h-28.02c-4.446,0-8.05-3.603-8.05-8.05s3.604-8.05,8.05-8.05h28.02   c4.446,0,8.05,3.603,8.05,8.05S337.453,217.506,333.007,217.506z"/>
</g>
<path style="fill:#394049;" d="M494.295,479.951H351.956c-5.332,0-9.655-4.322-9.655-9.655V393.35c0-5.332,4.322-9.655,9.655-9.655  h142.338c5.332,0,9.655,4.322,9.655,9.655v76.945C503.95,475.628,499.627,479.951,494.295,479.951z"/>
<g>
	<path style="fill:#5F666F;" d="M494.295,383.696h-25.212c0,19.256,15.61,34.867,34.867,34.867v-25.212   C503.95,388.019,499.627,383.696,494.295,383.696z"/>
	<path style="fill:#5F666F;" d="M351.956,383.696h25.212c0,19.256-15.61,34.867-34.867,34.867v-25.212   C342.301,388.019,346.624,383.696,351.956,383.696z"/>
	<path style="fill:#5F666F;" d="M494.295,479.951h-25.212c0-19.256,15.61-34.867,34.867-34.867v25.212   C503.95,475.628,499.627,479.951,494.295,479.951z"/>
	<path style="fill:#5F666F;" d="M351.956,479.951h25.212c0-19.256-15.61-34.867-34.867-34.867v25.212   C342.301,475.628,346.624,479.951,351.956,479.951z"/>
</g>
<path style="opacity:0.05;fill:#FFFFFF;enable-background:new    ;" d="M494.295,383.696H428.01  c6.338,13.324,19.921,22.535,35.657,22.535c15.297,0,28.551-8.707,35.102-21.431C497.432,384.098,495.911,383.696,494.295,383.696z"/>
<path style="fill:#E6595A;" d="M201.103,297.818L52.418,243.547c-2.121-0.774-3.532-2.792-3.532-5.049v-18.779  c0-2.883,2.867-4.888,5.575-3.9l155.814,56.873L201.103,297.818z"/>
<path style="opacity:0.2;enable-background:new    ;" d="M201.103,297.818L52.418,243.547c-2.121-0.774-3.532-2.792-3.532-5.049  v-18.779c0-2.883,2.867-4.888,5.575-3.9l155.814,56.873L201.103,297.818z"/>
<path style="fill:#E6595A;" d="M241.074,297.818l148.685-54.272c2.121-0.774,3.532-2.792,3.532-5.049v-18.779  c0-2.883-2.867-4.888-5.575-3.9l-155.814,56.873L241.074,297.818z"/>
<path style="opacity:0.2;enable-background:new    ;" d="M241.074,297.818l148.685-54.272c2.121-0.774,3.532-2.792,3.532-5.049  v-18.779c0-2.883-2.867-4.888-5.575-3.9l-155.814,56.873L241.074,297.818z"/>
<g>
	<path style="fill:#E6595A;" d="M240.994,271.5l10.653,21.01c1.173,2.313,0.791,5.111-0.96,7.024l-16.567,18.114   c-1.181,1.291-2.85,2.027-4.598,2.027h-16.865c-1.75,0-3.419-0.735-4.598-2.027l-16.567-18.114   c-1.751-1.914-2.133-4.711-0.96-7.024l10.653-21.01c1.062-2.094,3.21-3.413,5.558-3.413h28.692   C237.783,268.086,239.931,269.406,240.994,271.5z"/>
	<path style="fill:#E6595A;" d="M229.466,319.674l27.832,73.235c1.608,4.231,0.072,9.011-3.699,11.514l-25.526,16.939   c-4.232,2.808-9.735,2.808-13.968,0l-25.526-16.939c-3.771-2.503-5.307-7.283-3.699-11.514l27.832-73.235H229.466z"/>
</g>
<path style="opacity:0.1;enable-background:new    ;" d="M229.466,319.674l27.832,73.235c1.608,4.231,0.072,9.011-3.699,11.514  l-25.526,16.939c-4.232,2.808-9.735,2.808-13.968,0l-25.526-16.939c-3.771-2.503-5.307-7.283-3.699-11.514l27.832-73.235H229.466z"/>
<polygon style="opacity:0.2;enable-background:new    ;" points="229.466,319.674 212.713,319.674 208.114,331.772 234.063,331.772   "/>
<g>
	<path style="fill:#394049;" d="M73.214,148.978h30.109c11.64,0,21.077-9.436,21.077-21.077l0,0c0-11.64-9.436-21.077-21.077-21.077   H92.086c-9.255,0-17.639,5.459-21.383,13.922l-6.421,14.514C61.428,141.717,66.155,148.978,73.214,148.978z"/>
	<path style="fill:#394049;" d="M368.963,148.978h-30.109c-11.64,0-21.077-9.436-21.077-21.077l0,0   c0-11.64,9.436-21.077,21.077-21.077h11.237c9.255,0,17.639,5.459,21.383,13.922l6.421,14.514   C380.751,141.717,376.024,148.978,368.963,148.978z"/>
</g>
<path style="fill:#F3C74F;" d="M87.737,400.618c-3.715,0-7.398-0.24-11.05-0.722c-22.884-3.018-43.171-16.04-57.124-36.665  c-7.198-10.639-4.407-25.099,6.232-32.297c10.64-7.198,25.1-4.407,32.297,6.233c6.583,9.73,14.885,15.319,24.678,16.611  c16.488,2.174,38.329-7.673,61.493-27.735c9.711-8.409,24.4-7.354,32.809,2.356c8.409,9.71,7.355,24.399-2.356,32.809  C144.472,387.399,115.27,400.618,87.737,400.618z"/>
<path style="fill:#394049;" d="M244.87,190.237h-47.563c-7.772,0-14.953,4.149-18.835,10.881l-6.464,11.208  c-2.631,4.563,0.661,10.264,5.928,10.264h20.35c6.92,0,13.558-2.749,18.451-7.642l0,0c2.403-2.403,6.3-2.403,8.703,0l0,0  c4.893,4.893,11.53,7.642,18.451,7.642h20.35c5.267,0,8.56-5.701,5.928-10.264l-6.464-11.208  C259.823,194.385,252.642,190.237,244.87,190.237z"/>
<path d="M123.181,162.454c-4.446,0-8.05,3.603-8.05,8.05v4.594c0,4.447,3.604,8.05,8.05,8.05c4.446,0,8.05-3.603,8.05-8.05v-4.594  C131.231,166.058,127.627,162.454,123.181,162.454z M494.295,375.645h-17.076v-12.98c0-9.149-7.444-16.593-16.594-16.593H447.64  c-0.438-17.041-2.209-35.641-8.335-52.864c-7.491-21.059-20.289-37.363-38.975-49.623c0.654-1.586,1.011-3.309,1.011-5.088v-18.778  c0-3.98-1.947-7.718-5.208-9.998c-0.647-0.453-1.337-0.817-2.047-1.131c-2.928-17.718-8.066-36.358-15.075-54.665  c1.907-1.305,3.574-2.985,4.881-4.99c0.685-1.051,1.241-2.157,1.684-3.298c16.224-11.544,25.823-30.035,25.823-50.076  c0-33.895-27.575-61.471-61.47-61.471c-14.487,0-28.469,5.173-39.468,14.378c-27.854-25.909-58.733-40.044-89.372-40.044  c-30.644,0-61.521,14.135-89.375,40.042c-10.999-9.204-24.981-14.377-39.467-14.377c-33.895,0-61.47,27.576-61.47,61.471  c0,20.041,9.599,38.531,25.823,50.076c0.442,1.141,0.999,2.248,1.684,3.298c1.306,2.006,2.973,3.686,4.881,4.991  c-7.009,18.306-12.147,36.946-15.075,54.665c-0.708,0.314-1.4,0.679-2.047,1.131c-3.261,2.281-5.208,6.018-5.208,9.998v18.779  c0,2.825,0.898,5.512,2.462,7.729c-17.494,10.635-31.658,28.732-38.606,49.768c-8.409,25.458-5.419,51.609,8.204,71.746  c0.012,0.018,0.024,0.035,0.036,0.054c15.259,22.526,37.525,36.761,62.703,40.083c3.985,0.525,8.058,0.791,12.102,0.791  c16.104,0,32.663-4.156,49.537-12.385c0.83,0.45,1.664,0.892,2.5,1.328v74.657c0,17.264,14.045,31.309,31.309,31.309  s31.309-14.045,31.309-31.309V423.25l7.261,4.818c3.475,2.306,7.455,3.458,11.437,3.458c3.98,0,7.961-1.153,11.435-3.458  l7.262-4.819v49.02c0,17.264,14.045,31.309,31.309,31.309s31.309-14.045,31.309-31.309v-74.593  c34.646-17.99,62.208-47.033,78.443-82.136c2.738,8.231,3.823,18.417,4.168,30.564c-8.865,0.325-15.982,7.619-15.982,16.562v12.98  h-17.076c-9.762,0-17.705,7.942-17.705,17.705v76.945c0,9.762,7.942,17.704,17.705,17.704h142.338  c9.762,0,17.705-7.942,17.705-17.704v-76.945C512,383.588,504.058,375.645,494.295,375.645z M447.326,362.173h13.298  c0.272,0,0.494,0.221,0.494,0.493v12.98h-19.559C444.468,371.752,446.485,367.16,447.326,362.173z M396.041,260.252  c13.212,9.89,22.466,22.526,28.095,38.353c5.388,15.151,6.995,31.501,7.407,47.469h-30.43c-0.463-16.807-2.253-30.656-7.504-42.015  c-1.381-2.989-3.068-5.81-4.989-8.459C392.264,284.247,394.78,272.419,396.041,260.252z M430.727,362.173  c-2.138,5.815-7.716,9.984-14.264,9.984c-6.549,0-12.127-4.168-14.264-9.984H430.727z M385.598,362.179  c0.843,4.985,2.859,9.574,5.766,13.466h-6.231v-12.98C385.133,362.404,385.34,362.194,385.598,362.179z M349.931,50.189  c25.017,0,45.369,20.353,45.369,45.37c0,11.782-4.501,22.836-12.383,31.158l-4.081-9.226c-0.503-1.139-1.087-2.226-1.711-3.28  c3.731-5.451,5.797-11.957,5.797-18.651c0-18.19-14.8-32.99-32.991-32.99c-7.268,0-14.223,2.406-19.88,6.678  c-2.688-3.227-5.414-6.336-8.178-9.324C329.819,53.677,339.706,50.189,349.931,50.189z M350.091,114.876  c6.063,0,11.567,3.584,14.02,9.129l6.42,14.513c0.311,0.703,0.101,1.275-0.131,1.63c-0.232,0.356-0.669,0.78-1.437,0.78h-30.108  c-7.183,0-13.026-5.843-13.026-13.026c0-7.182,5.843-13.026,13.026-13.026C338.855,114.876,350.091,114.876,350.091,114.876z   M339.97,81.931c2.857-2.087,6.333-3.261,9.961-3.261c9.314,0,16.891,7.577,16.891,16.889c0,2.515-0.551,4.924-1.574,7.119  c-4.172-2.298-8.883-3.641-13.803-3.853C347.731,92.935,343.904,87.295,339.97,81.931z M156.134,48.984  c21.406-16.23,43.261-24.46,64.955-24.46c21.68,0,43.52,8.219,64.914,24.429c16.658,12.621,32.597,29.933,46.606,50.504  c-13.068,2.868-22.88,14.529-22.88,28.445c0,16.061,13.066,29.127,29.127,29.127h24.091c7.091,17.995,12.275,36.35,15.182,53.721  l-137.597,50.223c-1.597-0.606-3.317-0.937-5.095-0.937h-28.693c-1.78,0-3.498,0.331-5.095,0.937L64.051,210.749  c2.907-17.371,8.091-35.725,15.182-53.72h24.091c16.06,0,29.126-13.066,29.126-29.127c0-13.916-9.813-25.577-22.88-28.445  C123.567,78.904,139.491,61.603,156.134,48.984z M243.898,295.03l-15.178,16.594h-15.262l-15.179-16.594l9.58-18.893h26.459  L243.898,295.03z M78.066,124.005c2.453-5.546,7.956-9.129,14.02-9.129h11.237c7.182,0,13.025,5.843,13.025,13.026  c0,7.182-5.843,13.026-13.025,13.026H73.214c-0.769,0-1.205-0.424-1.437-0.78c-0.232-0.355-0.442-0.926-0.131-1.63L78.066,124.005z   M75.357,95.559c0-9.314,7.577-16.889,16.889-16.889c3.628,0,7.102,1.174,9.96,3.261c-3.934,5.365-7.76,11.005-11.474,16.895  c-4.92,0.213-9.63,1.555-13.802,3.853C75.908,100.483,75.357,98.074,75.357,95.559z M59.261,126.717  c-7.883-8.321-12.383-19.375-12.383-31.158c0-25.017,20.352-45.37,45.369-45.37c10.224,0,20.111,3.488,28.057,9.733  c-2.764,2.988-5.49,6.098-8.177,9.324c-5.657-4.272-12.612-6.679-19.879-6.679c-18.191,0-32.99,14.8-32.99,32.99  c0,6.695,2.066,13.2,5.797,18.651c-0.625,1.055-1.208,2.141-1.711,3.28L59.261,126.717z M56.936,225.292l133.875,48.865  l-4.851,9.565L56.936,236.627V225.292z M77.739,391.914c-20.569-2.714-38.861-14.501-51.506-33.192v0.001  c-0.009-0.014-0.018-0.026-0.027-0.039c-10.783-15.967-13.053-36.973-6.227-57.64c5.059-15.317,14.626-28.684,26.526-37.582  c1.482,12.034,4.211,23.833,8.106,35.223c-2.406,3.668-4.368,7.712-5.75,11.898c-1.816,5.501-5.199,19.506,2.491,30.987  c0.024,0.036,0.047,0.072,0.071,0.108c7.928,11.717,18.12,18.473,30.293,20.079c19.081,2.521,42.527-7.73,67.816-29.628  c6.34-5.489,15.963-4.799,21.452,1.54c2.66,3.07,3.964,6.993,3.673,11.044c-0.291,4.052-2.142,7.749-5.213,10.407  C136.995,383.224,106.14,395.651,77.739,391.914z M63.182,319.337c4.286,8.706,9.31,17.069,15.024,25.001  c-5.059-2.01-9.476-5.839-13.389-11.599c-0.019-0.028-0.038-0.058-0.057-0.086C62.036,328.63,62.421,323.14,63.182,319.337z   M179.987,367.293c6.322-5.474,10.133-13.083,10.733-21.424c0.599-8.341-2.087-16.417-7.561-22.738  c-11.3-13.05-31.112-14.471-44.164-3.173c-14.499,12.555-28.534,20.929-40.431,24.339c-21.131-25.146-33.911-56.144-36.688-88.729  l120.603,44.021c0.61,1.963,1.637,3.809,3.073,5.38l16.565,18.111c0.16,0.175,0.336,0.33,0.502,0.495l-25.264,66.475  c-0.617,1.624-0.971,3.286-1.105,4.941c-7.554-2.195-14.926-4.945-22.08-8.241C162.714,381.276,171.326,374.794,179.987,367.293z   M186.292,472.269c0,8.386-6.822,15.209-15.209,15.209s-15.209-6.822-15.209-15.209v-67.281c9.827,3.916,19.989,6.932,30.417,9.017  L186.292,472.269L186.292,472.269z M249.147,397.716l-25.527,16.938c-1.539,1.02-3.526,1.02-5.064,0l-25.525-16.938  c-0.643-0.425-0.899-1.227-0.626-1.946l25.86-68.045h5.649l25.86,68.046C250.047,396.489,249.789,397.29,249.147,397.716z   M286.303,472.269c0,8.386-6.822,15.209-15.209,15.209c-8.386,0-15.209-6.822-15.209-15.209v-58.262  c10.538-2.106,20.702-5.134,30.416-8.988v67.251H286.303z M265.927,395.001c-0.132-1.658-0.486-3.324-1.104-4.951l-25.263-66.476  c0.166-0.165,0.342-0.32,0.501-0.494l16.567-18.113c1.436-1.57,2.462-3.417,3.072-5.38l120.608-44.022  C374.752,321.319,329.016,376.73,265.927,395.001z M256.216,283.721l-4.85-9.564l133.876-48.865v11.335L256.216,283.721z   M495.899,470.297c0,0.884-0.719,1.604-1.605,1.604H351.956c-0.884,0-1.605-0.719-1.605-1.604v-76.945  c0-0.884,0.719-1.605,1.605-1.605h142.338c0.884,0,1.605,0.72,1.605,1.605V470.297z M177.937,230.639h20.35  c8.5,0,16.528-3.086,22.803-8.729c6.274,5.643,14.3,8.729,22.803,8.729h20.35c5.383,0,10.203-2.783,12.897-7.444  c2.693-4.662,2.695-10.227,0.005-14.892l-6.465-11.208c-5.305-9.196-15.194-14.909-25.809-14.909h-47.562  c-10.616,0-20.506,5.712-25.809,14.909l-6.464,11.208c-2.689,4.664-2.688,10.23,0.005,14.891  C167.732,227.856,172.554,230.639,177.937,230.639z M185.446,205.139c2.438-4.227,6.982-6.852,11.862-6.852h47.562  c4.878,0,9.424,2.625,11.862,6.852l5.421,9.399h-18.261c-4.819,0-9.35-1.876-12.758-5.285c-2.683-2.682-6.25-4.16-10.044-4.16  c-3.794,0-7.361,1.478-10.044,4.16c-3.408,3.408-7.94,5.285-12.759,5.285h-18.261L185.446,205.139z M318.996,183.148  c4.446,0,8.05-3.603,8.05-8.05v-4.594c0-4.447-3.604-8.05-8.05-8.05s-8.05,3.603-8.05,8.05v4.594  C310.946,179.545,314.551,183.148,318.996,183.148z"/>
<g>
</g>
<g>
</g>
<g>
</g>
<g>
</g>
<g>
</g>
<g>
</g>
<g>
</g>
<g>
</g>
<g>
</g>
<g>
</g>
<g>
</g>
<g>
</g>
<g>
</g>
<g>
</g>
<g>
</g>
</svg>
