<?xml version="1.0" encoding="iso-8859-1"?>
<!-- Generator: Adobe Illustrator 19.0.0, SVG Export Plug-In . SVG Version: 6.00 Build 0)  -->
<svg xmlns="http://www.w3.org/2000/svg" xmlns:xlink="http://www.w3.org/1999/xlink" version="1.1" id="Capa_1" x="0px" y="0px" viewBox="0 0 512 512" style="enable-background:new 0 0 512 512;" xml:space="preserve">
<path style="fill:#2FA8CC;" d="M442.615,392.298h7.503c22.537-27.101,35.046-61.149,35.399-96.397  c-0.026-8.307-0.671-16.596-1.942-24.806c-3.911-26.598-11.114-52.604-21.451-77.418c-0.971-2.56-2.03-5.12-3.09-7.592V26.483  C459.034,11.855,447.179,0,432.552,0s-26.483,11.855-26.483,26.483v66.825c-5.297-6.974-10.77-13.771-16.508-20.303  c-1.059-1.059-2.03-2.119-3.09-3.266c-0.088-0.265-0.265-0.53-0.353-0.794c0-0.088,0-0.088-0.088-0.177  c-7.733-8.413-15.925-16.402-24.541-23.923C329.887,17.655,294.135,0,256.177,0c-29.855,0.715-58.801,10.408-83.068,27.807  c-7.415,5.12-14.742,10.681-21.981,16.772c-8.369,7.292-16.296,15.078-23.746,23.305h-0.265c-1.324,1.501-2.648,3.001-4.061,4.502  c-2.648,3.09-5.297,6.091-7.857,9.269c-3.266,3.884-6.356,7.857-9.269,11.829V26.483c-0.009-14.627-11.873-26.474-26.5-26.465  c-14.61,0.009-26.456,11.847-26.465,26.465v159.426c-1.148,2.56-2.207,5.208-3.178,7.768  c-10.258,24.832-17.434,50.838-21.363,77.418c-1.271,8.21-1.916,16.499-1.942,24.806c0.353,35.249,12.862,69.297,35.399,96.397  L442.615,392.298L442.615,392.298z"/>
<path style="fill:#F0C419;" d="M454.268,331.185C454.268,431.042,365.462,512,256,512S57.732,431.042,57.732,331.185  c0.018-8.298,0.583-16.578,1.677-24.806c3.363-26.386,9.551-52.339,18.45-77.4c1.059-3.151,2.207-6.382,3.354-9.534  c0.177-0.406,0.265-0.803,0.441-1.209c3.266-8.969,6.974-17.938,10.946-26.906c1.854-4.202,3.708-8.324,5.738-12.447  c3.443-7.353,7.239-14.786,11.211-22.06c3.708-6.788,7.592-13.409,11.652-19.959c4.237-6.788,8.563-13.497,13.153-19.88  c2.207-3.231,4.502-6.223,6.797-9.295c1.236-1.536,2.383-2.993,3.531-4.529h0.177c6.382-8.166,13.25-15.934,20.568-23.27  c6.02-5.932,12.359-11.546,18.979-16.808c20.118-17.046,45.4-26.836,71.768-27.772c32.75,0,63.647,17.611,90.924,44.844  c7.512,7.565,14.583,15.545,21.186,23.914c0.088,0.079,0.088,0.079,0.088,0.159c0.106,0.274,0.221,0.547,0.353,0.812  c0.883,1.13,1.677,2.18,2.648,3.31c6.956,9.172,13.436,18.688,19.421,28.522c3.972,6.382,7.857,13.012,11.476,19.712  c6.179,11.388,11.891,22.969,17.125,34.745c3.972,8.969,7.68,17.858,10.946,26.906c0.185,0.468,0.335,0.962,0.441,1.457  c1.148,3.072,2.295,6.223,3.266,9.295c8.978,25.053,15.192,51.006,18.538,77.4C453.685,314.598,454.25,322.887,454.268,331.185z"/>
<path style="fill:#E57E25;" d="M341.539,91.983c0.044,46.274-37.429,83.818-83.703,83.862c-29.828,0.026-57.423-15.81-72.457-41.578  c7.239,4.114,15.422,6.276,23.746,6.268c26.783,0.026,48.516-21.654,48.552-48.437c0.026-21.486-14.098-40.43-34.692-46.548  c-0.097-0.097-0.221-0.15-0.353-0.177c-1.245-0.388-2.507-0.68-3.796-0.883l-1.589-0.353l-0.177-0.53  c12.332-5.394,25.644-8.218,39.106-8.298c29.837,0,58.086,14.654,83.509,37.782l-0.265,0.265  C340.851,79.466,341.557,85.716,341.539,91.983z"/>
<g>
	<path style="fill:#2C2F38;" d="M231.177,273.655c-2.03,0-3.999-0.697-5.57-1.986c-36.988-30.102-81.39-2.692-81.832-2.401   c-4.122,2.604-9.578,1.368-12.173-2.754c-2.604-4.122-1.368-9.578,2.754-12.173c19.076-12.05,65.024-26.774,102.4,3.646   c3.778,3.072,4.352,8.633,1.28,12.42C236.35,272.463,233.834,273.655,231.177,273.655z"/>
	<path style="fill:#2C2F38;" d="M395.802,354.251c-1.748,3.275-3.663,6.462-5.747,9.534c-0.353,0.53-0.794,1.059-1.148,1.501   c-6.444,9.225-14.23,17.434-23.093,24.364c-9.048,7.247-18.979,13.33-29.546,18.097c-1.501,0.706-3.01,1.412-4.511,2.03   c-44.05,19.279-94.287,18.538-137.737-2.03c-0.371-0.141-0.724-0.318-1.059-0.53c-10.143-4.696-19.703-10.567-28.487-17.479   c-9.754-7.662-18.202-16.843-25.035-27.189c-1.845-2.657-3.531-5.429-5.041-8.298c-6.1-11.652,8.757-23.57,23.27-18.361   c34.578,11.873,70.93,17.752,107.485,17.39c36.529,0.353,72.845-5.526,107.396-17.39   C387.046,330.681,401.999,342.599,395.802,354.251z"/>
</g>
<path style="fill:#FF5364;" d="M309.53,388.414c4.873,0,8.828,3.955,8.828,8.828v18.185c-0.291,29.255-24.249,52.727-53.495,52.436  c-28.734-0.291-52.003-23.437-52.436-52.171v-18.45c0-4.873,3.955-8.828,8.828-8.828H309.53z"/>
<path style="fill:#2FA8CC;" d="M349.926,244.877c13.409,10.478,15.793,29.846,5.314,43.255  c-10.478,13.409-29.846,15.793-43.255,5.314c-13.409-10.478-15.793-29.846-5.314-43.255c5.862-7.495,14.848-11.864,24.364-11.847  c0.591-0.018,1.183,0.018,1.766,0.088"/>
<path style="fill:#2C3E50;" d="M379.586,264.828c-1.059,0-2.11-0.194-3.099-0.565l-70.621-26.483  c-4.573-1.686-6.921-6.762-5.235-11.335c1.686-4.573,6.762-6.921,11.335-5.235c0.035,0.009,0.062,0.026,0.097,0.035l70.621,26.483  c4.564,1.713,6.877,6.806,5.164,11.37C386.56,262.55,383.267,264.828,379.586,264.828z"/>
<g>
</g>
<g>
</g>
<g>
</g>
<g>
</g>
<g>
</g>
<g>
</g>
<g>
</g>
<g>
</g>
<g>
</g>
<g>
</g>
<g>
</g>
<g>
</g>
<g>
</g>
<g>
</g>
<g>
</g>
</svg>
