<?xml version="1.0" encoding="iso-8859-1"?>
<!-- Generator: Adobe Illustrator 19.0.0, SVG Export Plug-In . SVG Version: 6.00 Build 0)  -->
<svg xmlns="http://www.w3.org/2000/svg" xmlns:xlink="http://www.w3.org/1999/xlink" version="1.1" id="Layer_1" x="0px" y="0px" viewBox="0 0 512 512" style="enable-background:new 0 0 512 512;" xml:space="preserve">
<polyline style="fill:#EDD154;" points="298.768,78.822 298.768,41.304 213.228,41.304 213.228,78.822 "/>
<polyline style="fill:#D6B31D;" points="240.795,78.822 240.795,41.304 213.228,41.304 213.228,78.822 "/>
<rect x="197.642" y="7.604" style="fill:#EDD154;" width="116.726" height="33.701"/>
<rect x="197.642" y="7.604" style="fill:#D6B31D;" width="33.701" height="33.701"/>
<circle style="fill:#49618C;" cx="256" cy="289.478" r="214.918"/>
<path style="fill:#E6E6E6;" d="M438.295,289.477c0,69.115-38.456,129.247-95.141,160.16c-25.884,14.123-55.58,22.143-87.152,22.143  c-100.687,0-182.302-81.616-182.302-182.302c0-68.801,38.121-128.71,94.391-159.744c26.066-14.377,56.036-22.558,87.912-22.558  C356.68,107.174,438.295,188.8,438.295,289.477z"/>
<path style="fill:#CCCCCC;" d="M343.155,449.636c-25.884,14.123-55.58,22.143-87.152,22.143  c-100.687,0-182.302-81.616-182.302-182.302c0-68.801,38.121-128.71,94.391-159.744  C145.482,195.918,103.265,387.497,343.155,449.636z"/>
<circle style="fill:#EDD154;" cx="256" cy="289.478" r="24.414"/>
<path d="M413.647,132.432c-2.967-2.977-7.78-2.984-10.753-0.021c-2.976,2.964-2.984,7.778-0.021,10.754  c38.976,39.125,60.441,91.086,60.441,146.313c0,114.314-93.001,207.314-207.314,207.314s-207.314-93-207.314-207.314  S141.686,82.163,256,82.163c13.761,0,27.285,1.321,40.457,3.903c0.517,0.164,1.057,0.274,1.616,0.324  c31.65,6.47,61.224,20.289,87.077,40.903c3.281,2.618,8.066,2.079,10.686-1.204c2.618-3.283,2.078-8.068-1.204-10.686  c-26.328-20.995-56.251-35.425-88.26-42.782V48.91h7.99c4.2,0,7.604-3.405,7.604-7.604V7.604c0-4.199-3.404-7.604-7.604-7.604  h-83.021c-4.2,0-7.604,3.405-7.604,7.604s3.404,7.604,7.604,7.604h75.417v18.494h-7.951c-0.013,0-0.025-0.002-0.04-0.002h-85.539  c-0.013,0-0.026,0.002-0.04,0.002h-7.946V15.208h3.108c4.2,0,7.604-3.405,7.604-7.604S212.552,0,208.352,0h-10.712  c-4.2,0-7.604,3.405-7.604,7.604v33.702c0,4.199,3.404,7.604,7.604,7.604h7.985v23.75c-40.193,9.258-77.086,29.584-106.972,59.47  c-42.029,42.03-65.175,97.91-65.175,157.348s23.146,115.319,65.175,157.347S196.561,512,256,512  c59.438,0,115.318-23.146,157.347-65.175c42.029-42.03,65.175-97.91,65.175-157.347  C478.522,230.199,455.483,174.426,413.647,132.432z M220.832,48.91h70.332v20.78c-11.513-1.808-23.255-2.735-35.164-2.735  c-11.894,0-23.641,0.943-35.169,2.762V48.91H220.832z"/>
<path d="M343.102,202.376c-2.971-2.97-7.784-2.97-10.754,0l-59.726,59.726c-4.96-3.023-10.666-4.643-16.622-4.643  c-8.553,0-16.594,3.331-22.641,9.378c-6.049,6.048-9.379,14.089-9.379,22.642c0,8.553,3.331,16.594,9.378,22.642  c6.048,6.048,14.089,9.378,22.642,9.378c8.553,0,16.594-3.331,22.642-9.378c10.631-10.631,12.203-26.938,4.727-39.255l59.734-59.734  C346.071,210.16,346.071,205.345,343.102,202.376z M267.888,301.365c-3.175,3.175-7.397,4.924-11.888,4.924  c-4.49,0-8.712-1.749-11.889-4.924c-3.175-3.175-4.923-7.396-4.923-11.888s1.749-8.712,4.924-11.888  c3.175-3.175,7.397-4.924,11.888-4.924c4.49,0,8.712,1.749,11.888,4.924C274.442,284.145,274.442,294.81,267.888,301.365z"/>
<path d="M149.621,395.857c-2.971-2.97-7.784-2.97-10.754,0l-12.341,12.341c-3.395-3.713-6.655-7.589-9.764-11.627  c-2.562-3.325-7.337-3.947-10.665-1.383c-3.326,2.563-3.947,7.337-1.383,10.665c17.454,22.657,40.145,41.407,65.622,54.224  c26.721,13.444,55.544,20.26,85.665,20.26c105.241,0,190.859-85.62,190.859-190.859S361.241,98.617,256,98.617  s-190.86,85.62-190.86,190.86c0,31.687,7.926,63.072,22.923,90.764c1.999,3.692,6.613,5.064,10.307,3.065  c3.693-1.999,5.065-6.614,3.065-10.308c-1.658-3.061-3.216-6.174-4.685-9.329l16.142-6.686c3.88-1.607,5.723-6.056,4.115-9.935  c-1.607-3.88-6.054-5.724-9.935-4.115l-16.122,6.678c-6.105-16.809-9.638-34.561-10.417-52.531h18.39c4.2,0,7.604-3.405,7.604-7.604  s-3.404-7.604-7.604-7.604H80.522c0.787-18.374,4.4-36.028,10.431-52.53l16.12,6.677c0.951,0.394,1.936,0.581,2.907,0.581  c2.984,0,5.814-1.768,7.028-4.696c1.608-3.88-0.234-8.328-4.115-9.935L96.8,215.305c7.647-16.346,17.732-31.33,29.796-44.476  l12.269,12.27c1.485,1.485,3.431,2.227,5.378,2.227c1.946,0,3.892-0.742,5.376-2.227c2.971-2.97,2.971-7.783,0.001-10.753  l-12.27-12.27c13.146-12.063,28.13-22.149,44.476-29.795l6.665,16.092c1.213,2.928,4.043,4.696,7.028,4.696  c0.969,0,1.956-0.187,2.907-0.581c3.88-1.607,5.723-6.056,4.115-9.935l-6.677-16.119c16.503-6.031,34.156-9.644,52.531-10.431  v17.429c0,4.199,3.404,7.604,7.604,7.604c4.2,0,7.604-3.405,7.604-7.604v-17.429c18.374,0.787,36.028,4.399,52.53,10.431  l-6.676,16.119c-1.608,3.88,0.234,8.328,4.115,9.935c0.951,0.394,1.938,0.581,2.907,0.581c2.984,0,5.814-1.768,7.028-4.696  l6.665-16.092c16.346,7.647,31.33,17.732,44.476,29.796l-12.269,12.27c-2.97,2.97-2.97,7.784,0.001,10.753  c1.484,1.485,3.431,2.227,5.376,2.227c1.946,0,3.892-0.742,5.378-2.227l12.269-12.269c12.063,13.146,22.149,28.13,29.795,44.476  l-16.091,6.665c-3.88,1.607-5.723,6.056-4.115,9.935c1.213,2.928,4.043,4.696,7.028,4.696c0.969,0,1.956-0.187,2.907-0.581  l16.119-6.676c6.031,16.502,9.644,34.156,10.431,52.53h-17.429c-4.2,0-7.604,3.405-7.604,7.604c0,4.199,3.404,7.604,7.604,7.604  h17.429c-0.787,18.374-4.399,36.028-10.431,52.53l-16.119-6.676c-3.877-1.606-8.327,0.235-9.935,4.115  c-1.608,3.88,0.234,8.328,4.115,9.935l16.091,6.665c-7.647,16.346-17.732,31.33-29.795,44.476l-12.269-12.269  c-2.971-2.97-7.784-2.97-10.754,0c-2.97,2.97-2.97,7.784,0,10.753l12.27,12.27c-13.147,12.063-28.131,22.15-44.477,29.796  l-6.665-16.092c-1.607-3.88-6.054-5.722-9.935-4.115c-3.88,1.607-5.723,6.055-4.115,9.935l6.676,16.119  c-16.502,6.031-34.156,9.644-52.53,10.431v-17.429c0-4.199-3.404-7.604-7.604-7.604s-7.604,3.405-7.604,7.604v17.426  c-18.219-0.77-35.904-4.289-52.569-10.335l6.716-16.212c1.608-3.88-0.234-8.328-4.115-9.935c-3.877-1.605-8.327,0.235-9.935,4.115  l-6.719,16.221c-16.182-7.535-31.19-17.554-44.517-29.831l12.363-12.363C152.59,403.642,152.59,398.827,149.621,395.857z"/>
<path d="M210.883,365.77c0,4.199,3.404,7.604,7.604,7.604h75.026c4.2,0,7.604-3.405,7.604-7.604c0-4.199-3.404-7.604-7.604-7.604  h-75.026C214.287,358.166,210.883,361.57,210.883,365.77z"/>
<g>
</g>
<g>
</g>
<g>
</g>
<g>
</g>
<g>
</g>
<g>
</g>
<g>
</g>
<g>
</g>
<g>
</g>
<g>
</g>
<g>
</g>
<g>
</g>
<g>
</g>
<g>
</g>
<g>
</g>
</svg>
