<?xml version="1.0" encoding="iso-8859-1"?>
<!-- Generator: Adobe Illustrator 19.0.0, SVG Export Plug-In . SVG Version: 6.00 Build 0)  -->
<svg xmlns="http://www.w3.org/2000/svg" xmlns:xlink="http://www.w3.org/1999/xlink" version="1.1" id="Capa_1" x="0px" y="0px" viewBox="0 0 512.002 512.002" style="enable-background:new 0 0 512.002 512.002;" xml:space="preserve">
<g>
	<path style="fill:#F3C74F;" d="M464.78,365.957c-8.51,0-16.769-4.473-21.229-12.422c-6.572-11.712,1.626-25.972,9.309-33.105   c2.065-1.159,3.17-6.998,1.444-14.765c-3.719-16.739-18.654-35.344-39.008-36.854c-13.393-0.993-23.445-12.656-22.45-26.048   c0.993-13.394,12.647-23.461,26.048-22.45c20.993,1.557,40.337,10.615,55.936,26.194c13.384,13.367,22.956,30.63,26.95,48.611   c6.536,29.413-3.092,55.364-25.124,67.726C472.894,364.954,468.809,365.957,464.78,365.957z"/>
	<path style="fill:#F3C74F;" d="M36.571,371.793c-10.216,0-19.748-6.437-23.207-16.65c-8.516-25.145-6.449-49.746,5.977-71.143   c17.236-29.679,49.855-45.4,74.636-50.215c13.288-2.576,26.146,6.095,28.729,19.38c2.582,13.285-6.095,26.147-19.38,28.729   c-14.638,2.844-33.179,12.209-41.605,26.718c-5.259,9.055-5.893,19.134-1.937,30.809c4.341,12.818-2.531,26.729-15.349,31.071   C41.83,371.373,39.178,371.793,36.571,371.793z"/>
</g>
<path style="opacity:0.2;enable-background:new    ;" d="M122.706,253.163c-2.584-13.285-15.441-21.957-28.729-19.38  c-9.822,1.908-20.874,5.538-31.712,11.063c-0.285,4.253-0.442,8.45-0.442,12.564c0,15.096,1.906,29.75,5.487,43.734  c9.526-10.262,24.069-16.931,36.017-19.252C116.611,279.31,125.289,266.448,122.706,253.163z"/>
<path style="fill:#F3C74F;" d="M307.759,504.071c-13.534,0-24.505-10.971-24.505-24.505v-92.793  c0-13.534,10.971-24.505,24.505-24.505s24.505,10.971,24.505,24.505v92.793C332.264,493.1,321.293,504.071,307.759,504.071z"/>
<path style="opacity:0.2;enable-background:new    ;" d="M307.759,362.267c-13.534,0-24.505,10.971-24.505,24.505v51.393  c17.304-2.763,33.768-8.023,49.009-15.408v-35.985C332.264,373.238,321.293,362.267,307.759,362.267z"/>
<path style="fill:#F3C74F;" d="M202.389,504.071c-13.534,0-24.505-10.971-24.505-24.505v-92.793  c0-13.534,10.971-24.505,24.505-24.505c13.534,0,24.505,10.971,24.505,24.505v92.793C226.893,493.1,215.923,504.071,202.389,504.071  z"/>
<path style="opacity:0.2;enable-background:new    ;" d="M202.389,362.267c-13.534,0-24.505,10.971-24.505,24.505v35.985  c15.241,7.385,31.706,12.645,49.009,15.408v-51.393C226.893,373.238,215.923,362.267,202.389,362.267z"/>
<circle style="fill:#0081C6;" cx="390.817" cy="91.25" r="56.277"/>
<circle style="fill:#F3C74F;" cx="390.817" cy="91.25" r="26.276"/>
<circle style="fill:#0081C6;" cx="119.331" cy="91.25" r="56.277"/>
<circle style="fill:#F3C74F;" cx="119.331" cy="91.25" r="26.276"/>
<path style="opacity:0.2;enable-background:new    ;" d="M152.601,45.865c-26.461,23.916-48.905,56.838-64.849,91.977  c9.004,6.115,19.873,9.691,31.577,9.691c31.083,0,56.281-25.198,56.281-56.281C175.61,72.618,166.55,56.107,152.601,45.865z"/>
<path style="fill:#E6595A;" d="M431.911,245.587c0-97.375-81.18-237.656-176.837-237.656S78.236,148.21,78.236,245.587  s79.173,176.315,176.837,176.315S431.911,342.962,431.911,245.587z"/>
<path style="opacity:0.2;enable-background:new    ;" d="M255.074,7.929c-44.136,0-85.181,29.874-116.601,71.609  c2.624,2.09,5.867,3.204,9.166,3.204c2.173,0,4.371-0.482,6.429-1.485c0.836-0.407,1.683-0.799,2.544-1.177  c1.741-0.764,3.737,0.319,4.072,2.192c2.945,16.454,8.378,36.337,24.073,45.306c2.249,1.285,4.765,1.937,7.295,1.937  c3.213,0,6.447-1.053,9.169-3.204c2.213-1.749,3.849-4.148,4.767-6.814c7.211-20.956,29.544-41.979,45.855-57.334  c0.406-0.382,0.811-0.762,1.213-1.141c1.134-1.069,2.901-1.069,4.036,0c0.402,0.378,0.807,0.759,1.213,1.141  c16.311,15.355,38.644,36.377,45.855,57.334c0.918,2.666,2.553,5.065,4.767,6.814c2.722,2.151,5.956,3.204,9.169,3.204  c2.529,0,5.048-0.652,7.295-1.937c15.695-8.969,21.128-28.852,24.073-45.306c0.335-1.872,2.331-2.956,4.072-2.192  c0.861,0.377,1.708,0.77,2.544,1.177c2.058,1.002,4.256,1.485,6.429,1.485c3.3,0,6.542-1.113,9.166-3.204  C340.255,37.803,299.21,7.929,255.074,7.929z"/>
<path style="fill:#892641;" d="M255.074,7.929c-39.964,0-77.397,24.495-107.443,60.108c6.381-3.107,13.195-5.439,20.661-7.151  c1.904-0.437,3.813,0.765,4.196,2.681c2.194,11.008,4.068,36.839,15.493,48.122c1.777,1.755,4.726,1.169,5.688-1.135  c11.8-28.277,42.929-53.418,58.934-69.492c1.366-1.372,3.574-1.372,4.94,0c16.005,16.075,47.135,41.216,58.934,69.492  c0.962,2.306,3.911,2.892,5.688,1.135c11.424-11.283,13.299-37.115,15.493-48.122c0.382-1.916,2.292-3.118,4.196-2.681  c7.466,1.712,14.28,4.044,20.661,7.151C332.471,32.425,295.039,7.929,255.074,7.929z"/>
<path style="opacity:0.1;fill:#FFFFFF;enable-background:new    ;" d="M285.442,12.605c-2.193,5.663-3.409,11.812-3.409,18.25  c0,27.932,22.643,50.575,50.574,50.575c12.02,0,23.054-4.201,31.733-11.205C341.672,42.742,314.658,21.563,285.442,12.605z"/>
<g>
	<path style="fill:#40BAB3;" d="M283.211,173.747h-56.274c-16.439,0-29.765,13.326-29.765,29.766l0,0   c0,16.439,13.326,29.765,29.765,29.765h56.274c16.439,0,29.765-13.326,29.765-29.765l0,0   C312.977,187.074,299.65,173.747,283.211,173.747z"/>
	
		<ellipse transform="matrix(0.7071 -0.7071 0.7071 0.7071 -88.7475 155.5083)" style="fill:#40BAB3;" cx="143.341" cy="184.882" rx="25.163" ry="28.556"/>
	
		<ellipse transform="matrix(0.7071 0.7071 -0.7071 0.7071 238.1629 -205.2179)" style="fill:#40BAB3;" cx="366.801" cy="184.879" rx="25.163" ry="28.556"/>
</g>
<path style="fill:#FFFFFF;" d="M81.215,277.923c15.234,81.93,87.275,143.978,173.859,143.978  c86.585,0,158.625-62.048,173.859-143.978H81.215z"/>
<path style="fill:#0081C6;" d="M112.52,349.912c32.185,43.653,84.047,71.989,142.554,71.989s110.369-28.336,142.554-71.989H112.52z"/>
<path style="opacity:0.2;enable-background:new    ;" d="M273.826,403.149c-97.665,0-176.837-78.938-176.837-176.315  c0-58.624,29.43-132.784,73.722-182.538c-54.548,48.152-92.475,134.736-92.475,201.289c0,97.376,79.173,176.315,176.837,176.315  c53.697,0,101.798-23.867,134.229-61.537C358.321,387.024,317.964,403.149,273.826,403.149z"/>
<g>
	<path style="fill:#FFFFFF;" d="M146.752,219.7c-9.45,0-19.237-3.847-26.807-11.416c-6.759-6.76-10.8-15.495-11.375-24.598   c-0.598-9.48,2.587-18.217,8.973-24.604c12.905-12.904,34.974-11.825,49.203,2.401c14.226,14.227,15.305,36.299,2.401,49.202   C163.109,216.723,155.062,219.7,146.752,219.7z M139.948,165.884c-4.231,0-8.225,1.446-11.191,4.413   c-3.12,3.119-4.669,7.519-4.361,12.39c0.332,5.247,2.733,10.356,6.762,14.383c4.03,4.029,9.139,6.43,14.385,6.762   c4.876,0.304,9.271-1.241,12.39-4.361c6.72-6.719,5.642-18.73-2.401-26.772C151.038,168.205,145.305,165.884,139.948,165.884z"/>
	<path style="fill:#FFFFFF;" d="M363.397,219.7c-8.312,0-16.358-2.975-22.396-9.014c-12.902-12.902-11.825-34.974,2.402-49.202   c14.227-14.224,36.3-15.305,49.203-2.401c6.386,6.387,9.572,15.125,8.973,24.604c-0.575,9.102-4.615,17.838-11.376,24.598   C382.635,215.852,372.843,219.7,363.397,219.7z M370.2,165.884c-5.356,0-11.088,2.32-15.583,6.814   c-8.043,8.042-9.122,20.054-2.402,26.772c3.119,3.12,7.513,4.66,12.39,4.361c5.247-0.332,10.356-2.734,14.384-6.762   c4.03-4.028,6.43-9.137,6.762-14.383c0.308-4.871-1.241-9.271-4.361-12.39C378.426,167.331,374.429,165.884,370.2,165.884z"/>
	<path style="fill:#FFFFFF;" d="M283.211,241.208h-56.275c-20.785,0-37.695-16.909-37.695-37.695s16.909-37.696,37.695-37.696   h56.275c20.785,0,37.695,16.91,37.695,37.696C320.907,224.298,303.996,241.208,283.211,241.208z M226.937,181.676   c-12.041,0-21.836,9.796-21.836,21.837c0,12.041,9.796,21.836,21.836,21.836h56.275c12.041,0,21.836-9.796,21.836-21.836   c0-12.042-9.796-21.837-21.836-21.837H226.937z"/>
</g>
<path style="fill:#593C00;" d="M88.56,335.759c6.184,11.311,13.493,21.927,21.778,31.696c3.783,4.46,9.345,7.021,15.193,7.021  h259.087c5.849,0,11.411-2.561,15.194-7.021c8.284-9.769,15.593-20.385,21.777-31.696c2.554-4.673-0.777-10.379-6.102-10.379H94.662  C89.337,325.381,86.004,331.086,88.56,335.759z"/>
<circle style="opacity:0.2;enable-background:new    ;" cx="250.047" cy="356.14" r="40.924"/>
<circle style="fill:#F3C74F;" cx="255.069" cy="349.934" r="40.924"/>
<circle style="opacity:0.2;enable-background:new    ;" cx="255.069" cy="349.934" r="18.757"/>
<g>
	<path style="opacity:0.3;fill:#FFFFFF;enable-background:new    ;" d="M255.109,309.006c-1.877,3.641-2.942,7.767-2.942,12.146   c0,14.67,11.893,26.563,26.563,26.563c6.232,0,11.957-2.151,16.489-5.745C291.516,323.19,274.971,309.023,255.109,309.006z"/>
	<circle style="opacity:0.3;fill:#FFFFFF;enable-background:new    ;" cx="265.641" cy="365.179" r="10.832"/>
</g>
<g>
	<path style="fill:#F0B0B7;" d="M158.106,249.839h-29.522c-4.38,0-7.929-3.549-7.929-7.929s3.549-7.929,7.929-7.929h29.522   c4.38,0,7.929,3.549,7.929,7.929S162.486,249.839,158.106,249.839z"/>
	<path style="fill:#F0B0B7;" d="M381.565,249.839h-29.522c-4.38,0-7.929-3.549-7.929-7.929s3.549-7.929,7.929-7.929h29.522   c4.38,0,7.929,3.549,7.929,7.929S385.944,249.839,381.565,249.839z"/>
</g>
<path style="fill:#F3C74F;" d="M86.767,407.591c-5.17,0-10.314-0.481-15.4-1.462c-27.29-5.265-48.973-24.325-58.004-50.986  c-4.341-12.818,2.531-26.729,15.349-31.071c12.815-4.34,26.73,2.532,31.071,15.349c3.402,10.046,10.813,16.646,20.868,18.585  c15.832,3.062,34.54-5.926,50.024-24.023c8.799-10.282,24.268-11.487,34.55-2.69c10.284,8.799,11.488,24.268,2.69,34.55  C144.955,392.68,115.52,407.591,86.767,407.591z"/>
<g style="opacity:0.2;">
	<path d="M255.074,150.955c-4.38,0-7.929-3.549-7.929-7.929v-7.929c0-4.38,3.549-7.929,7.929-7.929s7.929,3.549,7.929,7.929v7.929   C263.003,147.406,259.454,150.955,255.074,150.955z"/>
	<path d="M255.074,121.53c-4.38,0-7.929-3.55-7.929-7.929v-12.897c0-4.38,3.549-7.929,7.929-7.929s7.929,3.549,7.929,7.929v12.897   C263.003,117.981,259.454,121.53,255.074,121.53z M255.074,87.138c-4.38,0-7.929-3.549-7.929-7.929V66.312   c0-4.38,3.549-7.929,7.929-7.929s7.929,3.549,7.929,7.929v12.897C263.003,83.588,259.454,87.138,255.074,87.138z"/>
	<path d="M255.074,52.746c-4.38,0-7.929-3.549-7.929-7.929v-7.929c0-4.38,3.549-7.929,7.929-7.929s7.929,3.549,7.929,7.929v7.929   C263.003,49.196,259.454,52.746,255.074,52.746z"/>
</g>
<g style="opacity:0.2;">
	<circle style="fill:#FFFFFF;" cx="357.642" cy="100.416" r="9.161"/>
	<circle style="fill:#FFFFFF;" cx="339.32" cy="132.017" r="9.161"/>
	<circle style="fill:#FFFFFF;" cx="152.507" cy="117.533" r="9.161"/>
</g>
<path style="fill:#F3C74F;" d="M448.351,370.649c-8.084,0-16.138-1.887-23.976-5.669c-12.449-6.009-22.546-15.775-32.309-25.219  c-15.754-15.238-26.31-24.49-40.024-24.49c-13.429,0-24.316-10.887-24.316-24.316c0-13.429,10.887-24.316,24.316-24.316  c34.376,0,57.183,22.059,73.835,38.167c20.134,19.473,22.622,18.745,26.983,15.624c10.922-7.813,26.534-2.403,33.105,9.309  c6.572,11.712,2.403,26.533-9.309,33.105C467.389,368.042,457.85,370.649,448.351,370.649z"/>
<path d="M509.52,293.397c-4.318-19.435-14.648-38.082-29.088-52.501c-12.26-12.244-26.984-20.919-42.86-25.333  c-3.123-21.67-9.395-44.45-18.277-66.751c21.67-10.709,35.733-32.889,35.733-57.559c0-35.406-28.804-64.21-64.21-64.21  c-15.33,0-30.118,5.544-41.675,15.395c-7.036-6.584-14.247-12.485-21.551-17.573C303.91,8.365,279.511,0,255.074,0  s-48.836,8.365-72.519,24.864c-7.303,5.088-14.515,10.989-21.551,17.573c-11.556-9.852-26.345-15.395-41.675-15.395  c-35.406,0-64.21,28.804-64.21,64.21c0,24.669,14.063,46.851,35.733,57.559c-11.212,28.146-18.264,57.059-20.073,83.533  c-16.674,6.509-42.467,20.417-58.296,47.673c-13.609,23.435-15.902,50.292-6.63,77.671c9.957,29.396,33.886,50.416,64.01,56.228  c5.523,1.066,11.21,1.607,16.903,1.607c20.719,0,41.692-7.168,60.537-20.269c7.266,5.22,14.831,9.87,22.65,13.936v70.378  c0,17.884,14.55,32.435,32.434,32.435s32.434-14.551,32.434-32.435v-50.823c6.677,0.718,13.433,1.088,20.251,1.088  c6.806,0,13.563-0.381,20.251-1.11v50.845c0,17.884,14.55,32.435,32.434,32.435s32.434-14.551,32.434-32.435v-70.418  c13.838-7.171,26.816-16.126,38.612-26.743h5.812c8.207,0,15.949-3.581,21.241-9.822c1.725-2.034,3.419-4.118,5.072-6.234  c3.162,2.122,6.478,4.07,10,5.77c8.88,4.285,18.106,6.457,27.421,6.457c10.924,0,21.753-2.968,32.184-8.82  C505.739,355.617,516.845,326.357,509.52,293.397z M435.175,286.893c6.037,6.153,9.943,13.981,11.39,20.49  c0.53,2.386,0.672,4.293,0.658,5.669c-2.404-1.641-6.933-5.362-15.427-13.557C433.07,295.333,434.201,291.13,435.175,286.893z   M390.817,42.899c26.661,0,48.352,21.691,48.352,48.352c0,18.272-10.241,34.732-26.1,42.942c-1.951-4.29-4.004-8.545-6.139-12.759  c10.889-5.818,18.094-17.291,18.094-30.183c0-18.861-15.346-34.206-34.206-34.206c-7.738,0-15.14,2.623-21.088,7.279  c-3.063-3.676-6.187-7.217-9.36-10.622C368.93,46.774,379.687,42.899,390.817,42.899z M399.418,107.451  c-4.23-7.436-8.733-14.689-13.505-21.68c-2.087-3.058-4.218-6.048-6.386-8.978c3.189-2.488,7.15-3.889,11.291-3.889  c10.117,0,18.347,8.231,18.347,18.347C409.166,98.184,405.278,104.338,399.418,107.451z M70.978,91.252  c0-26.661,21.691-48.352,48.352-48.352c11.131,0,21.889,3.875,30.447,10.804c-3.173,3.405-6.296,6.946-9.36,10.622  c-5.948-4.656-13.35-7.279-21.088-7.279c-18.861,0-34.206,15.345-34.206,34.206c0,12.891,7.204,24.365,18.093,30.183  c-2.136,4.215-4.189,8.468-6.139,12.759C81.219,125.984,70.978,109.523,70.978,91.252z M130.621,76.793  c-2.167,2.93-4.299,5.921-6.386,8.978c-4.772,6.99-9.275,14.245-13.505,21.68c-5.86-3.112-9.748-9.268-9.748-16.2  c0-10.116,8.231-18.347,18.347-18.347C123.471,72.905,127.433,74.306,130.621,76.793z M137.333,94.713  c16.197-23.725,34.969-43.379,54.288-56.838c20.97-14.609,42.32-22.017,63.453-22.017s42.483,7.408,63.454,22.017  c19.318,13.458,38.09,33.111,54.288,56.838c31.562,46.23,51.167,104.04,51.167,150.874c0,14.171-1.76,28.152-5.23,41.721  c-16.002-14.04-37.626-28.598-66.71-28.598c-17.779,0-32.246,14.466-32.246,32.246c0,10.968,5.509,20.669,13.901,26.497h-42.17  c-8.954-10.038-21.975-16.375-36.453-16.375s-27.499,6.337-36.453,16.375H102.276c-10.692-22.514-16.111-46.665-16.111-71.865  C86.165,198.753,105.772,140.943,137.333,94.713z M288.069,349.929c0,18.193-14.801,32.994-32.995,32.994  s-32.995-14.801-32.995-32.994c0-18.194,14.801-32.995,32.995-32.995S288.069,331.735,288.069,349.929z M209.135,366.548h-32.002  c6.162-10.301,6.03-23.13,0.017-33.238h31.986c-1.884,5.191-2.915,10.787-2.915,16.62  C206.22,355.762,207.251,361.358,209.135,366.548z M120.549,333.311c-5.341,5.457-10.937,9.725-16.503,12.666  c-2.761-4.119-5.372-8.353-7.779-12.666H120.549z M86.077,320.16c-1.68,1.187-3.125,2.731-4.225,4.583  c-2.72,4.589-2.814,10.129-0.251,14.82c2.051,3.751,4.245,7.452,6.55,11.084c-2.052,0.085-4.058-0.052-5.999-0.427  c-7.238-1.397-12.376-6.011-14.859-13.344c-3.222-9.51-2.813-17.225,1.283-24.283c2.322-3.996,5.873-7.845,10.329-11.265  C80.94,307.707,83.328,313.988,86.077,320.16z M86.768,399.662c-4.688,0-9.362-0.444-13.898-1.319  c-24.455-4.717-43.892-21.819-51.996-45.746c-7.76-22.912-5.919-45.257,5.323-64.616c11.685-20.119,30.037-31.809,44.169-38.252  c0.26,12.019,1.659,23.812,4.175,35.327c-6.849,4.334-14.533,10.716-19.678,19.574c-6.385,10.997-7.256,23.558-2.589,37.335  c4.292,12.675,14.088,21.36,26.872,23.827c18.662,3.609,40.184-6.352,57.554-26.653c5.945-6.946,16.428-7.761,23.37-1.819  c6.945,5.942,7.762,16.425,1.822,23.37C140.698,385.457,113.317,399.662,86.768,399.662z M218.964,479.565  c0,9.141-7.436,16.576-16.575,16.576s-16.575-7.436-16.575-16.576v-63.068c10.695,4.32,21.779,7.609,33.15,9.841v53.227H218.964z   M324.334,479.565c0,9.141-7.436,16.576-16.575,16.576s-16.575-7.436-16.575-16.576v-53.271c11.368-2.247,22.461-5.55,33.15-9.859  v63.129H324.334z M255.074,413.971c-34.242,0-66.804-9.994-94.793-28.992c0.94-0.842,1.871-1.7,2.796-2.573h55.543  c8.954,10.039,21.976,16.375,36.453,16.375s27.5-6.337,36.453-16.375h62.014C324.984,402.879,290.727,413.971,255.074,413.971z   M393.763,362.329c-2.273,2.681-5.608,4.219-9.145,4.219h-83.604c1.883-5.19,2.915-10.786,2.915-16.619  c0-5.833-1.031-11.429-2.915-16.62h72.202c3.662,3.049,8.023,7.008,13.342,12.153c3.86,3.733,7.77,7.514,11.874,11.127  C396.909,358.538,395.35,360.456,393.763,362.329z M472.776,355.927c-14.823,8.317-30.298,8.98-44.955,1.913  c-11.3-5.454-20.928-14.768-30.243-23.777c-16.686-16.141-28.872-26.719-45.536-26.719c-9.036,0-16.387-7.351-16.387-16.387  s7.351-16.387,16.387-16.387c31.168,0,51.77,19.927,68.323,35.936c18.363,17.762,26.376,23.86,36.854,16.554  c6.422-4.086,6.729-14.543,4.826-23.114c-3.081-13.866-12.126-27.046-23.685-34.974c0.981-7.722,1.481-15.525,1.481-23.383  c0-4.195-0.159-8.476-0.446-12.817c10.961,4.014,20.963,10.489,29.832,19.346c12.329,12.314,21.141,28.195,24.813,44.721  C499.786,322.701,491.639,345.343,472.776,355.927z M243.639,217.16c4.274,0,8.228-1.391,11.435-3.746  c3.207,2.354,7.161,3.746,11.435,3.746c10.678,0,19.364-8.687,19.364-19.364c0-4.38-3.549-7.929-7.929-7.929  c-4.38,0-7.929,3.549-7.929,7.929c0,1.934-1.572,3.506-3.506,3.506c-1.934,0-3.506-1.572-3.506-3.506  c0-4.38-3.549-7.929-7.929-7.929s-7.929,3.549-7.929,7.929c0,1.934-1.572,3.506-3.506,3.506c-1.934,0-3.506-1.572-3.506-3.506  c0-4.38-3.549-7.929-7.929-7.929c-4.38,0-7.929,3.549-7.929,7.929C224.274,208.474,232.961,217.16,243.639,217.16z M139.451,192.203  c1.549,1.549,3.578,2.322,5.606,2.322c2.03,0,4.06-0.774,5.608-2.323c3.097-3.098,3.096-8.118-0.001-11.214l-3.423-3.422  c-3.1-3.099-8.121-3.097-11.213,0.001c-3.097,3.098-3.096,8.118,0.001,11.213L139.451,192.203z M365.091,194.525  c2.029,0,4.058-0.774,5.607-2.322l3.423-3.422c3.097-3.096,3.098-8.116,0.001-11.213c-3.095-3.098-8.115-3.097-11.213-0.001  l-3.423,3.422c-3.097,3.096-3.098,8.116-0.001,11.214C361.032,193.751,363.062,194.525,365.091,194.525z"/>
<g>
</g>
<g>
</g>
<g>
</g>
<g>
</g>
<g>
</g>
<g>
</g>
<g>
</g>
<g>
</g>
<g>
</g>
<g>
</g>
<g>
</g>
<g>
</g>
<g>
</g>
<g>
</g>
<g>
</g>
</svg>
