<?xml version="1.0" encoding="iso-8859-1"?>
<!-- Generator: Adobe Illustrator 19.0.0, SVG Export Plug-In . SVG Version: 6.00 Build 0)  -->
<svg xmlns="http://www.w3.org/2000/svg" xmlns:xlink="http://www.w3.org/1999/xlink" version="1.1" id="Capa_1" x="0px" y="0px" viewBox="0 0 512 512" style="enable-background:new 0 0 512 512;" xml:space="preserve">
<path style="fill:#2FA8CC;" d="M442.615,392.298h7.503c22.537-27.101,35.046-61.149,35.399-96.397  c-0.026-8.307-0.671-16.596-1.942-24.806c-3.911-26.598-11.114-52.604-21.451-77.418c-0.971-2.56-2.03-5.12-3.09-7.592V26.483  C459.034,11.855,447.179,0,432.552,0s-26.483,11.855-26.483,26.483v66.825c-5.297-6.974-10.77-13.771-16.508-20.303  c-1.059-1.059-2.03-2.119-3.09-3.266c-0.088-0.265-0.265-0.53-0.353-0.794c0-0.088,0-0.088-0.088-0.177  c-7.733-8.413-15.925-16.402-24.541-23.923C329.887,17.655,294.135,0,256.177,0c-29.855,0.715-58.801,10.408-83.068,27.807  c-7.415,5.12-14.742,10.681-21.981,16.772c-8.369,7.292-16.296,15.078-23.746,23.305h-0.265c-1.324,1.501-2.648,3.001-4.061,4.502  c-2.648,3.09-5.297,6.091-7.857,9.269c-3.266,3.884-6.356,7.857-9.269,11.829V26.483c-0.009-14.627-11.873-26.474-26.5-26.465  c-14.61,0.009-26.456,11.847-26.465,26.465v159.426c-1.148,2.56-2.207,5.208-3.178,7.768  c-10.258,24.832-17.434,50.838-21.363,77.418c-1.271,8.21-1.916,16.499-1.942,24.806c0.353,35.249,12.862,69.297,35.399,96.397  L442.615,392.298L442.615,392.298z"/>
<path style="fill:#F0C419;" d="M454.268,331.185C454.268,431.042,365.462,512,256,512S57.732,431.042,57.732,331.185  c0.018-8.298,0.583-16.578,1.677-24.806c3.363-26.386,9.551-52.339,18.45-77.4c1.059-3.151,2.207-6.382,3.354-9.534  c0.177-0.406,0.265-0.803,0.441-1.209c3.266-8.969,6.974-17.938,10.946-26.906c1.854-4.202,3.708-8.324,5.738-12.447  c3.443-7.353,7.239-14.786,11.211-22.06c3.708-6.788,7.592-13.409,11.652-19.959c4.237-6.788,8.563-13.497,13.153-19.88  c2.207-3.231,4.502-6.223,6.797-9.295c1.236-1.536,2.383-2.993,3.531-4.529h0.177c6.382-8.166,13.25-15.934,20.568-23.27  c6.02-5.932,12.359-11.546,18.979-16.808c20.118-17.046,45.4-26.836,71.768-27.772c32.75,0,63.647,17.611,90.924,44.844  c7.512,7.565,14.583,15.545,21.186,23.914c0.088,0.079,0.088,0.079,0.088,0.159c0.106,0.274,0.221,0.547,0.353,0.812  c0.883,1.13,1.677,2.18,2.648,3.31c6.956,9.172,13.436,18.688,19.421,28.522c3.972,6.382,7.857,13.012,11.476,19.712  c6.179,11.388,11.891,22.969,17.125,34.745c3.972,8.969,7.68,17.858,10.946,26.906c0.185,0.468,0.335,0.962,0.441,1.457  c1.148,3.072,2.295,6.223,3.266,9.295c8.978,25.053,15.192,51.006,18.538,77.4C453.685,314.598,454.25,322.887,454.268,331.185z"/>
<path style="fill:#E57E25;" d="M341.539,91.983c0.044,46.274-37.429,83.818-83.703,83.862c-29.828,0.026-57.423-15.81-72.457-41.578  c7.239,4.114,15.422,6.276,23.746,6.268c26.783,0.026,48.516-21.654,48.552-48.437c0.026-21.486-14.098-40.43-34.692-46.548  c-0.097-0.097-0.221-0.15-0.353-0.177c-1.245-0.388-2.507-0.68-3.796-0.883l-1.589-0.353l-0.177-0.53  c12.332-5.394,25.644-8.218,39.106-8.298c29.837,0,58.086,14.654,83.509,37.782l-0.265,0.265  C340.851,79.466,341.557,85.716,341.539,91.983z"/>
<path style="fill:#2C2F38;" d="M397.241,335.448c0,78.009-63.232,141.241-141.241,141.241s-141.241-63.232-141.241-141.241  c0.079-10.761,0.962-21.504,2.648-32.132c0.441-3.354,1.059-6.797,1.677-10.24c44.826,10.84,90.801,16.172,136.916,15.89  c46.115,0.291,92.089-5.049,136.916-15.89c0.618,3.443,1.236,6.885,1.677,10.24C396.279,313.944,397.162,324.687,397.241,335.448z"/>
<path style="fill:#D1D4D1;" d="M353.51,301.109v27.295c0.044,8.739-6.347,16.181-14.989,17.461  c-27.215,3.69-54.652,5.526-82.114,5.482c-27.463,0.044-54.899-1.783-82.114-5.482c-8.651-1.271-15.042-8.713-14.989-17.461v-27.118  c31.956,5.182,64.282,7.751,96.662,7.68C288.644,309.063,321.271,306.441,353.51,301.109z"/>
<path style="fill:#FF5364;" d="M344.77,445.087c-51.474,41.905-125.228,42.161-176.993,0.618  c22.051-48.949,79.607-70.762,128.556-48.719C317.767,406.643,334.972,423.724,344.77,445.087z"/>
<g>
	<path style="fill:#2FA8CC;" d="M205.824,224.486c3.972,5.261,6.118,11.679,6.091,18.273c0.044,17.064-13.745,30.932-30.808,30.985   c-17.064,0.044-30.932-13.745-30.985-30.808c-0.026-9.913,4.696-19.226,12.712-25.062"/>
	<path style="fill:#2FA8CC;" d="M349.272,217.865c13.762,10.055,16.764,29.369,6.709,43.132   c-10.055,13.762-29.369,16.764-43.132,6.709c-7.962-5.817-12.668-15.086-12.659-24.947c-0.026-6.594,2.119-13.012,6.091-18.273"/>
</g>
<g>
	<path style="fill:#2C2F38;" d="M238.415,238.345c-0.45,0-0.909-0.035-1.351-0.106l-114.759-17.655   c-4.82-0.733-8.13-5.235-7.398-10.055c0.733-4.82,5.235-8.13,10.055-7.398c0.009,0,0.018,0,0.026,0l114.759,17.655   c4.82,0.742,8.121,5.244,7.38,10.063C246.466,235.158,242.767,238.336,238.415,238.345z"/>
	<path style="fill:#2C2F38;" d="M273.699,238.345c-4.873-0.009-8.819-3.964-8.81-8.836c0.009-4.352,3.187-8.051,7.486-8.713   l114.759-17.655c4.82-0.75,9.331,2.551,10.072,7.371c0.75,4.82-2.551,9.331-7.371,10.072c-0.009,0-0.018,0-0.026,0L275.05,238.239   C274.609,238.31,274.15,238.345,273.699,238.345z"/>
</g>
<g>
</g>
<g>
</g>
<g>
</g>
<g>
</g>
<g>
</g>
<g>
</g>
<g>
</g>
<g>
</g>
<g>
</g>
<g>
</g>
<g>
</g>
<g>
</g>
<g>
</g>
<g>
</g>
<g>
</g>
</svg>
