<?xml version="1.0" encoding="iso-8859-1"?>
<!-- Generator: Adobe Illustrator 19.0.0, SVG Export Plug-In . SVG Version: 6.00 Build 0)  -->
<svg xmlns="http://www.w3.org/2000/svg" xmlns:xlink="http://www.w3.org/1999/xlink" version="1.1" id="Capa_1" x="0px" y="0px" viewBox="0 0 512 512" style="enable-background:new 0 0 512 512;" xml:space="preserve">
<path style="fill:#2FA8CC;" d="M442.615,392.298h7.503c22.537-27.101,35.046-61.149,35.399-96.397  c-0.026-8.307-0.671-16.596-1.942-24.806c-3.911-26.598-11.114-52.604-21.451-77.418c-0.971-2.56-2.03-5.12-3.09-7.592V26.483  C459.034,11.855,447.179,0,432.552,0s-26.483,11.855-26.483,26.483v66.825c-5.297-6.974-10.77-13.771-16.508-20.303  c-1.059-1.059-2.03-2.119-3.09-3.266c-0.088-0.265-0.265-0.53-0.353-0.794c0-0.088,0-0.088-0.088-0.177  c-7.733-8.413-15.925-16.402-24.541-23.923C329.887,17.655,294.135,0,256.177,0c-29.855,0.715-58.801,10.408-83.068,27.807  c-7.415,5.12-14.742,10.681-21.981,16.772c-8.369,7.292-16.296,15.078-23.746,23.305h-0.265c-1.324,1.501-2.648,3.001-4.061,4.502  c-2.648,3.09-5.297,6.091-7.857,9.269c-3.266,3.884-6.356,7.857-9.269,11.829V26.483c-0.009-14.627-11.873-26.474-26.5-26.465  c-14.61,0.009-26.456,11.847-26.465,26.465v159.426c-1.148,2.56-2.207,5.208-3.178,7.768  c-10.258,24.832-17.434,50.838-21.363,77.418c-1.271,8.21-1.916,16.499-1.942,24.806c0.353,35.249,12.862,69.297,35.399,96.397  L442.615,392.298L442.615,392.298z"/>
<path style="fill:#F0C419;" d="M454.268,331.185C454.268,431.042,365.462,512,256,512S57.732,431.042,57.732,331.185  c0.018-8.298,0.583-16.578,1.677-24.806c3.363-26.386,9.551-52.339,18.45-77.4c1.059-3.151,2.207-6.382,3.354-9.534  c0.177-0.406,0.265-0.803,0.441-1.209c3.266-8.969,6.974-17.938,10.946-26.906c1.854-4.202,3.708-8.324,5.738-12.447  c3.443-7.353,7.239-14.786,11.211-22.06c3.708-6.788,7.592-13.409,11.652-19.959c4.237-6.788,8.563-13.497,13.153-19.88  c2.207-3.231,4.502-6.223,6.797-9.295c1.236-1.536,2.383-2.993,3.531-4.529h0.177c6.382-8.166,13.25-15.934,20.568-23.27  c6.02-5.932,12.359-11.546,18.979-16.808c20.118-17.046,45.4-26.836,71.768-27.772c32.75,0,63.647,17.611,90.924,44.844  c7.512,7.565,14.583,15.545,21.186,23.914c0.088,0.079,0.088,0.079,0.088,0.159c0.106,0.274,0.221,0.547,0.353,0.812  c0.883,1.13,1.677,2.18,2.648,3.31c6.956,9.172,13.436,18.688,19.421,28.522c3.972,6.382,7.857,13.012,11.476,19.712  c6.179,11.388,11.891,22.969,17.125,34.745c3.972,8.969,7.68,17.858,10.946,26.906c0.185,0.468,0.335,0.962,0.441,1.457  c1.148,3.072,2.295,6.223,3.266,9.295c8.978,25.053,15.192,51.006,18.538,77.4C453.685,314.598,454.25,322.887,454.268,331.185z"/>
<path style="fill:#E57E25;" d="M341.539,91.983c0.044,46.274-37.429,83.818-83.703,83.862c-29.828,0.026-57.423-15.81-72.457-41.578  c7.239,4.114,15.422,6.276,23.746,6.268c26.783,0.026,48.516-21.654,48.552-48.437c0.026-21.486-14.098-40.43-34.692-46.548  c-0.097-0.097-0.221-0.15-0.353-0.177c-1.245-0.388-2.507-0.68-3.796-0.883l-1.589-0.353l-0.177-0.53  c12.332-5.394,25.644-8.218,39.106-8.298c29.837,0,58.086,14.654,83.509,37.782l-0.265,0.265  C340.851,79.466,341.557,85.716,341.539,91.983z"/>
<g>
	<path style="fill:#2C2F38;" d="M335.448,404.339c-1.227,0-2.445-0.256-3.575-0.759c-7.433-3.275-15.095-6.003-22.925-8.157   c-8.369-2.313-16.878-4.043-25.485-5.191c-18.229-2.41-36.696-2.41-54.934,0c-8.607,1.148-17.117,2.878-25.485,5.191   c-7.83,2.154-15.492,4.882-22.925,8.157c-4.449,1.986-9.675-0.009-11.652-4.467c-1.986-4.449,0.009-9.675,4.467-11.652   c0.009-0.009,0.026-0.009,0.035-0.018c8.218-3.628,16.693-6.647,25.353-9.031c9.145-2.525,18.458-4.423,27.86-5.676   c19.791-2.622,39.83-2.622,59.622,0c9.41,1.254,18.714,3.151,27.86,5.676c8.66,2.392,17.134,5.411,25.353,9.031   c4.458,1.977,6.462,7.194,4.484,11.652C342.095,402.282,338.935,404.339,335.448,404.339z"/>
	<path style="fill:#2C2F38;" d="M176.561,423.724c-2.957,0-5.711-1.474-7.353-3.928c-17.143-25.706-6.78-47.395,1.103-55.278   c3.443-3.443,9.031-3.452,12.482,0c3.425,3.416,3.452,8.96,0.071,12.412c-1.315,1.404-11.917,13.639,1.042,33.068   c2.701,4.061,1.607,9.534-2.445,12.244C180.003,423.203,178.3,423.724,176.561,423.724z"/>
	<path style="fill:#2C2F38;" d="M335.439,423.724c-4.873-0.009-8.828-3.964-8.819-8.836c0-1.739,0.521-3.443,1.483-4.891   c13.48-20.224,1.227-32.874,1.103-32.997c-3.425-3.46-3.399-9.057,0.062-12.482c3.443-3.407,8.978-3.407,12.42,0   c7.883,7.883,18.247,29.572,1.103,55.278C341.151,422.25,338.397,423.724,335.439,423.724z"/>
	<path style="fill:#2C2F38;" d="M282.483,441.6c-2.048,0-4.034-0.715-5.614-2.022c-12.429-9.066-29.299-9.066-41.728,0   c-3.761,3.107-9.331,2.569-12.429-1.192c-3.107-3.761-2.569-9.331,1.192-12.429l0,0c18.856-14.76,45.347-14.76,64.203,0   c3.761,3.107,4.29,8.669,1.183,12.429C287.612,440.426,285.113,441.6,282.483,441.6L282.483,441.6z"/>
</g>
<g>
	<path style="fill:#2980BA;" d="M196.943,277.451c3.972,5.261,6.118,11.679,6.091,18.273c0.044,17.064-13.745,30.932-30.808,30.985   c-17.064,0.044-30.932-13.745-30.985-30.808c-0.026-9.913,4.696-19.226,12.712-25.062"/>
	<path style="fill:#2980BA;" d="M358.047,270.83c13.762,10.055,16.764,29.369,6.709,43.132s-29.369,16.764-43.132,6.709   c-7.962-5.809-12.668-15.086-12.659-24.947c-0.026-6.594,2.119-13.012,6.091-18.273"/>
</g>
<g>
	<path style="fill:#2C2F38;" d="M229.526,291.31c-0.45,0-0.909-0.035-1.351-0.106l-114.759-17.655   c-4.811-0.786-8.068-5.332-7.283-10.143c0.777-4.749,5.208-7.998,9.975-7.309l114.759,17.655c4.82,0.742,8.121,5.252,7.38,10.072   C237.577,288.132,233.878,291.31,229.526,291.31z"/>
	<path style="fill:#2C2F38;" d="M282.474,291.31c-4.873,0-8.819-3.964-8.819-8.836c0.009-4.352,3.178-8.051,7.477-8.713   l114.759-17.655c4.829-0.697,9.304,2.648,10.002,7.477c0.689,4.758-2.56,9.19-7.309,9.975l-114.759,17.655   C283.383,291.275,282.924,291.31,282.474,291.31z"/>
</g>
<g>
</g>
<g>
</g>
<g>
</g>
<g>
</g>
<g>
</g>
<g>
</g>
<g>
</g>
<g>
</g>
<g>
</g>
<g>
</g>
<g>
</g>
<g>
</g>
<g>
</g>
<g>
</g>
<g>
</g>
</svg>
