<?xml version="1.0" encoding="iso-8859-1"?>
<!-- Generator: Adobe Illustrator 19.0.0, SVG Export Plug-In . SVG Version: 6.00 Build 0)  -->
<svg xmlns="http://www.w3.org/2000/svg" xmlns:xlink="http://www.w3.org/1999/xlink" version="1.1" id="Capa_1" x="0px" y="0px" viewBox="0 0 511.999 511.999" style="enable-background:new 0 0 511.999 511.999;" xml:space="preserve">
<path style="fill:#593C00;" d="M504.017,106.63c0,21.818-17.417,82.744-67.972,91.927c-50.555,9.182-69.18,5.864-94.723,30.406  l-76.098-113.837L504.017,106.63z"/>
<path style="opacity:0.3;enable-background:new    ;" d="M504.017,106.63c0,21.818-17.417,82.744-67.972,91.927  c-50.555,9.182-69.18,5.864-94.723,30.406l-76.098-113.837L504.017,106.63z"/>
<path style="fill:#F3C74F;" d="M434.487,459.876H298.455c-12.04,0-21.8-9.76-21.8-21.8c0-12.04,9.76-21.8,21.8-21.8h136.032  c12.04,0,21.8,9.76,21.8,21.8C456.288,450.117,446.528,459.876,434.487,459.876z"/>
<path style="opacity:0.2;enable-background:new    ;" d="M434.487,459.876H298.455c-12.04,0-21.8-9.76-21.8-21.8  c0-12.04,9.76-21.8,21.8-21.8h136.032c12.04,0,21.8,9.76,21.8,21.8C456.288,450.117,446.528,459.876,434.487,459.876z"/>
<path style="fill:#F3C74F;" d="M393.649,270.728c-13.662,0-26.86-2.666-36.856-7.613c-10.8-5.346-15.221-18.434-9.876-29.233  c5.346-10.798,18.434-15.222,29.233-9.876c11.573,5.73,37.352,3.01,43.098-4.545c2.238-2.942-0.378-14.508-16.928-33.022  c-8.031-8.983-7.259-22.776,1.725-30.806c8.982-8.031,22.777-7.259,30.806,1.725c14.711,16.456,23.576,31.497,27.106,45.981  c4.889,20.07-1.643,34.215-7.983,42.549c-9.961,13.09-27.078,21.663-48.197,24.137C401.742,270.496,397.674,270.728,393.649,270.728  z"/>
<path style="opacity:0.2;enable-background:new    ;" d="M434.853,157.356c-8.029-8.984-21.825-9.756-30.806-1.725  c-5.549,4.96-7.956,12.118-7.099,18.984c18.74,1.111,36.493,1.151,51.112-0.609C444.341,168.601,439.957,163.066,434.853,157.356z"/>
<path style="fill:#40BAB3;" d="M367.702,202.725C324.388,127.702,199.444,55.734,125.745,98.284s-73.845,186.739-30.53,261.762  c43.314,75.023,139.426,100.624,214.671,57.181C385.131,373.783,411.016,277.748,367.702,202.725z"/>
<path style="fill:#FFFFFF;" d="M111.893,383.634c48.181,56.346,131.284,72.107,197.993,33.592  c66.709-38.514,94.612-118.363,69.905-188.263L111.893,383.634z"/>
<path style="fill:#0081C6;" d="M168.033,425.172c44.214,19.316,96.775,18.078,141.853-7.947  c45.077-26.025,72.429-70.925,77.808-118.874L168.033,425.172z"/>
<path style="opacity:0.2;enable-background:new    ;" d="M315.992,394.437c-75.245,43.443-171.357,17.842-214.671-57.18  C75.244,292.092,64.93,221.862,76.923,163.829c-20.607,61.361-11.314,144.94,18.291,196.216  c43.314,75.023,139.426,100.624,214.671,57.181c41.371-23.885,67.813-63.67,76.044-107.118  C373.919,344.429,349.998,374.804,315.992,394.437z"/>
<g>
	<path style="fill:#F0B0B7;" d="M144.914,305.592c-2.759,0-5.442-1.431-6.92-3.992c-2.204-3.818-0.896-8.7,2.922-10.904   l22.745-13.131c3.818-2.203,8.7-0.897,10.904,2.922c2.204,3.818,0.896,8.7-2.922,10.904l-22.745,13.131   C147.641,305.248,146.269,305.592,144.914,305.592z"/>
	<path style="fill:#F0B0B7;" d="M303.862,213.825c-2.759,0-5.442-1.432-6.92-3.992c-2.204-3.818-0.896-8.7,2.922-10.904   l22.744-13.131c3.817-2.203,8.701-0.897,10.904,2.922c2.204,3.818,0.896,8.7-2.922,10.904l-22.744,13.131   C306.589,213.479,305.216,213.825,303.862,213.825z"/>
</g>
<path style="fill:#0081C6;" d="M100.58,196.588c0.536,0.867,0.94,1.819,1.21,2.801c3.558,12.943,3.093,23.478-0.103,35.403  c-3.181,11.872-7.822,20.795-17.398,30.297c-0.817,0.811-1.749,1.514-2.765,2.056c-24.276,12.934-54.763,3.863-67.821-20.877  c-12.121-22.967-4.382-51.852,17.599-65.68C55.038,165.655,86.068,173.115,100.58,196.588z"/>
<circle style="fill:#F3C74F;" cx="58.004" cy="222.938" r="23.376"/>
<path style="opacity:0.2;enable-background:new    ;" d="M88.647,248.827c-0.817,0.811-1.749,1.514-2.765,2.056  c-24.276,12.934-54.763,3.864-67.821-20.877c-4.665-8.839-6.377-18.554-5.479-27.951c-6.267,13.724-6.336,30.087,1.121,44.214  c13.058,24.741,43.545,33.811,67.821,20.877c1.016-0.542,1.948-1.245,2.765-2.056c9.578-9.501,14.217-18.423,17.398-30.297  c0.749-2.797,1.342-5.516,1.774-8.209C100.359,234.698,95.934,241.597,88.647,248.827z"/>
<path style="fill:#F3C74F;" d="M369.294,459.896c-4.339,0-8.721-1.291-12.539-3.977l-48.906-34.421l-44.303,33.903  c-9.571,7.327-23.264,5.502-30.587-4.066c-7.323-9.569-5.502-23.264,4.067-30.586l57.022-43.639  c7.571-5.794,18.025-6.003,25.818-0.516l62.004,43.639c9.854,6.936,12.22,20.546,5.285,30.401  C382.908,456.669,376.155,459.896,369.294,459.896z"/>
<path style="fill:#593C00;" d="M458.931,73.104h-86.004c-58.743,0-85.352-14.368-176.882-14.368  c-66.519,0-125.854,43.74-142.547,109.742c-3.527,13.948,2.38,28.574,14.604,36.162l0,0c22.324,13.854,49.774,16.688,74.458,7.686  l12.952-4.723c27.908-10.178,51.633-29.36,67.428-54.518l0,0c7.361-11.724,20.9-18.06,34.618-16.2  c11.198,1.519,167.846,34.669,214.676,12.85S513.746,73.104,458.931,73.104z"/>
<g>
	<path style="opacity:0.1;fill:#FFFFFF;enable-background:new    ;" d="M113.574,83.53c-21.28,14.16-38.785,33.851-50.205,57.664   c4.366,1.586,9.076,2.453,13.991,2.453c22.625,0,40.966-18.341,40.966-40.966C118.326,95.761,116.603,89.247,113.574,83.53z"/>
	<path style="opacity:0.1;fill:#FFFFFF;enable-background:new    ;" d="M458.931,73.104h-84.632   c11.224,25.275,36.526,42.912,65.964,42.912c23.137,0,43.715-10.903,56.92-27.836C490.015,79.223,477.238,73.104,458.931,73.104z"/>
</g>
<path style="opacity:0.1;enable-background:new    ;" d="M317.324,105.849c-1.718,11.424-38.081,10.167-73.558-0.629  c-22.294-6.785-27.101-14.135-22.459-22.675c4.898-2.788,38.956,0.671,50.397,4.396S314.253,102.141,317.324,105.849z"/>
<path style="fill:#0081C6;" d="M310.116,75.991c-13.395-21.952-41.76-30.218-64.817-18.829  c-11.318,5.591-19.499,14.762-23.992,25.383c-1.025,2.423,0.634,5.173,3.256,5.405c27.722,2.454,60.72,14.962,87.954,21.421  c2.343,0.556,4.624-1.122,4.807-3.522C318.092,95.761,315.816,85.332,310.116,75.991z"/>
<g>
	<path style="fill:#F3C74F;" d="M287.636,90.409c-6.455-11.181-20.752-15.011-31.932-8.556c-4.073,2.352-7.157,5.752-9.137,9.654   c14.56,3.202,29.707,7.832,44.153,12C290.989,99.084,290.018,94.535,287.636,90.409z"/>
	<path style="fill:#F3C74F;" d="M47.157,459.894c-5.105,0-10.231-1.781-14.372-5.41c-9.061-7.943-9.969-21.728-2.028-30.789   l40.321-46.005c8.193-9.349,13.461-20.795,15.236-33.101c1.72-11.927,12.783-20.201,24.708-18.482   c11.927,1.719,20.202,12.781,18.482,24.708c-2.981,20.683-11.837,39.921-25.608,55.635l-40.321,46.005   C59.26,457.378,53.224,459.894,47.157,459.894z"/>
</g>
<path d="M244.702,199.021c-3.818,2.204-5.126,7.086-2.922,10.904c0.992,1.718,1.256,3.72,0.742,5.637  c-0.513,1.917-1.742,3.519-3.46,4.509c-3.547,2.048-8.098,0.827-10.147-2.719c-2.204-3.818-7.087-5.125-10.905-2.922  c-2.561,1.479-3.993,4.164-3.992,6.922c0.001,1.354,0.346,2.726,1.071,3.982c0.992,1.718,1.256,3.72,0.742,5.637  c-0.513,1.917-1.742,3.518-3.46,4.509c-1.718,0.993-3.721,1.256-5.637,0.742c-1.916-0.513-3.518-1.742-4.509-3.461  c-2.204-3.819-7.088-5.127-10.904-2.922c-3.818,2.203-5.127,7.085-2.923,10.904c3.125,5.411,8.169,9.283,14.204,10.9  c2.016,0.54,4.059,0.807,6.092,0.807c4.053,0,8.054-1.063,11.658-3.144c4.965-2.866,8.633-7.349,10.454-12.731  c5.372,1.065,11.134,0.268,16.237-2.679c5.411-3.125,9.282-8.169,10.9-14.204c1.618-6.036,0.787-12.34-2.337-17.75  C253.401,198.125,248.519,196.817,244.702,199.021z M135.97,251.559l-3.728,2.152c-3.819,2.203-5.127,7.085-2.924,10.903  c1.478,2.562,4.161,3.993,6.92,3.993c1.354,0,2.727-0.345,3.984-1.07l3.728-2.153c3.819-2.203,5.127-7.085,2.924-10.903  C144.67,250.661,139.789,249.353,135.97,251.559z M511.961,106.63c-0.068-2.588-0.371-5.109-0.906-7.518  c-3.64-16.431-19.244-33.99-52.125-33.99h-86.005c-25.44,0-44.46-2.717-66.417-5.874c-17.25-15.613-43.1-19.934-64.745-9.242  c-1.188,0.586-2.344,1.224-3.482,1.886c-13.469-0.762-27.311-1.138-42.238-1.138c-71.125,0-132.834,47.445-150.194,115.422  c-6.635,1.416-12.94,3.97-18.8,7.656C1.538,189.883-7.426,223.338,6.643,249.995c7.272,13.78,19.462,23.881,34.32,28.441  c5.639,1.731,11.401,2.588,17.131,2.588c0.999,0,1.997-0.039,2.993-0.092c3.359,22.637,9.263,44.217,17.25,62.992  c-1.619,10.593-6.194,20.441-13.261,28.506l-40.321,46.005c-10.83,12.356-9.588,31.221,2.768,42.054  c5.436,4.765,12.41,7.388,19.633,7.388c8.59,0,16.763-3.703,22.42-10.159l40.322-46.005c2.868-3.273,5.532-6.691,7.995-10.233  c28.014,26.377,64.997,42.314,103.675,44.59c1.008,3.617,2.702,7.045,5.053,10.116c4.837,6.322,11.847,10.381,19.736,11.431  c1.335,0.178,2.666,0.265,3.99,0.265c6.505,0,12.797-2.121,18.05-6.142l6.726-5.147c5.52,6.981,13.993,11.265,23.333,11.265h70.321  c0.173,0.003,0.344,0.019,0.517,0.019c0.217,0,0.433-0.015,0.65-0.019h64.543c16.422,0,29.782-13.361,29.782-29.782  c0-16.421-13.361-29.782-29.782-29.782h-55.713l-24.278-17.087c28.25-31.502,42.674-71.912,42.113-112.54  c3.386-0.089,6.77-0.326,10.097-0.715c23.291-2.73,42.334-12.4,53.621-27.232c7.391-9.714,15.02-26.147,9.386-49.271  c-0.614-2.518-1.387-5.048-2.288-7.59c29.665-20.764,41.907-59.4,44.17-80.5c0.241-1.825,0.368-3.632,0.378-5.411  c0.012-0.447,0.026-0.898,0.026-1.318h-0.037V106.63z M248.834,64.32c19.305-9.535,43.233-2.584,54.468,15.829v-0.001  c3.784,6.201,5.876,13.119,6.153,20.245c-3.598-0.921-7.293-1.933-11.068-2.997c-0.58-3.845-1.867-7.563-3.839-10.979  c-4.188-7.253-10.95-12.442-19.041-14.61c-8.089-2.169-16.539-1.056-23.795,3.132c-3.43,1.981-6.416,4.581-8.85,7.649  c-3.939-0.773-7.841-1.436-11.678-1.938C235.322,73.664,241.442,67.971,248.834,64.32z M278.753,91.719  c-5.216-1.508-10.459-2.994-15.687-4.384c2.683-0.792,5.536-0.85,8.309-0.109C274.258,88.001,276.79,89.563,278.753,91.719z   M58.66,207.577c1.621,1.398,3.366,2.687,5.233,3.845c2.507,1.556,5.071,2.973,7.677,4.273c3.892,7.283,1.338,16.419-5.865,20.578  c-7.351,4.243-16.785,1.716-21.03-5.635c-4.243-7.35-1.716-16.784,5.635-21.029C52.854,208.142,55.758,207.455,58.66,207.577z   M45.647,263.174c-10.771-3.306-19.609-10.632-24.886-20.632c-10.197-19.319-3.7-43.565,14.79-55.197  c2.994-1.884,6.147-3.35,9.424-4.421c0.553,3.565,1.574,7.03,3.03,10.306c-1.962,0.66-3.866,1.509-5.678,2.555  c-14.975,8.646-20.124,27.862-11.479,42.836c5.803,10.049,16.364,15.675,27.21,15.674c5.315-0.001,10.702-1.352,15.626-4.194  c10.192-5.885,15.826-16.667,15.662-27.675c2.133,0.567,4.282,1.057,6.443,1.469c-0.379,2.786-0.973,5.69-1.816,8.834  c-3.023,11.281-7.315,18.765-15.312,26.698c-0.283,0.282-0.595,0.516-0.894,0.677C67.839,265.394,56.43,266.483,45.647,263.174z   M121.603,349.677c-2.761,19.15-10.959,36.963-23.711,51.513L57.57,447.195c-2.627,2.997-6.422,4.717-10.413,4.717  c-3.35,0-6.587-1.219-9.11-3.43c-5.738-5.03-6.315-13.788-1.286-19.526l40.321-46.005c9.214-10.513,15.138-23.385,17.133-37.223  c0.993-6.886,6.922-11.863,13.685-11.863c0.655,0,1.318,0.047,1.984,0.143c3.658,0.528,6.891,2.448,9.105,5.407  C121.202,342.376,122.131,346.02,121.603,349.677z M298.455,451.894c-4.236,0-8.091-1.894-10.655-5.002l20.245-15.493l29.12,20.495  L298.455,451.894L298.455,451.894z M434.487,424.257c7.619,0,13.818,6.199,13.818,13.818c0,7.619-6.199,13.818-13.818,13.818H395.71  c4.615-8.804,4.415-19.159-0.006-27.637h38.784V424.257z M377.277,426.76c6.238,4.391,7.742,13.041,3.351,19.279  c-2.526,3.589-6.624,5.751-11.008,5.855h-0.843c-2.666-0.099-5.225-0.953-7.428-2.504l-48.906-34.42  c-2.851-2.005-6.676-1.931-9.445,0.189l-44.304,33.903c-2.935,2.246-6.565,3.215-10.231,2.729c-3.663-0.487-6.918-2.371-9.164-5.307  c-2.246-2.935-3.215-6.57-2.728-10.232c0.487-3.663,2.372-6.918,5.307-9.164l57.021-43.639c2.49-1.905,5.447-2.863,8.409-2.863  c2.777,0,5.56,0.842,7.963,2.534L377.277,426.76z M341.343,381.949l-16.881-11.881c-10.702-7.533-24.871-7.249-35.265,0.705  l-57.02,43.639c-5.212,3.988-8.881,9.455-10.598,15.673c-35.806-2.33-69.935-17.609-95.297-42.69  c5.562-11.067,9.332-23.009,11.123-35.438c1.136-7.878-0.864-15.727-5.632-22.102c-4.768-6.374-11.733-10.51-19.611-11.645  c-8.965-1.295-17.584,1.573-23.913,7.128c-5.147-14.653-9.041-30.739-11.477-47.468c2.901-0.998,5.75-2.208,8.511-3.68  c1.682-0.897,3.24-2.053,4.629-3.432c10.065-9.984,15.71-19.805,19.487-33.897c1.072-4.002,1.819-7.726,2.283-11.34  c0.48,0.007,0.959,0.024,1.439,0.024c10.806,0,21.679-1.891,32.174-5.72l12.953-4.723c29.424-10.731,54.8-31.248,71.453-57.773  c5.683-9.05,16.198-13.964,26.785-12.534c1.141,0.154,4.77,0.827,9.366,1.679c18.286,3.389,35.408,6.312,51.401,8.777  c18.425,16.253,33.461,34.011,43.539,51.466C393.384,263.173,385.206,334.259,341.343,381.949z M396.369,191.756  c1.371,1.534,2.626,3.001,3.776,4.403c-9.199,1.368-17.133,2.652-24.439,4.511c-0.362-0.646-0.719-1.294-1.091-1.937  c-7.695-13.328-17.978-26.757-30.267-39.605c16.632,2.18,31.81,3.766,45.561,4.761C387.286,173.384,389.407,183.97,396.369,191.756z   M382.986,215.347c7.046-1.569,15.058-2.746,24.438-4.122c0.838-0.123,1.706-0.251,2.566-0.378c0.982,2.026,1.532,3.587,1.785,4.647  c-4.438,2.616-17.81,4.905-27.528,2.827C383.836,217.325,383.416,216.334,382.986,215.347z M447.622,241.052  c-8.637,11.35-23.828,18.823-42.773,21.042c-3.032,0.354-6.137,0.547-9.229,0.611c-1.039-9.341-2.887-18.632-5.548-27.768  c1.045,0.046,2.1,0.078,3.168,0.078c12.745,0,26.712-3.294,32.36-10.721c6.217-8.166-0.1-23.903-17.329-43.177  c-4.086-4.57-4.575-11.208-1.569-16.28c8.768,0.343,16.846,0.397,24.235,0.162c12.59,14.529,20.215,27.713,23.265,40.229  C458.347,222.241,452.912,234.1,447.622,241.052z M460.626,179.064c-2.863-5.092-6.295-10.263-10.314-15.539  c10.382-1.346,18.802-3.53,25.291-6.554c2.23-1.039,4.332-2.145,6.338-3.296C476.671,163.101,469.688,172.125,460.626,179.064z   M495.672,112.096c-1.723,10.686-9.899,22.524-26.811,30.402c-11.152,5.196-37.517,10.024-99.795,3.533  c-41.112-4.286-81.094-11.695-100.308-15.256c-5.366-0.995-8.605-1.594-10.13-1.801c-16.784-2.279-33.445,5.522-42.451,19.864  c-14.777,23.536-37.294,41.742-63.403,51.264l-12.952,4.723c-22.528,8.215-47.136,5.677-67.513-6.97  c-9.311-5.778-13.761-16.798-11.074-27.422c15.445-61.067,70.88-103.717,134.808-103.717c8.683,0,16.978,0.133,25.048,0.393  c-2.858,3.778-5.268,7.908-7.137,12.324c-1.472,3.477-1.186,7.492,0.765,10.74c1.953,3.251,5.368,5.392,9.138,5.727  c17.543,1.553,37.686,7.426,57.165,13.105c10.398,3.031,20.219,5.895,29.652,8.132c0.909,0.215,1.831,0.321,2.746,0.321  c2.497,0,4.953-0.788,7.012-2.291c2.817-2.058,4.585-5.233,4.85-8.713c0.771-10.129-1.108-20.115-5.439-29.217  c16.297,2.168,32.937,3.851,53.081,3.851h86.005c19.9,0,33.56,8.029,36.539,21.478c0.334,1.507,0.519,3.086,0.551,4.713  C495.995,108.65,495.881,110.268,495.672,112.096z M294.914,159.79l-3.729,2.153c-3.818,2.204-5.126,7.087-2.92,10.905  c1.479,2.56,4.161,3.991,6.92,3.991c1.354,0,2.728-0.345,3.985-1.071l3.729-2.153c3.818-2.204,5.125-7.087,2.92-10.905  C303.615,158.894,298.733,157.587,294.914,159.79z"/>
<g>
</g>
<g>
</g>
<g>
</g>
<g>
</g>
<g>
</g>
<g>
</g>
<g>
</g>
<g>
</g>
<g>
</g>
<g>
</g>
<g>
</g>
<g>
</g>
<g>
</g>
<g>
</g>
<g>
</g>
</svg>
