<?xml version="1.0" encoding="iso-8859-1"?>
<!-- Generator: Adobe Illustrator 19.0.0, SVG Export Plug-In . SVG Version: 6.00 Build 0)  -->
<svg xmlns="http://www.w3.org/2000/svg" xmlns:xlink="http://www.w3.org/1999/xlink" version="1.1" id="Layer_1" x="0px" y="0px" viewBox="0 0 512 512" style="enable-background:new 0 0 512 512;" xml:space="preserve">
<g>
	<polyline style="fill:#E24260;" points="238.028,399.14 324.047,457.933 345.567,438.268 259.548,379.475  "/>
	<polyline style="fill:#E24260;" points="363.057,284.892 363.047,284.903 238.029,399.136 108.217,310.423 141.866,299.042    235.475,363.026 318.208,287.426  "/>
</g>
<path style="fill:#49618C;" d="M504.403,208.3c-58.896,108.933-256.968,74.747-288.114,71.636  c-17.139-1.713-54.071,12.132-87.467,23.635c-27.304,9.405-52.227,17.24-62.038,13.743c-21.811-7.784-59.18-54.507-59.18-91.886  c0-16.845,14.23-53.909,46.804-89.281c39.73-43.135,106.764-83.737,208.603-82.024C448.335,57.236,504.403,208.3,504.403,208.3z"/>
<path style="fill:#3B4773;" d="M128.822,303.571c-27.304,9.405-52.227,17.24-62.038,13.743c-21.811-7.784-59.18-54.507-59.18-91.886  c0-16.845,14.23-53.909,46.804-89.281l154.886,86.545C209.295,222.692,109.068,236.7,128.822,303.571z"/>
<path style="fill:#E24260;" d="M504.403,208.3c-0.568,1.054-1.155,2.098-1.753,3.122c-126.427,11.949-254.272,14.716-381.348,8.301  c-37.287-1.885-74.504-4.561-111.609-8.027C21.044,168.134,79.656,76.38,208.343,57.519c0.01-0.01,0.02-0.01,0.02-0.01  c16.977-2.493,35.179-3.709,54.649-3.385C448.335,57.236,504.403,208.3,504.403,208.3z"/>
<path style="fill:#CE2647;" d="M121.301,219.713v0.01c-37.287-1.885-74.504-4.561-111.609-8.027  C21.044,168.134,79.656,76.38,208.343,57.519C206.701,58.249,86.669,112.301,121.301,219.713z"/>
<path d="M511.525,205.654c-0.595-1.603-15.012-39.721-52.88-78.581c-22.234-22.814-47.979-41.13-76.523-54.437  c-35.608-16.6-75.641-25.387-118.986-26.115C158.466,44.762,93.395,86.744,57.264,122.273C20.07,158.848,0,202.72,0,225.43  c0,24.959,14.271,49.172,22.778,61.383c13.074,18.768,28.955,33.199,41.447,37.659c2.464,0.88,5.366,1.295,8.724,1.294  c8.386,0,19.643-2.601,34-7.003l59.55,40.697c1.312,0.897,2.805,1.327,4.282,1.327c2.426,0,4.811-1.159,6.283-3.313  c2.369-3.466,1.479-8.196-1.987-10.565l-49.869-34.081c4.896-1.658,10.086-3.452,15.534-5.347l90.444,61.82  c1.3,0.889,2.797,1.326,4.288,1.326c1.849,0,3.687-0.672,5.129-1.99l80.612-73.659c6.659-0.082,13.437-0.3,20.28-0.678  l-104.149,95.164l-35.502-24.262c-3.466-2.369-8.197-1.479-10.565,1.986c-2.369,3.466-1.479,8.196,1.987,10.565l126.491,86.454  c1.3,0.889,2.797,1.326,4.287,1.326c1.849,0,3.688-0.673,5.13-1.991l21.519-19.664c1.714-1.567,2.618-3.83,2.455-6.146  c-0.163-2.316-1.376-4.43-3.293-5.741l-78.099-53.378l94.61-86.449c71.817-8.486,120.51-35.473,144.717-80.251  C512.127,209.988,512.287,207.706,511.525,205.654z M234.794,353.352l-76.162-52.059c23.073-7.862,45.913-14.892,56.9-13.792  c2.253,0.225,5.478,0.627,9.561,1.137c14.916,1.861,41.991,5.233,73.798,6.145L234.794,353.352z M333.357,439.129l-9.99,9.13  l-73.129-49.981l9.992-9.13L333.357,439.129z M362.857,277.279c-55.581,6.292-111.853-0.729-135.882-3.727  c-4.186-0.522-7.493-0.934-9.93-1.179c-16.868-1.684-47.185,8.87-79.281,20.048c-25.231,8.786-59.781,20.819-68.425,17.734  c-17.827-6.366-54.136-49.603-54.136-84.725c0-1.64,0.161-3.506,0.476-5.558c79.149,7.186,159.32,10.807,239.337,10.807  c27.059,0,54.111-0.414,81.087-1.241c4.196-0.129,7.493-3.634,7.364-7.831c-0.129-4.196-3.617-7.498-7.831-7.364  c-105.252,3.228-211.493,0.093-315.954-9.283c5.497-15.317,16.167-35.052,32.621-54.864c25.945-16.668,55.411-29.69,87.613-38.696  c37.907-10.601,79.776-15.663,124.439-15.044c40.164,0.559,77.963,6.063,112.348,16.355c4.022,1.204,8.258-1.08,9.461-5.102  c1.204-4.022-1.079-8.258-5.102-9.462c-35.731-10.696-74.926-16.413-116.494-16.993c-46.144-0.643-89.438,4.609-128.746,15.603  c-14.75,4.125-28.958,9.064-42.562,14.779c35.423-26.088,88.336-49.868,163.553-49.868c2.002,0,4.033,0.017,6.066,0.052  c41.04,0.689,78.865,8.937,112.429,24.513c26.827,12.449,51.045,29.6,71.984,50.976c26.962,27.522,41.566,55.162,47.206,67.321  c-41.934,3.841-84.497,6.716-126.668,8.526c-4.195,0.18-7.449,3.727-7.269,7.921c0.175,4.083,3.54,7.275,7.588,7.275  c0.109,0,0.221-0.002,0.331-0.007c39.556-1.699,79.459-4.317,118.87-7.795C462.917,251.585,421.16,270.678,362.857,277.279z"/>
<path d="M464.717,194.518c2.474,0,4.901-1.207,6.361-3.431c2.304-3.51,1.328-8.222-2.182-10.526  c-56.416-37.042-125.161-56.383-204.328-57.487c-46.144-0.645-89.438,4.609-128.746,15.603c-4.043,1.131-6.403,5.325-5.273,9.368  c1.13,4.043,5.325,6.403,9.368,5.273c37.906-10.601,79.777-15.665,124.439-15.044c76.227,1.062,142.238,19.565,196.196,54.994  C461.838,194.115,463.285,194.518,464.717,194.518z"/>
<path d="M110.778,146.644c-24.367,8.727-47.13,19.895-67.657,33.193c-3.524,2.282-4.529,6.989-2.247,10.513  c1.455,2.246,3.896,3.469,6.386,3.469c1.416,0,2.849-0.395,4.126-1.223c19.545-12.661,41.251-23.307,64.517-31.64  c3.953-1.416,6.009-5.767,4.593-9.72C119.082,147.285,114.732,145.228,110.778,146.644z"/>
<g>
</g>
<g>
</g>
<g>
</g>
<g>
</g>
<g>
</g>
<g>
</g>
<g>
</g>
<g>
</g>
<g>
</g>
<g>
</g>
<g>
</g>
<g>
</g>
<g>
</g>
<g>
</g>
<g>
</g>
</svg>
