<?xml version="1.0" encoding="iso-8859-1"?>
<!-- Generator: Adobe Illustrator 19.0.0, SVG Export Plug-In . SVG Version: 6.00 Build 0)  -->
<svg xmlns="http://www.w3.org/2000/svg" xmlns:xlink="http://www.w3.org/1999/xlink" version="1.1" id="Layer_1" x="0px" y="0px" viewBox="0 0 512.001 512.001" style="enable-background:new 0 0 512.001 512.001;" xml:space="preserve">
<path style="fill:#E6E6E6;" d="M460.876,409.369c0,52.468-91.725,94.994-204.87,94.994c-113.156,0-204.88-42.526-204.88-94.994  c0-8.495,2.404-16.736,6.916-24.579h0.01c15.931-27.675,58.141-50.359,113.482-61.992h168.944  C411.484,337.721,460.876,370.866,460.876,409.369z"/>
<path style="fill:#CCCCCC;" d="M256.006,407.271c0,0-141.615-47.945-197.954-22.48c15.931-27.675,58.141-50.359,113.482-61.992  h40.703L256.006,407.271z"/>
<path style="fill:#E24260;" d="M373.075,56.052L373.075,56.052c-64.657-64.657-169.488-64.657-234.146,0l0,0  c-64.657,64.657-64.657,169.488,0,234.145l117.072,117.072l117.072-117.072C437.733,225.54,437.733,120.71,373.075,56.052z"/>
<circle style="fill:#E6E6E6;" cx="256.004" cy="173.121" r="104.915"/>
<path style="fill:#49618C;" d="M328.805,175.327c0,28.51-16.389,53.191-40.265,65.139v32.402v0.01  c-21.105,6.876-43.963,6.876-65.068,0v-0.01v-32.402c-23.876-11.948-40.275-36.629-40.275-65.139  c0-28.959,16.898-53.965,41.375-65.699v65.333l62.858-0.01l0.01-65.323C311.907,121.362,328.805,146.368,328.805,175.327z"/>
<path d="M256.003,285.625c28.822,0,57.645-10.971,79.588-32.914c17.23-17.231,28.211-39.045,31.756-63.086  c3.475-23.564-0.445-47.149-11.336-68.203c-1.938-3.747-6.544-5.213-10.295-3.276c-3.747,1.938-5.213,6.548-3.275,10.295  c19.538,37.771,12.443,83.368-17.654,113.465c-8.514,8.514-18.233,15.101-28.606,19.792v-16.66  c24.957-14.358,40.265-40.646,40.265-69.704c0-30.78-17.938-59.272-45.701-72.588c-2.365-1.135-5.151-0.976-7.373,0.423  c-2.222,1.399-3.57,3.84-3.57,6.465l-0.009,57.685l-47.58,0.007v-57.692c0-2.625-1.348-5.066-3.569-6.465  c-2.221-1.4-5.005-1.558-7.373-0.425c-27.77,13.313-45.713,41.805-45.713,72.588c0,29.054,15.313,55.343,40.275,69.703v16.663  c-10.376-4.692-20.097-11.279-28.613-19.795c-18.373-18.373-28.492-42.801-28.492-68.784c0-25.983,10.119-50.411,28.492-68.784  c37.926-37.926,99.639-37.926,137.566,0c2.984,2.983,7.821,2.983,10.804,0s2.983-7.821,0-10.803  c-43.885-43.884-115.291-43.884-159.176,0c-21.258,21.258-32.966,49.523-32.966,79.587s11.708,58.329,32.966,79.587  C198.358,274.655,227.181,285.625,256.003,285.625z M226.892,233.644c-22.239-11.129-36.054-33.471-36.054-58.307  c0-20.619,9.937-39.971,26.096-52.152v51.785c0,2.026,0.805,3.969,2.238,5.403c1.432,1.433,3.376,2.238,5.403,2.237l62.858-0.01  c4.219,0,7.637-3.419,7.638-7.638l0.008-51.775c16.153,12.183,26.088,31.534,26.088,52.151c0,24.838-13.812,47.18-36.045,58.307  c-2.587,1.295-4.221,3.939-4.221,6.832v26.634c-16.299,4.288-33.49,4.288-49.789,0.002v-26.636  C231.112,237.583,229.478,234.939,226.892,233.644z"/>
<path d="M58.764,409.366c0-20.247,16.496-36.128,30.336-45.884c19.757-13.929,47.357-25.064,79.985-32.326l81.515,81.515  c1.492,1.491,3.448,2.238,5.403,2.238c1.955,0,3.91-0.746,5.403-2.238l117.073-117.073c67.532-67.533,67.532-177.416,0-244.949  c-67.534-67.533-177.417-67.533-244.951,0c-67.532,67.533-67.532,177.416,0,244.949l22.855,22.855  c-30.549,7.7-56.656,18.841-76.087,32.541c-24.083,16.978-36.811,37.162-36.811,58.372c0,16.99,8.385,33.69,24.251,48.296  c1.468,1.352,3.324,2.019,5.172,2.019c2.061,0,4.116-0.829,5.623-2.465c2.858-3.104,2.658-7.937-0.446-10.795  C65.265,434.619,58.764,422.153,58.764,409.366z M144.332,61.454c30.788-30.788,71.229-46.181,111.671-46.181  s80.883,15.394,111.671,46.181c61.575,61.575,61.575,161.766,0,223.341L256.003,396.467L144.332,284.795  C82.757,223.22,82.757,123.029,144.332,61.454z"/>
<path d="M370.859,322.694c-4.033-1.23-8.305,1.037-9.538,5.072c-1.234,4.035,1.038,8.306,5.072,9.539  c26.804,8.195,49.032,19.312,64.278,32.151c10.294,8.668,22.565,22.629,22.565,39.911c0,21.907-20.259,43.865-55.58,60.242  c-37.708,17.484-88.014,27.113-141.65,27.113c-61.81,0-119.06-12.811-157.067-35.147c-3.634-2.135-8.319-0.922-10.457,2.717  c-2.138,3.637-0.922,8.319,2.716,10.457c40.286,23.675,100.356,37.253,164.809,37.253c55.81,0,108.398-10.132,148.077-28.531  c41.55-19.265,64.432-45.582,64.432-74.103C468.516,373.789,432.008,341.388,370.859,322.694z"/>
<g>
</g>
<g>
</g>
<g>
</g>
<g>
</g>
<g>
</g>
<g>
</g>
<g>
</g>
<g>
</g>
<g>
</g>
<g>
</g>
<g>
</g>
<g>
</g>
<g>
</g>
<g>
</g>
<g>
</g>
</svg>
