<?xml version="1.0" encoding="iso-8859-1"?>
<!-- Generator: Adobe Illustrator 19.0.0, SVG Export Plug-In . SVG Version: 6.00 Build 0)  -->
<svg xmlns="http://www.w3.org/2000/svg" xmlns:xlink="http://www.w3.org/1999/xlink" version="1.1" id="Capa_1" x="0px" y="0px" viewBox="0 0 512 512" style="enable-background:new 0 0 512 512;" xml:space="preserve">
<g>
	<path style="fill:#F3C74F;" d="M370.395,310.864c-10.281,0-19.443-7.286-21.446-17.757c-2.269-11.858,5.504-23.31,17.363-25.578   c45.766-8.756,69.009-28.866,77.721-67.24c2.673-11.772,14.383-19.152,26.156-16.479c11.773,2.673,19.151,14.383,16.479,26.157   c-12.622,55.606-49.304,88.479-112.14,100.501C373.138,310.735,371.757,310.864,370.395,310.864z"/>
	<path style="fill:#F3C74F;" d="M124.869,310.865c-1.362,0-2.745-0.128-4.133-0.394C57.9,298.448,21.218,265.572,8.596,209.968   c-2.673-11.774,4.706-23.485,16.479-26.157c11.774-2.67,23.485,4.706,26.156,16.479c8.711,38.375,31.954,58.485,77.721,67.241   c11.858,2.269,19.631,13.721,17.362,25.579C144.311,303.579,135.149,310.865,124.869,310.865z"/>
</g>
<path style="opacity:0.2;enable-background:new    ;" d="M128.953,267.53c-22.57-4.318-39.653-11.405-52.227-22.075  c-1.003,7.805-1.534,15.439-1.534,22.793c0,9.901,0.927,19.585,2.682,28.979c12.624,5.779,26.894,10.188,42.86,13.242  c1.388,0.266,2.769,0.394,4.133,0.394c10.28,0,19.443-7.286,21.446-17.756C148.584,281.251,140.811,269.799,128.953,267.53z"/>
<path style="fill:#F3C74F;" d="M294.631,493.534c-12.073,0-21.86-9.787-21.86-21.86v-82.779c0-12.073,9.787-21.86,21.86-21.86  c12.073,0,21.861,9.787,21.861,21.86v82.779C316.491,483.747,306.704,493.534,294.631,493.534z"/>
<path style="opacity:0.2;enable-background:new    ;" d="M294.631,367.035c-12.073,0-21.86,9.787-21.86,21.861v73.512  c6.995,2.62,14.862,1.831,21.219-2.239l19.699-12.611c0.893-0.571,1.833-1.033,2.802-1.388v-57.275  C316.491,376.821,306.704,367.035,294.631,367.035z"/>
<path style="fill:#F3C74F;" d="M200.633,493.534c-12.073,0-21.86-9.787-21.86-21.86v-82.779c0-12.073,9.787-21.86,21.86-21.86  s21.86,9.787,21.86,21.86v82.779C222.493,483.747,212.705,493.534,200.633,493.534z"/>
<path style="opacity:0.2;enable-background:new    ;" d="M200.633,367.035c-12.073,0-21.86,9.787-21.86,21.861V462.7l2.104,0.862  c5.362,2.196,11.385,2.111,16.684-0.233l24.932-11.034v-63.398C222.493,376.821,212.705,367.035,200.633,367.035z"/>
<circle style="fill:#0081C6;" cx="368.72" cy="121.99" r="50.207"/>
<circle style="fill:#F3C74F;" cx="368.72" cy="121.99" r="23.441"/>
<circle style="fill:#0081C6;" cx="126.542" cy="121.99" r="50.207"/>
<circle style="fill:#F3C74F;" cx="126.542" cy="121.99" r="23.441"/>
<path style="opacity:0.2;enable-background:new    ;" d="M156.217,81.501c-23.606,21.335-43.628,50.704-57.849,82.051  c8.032,5.455,17.728,8.644,28.169,8.644c27.729,0,50.207-22.479,50.207-50.207C176.745,105.367,168.661,90.638,156.217,81.501z"/>
<path style="fill:#40BAB3;" d="M405.384,259.667c0-86.867-72.419-212.008-157.753-212.008S89.879,172.8,89.879,259.667  s70.629,157.286,157.753,157.286S405.384,346.534,405.384,259.667z"/>
<path style="fill:#FFFFFF;" d="M92.536,288.514c13.589,73.088,77.855,128.44,155.096,128.44s141.506-55.351,155.096-128.44H92.536z"/>
<path style="fill:#0081C6;" d="M120.463,352.733c28.712,38.941,74.976,64.22,127.17,64.22s98.458-25.277,127.17-64.22H120.463z"/>
<path style="opacity:0.2;enable-background:new    ;" d="M264.36,400.226c-87.125,0-157.753-70.42-157.753-157.286  c0-52.297,26.254-118.454,65.765-162.837c-48.66,42.955-82.494,120.195-82.494,179.565c0,86.867,70.628,157.286,157.753,157.286  c47.902,0,90.812-21.292,119.743-54.895C339.736,385.841,303.733,400.226,264.36,400.226z"/>
<g>
	<path style="fill:#F0B0B7;" d="M168.779,233.029h-26.336c-4.446,0-8.05-3.603-8.05-8.05c0-4.447,3.604-8.05,8.05-8.05h26.336   c4.446,0,8.05,3.603,8.05,8.05C176.829,229.425,173.225,233.029,168.779,233.029z"/>
	<path style="fill:#F0B0B7;" d="M352.819,233.029h-26.336c-4.446,0-8.05-3.603-8.05-8.05c0-4.447,3.604-8.05,8.05-8.05h26.336   c4.446,0,8.05,3.603,8.05,8.05C360.87,229.425,357.265,233.029,352.819,233.029z"/>
</g>
<path style="fill:#F1A21E;" d="M405.384,259.667v180.309c0,6.071-7.044,9.424-11.756,5.598l-13.871-11.265  c-2.828-2.297-6.927-2.123-9.55,0.407l-13.17,12.697c-2.457,2.369-6.237,2.691-9.059,0.772l-18.499-12.58  c-4.744-3.227-10.956-3.312-15.788-0.219l-19.699,12.61c-6.924,4.433-15.644,4.986-23.073,1.465l-24.292-11.514  c-5.893-2.793-12.71-2.882-18.674-0.243l-30.39,13.451c-5.298,2.344-11.322,2.429-16.684,0.233l-32.515-13.319  c-3.405-1.394-7.231-1.337-10.593,0.159l-19.617,8.733c-4.769,2.123-10.144-1.367-10.144-6.587V339.145  c0-3.657,2.67-6.771,6.287-7.309c44.534-6.615,205.509-17.66,283.258-126.174C401.929,216.709,405.384,243.625,405.384,259.667z"/>
<path style="fill:#593C00;" d="M221.651,400.888c-22.738,0-41.17,18.432-41.17,41.17c0,3.303,0.4,6.511,1.135,9.59  c5.173,1.899,10.887,1.745,15.944-0.493l30.39-13.451c5.964-2.639,12.781-2.551,18.674,0.242l16.039,7.602  c0.097-1.152,0.158-2.313,0.158-3.49C262.821,419.32,244.389,400.888,221.651,400.888z M108.007,364.557v75.817  c0,5.22,5.374,8.711,10.144,6.587l19.617-8.733c3.019-1.344,6.412-1.517,9.539-0.529c2.731-6.402,4.244-13.445,4.244-20.845  C151.552,390.774,132.775,369.095,108.007,364.557z M176.095,322.95c-0.426,2.711-0.652,5.488-0.652,8.32  c0,29.373,23.811,53.184,53.184,53.184c29.372,0,53.184-23.811,53.184-53.184c0-12.668-4.436-24.296-11.832-33.432  C236.917,310.462,203.935,318.043,176.095,322.95z M361.558,341.329c0,22.738,18.432,41.17,41.17,41.17  c0.893,0,1.778-0.039,2.657-0.094v-82.151c-0.879-0.056-1.764-0.094-2.657-0.094C379.99,300.159,361.558,318.591,361.558,341.329z   M397.551,205.664c-16.676,23.275-37.188,42.054-59.551,57.279c9.184,15.589,26.132,26.055,45.534,26.055  c7.795,0,15.188-1.702,21.85-4.734v-24.599C405.384,243.625,401.929,216.709,397.551,205.664z M339.652,375.339  c-7.673,0-13.893,6.22-13.893,13.893s6.22,13.893,13.893,13.893c7.673,0,13.893-6.22,13.893-13.893  C353.545,381.559,347.324,375.339,339.652,375.339z M333.572,314.052c0-7.673-6.22-13.893-13.893-13.893s-13.893,6.22-13.893,13.893  c0,7.673,6.22,13.893,13.893,13.893C327.352,327.945,333.572,321.724,333.572,314.052z"/>
<path style="fill:#A27B5A;" d="M469.721,26.664L469.721,26.664c-20.788,0-36.778,18.381-33.898,38.968l17.518,125.247  c1.143,8.17,8.131,14.248,16.38,14.248l0,0c8.249,0,15.237-6.079,16.38-14.248l17.518-125.247  C506.498,45.043,490.51,26.664,469.721,26.664z"/>
<g style="opacity:0.2;">
	<path d="M458.738,180.005l-14.761-6.424c1.741-4.036,5.003-6.793,8.158-9.461c4.236-3.581,8.237-6.964,9.743-13.506   c1.304-5.667-8.077-10.513-16.972-14.609c-1.51-0.696-2.938-1.352-4.174-1.984l7.313-14.344c0.95,0.484,2.176,1.049,3.596,1.702   c9.828,4.526,30.278,13.943,25.929,32.845c-2.708,11.766-10.127,18.04-15.038,22.192   C461.094,177.628,459.129,179.29,458.738,180.005z"/>
	<path d="M490.941,135.767c-13.528-7.384-49.462-26.996-36.875-66.433c4.539-14.22,18.037-23.933,26.969-30.36   c2.532-1.822,5.999-4.316,6.781-5.299c-0.001,0.002-0.169,0.213-0.352,0.617l14.67,6.638c-1.81,4.001-5.956,6.983-11.695,11.113   c-7.644,5.501-18.112,13.034-21.034,22.187c-7.511,23.532,9.62,36.691,29.25,47.405L490.941,135.767z"/>
	<path d="M497.173,114.464c-6.043-0.557-14.902-7.394-19.644-13.409c-4.712-5.978-6.743-12.315-5.871-18.325   c2.659-18.345,20.267-26.971,26.895-30.218c0.605-0.296,1.107-0.538,1.464-0.734l7.735,14.122   c-0.518,0.284-1.239,0.642-2.116,1.071c-4.969,2.434-16.604,8.134-18.044,18.069c-0.669,4.609,8.342,12.373,11.826,13.528   c-0.003-0.001-0.283-0.092-0.77-0.137L497.173,114.464z"/>
</g>
<path d="M511.592,66.747c1.695-12.122-1.94-24.369-9.972-33.604c-8.033-9.235-19.659-14.53-31.899-14.53s-23.867,5.296-31.899,14.53  c-8.032,9.235-11.667,21.483-9.972,33.604l16.391,117.193c-3.989,3.969-6.797,8.997-8.061,14.567  c-4.215,18.567-11.758,31.845-23.851,41.647c-1.402-14.035-4.022-28.986-7.18-37.153l0.023-0.006  c-2.664-9.713-5.947-19.501-9.785-29.199c19.19-9.869,31.595-29.748,31.595-51.806c0-32.123-26.134-58.257-58.257-58.257  c-13.611,0-26.765,4.824-37.151,13.413c-21.951-20.342-47.109-34.205-73.928-37.007c2.617-6.118,7.612-12.986,13.567-13.674  c4.417-0.51,7.583-4.503,7.074-8.921c-0.51-4.416-4.5-7.587-8.921-7.074c-15.534,1.793-25.373,17.413-28.607,29.404  c-19.697,1.401-39.302,8.802-58.378,22.091c-6.334,4.413-12.59,9.506-18.7,15.173c-10.385-8.586-23.537-13.408-37.145-13.408  c-32.123,0-58.257,26.135-58.257,58.257c0,22.066,12.414,41.95,31.613,51.816c-8.79,22.26-14.658,45.034-16.961,66.348  c-12.093-9.802-19.637-23.081-23.85-41.646c-3.65-16.078-19.699-26.195-35.79-22.547c-16.083,3.651-26.197,19.706-22.547,35.79  c5.74,25.29,16.47,46.527,31.889,63.122c14.591,15.702,33.846,27.729,57.27,35.804c2.79,8.604,6.295,16.969,10.469,25.001  c-0.263,1.122-0.416,2.281-0.416,3.47v101.228c0,5.188,2.598,9.972,6.949,12.798c4.35,2.826,9.779,3.255,14.519,1.143l19.616-8.733  c1.347-0.601,2.904-0.624,4.268-0.065l25.412,10.41v15.747c0,16.493,13.417,29.911,29.91,29.911s29.911-13.418,29.911-29.911V445.36  l0.667-0.295c3.824-1.693,8.186-1.637,11.967,0.156l21.544,10.211v16.241c0,16.493,13.418,29.911,29.91,29.911  c16.493,0,29.911-13.418,29.911-29.911v-29.648c0.136,0.078,0.278,0.147,0.409,0.236l18.498,12.579  c5.938,4.04,14.001,3.352,19.175-1.633l12.635-12.182l13.295,10.797c4.613,3.746,10.813,4.488,16.18,1.932s8.701-7.835,8.701-13.779  V307.672c20.858-8.357,38.103-20.153,51.304-35.132c14.284-16.209,24.303-36.662,29.78-60.79c1.271-5.6,0.866-11.44-1.07-16.796  c0.261-0.966,0.485-1.947,0.627-2.959L511.592,66.747z M16.447,208.186c-1.685-7.426,2.985-14.839,10.409-16.525  s14.841,2.985,16.526,10.409c5.976,26.324,18.25,44.566,38.455,57.01c-0.001,0.195-0.008,0.393-0.008,0.587  c0,10.724,1.065,21.403,3.121,31.871C48.073,275.872,25.595,248.487,16.447,208.186z M368.726,79.832  c23.245,0,42.156,18.911,42.156,42.156c0,15.571-8.541,29.641-21.846,36.95c-1.487-3.233-3.037-6.444-4.642-9.63  c9.555-5.487,15.822-15.785,15.822-27.32c0-17.364-14.127-31.491-31.491-31.491c-6.805,0-13.322,2.214-18.665,6.147  c-2.305-2.748-4.655-5.431-7.056-8.034C350.328,82.978,359.379,79.832,368.726,79.832z M384.116,121.989  c0,5.489-2.902,10.402-7.36,13.132c-5.143-8.952-10.745-17.606-16.759-25.804c2.535-1.746,5.571-2.718,8.729-2.718  C377.212,106.599,384.116,113.502,384.116,121.989z M84.381,121.989c0-23.245,18.911-42.156,42.156-42.156  c9.345,0,18.394,3.144,25.716,8.775c-2.39,2.59-4.749,5.264-7.069,8.026c-5.34-3.925-11.85-6.134-18.648-6.134  c-17.364,0-31.49,14.127-31.49,31.491c0,11.536,6.268,21.834,15.824,27.321c-1.603,3.187-3.148,6.401-4.633,9.636  C92.927,151.638,84.381,137.564,84.381,121.989z M135.247,109.304c-1.741,2.371-3.46,4.782-5.142,7.245  c-4.092,5.993-7.961,12.203-11.609,18.565c-4.452-2.732-7.351-7.64-7.351-13.126c0-8.486,6.904-15.39,15.389-15.39  C129.688,106.599,132.716,107.566,135.247,109.304z M113.112,323.875c-0.198,0.029-0.387,0.077-0.583,0.114  c-9.562-19.962-14.6-42.038-14.6-64.322c0-41.593,17.424-92.954,45.474-134.039c30.335-44.435,68.324-69.918,104.228-69.918  c20.538,0,52.243,8.192,86.649,47.216c23.992,27.214,43.707,63.918,54.441,101.151c-69.536,93.357-203.513,110.498-261.089,117.858  C121.992,322.657,117.119,323.28,113.112,323.875z M214.442,471.674c0,7.616-6.195,13.81-13.81,13.81  c-7.615,0-13.809-6.195-13.809-13.81V460.93c0.705,0.05,1.411,0.085,2.119,0.085c4.06,0,8.119-0.834,11.877-2.498l13.623-6.029  V471.674z M308.441,471.674c0,7.616-6.196,13.81-13.81,13.81c-7.615,0-13.809-6.195-13.809-13.81v-11.85  c6.094,0.064,12.165-1.627,17.509-5.048l10.11-6.471L308.441,471.674L308.441,471.674z M397.334,438.212l-12.503-10.154  c-5.98-4.853-14.669-4.482-20.212,0.862l-12.679,12.224l-17.934-12.196c-7.421-5.046-17.1-5.18-24.656-0.341l-19.699,12.61  c-4.618,2.956-10.331,3.319-15.285,0.969l-24.293-11.514c-8.017-3.799-17.268-3.917-25.379-0.33l-30.391,13.451  c-3.277,1.45-7.058,1.502-10.374,0.145l-32.517-13.319c-2.603-1.066-5.38-1.597-8.157-1.597c-2.995,0-5.99,0.618-8.761,1.853  l-18.437,8.208v-99.366c3.744-0.547,8.339-1.135,13.618-1.81c29.656-3.791,79.29-10.136,131.205-28.183  c57.056-19.833,101.691-48.761,132.94-86.114c2.031,11.263,3.512,25.467,3.512,36.057v178.544H397.334z M413.434,290.184v-30.516  c0-0.192-0.003-0.393-0.004-0.587c19.515-12.02,31.607-29.474,37.796-54.369c4.55,5.197,11.205,8.467,18.495,8.467  c2.877,0,5.651-0.523,8.244-1.457C468.594,249.027,447.409,274.811,413.434,290.184z M478.129,189.764  c-0.583,4.17-4.197,7.313-8.407,7.313c-4.21,0-7.825-3.144-8.408-7.313L443.796,64.516c-1.05-7.504,1.2-15.089,6.173-20.805  c4.974-5.718,12.172-8.997,19.751-8.997c7.578,0,14.777,3.279,19.75,8.997c4.973,5.717,7.224,13.301,6.174,20.805L478.129,189.764z   M278.536,197.002c-4.446,0-8.05,3.603-8.05,8.05c0,4.081-3.32,7.402-7.402,7.402c-4.081,0-7.402-3.321-7.402-7.402  c0-4.447-3.604-8.05-8.05-8.05s-8.05,3.603-8.05,8.05c0,4.081-3.32,7.402-7.401,7.402s-7.402-3.321-7.402-7.402  c0-4.447-3.604-8.05-8.05-8.05c-4.446,0-8.05,3.603-8.05,8.05c0,12.959,10.543,23.503,23.503,23.503  c5.91,0,11.318-2.193,15.451-5.807c4.135,3.614,9.542,5.807,15.453,5.807c12.959,0,23.503-10.543,23.503-23.503  C286.587,200.606,282.982,197.002,278.536,197.002z M142.445,184.82h5.266c-0.096,0.496-0.149,1.007-0.149,1.531v4.318  c0,4.447,3.604,8.05,8.05,8.05c4.446,0,8.05-3.603,8.05-8.05v-4.318c0-0.524-0.054-1.035-0.149-1.531h168.239  c-0.096,0.496-0.149,1.007-0.149,1.531v4.318c0,4.447,3.604,8.05,8.05,8.05c4.446,0,8.05-3.603,8.05-8.05v-4.318  c0-0.524-0.054-1.035-0.149-1.531h5.267c4.446,0,8.05-3.603,8.05-8.05c0-4.447-3.604-8.05-8.05-8.05H142.445  c-4.446,0-8.05,3.603-8.05,8.05C134.394,181.216,137.999,184.82,142.445,184.82z M188.452,152.645H306.81  c4.446,0,8.05-3.603,8.05-8.05c0-4.447-3.604-8.05-8.05-8.05H188.452c-4.446,0-8.05,3.603-8.05,8.05  C180.402,149.042,184.006,152.645,188.452,152.645z"/>
<g>
</g>
<g>
</g>
<g>
</g>
<g>
</g>
<g>
</g>
<g>
</g>
<g>
</g>
<g>
</g>
<g>
</g>
<g>
</g>
<g>
</g>
<g>
</g>
<g>
</g>
<g>
</g>
<g>
</g>
</svg>
