<?xml version="1.0" encoding="iso-8859-1"?>
<!-- Generator: Adobe Illustrator 19.0.0, SVG Export Plug-In . SVG Version: 6.00 Build 0)  -->
<svg xmlns="http://www.w3.org/2000/svg" xmlns:xlink="http://www.w3.org/1999/xlink" version="1.1" id="Layer_1" x="0px" y="0px" viewBox="0 0 512 512" style="enable-background:new 0 0 512 512;" xml:space="preserve">
<polygon style="fill:#E6E6E6;" points="331.465,432.544 261.143,432.544 219.94,307.89 212.113,284.206 202.38,223.709   238.352,211.543 266.669,236.453 282.151,283.304 "/>
<path style="fill:#CCCCCC;" d="M282.151,283.304c-8.506,2.606-16.85,5.809-24.951,9.581l-10.321,4.806  c-8.831,4.116-17.834,7.503-26.938,10.199l-7.827-23.684l-9.733-60.497l35.972-12.166l28.317,24.911L282.151,283.304z"/>
<path style="fill:#49618C;" d="M322.776,102.052v84.113c0,27.78-22.518,50.288-50.288,50.288h-5.82h-39.226l-34.806-11.183  l-7.604-23.025"/>
<path style="fill:#52BED3;" d="M504.399,162.249H338.937c-28.236,0-56.137,6.185-81.737,18.108l-10.321,4.806  c-84.515,39.358-185.08,12.896-239.271-62.971l40.818-34.38c6.408-5.394,14.529-8.354,22.903-8.354h338.457  c39.105,0,73.971,24.617,87.04,61.47L504.399,162.249z"/>
<path style="fill:#2DADC1;" d="M246.878,185.162c-84.515,39.358-185.08,12.896-239.271-62.971l40.818-34.38  c6.408-5.394,14.529-8.354,22.903-8.354h37.766C109.095,79.457,104.857,189.968,246.878,185.162z"/>
<circle style="fill:#EDD154;" cx="202.377" cy="254.734" r="31.028"/>
<path d="M511.562,159.708l-7.566-21.325c-14.122-39.797-51.982-66.536-94.211-66.536h-77.654c-4.2,0-7.604,3.405-7.604,7.604  s3.404,7.604,7.604,7.604h77.654c35.803,0,67.905,22.671,79.878,56.413l3.966,11.177H338.937c-29.15,0-58.525,6.506-84.949,18.812  l-10.317,4.806c-79.037,36.81-172.784,13.651-225.698-54.869L53.32,93.629c5.034-4.239,11.431-6.574,18.012-6.574h235.452  c4.2,0,7.604-3.405,7.604-7.604c0-4.199-3.404-7.604-7.604-7.604H71.332c-10.16,0-20.036,3.604-27.808,10.149L2.706,116.368  c-3.032,2.554-3.594,7.01-1.29,10.236c38.792,54.308,100.502,84.263,163.86,84.26c4.8,0,9.609-0.189,14.419-0.534l3.581,10.844  c-11.655,6.659-19.533,19.203-19.533,33.56c0,21.301,17.33,38.632,38.632,38.632c1.579,0,3.132-0.106,4.662-0.291l21.085,63.791  c1.056,3.196,4.028,5.219,7.219,5.219c0.791,0,1.596-0.125,2.387-0.386c3.988-1.318,6.151-5.619,4.834-9.606l-21.087-63.799  c11.655-6.659,19.534-19.203,19.534-33.56c0-3.705-0.535-7.285-1.513-10.679h21.681l63.071,190.878  c1.055,3.196,4.028,5.22,7.219,5.22c0.79,0,1.595-0.125,2.387-0.386c3.988-1.317,6.151-5.618,4.834-9.605l-61.562-186.308  c29.76-2.371,53.255-27.33,53.255-57.689V170.07c2.852-0.134,5.706-0.216,8.557-0.216h165.457c2.471,0,4.786-1.2,6.211-3.217  C512.032,164.62,512.388,162.036,511.562,159.708z M202.375,278.159c-12.916,0-23.424-10.508-23.424-23.424  c0-12.917,10.508-23.424,23.424-23.424c12.917,0,23.424,10.508,23.424,23.424C225.799,267.652,215.292,278.159,202.375,278.159z   M315.172,186.166c0,23.536-19.148,42.684-42.684,42.684h-41.465c-7.075-7.822-17.298-12.745-28.65-12.745  c-1.579,0-3.132,0.106-4.662,0.291l-2.57-7.783c18.645-2.808,37.145-8.269,54.948-16.561l10.318-4.806  c17.239-8.03,35.838-13.373,54.763-15.831v14.753H315.172z"/>
<path d="M252.373,381.779c-1.319-3.989-5.622-6.152-9.606-4.834c-3.988,1.318-6.151,5.619-4.834,9.606l15.991,48.378  c1.056,3.196,4.028,5.219,7.219,5.219c0.79,0,1.595-0.125,2.387-0.386c3.988-1.318,6.151-5.619,4.834-9.606L252.373,381.779z"/>
<g>
</g>
<g>
</g>
<g>
</g>
<g>
</g>
<g>
</g>
<g>
</g>
<g>
</g>
<g>
</g>
<g>
</g>
<g>
</g>
<g>
</g>
<g>
</g>
<g>
</g>
<g>
</g>
<g>
</g>
</svg>
