<?xml version="1.0" encoding="iso-8859-1"?>
<!-- Generator: Adobe Illustrator 19.0.0, SVG Export Plug-In . SVG Version: 6.00 Build 0)  -->
<svg xmlns="http://www.w3.org/2000/svg" xmlns:xlink="http://www.w3.org/1999/xlink" version="1.1" id="Capa_1" x="0px" y="0px" viewBox="0 0 512.001 512.001" style="enable-background:new 0 0 512.001 512.001;" xml:space="preserve">
<g>
	<path style="fill:#95A5A5;" d="M167.729,485.509H71.687c-3.443,15.536-11.211,26.482-20.215,26.482   c-12.182,0-22.069-19.773-22.069-44.137s9.887-44.137,22.069-44.137c9.004,0,16.772,10.946,20.215,26.482h51.023"/>
	<path style="fill:#95A5A5;" d="M389.298,450.199h51.023c3.443-15.536,11.211-26.482,20.215-26.482   c12.182,0,22.069,19.773,22.069,44.137s-9.887,44.137-22.069,44.137c-9.004,0-16.772-10.946-20.215-26.482h-96.043"/>
</g>
<g>
	<path style="fill:#2C3E50;" d="M84.398,259.527c-10.39,30.287-17.558,61.598-21.362,93.394   c-26.738-1.73-47.006-24.814-45.276-51.552c1.651-25.538,22.863-45.4,48.454-45.373C72.446,255.969,78.625,257.17,84.398,259.527z"/>
	<path style="fill:#2C3E50;" d="M494.344,304.547c0.035,25.847-20.259,47.156-46.079,48.374   c-3.769-31.717-10.928-62.94-21.362-93.129c5.985-2.481,12.403-3.769,18.891-3.796c26.8-0.018,48.533,21.698,48.551,48.498   C494.344,304.511,494.344,304.529,494.344,304.547z"/>
</g>
<path style="fill:#4C8056;" d="M454.268,317.788c0.035,31.152-7.609,61.836-22.245,89.334c0,0.044-0.035,0.088-0.088,0.088l0,0  c-34.727,64.802-102.416,105.117-175.931,104.782c-108.366,1.095-197.117-85.838-198.264-194.204  c0.018-8.916,0.583-17.814,1.677-26.659c3.354-28.265,9.534-56.125,18.449-83.154c0.971-3.001,1.942-6.003,3.001-9.092  c0.088-0.353,0.265-0.794,0.353-1.148c0.177-0.441,0.265-0.794,0.441-1.236c0-0.088,0-0.088,0.088-0.177  c0.618-1.854,1.236-3.796,1.765-5.738c1.245-4.105,2.189-8.298,2.825-12.535c1.306-6.603,1.96-13.312,1.942-20.038V35.31  C88.274,15.81,104.075,0.009,123.574,0c0,0,0.009,0,0.018,0h264.823c19.5-0.009,35.301,15.792,35.31,35.292c0,0.009,0,0.009,0,0.018  v122.701c-0.018,6.727,0.636,13.435,1.942,20.038c0.636,4.237,1.58,8.43,2.825,12.535c0.53,1.942,1.148,3.884,1.766,5.738  c0.088,0.088,0.088,0.088,0.088,0.177c0.185,0.486,0.335,0.989,0.441,1.501c0.088,0.353,0.265,0.618,0.353,0.971  c0.971,3.001,2.03,6.091,2.913,9.004c2.56,7.856,4.855,15.625,6.885,23.216l0.088,0.088c5.367,19.632,9.234,39.635,11.564,59.85  C453.685,299.974,454.25,308.872,454.268,317.788z"/>
<path style="fill:#2C3E50;" d="M431.14,198.97c-0.856,0.274-1.748,0.424-2.648,0.441c-1.801,0-3.557-0.556-5.032-1.589  c-8.395-5.747-17.152-10.937-26.217-15.536v11.917c0,4.873-3.955,8.827-8.827,8.827c-4.873,0-8.827-3.955-8.827-8.827v-20.215  c-8.563-3.619-17.39-6.885-26.482-9.71v12.27c0,4.873-3.955,8.827-8.827,8.827c-4.873,0-8.827-3.955-8.827-8.827v-17.037  c-8.651-2.119-17.478-3.884-26.482-5.296v13.506c0,4.873-3.955,8.827-8.827,8.827c-4.873,0-8.827-3.955-8.827-8.827v-15.713  c-8.739-0.883-17.567-1.412-26.482-1.677v17.39c0,4.873-3.955,8.827-8.827,8.827c-4.873,0-8.827-3.955-8.827-8.827v-17.39  c-8.916,0.265-17.743,0.794-26.482,1.677v15.713c0,4.873-3.955,8.827-8.827,8.827s-8.827-3.955-8.827-8.827v-13.506  c-9.004,1.412-17.831,3.178-26.482,5.296v17.037c0,4.873-3.955,8.827-8.827,8.827s-8.827-3.955-8.827-8.827v-12.27  c-9.092,2.825-17.92,6.091-26.482,9.71v20.215c0,4.873-3.955,8.827-8.827,8.827s-8.827-3.955-8.827-8.827v-11.917  c-9.066,4.599-17.823,9.79-26.217,15.536c-2.207,1.642-5.111,2.039-7.68,1.059c0.088-0.353,0.265-0.794,0.353-1.148  c0.177-0.441,0.265-0.794,0.441-1.236c0-0.088,0-0.088,0.088-0.177c0.618-1.854,1.236-3.796,1.765-5.738  c1.245-4.105,2.189-8.298,2.825-12.535c9.128-5.817,18.626-11.034,28.424-15.625v-12.358c0-4.873,3.955-8.827,8.827-8.827  s8.827,3.955,8.827,8.827v4.767c8.563-3.354,17.39-6.444,26.482-9.092v-13.329c0-4.873,3.955-8.827,8.827-8.827  s8.827,3.955,8.827,8.827v8.916c8.651-1.942,17.478-3.708,26.482-5.032v-12.712c0-4.873,3.955-8.827,8.827-8.827  s8.827,3.955,8.827,8.827v10.681c8.739-0.794,17.567-1.324,26.482-1.589v-9.092c0-4.873,3.955-8.827,8.827-8.827  c4.873,0,8.827,3.955,8.827,8.827v9.092c8.916,0.265,17.743,0.794,26.482,1.589v-10.681c0-4.873,3.955-8.827,8.827-8.827  c4.873,0,8.827,3.955,8.827,8.827v12.712c9.004,1.324,17.831,3.09,26.482,5.032v-8.916c0-4.873,3.955-8.827,8.827-8.827  c4.873,0,8.827,3.955,8.827,8.827v13.329c9.092,2.648,17.92,5.738,26.482,9.092v-4.767c0-4.873,3.955-8.827,8.827-8.827  c4.873,0,8.827,3.955,8.827,8.827v12.358c9.798,4.59,19.297,9.807,28.424,15.625c0.636,4.237,1.58,8.43,2.825,12.535  c0.53,1.942,1.148,3.884,1.766,5.738c0.088,0.088,0.088,0.088,0.088,0.177c0.185,0.486,0.335,0.989,0.441,1.501  C430.875,198.352,431.052,198.617,431.14,198.97z"/>
<g>
	<path style="fill:#71C285;" d="M203.039,275.063v25.07c0,19.5-15.81,35.31-35.31,35.31s-35.31-15.81-35.31-35.31v-19.42"/>
	<path style="fill:#71C285;" d="M379.588,280.712v19.42c0,19.5-15.81,35.31-35.31,35.31c-19.5,0-35.31-15.81-35.31-35.31v-25.07"/>
</g>
<path style="fill:#59474E;" d="M423.725,8.827v70.955c0,4.873-3.955,8.827-8.827,8.827c-2.622,0-5.102-1.165-6.779-3.178  l-13.515-16.216c-3.125-3.743-8.686-4.255-12.429-1.13c-0.203,0.168-0.406,0.353-0.591,0.538l-13.409,13.409  c-3.452,3.452-9.039,3.452-12.482,0l-14-14c-3.452-3.452-9.039-3.452-12.482,0l-14,14c-3.452,3.452-9.039,3.452-12.482,0l-14-14  c-3.452-3.452-9.039-3.452-12.482,0l-14,14c-3.452,3.452-9.039,3.452-12.482,0l-14-14c-3.452-3.452-9.039-3.452-12.482,0l-14,14  c-3.452,3.452-9.039,3.452-12.482,0l-14-14c-3.452-3.452-9.039-3.452-12.482,0l-14,14c-3.452,3.452-9.039,3.452-12.482,0  l-13.409-13.409c-3.452-3.452-9.039-3.452-12.482,0c-0.185,0.194-0.371,0.388-0.538,0.591l-13.515,16.216  c-3.125,3.743-8.686,4.255-12.429,1.13c-2.013-1.677-3.178-4.158-3.178-6.779V8.827C88.282,3.955,92.237,0,97.11,0h317.788  C419.77,0,423.725,3.955,423.725,8.827z"/>
<path style="fill:#2C3E50;" d="M361.933,291.305c-27.365-0.715-54.439-5.861-80.162-15.245c-16.684-5.826-34.851-5.826-51.535,0  c-25.723,9.384-52.797,14.53-80.162,15.245c-21.592,0-36.016-5.614-42.866-16.693c-5.226-9.781-5.349-21.504-0.335-31.399  c2.163-4.37,7.459-6.153,11.829-3.99c4.37,2.163,6.153,7.459,3.99,11.829c-0.009,0.018-0.018,0.035-0.026,0.053  c-2.163,4.484-2.304,9.675-0.397,14.274c3.337,5.341,13.224,8.271,27.806,8.271c25.388-0.706,50.493-5.526,74.336-14.256  c20.462-7.124,42.725-7.124,63.187,0c23.843,8.73,48.948,13.55,74.336,14.256c14.645,0,24.531-2.957,27.842-8.315  c1.863-4.59,1.704-9.745-0.433-14.212c-2.163-4.37-0.38-9.666,3.99-11.829c4.343-2.154,9.622-0.397,11.802,3.937  c5.014,9.896,4.89,21.61-0.335,31.399C397.949,285.691,383.525,291.305,361.933,291.305z"/>
<g>
	<path style="fill:#FFFFFF;" d="M194.212,422.393v-7.503c0-9.754-7.901-17.655-17.655-17.655c-9.754,0-17.655,7.901-17.655,17.655   v17.655h3.884"/>
	<path style="fill:#FFFFFF;" d="M349.221,432.544h3.884v-17.655c0-9.754-7.901-17.655-17.655-17.655s-17.655,7.901-17.655,17.655   v7.503"/>
</g>
<path style="fill:#2C3E50;" d="M362.101,447.083c-1.342,0-2.657-0.309-3.866-0.9c-9.984-4.837-20.33-8.889-30.94-12.111  c-11.246-3.399-22.722-5.967-34.348-7.68c-24.514-3.549-49.407-3.549-73.921,0c-11.626,1.713-23.101,4.281-34.348,7.689  c-10.611,3.222-20.956,7.265-30.931,12.102c-4.378,2.136-9.666,0.318-11.802-4.061c-2.136-4.378-0.318-9.666,4.061-11.802  c10.814-5.252,22.024-9.64,33.527-13.126c12.085-3.663,24.426-6.426,36.916-8.271c26.217-3.813,52.859-3.813,79.076,0  c12.491,1.836,24.832,4.599,36.916,8.262c11.502,3.496,22.713,7.892,33.535,13.135c4.378,2.136,6.197,7.424,4.061,11.802  C368.562,445.168,365.482,447.092,362.101,447.083L362.101,447.083z"/>
<g>
</g>
<g>
</g>
<g>
</g>
<g>
</g>
<g>
</g>
<g>
</g>
<g>
</g>
<g>
</g>
<g>
</g>
<g>
</g>
<g>
</g>
<g>
</g>
<g>
</g>
<g>
</g>
<g>
</g>
</svg>
