<?xml version="1.0" encoding="iso-8859-1"?>
<!-- Generator: Adobe Illustrator 19.0.0, SVG Export Plug-In . SVG Version: 6.00 Build 0)  -->
<svg xmlns="http://www.w3.org/2000/svg" xmlns:xlink="http://www.w3.org/1999/xlink" version="1.1" id="Layer_1" x="0px" y="0px" viewBox="0 0 512 512" style="enable-background:new 0 0 512 512;" xml:space="preserve">
<polyline style="fill:#E6E6E6;" points="7.604,221.021 82.518,221.021 429.481,221.021 504.396,221.021 504.396,290.978   429.481,290.978 82.518,290.978 7.604,290.978 "/>
<g>
	<rect x="396.754" y="189.846" style="fill:#E24260;" width="32.727" height="133.82"/>
	<rect x="82.518" y="189.846" style="fill:#E24260;" width="32.727" height="133.82"/>
</g>
<path style="fill:#49618C;" d="M363.123,83.174H148.878c-18.576,0-33.634,15.059-33.634,33.634v278.386  c0,18.576,15.059,33.634,33.634,33.634h214.244c18.576,0,33.634-15.059,33.634-33.634V116.807  C396.756,98.232,381.698,83.174,363.123,83.174z"/>
<rect x="165.513" y="144.232" style="fill:#E6E6E6;" width="180.964" height="180.964"/>
<path style="fill:#CCCCCC;" d="M306.298,325.196H165.513V144.231h22.173C187.686,144.231,163.353,313.029,306.298,325.196z"/>
<g>
	<circle style="fill:#52BED3;" cx="184.523" cy="379.935" r="19.009"/>
	<circle style="fill:#52BED3;" cx="256" cy="379.935" r="19.009"/>
	<circle style="fill:#52BED3;" cx="327.467" cy="379.935" r="19.009"/>
</g>
<path d="M504.396,283.374h-49.569c-4.199,0-7.604,3.405-7.604,7.604c0,4.199,3.405,7.604,7.604,7.604h49.569  c4.199,0,7.604-3.405,7.604-7.604C512,286.778,508.595,283.374,504.396,283.374z"/>
<path d="M504.396,228.625c4.199,0,7.604-3.405,7.604-7.604s-3.405-7.604-7.604-7.604h-67.311v-23.568  c0-4.199-3.405-7.604-7.604-7.604h-25.12v-65.438c0-22.739-18.5-41.238-41.238-41.238h-55.299c-4.199,0-7.604,3.405-7.604,7.604  c0,4.199,3.405,7.604,7.604,7.604h55.299c14.353,0,26.03,11.677,26.03,26.03v278.386c0,14.353-11.678,26.03-26.03,26.03H148.878  c-14.353,0-26.03-11.678-26.03-26.03V116.807c0-14.353,11.678-26.03,26.03-26.03h133.598c4.199,0,7.604-3.405,7.604-7.604  c0-4.199-3.405-7.604-7.604-7.604H148.878c-22.739,0-41.238,18.499-41.238,41.238v65.438H82.518c-4.199,0-7.604,3.405-7.604,7.604  v23.568H7.604c-4.199,0-7.604,3.405-7.604,7.604s3.405,7.604,7.604,7.604h67.31v54.749H7.604c-4.199,0-7.604,3.405-7.604,7.604  c0,4.199,3.405,7.604,7.604,7.604h67.31v25.09c0,4.199,3.405,7.604,7.604,7.604h25.121v63.917c0,22.739,18.5,41.238,41.238,41.238  h214.244c22.739,0,41.238-18.5,41.238-41.238v-63.917h25.12c4.199,0,7.604-3.405,7.604-7.604v-95.046H504.396z M90.122,316.068  V197.453h17.518v118.615H90.122z M421.877,316.068H404.36V197.453h17.516V316.068z"/>
<path d="M346.48,290.216c4.199,0,7.604-3.405,7.604-7.604V144.227c0-4.199-3.405-7.604-7.604-7.604H165.514  c-4.199,0-7.604,3.405-7.604,7.604v180.965c0,4.199,3.405,7.604,7.604,7.604h180.965c4.199,0,7.604-3.405,7.604-7.604v-17.234  c0-4.199-3.405-7.604-7.604-7.604s-7.604,3.405-7.604,7.604v9.63H173.118V151.831h165.757v130.781  C338.876,286.812,342.281,290.216,346.48,290.216z"/>
<path d="M157.91,379.939c0,14.675,11.938,26.613,26.613,26.613c14.675,0,26.613-11.938,26.613-26.613  c0-14.675-11.938-26.613-26.613-26.613C169.848,353.326,157.91,365.264,157.91,379.939z M195.929,379.939  c0,6.289-5.116,11.405-11.405,11.405s-11.405-5.116-11.405-11.405c0-6.289,5.116-11.405,11.405-11.405  S195.929,373.65,195.929,379.939z"/>
<path d="M229.384,379.939c0,14.675,11.938,26.613,26.613,26.613c14.675,0,26.613-11.938,26.613-26.613  c0-14.675-11.938-26.613-26.613-26.613C241.322,353.326,229.384,365.264,229.384,379.939z M267.402,379.939  c0,6.289-5.116,11.405-11.405,11.405c-6.289,0-11.405-5.116-11.405-11.405c0-6.289,5.116-11.405,11.405-11.405  S267.402,373.65,267.402,379.939z"/>
<path d="M327.471,353.326c-14.675,0-26.613,11.938-26.613,26.613c0,14.675,11.938,26.613,26.613,26.613  c14.675,0,26.613-11.938,26.613-26.613C354.084,365.264,342.145,353.326,327.471,353.326z M327.471,391.344  c-6.289,0-11.405-5.116-11.405-11.405c0-6.289,5.116-11.405,11.405-11.405c6.289,0,11.405,5.116,11.405,11.405  C338.876,386.228,333.759,391.344,327.471,391.344z"/>
<path d="M305.421,189.342h-48.793c-4.199,0-7.604,3.405-7.604,7.604c0,4.199,3.405,7.604,7.604,7.604h48.793  c4.199,0,7.604-3.405,7.604-7.604C313.025,192.747,309.62,189.342,305.421,189.342z"/>
<path d="M206.574,204.55h29.776c4.199,0,7.604-3.405,7.604-7.604c0-4.199-3.405-7.604-7.604-7.604h-29.776  c-4.199,0-7.604,3.405-7.604,7.604C198.97,201.146,202.374,204.55,206.574,204.55z"/>
<path d="M305.421,225.079h-98.846c-4.199,0-7.604,3.405-7.604,7.604c0,4.199,3.405,7.604,7.604,7.604h98.846  c4.199,0,7.604-3.405,7.604-7.604C313.025,228.483,309.62,225.079,305.421,225.079z"/>
<path d="M305.421,260.815h-19.899c-4.199,0-7.604,3.405-7.604,7.604c0,4.199,3.405,7.604,7.604,7.604h19.899  c4.199,0,7.604-3.405,7.604-7.604C313.025,264.22,309.62,260.815,305.421,260.815z"/>
<path d="M206.574,260.815c-4.199,0-7.604,3.405-7.604,7.604c0,4.199,3.405,7.604,7.604,7.604h58.67c4.199,0,7.604-3.405,7.604-7.604  c0-4.199-3.405-7.604-7.604-7.604H206.574z"/>
<g>
</g>
<g>
</g>
<g>
</g>
<g>
</g>
<g>
</g>
<g>
</g>
<g>
</g>
<g>
</g>
<g>
</g>
<g>
</g>
<g>
</g>
<g>
</g>
<g>
</g>
<g>
</g>
<g>
</g>
</svg>
