<?xml version="1.0" encoding="iso-8859-1"?>
<!-- Generator: Adobe Illustrator 19.0.0, SVG Export Plug-In . SVG Version: 6.00 Build 0)  -->
<svg xmlns="http://www.w3.org/2000/svg" xmlns:xlink="http://www.w3.org/1999/xlink" version="1.1" id="Capa_1" x="0px" y="0px" viewBox="0 0 512 512" style="enable-background:new 0 0 512 512;" xml:space="preserve">
<path style="fill:#8E78CF;" d="M421.93,257.54c-44.59-11.828-103.518-18.343-165.93-18.343s-121.341,6.513-165.93,18.343  c-54.483,14.452-82.108,35.607-82.108,62.876l23.808,14.309l21.274-14.309c0-1.369,0.621-2.739,1.863-3.631  c7.506-5.395,23.876-13.59,54.999-20.941c40.051-9.459,91.936-14.669,146.095-14.669s106.044,5.21,146.095,14.669  c31.122,7.35,47.493,15.547,54.999,20.941c1.242,0.893,1.863,2.262,1.863,3.631l20.574,19.621l24.508-19.621  C504.039,293.147,476.413,271.993,421.93,257.54z"/>
<path style="opacity:0.2;enable-background:new    ;" d="M388.387,250.126c-38.837-7.104-84.586-10.928-132.387-10.928  c-62.412,0-121.341,6.513-165.93,18.343c-8.082,2.144-15.56,4.439-22.458,6.876c-1.608,14.643-1.236,29.643,1.307,44.615  c9.306-4.188,22.56-8.836,40.986-13.188c40.051-9.459,91.936-14.669,146.095-14.669c49.357,0,96.819,4.328,135.161,12.254  C392.174,279.162,391.306,264.612,388.387,250.126z"/>
<g>
	<path style="opacity:0.1;fill:#FFFFFF;enable-background:new    ;" d="M68.097,264.248c-20.884,7.329-36.385,15.979-46.406,25.903   c4.707,3.055,10.318,4.836,16.347,4.836c16.61,0,30.076-13.465,30.076-30.076C68.114,264.689,68.102,264.47,68.097,264.248z"/>
	<path style="opacity:0.15;fill:#FFFFFF;enable-background:new    ;" d="M433.486,260.838c-0.012,0.403-0.031,0.805-0.031,1.21   c0,22.501,18.241,40.742,40.742,40.742c7.969,0,15.397-2.296,21.677-6.251C485.289,282.232,464.425,270.289,433.486,260.838z"/>
</g>
<circle style="fill:#0081C6;" cx="347.293" cy="151.7" r="54.884"/>
<circle style="fill:#F3C74F;" cx="347.293" cy="151.7" r="25.625"/>
<circle style="fill:#0081C6;" cx="98.508" cy="242.246" r="54.884"/>
<circle style="fill:#F3C74F;" cx="98.508" cy="242.246" r="25.625"/>
<path style="opacity:0.2;enable-background:new    ;" d="M118.093,190.992c-24.268,28.471-38.224,64.796-38.902,102.611  c11.84,4.459,25.265,4.883,38.086,0.217c28.483-10.368,43.17-41.863,32.803-70.346C144.415,207.911,132.437,196.481,118.093,190.992  z"/>
<circle style="fill:#40BAB3;" cx="257.075" cy="290.863" r="162.421"/>
<g>
	<path style="fill:#F0B0B7;" d="M147.861,334.971c-3.252,0-6.306-2.007-7.483-5.24c-1.504-4.132,0.627-8.7,4.758-10.204   l27.052-9.845c4.135-1.505,8.701,0.627,10.204,4.758c1.504,4.132-0.627,8.7-4.758,10.204l-27.052,9.845   C149.685,334.815,148.765,334.971,147.861,334.971z"/>
	<path style="fill:#F0B0B7;" d="M336.913,266.161c-3.252,0-6.305-2.007-7.483-5.24c-1.504-4.132,0.627-8.7,4.758-10.204   l27.052-9.845c4.136-1.503,8.7,0.627,10.204,4.758c1.504,4.132-0.627,8.7-4.758,10.204l-27.052,9.845   C338.736,266.006,337.815,266.161,336.913,266.161z"/>
</g>
<path style="fill:#0081C6;" d="M175.078,431.071c40.265,23.518,90.303,29.615,137.546,12.421s81.654-54.031,97.382-97.927  L175.078,431.071z"/>
<path style="fill:#FFFFFF;" d="M125.769,386.535c13.351,18.341,30.232,33.393,49.308,44.535l234.928-85.506  c7.452-20.798,10.707-43.18,9.146-65.811L125.769,386.535z"/>
<path style="opacity:0.2;enable-background:new    ;" d="M322.509,422.291c-84.295,30.681-177.501-12.782-208.182-97.077  c-13.9-38.192-12.581-78.213,0.86-113.42C93.059,251.542,87.66,300.31,104.44,346.414c30.681,84.295,123.887,127.757,208.182,97.077  c46.103-16.78,79.992-52.263,96.217-94.763C390.511,381.656,360.7,408.391,322.509,422.291z"/>
<circle style="fill:#F0B0B7;" cx="434.516" cy="112.88" r="54.222"/>
<g style="opacity:0.2;">
	<path d="M460.001,65.018c-7.686,4.041-12.93,12.098-12.93,21.384c0,13.337,10.813,24.149,24.149,24.149   c6.503,0,12.402-2.575,16.743-6.755C485.125,86.969,474.544,72.779,460.001,65.018z"/>
	<circle cx="427.192" cy="129.206" r="16.208"/>
	<circle cx="419.539" cy="89.326" r="7.937"/>
</g>
<path style="fill:#8E78CF;" d="M457.094,324.048c-7.506,5.395-23.876,13.59-54.999,20.941  c-40.051,9.459-91.936,14.669-146.095,14.669s-106.044-5.209-146.095-14.669c-31.122-7.35-47.493-15.547-54.999-20.941  c-1.242-0.893-1.863-2.262-1.863-3.631H7.961c0,27.269,27.626,48.424,82.108,62.876c44.59,11.828,103.518,18.343,165.93,18.343  s121.341-6.513,165.93-18.343c54.483-14.452,82.108-35.607,82.108-62.876h-45.082C458.957,321.786,458.336,323.156,457.094,324.048z  "/>
<g>
	<path style="opacity:0.1;fill:#FFFFFF;enable-background:new    ;" d="M256,359.658c-5.505,0-10.984-0.056-16.433-0.163   c3.275,13.065,15.091,22.742,29.171,22.742c14.404,0,26.435-10.127,29.38-23.647C284.352,359.293,270.256,359.658,256,359.658z"/>
	<path style="opacity:0.1;fill:#FFFFFF;enable-background:new    ;" d="M410.508,361.026c-20.317,0-37.348,14.035-41.95,32.935   c19.315-2.828,37.28-6.4,53.371-10.669c7.834-2.077,15.094-4.299,21.814-6.652C435.823,367.101,423.876,361.026,410.508,361.026z"/>
	<path style="opacity:0.15;fill:#FFFFFF;enable-background:new    ;" d="M79.19,352.16c-12.274,0-22.824,7.357-27.499,17.898   c10.812,4.896,23.598,9.314,38.379,13.234c5.976,1.585,12.218,3.072,18.682,4.464c0.332-1.791,0.515-3.634,0.515-5.52   C109.267,365.626,95.801,352.16,79.19,352.16z"/>
</g>
<path d="M330.129,220.754c1.176,3.233,4.229,5.242,7.483,5.242c0.903,0,1.823-0.154,2.722-0.482  c4.132-1.503,6.262-6.072,4.759-10.203l-1.615-4.437c-1.503-4.131-6.068-6.269-10.203-4.759c-4.132,1.503-6.262,6.072-4.759,10.203  L330.129,220.754z M141.077,289.565c1.177,3.232,4.23,5.24,7.483,5.24c0.904,0,1.824-0.156,2.723-0.482  c4.131-1.505,6.261-6.074,4.757-10.205l-1.615-4.436c-1.505-4.131-6.071-6.259-10.205-4.757c-4.131,1.505-6.261,6.074-4.757,10.205  L141.077,289.565z M423.971,249.845c-0.542-0.144-1.095-0.284-1.643-0.427c-1.42-5.682-3.134-11.302-5.146-16.833  c-5.413-14.872-12.701-28.529-21.489-40.814c5.542-6.7,9.633-14.465,12.019-22.797c8.122,3.896,17.212,6.082,26.805,6.082  c34.287,0,62.18-27.893,62.18-62.18s-27.894-62.18-62.181-62.18c-28.157,0-51.989,18.818-59.614,44.534  c-15.195-7.455-32.83-8.511-49.107-2.59c-15.347,5.586-27.756,16.798-34.881,31.28c-29.774-6.087-61.527-4.303-92.118,6.83  c-29.939,10.897-55.692,29.558-75.046,53.944c-14.743-6.477-31.421-7.078-46.738-1.504c-15.774,5.742-28.369,17.281-35.463,32.496  c-7.095,15.213-7.839,32.279-2.098,48.054c0.427,1.172,0.895,2.32,1.385,3.455C13.736,281.236,0,299.112,0,320.417  c0.001,31.333,29.618,55.076,88.03,70.57c11.593,3.075,24.138,5.795,37.439,8.141c32.98,40.116,81.478,62.174,131.461,62.174  c19.527,0,39.279-3.365,58.417-10.331c28.923-10.527,54.312-28.584,73.654-52.287c12.386-2.245,24.098-4.814,34.97-7.698  c58.41-15.495,88.029-39.237,88.03-70.57C512,289.084,482.383,265.34,423.971,249.845z M426.247,310.985  c10.404,3.576,17.323,6.893,21.739,9.427c-4.811,2.749-12.812,6.57-25.335,10.636C424.254,324.429,425.451,317.728,426.247,310.985z   M434.516,66.62c25.506,0,46.257,20.751,46.257,46.257s-20.751,46.257-46.257,46.257s-46.257-20.751-46.257-46.257  S409.01,66.62,434.516,66.62z M393.545,159.591c-1.196,6.983-3.949,13.586-8.029,19.324c-3.022-3.459-6.166-6.789-9.438-9.972  c4.947-8.298,6.168-18.492,3.059-27.848C382.742,148.143,387.648,154.413,393.545,159.591z M331.242,107.604  c13.775-5.018,28.857-3.312,41.116,4.446c-0.003,0.277-0.021,0.55-0.021,0.828c0,7.779,1.449,15.222,4.069,22.092  c-7.973-13.893-25.043-20.492-40.603-14.833c-6.571,2.392-12.149,6.748-16.068,12.379c-4.241-1.681-8.549-3.198-12.916-4.538  C312.297,118.613,320.863,111.381,331.242,107.604z M363.751,158.058c-9.038-7.235-18.776-13.508-29.03-18.756  c1.819-1.846,4.035-3.296,6.527-4.204c4.433-1.613,9.229-1.403,13.506,0.59c4.276,1.995,7.52,5.534,9.133,9.966  C365.368,149.726,365.258,154.139,363.751,158.058z M204.241,145.714c80.034-29.129,168.848,12.285,197.978,92.319  c11.64,31.98,12.492,65.811,2.531,98.117c-1.455,0.365-2.948,0.729-4.484,1.092c-39.469,9.321-90.702,14.454-144.266,14.454  s-104.798-5.133-144.266-14.454c-0.73-0.172-1.448-0.345-2.159-0.518c-11.626-37.267-8.792-77.024,8.112-112.427  C135.232,187.551,165.972,159.643,204.241,145.714z M55.978,222.415c5.297-11.359,14.701-19.975,26.477-24.263  c10.35-3.767,21.528-3.743,31.721-0.122c-2.471,3.819-4.806,7.745-6.985,11.784c-6.595-1.767-13.633-1.508-20.173,0.871  c-8.429,3.069-15.16,9.235-18.952,17.366c-3.792,8.13-4.19,17.251-1.122,25.68c3.481,9.563,11.138,16.91,20.514,20.2  c-0.458,4.56-0.728,9.136-0.813,13.718c-14.725-3.862-26.91-14.733-32.234-29.357C50.125,246.516,50.682,233.775,55.978,222.415z   M89.9,257.657c-3.635-2.038-6.522-5.33-7.992-9.371c-1.615-4.433-1.404-9.229,0.59-13.506c1.994-4.276,5.534-7.52,9.966-9.133  c2.463-0.895,5.059-1.214,7.609-0.987C95.538,235.391,92.146,246.44,89.9,257.657z M91.667,331.787  c-13.864-4.342-22.554-8.46-27.655-11.376c4.708-2.702,12.221-6.275,23.735-10.103C88.587,317.506,89.897,324.677,91.667,331.787z   M309.9,436.01c-55.684,20.268-117.098,6.905-159.115-32.988c32.417,4.3,68.224,6.575,105.215,6.575  c37.922,0,74.599-2.392,107.657-6.904C348.321,417.311,330.057,428.674,309.9,436.01z M478.575,350.34  c-12.847,9.838-32.592,18.334-58.686,25.257C375.947,387.254,317.743,393.674,256,393.674s-119.947-6.42-163.889-18.076  c-26.094-6.923-45.84-15.419-58.686-25.257c-11.776-9.019-17.502-18.807-17.502-29.923c0-15.076,11.12-28.346,33.057-39.508  c6.092,7.793,13.938,14.044,22.867,18.239c-10.717,4.267-17.462,8.209-21.587,11.173c-3.243,2.329-5.178,6.105-5.178,10.097  s1.935,7.766,5.178,10.096c6.632,4.767,22.964,13.994,57.815,22.225c40.631,9.597,93.166,14.882,147.926,14.882  s107.294-5.285,147.926-14.882c34.851-8.231,51.183-17.456,57.815-22.225c3.243-2.329,5.178-6.104,5.178-10.096  s-1.935-7.767-5.178-10.098c-5.512-3.96-15.84-9.757-34.356-15.742c0.197-9.264-0.351-18.54-1.654-27.729  c23.21,6.615,40.976,14.556,52.845,23.645c11.777,9.019,17.502,18.807,17.502,29.923  C496.077,331.534,490.352,341.322,478.575,350.34z M219.225,287.654c3.342,1.558,6.908,2.342,10.489,2.341  c2.866,0,5.742-0.502,8.516-1.512c5.944-2.163,10.746-6.41,13.613-12.01c5.575,2.345,12.013,2.68,18.133,0.456  c12.877-4.687,19.54-18.978,14.854-31.856c-1.504-4.131-6.069-6.262-10.204-4.758c-4.131,1.504-6.262,6.073-4.758,10.204  c0.815,2.241,0.71,4.666-0.297,6.83c-1.008,2.161-2.798,3.801-5.04,4.618c-4.627,1.685-9.761-0.711-11.445-5.337  c-1.503-4.132-6.074-6.26-10.204-4.758c-3.232,1.176-5.24,4.228-5.24,7.479c0,0.904,0.154,1.826,0.482,2.725  c0.816,2.241,0.71,4.665-0.298,6.828c-1.007,2.162-2.798,3.802-5.039,4.619c-2.239,0.816-4.665,0.71-6.83-0.297  c-2.161-1.008-3.801-2.798-4.618-5.04c-1.504-4.131-6.069-6.262-10.204-4.758c-4.131,1.504-6.262,6.073-4.758,10.204  C208.645,279.868,213.209,284.849,219.225,287.654z"/>
<g>
</g>
<g>
</g>
<g>
</g>
<g>
</g>
<g>
</g>
<g>
</g>
<g>
</g>
<g>
</g>
<g>
</g>
<g>
</g>
<g>
</g>
<g>
</g>
<g>
</g>
<g>
</g>
<g>
</g>
</svg>
