<?xml version="1.0" encoding="iso-8859-1"?>
<!-- Generator: Adobe Illustrator 19.0.0, SVG Export Plug-In . SVG Version: 6.00 Build 0)  -->
<svg xmlns="http://www.w3.org/2000/svg" xmlns:xlink="http://www.w3.org/1999/xlink" version="1.1" id="Layer_1" x="0px" y="0px" viewBox="0 0 512.001 512.001" style="enable-background:new 0 0 512.001 512.001;" xml:space="preserve">
<polygon style="fill:#52BED3;" points="354.849,127.939 354.849,384.061 336.864,504.396 175.143,504.396 157.157,384.061   157.157,127.939 175.143,7.604 336.864,7.604 "/>
<g>
	<path style="fill:#2DADC1;" d="M348.979,179.19l-191.823,9.449v-60.7L175.143,7.604h27.851c0,0-12.166,98.618,68.426,119.139   C352.021,147.263,348.979,179.19,348.979,179.19z"/>
	<path style="fill:#2DADC1;" d="M348.979,332.81l-191.823-9.449v60.7l17.986,120.335h27.851c0,0-12.166-98.618,68.426-119.139   C352.021,364.737,348.979,332.81,348.979,332.81z"/>
</g>
<path style="fill:#E6E6E6;" d="M345.883,385.261H166.117c-18.808,0-34.056-15.247-34.056-34.056v-190.41  c0-18.808,15.247-34.056,34.056-34.056h179.766c18.808,0,34.056,15.247,34.056,34.056v190.41  C379.938,370.015,364.691,385.261,345.883,385.261z"/>
<g>
	<path style="fill:#CCCCCC;" d="M189.849,293.248c0,0,7.106,92.005,81.57,92.009H183.22l-26.063-61.896"/>
	<path style="fill:#CCCCCC;" d="M189.849,351.206v-190.41c0-18.808,15.247-34.056,34.056-34.056h-57.787   c-18.808,0-34.056,15.247-34.056,34.056v190.41c0,18.808,15.247,34.056,34.056,34.056h57.787   C205.096,385.261,189.849,370.015,189.849,351.206z"/>
</g>
<path style="fill:#E24260;" d="M258.181,209.088l-2.18,2.18l-2.18-2.18c-14.851-14.851-38.928-14.851-53.779,0l0,0  c-14.851,14.851-14.851,38.928,0,53.779l2.18,2.18l53.779,53.779l53.779-53.779l2.181-2.181c14.851-14.851,14.851-38.928,0-53.779  l0,0C297.109,194.237,273.031,194.237,258.181,209.088z"/>
<path d="M361.689,122.26L344.386,6.481C343.83,2.756,340.631,0,336.866,0H175.139c-3.765,0-6.964,2.756-7.52,6.481l-17.302,115.777  c-15.157,6.237-25.86,21.158-25.86,38.539v190.41c0,17.381,10.702,32.302,25.861,38.539l17.302,115.775  c0.557,3.724,3.755,6.481,7.52,6.481h161.725c3.765,0,6.964-2.756,7.52-6.481l7.089-47.435c0.62-4.154-2.243-8.024-6.396-8.644  c-4.149-0.621-8.023,2.244-8.644,6.396l-6.12,40.954H181.692l-15.531-103.926h179.685l-5.343,35.752  c-0.62,4.154,2.243,8.024,6.396,8.644c0.38,0.057,0.759,0.084,1.134,0.084c3.703,0,6.948-2.708,7.511-6.482l6.146-41.123  c15.154-6.238,25.853-21.158,25.853-38.537V160.795C387.542,143.418,376.843,128.498,361.689,122.26z M181.692,15.208h148.622  l15.531,103.928H166.161L181.692,15.208z M372.335,351.206c0,14.585-11.866,26.452-26.452,26.452H166.117  c-14.585,0-26.452-11.866-26.452-26.452v-190.41c0-14.585,11.866-26.452,26.452-26.452h179.765  c14.585,0,26.452,11.866,26.452,26.452L372.335,351.206L372.335,351.206z"/>
<path d="M256,200.801c-17.908-14.822-44.573-13.852-61.337,2.911c-8.619,8.618-13.366,20.077-13.366,32.266  s4.747,23.647,13.366,32.266l55.959,55.96c1.425,1.427,3.36,2.227,5.376,2.227c2.017,0,3.951-0.801,5.377-2.227l22.781-22.781  c2.97-2.97,2.97-7.784,0-10.753c-2.97-2.97-7.784-2.97-10.753,0L256,308.074l-50.583-50.584c-11.862-11.862-11.862-31.164,0-43.026  c11.863-11.863,31.164-11.862,43.026,0l2.181,2.181c1.426,1.426,3.36,2.227,5.378,2.227c2.018,0,3.951-0.802,5.377-2.227l2.18-2.18  c5.746-5.746,13.386-8.911,21.513-8.911s15.767,3.165,21.513,8.911c11.862,11.862,11.862,31.164,0,43.026l-17.211,17.211  c-2.97,2.97-2.97,7.784,0,10.753c2.97,2.97,7.784,2.97,10.753,0l17.211-17.211c17.792-17.791,17.792-46.741,0-64.533  C300.574,186.949,273.91,185.978,256,200.801z"/>
<g>
</g>
<g>
</g>
<g>
</g>
<g>
</g>
<g>
</g>
<g>
</g>
<g>
</g>
<g>
</g>
<g>
</g>
<g>
</g>
<g>
</g>
<g>
</g>
<g>
</g>
<g>
</g>
<g>
</g>
</svg>
