<?xml version="1.0" encoding="iso-8859-1"?>
<!-- Generator: Adobe Illustrator 19.0.0, SVG Export Plug-In . SVG Version: 6.00 Build 0)  -->
<svg xmlns="http://www.w3.org/2000/svg" xmlns:xlink="http://www.w3.org/1999/xlink" version="1.1" id="Capa_1" x="0px" y="0px" viewBox="0 0 511.999 511.999" style="enable-background:new 0 0 511.999 511.999;" xml:space="preserve">
<path style="fill:#F3C74F;" d="M384.581,328.39c-10.923,0-20.939-1.443-29.054-3.668c-11.698-3.209-18.58-15.291-15.373-26.989  c3.209-11.698,15.295-18.58,26.989-15.372c11.883,3.26,36.107,3.858,54.143-7.859c13.267-8.616,21.511-22.947,24.501-42.594  c1.825-11.991,13.018-20.227,25.018-18.408c11.991,1.827,20.232,13.026,18.408,25.018c-4.89,32.118-20.105,57.299-44,72.82  C425.857,323.91,403.817,328.39,384.581,328.39z"/>
<path style="opacity:0.2;enable-background:new    ;" d="M470.804,213.502c-11.998-1.819-23.192,6.416-25.018,18.408  c-2.173,14.273-7.132,25.725-14.762,34.234l44.845,12.314c6.552-11.645,11.073-25.033,13.342-39.938  C491.036,226.529,482.795,215.329,470.804,213.502z"/>
<path style="fill:#F3C74F;" d="M29.996,405.063c-1.874,0-3.774-0.242-5.671-0.746c-11.719-3.123-18.688-15.158-15.564-26.877  c15.235-57.156,50.291-101.031,87.233-109.177c11.846-2.612,23.564,4.874,26.176,16.719c2.611,11.846-4.874,23.564-16.719,26.176  c-17.53,3.865-42.614,33.947-54.249,77.597C48.584,398.577,39.703,405.063,29.996,405.063z"/>
<path style="opacity:0.2;enable-background:new    ;" d="M122.169,284.979c-2.612-11.844-14.331-19.33-26.176-16.718  c-14.148,3.12-28.015,11.495-40.602,23.835c1.421,18.96,6.199,36.986,13.741,53.492c11.672-19.548,25.448-32.036,36.32-34.434  C117.296,308.543,124.781,296.825,122.169,284.979z"/>
<path style="fill:#F3C74F;" d="M275.704,501.872c-12.13,0-21.962-9.833-21.962-21.962v-83.165c0-12.13,9.833-21.962,21.962-21.962  c12.13,0,21.962,9.833,21.962,21.962v83.165C297.666,492.039,287.834,501.872,275.704,501.872z"/>
<path style="opacity:0.2;enable-background:new    ;" d="M275.704,374.782c-12.13,0-21.962,9.833-21.962,21.962v46.061  c15.508-2.477,30.265-7.19,43.924-13.809v-32.252C297.666,384.615,287.834,374.782,275.704,374.782z"/>
<path style="fill:#A27B5A;" d="M181.268,469.135c-12.13,0-21.962-9.833-21.962-21.962v-50.429c0-12.13,9.833-21.962,21.962-21.962  s21.962,9.833,21.962,21.962v50.429C203.229,459.303,193.397,469.135,181.268,469.135z"/>
<path style="opacity:0.2;enable-background:new    ;" d="M181.268,374.782c-12.13,0-21.962,9.833-21.962,21.962v32.252  c13.659,6.619,28.417,11.332,43.924,13.809v-46.061C203.229,384.615,193.397,374.782,181.268,374.782z"/>
<circle style="fill:#0081C6;" cx="349.049" cy="129.689" r="50.441"/>
<circle style="fill:#F3C74F;" cx="349.049" cy="129.689" r="23.548"/>
<circle style="fill:#0081C6;" cx="107.926" cy="129.689" r="50.441"/>
<circle style="fill:#F3C74F;" cx="107.926" cy="129.689" r="23.548"/>
<path style="opacity:0.2;enable-background:new    ;" d="M137.743,89.013c-23.716,21.434-43.831,50.941-58.119,82.434  c8.07,5.48,17.811,8.685,28.301,8.685c27.858,0,50.441-22.584,50.441-50.441C158.365,112.991,150.245,98.194,137.743,89.013z"/>
<path style="fill:#40BAB3;" d="M386.974,266.914c0-87.271-72.757-212.997-158.489-212.997S69.997,179.641,69.997,266.914  s70.958,158.02,158.488,158.02C316.016,424.934,386.974,354.185,386.974,266.914z"/>
<g>
	<path style="fill:#F0B0B7;" d="M149.266,248.381h-26.458c-4.428,0-8.017-3.588-8.017-8.017c0-4.428,3.588-8.017,8.017-8.017h26.458   c4.428,0,8.017,3.588,8.017,8.017C157.283,244.792,153.693,248.381,149.266,248.381z"/>
	<path style="fill:#F0B0B7;" d="M334.164,248.381h-26.458c-4.428,0-8.017-3.588-8.017-8.017c0-4.428,3.588-8.017,8.017-8.017h26.458   c4.428,0,8.017,3.588,8.017,8.017C342.181,244.792,338.593,248.381,334.164,248.381z"/>
</g>
<path style="fill:#FFFFFF;" d="M72.666,295.895c13.653,73.429,78.218,129.039,155.819,129.039s142.166-55.61,155.819-129.039H72.666  z"/>
<path style="fill:#0081C6;" d="M100.723,360.414c28.846,39.124,75.325,64.52,127.762,64.52s98.917-25.396,127.762-64.52H100.723z"/>
<path style="opacity:0.2;enable-background:new    ;" d="M245.292,408.127c-87.531,0-158.488-70.748-158.488-158.02  c0-52.541,26.376-119.007,66.072-163.597c-48.887,43.156-82.878,120.756-82.878,180.403c0,87.272,70.958,158.02,158.488,158.02  c48.125,0,91.235-21.391,120.303-55.152C321.02,393.676,284.85,408.127,245.292,408.127z"/>
<path style="fill:#394049;" d="M228.485,10.129c66.731,0,96.381,67.279,127.676,94.915c31.296,27.635,92.79-24.453,85.103,18.373  c-2.393,13.336-21.81,49.218-50.513,54.905c-42.486,8.419-79.063-21.413-162.267-21.413s-119.781,29.832-162.267,21.413  c-28.703-5.688-48.12-41.57-50.513-54.905c-7.686-42.825,53.807,9.263,85.103-18.373S161.754,10.129,228.485,10.129z"/>
<circle style="fill:#FFFFFF;" cx="228.487" cy="64.54" r="31.052"/>
<g>
	<circle style="fill:#394049;" cx="217.606" cy="61.429" r="7.992"/>
	<circle style="fill:#394049;" cx="239.369" cy="61.429" r="7.992"/>
</g>
<g>
	<path style="fill:#FFFFFF;" d="M269.037,146.172c-0.988,0-1.99-0.184-2.964-0.571l-81.107-32.297   c-4.114-1.638-6.121-6.301-4.482-10.413c1.638-4.114,6.301-6.121,10.413-4.482l81.107,32.297c4.114,1.638,6.121,6.301,4.482,10.413   C275.236,144.26,272.223,146.172,269.037,146.172z"/>
	<path style="fill:#FFFFFF;" d="M187.934,146.172c-3.185,0-6.2-1.912-7.45-5.054c-1.638-4.113,0.369-8.776,4.482-10.413   l81.107-32.297c4.113-1.636,8.776,0.369,10.413,4.482c1.638,4.113-0.369,8.776-4.482,10.413L190.897,145.6   C189.925,145.988,188.921,146.172,187.934,146.172z"/>
</g>
<path style="fill:#394049;" d="M346.697,205.894c0,14.54-12.045,26.267-26.702,25.746c-13.96-0.496-24.823-12.394-24.823-26.363  v-18.123c0-3.059,2.48-5.539,5.539-5.539h40.447c3.059,0,5.539,2.48,5.539,5.539L346.697,205.894L346.697,205.894z"/>
<path style="fill:#A27B5A;" d="M286.42,251.786c0-36.074-25.938-50.256-57.934-50.256s-57.934,14.182-57.934,50.256  s25.938,120.503,57.934,120.503C260.482,372.287,286.42,287.859,286.42,251.786z"/>
<path style="opacity:0.2;enable-background:new    ;" d="M235.881,363.795c-31.996,0-57.934-84.428-57.934-120.502  c0-11.747,2.764-21.159,7.578-28.529c-9.304,8.083-14.973,20.159-14.973,37.022c0,36.074,25.938,120.503,57.934,120.503  c8.912,0,17.353-6.556,24.895-16.785C247.859,360.719,241.98,363.795,235.881,363.795z"/>
<path style="fill:#5F666F;" d="M498.755,242.487c4.415-17.97-6.835-36.12-25.039-40.067c-17.546-3.803-34.835,7.576-39.119,25.011  l-4.713,19.182c-0.864,3.513,1.286,7.061,4.798,7.925l51.271,12.595c3.513,0.864,7.061-1.285,7.925-4.798L498.755,242.487z"/>
<path style="opacity:0.1;fill:#FFFFFF;enable-background:new    ;" d="M484.609,206.924c-7.254,2.508-12.471,9.38-12.471,17.485  c0,10.225,8.289,18.514,18.514,18.514c3.05,0,5.92-0.75,8.457-2.058C501.721,227.384,495.661,214.045,484.609,206.924z"/>
<path d="M511.421,163.53c3.124-15.23-6.724-30.161-21.951-33.284c-6.91-1.418-14.051-0.212-20.106,3.401  c-3.803,2.268-5.047,7.189-2.779,10.992c2.269,3.804,7.19,5.044,10.991,2.779c2.609-1.556,5.684-2.076,8.669-1.465  c3.181,0.653,5.918,2.505,7.707,5.217c1.789,2.712,2.415,5.957,1.762,9.139c-1.348,6.568-7.792,10.817-14.359,9.469  c-4.335-0.891-8.575,1.904-9.464,6.242l-3.631,17.701c-18.956-0.587-36.711,12.505-41.451,31.8l-4.713,19.182  c-1.328,5.403,0.565,10.855,4.447,14.333c-2.763,3.441-5.976,6.373-9.628,8.744c-7.214,4.686-15.345,6.868-22.156,7.849  c0.151-2.887,0.229-5.792,0.229-8.716c0-24.081-5.443-51.817-15.439-79.189c4.217-0.196,8.458-0.686,12.758-1.538  c33.386-6.615,54.191-46.571,56.845-61.353c0.683-3.804,2.761-15.379-4.55-22.334c-7.984-7.593-20.661-4.654-35.339-1.255  c-2.677,0.62-5.41,1.253-8.161,1.837c-9.895-19.295-30.033-31.848-52.059-31.848c-3.832,0-7.633,0.379-11.359,1.114  c-0.31-0.385-0.62-0.769-0.931-1.155c-24.79-30.777-55.647-69.08-108.268-69.08c-52.619,0-83.476,38.302-108.27,69.079  c-0.312,0.387-0.621,0.772-0.932,1.157c-3.726-0.734-7.527-1.114-11.359-1.114c-22.026,0-42.163,12.553-52.058,31.848  c-2.751-0.584-5.485-1.216-8.161-1.836c-14.677-3.401-27.355-6.338-35.338,1.254c-7.311,6.954-5.234,18.529-4.551,22.334  c2.653,14.782,23.458,54.736,56.845,61.353c4.298,0.852,8.536,1.338,12.751,1.534c-10.116,27.565-15.431,54.732-15.431,79.194  c0,2.946,0.08,5.874,0.233,8.782c-27.127,20.169-49.827,57.01-61.2,99.679c-4.257,15.971,5.273,32.431,21.251,36.69  c2.534,0.674,5.136,1.015,7.731,1.015c13.555,0,25.459-9.155,28.953-22.263c4.763-17.87,12.371-34.736,21.481-47.99  c15.715,30.355,40.548,55.278,70.86,71.163v33.184c0,13.754,9.313,25.365,21.962,28.882v25.816c0,4.427,3.588,8.017,8.017,8.017  c4.428,0,8.017-3.589,8.017-8.017v-25.816c12.649-3.516,21.963-15.127,21.963-28.882v-15.11c5.668,0.584,11.419,0.886,17.239,0.886  c5.82,0,11.572-0.302,17.24-0.886v47.846c0,16.531,13.448,29.978,29.978,29.978s29.979-13.448,29.979-29.978v-65.921  c32.453-17.007,58.621-44.38,74.047-77.68c1.615,0.06,3.234,0.097,4.851,0.097c16.767,0,41.654-3.182,64.998-18.343  c16.14-10.484,28.543-24.862,36.966-42.777c0.335,0.024,0.668,0.061,1.002,0.061c2.627,0,5.214-0.717,7.519-2.113  c3.328-2.016,5.673-5.207,6.6-8.985l4.877-19.848c2.662-10.832,0.872-22.01-5.037-31.472c-4.31-6.901-10.41-12.223-17.629-15.523  l2.348-11.448C498.333,184.907,508.857,176.032,511.421,163.53z M43.457,386.687c-1.626,6.099-7.161,10.359-13.461,10.359  c-1.206,0-2.421-0.16-3.606-0.476c-3.598-0.96-6.609-3.263-8.475-6.486c-1.867-3.225-2.367-6.981-1.407-10.58  c9.384-35.206,26.823-65.861,47.815-84.819c1.841,10.856,4.741,21.354,8.592,31.39C60.097,341.912,49.712,363.216,43.457,386.687z   M383.908,105.53c-8.501,0.335-16.392-1.155-22.44-6.496c-3.737-3.3-7.533-7.309-11.406-11.746  C363.725,87.616,376.28,94.585,383.908,105.53z M106.91,87.287c-3.875,4.437-7.67,8.446-11.407,11.746  c-6.048,5.34-13.937,6.83-22.438,6.496C80.692,94.583,93.247,87.616,106.91,87.287z M67.777,170.456  c-23.898-4.735-42.036-36.509-44.181-48.458c-0.992-5.529-0.314-7.511-0.15-7.886c2.611-1.43,13.876,1.185,20.639,2.751  c18.536,4.295,43.923,10.177,62.028-5.813c8.929-7.883,17.505-18.53,26.587-29.803c23.829-29.579,50.837-63.104,95.783-63.104  c44.947,0,71.956,33.526,95.785,63.105c9.08,11.273,17.656,21.919,26.584,29.802c18.108,15.989,43.494,10.108,62.03,5.813  c6.762-1.568,18.026-4.182,20.638-2.751c0.165,0.375,0.843,2.357-0.15,7.886c-2.145,11.948-20.282,43.722-44.181,48.458  c-18.907,3.75-37.22-0.978-60.408-6.959c-25.225-6.509-56.619-14.607-100.3-14.607s-75.074,8.098-100.3,14.607  C105.001,169.479,86.684,174.208,67.777,170.456z M354.65,185.895c2.503,0.43,4.993,0.8,7.473,1.097  c1.628,4.141,3.15,8.294,4.555,12.444c-3.195-0.684-7.133-1.616-11.964-2.88v-9.403C354.714,186.729,354.688,186.31,354.65,185.895z   M338.68,189.632v16.262c0,4.86-1.927,9.396-5.425,12.771c-3.495,3.375-8.127,5.12-12.975,4.963  c-9.423-0.335-17.091-8.567-17.091-18.351v-15.645L338.68,189.632L338.68,189.632z M302.905,173.599h-2.194  c-3.348,0-6.411,1.226-8.779,3.245c-9.358-3.3-18.363-6.622-26.741-9.854C279.139,168.594,291.509,170.981,302.905,173.599z   M195.213,447.173c0,7.689-6.255,13.945-13.946,13.945c-7.689,0-13.945-6.256-13.945-13.945v-25.829  c8.946,3.535,18.269,6.318,27.891,8.272V447.173z M289.65,479.909c0,7.689-6.255,13.945-13.946,13.945  c-7.689,0-13.945-6.256-13.945-13.945v-50.293c9.622-1.954,18.945-4.737,27.891-8.272V479.909z M228.485,416.917  c-82.97,0-150.471-67.29-150.471-150.003c0-24.06,5.967-52.276,16.836-79.927c11.999-1.439,24.181-4.567,37.34-7.962  c23.794-6.139,50.545-13.034,87.607-13.983c15.385,7.61,39.56,17.341,67.358,27.12v13.118c0,18.317,14.604,33.736,32.554,34.374  c0.416,0.015,0.829,0.022,1.244,0.022c8.797,0,17.079-3.336,23.435-9.469c4.935-4.763,8.222-10.74,9.596-17.282  c7.228,1.818,13.203,3.077,17.873,3.764c4.633,17.621,7.101,34.782,7.101,50.229C378.958,349.626,311.456,416.917,228.485,416.917z   M440.845,304.616c-19.357,12.572-40.15,15.546-54.704,15.738c3.12-9.128,5.464-18.612,6.953-28.372  c12.237-1.206,23.578-4.923,32.558-10.756c6.615-4.295,12.169-9.865,16.61-16.569l28.232,6.935  C463.414,285.32,453.477,296.411,440.845,304.616z M487.903,221.419c3.597,5.76,4.686,12.563,3.067,19.156L486.443,259  l-48.424-11.896l4.363-17.76c3.28-13.356,16.571-21.923,29.635-19.087C478.667,211.698,484.308,215.662,487.903,221.419z   M228.485,193.512c-41.297,0-65.951,21.784-65.951,58.273c0,19.957,7.224,51.546,17.566,76.815  c9.653,23.586,25.884,51.704,48.386,51.704s38.732-28.117,48.386-51.704c10.343-25.271,17.566-56.858,17.566-76.815  C294.436,215.297,269.782,193.512,228.485,193.512z M228.485,364.271c-22.971,0-49.918-74.351-49.918-112.486  c0-19.269,8.66-42.24,49.918-42.24c41.258,0,49.918,22.97,49.918,42.24C278.403,289.921,251.456,364.271,228.485,364.271z   M259.535,229.127c-4.428,0-8.017,3.588-8.017,8.017c0,4.14-3.367,7.507-7.507,7.507c-4.14,0-7.508-3.367-7.508-7.507  c0-4.428-3.588-8.017-8.017-8.017c-4.428,0-8.017,3.588-8.017,8.017c0,4.14-3.367,7.507-7.507,7.507  c-4.14,0-7.507-3.367-7.507-7.507c0-4.428-3.588-8.017-8.017-8.017c-4.428,0-8.017,3.588-8.017,8.017  c0,12.98,10.561,23.54,23.54,23.54c5.942,0,11.377-2.213,15.524-5.858c4.147,3.645,9.583,5.858,15.525,5.858  c12.981,0,23.54-10.561,23.54-23.54C267.551,232.715,263.963,229.127,259.535,229.127z M136.036,193.539  c-4.427,0-8.017,3.588-8.017,8.017v4.339c0,4.428,3.589,8.017,8.017,8.017c4.428,0,8.017-3.588,8.017-8.017v-4.339  C144.053,197.128,140.464,193.539,136.036,193.539z"/>
<g>
</g>
<g>
</g>
<g>
</g>
<g>
</g>
<g>
</g>
<g>
</g>
<g>
</g>
<g>
</g>
<g>
</g>
<g>
</g>
<g>
</g>
<g>
</g>
<g>
</g>
<g>
</g>
<g>
</g>
</svg>
