<?xml version="1.0" encoding="iso-8859-1"?>
<!-- Generator: Adobe Illustrator 19.0.0, SVG Export Plug-In . SVG Version: 6.00 Build 0)  -->
<svg xmlns="http://www.w3.org/2000/svg" xmlns:xlink="http://www.w3.org/1999/xlink" version="1.1" id="Capa_1" x="0px" y="0px" viewBox="0 0 512.003 512.003" style="enable-background:new 0 0 512.003 512.003;" xml:space="preserve">
<g>
	<path style="fill:#F3C74F;" d="M382.712,309.077c-5.723,0-11.457-2.099-15.95-6.335c-9.348-8.811-9.782-23.533-0.97-32.88   l95.283-101.079c8.81-9.348,23.533-9.782,32.88-0.971c9.348,8.812,9.782,23.534,0.97,32.881l-95.283,101.079   C395.066,306.625,388.894,309.077,382.712,309.077z"/>
	<path style="fill:#F3C74F;" d="M289.238,503.968c-12.846,0-23.261-10.414-23.261-23.261v-88.082   c0-12.846,10.414-23.261,23.261-23.261c12.846,0,23.261,10.414,23.261,23.261v88.082   C312.499,493.554,302.085,503.968,289.238,503.968z"/>
</g>
<path style="opacity:0.2;enable-background:new    ;" d="M289.238,369.367c-12.846,0-23.261,10.414-23.261,23.261v48.783  c16.425-2.623,32.053-7.616,46.52-14.625v-34.158C312.499,379.78,302.085,369.367,289.238,369.367z"/>
<path style="fill:#F3C74F;" d="M189.219,503.968c-12.846,0-23.261-10.414-23.261-23.261v-88.082  c0-12.846,10.414-23.261,23.261-23.261s23.261,10.414,23.261,23.261v88.082C212.48,493.554,202.066,503.968,189.219,503.968z"/>
<path style="opacity:0.2;enable-background:new    ;" d="M189.219,369.367c-12.846,0-23.261,10.414-23.261,23.261v34.158  c14.467,7.01,30.097,12.003,46.52,14.625v-48.783C212.48,379.78,202.066,369.367,189.219,369.367z"/>
<circle style="fill:#0081C6;" cx="114.661" cy="97.909" r="53.423"/>
<circle style="fill:#F3C74F;" cx="114.661" cy="97.909" r="24.942"/>
<path style="opacity:0.2;enable-background:new    ;" d="M146.243,54.832c-25.118,22.701-46.422,53.952-61.555,87.306  c8.548,5.805,18.863,9.199,29.974,9.199c29.504,0,53.423-23.918,53.423-53.423C168.085,80.227,159.484,64.556,146.243,54.832z"/>
<circle style="fill:#0081C6;" cx="363.793" cy="97.909" r="53.423"/>
<circle style="fill:#F3C74F;" cx="363.793" cy="97.909" r="24.942"/>
<path style="fill:#40BAB3;" d="M407.086,255.121c0-92.431-77.058-225.588-167.857-225.588c-90.8,0-167.857,133.157-167.857,225.588  s75.152,167.361,167.857,167.361C331.934,422.482,407.086,347.552,407.086,255.121z"/>
<path style="fill:#FFFFFF;" d="M74.199,285.816c14.46,77.769,82.843,136.667,165.03,136.667c82.188,0,150.57-58.897,165.031-136.667  H74.199z"/>
<path style="fill:#0081C6;" d="M103.914,354.149c30.551,41.436,79.779,68.333,135.315,68.333s104.764-26.897,135.315-68.333H103.914  z"/>
<path style="opacity:0.2;enable-background:new    ;" d="M257.029,404.682c-92.705,0-167.857-74.93-167.857-167.361  c0-55.646,27.935-126.042,69.978-173.268c-51.777,45.707-87.778,127.893-87.778,191.067c0,92.431,75.152,167.361,167.857,167.361  c50.97,0,96.628-22.656,127.414-58.411C337.233,389.377,298.924,404.682,257.029,404.682z"/>
<path style="fill:#593C00;" d="M69.231,335.604c6.513,14.925,14.943,28.831,24.983,41.407c5.955,7.459,15.009,11.769,24.553,11.769  h240.924c9.545,0,18.599-4.31,24.553-11.769c10.039-12.577,18.47-26.483,24.983-41.407c3.26-7.472-2.309-15.828-10.462-15.828  H79.693C71.54,319.776,65.971,328.132,69.231,335.604z"/>
<g>
	<path style="fill:#F0B0B7;" d="M184.848,235.034h-28.022c-4.436,0-8.032-3.595-8.032-8.032s3.596-8.032,8.032-8.032h28.022   c4.436,0,8.032,3.595,8.032,8.032S189.284,235.034,184.848,235.034z"/>
	<path style="fill:#F0B0B7;" d="M380.677,235.034h-28.022c-4.436,0-8.032-3.595-8.032-8.032s3.596-8.032,8.032-8.032h28.022   c4.437,0,8.032,3.595,8.032,8.032S385.114,235.034,380.677,235.034z"/>
</g>
<path style="fill:#F1A21E;" d="M391.955,152.656c4.557,0,7.995-4.141,7.166-8.624c-15.183-82.062-82.85-136-159.892-136  S94.52,61.97,79.337,144.033c-0.829,4.481,2.608,8.624,7.166,8.624h305.453V152.656z"/>
<path style="opacity:0.3;fill:#FFFFFF;enable-background:new    ;" d="M285.581,14.774c-2.885,5.525-4.756,11.695-5.334,18.291  c-2.345,26.809,17.486,50.442,44.295,52.788c16.185,1.416,31.204-5.259,41.088-16.664C345.001,43.05,317.081,24.171,285.581,14.774z  "/>
<path style="opacity:0.15;enable-background:new    ;" d="M399.121,144.032c-0.137-0.742-0.288-1.477-0.434-2.215H101.46  c-4.558,0-7.995-4.143-7.166-8.624c7.713-41.687,28.974-76.107,58.123-99.896c-36.769,23.521-64.103,62.209-73.081,110.735  c-0.829,4.481,2.608,8.624,7.166,8.624h305.453C396.513,152.656,399.95,148.514,399.121,144.032z"/>
<path style="fill:#F3D072;" d="M376.121,152.656c5.446,0,8.632-6.192,5.407-10.58c-12.852-17.488-49.618-47.163-115.55-47.163  c-65.932,0-102.699,29.675-115.55,47.163c-3.225,4.389-0.039,10.58,5.407,10.58H376.121z"/>
<path style="opacity:0.3;fill:#FFFFFF;enable-background:new    ;" d="M296.535,97.209c-0.646,2.062-1.088,4.221-1.284,6.462  c-1.462,16.708,10.898,31.438,27.606,32.899c13.68,1.196,26.028-6.875,30.858-19.008  C339.556,108.805,320.621,100.941,296.535,97.209z"/>
<path style="fill:#F3C74F;" d="M71.969,365.589c-2.34,0-4.72-0.357-7.068-1.105c-20.031-6.383-35.512-17.469-44.77-32.059  c-9.016-14.208-11.645-30.814-7.404-46.76c8.448-31.766,40.642-50.183,74.883-42.833c12.56,2.695,20.557,15.062,17.862,27.623  c-2.696,12.56-15.065,20.557-27.623,17.862c-11.558-2.48-18.457,2.887-20.164,9.306c-2.38,8.948,5.797,17.584,21.341,22.538  c12.239,3.901,19,16.986,15.1,29.224C90.974,359.276,81.825,365.588,71.969,365.589z"/>
<path style="fill:#F1A21E;" d="M189.536,368.89h-14.255c-3.831,0-6.937-3.106-6.937-6.937v-64.681h28.129v64.68  C196.473,365.784,193.367,368.89,189.536,368.89z"/>
<rect x="168.349" y="347.919" style="opacity:0.2;enable-background:new    ;" width="28.135" height="9.059"/>
<rect x="168.349" y="297.272" style="opacity:0.2;enable-background:new    ;" width="28.135" height="9.977"/>
<path style="fill:#5F666F;" d="M211.148,297.272h-57.479c-2.915,0-5.279-2.364-5.279-5.279v-21.042c0-2.915,2.364-5.279,5.279-5.279  h57.479c2.915,0,5.279,2.364,5.279,5.279v21.042C216.427,294.909,214.063,297.272,211.148,297.272z"/>
<path style="opacity:0.1;enable-background:new    ;" d="M215.835,292.585h-57.479c-2.915,0-5.279-2.364-5.279-5.279v-21.042  c0-0.184,0.035-0.359,0.055-0.538c-2.659,0.273-4.742,2.493-4.742,5.224v21.043c0,2.915,2.364,5.279,5.279,5.279h57.479  c2.731,0,4.952-2.082,5.225-4.741C216.193,292.549,216.02,292.585,215.835,292.585z"/>
<path style="opacity:0.2;fill:#FFFFFF;enable-background:new    ;" d="M210.694,265.672h-23.396  c0.953,9.989,9.363,17.804,19.601,17.804c3.457,0,6.702-0.896,9.526-2.461v-9.611C216.427,268.239,213.86,265.672,210.694,265.672z"/>
<path style="fill:#A27B5A;" d="M211.376,319.786h-57.935c-2.24,0-4.056,1.815-4.056,4.056v20.018c0,2.241,1.815,4.056,4.056,4.056  h57.935c2.239,0,4.056-1.815,4.056-4.056v-20.018C215.432,321.601,213.616,319.786,211.376,319.786z"/>
<path style="fill:#5F666F;" d="M313.913,281.472c0-5.084,6.439-20.793,9.238-27.382c0.763-1.796,2.524-2.956,4.476-2.956h9.997  c1.951,0,3.712,1.16,4.476,2.956c2.798,6.589,9.238,22.298,9.238,27.382c0,10.334-8.377,18.712-18.712,18.712  C322.29,300.184,313.913,291.807,313.913,281.472z"/>
<path style="opacity:0.2;fill:#FFFFFF;enable-background:new    ;" d="M342.098,254.09c-0.764-1.796-2.524-2.956-4.476-2.956h-2.843  c-2.658,3.035-4.282,7-4.282,11.351c0,9.53,7.725,17.255,17.255,17.255c1.149,0,2.27-0.118,3.356-0.332  C349.948,273.008,344.587,259.948,342.098,254.09z"/>
<path style="fill:#A27B5A;" d="M377.571,319.786h-89.893c-2.241,0-4.056,1.815-4.056,4.056v20.018c0,2.241,1.815,4.056,4.056,4.056  h89.893c2.239,0,4.056-1.815,4.056-4.056v-20.018C381.627,321.601,379.811,319.786,377.571,319.786z"/>
<path d="M500.769,206.201c5.734-6.082,8.756-14.033,8.509-22.388c-0.246-8.355-3.731-16.114-9.814-21.848  c-6.082-5.733-14.045-8.721-22.388-8.507c-8.356,0.248-16.114,3.732-21.845,9.814l-45.006,47.743  c-3.479-16.581-8.777-33.672-15.69-50.567c3.573-0.608,6.835-2.444,9.197-5.282c2.921-3.512,4.121-8.102,3.289-12.595  c-0.052-0.281-0.111-0.558-0.164-0.839c11.736-11.525,18.396-27.229,18.396-43.818c0-33.887-27.568-61.455-61.455-61.455  c-5.685,0-11.275,0.78-16.683,2.303C316.974,13.764,278.684,0,239.229,0c-39.454,0-77.744,13.764-107.885,38.762  c-5.406-1.523-10.997-2.303-16.682-2.303c-33.887,0-61.455,27.568-61.455,61.455c0,16.612,6.656,32.294,18.395,43.818  c-0.052,0.281-0.111,0.558-0.164,0.839c-0.831,4.493,0.367,9.083,3.29,12.596c2.355,2.831,5.608,4.665,9.171,5.278  c-10.134,24.716-16.716,49.669-19.311,73.152c-28.393,2.99-52.147,21.897-59.624,50.004c-4.824,18.138-1.846,37.007,8.385,53.128  c10.281,16.203,27.265,28.447,49.112,35.409c3.091,0.985,6.29,1.485,9.508,1.485h0.001c3.026,0,5.958-0.452,8.751-1.261  c2.309,3.293,4.714,6.531,7.214,9.661c7.503,9.4,18.741,14.791,30.831,14.791h16.787c7.164,5.224,14.636,9.865,22.373,13.903v69.991  c0,17.255,14.037,31.293,31.293,31.293s31.293-14.037,31.293-31.293v-51.17c6.176,0.646,12.42,0.978,18.718,0.978  s12.541-0.331,18.716-0.977v51.169c0,17.255,14.037,31.293,31.293,31.293c17.255,0,31.293-14.037,31.293-31.293v-69.991  c7.738-4.04,15.213-8.678,22.377-13.903h16.782c12.09,0,23.327-5.391,30.83-14.791c10.558-13.227,19.329-27.763,26.068-43.207  c2.607-5.973,2.024-12.805-1.557-18.274c-2.356-3.6-5.773-6.243-9.69-7.649c0.962-2.746,1.853-5.511,2.674-8.295L500.769,206.201z   M466.92,174.291c2.789-2.959,6.564-4.654,10.631-4.774c4.049-0.146,7.935,1.349,10.894,4.138c2.96,2.791,4.657,6.567,4.777,10.634  c0.12,4.065-1.35,7.934-4.14,10.894l-75.065,79.632c0.726-6.501,1.103-13.068,1.103-19.692c0-7.789-0.535-15.898-1.566-24.218  L466.92,174.291z M363.796,52.524c25.028,0,45.39,20.363,45.39,45.39c0,8.741-2.511,17.147-7.091,24.343  c-8.003-26.543-21.626-50.163-40.204-69.692C362.525,52.539,363.16,52.524,363.796,52.524z M191.157,23.661v14.028  c0,4.437,3.596,8.032,8.032,8.032s8.032-3.595,8.032-8.032V19.365c7.789-1.633,15.796-2.676,23.975-3.091V44.41  c0,4.436,3.596,8.032,8.032,8.032s8.032-3.596,8.032-8.032V16.275c8.179,0.414,16.186,1.458,23.975,3.091v18.323  c0,4.437,3.595,8.032,8.032,8.032c4.437,0,8.032-3.595,8.032-8.032V23.661c52.506,17.179,92.57,62.157,103.758,120.962h-0.274  c-0.241-2.589-1.173-5.113-2.782-7.304c-6.19-8.422-41.163-50.439-122.024-50.439c-80.86,0-115.833,42.016-122.022,50.439  c-1.61,2.191-2.543,4.716-2.783,7.304H87.399C98.587,85.818,138.651,40.84,191.157,23.661z M373.345,144.623H158.613  c24.411-30.7,72.748-41.678,107.365-41.678C300.597,102.945,348.934,113.924,373.345,144.623z M76.36,122.263  c-4.581-7.193-7.089-15.596-7.089-24.349c0-25.028,20.363-45.39,45.39-45.39c0.636,0,1.271,0.015,1.904,0.042  C97.987,72.096,84.364,95.718,76.36,122.263z M86.473,346.946c-2.022,6.347-7.851,10.61-14.503,10.611  c-1.56,0-3.118-0.245-4.629-0.726C49.13,351.027,35.15,341.1,26.914,328.12c-7.801-12.292-10.082-26.636-6.424-40.392  c6.234-23.442,27.525-38.465,52.2-38.465c4.328,0,8.763,0.463,13.235,1.422c3.977,0.854,7.384,3.204,9.593,6.621  c2.209,3.415,2.955,7.486,2.101,11.464c-0.854,3.977-3.204,7.382-6.621,9.591c-3.416,2.209-7.488,2.955-11.464,2.102  c-16.634-3.572-27.012,5.322-29.613,15.094c-2.816,10.59,2.71,24.623,26.664,32.255C84.589,330.364,89.023,338.945,86.473,346.946z   M71.51,308.059c-4.386-2.743-6.746-5.804-6.063-8.372c0.382-1.436,1.379-2.507,2.835-3.17  C69.226,300.399,70.302,304.249,71.51,308.059z M89.801,311.744c-1.867-4.895-3.491-9.888-4.863-14.948  c5.21-0.361,10.275-2.029,14.784-4.945c7.02-4.539,11.851-11.539,13.606-19.71c1.754-8.174,0.221-16.539-4.319-23.558  c-4.539-7.019-11.539-11.849-19.71-13.604c-2.865-0.615-5.714-1.05-8.543-1.347c2.778-23.351,9.771-48.299,20.481-72.943h275.97  c14.096,32.466,21.849,65.848,21.849,94.434c0,19.551-3.502,38.57-10.395,56.622h-34.488c-1.018-4.282-2.021-8.045-2.911-11.115  c4.996-4.862,8.108-11.651,8.108-19.157c0-1.799,0-7.272-9.879-30.525c-2.026-4.766-6.684-7.845-11.868-7.845h-9.997  c-5.184,0-9.842,3.079-11.87,7.847c-9.877,23.249-9.877,28.724-9.877,30.523c0,7.505,3.112,14.294,8.108,19.156  c-0.89,3.068-1.891,6.832-2.911,11.115H204.506v-6.439h6.642c7.341,0,13.311-5.972,13.311-13.312V270.95  c0-7.341-5.972-13.311-13.311-13.311h-57.479c-7.341,0-13.311,5.971-13.311,13.311v21.042c0,7.341,5.972,13.312,13.311,13.312h6.642  v6.439h-70.51V311.744z M377.571,327.808v0.01c-0.032,0-0.061-0.009-0.093-0.01H377.571z M332.625,292.152  c-5.876,0-10.661-4.772-10.68-10.644c0.087-1.55,1.839-8.144,7.782-22.34h5.795c5.966,14.253,7.709,20.839,7.783,22.305  C343.305,287.361,338.513,292.152,332.625,292.152z M337.629,311.744h-10.007c0.345-1.359,0.682-2.635,1.007-3.827  c1.304,0.196,2.639,0.3,3.997,0.3c1.358,0,2.692-0.104,3.996-0.3C336.946,309.109,337.283,310.384,337.629,311.744z   M347.719,327.808c0.009,0,0.016,0.002,0.025,0.002c0.013,0,0.027-0.002,0.04-0.002h25.811v12.073h-81.94v-12.073h25.812  c0.013,0,0.027,0.002,0.04,0.002c0.009,0,0.016-0.002,0.025-0.002H347.719z M287.771,327.808c-0.032,0.001-0.061,0.01-0.093,0.01  v-0.01H287.771z M211.376,327.808v0.01c-0.032,0-0.061-0.009-0.093-0.01H211.376z M157.418,339.881v-12.073h49.982v12.073H157.418z   M188.441,355.946v4.91h-12.065v-4.91H188.441z M176.376,305.305h12.065v6.439h-12.065V305.305z M156.423,289.24v-15.536h51.972  v15.536H156.423z M153.534,327.808c-0.032,0.001-0.061,0.01-0.093,0.01v-0.01H153.534z M204.448,480.708  c0,8.396-6.831,15.228-15.228,15.228s-15.228-6.832-15.228-15.228v-62.615c9.841,3.925,20.022,6.939,30.457,9.016L204.448,480.708  L204.448,480.708z M304.467,480.708c0,8.396-6.832,15.228-15.228,15.228c-8.397,0-15.228-6.832-15.228-15.228v-53.599  c10.435-2.076,20.615-5.09,30.457-9.014V480.708z M239.229,414.45c-25.852,0-50.733-6.045-73.205-17.637h146.412  C289.968,408.406,265.09,414.45,239.229,414.45z M401.865,332.391c-6.177,14.155-14.217,27.481-23.899,39.609  c-4.437,5.558-11.099,8.748-18.275,8.748H118.767c-7.177,0-13.838-3.189-18.276-8.748c-2.065-2.586-4.059-5.253-5.985-7.963  c3.246-3.379,5.775-7.513,7.273-12.215c2.639-8.281,1.633-16.864-2.113-24.016h41.686v16.05c0,6.666,5.423,12.088,12.088,12.088  h6.87v6.006c0,8.254,6.715,14.969,14.969,14.969h14.256c8.254,0,14.969-6.715,14.969-14.969v-6.006h6.87  c6.666,0,12.088-5.423,12.088-12.088v-16.05h52.126v16.05c0,6.666,5.422,12.088,12.088,12.088h16.879  c-0.054,1.541-0.09,3.057-0.09,4.511c0,4.437,3.595,8.032,8.032,8.032s8.032-3.595,8.032-8.032c0-1.444,0.04-2.959,0.1-4.511h23.987  c0.061,1.551,0.1,3.066,0.1,4.511c0,4.437,3.595,8.032,8.032,8.032c4.437,0,8.032-3.595,8.032-8.032c0-1.455-0.036-2.971-0.09-4.511  h16.879c6.666,0,12.088-5.423,12.088-12.088v-16.05h9.105c1.645,0,2.525,1.073,2.828,1.535  C401.951,329.891,402.465,331.018,401.865,332.391z M170.837,198.527c4.436,0,8.032-3.595,8.032-8.032V185.9  c0-4.437-3.596-8.032-8.032-8.032s-8.032,3.595-8.032,8.032v4.594C162.805,194.932,166.401,198.527,170.837,198.527z   M366.666,198.527c4.437,0,8.032-3.595,8.032-8.032V185.9c0-4.437-3.595-8.032-8.032-8.032c-4.436,0-8.032,3.595-8.032,8.032v4.594  C358.634,194.932,362.229,198.527,366.666,198.527z M252.31,222.133c6.323,0,12.095-2.41,16.443-6.361  c4.348,3.951,10.118,6.361,16.442,6.361c13.495,0,24.475-10.98,24.475-24.475c0-4.437-3.595-8.032-8.032-8.032  c-4.437,0-8.032,3.595-8.032,8.032c0,4.637-3.772,8.41-8.409,8.41c-4.636,0-8.409-3.772-8.409-8.41c0-4.437-3.595-8.032-8.032-8.032  c-4.437,0-8.032,3.595-8.032,8.032c0,4.637-3.772,8.41-8.41,8.41c-4.637,0-8.409-3.772-8.409-8.41c0-4.437-3.596-8.032-8.032-8.032  s-8.032,3.595-8.032,8.032C227.835,211.154,238.813,222.133,252.31,222.133z"/>
<g>
</g>
<g>
</g>
<g>
</g>
<g>
</g>
<g>
</g>
<g>
</g>
<g>
</g>
<g>
</g>
<g>
</g>
<g>
</g>
<g>
</g>
<g>
</g>
<g>
</g>
<g>
</g>
<g>
</g>
</svg>
