<?xml version="1.0" encoding="iso-8859-1"?>
<!-- Generator: Adobe Illustrator 19.0.0, SVG Export Plug-In . SVG Version: 6.00 Build 0)  -->
<svg xmlns="http://www.w3.org/2000/svg" xmlns:xlink="http://www.w3.org/1999/xlink" version="1.1" id="Layer_1" x="0px" y="0px" viewBox="0 0 512 512" style="enable-background:new 0 0 512 512;" xml:space="preserve">
<polyline style="fill:#49618C;" points="181.728,352.591 181.728,419.008 154.093,419.008 63.769,419.008 38.909,419.008   38.909,280.287 "/>
<path style="fill:#52BED3;" d="M257.229,50.932v308.862c-13.261,0-26.279-0.639-38.983-1.876  C98.905,346.34,7.607,282.447,7.607,205.363c0-36.225,20.155-69.54,53.907-95.87c0.01-0.01,0.01-0.01,0.01-0.01  c38.08-29.706,93.457-50.541,156.722-56.675C230.95,51.571,243.968,50.932,257.229,50.932z"/>
<path style="fill:#2DADC1;" d="M257.229,264.512v95.282c-13.261,0-26.279-0.639-38.983-1.876  C98.905,346.34,7.607,282.447,7.607,205.363c0-36.225,20.155-69.54,53.907-95.87c-0.426,1.409-31.501,103.282,48.533,138.016  C145.289,262.798,203.2,265.89,257.229,264.512z"/>
<path style="fill:#EDD948;" d="M257.229,50.932v308.862c-13.261,0-26.279-0.639-38.983-1.876V52.808  C230.95,51.571,243.968,50.932,257.229,50.932z"/>
<path style="fill:#D6BF3C;" d="M257.229,264.512v95.282c-13.261,0-26.279-0.639-38.983-1.876v-93.285  C231.223,264.917,244.333,264.836,257.229,264.512z"/>
<circle style="fill:#EDD154;" cx="108.929" cy="415.793" r="45.282"/>
<path d="M257.229,43.326c-68.071,0-132.179,16.467-180.512,46.369C27.245,120.3,0,161.378,0,205.36s27.245,85.06,76.717,115.665  c27.953,17.293,61.187,30.081,97.407,37.802v52.578h-12.503c-2.238-27.117-25.007-48.502-52.69-48.502s-50.452,21.385-52.69,48.502  h-9.729v-95.467c0-4.199-3.404-7.604-7.604-7.604s-7.604,3.405-7.604,7.604v103.071c0,4.199,3.404,7.604,7.604,7.604h18.254  c5.008,23.987,26.316,42.062,51.769,42.062c4.471,0,8.917-0.561,13.212-1.666c4.068-1.046,6.516-5.192,5.47-9.259  c-1.046-4.067-5.191-6.518-9.26-5.469c-3.058,0.787-6.228,1.185-9.422,1.185c-20.776,0-37.678-16.902-37.678-37.678  s16.902-37.678,37.678-37.678s37.678,16.902,37.678,37.678c0,7.552-2.223,14.834-6.43,21.061c-2.35,3.48-1.436,8.206,2.045,10.557  s8.207,1.436,10.557-2.045c3.865-5.721,6.529-12.075,7.918-18.75h21.028c4.2,0,7.604-3.405,7.604-7.604v-57.26  c21.857,3.722,44.644,5.646,67.897,5.646c4.2,0,7.604-3.405,7.604-7.604V50.93C264.833,46.731,261.428,43.326,257.229,43.326z   M249.625,352.116c-7.998-0.15-15.929-0.538-23.771-1.155v-187.6c0-4.199-3.404-7.604-7.604-7.604c-4.2,0-7.604,3.405-7.604,7.604  v186.101c-47.487-5.622-91.103-19.825-125.928-41.369c-44.824-27.73-69.51-64.215-69.51-102.732s24.686-75.001,69.51-102.732  c34.825-21.544,78.441-35.748,125.928-41.369v76.755c0,4.199,3.404,7.604,7.604,7.604c4.2,0,7.604-3.405,7.604-7.604V59.76  c7.842-0.615,15.773-1.005,23.771-1.155V352.116z"/>
<path d="M432.578,157.214l68.912,28.475c0.95,0.392,1.933,0.578,2.901,0.578c2.986,0,5.819-1.771,7.031-4.702  c1.604-3.881-0.242-8.328-4.123-9.932l-68.912-28.475c-3.88-1.605-8.327,0.243-9.932,4.123  C426.851,151.163,428.697,155.61,432.578,157.214z"/>
<path d="M290.754,98.609l120.101,49.628c0.95,0.392,1.933,0.578,2.901,0.578c2.986,0,5.819-1.771,7.031-4.702  c1.604-3.881-0.242-8.328-4.123-9.932L296.562,84.553c-3.881-1.604-8.327,0.243-9.932,4.123  C285.027,92.558,286.873,97.005,290.754,98.609z"/>
<path d="M507.298,281.266l-210.735-87.081c-3.881-1.604-8.327,0.243-9.932,4.123c-1.604,3.881,0.242,8.328,4.123,9.932  l210.735,87.081c0.95,0.392,1.933,0.578,2.901,0.578c2.986,0,5.819-1.771,7.031-4.702  C513.026,287.316,511.179,282.869,507.298,281.266z"/>
<path d="M507.298,390.897l-60.683-25.076c-3.879-1.604-8.327,0.243-9.932,4.123c-1.604,3.881,0.242,8.328,4.123,9.932l60.683,25.076  c0.95,0.392,1.933,0.578,2.901,0.578c2.986,0,5.819-1.771,7.031-4.702C513.026,396.948,511.179,392.501,507.298,390.897z"/>
<path d="M422.92,356.03l-126.358-52.214c-3.881-1.604-8.327,0.243-9.932,4.123c-1.604,3.881,0.242,8.328,4.123,9.932l126.358,52.214  c0.95,0.392,1.933,0.578,2.901,0.578c2.986,0,5.819-1.771,7.031-4.702C428.648,362.081,426.801,357.634,422.92,356.03z"/>
<g>
</g>
<g>
</g>
<g>
</g>
<g>
</g>
<g>
</g>
<g>
</g>
<g>
</g>
<g>
</g>
<g>
</g>
<g>
</g>
<g>
</g>
<g>
</g>
<g>
</g>
<g>
</g>
<g>
</g>
</svg>
