<?xml version="1.0" encoding="iso-8859-1"?>
<!-- Generator: Adobe Illustrator 19.0.0, SVG Export Plug-In . SVG Version: 6.00 Build 0)  -->
<svg xmlns="http://www.w3.org/2000/svg" xmlns:xlink="http://www.w3.org/1999/xlink" version="1.1" id="Capa_1" x="0px" y="0px" viewBox="0 0 512 512" style="enable-background:new 0 0 512 512;" xml:space="preserve">
<g>
	<path style="fill:#F3C74F;" d="M362.266,298.29c-4.396,0-8.671-0.736-12.83-2.212c-11.857-4.21-18.056-17.236-13.846-29.093   c3.963-11.162,15.737-17.312,26.997-14.481c2.904-1.035,10.639-5.565,22.286-18.306c10.174-11.129,17.646-22.264,19.048-25.033   c5.534-11.689,15.488-19.554,28.74-22.657c9.019-2.112,19.269-2.017,32.258,0.298c12.388,2.206,20.641,14.038,18.434,26.425   c-2.208,12.387-14.043,20.632-26.427,18.435c-7.19-1.283-11.048-1.185-12.852-0.969c-4.902,9.132-17.081,25.708-30.096,39.038   C395.43,288.731,378.095,298.29,362.266,298.29z"/>
	<path style="fill:#F3C74F;" d="M134.996,503.906c-10.722,0-20.275-7.604-22.356-18.525c-2.355-12.36,5.757-24.29,18.118-26.643   c14.123-2.69,29.322-23.168,29.322-61.773c0-12.584,10.201-22.783,22.783-22.783c12.584,0,22.783,10.201,22.783,22.783   c0,28.414-6.423,53.414-18.576,72.295c-11.891,18.475-28.862,30.634-47.786,34.239C137.844,503.773,136.41,503.906,134.996,503.906   z"/>
</g>
<path style="opacity:0.2;enable-background:new    ;" d="M182.863,374.182c-12.584,0-22.783,10.201-22.783,22.783  c0,15.04-2.314,27.316-5.966,36.873c13.96,5.785,28.834,9.688,44.272,11.433c4.782-14.357,7.26-30.672,7.26-48.306  C205.646,384.382,195.447,374.182,182.863,374.182z"/>
<path style="fill:#F3C74F;" d="M299.623,503.905c-1.263,0-2.542-0.105-3.828-0.323c-12.407-2.099-20.763-13.858-18.664-26.266  c5.761-34.045-13.204-51.856-27.053-64.86c-2.751-2.584-5.349-5.023-7.568-7.458c-8.479-9.297-7.816-23.707,1.481-32.186  c9.298-8.479,23.708-7.817,32.186,1.482c1.033,1.131,3.006,2.985,5.095,4.946c16.432,15.433,50.623,47.542,40.786,105.679  C320.177,496.039,310.536,503.905,299.623,503.905z"/>
<path style="opacity:0.2;enable-background:new    ;" d="M281.273,379.24c-2.089-1.961-4.062-3.815-5.095-4.946  c-8.478-9.298-22.888-9.961-32.186-1.482c-9.297,8.479-9.961,22.889-1.481,32.186c2.22,2.436,4.818,4.875,7.568,7.458  c6.977,6.553,15.25,14.329,21.008,24.783c14.652-5.066,28.286-12.118,40.628-20.793C302.324,399.02,289.548,387.012,281.273,379.24z  "/>
<path style="fill:#0098A6;" d="M383.862,105.045c0.109-2.612-2.182-4.648-4.772-4.303c-1.862,0.248-3.761,0.378-5.691,0.378  c-23.727,0-42.962-19.235-42.962-42.962c0-1.012,0.037-2.016,0.108-3.01c0.181-2.539-2.008-4.657-4.539-4.386  c-0.017,0.002-0.035,0.003-0.052,0.005c-29.405,3.178-50.477,30.137-46.145,59.672c4.001,27.276,29.025,46.963,56.48,44.469  C362.82,152.496,382.785,130.773,383.862,105.045z"/>
<path style="fill:#F3C74F;" d="M355.864,100.167c-0.112-1.034-0.294-2.042-0.527-3.028c-8.366-3.883-15.276-10.371-19.675-18.432  c-2.167-0.367-4.418-0.452-6.712-0.204c-13.415,1.449-23.113,13.5-21.664,26.914c1.449,13.415,13.5,23.113,26.914,21.664  C347.615,125.631,357.315,113.581,355.864,100.167z"/>
<circle style="fill:#0098A6;" cx="80.618" cy="129.915" r="52.331"/>
<circle style="fill:#F3C74F;" cx="80.618" cy="129.915" r="24.431"/>
<path style="opacity:0.2;enable-background:new    ;" d="M106.838,84.636c-22.071,24.751-39.529,57.426-50.755,91.501  c8.935,4.753,19.338,6.972,30.157,5.803c28.733-3.105,49.508-28.915,46.402-57.648C130.782,107.067,120.756,92.71,106.838,84.636z"/>
<path style="fill:#4EBF8C;" d="M384.98,241.35c-9.728-90.012-98.784-211.574-187.208-202.018  c-88.423,9.556-149.45,147.34-139.722,237.351c9.728,90.012,90.8,155.071,181.079,145.314  C329.409,412.24,394.708,331.362,384.98,241.35z"/>
<path style="fill:#FFFFFF;" d="M64.035,306.277c22.266,74.213,95.058,124.371,175.095,115.721  c80.037-8.65,140.431-73.203,146.328-150.459L64.035,306.277z"/>
<path style="fill:#0098A6;" d="M100.163,369.695c34.113,37.137,84.883,58.149,138.966,52.304  c54.083-5.845,99.191-37.22,124.583-80.787L100.163,369.695z"/>
<path style="opacity:0.2;enable-background:new    ;" d="M254.59,402.791c-90.279,9.757-171.351-55.302-181.079-145.314  c-5.469-50.604,11.437-116.293,42.99-165.82c3.664,9.307,11.344,16.593,20.913,19.711c3.64,17.22,18.921,30.144,37.224,30.144  c16.79,0,31.029-10.878,36.081-25.968c3.943,1.244,8.14,1.919,12.495,1.919c22.914,0,41.488-18.575,41.488-41.488  c0-9.516-3.212-18.277-8.599-25.277c-18.886-9.097-38.624-13.494-58.332-11.364c-28.004,3.026-53.251,18.928-74.381,42.089  c0.01-0.014,0.021-0.029,0.03-0.043c-0.091,0.098-0.177,0.203-0.267,0.302c-1.24,1.364-2.465,2.752-3.676,4.165  c-0.191,0.222-0.381,0.447-0.571,0.67c-1.004,1.181-2,2.373-2.983,3.586c0.002,0.006,0.004,0.012,0.006,0.018  c-40.973,50.577-64.157,128.499-57.881,186.565c9.728,90.012,90.8,155.071,181.079,145.314  c49.636-5.365,91.715-32.233,117.932-70.293C331.085,379.444,295.39,398.381,254.59,402.791z"/>
<path style="fill:#C7E2EC;" d="M262.999,216.758c-7.583-0.493-13.759-5.596-16.001-12.395h-2.71  c-3.142,6.357-9.881,10.534-17.398,10.044c-5.223-0.34-9.769-2.877-12.835-6.637v110.953c0,5.741,4.654,10.395,10.395,10.395l0,0  c5.741,0,10.395-4.654,10.395-10.395v-50.58c0-5.741,4.654-10.395,10.395-10.395l0,0c5.741,0,10.395,4.654,10.395,10.395v16.832  c0,5.741,4.654,10.395,10.395,10.395l0,0c5.741,0,10.395-4.655,10.395-10.395v-72.979  C272.912,215.233,268.142,217.092,262.999,216.758z"/>
<g>
	<path style="fill:#8E78CF;" d="M139.465,248.53c-4.025,0-7.513-3-8.023-7.098c-0.55-4.436,2.6-8.479,7.035-9.03l27.239-3.381   c4.438-0.54,8.479,2.6,9.03,7.036c0.55,4.436-2.599,8.479-7.035,9.03l-27.239,3.381C140.134,248.509,139.797,248.53,139.465,248.53   z"/>
	<path style="fill:#8E78CF;" d="M354.183,245.953c-0.624,0-1.256-0.072-1.89-0.224l-26.695-6.386   c-4.348-1.039-7.029-5.408-5.99-9.755c1.04-4.347,5.411-7.028,9.755-5.989l26.695,6.386c4.348,1.039,7.029,5.408,5.99,9.755   C361.159,243.454,357.842,245.953,354.183,245.953z"/>
</g>
<path style="fill:#F3C74F;" d="M57.052,503.906c-8.144,0-16.02-4.376-20.122-12.063c-5.923-11.102-1.725-24.903,9.377-30.825  c3.071-1.638,13.513-10.059,18.943-49.621c3.966-28.899,3.637-62.7,3.396-87.381c-0.2-20.459-0.235-31.486,1.217-39.061  c2.371-12.357,14.308-20.45,26.669-18.081c12.352,2.371,20.446,14.301,18.084,26.653c-0.663,3.737-0.52,18.324-0.406,30.046  c0.254,26.089,0.603,61.819-3.817,94.022c-6.067,44.203-20.015,71.558-42.638,83.627C64.342,503.042,60.671,503.906,57.052,503.906z  "/>
<path style="fill:#F0B0B7;" d="M227.669,21.335c-0.948,0-1.884,0.043-2.817,0.106c-8.022-8.23-19.221-13.348-31.621-13.348  c-17.294,0-32.256,9.946-39.505,24.425c-0.469-0.019-0.941-0.036-1.415-0.036c-18.61,0-33.695,15.086-33.695,33.696  c0,14.963,9.757,27.641,23.253,32.037c3.64,17.22,18.921,30.144,37.224,30.144c16.789,0,31.029-10.878,36.081-25.968  c3.943,1.244,8.14,1.919,12.495,1.919c22.914,0,41.488-18.575,41.488-41.488S250.581,21.335,227.669,21.335z"/>
<path style="opacity:0.1;enable-background:new    ;" d="M187.066,120.896c-16.205,0-30.041-10.132-35.526-24.406  c-1.346-3.501-3.935-6.332-7.235-8.112c-10.547-5.692-17.715-16.838-17.715-29.664c0-3.764-0.43-8.289-0.958-13.105  c-4.395,5.692-7.016,12.823-7.016,20.57c0,14.963,9.757,27.641,23.253,32.037c3.64,17.22,18.921,30.144,37.224,30.144  c7.835,0,15.098-2.392,21.148-6.453C195.863,121.406,191.376,120.896,187.066,120.896z"/>
<g style="opacity:0.1;">
	<path d="M160.005,93.871c-0.78,0-1.573-0.113-2.359-0.353c-4.277-1.302-6.689-5.823-5.386-10.099   c3.157-10.373,7.622-21.222,24.153-29.835c3.964-2.069,8.852-0.527,10.918,3.438c2.066,3.965,0.527,8.853-3.438,10.918   c-11.058,5.762-13.572,11.735-16.146,20.191C166.684,91.622,163.475,93.871,160.005,93.871z"/>
	<path d="M203.936,48.877c-1.58,0-3.176-0.462-4.578-1.425c-2.586-1.776-7.944-3.892-18.793-3.892c-0.029,0-0.057,0-0.086,0h-0.237   c-4.47,0-8.094-3.623-8.094-8.094s3.624-8.094,8.094-8.094h0.221c0.033,0,0.067,0,0.1,0c12.052,0,21.46,2.267,27.967,6.74   c3.683,2.533,4.617,7.572,2.085,11.255C209.044,47.65,206.512,48.877,203.936,48.877z"/>
	<path d="M223.969,89.471c-1.744,0-3.502-0.561-4.982-1.719c-2.77-2.168-12.537-6.128-15.193-6.39   c-4.424-0.08-7.972-3.705-7.945-8.142c0.027-4.47,3.681-8.065,8.143-8.045c6.449,0.038,20.284,6.159,24.972,9.826   c3.52,2.755,4.142,7.843,1.387,11.363C228.753,88.404,226.374,89.471,223.969,89.471z M203.858,81.364c0.013,0,0.025,0,0.038,0   C203.883,81.364,203.87,81.364,203.858,81.364z"/>
</g>
<path style="opacity:0.25;fill:#FFFFFF;enable-background:new    ;" d="M234.716,21.944c-3.94,4.682-6.319,10.722-6.319,17.32  c0,14.865,12.05,26.915,26.915,26.915c5.058,0,9.79-1.399,13.832-3.825C268.918,42.056,254.12,25.266,234.716,21.944z"/>
<path d="M486.249,191.569c-4.719-6.766-11.789-11.286-19.908-12.732c-14.11-2.515-25.397-2.583-35.524-0.21  c-15.694,3.674-27.5,12.992-34.153,26.95c-0.614,1.166-3.43,5.526-7.775,11.201c-4.867-20.678-13.12-42.275-24.258-63.382  c16.233-10.563,26.492-28.291,27.318-48.011c0.152-3.623-1.296-7.104-3.974-9.551c-2.696-2.463-6.324-3.602-9.958-3.115  c-1.525,0.203-3.079,0.306-4.619,0.306c-19.226,0-34.868-15.642-34.868-34.869c0-0.804,0.029-1.622,0.087-2.431  c0.258-3.61-1.092-7.127-3.706-9.649c-2.613-2.523-6.18-3.746-9.829-3.356c-14.121,1.526-27.208,8.027-36.977,18.138  c-3.942-2.945-7.917-5.695-11.916-8.23c-4.693-22.364-24.499-39.235-48.203-39.386C218.408,4.676,206.201,0,193.231,0  c-18.226,0-34.779,9.28-44.293,24.524c-21.472,1.722-38.418,19.747-38.418,41.655c0,4.281,0.656,8.437,1.868,12.369  c-11.355-7.009-24.832-10.149-38.264-8.706c-33.123,3.581-57.159,33.441-53.579,66.566c2.468,22.837,17.582,42.01,38.597,49.99  c-8.842,31.995-12.083,63.914-9.139,91.155c1.614,14.935,5.163,29.535,10.522,43.427c0.01,1.019,0.019,2.045,0.029,3.114  c0.239,24.43,0.564,57.888-3.322,86.203c-5.177,37.715-14.651,43.532-14.734,43.579c-15.021,8.014-20.723,26.756-12.709,41.777  C35.169,505.737,45.616,512,57.052,512c5.035,0,10.053-1.258,14.514-3.639c25.078-13.379,40.402-42.709,46.847-89.668  c0.908-6.61,1.61-13.355,2.163-20.126c9.419,6.761,19.462,12.526,29.956,17.237c-3.6,21.881-13.253,33.451-21.291,34.983  c-8.102,1.543-15.119,6.148-19.756,12.97c-4.637,6.82-6.341,15.039-4.798,23.139c2.77,14.547,15.516,25.105,30.306,25.105  c1.94,0,3.895-0.186,5.804-0.55c21.124-4.023,39.974-17.451,53.078-37.808c7.879-12.243,13.477-26.666,16.695-42.96  c3.649,0.233,7.309,0.356,10.978,0.356c6.137,0,12.299-0.329,18.45-0.993c4.809-0.52,9.547-1.243,14.214-2.141  c10.47,11.314,18.785,25.32,14.936,48.063c-2.84,16.787,8.506,32.756,25.291,35.596c1.708,0.289,3.45,0.436,5.18,0.436  c15.102,0,27.895-10.82,30.417-25.729c5.096-30.121-0.347-57.675-16.177-82.037c37.521-23.828,64.825-61.548,75.369-105.064  c9.888-5.153,20.141-13.131,30.538-23.779c12.001-12.291,22.945-26.771,28.997-36.643c1.634,0.115,3.844,0.372,6.747,0.89  c16.751,2.971,32.823-8.235,35.808-24.985C492.77,206.531,490.967,198.334,486.249,191.569z M363.633,108.269  c3.162,0.615,6.426,0.944,9.766,0.944c0.653,0,1.308-0.013,1.964-0.038c-1.756,12.254-8.553,23.093-18.697,30.051  c-0.983-1.65-1.967-3.3-2.985-4.938c-1.051-1.692-2.12-3.365-3.198-5.028C357.43,124.291,362.185,116.733,363.633,108.269z   M329.823,86.549c0.373-0.04,0.747-0.067,1.122-0.082c4.355,6.51,10.16,11.965,16.957,15.9c0.142,5.396-2.389,10.423-6.58,13.541  c-6.524-8.985-13.426-17.452-20.612-25.293C323.223,88.375,326.39,86.92,329.823,86.549z M322.361,59.53  c0.106,4.008,0.69,7.899,1.673,11.627c-5.507,1.313-10.538,4.044-14.633,7.861c-2.851-2.746-5.735-5.394-8.648-7.933  C306.714,65.3,314.209,61.271,322.361,59.53z M152.311,40.577c0.365,0,0.727,0.015,1.088,0.029c3.167,0.135,6.14-1.618,7.564-4.465  c6.162-12.307,18.527-19.953,32.268-19.953c9.8,0,18.971,3.872,25.824,10.901c1.654,1.698,3.969,2.574,6.335,2.427  c0.895-0.06,1.618-0.087,2.278-0.087c18.413,0,33.394,14.98,33.394,33.394s-14.98,33.393-33.394,33.393  c-3.431,0-6.815-0.519-10.059-1.543c-4.209-1.326-8.709,0.963-10.111,5.149c-4.095,12.227-15.51,20.443-28.406,20.443  c-14.074,0-26.398-9.977-29.305-23.724c-0.598-2.831-2.661-5.126-5.412-6.022c-10.567-3.443-17.666-13.226-17.666-24.343  C126.709,52.061,138.194,40.577,152.311,40.577z M36.64,134.668c-2.62-24.25,14.975-46.11,39.225-48.731  c9.861-1.071,19.76,1.251,28.092,6.419c-2.301,3.105-4.553,6.306-6.75,9.6c-5.974-3.541-13.003-5.138-20.083-4.378  c-17.83,1.927-30.768,18.002-28.842,35.831c1.291,11.941,8.978,21.881,19.527,26.405c-1.374,3.65-2.676,7.341-3.918,11.061  C49.032,164.812,38.408,151.023,36.64,134.668z M88.66,115.702c-5.353,9.216-10.3,18.965-14.748,29.114  c-5.158-2.324-8.898-7.249-9.536-13.147c-0.967-8.955,5.531-17.029,14.487-17.997C82.304,113.294,85.721,114.039,88.66,115.702z   M106.669,292.003c-0.006,0.036-0.013,0.072-0.019,0.109c-0.737,4.159-0.689,15.164-0.53,31.553  c0.251,25.836,0.596,61.218-3.743,92.827c-5.688,41.447-18.259,66.826-38.431,77.586c-2.155,1.15-4.474,1.733-6.894,1.733  c-5.447,0-10.42-2.981-12.98-7.779c-3.813-7.147-1.1-16.062,6.048-19.876c14.563-7.771,20.756-38.208,23.151-55.66  c4.047-29.489,3.715-63.631,3.471-88.561c-0.189-19.364-0.232-30.653,1.074-37.457c1.348-7.022,7.521-11.921,14.425-11.921  c0.914,0,1.84,0.085,2.77,0.263C102.959,276.346,108.189,284.055,106.669,292.003z M180.264,464.88  c-10.679,16.592-25.77,27.483-42.498,30.669c-0.914,0.175-1.845,0.263-2.77,0.263c-7.028,0-13.086-5.024-14.404-11.945  c-0.735-3.854,0.076-7.764,2.283-11.008c2.206-3.245,5.544-5.436,9.398-6.171c8.639-1.645,16.809-7.761,23.001-17.22  c4.875-7.444,8.477-16.874,10.612-27.639c9.283,3.148,18.828,5.519,28.53,7.061C191.56,442.615,186.819,454.695,180.264,464.88z   M314.079,483.568c-1.2,7.094-7.28,12.243-14.456,12.243c-0.826,0-1.659-0.07-2.477-0.208c-7.986-1.352-13.384-8.949-12.033-16.935  c4.228-24.99-3.504-42.324-13.372-55.097c9.767-2.966,19.135-6.761,28.037-11.298C313.904,433.525,318.588,456.918,314.079,483.568z   M238.26,413.95c-41.881,4.535-84.09-8.159-116.484-34.875c0.869-20.169,0.686-39.674,0.531-55.643  c-0.086-8.878-0.246-25.373,0.276-28.461c3.15-16.686-7.837-32.847-24.525-36.049c-12.995-2.489-25.68,3.599-32.195,14.281  c-5.219-57.022,18.484-131.135,56.372-178.007c3.622,3.75,7.955,6.858,12.867,9.07c6.006,18.896,23.833,32.188,43.989,32.188  c17.352,0,32.963-9.656,40.839-24.653c2.55,0.4,5.135,0.603,7.737,0.603c24.104,0,44.235-17.291,48.666-40.118  c23.304,16.887,45.538,41.473,63.594,70.541c20.504,33.011,33.645,68.308,37.005,99.391  C386.165,327.651,323.958,404.688,238.26,413.95z M475.386,211.812c-1.42,7.968-9.062,13.3-17.035,11.887  c-6.367-1.137-11.491-1.484-15.237-1.039c-2.619,0.314-4.922,1.884-6.17,4.209c-4.484,8.354-16.087,24.236-28.757,37.211  c-5.178,5.303-10.251,9.824-15.183,13.54c1.326-12.112,1.385-24.541,0.023-37.14c-0.101-0.941-0.242-1.897-0.359-2.846  c9.592-10.818,16.802-21.51,18.475-24.814c0.032-0.064,0.064-0.127,0.094-0.192c4.456-9.413,12.504-15.719,23.271-18.24  c7.91-1.854,17.123-1.731,28.994,0.385c3.863,0.689,7.226,2.839,9.471,6.057C475.216,204.049,476.073,207.948,475.386,211.812z   M353.852,183.35c-3.161-3.162-8.286-3.161-11.447-0.001l-1.3,1.3l-1.3-1.3c-3.161-3.16-8.286-3.161-11.447,0.001  c-3.161,3.161-3.161,8.286,0,11.447l1.299,1.299l-1.299,1.299c-3.161,3.161-3.161,8.286,0,11.446  c1.58,1.581,3.652,2.371,5.723,2.371c2.071,0,4.143-0.79,5.723-2.37l1.3-1.3l1.3,1.3c1.58,1.58,3.652,2.37,5.723,2.37  c2.071,0,4.143-0.79,5.723-2.371c3.161-3.161,3.161-8.286,0-11.446l-1.299-1.299l1.299-1.299  C357.014,191.636,357.014,186.511,353.852,183.35z M162.264,193.459l-1.51-1.049l1.049-1.51c2.55-3.671,1.641-8.715-2.03-11.265  c-3.671-2.551-8.716-1.641-11.266,2.029l-1.049,1.511l-1.51-1.049c-3.671-2.55-8.716-1.64-11.265,2.029  c-2.55,3.671-1.641,8.715,2.03,11.265l1.51,1.049l-1.049,1.51c-2.55,3.671-1.641,8.715,2.03,11.265  c1.407,0.978,3.016,1.448,4.61,1.448c2.562,0,5.082-1.214,6.654-3.477l1.049-1.511l1.51,1.049c1.407,0.978,3.016,1.448,4.61,1.448  c2.562,0,5.082-1.214,6.654-3.477C166.844,201.052,165.935,196.009,162.264,193.459z M282.755,191.802  c-4.466-0.278-8.313,3.09-8.603,7.551c-0.357,5.503-5.111,9.699-10.627,9.329c-5.502-0.358-9.686-5.125-9.328-10.628  c0.012-0.179,0.017-0.356,0.017-0.533c0.001-4.23-3.286-7.791-7.568-8.07c-4.461-0.278-8.312,3.09-8.603,7.551  c-0.174,2.666-1.374,5.105-3.381,6.865c-2.007,1.762-4.578,2.637-7.245,2.463c-2.666-0.173-5.104-1.374-6.865-3.381  c-1.762-2.007-2.637-4.58-2.463-7.246c0.29-4.461-3.091-8.312-7.551-8.603c-4.46-0.299-8.313,3.09-8.603,7.551  c-0.938,14.41,10.022,26.895,24.43,27.833c6.793,0.442,13.345-1.713,18.535-6.073c4.402,4.794,10.583,7.969,17.575,8.424  c0.576,0.037,1.147,0.056,1.716,0.056c13.67,0,25.215-10.655,26.116-24.486C290.596,195.944,287.215,192.093,282.755,191.802z"/>
<g>
</g>
<g>
</g>
<g>
</g>
<g>
</g>
<g>
</g>
<g>
</g>
<g>
</g>
<g>
</g>
<g>
</g>
<g>
</g>
<g>
</g>
<g>
</g>
<g>
</g>
<g>
</g>
<g>
</g>
</svg>
