<?xml version="1.0" encoding="iso-8859-1"?>
<!-- Generator: Adobe Illustrator 19.0.0, SVG Export Plug-In . SVG Version: 6.00 Build 0)  -->
<svg xmlns="http://www.w3.org/2000/svg" xmlns:xlink="http://www.w3.org/1999/xlink" version="1.1" id="Capa_1" x="0px" y="0px" viewBox="0 0 512.001 512.001" style="enable-background:new 0 0 512.001 512.001;" xml:space="preserve">
<g>
	<path style="fill:#F29C1F;" d="M84.395,259.527c-10.39,30.287-17.558,61.598-21.362,93.394   c-26.738-1.73-47.006-24.814-45.276-51.552c1.66-25.538,22.863-45.391,48.454-45.373C72.452,255.969,78.631,257.17,84.395,259.527z   "/>
	<path style="fill:#F29C1F;" d="M494.341,304.546c0.035,25.847-20.259,47.156-46.079,48.374   c-3.769-31.717-10.928-62.94-21.362-93.129c5.985-2.481,12.403-3.769,18.891-3.796c26.8-0.018,48.533,21.698,48.551,48.498   C494.341,304.511,494.341,304.529,494.341,304.546z"/>
</g>
<g>
	<path style="fill:#8697CB;" d="M503.169,172.135c0,12.191-9.878,22.06-22.069,22.069c-2.145-0.018-4.281-0.309-6.356-0.883   c1.315,3.063,1.977,6.373,1.942,9.71c0,14.627-11.864,26.482-26.491,26.482c-6.674,0-13.109-2.525-17.999-7.062l-0.088-0.088   c-2.03-7.592-4.325-15.36-6.885-23.216c-0.53-1.766-1.148-3.619-1.766-5.385c-0.441-1.501-0.971-3.09-1.501-4.59   c-0.106-0.512-0.256-1.015-0.441-1.501c-3.266-9.71-6.974-19.332-10.946-28.954c-5.208-12.623-10.92-25.043-17.125-37.252   c-3.619-7.238-7.503-14.389-11.476-21.186c-0.15-0.221-0.274-0.45-0.353-0.706c5.897-15.96,23.613-24.117,39.573-18.22   c10.893,4.025,18.591,13.833,19.924,25.37c11.723-12.358,31.249-12.879,43.608-1.156c6.153,5.835,9.631,13.947,9.622,22.431   c0.026,8.474-3.496,16.578-9.71,22.333C495.321,152.079,503.16,161.313,503.169,172.135z"/>
	<path style="fill:#8697CB;" d="M130.386,99.573c-0.079,0.256-0.203,0.486-0.353,0.706c-4.061,6.974-7.945,14.124-11.652,21.451   c-3.972,7.768-7.768,15.713-11.211,23.658c-2.03,4.414-3.884,8.827-5.738,13.329c-3.972,9.622-7.68,19.332-10.946,28.954   c-0.177,0.441-0.265,0.794-0.441,1.236c-0.53,1.589-1.059,3.178-1.501,4.679c-0.706,1.854-1.236,3.708-1.854,5.561   c-2.03,6.532-3.972,12.976-5.738,19.332c-0.353,1.324-0.706,2.56-1.059,3.884l-0.088,0.088c-10.725,9.949-27.48,9.313-37.428-1.421   c-4.537-4.89-7.053-11.326-7.062-17.999c-0.035-3.337,0.627-6.647,1.942-9.71c-2.066,0.574-4.202,0.865-6.356,0.883   c-12.191-0.009-22.077-9.896-22.069-22.095c0.009-10.822,7.856-20.047,18.538-21.777c-6.215-5.755-9.737-13.859-9.71-22.333   c-0.026-17.037,13.762-30.87,30.799-30.896c8.483-0.018,16.596,3.469,22.431,9.622c1.951-16.905,17.231-29.025,34.127-27.074   C116.563,80.983,126.37,88.68,130.386,99.573z"/>
</g>
<path style="fill:#F0C419;" d="M452.588,291.129c-1.306-11.802-3.222-23.525-5.738-35.133c-1.148-5.738-2.472-11.652-4.061-17.655  c-0.53-2.295-1.148-4.679-1.766-7.062l-0.088-0.088c-2.03-7.592-4.325-15.36-6.885-23.216c-0.971-3.266-2.119-6.621-3.266-9.975  c-0.106-0.512-0.256-1.015-0.441-1.501c-3.266-9.71-6.974-19.332-10.946-28.954c-5.208-12.623-10.92-25.043-17.125-37.252  c-3.619-7.238-7.503-14.389-11.476-21.186c-0.15-0.221-0.274-0.45-0.353-0.706c-6.003-10.505-12.447-20.48-19.067-29.925  c-0.971-1.236-1.765-2.383-2.648-3.619c-0.088-0.265-0.265-0.53-0.353-0.794c0-0.088,0-0.088-0.088-0.177  c-6.55-8.978-13.621-17.549-21.186-25.688C319.823,18.891,288.927,0,256.177,0c-26.694,1.148-52.126,11.714-71.767,29.837  c-6.647,5.685-12.985,11.723-18.979,18.096c-7.353,7.901-14.221,16.251-20.568,24.982h-0.177c-1.148,1.589-2.295,3.178-3.531,4.855  c-2.295,3.266-4.59,6.532-6.797,9.975c-4.59,6.885-8.916,14.036-13.153,21.362c-4.061,6.974-7.945,14.124-11.652,21.451  c-3.972,7.768-7.768,15.713-11.211,23.658c-2.03,4.414-3.884,8.827-5.738,13.329c-3.972,9.622-7.68,19.332-10.946,28.954  c-0.177,0.441-0.265,0.794-0.441,1.236c-1.148,3.443-2.295,6.885-3.354,10.24c-3.266,10.24-6.179,20.391-8.739,30.366  c-1.501,6.003-2.825,11.917-4.061,17.655c-2.489,11.608-4.37,23.331-5.65,35.133c-1.095,8.845-1.651,17.743-1.677,26.659  c1.148,108.366,89.899,195.298,198.264,194.204c108.366,1.095,197.117-85.838,198.264-194.204  C454.247,308.872,453.691,299.974,452.588,291.129z M163.313,344.27c-36.563-0.018-66.188-29.643-66.206-66.206  c-0.035-7.53,1.28-15.007,3.884-22.069c2.163-6.382,5.385-12.35,9.534-17.655c21.971-29.183,63.443-35.036,92.626-13.065  s35.036,63.443,13.065,92.626C203.716,334.524,184.119,344.288,163.313,344.27z M348.689,344.27  c-36.563,0.097-66.285-29.466-66.382-66.029c-0.097-36.563,29.466-66.285,66.029-66.382c20.903-0.053,40.597,9.763,53.141,26.482  c4.149,5.305,7.371,11.273,9.534,17.655c2.604,7.062,3.919,14.539,3.884,22.069C414.886,314.627,385.252,344.252,348.689,344.27z"/>
<g>
	<path style="fill:#464F5D;" d="M335.439,413.159c-1.227,0-2.445-0.256-3.566-0.759c-7.433-3.275-15.095-6.003-22.925-8.157   c-8.368-2.313-16.878-4.043-25.485-5.191c-18.229-2.41-36.696-2.41-54.933,0c-8.607,1.148-17.116,2.878-25.485,5.191   c-7.83,2.154-15.492,4.882-22.925,8.157c-4.449,1.986-9.675-0.009-11.652-4.467c-1.986-4.449,0.009-9.675,4.467-11.652   c0.009-0.009,0.026-0.009,0.035-0.018c8.218-3.628,16.693-6.647,25.352-9.03c9.145-2.525,18.458-4.423,27.859-5.676   c19.791-2.622,39.829-2.622,59.62,0c9.41,1.253,18.714,3.151,27.859,5.676c8.66,2.392,17.134,5.411,25.352,9.03   c4.458,1.977,6.462,7.194,4.484,11.652C342.104,411.102,338.934,413.159,335.439,413.159z"/>
	<path style="fill:#464F5D;" d="M176.563,432.544c-2.957,0.009-5.72-1.474-7.353-3.928c-17.134-25.705-6.779-47.395,1.103-55.277   c3.443-3.452,9.03-3.46,12.482-0.018c3.434,3.425,3.46,8.969,0.071,12.429c-1.315,1.404-11.926,13.638,1.033,33.068   c2.701,4.061,1.607,9.534-2.445,12.244C180.005,432.023,178.31,432.544,176.563,432.544z"/>
	<path style="fill:#464F5D;" d="M335.439,432.544c-4.873-0.009-8.827-3.964-8.819-8.836c0-1.739,0.521-3.443,1.483-4.89   c13.479-20.224,1.227-32.873,1.103-32.997c-3.425-3.46-3.399-9.057,0.062-12.482c3.443-3.407,8.978-3.407,12.42,0   c7.883,7.883,18.237,29.572,1.103,55.277C341.159,431.07,338.396,432.553,335.439,432.544z"/>
	<path style="fill:#464F5D;" d="M282.474,450.42c-2.048,0-4.034-0.715-5.614-2.021c-12.429-9.066-29.298-9.066-41.727,0   c-3.76,3.107-9.331,2.569-12.429-1.192c-3.107-3.76-2.569-9.331,1.192-12.429l0,0c18.855-14.759,45.347-14.759,64.202,0   c3.76,3.098,4.299,8.669,1.192,12.429C287.621,449.246,285.122,450.429,282.474,450.42L282.474,450.42z"/>
</g>
<g>
	<path style="fill:#2980BA;" d="M229.518,278.064c0,36.563-29.643,66.206-66.206,66.206s-66.206-29.643-66.206-66.206   c-0.035-7.53,1.28-15.007,3.884-22.069c2.163-6.382,5.385-12.35,9.534-17.655c21.874-29.219,63.293-35.177,92.512-13.303   C219.746,237.546,229.563,257.196,229.518,278.064z"/>
	<path style="fill:#2980BA;" d="M414.895,278.064c0.194,36.757-29.448,66.718-66.206,66.912   c-36.757,0.194-66.718-29.448-66.912-66.206c-0.194-36.757,29.448-66.718,66.206-66.912c21.009-0.115,40.845,9.701,53.494,26.482   c4.149,5.305,7.371,11.273,9.534,17.655C413.615,263.058,414.93,270.534,414.895,278.064z"/>
</g>
<g>
	<path style="fill:#2C3E50;" d="M167.726,300.133c-4.873,0-8.827-3.946-8.827-8.819v-0.009V273.65c0-4.873,3.955-8.827,8.827-8.827   c4.873,0,8.827,3.955,8.827,8.827v17.655c0,4.873-3.946,8.827-8.819,8.827C167.735,300.133,167.735,300.133,167.726,300.133z"/>
	<path style="fill:#2C3E50;" d="M344.275,300.133c-4.873,0-8.827-3.946-8.827-8.819v-0.009V273.65c0-4.873,3.955-8.827,8.827-8.827   c4.873,0,8.827,3.955,8.827,8.827v17.655c0,4.873-3.946,8.827-8.819,8.827C344.284,300.133,344.284,300.133,344.275,300.133z"/>
	<path style="fill:#2C3E50;" d="M284.619,270.649c-2.851,0.009-5.535-1.368-7.186-3.699c-8.536-11.829-25.052-14.495-36.881-5.958   c-2.295,1.651-4.308,3.663-5.959,5.958c-2.834,3.964-8.342,4.882-12.314,2.048c-3.964-2.834-4.882-8.342-2.048-12.314   c14.195-19.765,41.727-24.275,61.492-10.072c3.884,2.789,7.283,6.197,10.072,10.072c2.834,3.972,1.907,9.481-2.057,12.314   C288.239,270.075,286.447,270.649,284.619,270.649L284.619,270.649z"/>
</g>
<g>
	<path style="fill:#2980BA;" d="M110.525,238.341c-4.149,5.305-7.371,11.273-9.534,17.655H65.063   c1.236-5.738,2.56-11.652,4.061-17.655H110.525z"/>
	<path style="fill:#2980BA;" d="M446.85,255.996H411.01c-2.163-6.382-5.385-12.35-9.534-17.655h41.312   C444.378,244.343,445.702,250.258,446.85,255.996z"/>
</g>
<g>
</g>
<g>
</g>
<g>
</g>
<g>
</g>
<g>
</g>
<g>
</g>
<g>
</g>
<g>
</g>
<g>
</g>
<g>
</g>
<g>
</g>
<g>
</g>
<g>
</g>
<g>
</g>
<g>
</g>
</svg>
