<?xml version="1.0" encoding="iso-8859-1"?>
<!-- Generator: Adobe Illustrator 19.0.0, SVG Export Plug-In . SVG Version: 6.00 Build 0)  -->
<svg xmlns="http://www.w3.org/2000/svg" xmlns:xlink="http://www.w3.org/1999/xlink" version="1.1" id="Capa_1" x="0px" y="0px" viewBox="0 0 511.999 511.999" style="enable-background:new 0 0 511.999 511.999;" xml:space="preserve">
<rect x="239.007" y="214.43" style="fill:#3DAD4B;" width="33.988" height="98.49"/>
<path style="fill:#A27B5A;" d="M375.69,359.991H136.309l21.708,133.966c0.941,5.809,5.956,10.076,11.84,10.076h172.285  c5.884,0,10.899-4.269,11.84-10.076L375.69,359.991z"/>
<polygon style="opacity:0.2;enable-background:new    ;" points="136.309,359.991 141.458,391.766 370.541,391.766 375.69,359.991   "/>
<path style="fill:#3DAD4B;" d="M207.441,260.358c1.675,26.158,6.528,45.591,11.982,59.7c5.432,14.049-6.141,26.575-20.44,22.25  c-46.563-14.082-116.717-43.023-119.734-90.157c-1.674-26.158-6.528-45.591-11.982-59.7c-5.432-14.049,6.141-26.575,20.44-22.25  C134.27,184.284,204.424,213.225,207.441,260.358z"/>
<path style="opacity:0.1;enable-background:new    ;" d="M176.11,301.394c-2.208,0-4.405-0.912-5.979-2.699l-65.524-74.346  c-2.909-3.3-2.592-8.334,0.709-11.244c3.301-2.907,8.335-2.589,11.242,0.709l65.524,74.347c2.909,3.3,2.592,8.334-0.708,11.244  C179.86,300.739,177.98,301.394,176.11,301.394z"/>
<path style="opacity:0.1;enable-background:new    ;" d="M207.407,333.884c-46.563-14.082-116.717-43.023-119.734-90.157  c-1.674-26.158-6.528-45.591-11.982-59.7c-1.884-4.874-1.718-9.562-0.106-13.429c-7.731,3.221-12.06,12.176-8.318,21.854  c5.455,14.109,10.308,33.543,11.983,59.7c3.017,47.133,73.171,76.075,119.733,90.157c9.338,2.824,17.511-1.54,20.547-8.821  C216.039,334.943,211.855,335.23,207.407,333.884z"/>
<path style="fill:#3DAD4B;" d="M304.558,260.358c-1.675,26.158-6.528,45.591-11.982,59.7c-5.432,14.049,6.141,26.575,20.44,22.25  c46.563-14.082,116.717-43.023,119.734-90.157c1.675-26.158,6.528-45.591,11.982-59.7c5.432-14.049-6.141-26.575-20.44-22.25  C377.729,184.284,307.574,213.225,304.558,260.358z"/>
<path style="opacity:0.1;enable-background:new    ;" d="M323.638,336.645c-14.299,4.325-25.872-8.202-20.44-22.25  c5.455-14.108,10.308-33.543,11.982-59.7c1.664-25.994,23.75-46.452,51.034-61.938c-31.964,16.04-59.78,38.306-61.655,67.604  c-1.675,26.158-6.528,45.591-11.982,59.7c-5.432,14.049,6.141,26.575,20.44,22.25c20.883-6.316,46.51-15.624,68.7-28.218  C362.255,323.857,341.258,331.316,323.638,336.645z"/>
<path style="opacity:0.1;enable-background:new    ;" d="M335.889,301.394c-1.871,0-3.749-0.655-5.264-1.989  c-3.3-2.909-3.618-7.944-0.708-11.244l65.524-74.347c2.908-3.299,7.943-3.617,11.244-0.71c3.3,2.909,3.618,7.944,0.708,11.244  l-65.524,74.347C340.294,300.482,338.096,301.394,335.889,301.394z"/>
<path style="fill:#593C00;" d="M381.096,312.929H130.903c-6.414,0-11.613,5.199-11.613,11.613v36.077  c0,6.414,5.199,11.613,11.613,11.613h250.193c6.414,0,11.613-5.199,11.613-11.613v-36.077  C392.708,318.128,387.509,312.929,381.096,312.929z"/>
<path style="opacity:0.1;enable-background:new    ;" d="M144.357,358.778c-6.414,0-11.613-5.199-11.613-11.613v-34.236h-1.841  c-6.413,0-11.613,5.199-11.613,11.613v36.077c0,6.414,5.199,11.613,11.613,11.613h250.193c6.414,0,11.613-5.199,11.613-11.613  v-1.841H144.357z"/>
<circle style="fill:#0081C6;" cx="346.355" cy="50.63" r="37.461"/>
<circle style="fill:#F3C74F;" cx="346.355" cy="50.63" r="17.49"/>
<circle style="fill:#0081C6;" cx="165.647" cy="50.63" r="37.461"/>
<circle style="fill:#F3C74F;" cx="165.647" cy="50.63" r="17.489"/>
<path style="opacity:0.2;enable-background:new    ;" d="M190.177,22.33c-22.211,12.596-39.641,32.636-48.905,56.731  c6.552,5.624,15.065,9.03,24.377,9.03c20.689,0,37.461-16.772,37.461-37.461C203.109,39.326,198.095,29.199,190.177,22.33z"/>
<circle style="fill:#40BAB3;" cx="256.001" cy="118.829" r="110.864"/>
<g>
	<path style="fill:#F0B0B7;" d="M197.166,124.481h-19.649c-4.399,0-7.966-3.567-7.966-7.966c0-4.4,3.567-7.966,7.966-7.966h19.649   c4.399,0,7.966,3.566,7.966,7.966S201.566,124.481,197.166,124.481z"/>
	<path style="fill:#F0B0B7;" d="M334.482,124.481h-19.649c-4.399,0-7.966-3.567-7.966-7.966c0-4.4,3.567-7.966,7.966-7.966h19.649   c4.399,0,7.966,3.566,7.966,7.966S338.881,124.481,334.482,124.481z"/>
</g>
<path style="fill:#0081C6;" d="M170.68,189.613c20.335,24.483,51.005,40.075,85.319,40.075s64.983-15.592,85.319-40.075H170.68z"/>
<path style="fill:#FFFFFF;" d="M149.452,149.538c4.281,14.88,11.594,28.475,21.228,40.075h170.637  c9.634-11.599,16.947-25.194,21.228-40.075H149.452z"/>
<path style="opacity:0.2;enable-background:new    ;" d="M267.288,218.398c-61.227,0-110.86-49.634-110.86-110.86  c0-27.74,10.189-53.1,27.028-72.544c-23.471,20.328-38.317,50.346-38.317,83.833c0,61.227,49.634,110.86,110.86,110.86  c33.486,0,63.505-14.847,83.833-38.317C320.389,208.21,295.029,218.398,267.288,218.398z"/>
<g style="opacity:0.1;">
	<circle cx="185.445" cy="432.015" r="7.941"/>
	<circle cx="224.839" cy="461.287" r="7.941"/>
	<circle cx="309.107" cy="424.071" r="7.941"/>
</g>
<path d="M447.712,168.978c-6.336-6.83-16.194-9.283-25.727-6.4c-29.199,8.83-53.88,19.165-73.488,30.748  c16.457-20.394,26.328-46.312,26.328-74.498c0-10.367-1.338-20.428-3.845-30.022c12.836-8.268,20.795-22.536,20.795-38.176  c0-25.048-20.378-45.426-45.426-45.426c-11.146,0-21.747,4.063-29.984,11.312C298.664,6.031,278.024,0,255.999,0  s-42.664,6.031-60.367,16.516c-8.236-7.249-18.838-11.312-29.984-11.312c-25.048,0-45.426,20.377-45.426,45.426  c0,15.563,7.978,29.89,20.796,38.171c-2.508,9.595-3.846,19.657-3.846,30.026c0,28.185,9.87,54.105,26.328,74.498  c-19.608-11.583-44.289-21.918-73.488-30.748c-9.532-2.882-19.391-0.43-25.727,6.4c-6.372,6.871-8.077,16.966-4.449,26.348  c6.195,16.025,10.052,35.316,11.462,57.336c1.44,22.498,15.987,43.023,43.261,61.126c-2.039,3.09-3.235,6.783-3.235,10.753v36.078  c0,10.795,8.784,19.579,19.579,19.579h0.611l18.639,115.035c1.575,9.715,9.862,16.768,19.704,16.768h172.285  c9.843,0,18.129-7.052,19.704-16.769l18.639-115.033h0.611c10.796,0,19.579-8.784,19.579-19.579V324.54  c0-3.97-1.196-7.664-3.235-10.753c27.274-18.103,41.821-38.628,43.261-61.126c1.409-22.02,5.266-41.311,11.462-57.336  C455.789,185.943,454.083,175.848,447.712,168.978z M346.35,21.136c16.263,0,29.495,13.231,29.495,29.493  c0,8.748-3.842,16.827-10.23,22.334c-0.549-1.309-1.125-2.602-1.72-3.887c4.962-4.716,7.911-11.326,7.911-18.447  c0-14.036-11.419-25.455-25.455-25.455c-4.615,0-9.083,1.25-12.968,3.551c-1.074-0.923-2.166-1.825-3.271-2.711  C334.878,22.866,340.498,21.136,346.35,21.136z M355.873,50.63c0,1.072-0.194,2.105-0.528,3.082  c-2.895-4.402-6.069-8.606-9.507-12.577c0.171-0.01,0.34-0.028,0.512-0.028C351.601,41.107,355.873,45.38,355.873,50.63z   M146.385,72.964c-6.385-5.52-10.23-13.629-10.23-22.334c0-16.263,13.232-29.493,29.495-29.493c5.852,0,11.473,1.73,16.24,4.879  c-1.106,0.885-2.199,1.786-3.271,2.711c-3.884-2.301-8.352-3.551-12.968-3.551c-14.036,0-25.455,11.419-25.455,25.455  c0,7.049,2.968,13.684,7.922,18.42C147.517,70.343,146.937,71.646,146.385,72.964z M166.16,41.135  c-3.436,3.967-6.606,8.169-9.501,12.568c-0.336-0.977-0.534-2.008-0.534-3.073c0-5.25,4.272-9.523,9.523-9.523  C165.82,41.107,165.99,41.125,166.16,41.135z M153.104,118.827c0-56.737,46.158-102.896,102.895-102.896  S358.894,62.09,358.894,118.827c0,56.736-46.158,102.895-102.895,102.895S153.104,175.563,153.104,118.827z M311.311,223.968  c-8.971,11.293-13.897,23.284-14.704,35.881c-1.064,16.637-3.543,31.78-7.375,45.114h-8.274v-69.955  C291.682,232.706,301.87,228.955,311.311,223.968z M265.027,237.313v67.65h-18.056v-67.65c2.98,0.225,5.991,0.341,9.028,0.341  C259.037,237.654,262.047,237.538,265.027,237.313z M231.039,235.008v69.955h-8.274c-3.832-13.334-6.31-28.476-7.375-45.114  c-0.806-12.598-5.733-24.588-14.704-35.881C210.128,228.955,220.317,232.706,231.039,235.008z M87.198,251.644  c-1.514-23.642-5.719-44.523-12.502-62.064c-1.456-3.766-0.993-7.326,1.271-9.767c2.227-2.401,5.665-3.122,9.434-1.985  c20.754,6.277,50.484,16.89,74.269,31.808c25.261,15.844,38.659,33.08,39.821,51.232c1.024,16.001,3.313,30.766,6.782,44.096  h-75.371c-0.146,0-0.287,0.019-0.431,0.022C102.974,288.581,88.414,270.644,87.198,251.644z M346.119,492.682  c-0.318,1.962-1.991,3.386-3.978,3.386H169.857c-1.987,0-3.66-1.424-3.978-3.385l-18.227-112.485h216.694L346.119,492.682z   M384.743,360.619c0,2.011-1.637,3.647-3.647,3.647H130.903c-2.012,0-3.647-1.636-3.647-3.647v-36.078  c0-2.012,1.637-3.647,3.647-3.647h250.193c2.011,0,3.647,1.636,3.647,3.647V360.619z M437.302,189.579  c-6.783,17.542-10.989,38.423-12.502,62.064c-1.216,19-15.776,36.937-43.274,53.342c-0.144-0.003-0.286-0.022-0.431-0.022h-75.371  c3.469-13.329,5.758-28.094,6.782-44.096c1.162-18.153,14.559-35.389,39.821-51.232c23.785-14.918,53.517-25.531,74.269-31.808  c3.767-1.138,7.206-0.416,9.434,1.985C438.295,182.254,438.758,185.813,437.302,189.579z M244.47,115.436  c4.31,0,8.298-1.406,11.529-3.784c3.231,2.377,7.219,3.784,11.529,3.784c10.75,0,19.495-8.745,19.495-19.495  c0-4.4-3.567-7.966-7.966-7.966c-4.399,0-7.966,3.566-7.966,7.966c0,1.966-1.598,3.563-3.563,3.563s-3.563-1.598-3.563-3.563  c0-4.4-3.567-7.966-7.966-7.966s-7.966,3.566-7.966,7.966c0,1.966-1.598,3.563-3.563,3.563c-1.965,0-3.563-1.598-3.563-3.563  c0-4.4-3.567-7.966-7.966-7.966s-7.966,3.566-7.966,7.966C224.975,106.689,233.72,115.436,244.47,115.436z M324.657,98.883  c4.399,0,7.966-3.566,7.966-7.966v-3.222c0-4.4-3.567-7.966-7.966-7.966c-4.399,0-7.966,3.566-7.966,7.966v3.222  C316.691,95.316,320.258,98.883,324.657,98.883z M195.308,90.917v-3.222c0-4.4-3.567-7.966-7.966-7.966s-7.966,3.566-7.966,7.966  v3.222c0,4.4,3.567,7.966,7.966,7.966S195.308,95.316,195.308,90.917z"/>
<g>
</g>
<g>
</g>
<g>
</g>
<g>
</g>
<g>
</g>
<g>
</g>
<g>
</g>
<g>
</g>
<g>
</g>
<g>
</g>
<g>
</g>
<g>
</g>
<g>
</g>
<g>
</g>
<g>
</g>
</svg>
