<?xml version="1.0" encoding="iso-8859-1"?>
<!-- Generator: Adobe Illustrator 19.0.0, SVG Export Plug-In . SVG Version: 6.00 Build 0)  -->
<svg xmlns="http://www.w3.org/2000/svg" xmlns:xlink="http://www.w3.org/1999/xlink" version="1.1" id="Capa_1" x="0px" y="0px" viewBox="0 0 512.001 512.001" style="enable-background:new 0 0 512.001 512.001;" xml:space="preserve">
<g>
	<path style="fill:#F29C1F;" d="M84.395,259.527c-10.39,30.287-17.558,61.598-21.362,93.394   c-26.738-1.73-47.006-24.814-45.276-51.552c1.66-25.538,22.863-45.391,48.454-45.373C72.452,255.969,78.631,257.17,84.395,259.527z   "/>
	<path style="fill:#F29C1F;" d="M494.341,304.547c0.035,25.847-20.259,47.156-46.079,48.374   c-3.769-31.717-10.928-62.94-21.362-93.129c5.985-2.48,12.403-3.769,18.891-3.796c26.8-0.018,48.533,21.698,48.551,48.498   C494.341,304.511,494.341,304.529,494.341,304.547z"/>
</g>
<g>
	<path style="fill:#8697CB;" d="M503.169,172.135c0,12.191-9.878,22.06-22.069,22.069c-2.145-0.018-4.281-0.309-6.356-0.883   c1.315,3.063,1.977,6.373,1.942,9.71c0,14.627-11.864,26.482-26.491,26.482c-6.674,0-13.109-2.525-17.999-7.062l-0.088-0.088   c-2.03-7.592-4.325-15.36-6.885-23.216c-0.53-1.766-1.148-3.619-1.766-5.385c-0.441-1.501-0.971-3.09-1.501-4.59   c-0.106-0.512-0.256-1.015-0.441-1.501c-3.266-9.71-6.974-19.332-10.946-28.954c-5.208-12.623-10.92-25.043-17.125-37.252   c-3.619-7.238-7.503-14.389-11.476-21.186c-0.15-0.221-0.274-0.45-0.353-0.706c5.897-15.96,23.613-24.117,39.573-18.22   c10.893,4.025,18.591,13.833,19.924,25.37c11.723-12.358,31.249-12.879,43.608-1.156c6.153,5.835,9.631,13.947,9.622,22.431   c0.026,8.474-3.496,16.578-9.71,22.333C495.321,152.079,503.16,161.313,503.169,172.135z"/>
	<path style="fill:#8697CB;" d="M130.386,99.573c-0.079,0.256-0.203,0.486-0.353,0.706c-4.061,6.974-7.945,14.124-11.652,21.451   c-3.972,7.768-7.768,15.713-11.211,23.658c-2.03,4.414-3.884,8.827-5.738,13.329c-3.972,9.622-7.68,19.332-10.946,28.954   c-0.177,0.441-0.265,0.794-0.441,1.236c-0.53,1.589-1.059,3.178-1.501,4.679c-0.706,1.854-1.236,3.708-1.854,5.561   c-2.03,6.532-3.972,12.976-5.738,19.332c-0.353,1.324-0.706,2.56-1.059,3.884l-0.088,0.088c-10.725,9.949-27.48,9.313-37.428-1.421   c-4.537-4.89-7.053-11.326-7.062-17.999c-0.035-3.337,0.627-6.647,1.942-9.71c-2.066,0.574-4.202,0.865-6.356,0.883   c-12.191-0.009-22.077-9.896-22.069-22.095c0.009-10.822,7.856-20.047,18.538-21.777c-6.215-5.755-9.737-13.859-9.71-22.333   c-0.026-17.037,13.762-30.87,30.799-30.896c8.483-0.018,16.596,3.469,22.431,9.622c1.951-16.905,17.231-29.025,34.127-27.074   C116.563,80.983,126.37,88.68,130.386,99.573z"/>
</g>
<path style="fill:#F0C419;" d="M454.265,317.788c-1.139,108.366-89.89,195.298-198.264,194.204  c-108.366,1.095-197.117-85.838-198.264-194.204c0.018-8.916,0.583-17.814,1.677-26.659c3.354-28.265,9.534-56.125,18.449-83.154  c1.059-3.354,2.207-6.797,3.354-10.24c0.177-0.441,0.265-0.794,0.441-1.236c3.266-9.622,6.974-19.332,10.946-28.954  c1.854-4.502,3.708-8.916,5.738-13.329c3.443-7.945,7.238-15.889,11.211-23.658c3.708-7.327,7.592-14.477,11.652-21.451  c4.237-7.327,8.563-14.477,13.153-21.362c2.207-3.443,4.502-6.709,6.797-9.975c1.236-1.677,2.383-3.266,3.531-4.855h0.177  c6.347-8.739,13.215-17.081,20.568-24.982c5.994-6.373,12.332-12.411,18.979-18.096C204.051,11.714,229.483,1.148,256.177,0  c32.75,0,63.646,18.891,90.923,48.198c7.565,8.139,14.636,16.71,21.186,25.688c0.088,0.088,0.088,0.088,0.088,0.177  c0.088,0.265,0.265,0.53,0.353,0.794c0.883,1.236,1.677,2.383,2.648,3.619c6.621,9.445,13.065,19.42,19.067,29.925  c0.079,0.256,0.203,0.486,0.353,0.706c3.972,6.797,7.856,13.947,11.476,21.186c6.179,12.182,11.891,24.602,17.125,37.252  c3.972,9.622,7.68,19.244,10.946,28.954c0.185,0.486,0.335,0.989,0.441,1.501c1.148,3.354,2.295,6.709,3.266,9.975  c2.56,7.856,4.855,15.625,6.885,23.216l0.088,0.088c5.367,19.632,9.234,39.635,11.564,59.85  C453.691,299.974,454.247,308.872,454.265,317.788z"/>
<g>
	<path style="fill:#8697CB;" d="M153.682,191.035l69.543,12.261c9.604,1.695,16.013,10.849,14.318,20.453l0,0   c-1.695,9.604-10.849,16.013-20.453,14.318l-69.543-12.261c-9.604-1.695-16.013-10.849-14.318-20.453l0,0   C134.915,195.748,144.078,189.34,153.682,191.035z"/>
	<path style="fill:#8697CB;" d="M288.786,203.296l69.543-12.261c9.604-1.695,18.758,4.723,20.453,14.318l0,0   c1.695,9.604-4.723,18.758-14.318,20.453l-69.543,12.261c-9.604,1.695-18.758-4.723-20.453-14.318l0,0   C272.773,214.145,279.182,204.991,288.786,203.296z"/>
</g>
<g>
	<path style="fill:#2FA8CC;" d="M153.956,226.689c-0.088,0.088-0.177,0.177-0.265,0.177c-13.665,10.205-16.472,29.545-6.267,43.21   c10.205,13.665,29.545,16.472,43.21,6.267c7.812-5.835,12.411-15.015,12.403-24.761c0.009-6.003-1.774-11.873-5.12-16.86"/>
	<path style="fill:#2FA8CC;" d="M314.085,234.721c-3.346,4.988-5.129,10.858-5.12,16.86c-0.035,17.063,13.771,30.923,30.834,30.958   c17.063,0.035,30.922-13.771,30.958-30.834c0.018-9.79-4.599-19.005-12.447-24.849c-0.088,0-0.177-0.088-0.265-0.177"/>
</g>
<g>
	<path style="fill:#464F5D;" d="M335.439,386.677c-1.227,0-2.445-0.256-3.566-0.759c-7.433-3.275-15.095-6.003-22.925-8.157   c-8.368-2.313-16.878-4.043-25.485-5.191c-18.229-2.41-36.696-2.41-54.933,0c-8.607,1.148-17.116,2.878-25.485,5.191   c-7.83,2.154-15.492,4.882-22.925,8.157c-4.449,1.986-9.675-0.009-11.652-4.467c-1.986-4.449,0.009-9.675,4.467-11.652   c0.009-0.009,0.026-0.009,0.035-0.018c8.218-3.628,16.693-6.647,25.352-9.03c9.145-2.525,18.458-4.423,27.859-5.676   c19.791-2.622,39.829-2.622,59.62,0c9.41,1.253,18.714,3.151,27.859,5.676c8.66,2.392,17.134,5.411,25.352,9.03   c4.458,1.977,6.462,7.194,4.484,11.652C342.104,384.62,338.934,386.677,335.439,386.677z"/>
	<path style="fill:#464F5D;" d="M176.563,406.062c-2.957,0.009-5.72-1.474-7.353-3.928c-17.134-25.705-6.779-47.394,1.103-55.277   c3.443-3.452,9.03-3.46,12.482-0.018c3.434,3.425,3.46,8.969,0.071,12.429c-1.315,1.404-11.926,13.638,1.033,33.068   c2.701,4.061,1.607,9.534-2.445,12.244C180.005,405.541,178.31,406.062,176.563,406.062z"/>
	<path style="fill:#464F5D;" d="M335.439,406.062c-4.873-0.009-8.827-3.964-8.819-8.836c0-1.739,0.521-3.443,1.483-4.89   c13.479-20.224,1.227-32.873,1.103-32.997c-3.425-3.46-3.399-9.057,0.062-12.482c3.443-3.407,8.977-3.407,12.42,0   c7.883,7.883,18.238,29.572,1.103,55.277C341.159,404.588,338.396,406.071,335.439,406.062z"/>
	<path style="fill:#464F5D;" d="M282.474,423.938c-2.048,0-4.034-0.715-5.614-2.021c-12.429-9.066-29.298-9.066-41.727,0   c-3.76,3.107-9.331,2.569-12.429-1.192c-3.107-3.76-2.569-9.331,1.192-12.429l0,0c18.855-14.759,45.347-14.759,64.202,0   c3.76,3.098,4.299,8.669,1.192,12.429C287.621,422.763,285.122,423.946,282.474,423.938L282.474,423.938z"/>
</g>
<g>
</g>
<g>
</g>
<g>
</g>
<g>
</g>
<g>
</g>
<g>
</g>
<g>
</g>
<g>
</g>
<g>
</g>
<g>
</g>
<g>
</g>
<g>
</g>
<g>
</g>
<g>
</g>
<g>
</g>
</svg>
