<?xml version="1.0" encoding="iso-8859-1"?>
<!-- Generator: Adobe Illustrator 19.0.0, SVG Export Plug-In . SVG Version: 6.00 Build 0)  -->
<svg xmlns="http://www.w3.org/2000/svg" xmlns:xlink="http://www.w3.org/1999/xlink" version="1.1" id="Capa_1" x="0px" y="0px" viewBox="0 0 512.001 512.001" style="enable-background:new 0 0 512.001 512.001;" xml:space="preserve">
<path style="fill:#A27B5A;" d="M140.519,10.07h-20.931c-5.781,0-10.469,4.686-10.469,10.469v32.874h41.867V20.539  C150.987,14.758,146.301,10.07,140.519,10.07z"/>
<rect x="109.121" y="42.071" style="opacity:0.2;enable-background:new    ;" width="42.026" height="11.342"/>
<path style="fill:#A27B5A;" d="M152.394,384.072h43.815l21.639,111.323c0.872,4.486-2.564,8.654-7.134,8.654h-29.008  c-3.479,0-6.47-2.466-7.134-5.881L152.394,384.072z"/>
<polygon style="opacity:0.2;enable-background:new    ;" points="196.208,384.072 202.064,414.197 158.249,414.197 152.393,384.072   "/>
<path style="fill:#A27B5A;" d="M107.714,384.072H63.899L42.261,495.396c-0.872,4.486,2.564,8.654,7.134,8.654h29.008  c3.479,0,6.47-2.466,7.134-5.881L107.714,384.072z"/>
<polygon style="opacity:0.2;enable-background:new    ;" points="63.899,384.072 58.044,414.197 101.858,414.197 107.714,384.072   "/>
<path style="fill:#FFFFFF;" d="M235.748,384.072H24.36c-7.622,0-13.8-6.178-13.8-13.8V67.213c0-7.622,6.178-13.8,13.8-13.8h211.388  c7.622,0,13.8,6.178,13.8,13.8v303.059C249.548,377.894,243.369,384.072,235.748,384.072z"/>
<path style="fill:#40BAB3;" d="M235.748,53.413H24.36c-7.621,0-13.8,6.178-13.8,13.8v156.906h238.987V67.213  C249.548,59.591,243.369,53.413,235.748,53.413z"/>
<path style="fill:#0081C6;" d="M235.748,384.072H24.36c-7.621,0-13.8-6.178-13.8-13.8v-92.529h238.987v92.529  C249.548,377.894,243.369,384.072,235.748,384.072z"/>
<g>
	<path style="fill:#F0B0B7;" d="M76.235,152.34H58.26c-4.392,0-7.95-3.559-7.95-7.95s3.559-7.95,7.95-7.95h17.975   c4.392,0,7.95,3.559,7.95,7.95S80.627,152.34,76.235,152.34z"/>
	<path style="fill:#F0B0B7;" d="M201.848,152.34h-17.975c-4.392,0-7.95-3.559-7.95-7.95s3.559-7.95,7.95-7.95h17.975   c4.392,0,7.95,3.559,7.95,7.95S206.24,152.34,201.848,152.34z"/>
</g>
<path style="fill:#F3C74F;" d="M395.086,504.05c-11.709,0-21.201-9.492-21.201-21.201v-80.282c0-11.709,9.492-21.201,21.201-21.201  s21.201,9.492,21.201,21.201v80.282C416.287,494.558,406.795,504.05,395.086,504.05z"/>
<path style="opacity:0.2;enable-background:new    ;" d="M395.086,381.365c-11.709,0-21.201,9.492-21.201,21.201v44.465  c14.97-2.39,29.216-6.941,42.402-13.33v-31.133C416.287,390.857,406.795,381.365,395.086,381.365z"/>
<path style="fill:#F3C74F;" d="M303.922,504.05c-11.709,0-21.201-9.492-21.201-21.201v-80.282c0-11.709,9.492-21.201,21.201-21.201  c11.709,0,21.201,9.492,21.201,21.201v80.282C325.123,494.558,315.632,504.05,303.922,504.05z"/>
<path style="opacity:0.2;enable-background:new    ;" d="M303.922,381.365c-11.709,0-21.201,9.492-21.201,21.201v31.133  c13.186,6.389,27.432,10.94,42.402,13.33v-44.465C325.123,390.857,315.632,381.365,303.922,381.365z"/>
<circle style="fill:#0081C6;" cx="439.97" cy="129.929" r="48.693"/>
<path style="fill:#40BAB3;" d="M501.44,277.236c0-84.247-70.235-205.614-152.996-205.614S195.448,192.989,195.448,277.236  s68.499,152.543,152.996,152.543S501.44,361.483,501.44,277.236z"/>
<path style="fill:#FFFFFF;" d="M198.026,305.212c13.18,70.884,75.507,124.567,150.419,124.567s137.239-53.683,150.419-124.567  H198.026z"/>
<path style="fill:#0081C6;" d="M225.11,367.495c27.846,37.767,72.715,62.283,123.335,62.283s95.489-24.516,123.335-62.283H225.11z"/>
<path style="opacity:0.2;enable-background:new    ;" d="M364.668,413.555c-84.497,0-152.996-68.295-152.996-152.543  c0-50.72,25.462-114.882,63.783-157.927c-47.193,41.66-80.006,116.571-80.006,174.15c0,84.247,68.499,152.543,152.996,152.543  c46.457,0,88.074-20.65,116.133-53.24C437.772,399.604,402.855,413.555,364.668,413.555z"/>
<path style="fill:#EACEB2;" d="M122.327,222.289c-1.886-11.163-8.365-24.784-23.124-33.428c-2.865-1.678-6.468,0.236-6.829,3.537  c-1.399,12.802-6.624,23.277-1.489,39.462c2.752,8.675,12.07,14.082,20.758,11.372C120.478,240.476,123.861,231.365,122.327,222.289  z"/>
<path style="fill:#E6595A;" d="M136.166,314.667L136.166,314.667c-5.85,1.975-12.222-0.979-14.496-6.72l-24.647-62.222  c-0.598-1.51,0.191-3.212,1.73-3.731l23.133-7.808c1.538-0.519,3.198,0.357,3.637,1.92l18.102,64.431  C145.295,306.481,142.016,312.692,136.166,314.667z"/>
<path style="fill:#5F666F;" d="M121.885,234.185l-23.133,7.808c-1.538,0.519-2.328,2.222-1.73,3.731l9.161,23.128l26.067-8.798  l-6.729-23.95C125.083,234.542,123.424,233.666,121.885,234.185z"/>
<path style="fill:#F3C74F;" d="M200.758,371.651c-0.661,0-1.311-0.008-1.956-0.022c-34.914-0.81-66-23.274-78.664-45.046  c-5.887-10.121-2.454-23.098,7.666-28.986c10.119-5.885,23.097-2.455,28.986,7.666c5.68,9.765,23.781,23.53,42.994,23.975  c15.811,0.375,29.884-8.73,41.703-27.042c6.35-9.838,19.473-12.665,29.309-6.316c9.837,6.35,12.665,19.472,6.316,29.309  C252.504,363.319,222.373,371.651,200.758,371.651z"/>
<circle style="fill:#5F666F;" cx="348.446" cy="30.11" r="22.16"/>
<path style="opacity:0.15;enable-background:new    ;" d="M369.992,25.011c-14.388-0.824-28.814-0.699-43.19,0.374  c-0.331,1.523-0.516,3.102-0.516,4.725c0,12.238,9.921,22.159,22.16,22.159c12.238,0,22.16-9.921,22.16-22.159  C370.604,28.352,370.378,26.651,369.992,25.011z"/>
<path style="fill:#394049;" d="M401.183,114.154h-99.912c-21.423,0-38.79-17.367-38.79-38.79l0,0  c0-18.841,13.539-34.957,32.097-38.208l0,0c37.481-6.566,75.818-6.566,113.299,0l0,0c18.558,3.251,32.097,19.368,32.097,38.208l0,0  C439.973,96.787,422.607,114.154,401.183,114.154z"/>
<path style="fill:#0081C6;" d="M328.751,125.218c0.03,0.991-0.092,1.989-0.343,2.948c-3.297,12.63-8.812,21.277-17.302,29.767  c-8.453,8.453-16.699,13.712-29.384,17.056c-1.083,0.286-2.209,0.425-3.33,0.387c-26.735-0.911-48.001-23.375-46.968-50.561  c0.958-25.237,21.522-45.801,46.759-46.759C305.435,77.02,327.942,98.392,328.751,125.218z"/>
<path style="opacity:0.2;enable-background:new    ;" d="M293.3,163.411c-1.083,0.285-2.209,0.425-3.33,0.387  c-26.735-0.911-48.001-23.374-46.968-50.561c0.369-9.713,3.651-18.728,8.976-26.204c-11.951,8.512-19.966,22.259-20.555,37.783  c-1.032,27.187,20.233,49.65,46.968,50.561c1.119,0.038,2.246-0.102,3.33-0.387c12.686-3.344,20.933-8.603,29.384-17.056  c1.991-1.991,3.813-3.993,5.487-6.051C310.033,157.207,302.952,160.866,293.3,163.411z"/>
<path d="M67.247,110.075c-4.392,0-7.95,3.56-7.95,7.95v2.947c0,4.392,3.559,7.95,7.95,7.95s7.95-3.559,7.95-7.95v-2.947  C75.197,113.633,71.639,110.075,67.247,110.075z M480.75,169.242c10.15-10.51,15.867-24.515,15.867-39.314  c0-28.546-21.229-52.214-48.727-56.078c-0.704-22.091-16.731-40.689-38.642-44.527c-10.325-1.808-20.689-3.115-31.07-3.954  C375.898,11.012,363.435,0,348.444,0c-15.165,0-27.741,11.271-29.806,25.877c-8.496,0.83-16.978,1.966-25.433,3.447  c-17.615,3.086-31.427,15.71-36.534,32.02c-2.571-9.146-10.966-15.88-20.923-15.88h-76.81V20.539  c0-10.156-8.263-18.419-18.419-18.419H119.59c-10.156,0-18.419,8.263-18.419,18.419v24.924H24.36  c-11.992,0-21.75,9.758-21.75,21.751v303.058c0,11.993,9.757,21.75,21.75,21.75h29.895L34.457,493.88  c-0.869,4.479,0.295,9.064,3.197,12.584c2.901,3.518,7.181,5.538,11.742,5.538h29.007c7.27,0,13.553-5.179,14.939-12.315  l20.927-107.663h31.571l20.926,107.665c1.39,7.134,7.672,12.312,14.939,12.312h29.008c4.56,0,8.841-2.018,11.741-5.538  c2.901-3.519,4.066-8.105,3.197-12.584l-19.798-101.857h29.895c0.083,0,0.165-0.006,0.248-0.007  c11.469,11.161,24.577,20.646,38.775,27.948v62.886c0,16.073,13.078,29.151,29.151,29.151s29.151-13.078,29.151-29.151V436.98  c5.104,0.49,10.235,0.748,15.371,0.748c5.91,0,11.744-0.329,17.491-0.951v46.072c0,16.073,13.078,29.151,29.151,29.151  s29.151-13.078,29.151-29.151v-64.066c50.634-27.069,85.153-80.361,85.153-141.548C509.39,243.1,498.557,204.248,480.75,169.242z   M445.7,89.597c19.763,2.793,35.016,19.81,35.016,40.331c0,8.911-2.892,17.415-8.115,24.388  c-10.49-17.909-22.799-34.364-36.342-48.112C440.464,101.429,443.714,95.795,445.7,89.597z M348.444,15.901  c5.821,0,10.829,3.52,13.023,8.541c-8.714-0.267-17.43-0.2-26.141,0.214C337.47,19.521,342.541,15.901,348.444,15.901z   M295.948,44.986c36.682-6.427,73.876-6.427,110.557,0c14.785,2.59,25.517,15.365,25.517,30.377  c0,17.005-13.835,30.841-30.84,30.841h-68.274c-3.039-7.843-7.831-14.969-14.17-20.891c-11.112-10.381-25.621-15.789-40.858-15.201  c-2.414,0.091-4.787,0.352-7.117,0.741C272.666,57.855,282.67,47.313,295.948,44.986z M278.486,86c0.533-0.02,1.064-0.03,1.596-0.03  c10.379,0,20.2,3.861,27.803,10.962c8.001,7.475,12.59,17.605,12.919,28.526c0,0.001,0.001,0.001,0.001,0.002  c0.006,0.21-0.024,0.452-0.089,0.698c-2.74,10.499-7.153,18.077-15.232,26.153c-8.005,8.006-15.236,12.21-25.789,14.992  c-0.361,0.095-0.726,0.139-1.031,0.128c-10.888-0.371-20.979-4.977-28.419-12.972c-7.43-7.984-11.293-18.404-10.878-29.342  C240.17,103.986,257.353,86.804,278.486,86z M117.07,20.539c0-1.39,1.129-2.519,2.519-2.519h20.929c1.39,0,2.519,1.129,2.519,2.519  v24.924H117.07C117.07,45.463,117.07,20.539,117.07,20.539z M77.84,496.099H50.223l20.23-104.078H98.07L77.84,496.099z   M24.359,376.121c-3.225,0-5.849-2.625-5.849-5.849V67.213c0-3.226,2.625-5.85,5.849-5.85h211.388c3.226,0,5.85,2.625,5.85,5.85  v18.044c-10.653,9.901-17.532,23.818-18.118,39.257c-0.318,8.351,1.173,16.484,4.287,23.962  c-25.271,40.823-40.267,88.623-40.267,128.758c0,14.75,1.998,29.261,5.932,43.29c-14.038-2.883-26.247-13.207-29.769-19.261  c-3.548-6.098-8.983-10.429-15.14-12.688l-15.347-54.623c-0.491-1.747-1.423-3.332-2.673-4.614c0.25-2.714,0.145-5.528-0.336-8.374  c-2.762-16.351-12.584-30.553-26.946-38.965c-3.654-2.141-8.096-2.278-11.881-0.373c-3.835,1.928-6.403,5.633-6.869,9.906  c-0.341,3.126-0.95,6.165-1.595,9.382c-1.841,9.189-3.929,19.605,0.431,33.35c1.147,3.613,3.083,6.857,5.616,9.577  c-0.126,1.625,0.1,3.274,0.709,4.809l22.066,55.708c-0.567,1.321-1.041,2.691-1.415,4.106c-1.991,7.528-0.932,15.381,2.983,22.11  c10.883,18.712,34.232,37.882,62.214,45.544H24.359V376.121z M119.325,243.44l12.397,44.123c-2.715,0.643-5.381,1.687-7.914,3.159  c-0.111,0.065-0.218,0.137-0.33,0.202l-17.08-43.121L119.325,243.44z M100.547,232.996c-0.941-1.019-1.669-2.227-2.085-3.541  c-3.119-9.832-1.672-17.054,0.004-25.417c0.354-1.769,0.716-3.569,1.039-5.426c10.63,8.115,13.95,18.887,14.983,25.001  c0.271,1.603,0.308,3.174,0.136,4.631L100.547,232.996z M209.884,496.099h-27.617l-20.23-104.078h27.616L209.884,496.099z   M200.758,363.7c-0.601,0-1.191-0.007-1.771-0.021c-31.992-0.741-60.423-21.235-71.975-41.097c-1.78-3.059-2.262-6.628-1.356-10.049  c0.905-3.422,3.088-6.286,6.147-8.065c2.091-1.216,4.379-1.794,6.64-1.794c4.569,0,9.02,2.362,11.476,6.586  c7.593,13.052,28.746,27.44,49.678,27.926c18.791,0.46,35.144-9.875,48.571-30.678c1.92-2.974,4.881-5.022,8.341-5.768  c3.462-0.743,7.003-0.099,9.976,1.821c6.139,3.961,7.91,12.179,3.948,18.318C257.825,340.413,235.502,363.7,200.758,363.7z   M317.173,482.849c0,7.307-5.944,13.251-13.251,13.251c-7.307,0-13.251-5.944-13.251-13.251v-55.806  c8.584,3.282,17.46,5.827,26.501,7.608V482.849z M408.336,482.849c0,7.307-5.944,13.251-13.251,13.251  c-7.307,0-13.251-5.944-13.251-13.251v-48.603c9.142-1.931,18-4.638,26.501-8.049V482.849z M348.444,421.828  c-23.398,0-45.731-5.381-66.376-15.993c-16.586-8.526-31.529-20.351-43.73-34.502c15.327-7.145,31.296-19.897,45.455-41.832  c4.222-6.543,5.645-14.337,4.004-21.949c-1.64-7.612-6.146-14.128-12.689-18.35c-6.542-4.223-14.336-5.65-21.948-4.005  c-7.613,1.64-14.13,6.146-18.354,12.689c-7.56,11.712-15.929,19.064-25,21.976c-4.251-13.751-6.408-28.057-6.408-42.624  c0-34.54,12.782-77.048,33.799-113.532c0.461,0.533,0.922,1.067,1.406,1.587c10.34,11.112,24.374,17.516,39.523,18.033  c0.209,0.006,0.418,0.011,0.626,0.011c1.664,0,3.341-0.22,4.995-0.656c13.365-3.524,22.92-9.064,32.978-19.122  c10.111-10.11,15.905-20.093,19.372-33.379c0.449-1.717,0.65-3.466,0.598-5.198l0.001,0.002c-0.029-0.964-0.083-1.922-0.159-2.875  h64.645c8.211,0,15.929-2.136,22.642-5.869c19.161,19.12,36.445,44.939,49.043,73.406c13.297,30.052,20.621,61.16,20.621,87.594  C493.49,356.964,428.422,421.828,348.444,421.828z M192.86,128.922c4.392,0,7.95-3.559,7.95-7.95v-2.947  c0-4.391-3.559-7.95-7.95-7.95s-7.95,3.56-7.95,7.95v2.947C184.909,125.364,188.469,128.922,192.86,128.922z M119.507,144.065  c3.917,0,7.553-1.223,10.546-3.308c2.994,2.085,6.63,3.308,10.546,3.308c10.199,0,18.497-8.298,18.497-18.497  c0-4.392-3.559-7.95-7.95-7.95c-4.392,0-7.95,3.559-7.95,7.95c0,1.432-1.165,2.596-2.596,2.596c-1.431,0-2.596-1.165-2.596-2.596  c0-4.392-3.559-7.95-7.95-7.95c-4.392,0-7.95,3.559-7.95,7.95c0,1.432-1.165,2.596-2.596,2.596c-1.432,0-2.596-1.165-2.596-2.596  c0-4.392-3.559-7.95-7.95-7.95c-4.392,0-7.95,3.559-7.95,7.95C101.01,135.767,109.308,144.065,119.507,144.065z"/>
<g>
</g>
<g>
</g>
<g>
</g>
<g>
</g>
<g>
</g>
<g>
</g>
<g>
</g>
<g>
</g>
<g>
</g>
<g>
</g>
<g>
</g>
<g>
</g>
<g>
</g>
<g>
</g>
<g>
</g>
</svg>
