<?xml version="1.0" encoding="iso-8859-1"?>
<!-- Generator: Adobe Illustrator 19.0.0, SVG Export Plug-In . SVG Version: 6.00 Build 0)  -->
<svg xmlns="http://www.w3.org/2000/svg" xmlns:xlink="http://www.w3.org/1999/xlink" version="1.1" id="Capa_1" x="0px" y="0px" viewBox="0 0 512 512" style="enable-background:new 0 0 512 512;" xml:space="preserve">
<path style="fill:#F3C74F;" d="M50.648,404.662c-13.43,0-24.316-10.887-24.316-24.316c0-66.203,16.306-114.461,48.464-143.434  c9.976-8.993,25.354-8.189,34.341,1.789c8.99,9.978,8.189,25.352-1.789,34.341c-21.186,19.088-32.384,56.192-32.384,107.304  C74.964,393.775,64.078,404.662,50.648,404.662z"/>
<path style="opacity:0.2;enable-background:new    ;" d="M109.137,238.701c-8.986-9.979-24.365-10.782-34.341-1.789  c-8.084,7.283-15.164,15.787-21.237,25.487c0.638,30.402,9.047,58.898,23.336,83.588c4.036-33.536,14.359-58.444,30.453-72.944  C117.326,264.053,118.126,248.679,109.137,238.701z"/>
<g>
	<path style="fill:#F3C74F;" d="M424.437,318.126c-14.677,0-30.259-4.51-45.396-13.425c-11.573-6.814-15.429-21.72-8.615-33.292   c6.813-11.573,21.721-15.43,33.292-8.613c13.175,7.759,23.233,7.683,28.251,5.026c3.128-1.657,4.781-4.517,5.054-8.744   c0.868-13.403,12.454-23.56,25.835-22.695c13.403,0.866,23.564,12.434,22.695,25.835c-1.374,21.23-12.609,38.937-30.828,48.583   C445.478,315.698,435.2,318.126,424.437,318.126z"/>
	<path style="fill:#F3C74F;" d="M292.618,503.989c-13.43,0-24.316-10.887-24.316-24.316v-92.081   c0-13.43,10.887-24.316,24.316-24.316s24.316,10.887,24.316,24.316v92.081C316.935,493.102,306.048,503.989,292.618,503.989z"/>
</g>
<path style="opacity:0.2;enable-background:new    ;" d="M292.618,363.275c-13.43,0-24.316,10.887-24.316,24.316v50.998  c17.17-2.741,33.508-7.962,48.633-15.289v-35.709C316.935,374.162,306.048,363.275,292.618,363.275z"/>
<path style="fill:#F3C74F;" d="M188.057,503.989c-13.43,0-24.316-10.887-24.316-24.316v-92.081c0-13.43,10.887-24.316,24.316-24.316  c13.43,0,24.316,10.887,24.316,24.316v92.081C212.373,493.102,201.487,503.989,188.057,503.989z"/>
<path style="opacity:0.2;enable-background:new    ;" d="M188.057,363.275c-13.43,0-24.316,10.887-24.316,24.316V423.3  c15.125,7.328,31.463,12.548,48.633,15.289v-50.998C212.373,374.162,201.487,363.275,188.057,363.275z"/>
<circle style="fill:#0081C6;" cx="375.036" cy="90.696" r="55.849"/>
<circle style="fill:#F3C74F;" cx="375.036" cy="90.696" r="26.074"/>
<circle style="fill:#0081C6;" cx="105.639" cy="90.696" r="55.849"/>
<circle style="fill:#F3C74F;" cx="105.639" cy="90.696" r="26.074"/>
<path style="opacity:0.2;enable-background:new    ;" d="M138.651,45.656c-26.258,23.732-48.529,56.402-64.349,91.271  c8.935,6.068,19.72,9.616,31.335,9.616c30.844,0,55.848-25.004,55.848-55.848C161.484,72.203,152.494,55.819,138.651,45.656z"/>
<path style="fill:#40BAB3;" d="M415.817,243.843c0-96.627-80.557-235.83-175.48-235.83S64.859,147.215,64.859,243.843  s78.565,174.96,175.479,174.96C337.252,418.803,415.817,340.47,415.817,243.843z"/>
<path style="fill:#FFFFFF;" d="M67.814,275.931c15.116,81.301,86.604,142.872,172.524,142.872s157.408-61.571,172.524-142.872  H67.814z"/>
<path style="fill:#0081C6;" d="M98.878,347.367c31.938,43.317,83.401,71.436,141.459,71.436s109.521-28.118,141.459-71.436H98.878z"/>
<path style="opacity:0.2;enable-background:new    ;" d="M258.946,400.195c-96.915,0-175.479-78.332-175.479-174.96  c0-58.173,29.204-131.765,73.155-181.135c-54.128,47.783-91.763,133.702-91.763,199.743c0,96.628,78.565,174.96,175.479,174.96  c53.284,0,101.016-23.685,133.198-61.064C342.791,384.194,302.744,400.195,258.946,400.195z"/>
<g>
	<path style="fill:#B4D9E6;" d="M150.511,324.713c-7.63-12.805-7.63-28.761,0-41.566l0,0c7.63-12.805,7.63-28.761,0-41.566l0,0   c-7.63-12.805-7.63-28.761,0-41.566c6.865-11.522,7.531-25.589,2.041-37.623c-3.437,4.246-8.685,6.966-14.574,6.966   c-6.12,0-11.538-2.946-14.96-7.482c5.748,12.146,5.162,26.451-1.801,38.139l0,0c-7.63,12.805-7.63,28.761,0,41.566l0,0   c7.63,12.805,7.63,28.761,0,41.566l0,0c-7.63,12.805-7.63,28.761,0,41.566l0,0c7.63,12.805,7.63,28.761,0,41.566l0,0   c-0.787,1.321-1.473,2.684-2.098,4.066c7.943,7.569,16.601,14.396,25.857,20.382c-0.76-8.387,1.073-16.956,5.536-24.447   C158.139,353.474,158.139,337.518,150.511,324.713L150.511,324.713z"/>
	<path style="fill:#B4D9E6;" d="M356.447,324.713c-7.63-12.805-7.63-28.761,0-41.566l0,0c7.63-12.805,7.63-28.761,0-41.566l0,0   c-7.63-12.805-7.63-28.761,0-41.566c7.056-11.844,7.572-26.378,1.576-38.625c-3.394,4.815-8.985,7.969-15.324,7.969   c-4.879,0-9.308-1.879-12.644-4.933c4.533,11.564,3.58,24.711-2.903,35.591c-7.63,12.805-7.63,28.761,0,41.566l0,0   c7.63,12.805,7.63,28.761,0,41.566l0,0c-7.63,12.805-7.63,28.761,0,41.566l0,0c7.63,12.805,7.63,28.761,0,41.566   c-5.805,9.744-7.18,21.308-4.151,31.923c10.133-5.405,19.672-11.77,28.494-18.979c0.885-4.497,2.531-8.879,4.953-12.944   C364.075,353.474,364.075,337.518,356.447,324.713L356.447,324.713z"/>
</g>
<path style="fill:#F3C74F;" d="M461.313,284.966c-0.529,0-1.06-0.018-1.594-0.052c-13.403-0.866-23.564-12.434-22.695-25.835  c0.188-2.9-0.179-7.344-5.507-12.424c-9.605-9.156-32.91-17.471-69.52-13.34c-13.363,1.514-25.384-8.093-26.889-21.437  c-1.505-13.346,8.093-25.384,21.437-26.889c45.898-5.18,85.457,4.47,108.53,26.466c14.434,13.761,21.708,31.79,20.48,50.763  C484.722,275.084,474.025,284.966,461.313,284.966z"/>
<path d="M369.458,150.608c0-4.426-3.586-8.012-8.012-8.012c-4.426,0-8.012,3.586-8.012,8.012c0,5.92-4.817,10.737-10.736,10.737  c-5.92,0-10.737-4.817-10.737-10.737c0-4.426-3.586-8.012-8.012-8.012c-4.426,0-8.012,3.586-8.012,8.012  c0,14.756,12.004,26.761,26.761,26.761C357.453,177.369,369.458,165.365,369.458,150.608z M470.603,205.657  c-14.035-13.382-33.552-22.528-56.597-26.961c-2.93-10.349-6.457-20.669-10.505-30.826c21.47-10.677,35.398-32.701,35.398-57.175  c0-35.213-28.647-63.86-63.86-63.86c-15.185,0-29.836,5.47-41.309,15.193C304.293,14.451,272.355,0,240.338,0  c-24.28,0-48.518,8.309-72.043,24.698c-7.22,5.029-14.35,10.86-21.307,17.364c-11.48-9.746-26.148-15.229-41.351-15.229  c-35.213,0-63.86,28.647-63.86,63.86c0,24.483,13.939,46.513,35.421,57.187c-12.989,32.644-20.348,66.328-20.348,95.963  c0,0.098,0.003,0.195,0.003,0.294c-25.566,31.012-38.531,76.811-38.531,136.209c0,17.826,14.503,32.329,32.329,32.329  s32.328-14.503,32.328-32.329c0-13.889,0.851-26.732,2.531-38.413c17.308,27.07,41.556,49.314,70.222,64.232v73.508  c0,17.826,14.503,32.328,32.329,32.328s32.328-14.502,32.328-32.328v-53.943c6.556,0.71,13.21,1.085,19.952,1.085  s13.396-0.376,19.952-1.085v53.943c0,17.826,14.503,32.328,32.329,32.328s32.329-14.502,32.329-32.328v-73.509  c34.803-18.113,63.09-47.025,80.355-82.256c6.459,1.48,12.869,2.232,19.134,2.232c12.239,0,23.692-2.779,34.038-8.258  c20.731-10.974,33.516-31.074,35.075-55.142c0.003-0.044,0.005-0.089,0.007-0.134c0.03-0.496,0.048-0.988,0.056-1.481  C494.492,240.336,486.324,220.644,470.603,205.657z M375.039,42.857c26.377,0,47.836,21.459,47.836,47.836  c0,18.015-10.071,34.262-25.677,42.409c-1.907-4.18-3.9-8.319-5.974-12.407c10.773-5.827,17.9-17.234,17.9-30.002  c0-18.795-15.291-34.086-34.085-34.086c-7.658,0-14.985,2.579-20.891,7.157c-1.202-1.443-2.41-2.875-3.631-4.278  c-1.807-2.077-3.629-4.089-5.459-6.06C353.502,46.644,364.09,42.857,375.039,42.857z M383.625,106.575  c-6.031-10.579-12.594-20.711-19.591-30.198c3.119-2.396,6.976-3.746,11.005-3.746c9.958,0,18.061,8.103,18.061,18.062  C393.101,97.457,389.324,103.487,383.625,106.575z M57.8,90.693c0-26.377,21.459-47.836,47.836-47.836  c10.96,0,21.558,3.795,30.006,10.589c-3.084,3.314-6.121,6.757-9.101,10.328c-5.909-4.586-13.241-7.168-20.905-7.168  c-18.795,0-34.086,15.292-34.086,34.086c0,12.772,7.131,24.181,17.91,30.007c-2.076,4.1-4.071,8.236-5.971,12.408  C67.876,124.962,57.8,108.714,57.8,90.693z M116.641,76.377c-2.123,2.872-4.211,5.803-6.256,8.797  c-4.711,6.901-9.158,14.062-13.337,21.4c-5.698-3.088-9.476-9.118-9.476-15.881c0-9.959,8.103-18.062,18.062-18.062  C109.666,72.631,113.522,73.981,116.641,76.377z M66.952,380.345c0,8.991-7.314,16.305-16.304,16.305  c-8.991,0-16.305-7.314-16.305-16.305c0-46.373,8.166-83.554,24.309-110.899c2.505,17.76,7.57,34.709,14.821,50.462  C69.148,337.228,66.952,357.538,66.952,380.345z M204.361,479.672c0,8.99-7.314,16.304-16.304,16.304  c-8.991,0-16.305-7.314-16.305-16.304v-66.128c10.432,4.207,21.334,7.486,32.608,9.731v56.397H204.361z M308.923,479.672  c0,8.99-7.314,16.304-16.305,16.304c-8.991,0-16.305-7.314-16.305-16.304v-56.398c11.275-2.244,22.177-5.523,32.609-9.731v66.129  H308.923z M240.338,410.791c-92.34,0-167.466-74.892-167.466-166.948c0-46.445,19.446-103.781,50.748-149.633  c33.922-49.688,76.464-78.186,116.718-78.186c68.286,0,131.262,79.537,156.259,160.287c-12.907-1.107-26.645-0.898-40.95,0.716  c-8.58,0.968-16.271,5.221-21.655,11.972c-5.383,6.751-7.814,15.197-6.847,23.778c0.968,8.581,5.217,16.272,11.962,21.655  c6.753,5.387,15.198,7.815,23.787,6.845c18.965-2.141,33.973-0.75,44.906,2.21c0,0.118,0.003,0.237,0.003,0.355  C407.804,335.899,332.679,410.791,240.338,410.791z M477.597,260.549c-0.003,0.092-0.006,0.184-0.007,0.276  c-0.002,0.287-0.013,0.575-0.031,0.865c-0.002,0.031-0.004,0.063-0.005,0.095c-1.215,18.353-10.897,33.633-26.576,41.935  c-8.013,4.244-16.943,6.395-26.541,6.395c-4.115,0-8.331-0.413-12.605-1.216c3.886-10.152,6.892-20.732,8.921-31.651  c5.706,0.611,10.849-0.167,14.968-2.347c3.925-2.079,8.722-6.424,9.297-15.306c0.451-6.961-2.232-13.266-7.973-18.741  c-14.136-13.476-42.526-19.273-75.951-15.501c-4.336,0.492-8.591-0.736-11.993-3.449c-3.402-2.714-5.544-6.594-6.033-10.926  c-0.489-4.329,0.737-8.587,3.452-11.992c2.714-3.406,6.593-5.549,10.922-6.037c43.535-4.918,80.749,3.944,102.103,24.304  C471.899,229.032,478.31,244.408,477.597,260.549z M422.983,261.362c0.342-3.574,0.577-7.179,0.709-10.81  c0.858,0.628,1.628,1.264,2.296,1.9c3.236,3.086,3.109,5.052,3.04,6.108c-0.116,1.815-0.517,2.027-0.807,2.18  C427.412,261.169,425.642,261.57,422.983,261.362z M156.726,142.596c-4.426,0-8.012,3.586-8.012,8.012  c0,5.92-4.817,10.737-10.737,10.737c-5.919,0-10.736-4.817-10.736-10.737c0-4.426-3.586-8.012-8.012-8.012  c-4.426,0-8.012,3.586-8.012,8.012c0,14.756,12.004,26.761,26.76,26.761c14.757,0,26.761-12.004,26.761-26.761  C164.738,146.183,161.152,142.596,156.726,142.596z M265.339,191.644c-4.426,0-8.012,3.587-8.012,8.012  c0,2.475-2.014,4.489-4.489,4.489c-2.475,0-4.489-2.014-4.489-4.489c0-4.425-3.586-8.012-8.012-8.012  c-4.426,0-8.012,3.587-8.012,8.012c0,2.475-2.014,4.489-4.488,4.489c-2.475,0-4.489-2.014-4.489-4.489  c0-4.425-3.586-8.012-8.012-8.012s-8.012,3.587-8.012,8.012c0,11.311,9.202,20.513,20.513,20.513c4.7,0,9.038-1.59,12.5-4.259  c3.463,2.67,7.801,4.259,12.501,4.259c11.311,0,20.513-9.202,20.513-20.513C273.351,195.231,269.765,191.644,265.339,191.644z"/>
<g>
</g>
<g>
</g>
<g>
</g>
<g>
</g>
<g>
</g>
<g>
</g>
<g>
</g>
<g>
</g>
<g>
</g>
<g>
</g>
<g>
</g>
<g>
</g>
<g>
</g>
<g>
</g>
<g>
</g>
</svg>
