<?xml version="1.0" encoding="iso-8859-1"?>
<!-- Generator: Adobe Illustrator 19.0.0, SVG Export Plug-In . SVG Version: 6.00 Build 0)  -->
<svg xmlns="http://www.w3.org/2000/svg" xmlns:xlink="http://www.w3.org/1999/xlink" version="1.1" id="Layer_1" x="0px" y="0px" viewBox="0 0 512 512" style="enable-background:new 0 0 512 512;" xml:space="preserve">
<polyline style="fill:#EDD154;" points="186.042,337.946 186.053,337.946 352.411,504.304 372,484.715 208.094,320.81 "/>
<path style="fill:#49618C;" d="M444.342,126.08c-39.18,39.18-62.4,15.962-101.58,55.142s-15.962,62.4-55.142,101.58  c-39.179,39.179-62.398,15.96-101.577,55.139L67.659,219.557c39.179-39.179,62.398-15.96,101.577-55.139  c39.18-39.18,15.962-62.4,55.142-101.58s62.4-15.962,101.58-55.142L444.342,126.08z"/>
<g>
	<path style="fill:#E6E6E6;" d="M197.376,270.908v0.01c-15.608,3.981-31.205,7.973-50.794,27.562l-39.455-39.455v-0.01   c19.589-19.589,35.186-23.581,50.784-27.562h0.01L197.376,270.908z"/>
	<path style="fill:#E6E6E6;" d="M248.17,243.336l39.455,39.465c-19.589,19.589-35.197,23.581-50.794,27.572l-39.445-39.455   c15.597-3.992,31.184-7.983,50.773-27.572L248.17,243.336z"/>
	<path style="fill:#E6E6E6;" d="M208.705,203.871l-0.01,0.01c-19.589,19.589-35.176,23.581-50.773,27.572h-0.01v-0.01   l-39.455-39.455c15.608-3.992,31.195-7.983,50.784-27.572h0.01L208.705,203.871z"/>
	<path style="fill:#E6E6E6;" d="M236.267,153.097l39.465,39.455c-3.992,15.597-7.983,31.195-27.562,50.784l-39.465-39.465   C228.284,184.282,232.286,168.694,236.267,153.097z"/>
	<path style="fill:#E6E6E6;" d="M303.305,141.768l39.455,39.455c-19.589,19.589-23.581,35.197-27.562,50.794l-39.465-39.465   C279.724,176.955,283.716,161.358,303.305,141.768z"/>
	<path style="fill:#E6E6E6;" d="M224.384,62.838l39.455,39.465c-19.589,19.589-23.581,35.176-27.572,50.784l-39.455-39.455   C200.804,98.024,204.785,82.427,224.384,62.838z"/>
	<path style="fill:#E6E6E6;" d="M314.633,74.731l39.455,39.455c-15.597,3.992-31.195,7.983-50.784,27.572v0.01l-39.465-39.465   C283.428,82.704,299.036,78.712,314.633,74.731z"/>
	<path style="fill:#E6E6E6;" d="M404.882,86.624l39.455,39.455c-19.599,19.589-35.186,23.581-50.784,27.572l-39.455-39.455   l-0.01-0.01C369.697,110.204,385.293,106.213,404.882,86.624z"/>
	<path style="fill:#E6E6E6;" d="M325.962,7.703l39.455,39.455c-19.589,19.589-35.176,23.581-50.784,27.572l-39.455-39.465   c15.597-3.992,31.195-7.973,50.784-27.572V7.703z"/>
</g>
<path d="M449.783,120.638l-50.821-50.82c-3.006-3.006-7.879-3.006-10.883,0c-3.006,3.006-3.006,7.879,0,10.883l5.742,5.742  c-13.846,12.152-25.5,16.053-37.396,19.193l-27.019-27.019c10.987-3.495,22.607-8.876,35.862-20.726L373.377,66  c3.006,3.007,7.879,3.006,10.883,0c3.006-3.006,3.006-7.879,0-10.883L331.399,2.254C329.957,0.811,327.999,0,325.958,0  c-2.041,0-3.999,0.811-5.442,2.254c-18.099,18.099-32.262,21.721-47.256,25.557c-16.343,4.18-33.243,8.504-54.325,29.586  c-21.081,21.081-25.404,37.982-29.585,54.324c-3.836,14.994-7.459,29.157-25.557,47.256c-4.406,4.406-8.672,8.068-13.042,11.193  c-3.457,2.473-4.254,7.28-1.781,10.738c1.502,2.101,3.867,3.219,6.266,3.219c1.549,0,3.115-0.467,4.471-1.437  c3.172-2.269,6.277-4.763,9.386-7.541l28.551,28.551c-13.848,12.155-25.504,16.057-37.4,19.196l-27.039-27.039  c0.83-0.265,1.656-0.521,2.496-0.811c4.018-1.385,6.153-5.766,4.767-9.784c-1.385-4.019-5.766-6.152-9.784-4.767  c-4.7,1.62-9.287,2.794-14.144,4.037c-16.342,4.179-33.242,8.503-54.323,29.584c-3.006,3.006-3.006,7.879,0,10.883l284.751,284.747  c1.502,1.502,3.472,2.254,5.442,2.254c1.969,0,3.939-0.751,5.442-2.254l19.589-19.589c3.006-3.006,3.006-7.879,0-10.883  l-64.84-64.84c-3.006-3.006-7.879-3.006-10.883,0c-3.006,3.006-3.006,7.879,0,10.883l59.398,59.398l-8.705,8.705L197.103,338.113  c3.4-2.983,6.668-5.471,9.84-7.57l78.869,78.869c1.502,1.502,3.472,2.254,5.442,2.254c1.969,0,3.939-0.751,5.442-2.254  c3.006-3.006,3.006-7.879,0-10.883l-75.427-75.426c5.885-2.307,11.614-3.776,17.468-5.273c16.342-4.179,33.242-8.503,54.323-29.584  c21.082-21.081,25.405-37.982,29.586-54.325c3.836-14.994,7.459-29.157,25.557-47.256c18.099-18.099,32.261-21.721,47.255-25.557  c16.343-4.18,33.243-8.504,54.325-29.586C452.789,128.517,452.789,123.644,449.783,120.638z M314.359,141.934  c13.849-12.154,25.506-16.054,37.403-19.194l27.019,27.019c-10.989,3.495-22.612,8.876-35.87,20.727L314.359,141.934z   M186.19,327.205l-28.55-28.55c13.849-12.154,25.505-16.054,37.403-19.194l27.018,27.018  C211.071,309.973,199.448,315.353,186.19,327.205z M182.6,267.018c-10.989,3.495-22.611,8.875-35.869,20.727l-28.553-28.553  c13.849-12.154,25.505-16.054,37.403-19.194L182.6,267.018z M212.149,274.799c10.988-3.495,22.61-8.877,35.866-20.73l28.552,28.552  c-13.848,12.155-25.503,16.057-37.4,19.196L212.149,274.799z M267.177,194.883c-3.139,11.895-7.039,23.55-19.188,37.395  l-28.553-28.553c11.847-13.254,17.227-24.874,20.722-35.861L267.177,194.883z M258.897,243.185  c11.847-13.255,17.227-24.875,20.722-35.861l27.019,27.019c-3.139,11.895-7.04,23.549-19.189,37.394L258.897,243.185z   M244.819,150.758c3.14-11.897,7.041-23.553,19.195-37.401l28.553,28.552c-11.852,13.257-17.234,24.88-20.729,35.868  L244.819,150.758z M299.859,70.837c-10.989,3.495-22.612,8.876-35.869,20.727l-28.553-28.552  c13.849-12.154,25.505-16.054,37.403-19.194L299.859,70.837z M274.898,102.472c13.849-12.154,25.505-16.054,37.403-19.194  l27.019,27.019c-10.989,3.495-22.612,8.875-35.87,20.727L274.898,102.472z M325.81,18.432l28.55,28.551  c-13.846,12.152-25.501,16.053-37.396,19.193l-27.018-27.018C300.933,35.661,312.554,30.282,325.81,18.432z M224.554,73.895  l28.553,28.552c-11.852,13.257-17.234,24.88-20.729,35.868l-27.019-27.019C208.498,99.399,212.399,87.743,224.554,73.895z   M200.697,128.402l27.019,27.019c-3.139,11.895-7.039,23.549-19.188,37.394l-28.552-28.552  C191.822,151.009,197.202,139.388,200.697,128.402z M208.553,214.608l28.553,28.553c-13.848,12.155-25.504,16.057-37.4,19.196  l-27.019-27.019C183.674,231.843,195.296,226.46,208.553,214.608z M116.12,200.539l27.018,27.018  c-10.989,3.495-22.611,8.875-35.869,20.727l-28.556-28.556C92.564,207.57,104.22,203.679,116.12,200.539z M311.299,217.238  l-27.019-27.019c3.14-11.897,7.041-23.553,19.195-37.402l28.553,28.553C320.177,194.627,314.795,206.25,311.299,217.238z   M395.887,145.097l-27.019-27.019c10.987-3.495,22.607-8.876,35.862-20.726l28.556,28.556  C419.438,138.064,407.784,141.957,395.887,145.097z"/>
<g>
</g>
<g>
</g>
<g>
</g>
<g>
</g>
<g>
</g>
<g>
</g>
<g>
</g>
<g>
</g>
<g>
</g>
<g>
</g>
<g>
</g>
<g>
</g>
<g>
</g>
<g>
</g>
<g>
</g>
</svg>
