<?xml version="1.0" encoding="iso-8859-1"?>
<!-- Generator: Adobe Illustrator 19.0.0, SVG Export Plug-In . SVG Version: 6.00 Build 0)  -->
<svg xmlns="http://www.w3.org/2000/svg" xmlns:xlink="http://www.w3.org/1999/xlink" version="1.1" id="Capa_1" x="0px" y="0px" viewBox="0 0 512.001 512.001" style="enable-background:new 0 0 512.001 512.001;" xml:space="preserve">
<g>
	<path style="fill:#F3C74F;" d="M406.138,326.144c19.832,0,38.364-6.594,52.648-19.285c20.195-17.944,28.699-45.599,22.748-73.98   c-2.407-11.481-13.666-18.837-25.145-16.428c-11.481,2.407-18.836,13.665-16.428,25.145c2.868,13.68-0.466,25.58-9.389,33.509   c-10.045,8.925-25.701,11.003-41.883,5.558c-11.12-3.742-23.162,2.239-26.904,13.356s2.239,23.162,13.356,26.904   C385.551,324.426,396.014,326.144,406.138,326.144z"/>
	<path style="fill:#F3C74F;" d="M110.578,326.144c-19.832,0-38.364-6.594-52.648-19.285c-20.195-17.944-28.699-45.599-22.748-73.98   c2.407-11.481,13.666-18.837,25.145-16.428c11.481,2.407,18.836,13.665,16.428,25.145c-2.868,13.68,0.466,25.58,9.389,33.509   c10.044,8.925,25.701,11.003,41.881,5.558c11.12-3.742,23.162,2.239,26.904,13.356c3.741,11.118-2.239,23.162-13.356,26.904   C131.165,324.426,120.702,326.144,110.578,326.144z"/>
</g>
<circle style="fill:#0081C6;" cx="376.018" cy="142.536" r="48.781"/>
<circle style="fill:#F3C74F;" cx="376.018" cy="142.536" r="22.775"/>
<circle style="fill:#0081C6;" cx="140.699" cy="142.536" r="48.781"/>
<circle style="fill:#F3C74F;" cx="140.699" cy="142.536" r="22.775"/>
<path style="opacity:0.2;enable-background:new    ;" d="M169.54,103.2c-22.935,20.728-42.388,49.263-56.206,79.72  c7.804,5.3,17.224,8.399,27.37,8.399c26.941,0,48.781-21.84,48.781-48.781C189.484,126.389,181.631,112.078,169.54,103.2z"/>
<path style="fill:#40BAB3;" d="M411.63,276.306c0-84.399-70.362-205.986-153.272-205.986S105.086,191.906,105.086,276.306  s68.623,152.819,153.272,152.819S411.63,360.705,411.63,276.306z"/>
<path style="fill:#FFFFFF;" d="M107.668,304.333c13.203,71.012,75.643,124.792,150.691,124.792s137.487-53.78,150.691-124.792  H107.668z"/>
<path style="fill:#0081C6;" d="M134.801,366.729c27.897,37.835,72.846,62.395,123.558,62.395s95.661-24.56,123.558-62.395H134.801z"/>
<path style="opacity:0.2;enable-background:new    ;" d="M274.611,412.872c-84.65,0-153.272-68.419-153.272-152.819  c0-50.811,25.508-115.09,63.898-158.212c-47.278,41.735-80.15,116.781-80.15,174.465c0,84.399,68.623,152.819,153.272,152.819  c46.541,0,88.233-20.687,116.343-53.336C347.846,398.895,312.866,412.872,274.611,412.872z"/>
<g>
	<path style="fill:#F0B0B7;" d="M181.745,258.595h-25.588c-4.399,0-7.965-3.565-7.965-7.965s3.566-7.965,7.965-7.965h25.588   c4.399,0,7.965,3.565,7.965,7.965C189.71,255.029,186.144,258.595,181.745,258.595z"/>
	<path style="fill:#F0B0B7;" d="M360.558,258.595H334.97c-4.4,0-7.965-3.565-7.965-7.965s3.565-7.965,7.965-7.965h25.588   c4.4,0,7.965,3.565,7.965,7.965C368.522,255.029,364.957,258.595,360.558,258.595z"/>
	<path style="fill:#F0B0B7;" d="M258.358,134.877c19.33,0,40.11-4.601,56.489-12.642c46.641,7.946,79.393-16.365,79.393-44.835   c0-38.348-60.836-69.435-135.882-69.435S122.477,39.052,122.477,77.401c0,28.47,32.752,52.781,79.393,44.835   C218.248,130.276,239.028,134.877,258.358,134.877z"/>
</g>
<path style="opacity:0.15;enable-background:new    ;" d="M331.152,111.494c-4.455-0.478-8.944,0.207-13.086,1.914  c-15.215,6.267-33.238,9.79-50.152,9.79s-34.937-3.524-50.152-9.79c-4.163-1.715-8.672-2.384-13.148-1.906  c-42.987,4.588-72.582-18.717-72.582-45.781c0-7.245,2.175-14.23,6.203-20.796c-10.056,9.691-15.758,20.742-15.758,32.476  c0,28.47,32.752,52.781,79.393,44.835c16.379,8.04,37.159,12.643,56.489,12.643c19.33,0,40.11-4.601,56.489-12.643  c35.829,6.104,63.442-6.835,74.328-26.065C376.393,107.495,356.013,114.161,331.152,111.494z"/>
<g style="opacity:0.15;">
	<path d="M204.708,92.399c-4.399,0-7.965-3.565-7.965-7.965c0-8.787,4.367-30.373,14.887-42.837   c2.838-3.36,7.862-3.787,11.224-0.949c3.361,2.838,3.786,7.862,0.949,11.224c-7.708,9.133-11.13,27.226-11.13,32.562   C212.673,88.833,209.108,92.399,204.708,92.399z"/>
	<path d="M312.007,92.399c-4.399,0-7.965-3.565-7.965-7.965c0-5.335-3.423-23.429-11.13-32.563   c-2.838-3.361-2.413-8.385,0.95-11.223c3.36-2.839,8.386-2.412,11.223,0.949c10.52,12.464,14.887,34.05,14.887,42.836   C319.972,88.833,316.407,92.399,312.007,92.399z"/>
</g>
<g style="opacity:0.25;">
	<path style="fill:#FFFFFF;" d="M322.181,16.09c-2.395,5.435-3.734,11.442-3.734,17.762c0,24.363,19.75,44.114,44.114,44.114   c11.553,0,22.063-4.446,29.928-11.714C385.611,44.48,358.927,26.1,322.181,16.09z"/>
</g>
<circle style="fill:#B4D9E6;" cx="452.659" cy="214.441" r="26.471"/>
<path style="opacity:0.2;fill:#FFFFFF;enable-background:new    ;" d="M455.347,188.109c-2.893,2.786-4.7,6.69-4.7,11.024  c0,8.456,6.856,15.312,15.312,15.312c5.105,0,9.614-2.507,12.396-6.348C475.718,197.388,466.571,189.243,455.347,188.109z"/>
<circle style="fill:#B4D9E6;" cx="45.235" cy="112.323" r="26.471"/>
<path style="opacity:0.2;fill:#FFFFFF;enable-background:new    ;" d="M47.927,85.99c-2.893,2.786-4.7,6.69-4.7,11.024  c0,8.456,6.856,15.312,15.312,15.312c5.105,0,9.614-2.507,12.396-6.348C68.299,95.27,59.15,87.124,47.927,85.99z"/>
<circle style="fill:#C6E4EF;" cx="456.928" cy="71.417" r="26.471"/>
<path style="opacity:0.2;fill:#FFFFFF;enable-background:new    ;" d="M459.617,45.084c-2.893,2.786-4.7,6.69-4.7,11.024  c0,8.457,6.856,15.312,15.312,15.312c5.105,0,9.614-2.507,12.396-6.348C479.988,54.365,470.84,46.218,459.617,45.084z"/>
<path style="fill:#B4D9E6;" d="M493.236,378.58c0-51.666-41.885-93.551-93.551-93.551c-33.39,0-62.689,17.497-79.243,43.817  c-4.556,1.48-8.948,3.32-13.151,5.477c-11.353-5.771-24.188-9.045-37.796-9.045c-11.183,0-21.846,2.214-31.594,6.201  c0.388-2.138,0.601-4.337,0.601-6.587c0-20.256-16.421-36.677-36.677-36.677c-8.763,0-16.805,3.078-23.115,8.206  c-14.358-7.283-30.597-11.392-47.798-11.392c-58.431,0-105.798,47.368-105.798,105.798s47.368,105.798,105.798,105.798  c8.968,0,17.673-1.12,25.988-3.221c9.404,4.279,19.841,6.682,30.846,6.682c13.336,0,25.838-3.521,36.667-9.657  c11.521,8.114,25.559,12.895,40.722,12.895c14.121,0,27.264-4.149,38.31-11.271c13.18,7.606,28.457,11.981,44.768,11.981  c19.465,0,37.468-6.214,52.176-16.737c5.409,3.846,12.017,6.116,19.16,6.116c18.284,0,33.105-14.822,33.105-33.105  c0-1.495-0.108-2.964-0.301-4.407C477.033,439.058,493.236,410.713,493.236,378.58z"/>
<path style="opacity:0.07;enable-background:new    ;" d="M67.819,305.897c6.526,7.697,16.26,12.587,27.14,12.587  c18.934,0,34.406-14.792,35.507-33.449C106.993,285.132,85.324,292.871,67.819,305.897z"/>
<g>
	<path style="opacity:0.2;fill:#FFFFFF;enable-background:new    ;" d="M399.685,285.029c-0.988,0-1.972,0.018-2.952,0.049   c-16.461,10.565-27.378,29.018-27.378,50.031c0,32.819,26.604,59.424,59.424,59.424c29.23,0,53.514-21.112,58.479-48.916   C473.925,310.216,439.749,285.029,399.685,285.029z"/>
	<circle style="opacity:0.1;fill:#FFFFFF;enable-background:new    ;" cx="358.485" cy="453.158" r="32.082"/>
	<path style="opacity:0.2;fill:#FFFFFF;enable-background:new    ;" d="M303.64,332.585c-10.426-4.681-21.975-7.306-34.145-7.306   c-2.815,0-5.596,0.141-8.34,0.415c-1.783,3.253-2.8,6.986-2.8,10.957c0,12.611,10.223,22.833,22.834,22.833   c12.611,0,22.833-10.222,22.833-22.833C304.022,335.261,303.878,333.907,303.64,332.585z"/>
	<circle style="opacity:0.15;fill:#FFFFFF;enable-background:new    ;" cx="136.992" cy="354.173" r="40.354"/>
	<path style="opacity:0.2;fill:#FFFFFF;enable-background:new    ;" d="M201.825,288.215c-2.732,0-5.395,0.299-7.957,0.867   c-3.682,4.948-5.862,11.079-5.862,17.721c0,16.409,13.302,29.711,29.711,29.711c8.018,0,15.288-3.182,20.633-8.344   c0.099-1.08,0.152-2.173,0.152-3.278C238.502,304.636,222.081,288.215,201.825,288.215z"/>
</g>
<circle style="fill:#C6E4EF;" cx="100.27" cy="271.224" r="35.576"/>
<path style="opacity:0.2;fill:#FFFFFF;enable-background:new    ;" d="M103.888,235.833c-3.888,3.743-6.318,8.992-6.318,14.815  c0,11.365,9.214,20.579,20.579,20.579c6.86,0,12.92-3.37,16.659-8.531C131.265,248.305,118.971,237.357,103.888,235.833z"/>
<circle style="opacity:0.07;enable-background:new    ;" cx="212.837" cy="417.582" r="35.576"/>
<circle style="fill:#C6E4EF;" cx="222.597" cy="407.813" r="35.576"/>
<path style="opacity:0.2;fill:#FFFFFF;enable-background:new    ;" d="M226.219,372.417c-3.888,3.743-6.318,8.992-6.318,14.814  c0,11.365,9.214,20.579,20.579,20.579c6.86,0,12.92-3.371,16.659-8.531C253.596,384.889,241.302,373.941,226.219,372.417z"/>
<circle style="opacity:0.07;enable-background:new    ;" cx="361.989" cy="375.805" r="35.576"/>
<circle style="fill:#C6E4EF;" cx="371.748" cy="366.046" r="35.576"/>
<path style="opacity:0.2;fill:#FFFFFF;enable-background:new    ;" d="M375.369,330.648c-3.888,3.743-6.318,8.992-6.318,14.815  c0,11.365,9.214,20.579,20.579,20.579c6.86,0,12.92-3.37,16.659-8.531C402.746,343.119,390.452,332.171,375.369,330.648z"/>
<path d="M45.235,146.762c18.988,0,34.436-15.448,34.436-34.436c0-18.989-15.448-34.437-34.436-34.437s-34.436,15.448-34.436,34.437  C10.798,131.314,26.246,146.762,45.235,146.762z M45.235,93.82c10.204,0,18.507,8.302,18.507,18.508s-8.302,18.506-18.507,18.506  s-18.507-8.301-18.507-18.507S35.03,93.82,45.235,93.82z M456.924,105.858c18.989,0,34.437-15.448,34.437-34.437  c0-18.988-15.448-34.436-34.437-34.436c-18.988,0-34.436,15.448-34.436,34.436C422.489,90.41,437.937,105.858,456.924,105.858z   M456.924,52.914c10.204,0,18.508,8.301,18.508,18.507c0,10.204-8.302,18.508-18.508,18.508c-10.204,0-18.507-8.302-18.507-18.508  C438.418,61.216,446.719,52.914,456.924,52.914z M222.601,364.271c-24.008,0-43.54,19.533-43.54,43.54  c0,24.008,19.533,43.54,43.54,43.54s43.54-19.533,43.54-43.54C266.141,383.803,246.609,364.271,222.601,364.271z M222.601,435.422  c-15.224,0-27.611-12.386-27.611-27.611c0-15.225,12.387-27.611,27.611-27.611c15.224,0,27.611,12.386,27.611,27.611  C250.212,423.036,237.825,435.422,222.601,435.422z M371.75,322.501c-24.008,0-43.54,19.533-43.54,43.54  c0,24.008,19.533,43.54,43.54,43.54c24.008,0,43.54-19.533,43.54-43.54C415.29,342.033,395.758,322.501,371.75,322.501z   M371.75,393.652c-15.225,0-27.611-12.386-27.611-27.611s12.386-27.611,27.611-27.611c15.225,0,27.611,12.386,27.611,27.611  C399.36,381.266,386.975,393.652,371.75,393.652z M501.202,378.579c0-28.338-11.677-53.996-30.466-72.431  c17.501-19.676,24.436-47.044,18.593-74.904c-0.628-2.99-1.74-5.872-3.251-8.517c0.658-2.655,1.013-5.428,1.013-8.282  c0-18.988-15.448-34.436-34.437-34.436c-18.988,0-34.436,15.448-34.436,34.436c0,11.211,5.387,21.185,13.706,27.477  c0.071,0.438,0.149,0.875,0.24,1.309c1.597,7.615,1.7,18.294-6.883,25.92c-1.676,1.489-3.613,2.727-5.738,3.725  c-0.531-25.082-6.833-52.937-17.479-79.903c18.687-9.589,30.694-28.803,30.694-50.434c0-22.163-13.084-42.19-32.707-51.405  c1.409-4.427,2.153-9.033,2.153-13.734C402.204,33.999,339.019,0,258.358,0c-80.662,0-143.846,33.999-143.846,77.4  c0,4.701,0.743,9.308,2.153,13.736c-19.622,9.215-32.706,29.241-32.706,51.403c0,21.423,12.017,40.742,30.617,50.381  c-4.516,11.468-8.268,23.174-11.138,34.895c-1.047-0.075-2.102-0.127-3.168-0.127c-5.585,0-10.921,1.068-15.832,2.993  c-0.764-3.307-2.109-6.489-4.021-9.415c-4.267-6.53-10.82-11.008-18.455-12.609c-7.633-1.604-15.434-0.135-21.967,4.133  c-6.53,4.267-11.009,10.821-12.61,18.457c-6.308,30.084,2.241,59.497,22.889,79.373c-20.893,21.067-33.127,49.854-33.127,80.208  c0,62.729,51.034,113.763,113.763,113.763c8.516,0,16.998-0.948,25.254-2.82c10.035,4.17,20.645,6.281,31.579,6.281  c12.558,0,24.979-2.887,36.217-8.385c12.385,7.62,26.518,11.623,41.172,11.623c13.551,0,26.766-3.465,38.508-10.061  c13.749,7.059,29.06,10.771,44.57,10.771c18.72,0,36.728-5.255,52.402-15.244c5.822,3.037,12.272,4.624,18.934,4.624  c22.646,0,41.07-18.424,41.07-41.07c0-0.176-0.001-0.353-0.004-0.53C486.114,440.626,501.202,410.61,501.202,378.579z   M452.655,195.938c10.204,0,18.508,8.301,18.508,18.507c0,10.204-8.302,18.508-18.508,18.508c-10.204,0-18.507-8.302-18.507-18.508  S442.45,195.938,452.655,195.938z M435.861,281.058c9.152-8.132,13.627-19.426,13.016-32.389c1.241,0.136,2.5,0.211,3.776,0.211  c8.422,0,16.145-3.045,22.135-8.084c2.653,20.757-3.215,40.627-16.26,55.106c-7.598-5.423-15.974-9.821-24.921-13.003  C434.382,282.313,435.137,281.702,435.861,281.058z M403.666,276.306c0,0.28-0.012,0.563-0.013,0.844  c-1.317-0.051-2.638-0.085-3.967-0.085c-34.162,0-65.51,16.818-84.426,45.137c-2.699,0.969-5.37,2.062-7.989,3.273  c-11.898-5.418-24.586-8.162-37.775-8.162c-7.916,0-15.702,1.005-23.262,2.995c-2.302-22.47-21.34-40.058-44.408-40.058  c-8.478,0-16.799,2.44-23.913,6.949c-11.005-5.009-22.59-8.172-34.591-9.463c0.32-2.125,0.489-4.298,0.489-6.51  c0-17.364-10.22-32.381-24.958-39.366c8.838-36.09,27.16-73.239,50.045-101.386c9.958,1.607,20.688,1.658,31.781,0.014  c17.02,7.869,37.88,12.353,57.679,12.353s40.66-4.485,57.68-12.353c11.094,1.644,21.825,1.593,31.783-0.014  C381.35,171.662,403.666,229.67,403.666,276.306z M125.894,142.539c0-8.166,6.644-14.81,14.81-14.81c2.979,0,5.833,0.906,8.242,2.52  c-5.765,7.858-11.164,16.169-16.142,24.812C128.615,152.409,125.894,147.737,125.894,142.539z M367.755,130.256  c2.412-1.622,5.276-2.529,8.258-2.529c8.165,0,14.809,6.644,14.809,14.81c0,5.236-2.746,9.925-6.974,12.566  C378.89,146.461,373.51,138.128,367.755,130.256z M392.734,105.303c14.429,6.502,24.096,21.078,24.096,37.236  c0,15.158-8.19,28.67-21.035,35.735c-1.408-3.065-2.879-6.104-4.394-9.12c9.275-5.369,15.352-15.393,15.352-26.614  c0-13.649-8.945-25.244-21.278-29.243C388.215,110.803,390.637,108.127,392.734,105.303z M258.358,15.929  c69.338,0,127.917,28.15,127.917,61.47c0,9.314-4.519,18.257-12.723,25.183c-13.518,11.408-34.425,15.71-57.367,11.8  c-1.65-0.281-3.346-0.035-4.847,0.702c-15.086,7.406-34.893,11.827-52.98,11.827c-18.088,0-37.893-4.421-52.979-11.827  c-1.098-0.539-2.299-0.816-3.51-0.816c-0.446,0-0.893,0.037-1.338,0.113c-22.943,3.91-43.85-0.393-57.367-11.802  c-8.206-6.925-12.723-15.868-12.723-25.182C130.441,44.08,189.02,15.929,258.358,15.929z M99.888,142.539  c0-16.159,9.667-30.734,24.095-37.236c2.095,2.825,4.519,5.501,7.26,7.993c-12.334,4-21.278,15.594-21.278,29.243  c0,11.164,6.046,21.172,15.27,26.56c-1.514,3.009-2.975,6.048-4.384,9.112C108.077,171.103,99.888,157.539,99.888,142.539z   M100.27,243.616c15.224,0,27.611,12.386,27.611,27.611c0,15.225-12.387,27.611-27.611,27.611s-27.611-12.386-27.611-27.611  S85.045,243.616,100.27,243.616z M42.977,234.514c0.727-3.472,2.764-6.45,5.732-8.389c2.967-1.94,6.512-2.611,9.983-1.879  c3.47,0.727,6.45,2.763,8.389,5.73c1.939,2.968,2.606,6.515,1.879,9.986c-0.091,0.439-0.17,0.877-0.252,1.317  c-7.416,7.811-11.98,18.353-11.98,29.948c0,9.922,3.343,19.074,8.952,26.405c-1.136,0.798-2.258,1.611-3.359,2.447  C44.943,284.036,37.71,259.63,42.977,234.514z M447.864,449.323c-2.485,1.696-3.802,4.646-3.406,7.629  c0.154,1.153,0.232,2.282,0.232,3.356c0,13.863-11.278,25.141-25.141,25.141c-5.244,0-10.272-1.606-14.542-4.643  c-2.769-1.969-6.485-1.965-9.251,0.014c-13.945,9.977-30.384,15.251-47.542,15.251c-14.31,0-28.414-3.774-40.787-10.915  c-2.586-1.491-5.788-1.413-8.298,0.204c-10.147,6.543-21.902,10-33.993,10c-13.012,0-25.507-3.957-36.136-11.443  c-2.519-1.773-5.833-1.935-8.514-0.417c-9.955,5.642-21.275,8.623-32.74,8.623c-9.578,0-18.847-2.008-27.546-5.966  c-1.645-0.75-3.496-0.914-5.249-0.473c-7.823,1.975-15.911,2.978-24.038,2.978c-53.945,0-97.834-43.887-97.834-97.834  c0-33.247,17.068-64.298,44.853-82.244c6.535,3.923,14.176,6.185,22.338,6.185c15.981,0,29.971-8.661,37.544-21.53  c13.065,0.902,25.59,4.349,37.293,10.286c2.807,1.424,6.187,1.061,8.627-0.923c5.167-4.2,11.422-6.421,18.09-6.421  c15.832,0,28.712,12.88,28.712,28.712c0,1.695-0.159,3.433-0.474,5.164c-0.519,2.862,0.563,5.778,2.822,7.61  c2.26,1.831,5.338,2.283,8.029,1.184c9.101-3.722,18.717-5.608,28.58-5.608c12.008,0,23.509,2.753,34.187,8.18  c2.276,1.159,4.973,1.153,7.245-0.014c3.866-1.983,7.895-3.662,11.978-4.988c1.772-0.577,3.288-1.755,4.28-3.335  c15.789-25.106,42.892-40.093,72.501-40.093c47.193,0,85.587,38.393,85.587,85.585C485.273,406.89,471.288,433.338,447.864,449.323z   M288.385,215.872c-4.4,0-7.965,3.565-7.965,7.965c0,3.886-3.162,7.048-7.049,7.048c-3.887,0-7.049-3.162-7.049-7.048  c0-4.4-3.565-7.965-7.965-7.965c-4.399,0-7.965,3.565-7.965,7.965c0,3.886-3.163,7.048-7.048,7.048  c-3.887,0-7.049-3.162-7.049-7.048c0-4.4-3.566-7.965-7.965-7.965c-4.399,0-7.965,3.565-7.965,7.965  c0,12.67,10.307,22.978,22.979,22.978c5.734,0,10.984-2.111,15.013-5.597c4.03,3.484,9.279,5.597,15.014,5.597  c12.67,0,22.979-10.307,22.979-22.978C296.35,219.438,292.785,215.872,288.385,215.872z M339.799,213.1v4.196  c0,4.4,3.566,7.965,7.965,7.965c4.4,0,7.965-3.565,7.965-7.965V213.1c0-4.4-3.565-7.965-7.965-7.965  C343.366,205.135,339.799,208.701,339.799,213.1z M168.952,205.135c-4.399,0-7.965,3.565-7.965,7.965v4.196  c0,4.4,3.566,7.965,7.965,7.965s7.965-3.565,7.965-7.965V213.1C176.917,208.701,173.351,205.135,168.952,205.135z"/>
<g>
</g>
<g>
</g>
<g>
</g>
<g>
</g>
<g>
</g>
<g>
</g>
<g>
</g>
<g>
</g>
<g>
</g>
<g>
</g>
<g>
</g>
<g>
</g>
<g>
</g>
<g>
</g>
<g>
</g>
</svg>
