<?xml version="1.0" encoding="iso-8859-1"?>
<!-- Generator: Adobe Illustrator 19.0.0, SVG Export Plug-In . SVG Version: 6.00 Build 0)  -->
<svg xmlns="http://www.w3.org/2000/svg" xmlns:xlink="http://www.w3.org/1999/xlink" version="1.1" id="Capa_1" x="0px" y="0px" viewBox="0 0 512.001 512.001" style="enable-background:new 0 0 512.001 512.001;" xml:space="preserve">
<path style="fill:#FF5364;" d="M454.353,317.788c-1.148,108.366-89.899,195.298-198.264,194.204  c-108.366,1.095-197.117-85.838-198.264-194.204c0.018-8.916,0.583-17.814,1.677-26.659c1.589-14.768,4.122-29.422,7.592-43.872  c1.501-6.532,3.178-13.241,5.12-19.95c1.765-6.356,3.708-12.8,5.738-19.332c0.618-1.854,1.148-3.708,1.854-5.561  c0.441-1.501,0.971-3.09,1.501-4.679c0.177-0.441,0.265-0.794,0.441-1.236c3.266-9.622,6.974-19.332,10.946-28.954  c1.854-4.502,3.708-8.916,5.738-13.329c3.443-7.945,7.238-15.889,11.211-23.658c3.708-7.327,7.592-14.477,11.652-21.451  c4.237-7.327,8.563-14.477,13.153-21.362c2.207-3.443,4.502-6.709,6.797-9.975c1.236-1.677,2.383-3.266,3.531-4.855h0.177  c6.347-8.739,13.215-17.081,20.568-24.982c5.994-6.373,12.332-12.411,18.979-18.096C204.14,11.714,229.571,1.148,256.266,0  c32.75,0,63.646,18.891,90.923,48.198c7.565,8.139,14.636,16.71,21.186,25.688c0.088,0.088,0.088,0.088,0.088,0.177  c0.088,0.265,0.265,0.53,0.353,0.794c0.883,1.236,1.677,2.383,2.648,3.619c6.983,9.878,13.462,20.1,19.42,30.631  c3.972,6.797,7.856,13.947,11.476,21.186c6.179,12.182,11.891,24.602,17.125,37.252c3.972,9.622,7.68,19.244,10.946,28.954  c0.185,0.486,0.335,0.989,0.441,1.501c0.53,1.501,1.059,3.09,1.501,4.59c0.618,1.765,1.236,3.619,1.765,5.385  c8.995,27.012,15.21,54.88,18.538,83.154C453.771,299.974,454.327,308.872,454.353,317.788z"/>
<g>
	<path style="fill:#DF4D60;" d="M255.912,511.991c-108.366,1.095-197.117-85.838-198.264-194.204c0-2.913,0.088-5.914,0.265-9.004   l3.972,0.177c9.03-1.977,17.796-5.005,26.129-9.004c2.472-1.148,4.943-2.295,7.415-3.531l1.942,3.707   C97.372,300.133,168.256,511.726,255.912,511.991z"/>
	<path style="fill:#DF4D60;" d="M454.177,317.788c-1.156,108.189-89.634,195.042-197.823,194.204   c87.656-0.441,158.452-211.858,158.452-211.858l0.353-4.59c11.043,6.064,22.863,10.584,35.133,13.418l3.619-0.088   C454.088,311.962,454.177,314.875,454.177,317.788z"/>
</g>
<path style="fill:#7F5B53;" d="M445.879,185.376c-0.15,10.028-3.875,19.668-10.505,27.188v0.088  c-1.448,1.889-3.037,3.663-4.767,5.296c-17.92,17.567-49.875,29.219-86.244,29.219c-37.87,0-70.884-12.623-88.274-31.337  c-17.39,18.714-50.405,31.337-88.274,31.337c-36.634,0-68.766-11.829-86.597-29.572c-1.713-1.686-3.301-3.487-4.767-5.385  c-6.391-7.503-9.975-16.984-10.152-26.835c0-20.568,16.596-38.841,42.019-49.963c0.291-0.132,0.583-0.247,0.883-0.353  c18.546-7.786,38.496-11.696,58.614-11.476c37.87,0,70.884,12.623,88.274,31.337c17.39-18.714,50.405-31.337,88.274-31.337  c19.977-0.203,39.785,3.602,58.261,11.211c0.265,0.088,0.53,0.265,0.794,0.353v0.088  C429.107,146.271,445.879,164.632,445.879,185.376z"/>
<path style="fill:#B0D3F0;" d="M344.363,211.858c-30.26,0-53.132-10.072-62.383-20.047l-5.976-6.435l5.967-6.435  c9.26-9.975,32.132-20.047,62.392-20.047c13.85-0.124,27.621,2.207,40.659,6.877l4.476,1.942  c14.371,6.162,21.071,14.186,21.071,17.664c-0.644,2.869-2.251,5.429-4.564,7.247C396.887,201.548,375.348,211.858,344.363,211.858z   M167.815,211.858c-31.258,0-52.762-10.381-61.677-19.261c-2.269-1.836-3.866-4.378-4.528-7.221c0-2.675,5.252-10.822,20.868-17.655  c14.353-6.003,29.784-9.004,45.338-8.827c30.26,0,53.132,10.072,62.383,20.047l5.967,6.435l-5.967,6.435  C220.947,201.786,198.066,211.858,167.815,211.858z"/>
<path style="fill:#F0C419;" d="M415.159,295.543l-0.353,4.59c0,0-70.796,211.417-158.452,211.858h-0.441  c-87.656-0.265-158.541-211.858-158.541-211.858l-1.942-3.707c25.732-13.921,49.99-30.428,72.385-49.257  c37.87,0,70.884-12.623,88.274-31.337c17.39,18.714,50.405,31.337,88.274,31.337C366.282,265.618,390.001,281.816,415.159,295.543z"/>
<g>
	<path style="fill:#464F5D;" d="M229.616,335.443c-3.143,0-6.047-1.66-7.636-4.378c-1.218-1.995-2.842-3.716-4.758-5.058   c-2.454-1.739-5.173-3.072-8.059-3.919c-6.824-2.03-14.097-2.03-20.921,0c-2.887,0.856-5.605,2.18-8.059,3.919   c-1.916,1.342-3.531,3.063-4.758,5.058c-2.348,4.016-7.406,5.526-11.573,3.452l-17.655-8.827c-4.352-2.198-6.1-7.503-3.911-11.855   c2.189-4.334,7.459-6.091,11.802-3.937l11.246,5.623c1.386-1.377,2.869-2.639,4.449-3.787c4.025-2.895,8.51-5.102,13.259-6.523   c10.205-3.054,21.08-3.054,31.284,0c4.749,1.43,9.233,3.628,13.259,6.523c3.893,2.772,7.168,6.329,9.613,10.443   c2.454,4.211,1.042,9.613-3.169,12.067C232.705,335.028,231.178,335.443,229.616,335.443z"/>
	<path style="fill:#464F5D;" d="M183.271,323.349c-2.957,0.009-5.72-1.474-7.353-3.937l-15.448-23.216   c-2.719-4.043-1.651-9.525,2.401-12.253c4.043-2.719,9.525-1.651,12.252,2.401c0.018,0.026,0.035,0.053,0.053,0.079l15.448,23.216   c2.701,4.052,1.607,9.534-2.445,12.235C186.714,322.828,185.01,323.349,183.271,323.349L183.271,323.349z"/>
	<path style="fill:#464F5D;" d="M282.562,335.443c-4.873,0-8.827-3.955-8.819-8.827c0-1.562,0.415-3.098,1.201-4.449   c2.445-4.114,5.72-7.662,9.613-10.443c4.025-2.895,8.51-5.102,13.259-6.523c10.204-3.054,21.08-3.054,31.284,0   c4.749,1.43,9.234,3.628,13.259,6.523c1.58,1.148,3.072,2.41,4.449,3.787l11.246-5.623c4.352-2.198,9.666-0.441,11.855,3.911   c2.198,4.352,0.441,9.666-3.911,11.855c-0.018,0.009-0.035,0.018-0.053,0.026l-17.655,8.827c-4.167,2.074-9.225,0.565-11.573-3.452   c-1.218-1.995-2.842-3.716-4.758-5.058c-2.454-1.739-5.173-3.072-8.059-3.919c-6.824-2.03-14.097-2.03-20.921,0   c-2.887,0.856-5.605,2.18-8.059,3.919c-1.916,1.342-3.531,3.063-4.758,5.058C288.609,333.783,285.705,335.451,282.562,335.443z"/>
	<path style="fill:#464F5D;" d="M328.906,323.349c-4.873,0-8.819-3.946-8.819-8.819c0-1.739,0.512-3.443,1.483-4.899l15.448-23.216   c2.675-4.069,8.148-5.199,12.226-2.525c4.069,2.675,5.199,8.148,2.525,12.226c-0.018,0.026-0.035,0.053-0.053,0.079l-15.448,23.216   C334.627,321.875,331.864,323.358,328.906,323.349z"/>
	<path style="fill:#464F5D;" d="M247.253,467.854c-4.873,0-8.827-3.955-8.827-8.836c0-3.84,2.489-7.247,6.153-8.413l36.757-11.688   l-15.66-9.392c-8.086-4.352-11.114-14.433-6.771-22.519c1.545-2.869,3.902-5.226,6.771-6.771l15.713-9.375l-36.81-11.705   c-4.643-1.492-7.194-6.462-5.703-11.105c1.483-4.626,6.426-7.177,11.061-5.72l37.155,11.82c6.903,1.907,12.014,7.724,13.029,14.812   c0.653,6.718-2.745,13.171-8.642,16.446l-15.845,9.445l15.845,9.507c5.897,3.266,9.295,9.728,8.642,16.437   c-1.006,7.088-6.126,12.906-13.02,14.812l-37.163,11.82C249.071,467.713,248.162,467.854,247.253,467.854z"/>
</g>
<g>
</g>
<g>
</g>
<g>
</g>
<g>
</g>
<g>
</g>
<g>
</g>
<g>
</g>
<g>
</g>
<g>
</g>
<g>
</g>
<g>
</g>
<g>
</g>
<g>
</g>
<g>
</g>
<g>
</g>
</svg>
