<?xml version="1.0" encoding="iso-8859-1"?>
<!-- Generator: Adobe Illustrator 19.0.0, SVG Export Plug-In . SVG Version: 6.00 Build 0)  -->
<svg xmlns="http://www.w3.org/2000/svg" xmlns:xlink="http://www.w3.org/1999/xlink" version="1.1" id="Layer_1" x="0px" y="0px" viewBox="0 0 512 512" style="enable-background:new 0 0 512 512;" xml:space="preserve">
<rect x="217.077" y="7.604" style="fill:#EDD154;" width="44.225" height="496.792"/>
<g>
	<rect x="217.077" y="7.604" style="fill:#D6B31D;" width="19.909" height="496.792"/>
	<rect x="217.077" y="92.393" style="fill:#D6B31D;" width="44.225" height="158.984"/>
</g>
<polygon style="fill:#E24260;" points="470.456,138.433 419.124,217.919 41.542,217.919 41.542,58.946 419.124,58.946 "/>
<path style="fill:#CE2647;" d="M340.397,217.919H41.542V58.946h50.977C92.518,58.946,147.267,208.196,340.397,217.919z"/>
<path d="M476.845,134.307l-51.337-79.49c-1.401-2.169-3.807-3.479-6.388-3.479h-64.02c-4.2,0-7.604,3.405-7.604,7.604  s3.404,7.604,7.604,7.604h59.88l46.427,71.886l-46.427,71.887H49.145V66.547h280.608c4.2,0,7.604-3.405,7.604-7.604  s-3.404-7.604-7.604-7.604H268.91V7.604c0-4.199-3.404-7.604-7.604-7.604h-44.225c-4.2,0-7.604,3.405-7.604,7.604v43.735H41.542  c-4.2,0-7.604,3.405-7.604,7.604v158.981c0,4.199,3.404,7.604,7.604,7.604h167.937v89.306c0,4.199,3.404,7.604,7.604,7.604  c4.2,0,7.604-3.405,7.604-7.604v-89.306h29.017v271.265h-29.017V340.18c0-4.199-3.404-7.604-7.604-7.604  c-4.2,0-7.604,3.405-7.604,7.604v164.216c0,4.199,3.404,7.604,7.604,7.604h44.225c4.2,0,7.604-3.405,7.604-7.604V225.527h150.21  c2.581,0,4.987-1.31,6.388-3.479l51.337-79.491C478.468,140.047,478.468,136.819,476.845,134.307z M224.685,15.208h29.017v36.131  h-29.017V15.208z"/>
<path d="M108.974,117.473c4.2,0,7.604-3.405,7.604-7.604s-3.404-7.604-7.604-7.604H86.439c-4.2,0-7.604,3.405-7.604,7.604v57.127  c0,4.199,3.404,7.604,7.604,7.604s7.604-3.405,7.604-7.604v-22.131h11.848c4.2,0,7.604-3.405,7.604-7.604  c0-4.199-3.404-7.604-7.604-7.604H94.043v-12.185H108.974z"/>
<path d="M139.171,109.869v57.127c0,4.199,3.404,7.604,7.604,7.604c4.2,0,7.604-3.405,7.604-7.604v-57.127  c0-4.199-3.404-7.604-7.604-7.604C142.575,102.265,139.171,105.67,139.171,109.869z"/>
<path d="M254.391,109.869v57.127c0,4.199,3.404,7.604,7.604,7.604c4.2,0,7.604-3.405,7.604-7.604v-57.127  c0-4.199-3.404-7.604-7.604-7.604C257.794,102.265,254.391,105.67,254.391,109.869z"/>
<path d="M218.279,109.869v31.021l-22.346-35.104c-1.816-2.852-5.297-4.163-8.542-3.217c-3.245,0.946-5.477,3.92-5.477,7.301v57.127  c0,4.199,3.404,7.604,7.604,7.604c4.2,0,7.604-3.405,7.604-7.604v-31.021l22.346,35.104c1.421,2.234,3.864,3.522,6.415,3.521  c0.707,0,1.422-0.099,2.127-0.304c3.245-0.946,5.477-3.92,5.477-7.301v-57.127c0-4.199-3.404-7.604-7.604-7.604  C221.682,102.265,218.279,105.67,218.279,109.869z"/>
<path d="M361.302,102.265c-4.2,0-7.604,3.405-7.604,7.604v57.127c0,4.199,3.404,7.604,7.604,7.604c4.2,0,7.604-3.405,7.604-7.604  v-20.272h21.157v20.272c0,4.199,3.404,7.604,7.604,7.604s7.604-3.405,7.604-7.604v-57.127c0-4.199-3.404-7.604-7.604-7.604  s-7.604,3.405-7.604,7.604v21.647h-21.157v-21.647C368.906,105.67,365.503,102.265,361.302,102.265z"/>
<path d="M310.347,117.473h16.055c4.2,0,7.604-3.405,7.604-7.604s-3.404-7.604-7.604-7.604h-16.055  c-12.067,0-21.885,9.818-21.885,21.885s9.818,21.885,21.885,21.885h1.773c3.682,0,6.677,2.996,6.677,6.677  c0,3.681-2.995,6.677-6.677,6.677h-16.055c-4.2,0-7.604,3.405-7.604,7.604s3.404,7.604,7.604,7.604h16.055  c12.067,0,21.885-9.818,21.885-21.885s-9.818-21.885-21.885-21.885h-1.773c-3.682,0-6.677-2.996-6.677-6.677  S306.665,117.473,310.347,117.473z"/>
<g>
</g>
<g>
</g>
<g>
</g>
<g>
</g>
<g>
</g>
<g>
</g>
<g>
</g>
<g>
</g>
<g>
</g>
<g>
</g>
<g>
</g>
<g>
</g>
<g>
</g>
<g>
</g>
<g>
</g>
</svg>
