<?xml version="1.0" encoding="iso-8859-1"?>
<!-- Generator: Adobe Illustrator 19.0.0, SVG Export Plug-In . SVG Version: 6.00 Build 0)  -->
<svg xmlns="http://www.w3.org/2000/svg" xmlns:xlink="http://www.w3.org/1999/xlink" version="1.1" id="Capa_1" x="0px" y="0px" viewBox="0 0 512 512" style="enable-background:new 0 0 512 512;" xml:space="preserve">
<g>
	<path style="fill:#F3C74F;" d="M19.93,475.736c0-5.955,6.62-12.288,14.786-14.146s14.786,1.464,14.786,7.418   s-6.62,12.288-14.786,14.146C26.55,485.013,19.93,481.691,19.93,475.736z"/>
	<path style="fill:#F3C74F;" d="M77.597,462.619c0-5.955,6.62-12.288,14.786-14.146c8.167-1.858,14.786,1.464,14.786,7.418   s-6.62,12.288-14.786,14.146C84.216,471.895,77.597,468.574,77.597,462.619z"/>
	<polygon style="fill:#F3C74F;" points="107.169,373.981 49.502,387.098 49.502,411.126 107.169,398.008  "/>
</g>
<g>
	<polygon style="fill:#3DAD4B;" points="55.836,73.198 55.836,49.171 89.228,41.575 89.228,65.603  "/>
	<path style="fill:#3DAD4B;" d="M26.263,137.809c0-5.955,6.62-12.288,14.786-14.146c8.167-1.858,14.786,1.464,14.786,7.418   c0,5.955-6.62,12.288-14.786,14.146C32.884,147.085,26.263,143.764,26.263,137.809z"/>
</g>
<g>
	<path style="fill:#E6595A;" d="M386.213,464.742c0-5.955,6.62-12.288,14.786-14.146c8.167-1.858,14.786,1.464,14.786,7.418   s-6.62,12.288-14.786,14.146C392.834,474.018,386.213,470.697,386.213,464.742z"/>
	<path style="fill:#E6595A;" d="M443.88,451.624c0-5.955,6.62-12.288,14.786-14.146c8.167-1.858,14.786,1.464,14.786,7.42   c0,5.955-6.62,12.288-14.786,14.146S443.88,457.579,443.88,451.624z"/>
	<polygon style="fill:#E6595A;" points="473.452,362.987 415.785,376.103 415.785,400.131 473.452,387.014  "/>
</g>
<g>
	<polygon style="fill:#8E78CF;" points="458.296,155.775 458.296,131.747 491.688,124.151 491.688,148.179  "/>
	<path style="fill:#8E78CF;" d="M428.724,220.385c0-5.955,6.62-12.288,14.786-14.146s14.786,1.464,14.786,7.419   c0,5.955-6.62,12.288-14.786,14.146C435.343,229.661,428.724,226.34,428.724,220.385z"/>
</g>
<path style="fill:#F3C74F;" d="M84.058,322.856c-24.286,0-48.573-8.095-68.384-24.283c-9.038-7.385-10.378-20.698-2.993-29.736  c7.385-9.036,20.699-10.375,29.735-2.992c24.129,19.716,59.155,19.716,83.283,0c9.038-7.385,22.351-6.045,29.735,2.992  c7.385,9.038,6.045,22.351-2.993,29.736C132.629,314.762,108.344,322.856,84.058,322.856z"/>
<path style="opacity:0.2;enable-background:new    ;" d="M155.434,268.837c-7.385-9.037-20.697-10.377-29.735-2.992  c-9.741,7.959-21.259,12.702-33.119,14.235c-0.044,1.533-0.074,3.059-0.074,4.569c0,12.91,1.62,25.441,4.657,37.409  c19.789-2.392,39.038-10.214,55.279-23.485C161.48,291.189,162.82,277.875,155.434,268.837z"/>
<g>
	<path style="fill:#F3C74F;" d="M482.927,322.96c-4.702,0-9.433-1.563-13.359-4.77c-24.129-19.714-59.155-19.714-83.284,0   c-9.039,7.385-22.352,6.045-29.735-2.993c-7.385-9.037-6.045-22.35,2.992-29.735c39.625-32.378,97.144-32.378,136.768,0   c9.037,7.385,10.378,20.698,2.992,29.735C495.127,320.31,489.052,322.959,482.927,322.96z"/>
	<path style="fill:#F3C74F;" d="M301.427,501.371c-11.671,0-21.132-9.461-21.132-21.132v-80.023   c0-11.671,9.461-21.132,21.132-21.132c11.671,0,21.132,9.461,21.132,21.132v80.023C322.559,491.91,313.098,501.371,301.427,501.371   z"/>
</g>
<path style="opacity:0.2;enable-background:new    ;" d="M301.427,379.083c-11.671,0-21.132,9.461-21.132,21.132v44.321  c14.922-2.383,29.121-6.919,42.265-13.287v-31.033C322.559,388.544,313.098,379.083,301.427,379.083z"/>
<path style="fill:#F3C74F;" d="M210.558,501.371c-11.671,0-21.132-9.461-21.132-21.132v-80.023c0-11.671,9.461-21.132,21.132-21.132  s21.132,9.461,21.132,21.132v80.023C231.69,491.91,222.229,501.371,210.558,501.371z"/>
<path style="opacity:0.2;enable-background:new    ;" d="M210.558,379.083c-11.671,0-21.132,9.461-21.132,21.132v31.033  c13.143,6.368,27.343,10.904,42.265,13.287v-44.32C231.69,388.544,222.229,379.083,210.558,379.083z"/>
<g>
	<circle style="fill:#0081C6;" cx="373.059" cy="142.19" r="48.536"/>
	<circle style="fill:#0081C6;" cx="138.934" cy="142.19" r="48.536"/>
</g>
<path style="opacity:0.2;enable-background:new    ;" d="M167.621,103.054c-22.82,20.624-42.175,49.015-55.923,79.319  c7.765,5.274,17.137,8.357,27.232,8.357c26.805,0,48.536-21.73,48.536-48.536C187.465,126.126,179.651,111.887,167.621,103.054z"/>
<path style="fill:#40BAB3;" d="M408.493,275.29c0-83.975-70.008-204.95-152.501-204.95s-152.5,120.975-152.5,204.95  s68.277,152.05,152.501,152.05S408.493,359.264,408.493,275.29z"/>
<g>
	<path style="fill:#F0B0B7;" d="M179.765,257.667h-25.459c-4.376,0-7.925-3.547-7.925-7.925s3.548-7.925,7.925-7.925h25.459   c4.376,0,7.925,3.547,7.925,7.925S184.141,257.667,179.765,257.667z"/>
	<path style="fill:#F0B0B7;" d="M357.678,257.667h-25.459c-4.376,0-7.925-3.547-7.925-7.925s3.548-7.925,7.925-7.925h25.459   c4.376,0,7.925,3.547,7.925,7.925S362.054,257.667,357.678,257.667z"/>
</g>
<path style="fill:#FFFFFF;" d="M106.06,303.176c13.137,70.655,75.264,124.164,149.933,124.164s136.796-53.509,149.933-124.164  H106.06z"/>
<path style="fill:#0081C6;" d="M133.056,365.257c27.756,37.645,72.48,62.081,122.936,62.081s95.18-24.436,122.936-62.081H133.056z"/>
<path style="opacity:0.2;enable-background:new    ;" d="M272.163,411.168c-84.224,0-152.501-68.075-152.501-152.05  c0-50.556,25.38-114.511,63.577-157.417c-47.041,41.525-79.747,116.194-79.747,173.587c0,83.975,68.277,152.05,152.501,152.05  c46.307,0,87.789-20.583,115.756-53.067C345.03,397.262,310.226,411.168,272.163,411.168z"/>
<path style="fill:#394049;" d="M384.626,110.477h-24.302c0-28.279-9.893-47.946-30.242-60.125  c-17.094-10.231-42.022-15.418-74.088-15.418c-32.067,0-56.994,5.187-74.088,15.418c-20.35,12.179-30.243,31.846-30.243,60.125  H127.36c0-37.028,14.153-64.273,42.066-80.978c21.214-12.696,49.53-18.867,86.569-18.867s65.355,6.172,86.567,18.867  C370.472,46.204,384.626,73.449,384.626,110.477z"/>
<path style="fill:#E6595A;" d="M106.394,183.603l22.143,5.395c7.164,1.746,14.386-2.647,16.131-9.811l17.974-73.773  c1.746-7.164-2.647-14.386-9.811-16.131l-22.143-5.395c-7.164-1.746-14.386,2.647-16.131,9.811l-17.974,73.773  C94.837,174.635,99.23,181.858,106.394,183.603z"/>
<path style="opacity:0.2;enable-background:new    ;" d="M137.415,182.541l-22.143-5.395c-7.164-1.746-11.556-8.967-9.811-16.131  l17.974-73.773c0.301-1.238,0.777-2.386,1.377-3.441c-4.882,1.02-8.995,4.73-10.254,9.898l-17.974,73.773  c-1.746,7.164,2.647,14.386,9.811,16.131l22.143,5.395c5.925,1.444,11.882-1.319,14.755-6.369  C141.407,183.022,139.411,183.027,137.415,182.541z"/>
<path style="opacity:0.2;fill:#FFFFFF;enable-background:new    ;" d="M152.831,89.282l-11.035-2.688  c-5.169,4.924-8.396,11.868-8.396,19.571c0,13.406,9.762,24.527,22.564,26.657l6.678-27.408  C164.388,98.251,159.995,91.028,152.831,89.282z"/>
<path style="fill:#E6595A;" d="M405.59,183.603l-22.143,5.395c-7.164,1.746-14.387-2.647-16.131-9.811l-17.974-73.773  c-1.746-7.164,2.647-14.386,9.811-16.131l22.143-5.395c7.164-1.746,14.386,2.647,16.131,9.811l17.974,73.773  C417.147,174.635,412.754,181.858,405.59,183.603z"/>
<path style="opacity:0.2;enable-background:new    ;" d="M413.492,175.702l-22.143,5.395c-7.164,1.746-14.387-2.647-16.131-9.811  l-17.974-73.773c-0.653-2.681-0.446-5.369,0.443-7.776c-6.282,2.314-9.967,9.017-8.344,15.677l17.974,73.773  c1.746,7.164,8.967,11.556,16.131,9.811l22.143-5.395c4.483-1.093,7.88-4.33,9.368-8.356  C414.483,175.423,413.997,175.579,413.492,175.702z"/>
<path style="opacity:0.2;fill:#FFFFFF;enable-background:new    ;" d="M397.428,93.699c-1.746-7.164-8.967-11.556-16.131-9.811  l-3.802,0.927c-1.973,3.753-3.095,8.023-3.095,12.558c0,14.929,12.102,27.031,27.031,27.031c1.16,0,2.301-0.081,3.422-0.223  L397.428,93.699z"/>
<path d="M511.851,298.917c-0.778-7.723-4.515-14.68-10.525-19.591c-24.211-19.782-55.228-28.809-86.246-25.36  c-2.339-19.407-7.716-40.198-15.715-60.69l8.102-1.974l0,0c10.73-2.615,17.567-12.99,16.015-23.707  c3.952-7.842,6.033-16.557,6.033-25.401c0-18.194-8.632-35.018-23.236-45.645l-1.152-4.727c-1.345-5.522-4.76-10.189-9.615-13.142  c-2.37-1.441-4.946-2.382-7.602-2.818c-6.685-22.874-20.535-40.747-41.28-53.163C324.153,9.248,294.505,2.707,255.992,2.707  s-68.16,6.539-90.638,19.992c-20.746,12.415-34.595,30.29-41.28,53.164c-2.656,0.436-5.232,1.376-7.602,2.817  c-4.855,2.953-8.27,7.62-9.615,13.142l-1.152,4.728C91.101,107.176,82.47,124,82.47,142.194c0,8.844,2.082,17.559,6.032,25.4  c-1.553,10.717,5.284,21.093,16.015,23.708h0.001l8.102,1.974c-10.474,26.836-16.426,54.179-16.991,78.254  c-17.014,3.46-34.674-0.77-48.199-11.822c-12.406-10.138-30.748-8.292-40.886,4.116c-10.138,12.407-8.292,30.749,4.114,40.886  c20.575,16.813,46.642,26.072,73.399,26.072c6.977,0,13.942-0.629,20.792-1.865c13.603,38.009,41.234,69.423,76.651,88.018v63.302  c0,16.021,13.034,29.057,29.057,29.057s29.057-13.035,29.057-29.057v-45.801c5.386,0.547,10.849,0.827,16.378,0.827  c5.528,0,10.992-0.28,16.378-0.827v45.801c0,16.021,13.034,29.057,29.057,29.057c16.022,0,29.057-13.035,29.057-29.057v-63.302  c40.068-21.038,70.171-58.484,81.269-103.32c18.21-5.254,38.087-1.312,52.802,10.713c5.175,4.228,11.701,6.556,18.375,6.556  c8.766-0.001,16.971-3.893,22.511-10.673C510.351,314.202,512.628,306.639,511.851,298.917z M84.058,314.933  c-23.111,0-45.617-7.988-63.371-22.495c-2.732-2.233-4.431-5.395-4.784-8.905c-0.353-3.51,0.682-6.948,2.913-9.68  c4.608-5.638,12.946-6.477,18.585-1.87c16.509,13.49,37.836,19.035,58.635,15.607c0.682,8.901,2.108,17.596,4.197,26.033  C94.893,314.486,89.48,314.933,84.058,314.933z M384.467,91.43c0.983,0,1.948,0.268,2.81,0.792c1.238,0.753,2.109,1.943,2.452,3.352  l17.973,73.773c0.708,2.907-1.081,5.848-3.988,6.556l-22.143,5.394c-1.407,0.346-2.866,0.118-4.104-0.636  c-1.238-0.752-2.109-1.943-2.452-3.352l-17.973-73.773c-0.708-2.907,1.08-5.848,3.987-6.556l22.145-5.394  C383.602,91.482,384.036,91.43,384.467,91.43z M173.494,36.299c19.949-11.939,46.934-17.743,82.498-17.743  s62.55,5.804,82.498,17.743c16.464,9.853,27.704,23.858,33.505,41.697l-8.286,2.018c-5.265-15.603-15.172-27.852-29.56-36.463  c-18.341-10.977-44.637-16.542-78.158-16.542s-59.817,5.566-78.158,16.542c-14.389,8.61-24.298,20.859-29.563,36.462l-8.284-2.018  C145.788,60.158,157.029,46.153,173.494,36.299z M348.93,85.749c-4.929,4.011-7.894,10.097-7.871,16.585  c-26.499-25.926-55.987-39.919-85.067-39.919c-29.088,0-58.567,13.984-85.062,39.908c0.02-3.888-1.009-7.719-3.081-11.125  c-1.289-2.12-2.922-3.945-4.793-5.464c4.005-12.388,11.541-21.774,22.918-28.583c15.846-9.485,39.404-14.293,70.019-14.293  s54.172,4.809,70.019,14.293C337.39,63.962,344.927,73.355,348.93,85.749z M108.269,175.903L108.269,175.903  c-2.907-0.708-4.696-3.65-3.988-6.556l17.974-73.773c0.343-1.408,1.214-2.599,2.452-3.352c1.237-0.754,2.696-0.982,4.104-0.636  l22.142,5.394c2.907,0.708,4.697,3.65,3.988,6.556l-17.973,73.773c-0.343,1.408-1.214,2.599-2.452,3.352  c-1.238,0.753-2.694,0.979-4.104,0.636L108.269,175.903z M223.766,480.238c0,7.283-5.924,13.208-13.208,13.208  c-7.283,0-13.208-5.924-13.208-13.208v-56.042c8.478,3.332,17.307,5.965,26.415,7.823V480.238z M314.635,480.238  c0,7.283-5.924,13.208-13.208,13.208c-7.283,0-13.208-5.924-13.208-13.208v-48.218c9.108-1.86,17.937-4.492,26.415-7.823V480.238z   M255.992,419.414c-79.72,0-144.577-64.653-144.577-144.124c0-23.632,5.93-51.206,16.761-78.286c1.186,0.201,2.375,0.306,3.56,0.306  c3.851,0,7.641-1.053,11.016-3.105c4.855-2.953,8.27-7.62,9.615-13.142l11.41-46.837c28.001-36.096,60.698-55.963,92.214-55.963  c31.502,0,64.213,19.869,92.213,55.96l11.411,46.839c1.345,5.522,4.76,10.189,9.615,13.142c3.375,2.052,7.164,3.105,11.016,3.105  c1.184,0,2.374-0.106,3.56-0.306c10.83,27.079,16.761,54.652,16.761,78.286C400.568,354.761,335.712,419.414,255.992,419.414z   M493.167,310.183c-2.518,3.083-6.251,4.851-10.24,4.852c-3.072,0-5.957-1.031-8.345-2.981  c-16.707-13.65-38.622-19.125-59.595-15.429c0.937-6.982,1.431-14.103,1.431-21.336c0-1.816-0.036-3.657-0.099-5.512  c26.965-3.132,53.954,4.643,74.98,21.821c2.731,2.233,4.43,5.394,4.784,8.905C496.435,304.015,495.4,307.452,493.167,310.183z   M24.047,149.623c3.335,2.661,7.734,4.046,12.581,4.046c1.998,0,4.072-0.236,6.179-0.714c11.945-2.717,20.953-12.12,20.953-21.873  V79.523l27.226-6.193c3.607-0.82,6.166-4.029,6.166-7.727V41.576c0-2.41-1.098-4.689-2.982-6.194  c-1.885-1.505-4.351-2.067-6.701-1.533l-33.392,7.595c-3.607,0.82-6.166,4.029-6.166,7.727v66.18  c-2.727-0.275-5.639-0.092-8.619,0.585c-11.945,2.717-20.953,12.12-20.953,21.873C18.338,142.489,20.366,146.685,24.047,149.623z   M63.76,55.495l17.543-3.99v7.774l-17.543,3.99C63.76,63.268,63.76,55.495,63.76,55.495z M42.808,131.391  c2.669-0.609,4.345-0.217,5.035,0.083c-0.493,1.595-3.638,4.909-8.551,6.026c-2.671,0.61-4.345,0.214-5.036-0.085  C34.75,135.821,37.895,132.507,42.808,131.391z M34.188,137.809v0.001l-7.925-0.001H34.188z M478.395,356.793  c-1.885-1.505-4.352-2.069-6.701-1.533l-57.667,13.117c-3.607,0.82-6.167,4.029-6.167,7.728v66.18  c-2.727-0.275-5.639-0.092-8.619,0.585c-11.945,2.717-20.953,12.12-20.953,21.873c0,4.681,2.028,8.876,5.709,11.815  c3.335,2.662,7.734,4.046,12.581,4.046c1.998,0,4.072-0.236,6.179-0.714c11.59-2.636,20.39-11.569,20.903-21.007  c0.031-0.285,0.05-0.574,0.05-0.866v-51.559l41.818-9.512v32.22c-2.728-0.275-5.64-0.092-8.62,0.585  c-11.945,2.719-20.953,12.123-20.953,21.874c0,4.681,2.028,8.877,5.709,11.815c3.334,2.662,7.734,4.046,12.581,4.046  c1.998,0,4.073-0.236,6.179-0.714c11.59-2.638,20.39-11.571,20.903-21.008c0.031-0.285,0.05-0.574,0.05-0.866v-81.911  C481.377,360.577,480.279,358.297,478.395,356.793z M394.138,464.743l-7.925-0.001L394.138,464.743L394.138,464.743z   M399.242,464.433c-2.67,0.609-4.345,0.216-5.036-0.085c0.494-1.595,3.639-4.908,8.551-6.025c2.669-0.609,4.344-0.216,5.036,0.083  C407.299,460.003,404.154,463.315,399.242,464.433z M451.804,451.626l-7.925-0.001h7.925V451.626z M456.908,451.317  c-2.671,0.608-4.345,0.215-5.036-0.083c0.493-1.597,3.639-4.909,8.55-6.027c2.67-0.609,4.346-0.216,5.037,0.085  C464.965,446.885,461.82,450.199,456.908,451.317z M465.528,380.689l-41.818,9.512v-7.774l41.818-9.512V380.689z M420.799,220.385  c0,4.681,2.028,8.877,5.709,11.815c3.334,2.662,7.734,4.046,12.581,4.046c1.998,0,4.072-0.236,6.178-0.714  c11.946-2.717,20.954-12.12,20.954-21.873V162.1l27.226-6.193c3.607-0.82,6.166-4.029,6.166-7.728v-24.027  c0-2.41-1.098-4.689-2.982-6.194c-1.885-1.505-4.351-2.067-6.701-1.533l-33.392,7.595c-3.607,0.82-6.166,4.029-6.166,7.727v66.179  c-2.727-0.275-5.64-0.092-8.62,0.585C429.808,201.228,420.799,210.632,420.799,220.385z M466.221,138.071l17.543-3.99v7.774  l-17.543,3.99V138.071z M445.267,213.967c2.669-0.609,4.346-0.217,5.037,0.085c-0.494,1.595-3.639,4.908-8.551,6.025  c-2.671,0.609-4.345,0.214-5.036-0.083C437.21,218.396,440.355,215.085,445.267,213.967z M436.648,220.385v0.001l-7.925-0.001  H436.648z M112.112,367.787c-1.885-1.504-4.35-2.069-6.701-1.533l-57.666,13.117c-3.607,0.82-6.166,4.029-6.166,7.727v66.179  c-2.728-0.275-5.64-0.092-8.62,0.585c-11.945,2.717-20.953,12.12-20.953,21.873c0,4.681,2.028,8.877,5.709,11.815  c3.334,2.661,7.734,4.046,12.581,4.046c1.998,0,4.073-0.236,6.179-0.714c11.59-2.636,20.39-11.569,20.904-21.007  c0.031-0.285,0.05-0.574,0.05-0.866V417.45l41.817-9.512v32.223c-2.727-0.275-5.639-0.092-8.619,0.585  c-11.947,2.717-20.955,12.12-20.955,21.873c0,4.681,2.028,8.876,5.709,11.815c3.335,2.662,7.734,4.046,12.581,4.046  c1.998,0,4.072-0.236,6.179-0.714c11.59-2.636,20.39-11.569,20.903-21.007c0.031-0.285,0.05-0.574,0.05-0.866v-81.912  C115.093,371.571,113.996,369.291,112.112,367.787z M27.854,475.737l-7.925-0.001h7.925V475.737z M32.959,475.427  c-2.671,0.608-4.346,0.215-5.036-0.083c0.493-1.597,3.638-4.909,8.551-6.026c2.67-0.61,4.345-0.216,5.036,0.085  C41.015,470.998,37.871,474.31,32.959,475.427z M85.521,462.62l-7.925-0.001h7.925V462.62z M90.625,462.311  c-2.671,0.609-4.345,0.216-5.036-0.085c0.494-1.596,3.639-4.909,8.552-6.025c2.671-0.608,4.345-0.217,5.035,0.083  C98.683,457.88,95.538,461.193,90.625,462.311z M99.243,391.684l-41.817,9.512v-7.774l41.817-9.512V391.684z M170.208,206.564  h-6.344c-4.376,0-7.925,3.547-7.925,7.925s3.548,7.925,7.925,7.925h6.344c4.376,0,7.925-3.547,7.925-7.925  C178.133,210.111,174.584,206.564,170.208,206.564z M285.867,215.16c-4.376,0-7.925,3.547-7.925,7.925  c0,3.867-3.147,7.014-7.013,7.014c-3.867,0-7.014-3.147-7.014-7.014c0-4.378-3.548-7.925-7.925-7.925s-7.925,3.547-7.925,7.925  c0,3.867-3.147,7.014-7.013,7.014c-3.867,0-7.014-3.147-7.014-7.014c0-4.378-3.548-7.925-7.925-7.925  c-4.376,0-7.925,3.547-7.925,7.925c0,12.606,10.256,22.863,22.863,22.863c5.705,0,10.929-2.101,14.937-5.568  c4.01,3.467,9.234,5.568,14.938,5.568c12.607,0,22.862-10.257,22.862-22.863C293.792,218.707,290.245,215.16,285.867,215.16z   M348.121,206.564h-6.344c-4.376,0-7.925,3.547-7.925,7.925s3.548,7.925,7.925,7.925h6.344c4.376,0,7.925-3.547,7.925-7.925  C356.045,210.111,352.497,206.564,348.121,206.564z"/>
<g>
</g>
<g>
</g>
<g>
</g>
<g>
</g>
<g>
</g>
<g>
</g>
<g>
</g>
<g>
</g>
<g>
</g>
<g>
</g>
<g>
</g>
<g>
</g>
<g>
</g>
<g>
</g>
<g>
</g>
</svg>
