<?xml version="1.0" encoding="iso-8859-1"?>
<!-- Generator: Adobe Illustrator 19.0.0, SVG Export Plug-In . SVG Version: 6.00 Build 0)  -->
<svg xmlns="http://www.w3.org/2000/svg" xmlns:xlink="http://www.w3.org/1999/xlink" version="1.1" id="Layer_1" x="0px" y="0px" viewBox="0 0 512 512" style="enable-background:new 0 0 512 512;" xml:space="preserve">
<path style="fill:#E24260;" d="M457.011,157.173c-9.267,3.092-18.929,4.643-28.611,4.643c-7.046,0-14.113-0.821-21.038-2.484  l-32.484-7.766c-11.376-2.717-23.339-1.561-33.985,3.285l-15.786,7.188l-43.738,19.912l-125.05,56.928H21.497l128.629-48.716h0.01  l79.527-30.122l85.6-32.423l19.872-7.523c25.265-9.571,53.583-6.631,76.344,7.939L457.011,157.173z"/>
<path style="fill:#CE2647;" d="M325.108,162.04l-43.738,19.912l-51.707-21.91l85.6-32.423  C315.263,127.619,299.924,149.012,325.108,162.04z"/>
<path style="fill:#E24260;" d="M490.506,238.886l-313.635-118.79c-25.271-9.572-53.582-6.628-76.343,7.94l-45.533,29.141l0,0  c16.021,5.34,33.218,6.089,49.643,2.162l32.487-7.769c11.377-2.72,23.336-1.565,33.982,3.281l184.578,84.035"/>
<path style="fill:#52BED3;" d="M490.506,266.667l-7.889,65.774c-1.654,13.788-11.468,25.212-24.849,28.924l-129.863,36.036  l-44.123-42.173l-5.062-29.827c-2.338-13.774-11.791-23.591-22.72-23.591l0,0c-10.927,0-20.382,9.816-22.72,23.591l-5.062,29.827  l-44.123,42.173L54.232,361.366c-13.381-3.713-23.195-15.137-24.849-28.924l-7.889-65.774"/>
<g>
	<path style="fill:#CE2647;" d="M156.32,238.881H21.497l128.629-48.716h0.01C150.136,190.164,125.57,216.525,156.32,238.881z"/>
	<path style="fill:#CE2647;" d="M355.683,238.881h134.823l-128.629-48.716h-0.01C361.867,190.164,386.433,216.525,355.683,238.881z"/>
</g>
<polyline style="fill:#FFFFFF;" points="114.781,378.172 60.11,266.671 102.829,266.671 164.234,391.888 "/>
<path style="fill:#E24260;" d="M491.47,266.667H20.531c-7.139,0-12.926-5.787-12.926-12.926v-1.929  c0-7.139,5.787-12.926,12.926-12.926h470.94c7.139,0,12.926,5.787,12.926,12.926v1.929  C504.396,260.879,498.609,266.667,491.47,266.667z"/>
<polyline style="fill:#FFFFFF;" points="380.198,266.667 430.401,368.96 392.976,379.345 337.709,266.667 "/>
<path d="M491.964,231.307l-164.117-62.16l16.189-7.372c9.063-4.124,19.386-5.124,29.063-2.817l32.493,7.771  c17.825,4.263,36.435,3.453,53.819-2.342c2.78-0.927,4.779-3.367,5.141-6.275c0.362-2.908-0.978-5.764-3.446-7.343l-45.533-29.145  c-24.674-15.785-55.758-19.014-83.144-8.637l-76.421,28.95l-76.445-28.954c-27.388-10.373-58.466-7.141-83.136,8.646l-45.533,29.14  c-2.468,1.58-3.808,4.436-3.446,7.343c0.361,2.908,2.361,5.348,5.141,6.275c17.384,5.795,35.993,6.605,53.816,2.343l32.487-7.768  c9.682-2.315,20.002-1.318,29.062,2.806l16.202,7.377l-164.111,62.16C8.951,231.566,0,240.655,0,251.812v1.929  c0,9.274,6.185,17.122,14.643,19.66l7.19,59.947c2.03,16.916,13.949,30.79,30.366,35.346l129.863,36.036  c2.58,0.717,5.35,0.021,7.288-1.83l44.123-42.173c1.183-1.13,1.969-2.612,2.243-4.225l5.072-29.88  c1.711-9.972,8.102-17.205,15.212-17.205c7.122,0,13.525,7.258,15.222,17.259l5.062,29.827c0.274,1.613,1.06,3.094,2.243,4.225  l44.123,42.173c1.434,1.371,3.322,2.107,5.255,2.107c0.678,0,1.362-0.091,2.033-0.277l129.863-36.036  c16.417-4.555,28.336-18.43,30.366-35.346l7.19-59.946c8.457-2.541,14.641-10.389,14.641-19.663v-1.929  C512,240.658,503.055,231.573,491.964,231.307z M337.818,127.21c22.914-8.681,48.918-5.98,69.559,7.225l30.12,19.28  c-9.442,1.044-19.032,0.458-28.367-1.774l-32.497-7.773c-12.954-3.089-26.767-1.753-38.897,3.766l-29.923,13.625l-30.338-11.49  L337.818,127.21z M135.358,144.174l-32.487,7.768c-9.335,2.232-18.923,2.818-28.363,1.774l30.12-19.277  c20.637-13.209,46.638-15.913,69.551-7.234l274.784,104.076h-91.627L174.258,147.93  C162.132,142.409,148.316,141.075,135.358,144.174z M237.645,193.499l-41.694,18.986c-3.822,1.741-5.509,6.249-3.77,10.072  c1.275,2.8,4.036,4.455,6.925,4.455c1.054,0,2.125-0.22,3.147-0.685l53.742-24.472l64.638,29.428h-9.881  c-4.199,0-7.604,3.405-7.604,7.604c0,4.199,3.405,7.604,7.604,7.604H491.47c2.935,0,5.322,2.388,5.322,5.322v1.929  c0,2.935-2.387,5.322-5.322,5.322H20.531c-2.935,0-5.323-2.388-5.323-5.322v-1.929c0-2.935,2.388-5.322,5.323-5.322h0.906  c0.021,0,0.042,0.005,0.062,0.005c0.034,0,0.07-0.004,0.105-0.005H286.42c4.199,0,7.604-3.405,7.604-7.604  c0-4.199-3.405-7.604-7.604-7.604H63.048l140.609-53.257L237.645,193.499z M36.934,331.536l-6.869-57.265h25.302l31.154,63.537  c1.321,2.694,4.022,4.258,6.832,4.258c1.123,0,2.265-0.25,3.342-0.779c3.771-1.849,5.329-6.405,3.48-10.175l-27.871-56.841h25.783  l51.866,105.765l-29.85-8.283l-10.144-20.687c-1.848-3.771-6.406-5.328-10.175-3.48c-3.771,1.849-5.329,6.405-3.48,10.175  l4.192,8.551l-44.232-12.274C45.814,351.138,38.226,342.306,36.934,331.536z M181.966,388.919l-12.407-3.443L115.026,274.27h119.227  l-12.192,71.807l-0.917,5.397L181.966,388.919z M256,294.208c-3.515,0-6.894,0.702-10.047,1.996l3.724-21.934h12.651l3.725,21.936  C262.898,294.911,259.517,294.208,256,294.208z M290.863,351.479l-13.109-77.209h55.216l13.033,26.572  c1.321,2.693,4.023,4.257,6.832,4.257c1.124,0,2.266-0.25,3.343-0.779c3.771-1.849,5.328-6.405,3.479-10.175l-9.748-19.876h25.551  l44.078,89.813l-22.514,6.247l-26.983-55.013c-1.849-3.771-6.405-5.328-10.175-3.479c-3.771,1.849-5.328,6.405-3.479,10.175  l25.728,52.453l-52.079,14.452L290.863,351.479z M475.067,331.535c-1.292,10.77-8.88,19.603-19.332,22.504l-21.287,5.907  l-42.047-85.675h89.535L475.067,331.535z"/>
<g>
</g>
<g>
</g>
<g>
</g>
<g>
</g>
<g>
</g>
<g>
</g>
<g>
</g>
<g>
</g>
<g>
</g>
<g>
</g>
<g>
</g>
<g>
</g>
<g>
</g>
<g>
</g>
<g>
</g>
</svg>
