<?xml version="1.0" encoding="iso-8859-1"?>
<!-- Generator: Adobe Illustrator 19.0.0, SVG Export Plug-In . SVG Version: 6.00 Build 0)  -->
<svg xmlns="http://www.w3.org/2000/svg" xmlns:xlink="http://www.w3.org/1999/xlink" version="1.1" id="Capa_1" x="0px" y="0px" viewBox="0 0 512.002 512.002" style="enable-background:new 0 0 512.002 512.002;" xml:space="preserve">
<path style="fill:#F3C74F;" d="M294.9,504.057c-11.852,0-21.459-9.608-21.459-21.459v-81.26c0-11.852,9.608-21.459,21.459-21.459  c11.852,0,21.459,9.608,21.459,21.459v81.26C316.359,494.451,306.751,504.057,294.9,504.057z"/>
<path style="opacity:0.2;enable-background:new    ;" d="M294.9,379.878c-11.852,0-21.459,9.608-21.459,21.459v45.006  c15.153-2.42,29.572-7.026,42.918-13.493v-31.513C316.359,389.486,306.751,379.878,294.9,379.878z"/>
<path style="fill:#F3C74F;" d="M202.625,504.057c-11.852,0-21.459-9.608-21.459-21.459v-81.26c0-11.852,9.608-21.459,21.459-21.459  c11.852,0,21.459,9.608,21.459,21.459v81.26C224.085,494.451,214.477,504.057,202.625,504.057z"/>
<path style="opacity:0.2;enable-background:new    ;" d="M202.625,379.878c-11.852,0-21.459,9.608-21.459,21.459v31.513  c13.347,6.466,27.766,11.073,42.919,13.493v-45.006C224.085,389.486,214.477,379.878,202.625,379.878z"/>
<g>
	<path style="fill:#F3C74F;" d="M64.925,285.011c-2.534,0-5.111-0.452-7.621-1.406c-11.079-4.212-16.645-16.606-12.434-27.684   c10.522-27.677,35.356-40.298,66.425-33.764c11.599,2.439,19.023,13.819,16.584,25.417c-2.439,11.598-13.819,19.016-25.416,16.584   c-13.712-2.885-15.799,2.604-17.474,7.014C81.731,279.738,73.577,285.01,64.925,285.011z"/>
	<path style="fill:#F3C74F;" d="M396.314,412.039c-7.048,0-13.951-3.467-18.055-9.832c-6.423-9.959-3.556-23.241,6.404-29.664   c3.293-2.123,4.577-4.328,4.739-8.134c0.471-11.063-9.71-28.954-21.788-38.287c-9.378-7.247-11.106-20.723-3.859-30.101   c7.248-9.378,20.724-11.104,30.101-3.86c19.388,14.982,39.682,44.553,38.425,74.075c-0.753,17.683-9.403,32.732-24.358,42.376   C404.327,410.932,400.297,412.039,396.314,412.039z"/>
</g>
<circle style="fill:#0081C6;" cx="367.638" cy="139.328" r="49.286"/>
<circle style="fill:#F3C74F;" cx="367.638" cy="139.328" r="23.011"/>
<circle style="fill:#0081C6;" cx="129.893" cy="139.328" r="49.286"/>
<circle style="fill:#F3C74F;" cx="129.893" cy="139.328" r="23.011"/>
<path style="opacity:0.2;enable-background:new    ;" d="M159.024,99.581c-23.173,20.944-42.827,49.774-56.788,80.547  c7.886,5.355,17.403,8.486,27.653,8.486c27.22,0,49.286-22.066,49.286-49.286C179.175,123.01,171.24,108.551,159.024,99.581z"/>
<path style="fill:#40BAB3;" d="M403.622,274.48c0-85.273-71.09-208.119-154.86-208.119S93.903,189.207,93.903,274.48  s69.332,154.401,154.86,154.401S403.622,359.754,403.622,274.48z"/>
<path style="fill:#FFFFFF;" d="M96.511,302.798c13.34,71.747,76.427,126.083,152.251,126.083s138.911-54.336,152.251-126.083  L96.511,302.798L96.511,302.798z"/>
<path style="fill:#0081C6;" d="M123.925,365.839c28.185,38.227,73.6,63.042,124.837,63.042s96.652-24.814,124.837-63.042H123.925z"/>
<path style="opacity:0.2;enable-background:new    ;" d="M265.184,412.46c-85.526,0-154.86-69.128-154.86-154.401  c0-51.337,25.773-116.282,64.559-159.851c-47.768,42.168-80.981,117.99-80.981,176.273c0,85.273,69.332,154.401,154.86,154.401  c47.024,0,89.146-20.901,117.548-53.888C339.177,398.339,303.835,412.46,265.184,412.46z"/>
<g>
	<path style="fill:#F0B0B7;" d="M263.931,210.787c-8.377,0-15.169-6.792-15.169-15.169c0,8.378-6.792,15.169-15.169,15.169   c-4.627,0-8.764-2.078-11.546-5.345v12.428c0,14.755,11.961,26.714,26.714,26.714c14.755,0,26.715-11.961,26.715-26.714v-12.428   C272.695,208.708,268.559,210.787,263.931,210.787z"/>
	<path style="fill:#F0B0B7;" d="M171.357,232.777h-25.853c-4.387,0-7.943-3.555-7.943-7.943c0-4.388,3.556-7.943,7.943-7.943h25.852   c4.387,0,7.943,3.555,7.943,7.943C179.3,229.22,175.743,232.777,171.357,232.777z"/>
	<path style="fill:#F0B0B7;" d="M352.02,232.777h-25.852c-4.387,0-7.943-3.555-7.943-7.943c0-4.388,3.556-7.943,7.943-7.943h25.852   c4.387,0,7.943,3.555,7.943,7.943C359.963,229.22,356.407,232.777,352.02,232.777z"/>
</g>
<path style="fill:#394049;" d="M169.459,453.83l0.001,0.002l12.665-11.981c25.824-24.429,24.86-23.989,59.349-17.131  c0.658,0.156,1.317,0.299,1.983,0.426c0.133,0.031,0.267,0.056,0.4,0.088l0.001-0.015c6.687,1.223,13.691,1.039,20.629-0.82  c5.169-1.385,9.909-3.59,14.133-6.445c3.635-2.458,3.322-7.909-0.543-9.986c-7.102-3.817-11.879-10.509-14.084-18.739  c-4.352-16.24,2.952-32.308,25.447-38.335l5.564-1.491l-13.111-48.929c-7.316-27.304-34.388-43.773-60.467-36.786  c-6.938,1.859-13.095,5.201-18.275,9.604l-0.007-0.013c-0.1,0.094-0.202,0.183-0.303,0.276c-0.512,0.443-1.011,0.897-1.504,1.36  c-26.439,23.182-25.384,23.082-59.963,14.838l-16.958-4.043v0.002c-11.944-3.4-24.459-3.76-36.714-0.477  C45.03,296.67,27.559,346.305,41.422,398.044c13.864,51.739,53.812,85.988,96.483,74.555  C150.158,469.315,160.815,462.746,169.459,453.83z"/>
<path style="opacity:0.1;fill:#FFFFFF;enable-background:new    ;" d="M221.423,263.688c-6.938,1.859-13.095,5.201-18.275,9.604  l-0.007-0.013c-0.1,0.094-0.202,0.183-0.303,0.276c-0.512,0.443-1.011,0.896-1.504,1.36c-0.306,0.268-0.59,0.518-0.889,0.779  c8.358,16.325,25.336,27.508,44.936,27.508c12.602,0,24.114-4.629,32.957-12.266C267.942,269.483,244.302,257.557,221.423,263.688z"/>
<rect x="301.691" y="243.318" transform="matrix(-0.2588 -0.9659 0.9659 -0.2588 90.9631 716.3981)" style="fill:#A27B5A;" width="37.298" height="159.964"/>
<path style="fill:#F3C74F;" d="M219.193,373.013l-11.165-41.668c-0.705-2.634,0.857-5.341,3.491-6.046l20.006-5.361  c2.634-0.705,5.341,0.857,6.046,3.491l11.165,41.669c0.705,2.634-0.857,5.341-3.491,6.046l-20.006,5.361  C222.605,377.209,219.898,375.647,219.193,373.013z"/>
<path style="opacity:0.3;fill:#FFFFFF;enable-background:new    ;" d="M237.571,323.429c-0.705-2.634-3.412-4.196-6.046-3.491  l-11.283,3.023c-0.326,1.376-0.517,2.804-0.517,4.281c0,10.236,8.298,18.533,18.533,18.533c1.773,0,3.481-0.264,5.105-0.729  L237.571,323.429z"/>
<path style="fill:#F3C74F;" d="M156.404,389.837l-11.165-41.669c-0.705-2.634,0.857-5.341,3.491-6.046l20.006-5.361  c2.634-0.705,5.341,0.857,6.046,3.491l11.165,41.668c0.705,2.634-0.857,5.341-3.491,6.046l-20.006,5.361  C159.818,394.033,157.111,392.471,156.404,389.837z"/>
<g>
	<path style="opacity:0.3;fill:#FFFFFF;enable-background:new    ;" d="M174.783,340.253c-0.705-2.634-3.412-4.196-6.046-3.491   l-8.779,2.352c-0.831,2.106-1.304,4.394-1.304,6.796c0,10.236,8.298,18.533,18.533,18.533c1.361,0,2.685-0.156,3.962-0.434   L174.783,340.253z"/>
	<path style="fill:#FFFFFF;" d="M245.382,371.107l-72.587,89.139c-1.483,1.82-4.427,0.899-4.607-1.441l-2.086-27.103   c-0.447-5.808-1.431-11.562-2.939-17.188l-4.381-16.352c-0.532-1.984,0.646-4.022,2.63-4.554L245.382,371.107z"/>
</g>
<path style="fill:#F3C74F;" d="M125.836,415.397c-3.506,0-6.716-2.34-7.667-5.888l-15.878-59.257  c-1.135-4.237,1.379-8.592,5.617-9.728c4.235-1.137,8.592,1.379,9.728,5.616l15.878,59.257c1.135,4.237-1.379,8.592-5.617,9.728  C127.207,415.309,126.516,415.397,125.836,415.397z"/>
<path style="fill:#394049;" d="M475.046,304.249l-11.197-41.789c-0.837-3.122-4.046-4.974-7.168-4.139l-46.252,12.393  c-3.052,0.818-5.845,2.404-8.111,4.606l-9.54,9.272l9.652,36.023l12.897,3.26c3.064,0.774,6.275,0.752,9.328-0.067l46.252-12.393  C474.029,310.58,475.882,307.372,475.046,304.249z"/>
<path style="opacity:0.1;fill:#FFFFFF;enable-background:new    ;" d="M463.848,262.46c-0.837-3.122-4.046-4.974-7.168-4.139  l-38.085,10.205c4.366,13.234,16.825,22.788,31.521,22.788c7.387,0,14.208-2.416,19.723-6.496L463.848,262.46z"/>
<g>
	<path style="fill:#F3C74F;" d="M127.006,342.078c-0.591,0-1.184-0.024-1.783-0.073c-31.951-2.627-60.558-18.147-74.657-40.499   c-9.263-14.687-11.286-30.875-5.694-45.585c4.211-11.078,16.605-16.642,27.683-12.434c11.078,4.211,16.645,16.606,12.434,27.684   c-0.92,2.423,0.782,5.7,1.878,7.439c5.688,9.018,20.842,18.892,41.876,20.622c11.812,0.971,20.599,11.334,19.627,23.146   C147.447,333.589,138.059,342.078,127.006,342.078z"/>
	<path style="fill:#F3C74F;" d="M380.85,416.801c-10.693,0-21.609-3.533-31.916-10.568c-26.369-17.995-43.358-54.699-37.87-81.819   c2.35-11.616,13.671-19.129,25.289-16.776c11.616,2.35,19.127,13.672,16.776,25.289c-1.7,8.4,6.582,28.701,19.997,37.857   c6.934,4.733,9.93,2.797,11.539,1.76c9.961-6.426,23.242-3.556,29.665,6.404c6.423,9.959,3.556,23.241-6.404,29.664   C399.446,414.08,390.234,416.801,380.85,416.801z"/>
</g>
<path id="SVGCleanerId_0" style="fill:#E6595A;" d="M248.762,7.943L248.762,7.943c-8.71,0-15.963,6.68-16.679,15.36l-5.591,67.823  c-1.074,13.021,9.204,24.181,22.27,24.181l0,0c13.064,0,23.342-11.16,22.27-24.181l-5.591-67.823  C264.725,14.622,257.472,7.943,248.762,7.943z"/>
<g>
	<path id="SVGCleanerId_0_1_" style="fill:#E6595A;" d="M248.762,7.943L248.762,7.943c-8.71,0-15.963,6.68-16.679,15.36   l-5.591,67.823c-1.074,13.021,9.204,24.181,22.27,24.181l0,0c13.064,0,23.342-11.16,22.27-24.181l-5.591-67.823   C264.725,14.622,257.472,7.943,248.762,7.943z"/>
</g>
<path style="opacity:0.2;enable-background:new    ;" d="M236.965,88.861l5.591-71.206c0.283-3.595,1.594-6.853,3.599-9.493  c-7.508,1.18-13.429,7.344-14.072,15.14l-5.591,67.823c-1.074,13.021,9.204,24.181,22.27,24.181c2.621,0,5.126-0.455,7.454-1.279  C244.629,112.389,235.975,101.459,236.965,88.861z"/>
<path d="M158.43,199.097c4.387,0,7.943-3.555,7.943-7.943v-4.239c0-4.388-3.556-7.943-7.943-7.943c-4.387,0-7.943,3.555-7.943,7.943  v4.239C150.487,195.542,154.044,199.097,158.43,199.097z M117.574,435.956c-4.374,0-7.918,3.546-7.918,7.918  c0,4.373,3.546,7.918,7.918,7.918c4.373,0,7.918-3.546,7.918-7.918C125.493,439.502,121.948,435.956,117.574,435.956z   M482.718,302.194l-11.197-41.79c-1.969-7.348-9.547-11.723-16.896-9.754l-2.386,0.64l-2.177-8.125  c-1.135-4.237-5.491-6.756-9.728-5.616c-4.237,1.134-6.752,5.491-5.617,9.728l2.177,8.125l-3.986,1.069l-2.211-8.254  c-1.135-4.237-5.491-6.756-9.727-5.616c-4.237,1.134-6.751,5.491-5.617,9.728l2.211,8.254l-6.445,1.727  c-1.618-22.853-7.643-47.753-17.259-72.104c18.834-9.698,31.007-29.213,31.007-50.876c0-31.556-25.672-57.23-57.229-57.23  c-13.335,0-26.212,4.704-36.399,13.092c-17.207-15.929-35.705-27.055-54.591-32.634l-3.289-39.905C272.31,9.949,261.507,0,248.762,0  c-12.745,0-23.547,9.949-24.594,22.651l-3.289,39.905c-18.886,5.579-37.383,16.704-54.591,32.634  c-10.186-8.388-23.064-13.092-36.399-13.092c-31.556,0-57.23,25.673-57.23,57.23c0,21.664,12.172,41.179,31.007,50.876  c-2.931,7.423-5.527,14.895-7.768,22.347c-27.073-0.029-48.654,14.768-58.453,40.548c-6.5,17.098-4.228,35.795,6.401,52.644  c0.263,0.417,0.542,0.827,0.814,1.239c-16.157,23.905-20.275,58.18-10.913,93.12c7.272,27.141,21.535,50.269,40.158,65.121  c14.476,11.545,30.891,17.509,47.565,17.508c6.156,0,12.347-0.813,18.488-2.458c9.326-2.499,17.921-6.693,25.665-12.5  c0.633,0.355,1.294,0.67,2.009,0.894c1.049,0.328,2.117,0.488,3.174,0.488c0.82,0,1.63-0.102,2.418-0.289V482.6  c0,16.213,13.189,29.402,29.402,29.402s29.402-13.189,29.402-29.402v-46.634c5.544,0.566,11.128,0.859,16.735,0.859  c5.626,0,11.209-0.287,16.735-0.845v46.619c0,16.213,13.189,29.402,29.402,29.402s29.402-13.189,29.402-29.402v-64.262  c5.238-2.747,10.349-5.783,15.307-9.119c1.58,1.249,3.192,2.447,4.846,3.575c11.456,7.819,24.041,11.951,36.394,11.951  c11.092,0,21.65-3.182,31.379-9.458c17.184-11.081,27.123-28.381,27.99-48.712c0.503-11.798-2.07-24.33-7.476-36.71l3.159-0.846  l1.428,5.328c0.951,3.549,4.16,5.888,7.667,5.888c0.681,0,1.373-0.088,2.061-0.273c4.237-1.134,6.752-5.491,5.617-9.728  l-1.428-5.327l3.986-1.069l1.461,5.457c0.951,3.549,4.16,5.889,7.667,5.889c0.681,0,1.372-0.088,2.061-0.273  c4.237-1.134,6.751-5.49,5.617-9.728l-1.461-5.457l2.385-0.639c3.559-0.953,6.535-3.236,8.378-6.428  C483.182,309.471,483.671,305.752,482.718,302.194z M367.636,97.984c22.797,0,41.343,18.547,41.343,41.344  c0,15.259-8.357,29.039-21.381,36.214c-1.447-3.15-2.954-6.279-4.517-9.386c9.367-5.4,15.508-15.508,15.508-26.828  c0-17.068-13.885-30.954-30.954-30.954c-6.651,0-13.02,2.152-18.255,5.976c-2.259-2.7-4.55-5.312-6.869-7.834  C349.675,101.039,358.507,97.984,367.636,97.984z M382.703,139.327c0,5.352-2.818,10.141-7.151,12.821  c-1.436-2.5-2.906-4.98-4.415-7.431c-3.85-6.253-7.85-12.198-11.975-17.842c2.468-1.679,5.411-2.616,8.473-2.616  C375.944,124.259,382.703,131.019,382.703,139.327z M234.409,91.779L240,23.956c0.374-4.524,4.222-8.07,8.763-8.07  c4.541,0,8.39,3.545,8.763,8.07l5.591,67.823c0.335,4.059-1.001,7.944-3.76,10.94c-2.759,2.996-6.522,4.646-10.594,4.646  c-4.073,0-7.835-1.65-10.594-4.646C235.409,99.723,234.075,95.838,234.409,91.779z M88.546,139.327  c0-22.797,18.547-41.344,41.344-41.344c9.129,0,17.959,3.055,25.124,8.533c-2.32,2.522-4.61,5.133-6.869,7.834  c-5.235-3.824-11.604-5.976-18.255-5.976c-17.068,0-30.954,13.886-30.954,30.954c0,11.32,6.14,21.428,15.509,26.828  c-1.563,3.106-3.07,6.237-4.517,9.386C96.903,168.367,88.546,154.585,88.546,139.327z M138.362,126.875  c-4.124,5.645-8.125,11.589-11.975,17.842c-1.509,2.452-2.979,4.931-4.415,7.431c-4.334-2.679-7.152-7.468-7.152-12.821  c0-8.309,6.76-15.068,15.068-15.068C132.952,124.259,135.894,125.196,138.362,126.875z M139.916,153.046  c22.483-36.52,50.972-62.606,79.543-73.264l-0.881,10.692c-0.694,8.412,2.188,16.797,7.906,23.007  c5.718,6.209,13.839,9.771,22.279,9.771c8.441,0,16.561-3.561,22.279-9.771c5.718-6.208,8.599-14.594,7.906-23.007l-0.881-10.692  c28.571,10.657,57.06,36.744,79.544,73.264c23.048,37.438,37.114,81.115,38.021,117.7l-6.905,6.711l-97.76,26.194l-1.402-5.234  c-4.07-15.189-13.567-27.966-26.742-35.982c-13.292-8.088-28.727-10.368-43.454-6.419c-7.754,2.077-14.819,5.751-21.005,10.922  c-0.243,0.181-0.476,0.377-0.698,0.588l-0.093,0.085c-0.536,0.465-1.061,0.94-1.578,1.425l-1.521,1.334  c-11.246,9.867-16.89,14.821-22.121,16.076c-5.292,1.271-12.856-0.535-27.926-4.128l-18.077-4.31  c-8.172-2.3-16.37-3.272-24.495-2.925c-0.001-0.2-0.008-0.401-0.008-0.6C101.845,237.161,116.077,191.765,139.916,153.046z   M361.044,323.484c-0.699-3.905-2.189-7.662-4.448-11.066c-2.074-3.125-4.674-5.77-7.658-7.855l38.223-10.242l5.542,20.68  L361.044,323.484z M383.023,334.04c-3.585,8.025-7.89,15.711-12.889,22.995c-4.429-5.665-7.413-12.383-8.657-17.221L383.023,334.04z   M302.199,339.251l-13.619,3.649l-1.198,0.321c-0.002,0-0.004,0.001-0.006,0.002l-33.847,9.07l-5.541-20.68l57.469-15.398  c-0.973,2.091-1.709,4.308-2.178,6.626C302.214,328.09,301.888,333.61,302.199,339.251z M229.47,312.265l-20.006,5.362  c-3.323,0.89-6.101,3.02-7.821,5.999c-1.72,2.98-2.177,6.451-1.287,9.774l10.387,38.764l-17.9,4.796l-10.387-38.763  c-0.89-3.324-3.02-6.103-6.001-7.823c-2.981-1.721-6.453-2.177-9.773-1.286l-12.845,3.441c1.321-2.944,2.172-6.142,2.449-9.504  c0.644-7.828-1.798-15.437-6.878-21.427c-0.69-0.814-1.422-1.582-2.185-2.309c29.191,6.715,32.912,4.793,57.728-16.983l1.62-1.422  c0.071-0.062,0.141-0.125,0.21-0.191c0.41-0.386,0.826-0.765,1.252-1.132c0.03-0.025,0.066-0.058,0.102-0.09  c0.053-0.042,0.106-0.086,0.158-0.13c4.463-3.793,9.573-6.479,15.187-7.984c10.496-2.811,21.536-1.163,31.086,4.647  c9.667,5.882,16.646,15.3,19.654,26.523l1.402,5.233l-32.852,8.803C239.66,312.771,234.513,310.917,229.47,312.265z   M240.286,364.249l-14.2,3.804l-9.609-35.859l14.199-3.805L240.286,364.249z M52.295,258.742  c7.001-18.416,20.789-28.889,39.334-30.185c-2.263,9.738-3.876,19.343-4.787,28.649c-6.113,2.856-8.237,8.4-9.278,11.141  c-1.614,4.247-0.72,9.259,2.584,14.496c6.247,9.905,22.552,22.213,47.943,24.301c3.598,0.295,6.866,1.975,9.201,4.729  c2.335,2.755,3.458,6.251,3.162,9.851c-0.572,6.958-6.479,12.409-13.447,12.409c-0.377,0-0.756-0.016-1.132-0.047  c-29.513-2.427-55.796-16.536-68.59-36.821C49.384,284.742,47.612,271.061,52.295,258.742z M135.847,464.928  c-22.787,6.104-40.875-3.225-52.036-12.126c-15.988-12.751-28.319-32.928-34.719-56.813c-7.649-28.548-5.258-56.211,6.22-76.107  c16.903,16.681,41.989,27.796,69.255,30.039c0.805,0.067,1.626,0.101,2.439,0.101c3.568,0,7.005-0.663,10.196-1.862  c0.07,0.692,0.182,1.383,0.365,2.067l11.164,41.669c0,0,0.001,0,0.001,0.001c0.422,1.574,1.127,2.995,2.034,4.238  c-0.124,1.353-0.021,2.731,0.341,4.083l4.381,16.352c1.377,5.14,2.282,10.436,2.691,15.741l1.526,19.82  C152.667,458.261,144.659,462.566,135.847,464.928z M163.299,384.878l-9.609-35.86l14.199-3.804l9.609,35.859L163.299,384.878z   M175.08,444.86l-1.06-13.77c-0.484-6.281-1.556-12.551-3.186-18.634l-3.288-12.271l16.965-4.545  c0.002-0.001,0.005-0.002,0.007-0.002l39.195-10.503L175.08,444.86z M216.142,482.598c0,7.452-6.064,13.517-13.517,13.517  c-7.454,0-13.517-6.063-13.517-13.517v-29.809l17.498-21.488c3.155,0.841,6.334,1.589,9.536,2.238V482.598z M262.428,416.726  c-5.613,1.505-11.38,1.736-17.143,0.679c-0.066-0.012-0.132-0.022-0.199-0.033c-0.046-0.011-0.092-0.019-0.138-0.028  c-0.554-0.106-1.104-0.226-1.651-0.355c-0.091-0.021-0.183-0.041-0.275-0.06l-2.116-0.42c-7.815-1.557-14.087-2.804-19.493-3.39  l28.986-35.594c1.942-1.116,3.572-2.717,4.722-4.71c0.892-1.545,1.436-3.223,1.637-4.943l0.375-0.101  c-2.69,7.194-3.007,15.338-0.817,23.513c2.493,9.305,7.756,16.943,14.982,21.852C268.511,414.69,265.539,415.893,262.428,416.726z   M308.415,482.598c0,7.452-6.063,13.517-13.517,13.517c-7.454,0-13.517-6.063-13.517-13.517v-49.02  c9.247-1.868,18.283-4.531,27.032-7.97v56.99H308.415z M288.901,415.43c0.161-0.975,0.244-1.972,0.192-2.99  c-0.248-4.874-2.961-9.161-7.258-11.469c-6.252-3.359-8.982-9.358-10.172-13.798c-3.699-13.804,3.519-24.227,19.802-28.599  l5.263-1.411l0.328-0.088l7.609-2.039c3.892,15.338,11.998,30.578,23.054,42.95C315.605,405.711,302.567,411.577,288.901,415.43z   M424.347,365.899c-0.64,15.032-8.001,27.831-20.729,36.038c-7.121,4.593-14.781,6.922-22.769,6.922  c-9.145,0-18.634-3.177-27.44-9.187c-23.563-16.079-39.39-49.822-34.562-73.682c0.716-3.539,2.767-6.587,5.776-8.582  c3.008-1.995,6.614-2.696,10.152-1.984c3.539,0.717,6.587,2.767,8.582,5.776s2.701,6.614,1.985,10.153  c-2.423,11.975,7.432,35.16,23.304,45.992c7.59,5.181,14.235,5.798,20.323,1.874c5.439-3.509,8.099-8.107,8.369-14.47  c0.245-5.744-1.513-11.7-3.511-16.508c3.198-6.245,5.987-12.698,8.353-19.334l0.307-0.083l10.895,2.754  c0.95,0.24,1.914,0.418,2.882,0.551C422.007,343.645,424.8,355.248,424.347,365.899z M422.599,316.138  c-1.738,0.465-3.581,0.48-5.325,0.038l-8.378-2.117l-7.24-27.019l6.196-6.024c1.291-1.255,2.892-2.164,4.631-2.63l44.233-11.852  l10.115,37.751L422.599,316.138z M214.104,217.87c0,19.11,15.548,34.658,34.658,34.658s34.658-15.548,34.658-34.658v-9.852  c2.29-3.586,3.623-7.839,3.623-12.399c0-4.388-3.556-7.943-7.943-7.943s-7.943,3.555-7.943,7.943c0,3.985-3.242,7.226-7.226,7.226  c-3.984,0-7.226-3.242-7.226-7.226c0-4.388-3.556-7.943-7.943-7.943c-4.387,0-7.943,3.555-7.943,7.943  c0,3.985-3.242,7.226-7.226,7.226s-7.226-3.242-7.226-7.226c0-4.388-3.556-7.943-7.943-7.943c-4.387,0-7.943,3.555-7.943,7.943  c0,4.56,1.333,8.813,3.622,12.398v9.853H214.104z M233.594,218.73c5.799,0,11.107-2.147,15.169-5.688  c4.061,3.541,9.369,5.688,15.169,5.688c1.216,0,2.408-0.095,3.573-0.277c-0.311,10.079-8.589,18.189-18.743,18.189  c-10.154,0-18.431-8.11-18.743-18.189C231.184,218.634,232.378,218.73,233.594,218.73z M339.095,199.097  c4.387,0,7.943-3.555,7.943-7.943v-4.239c0-4.388-3.556-7.943-7.943-7.943c-4.387,0-7.943,3.555-7.943,7.943v4.239  C331.152,195.542,334.708,199.097,339.095,199.097z M93.887,418.72c-4.374,0-7.918,3.546-7.918,7.918  c0,4.374,3.546,7.918,7.918,7.918c4.373,0,7.918-3.546,7.918-7.918C101.805,422.266,98.261,418.72,93.887,418.72z"/>
<g>
</g>
<g>
</g>
<g>
</g>
<g>
</g>
<g>
</g>
<g>
</g>
<g>
</g>
<g>
</g>
<g>
</g>
<g>
</g>
<g>
</g>
<g>
</g>
<g>
</g>
<g>
</g>
<g>
</g>
</svg>
