<?xml version="1.0" encoding="iso-8859-1"?>
<!-- Generator: Adobe Illustrator 19.0.0, SVG Export Plug-In . SVG Version: 6.00 Build 0)  -->
<svg xmlns="http://www.w3.org/2000/svg" xmlns:xlink="http://www.w3.org/1999/xlink" version="1.1" id="Capa_1" x="0px" y="0px" viewBox="0 0 512.002 512.002" style="enable-background:new 0 0 512.002 512.002;" xml:space="preserve">
<path style="fill:#4FBA6F;" d="M510.438,62.745c-0.053-0.318-0.079-0.644-0.088-0.971c-86.961,0-113.093,61.799-113.093,61.799  l-2.737,1.677c-1.236-2.031-2.472-4.061-3.708-6.092c-6.092-9.976-12.625-19.511-19.423-28.516  c-0.971-1.059-1.766-2.119-2.649-3.267c-0.088-0.265-0.265-0.53-0.353-0.795c0-0.088,0-0.088-0.088-0.177  c-6.595-8.378-13.675-16.359-21.188-23.925c-27.28-27.192-58.18-44.849-90.934-44.849c-26.371,0.927-51.664,10.727-71.776,27.81  c-6.604,5.271-12.934,10.868-18.981,16.774c-7.31,7.363-14.179,15.141-20.57,23.307h-0.177c-1.148,1.501-2.295,3.002-3.531,4.503  c-2.295,3.09-4.591,6.092-6.798,9.27c-4.591,6.445-8.917,13.154-13.154,19.864c-1.236,2.031-2.472,4.061-3.62,6.092l-2.825-1.677  c0,0-26.132-61.799-113.093-61.799c-0.009,0.327-0.035,0.653-0.088,0.971C0.327,76.164-11.768,226.514,57.713,312.062v1.501  c0,99.85,88.815,180.808,198.288,180.808s198.288-80.957,198.288-180.808v-1.501C523.769,226.514,511.674,76.164,510.438,62.745z"/>
<path style="fill:#46B29D;" d="M510.438,62.745c-8.034,5.209-44.584,30.547-60.21,69.657c-15.45,38.669-24.102,50.234-26.044,52.53  c-1.501-3.796-3.09-7.504-4.767-11.3c-5.209-11.742-10.921-23.307-17.127-34.696c-2.472-4.591-5.121-9.182-7.769-13.684l2.737-1.677  c0,0,26.132-61.799,113.093-61.799C510.359,62.1,510.394,62.427,510.438,62.745z"/>
<g>
	<path style="fill:#4C8056;" d="M454.289,312.062c-0.106-7.796-0.671-15.573-1.677-23.307c-3.328-26.406-9.552-52.371-18.54-77.426   c-0.971-3.09-2.119-6.268-3.267-9.27c-0.106-0.512-0.256-1.015-0.441-1.501c-1.942-5.209-3.973-10.418-6.18-15.626   c1.942-2.295,10.594-13.861,26.044-52.53c15.626-39.11,52.176-64.448,60.21-69.657C511.674,76.164,523.769,226.514,454.289,312.062   z"/>
	<path style="fill:#4C8056;" d="M87.818,184.931c-2.207,5.209-4.238,10.418-6.18,15.626c-0.177,0.441-0.265,0.795-0.441,1.236   c-1.148,3.178-2.295,6.357-3.355,9.535c-8.917,25.073-15.106,51.029-18.452,77.426c-1.006,7.734-1.571,15.512-1.677,23.307   C-11.768,226.514,0.327,76.164,1.563,62.745c8.034,5.209,44.584,30.547,60.21,69.657C77.224,171.071,85.876,182.636,87.818,184.931   z"/>
</g>
<path style="fill:#46B29D;" d="M117.57,125.251c-2.825,4.591-5.474,9.27-8.034,13.949c-3.973,7.239-7.769,14.655-11.212,21.983  c-2.031,4.149-3.885,8.299-5.739,12.448c-1.677,3.796-3.267,7.504-4.767,11.3c-1.942-2.295-10.594-13.861-26.044-52.53  C46.147,93.292,9.597,67.954,1.563,62.745c0.053-0.318,0.079-0.644,0.088-0.971c86.961,0,113.093,61.799,113.093,61.799  L117.57,125.251z"/>
<g>
	<path style="fill:#4C8056;" d="M222.391,220.687c-2.34,0-4.591-0.927-6.242-2.587c-4.423-4.432-9.667-7.963-15.432-10.4   c-12.086-5.068-25.709-5.068-37.795-0.009c-5.774,2.437-11.018,5.968-15.441,10.409c-3.478,3.417-9.067,3.364-12.483-0.115   c-3.372-3.434-3.372-8.934,0-12.369c6.03-6.056,13.181-10.877,21.056-14.187c16.483-6.904,35.058-6.904,51.541,0.009   c7.866,3.311,15.017,8.131,21.047,14.179c3.443,3.452,3.443,9.04,0,12.484C226.973,219.76,224.73,220.687,222.391,220.687   L222.391,220.687z"/>
	<path style="fill:#4C8056;" d="M229.506,150.915c-1.58,0-3.125-0.424-4.485-1.227c-4.344-2.49-9.032-4.344-13.905-5.5   c-11.68-2.79-23.855-2.79-35.526,0c-4.873,1.157-9.561,3.011-13.905,5.5c-4.202,2.472-9.614,1.068-12.086-3.134   c-2.463-4.194-1.077-9.588,3.108-12.077c5.818-3.355,12.086-5.853,18.61-7.434c14.488-3.487,29.593-3.487,44.081,0   c6.524,1.571,12.792,4.079,18.61,7.434c4.202,2.481,5.597,7.893,3.116,12.095C235.536,149.264,232.632,150.915,229.506,150.915z"/>
	<path style="fill:#4C8056;" d="M291.306,88.259c-1.572,0-3.116-0.415-4.467-1.218c-4.352-2.49-9.04-4.344-13.923-5.5   c-11.68-2.807-23.855-2.807-35.526,0c-4.882,1.157-9.57,3.011-13.923,5.5c-4.211,2.463-9.623,1.042-12.077-3.169   c-2.445-4.194-1.051-9.579,3.125-12.051c5.818-3.346,12.077-5.844,18.593-7.416c14.488-3.487,29.593-3.487,44.081,0   c6.524,1.571,12.784,4.07,18.593,7.416c4.202,2.472,5.606,7.884,3.143,12.086C297.345,86.608,294.44,88.268,291.306,88.259z"/>
	<path style="fill:#4C8056;" d="M370.771,220.687c-2.34,0-4.591-0.927-6.242-2.587c-4.423-4.432-9.667-7.963-15.432-10.4   c-12.086-5.068-25.709-5.068-37.795-0.009c-5.774,2.437-11.018,5.968-15.441,10.409c-3.443,3.452-9.04,3.452-12.483,0   s-3.452-9.04,0-12.483c6.03-6.056,13.181-10.877,21.056-14.187c16.483-6.904,35.058-6.904,51.541,0.009   c7.866,3.311,15.017,8.131,21.047,14.179c3.443,3.452,3.443,9.04,0,12.484C375.353,219.76,373.111,220.687,370.771,220.687z"/>
	<path style="fill:#4C8056;" d="M354.809,150.915c-1.58,0-3.125-0.424-4.485-1.227c-4.344-2.49-9.032-4.344-13.905-5.5   c-11.68-2.79-23.855-2.79-35.526,0c-4.873,1.157-9.561,3.011-13.905,5.5c-4.202,2.472-9.614,1.068-12.095-3.134   c-2.472-4.194-1.077-9.597,3.108-12.077c5.818-3.355,12.086-5.853,18.611-7.434c14.488-3.487,29.593-3.487,44.081,0   c6.524,1.571,12.793,4.079,18.611,7.434c4.202,2.481,5.597,7.893,3.116,12.095C360.83,149.264,357.935,150.915,354.809,150.915   L354.809,150.915z"/>
	<path style="fill:#4C8056;" d="M335.448,422.012c-1.227,0-2.445-0.256-3.567-0.759c-7.434-3.275-15.097-6.003-22.928-8.158   c-8.369-2.313-16.88-4.043-25.488-5.191c-18.231-2.41-36.7-2.41-54.94,0c-8.608,1.148-17.118,2.878-25.488,5.191   c-7.831,2.154-15.494,4.882-22.928,8.158c-4.45,1.986-9.676-0.009-11.654-4.467c-1.986-4.45,0.009-9.676,4.467-11.654   c0.009-0.009,0.026-0.009,0.035-0.018c8.219-3.629,16.695-6.648,25.355-9.032c9.146-2.525,18.46-4.423,27.863-5.677   c19.794-2.622,39.834-2.622,59.628,0c9.411,1.254,18.716,3.152,27.863,5.677c8.661,2.393,17.136,5.412,25.355,9.032   c4.458,1.978,6.462,7.195,4.485,11.654C342.105,419.955,338.945,422.012,335.448,422.012z"/>
	<path style="fill:#4C8056;" d="M176.553,441.399c-2.958,0.009-5.721-1.474-7.354-3.929c-17.136-25.709-6.78-47.4,1.104-55.284   c3.443-3.452,9.032-3.461,12.483-0.018c3.434,3.425,3.461,8.97,0.071,12.431c-1.315,1.404-11.927,13.64,1.033,33.072   c2.702,4.061,1.607,9.535-2.445,12.245C179.996,440.887,178.292,441.399,176.553,441.399z"/>
	<path style="fill:#4C8056;" d="M335.448,441.399c-4.873-0.009-8.828-3.964-8.82-8.837c0-1.739,0.521-3.443,1.483-4.891   c13.481-20.226,1.227-32.877,1.104-33.001c-3.425-3.461-3.399-9.058,0.062-12.484c3.443-3.408,8.979-3.408,12.422,0   c7.884,7.884,18.24,29.575,1.104,55.284C341.169,439.934,338.406,441.408,335.448,441.399z"/>
	<path style="fill:#4C8056;" d="M282.477,459.286c-2.048,0-4.035-0.715-5.615-2.022c-12.431-9.067-29.302-9.067-41.732,0   c-3.761,3.108-9.332,2.569-12.431-1.192c-3.108-3.761-2.569-9.332,1.192-12.431l0,0c18.858-14.761,45.352-14.761,64.21,0   c3.761,3.099,4.299,8.67,1.192,12.431C287.624,458.103,285.117,459.286,282.477,459.286L282.477,459.286z"/>
</g>
<circle style="fill:#FFFFFF;" cx="326.629" cy="300.143" r="52.971"/>
<circle style="fill:#71C285;" cx="326.629" cy="300.143" r="26.486"/>
<circle style="fill:#2C2F38;" cx="326.629" cy="300.143" r="8.828"/>
<circle style="fill:#FFFFFF;" cx="185.373" cy="300.143" r="52.971"/>
<circle style="fill:#71C285;" cx="185.373" cy="300.143" r="26.486"/>
<circle style="fill:#2C2F38;" cx="185.373" cy="300.143" r="8.828"/>
<g>
</g>
<g>
</g>
<g>
</g>
<g>
</g>
<g>
</g>
<g>
</g>
<g>
</g>
<g>
</g>
<g>
</g>
<g>
</g>
<g>
</g>
<g>
</g>
<g>
</g>
<g>
</g>
<g>
</g>
</svg>
