<?xml version="1.0" encoding="iso-8859-1"?>
<!-- Generator: Adobe Illustrator 19.0.0, SVG Export Plug-In . SVG Version: 6.00 Build 0)  -->
<svg xmlns="http://www.w3.org/2000/svg" xmlns:xlink="http://www.w3.org/1999/xlink" version="1.1" id="Capa_1" x="0px" y="0px" viewBox="0 0 512 512" style="enable-background:new 0 0 512 512;" xml:space="preserve">
<path style="fill:#F3C74F;" d="M425.036,309.282c-2.435,0-4.902-0.129-7.4-0.391c-34.281-3.597-61.326-30.314-64.309-63.529  c-1.092-12.148,7.872-22.878,20.019-23.97c12.151-1.097,22.879,7.871,23.97,20.019c1.232,13.73,13.765,22.385,24.93,23.556  c8.044,0.841,18.708-1.642,23.83-18.282c3.588-11.657,15.946-18.193,27.604-14.606c11.655,3.588,18.195,15.947,14.606,27.604  C478.81,290.454,454.433,309.282,425.036,309.282z"/>
<path style="fill:#E6595A;" d="M337.935,440.368c-3.859,0-7.766-1.012-11.318-3.135c-10.466-6.262-13.874-19.821-7.612-30.288  c2.165-3.618,5.277-10.386,1.804-15.068c-3.915-5.278-15.296-8.75-31.89-4.606c-11.838,2.959-23.819-4.244-26.774-16.076  c-2.954-11.832,4.243-23.819,16.076-26.774c32.466-8.107,62.378-0.002,78.062,21.146c13.497,18.198,13.73,42.145,0.624,64.053  C352.769,436.534,345.446,440.368,337.935,440.368z"/>
<circle style="fill:#0081C6;" cx="365.836" cy="86.256" r="50.717"/>
<path style="fill:#40BAB3;" d="M423.935,233.065c0-87.751-73.156-214.166-159.358-214.166S105.219,145.314,105.219,233.065  s71.347,158.887,159.358,158.887S423.935,320.816,423.935,233.065z"/>
<path style="fill:#FFFFFF;" d="M107.903,262.206c13.728,73.832,78.647,129.746,156.674,129.746s142.946-55.915,156.674-129.746  H107.903z"/>
<path style="fill:#E6595A;" d="M136.113,327.078c29.004,39.338,75.739,64.874,128.464,64.874s99.46-25.535,128.464-64.874H136.113z"/>
<path style="opacity:0.2;enable-background:new    ;" d="M281.475,375.053c-105.073,0-159.358-71.136-159.358-158.886  c0-52.829,26.522-119.66,66.434-164.494c-49.154,43.392-83.332,121.418-83.332,181.392c0,87.751,71.347,158.887,159.358,158.887  c48.389,0,91.735-21.508,120.962-55.455C357.618,360.522,321.25,375.053,281.475,375.053z"/>
<path style="fill:#E6595A;" d="M408.606,152.393c9.777,0,16.753-9.571,13.649-18.842C405.725,84.178,345.094,7.995,249.566,7.995  C136.974,7.995,24.5,83.686,24.5,118.04s94.996,34.354,109.483,34.354H408.606z"/>
<path style="opacity:0.1;enable-background:new    ;" d="M422.797,135.844H149.992c-14.487,0-109.483,0-109.483-34.354  c0-5.844,3.261-12.885,9.217-20.544C33.807,94.873,24.5,108.164,24.5,118.04c0,34.354,94.996,34.354,109.483,34.354h274.623  C417.577,152.393,424.166,144.334,422.797,135.844z"/>
<g style="opacity:0.2;">
	<path d="M280.138,101.744h-31.121c-4.416,0-7.995-3.579-7.995-7.995c0-4.416,3.578-7.995,7.995-7.995h31.121   c4.415,0,7.995,3.579,7.995,7.995C288.133,98.165,284.554,101.744,280.138,101.744z"/>
	<path d="M264.577,128.794h-31.121c-4.416,0-7.995-3.579-7.995-7.995c0-4.415,3.579-7.995,7.995-7.995h31.121   c4.416,0,7.995,3.58,7.995,7.995C272.572,125.216,268.993,128.794,264.577,128.794z"/>
</g>
<path style="fill:#F0B0B7;" d="M283.57,225.394h-26.604c-4.416,0-7.995-3.579-7.995-7.995s3.579-7.995,7.995-7.995h26.604  c4.416,0,7.995,3.579,7.995,7.995S287.986,225.394,283.57,225.394z"/>
<path style="fill:#F3C74F;" d="M205.351,344.036c-11.207,0-22.507-3.051-33.115-9.295c-29.703-17.489-43.233-53.017-32.175-84.477  c4.044-11.506,16.65-17.556,28.155-13.51c11.506,4.044,17.555,16.651,13.51,28.155c-4.572,13.007,3.244,26.078,12.918,31.775  c6.973,4.104,17.706,6.262,29.266-6.755c8.099-9.12,22.057-9.944,31.175-1.846c9.118,8.098,9.945,22.055,1.846,31.175  C242.456,335.552,224.036,344.035,205.351,344.036z"/>
<path style="fill:#E6595A;" d="M216.658,468.456c-8.196,0-16.071-4.583-19.886-12.454c-5.321-10.973-0.739-24.183,10.236-29.504  c14.286-6.928,29.52-32.231,21.287-52.993c-4.495-11.337,1.05-24.171,12.388-28.668c11.337-4.495,24.172,1.05,28.668,12.388  c17.273,43.56-8.836,92.412-43.073,109.013C223.172,467.742,219.889,468.456,216.658,468.456z"/>
<path style="fill:#0081C6;" d="M223.96,84.663c0.031,1.032-0.096,2.072-0.357,3.071c-3.435,13.156-9.178,22.162-18.022,31.005  c-8.804,8.804-17.394,14.282-30.607,17.766c-1.128,0.297-2.301,0.443-3.468,0.404c-27.847-0.949-49.997-24.347-48.922-52.664  c0.999-26.287,22.418-47.706,48.705-48.705C199.674,34.461,223.117,56.721,223.96,84.663z"/>
<circle style="fill:#F3C74F;" cx="173.266" cy="86.219" r="23.676"/>
<path style="opacity:0.2;enable-background:new    ;" d="M187.034,124.444c-1.129,0.297-2.301,0.443-3.468,0.403  c-27.847-0.949-49.997-24.346-48.922-52.664c0.384-10.117,3.802-19.506,9.35-27.295c-12.448,8.866-20.796,23.185-21.41,39.355  c-1.076,28.317,21.076,51.715,48.922,52.664c1.166,0.039,2.339-0.106,3.468-0.404c13.213-3.484,21.803-8.962,30.607-17.766  c2.074-2.074,3.971-4.159,5.715-6.302C204.464,117.982,197.088,121.793,187.034,124.444z"/>
<path style="fill:#0081C6;" d="M372.331,466.854l-69.375-22.606c-3.884-1.265-6.008-5.441-4.742-9.326l7.958-24.421  c1.726-5.296,7.418-8.191,12.714-6.465l49.299,16.064c14.688,4.786,24.125,19.08,22.756,34.468l0,0  C390.129,463.693,381.042,469.692,372.331,466.854z"/>
<path style="fill:#FFFFFF;" d="M390.941,454.568L390.941,454.568c0.049-0.555,0.054-1.104,0.076-1.657l-89.193-29.065l-3.609,11.076  c-1.266,3.884,0.857,8.06,4.742,9.326l69.375,22.606C381.042,469.692,390.129,463.693,390.941,454.568z"/>
<path style="opacity:0.2;enable-background:new    ;" d="M385.398,460.612l-69.375-22.606c-3.884-1.266-6.008-5.441-4.742-9.326  l7.958-24.421c0.011-0.033,0.026-0.063,0.037-0.096l-0.388-0.127c-5.296-1.726-10.988,1.168-12.714,6.465l-7.96,24.421  c-1.266,3.884,0.857,8.06,4.742,9.326l69.375,22.606c6.314,2.057,12.809-0.543,16.224-5.596  C387.507,461.162,386.45,460.955,385.398,460.612z"/>
<path style="fill:#0081C6;" d="M226.976,498.754l-46.083-56.572c-2.581-3.168-2.104-7.828,1.064-10.408l19.915-16.221  c4.318-3.518,10.672-2.869,14.189,1.45l32.747,40.201c9.756,11.977,9.95,29.105,0.466,41.298l0,0  C243.651,505.734,232.762,505.857,226.976,498.754z"/>
<path style="fill:#FFFFFF;" d="M249.275,498.502L249.275,498.502c0.342-0.44,0.644-0.9,0.962-1.352l-59.246-72.733l-9.031,7.356  c-3.168,2.581-3.644,7.24-1.064,10.408l46.083,56.573C232.762,505.857,243.651,505.734,249.275,498.502z"/>
<path style="opacity:0.2;enable-background:new    ;" d="M241.341,500.581l-46.083-56.573c-2.581-3.168-2.104-7.828,1.064-10.408  l19.914-16.221c0.027-0.022,0.055-0.039,0.083-0.061l-0.258-0.317c-3.518-4.318-9.871-4.969-14.189-1.45l-19.915,16.221  c-3.168,2.581-3.644,7.24-1.064,10.408l46.083,56.573c4.194,5.149,11.062,6.48,16.67,4.081  C242.816,502.187,242.04,501.439,241.341,500.581z"/>
<path style="opacity:0.2;fill:#FFFFFF;enable-background:new    ;" d="M303.582,16.63c-2.445,6.581-3.787,13.699-3.787,21.132  c0,33.515,27.169,60.682,60.682,60.682c13.677,0,26.294-4.527,36.442-12.161C376.002,57.835,344.497,30.179,303.582,16.63z"/>
<path d="M58.611,182.742c0-4.416-3.579-7.995-7.995-7.995H22.723c-4.416,0-7.995,3.579-7.995,7.995s3.579,7.995,7.995,7.995h27.893  C55.032,190.737,58.611,187.157,58.611,182.742z M493.766,239.116c-3.758-7.102-10.055-12.314-17.735-14.679  c-15.853-4.882-32.717,4.048-37.595,19.893c-1.39,4.513-3.547,9.418-8.089,11.606c1.037-7.486,1.584-15.121,1.584-22.874  c0-23.02-4.77-48.717-13.818-74.814c3.41-1.602,6.417-4.049,8.671-7.18c4.237-5.885,5.349-13.197,3.052-20.058  c-2.493-7.446-5.748-15.015-9.65-22.549c2.887-7.034,4.364-14.484,4.364-22.209c0-32.374-26.338-58.712-58.712-58.712  c-5.678,0-11.254,0.817-16.633,2.405C319.102,10.287,285.112,0,249.566,0C198.58,0,140.768,15.72,90.957,43.131  C56.611,62.03,16.504,92.988,16.504,118.04c0,18.937,18.834,31.702,55.98,37.944c11.322,1.902,24.048,3.189,38.002,3.86  c-1.698,4.99-3.23,9.962-4.609,14.904H83.484c-4.416,0-7.995,3.579-7.995,7.995s3.579,7.995,7.995,7.995h18.465  c-2.44,11.541-3.956,22.801-4.493,33.567H53.281c-4.416,0-7.995,3.579-7.995,7.995s3.579,7.995,7.995,7.995h44.102  c0.512,11.68,2.263,23.235,5.174,34.471H69.882c-4.416,0-7.995,3.58-7.995,7.995c0,4.416,3.579,7.995,7.995,7.995h37.687  c6.343,17.18,15.496,33.325,27.201,47.65c22.301,27.295,52.891,46.973,86.754,55.961c-1.153,4.524-3.135,8.872-5.551,12.677  c-1.835-0.867-3.814-1.443-5.894-1.657c-4.807-0.486-9.513,0.918-13.257,3.97l-19.916,16.222c-6.58,5.361-7.573,15.076-2.213,21.655  l46.083,56.572c0.001,0,0.001,0,0.001,0c4.25,5.219,10.522,8.196,17.241,8.196c0.085,0,0.173-0.001,0.258-0.002  c6.816-0.077,13.125-3.208,17.307-8.588c11.504-14.792,11.604-35.105,0.432-49.962c10.672-11.686,18.786-26.16,23.136-41.46  c1.225-4.309,2.123-8.627,2.735-12.937c9.223-0.947,18.217-2.639,26.923-5.018c2.143,0.468,3.597,1.127,4.497,1.69  c-1.974,0.272-3.912,0.854-5.741,1.784c-4.306,2.19-7.5,5.924-8.996,10.515l-7.959,24.422c-1.274,3.909-0.95,8.08,0.915,11.746  c1.863,3.665,5.042,6.385,8.95,7.658l69.375,22.607c0.001,0,0.001,0,0.001,0c2.273,0.74,4.604,1.105,6.921,1.105  c4.293,0,8.533-1.254,12.228-3.693c5.688-3.755,9.296-9.803,9.901-16.592c1.652-18.576-9.151-35.633-26.444-42.145  c4.245-16.656,1.985-33.354-6.46-47.403c17.752-13.542,32.695-30.533,43.842-49.925c2.304,0.442,4.63,0.794,6.962,1.038  c2.758,0.289,5.527,0.435,8.232,0.435c33.236,0,60.399-21.167,70.89-55.241C498.29,254.357,497.522,246.218,493.766,239.116z   M408.56,86.256c0,0.861-0.027,1.717-0.077,2.569c-10.473-15.519-23.402-30.235-37.72-42.615c-1.03-0.89-2.066-1.765-3.106-2.631  C390.373,44.537,408.56,63.309,408.56,86.256z M249.566,15.99c51.078,0,88.413,23.011,110.74,42.315  c24.963,21.585,45.287,50.662,54.367,77.784c0.644,1.925,0.329,3.98-0.868,5.642c-1.221,1.695-3.115,2.667-5.2,2.667H176.298  c0.238-0.054,0.477-0.102,0.713-0.164c13.868-3.656,23.784-9.404,34.223-19.842c10.492-10.494,16.504-20.853,20.103-34.643  c0.459-1.763,0.665-3.555,0.612-5.326c-0.474-15.745-7.085-30.345-18.614-41.115c-11.52-10.76-26.557-16.362-42.351-15.756  c-0.005,0-0.01,0.001-0.015,0.001C197.641,20.028,224.493,15.99,249.566,15.99z M171.592,43.527c0.56-0.021,1.117-0.031,1.673-0.031  c10.885,0,21.183,4.048,29.158,11.496c8.39,7.838,13.201,18.46,13.545,29.912c0.001,0.001,0.001,0.001,0.001,0.001  c0.007,0.246-0.028,0.528-0.102,0.81c-2.868,10.988-7.486,18.918-15.938,27.371c-8.378,8.377-15.946,12.775-26.994,15.688  c-0.403,0.107-0.809,0.163-1.157,0.144c-11.416-0.388-21.999-5.219-29.799-13.603c-7.791-8.372-11.841-19.299-11.406-30.768  C131.415,62.387,149.432,44.369,171.592,43.527z M32.494,118.04c0-11.872,23.192-37.251,66.171-60.901  c13.312-7.325,27.211-13.774,41.387-19.264c-14.791,10.217-24.733,27.029-25.456,46.065c-0.598,15.747,4.97,30.758,15.677,42.266  c9.355,10.054,21.629,16.387,35.038,18.191h-31.328C73.28,144.398,32.494,133.806,32.494,118.04z M220.862,376.45  c0.163,0.41,0.312,0.824,0.451,1.24c-28.906-8.608-54.936-25.874-74.161-49.404c-9.312-11.397-16.836-24.07-22.418-37.533h5.632  c4.921,20.628,18.178,39.317,37.812,50.876c11.723,6.902,24.229,10.402,37.172,10.402c6.041,0,12.001-0.806,17.806-2.322  C218.418,357.499,217.249,367.342,220.862,376.45z M190.589,303.573c13.31,7.835,27.635,4.796,39.298-8.337  c2.5-2.814,5.944-4.486,9.702-4.707c3.744-0.219,7.372,1.032,10.187,3.531c5.807,5.158,6.335,14.081,1.178,19.888  c-12.655,14.246-28.85,22.093-45.602,22.095c-10.052,0-19.829-2.756-29.06-8.191c-14.618-8.607-24.83-22.104-29.387-37.163  c3.953-0.484,7.014-3.845,7.014-7.929c0-4.415-3.579-7.995-7.995-7.995h-1.659c-0.24-7.303,0.824-14.696,3.338-21.849  c1.248-3.551,3.804-6.402,7.196-8.03c1.933-0.926,4.003-1.394,6.082-1.394c1.574,0,3.154,0.268,4.683,0.805  c3.551,1.248,6.402,3.803,8.03,7.196c1.627,3.393,1.837,7.216,0.589,10.765C168.196,279.291,178.166,296.257,190.589,303.573z   M242.963,493.595c-1.611,2.07-3.741,2.402-4.866,2.414c-1.118,0.029-3.264-0.27-4.922-2.304h0.001l-45.705-56.11l19.452-15.845  c0.554-0.452,1.141-0.498,1.533-0.458c0.392,0.039,0.955,0.204,1.407,0.759l32.748,40.203  C250.058,471.397,250.203,484.284,242.963,493.595z M245.794,440.844l-18.238-22.39c9.243-12.921,14.752-31.298,8.17-47.897  c-2.864-7.22,0.682-15.425,7.903-18.289c3.496-1.387,7.325-1.329,10.78,0.164c3.454,1.492,6.12,4.24,7.508,7.74  C273.706,389.901,262.542,421.247,245.794,440.844z M382.977,453.859c-0.232,2.614-1.843,4.046-2.783,4.667  c-0.941,0.62-2.894,1.538-5.386,0.728h0.001L306,436.832l7.773-23.854c0.222-0.681,0.688-1.037,1.04-1.216  c0.353-0.179,0.914-0.346,1.596-0.124l49.299,16.063C376.922,431.355,384.023,442.112,382.977,453.859z M327.618,387.665  c8.795-3.579,17.212-7.88,25.18-12.831c5.708,9.946,7.221,21.431,4.42,33.284l-27.022-8.805  C330.848,393.846,329.174,389.971,327.618,387.665z M282.758,382.87c-0.364-9.835-2.356-19.458-5.978-28.592  c-2.96-7.469-8.653-13.339-16.028-16.525c-3.003-1.297-6.139-2.079-9.305-2.359c4.032-3.189,7.874-6.791,11.461-10.829  c11.012-12.402,9.883-31.45-2.516-42.461c-6.005-5.335-13.735-8.02-21.749-7.536c-8.019,0.474-15.376,4.043-20.711,10.051  c-4.479,5.044-10.713,10.188-19.231,5.175c-9.856-5.804-11.449-16.496-9.433-22.234c2.665-7.579,2.218-15.742-1.258-22.986  c-3.476-7.243-9.564-12.699-17.143-15.363c-15.645-5.504-32.848,2.755-38.351,18.401c-3.127,8.897-4.487,18.081-4.247,27.153h-9.141  c-3.228-11.184-5.166-22.757-5.734-34.471h9.788c4.416,0,7.995-3.579,7.995-7.995s-3.579-7.995-7.995-7.995h-9.724  c0.584-10.711,2.214-21.981,4.842-33.567h24.522c4.416,0,7.995-3.579,7.995-7.995s-3.579-7.995-7.995-7.995h-20.313  c1.424-4.775,2.999-9.58,4.737-14.405c2.222,0.028,4.461,0.046,6.735,0.046h267.941c9.181,25.494,14.018,50.518,14.018,72.678  C415.94,309.646,358.096,373.873,282.758,382.87z M480.644,257.33c-8.348,27.114-29.656,43.957-55.608,43.957  c-2.151,0-4.361-0.116-6.564-0.348c-0.334-0.035-0.665-0.085-0.998-0.125c3.978-8.889,7.207-18.173,9.589-27.778  c12.583-0.841,22.14-9.338,26.655-23.999c2.284-7.422,10.182-11.606,17.61-9.317c3.596,1.106,6.546,3.549,8.305,6.875  C481.393,249.921,481.752,253.733,480.644,257.33z M173.265,117.894c17.466,0,31.675-14.209,31.675-31.675  c0-17.465-14.209-31.674-31.675-31.674c-17.465,0-31.674,14.209-31.674,31.674C141.591,103.685,155.8,117.894,173.265,117.894z   M173.265,70.535c8.648,0,15.685,7.037,15.685,15.684c0,8.648-7.037,15.685-15.685,15.685c-8.647,0-15.684-7.037-15.684-15.685  C157.581,77.572,164.617,70.535,173.265,70.535z M270.268,170.385c-4.416,0-7.995,3.579-7.995,7.995v4.362  c0,4.416,3.578,7.995,7.995,7.995s7.995-3.579,7.995-7.995v-4.362C278.263,173.963,274.685,170.385,270.268,170.385z   M394.444,181.549c-4.416,0-7.995,3.579-7.995,7.995c0,4.198-3.415,7.614-7.615,7.614c-4.199,0-7.615-3.415-7.615-7.614  c0-4.416-3.579-7.995-7.995-7.995s-7.995,3.579-7.995,7.995c0,4.198-3.415,7.614-7.614,7.614c-4.199,0-7.614-3.415-7.614-7.614  c0-4.416-3.579-7.995-7.995-7.995s-7.995,3.579-7.995,7.995c0,13.015,10.589,23.604,23.604,23.604  c5.978,0,11.445-2.235,15.609-5.912c4.164,3.677,9.631,5.912,15.61,5.912c13.016,0,23.605-10.59,23.605-23.604  C402.439,185.127,398.86,181.549,394.444,181.549z"/>
<g>
</g>
<g>
</g>
<g>
</g>
<g>
</g>
<g>
</g>
<g>
</g>
<g>
</g>
<g>
</g>
<g>
</g>
<g>
</g>
<g>
</g>
<g>
</g>
<g>
</g>
<g>
</g>
<g>
</g>
</svg>
