<?xml version="1.0" encoding="iso-8859-1"?>
<!-- Generator: Adobe Illustrator 19.0.0, SVG Export Plug-In . SVG Version: 6.00 Build 0)  -->
<svg xmlns="http://www.w3.org/2000/svg" xmlns:xlink="http://www.w3.org/1999/xlink" version="1.1" id="Layer_1" x="0px" y="0px" viewBox="0 0 512 512" style="enable-background:new 0 0 512 512;" xml:space="preserve">
<g>
	
		<rect x="317.266" y="30.931" transform="matrix(-0.7071 0.7071 -0.7071 -0.7071 667.4537 -147.1954)" style="fill:#49618C;" width="93.892" height="67.411"/>
	<polygon style="fill:#49618C;" points="210.544,164.925 164.182,159.116 141.483,181.814 170.991,181.814 208.223,200.384    260.194,224.605 241.711,192.669  "/>
	<path style="fill:#49618C;" d="M376.891,143.704l-42.197,42.187c0,0.01-0.01,0.01-0.01,0.01l-83.207,83.207l11.761,40.656   l-53.228,39.54l-27.374-42.582L168.158,245.1l29.655-29.655c8.952-8.942,13.87-20.409,14.731-32.129   c1.054-14.214-3.853-28.794-14.731-39.672l89.503-89.503L376.891,143.704z"/>
</g>
<g>
	
		<rect x="241.146" y="108.581" transform="matrix(-0.7071 0.7071 -0.7071 -0.7071 588.5247 47.2177)" style="fill:#3B4773;" width="86.674" height="73.83"/>
	<path style="fill:#3B4773;" d="M251.477,269.108l11.761,40.656l-53.228,39.54l-27.374-42.582L168.158,245.1l29.655-29.655   c8.952-8.942,13.87-20.409,14.731-32.129c0.912,0.973,43.89,47.053,122.139,2.585L251.477,269.108z"/>
</g>
<path style="fill:#F7D39F;" d="M388.581,363.721l-34.694,34.684l-19.78,19.78c-10.382,10.382-22.386,18.817-35.444,25.042  c-1.379,0.659-2.758,1.288-4.157,1.886c-11.872,5.161-24.556,8.516-37.614,9.875l-32.302,49.405H90.76l81.94-129.561  c-16.577-22.68-24.992-50.297-23.886-78.371l2.91-73.941c0.213-5.465,2.545-10.362,6.195-13.92c3.64-3.559,8.598-5.779,14.062-5.86  c11.507-0.182,20.926,9.084,20.926,20.591v40.808c0,7.624,3.001,14.012,7.614,18.584c9.581,9.51,26.127,11.213,37.32,0.03  l71.497-71.507l25.346-25.346c4.005-3.995,9.236-5.992,14.488-5.992c5.232,0,10.483,1.997,14.478,5.992  c7.999,7.999,7.999,20.967,0,28.966l-23.319,23.319l-14.356,14.356c3.995-3.995,9.246-6.002,14.478-6.002  c5.252,0,10.483,2.007,14.488,6.002c7.999,7.999,7.999,20.967,0,28.966l-4.42,4.42c4.005-4.005,9.236-6.002,14.488-6.002  c5.232,0,10.483,1.997,14.478,6.002c7.999,7.999,7.999,20.967,0,28.956l-19.872,19.872c7.999-7.999,20.967-7.999,28.966,0  C396.57,342.755,396.57,355.722,388.581,363.721z"/>
<g>
	<path style="fill:#E2BE8D;" d="M294.505,445.114c-11.872,5.161-24.556,8.516-37.614,9.875l-32.302,49.405H90.76l81.94-129.561   c-16.577-22.68-24.992-50.297-23.886-78.371l2.91-73.941c0.213-5.465,2.545-10.362,6.195-13.92c3.64-3.559,8.598-5.779,14.062-5.86   c11.507-0.182,20.926,9.084,20.926,20.591v40.808c0,7.624,3.001,14.012,7.614,18.584v0.01   C200.52,282.734,183.944,402.947,294.505,445.114z"/>
	<path style="fill:#E2BE8D;" d="M363.65,214.867l-23.319,23.319c-6.59-34.309-30.994-26.938-30.994-26.938l25.346-25.346   c4.005-3.995,9.236-5.992,14.488-5.992c5.232,0,10.483,1.997,14.478,5.992C371.649,193.9,371.649,206.867,363.65,214.867z"/>
</g>
<path d="M386.859,78.899c-2.97,2.97-2.97,7.784,0,10.753c2.97,2.97,7.784,2.97,10.753,0l29.005-29.005  c2.97-2.97,2.97-7.784,0-10.753L378.952,2.227c-2.97-2.97-7.784-2.97-10.753,0l-61.018,61.018L292.696,48.76  c-2.97-2.97-7.784-2.97-10.753,0l-89.504,89.504c-2.97,2.97-2.97,7.784,0,10.753c2.058,2.059,3.882,4.29,5.461,6.658l-32.771-4.106  c-2.326-0.291-4.663,0.508-6.322,2.169l-22.698,22.698c-2.175,2.175-2.826,5.445-1.649,8.286c1.177,2.842,3.95,4.694,7.025,4.694  h27.717l28.535,14.232c-0.766,1.135-1.589,2.239-2.468,3.304c-0.943-1.315-1.998-2.562-3.176-3.722  c-5.429-5.344-12.648-8.217-20.233-8.099c-14.96,0.239-27.141,12.138-27.73,27.088l-2.914,73.941  c-1.1,27.921,6.812,55.729,22.354,78.886l-23.141,36.59c-2.245,3.549-1.187,8.246,2.362,10.491c1.261,0.798,2.667,1.178,4.056,1.178  c2.52,0,4.987-1.252,6.434-3.54l25.847-40.869c1.669-2.639,1.555-6.029-0.288-8.551c-15.498-21.207-23.463-47.34-22.429-73.587  l2.914-73.941c0.272-6.888,5.884-12.371,12.777-12.482c3.49-0.045,6.821,1.269,9.322,3.732c2.502,2.462,3.88,5.751,3.88,9.262v40.81  c0,13.982,8.025,25.991,20.941,31.341c12.919,5.35,27.083,2.534,36.97-7.353l96.853-96.853c5.021-5.018,13.187-5.017,18.207,0.003  c5.021,5.021,5.021,13.189,0,18.21l-79.813,79.813c-2.97,2.97-2.97,7.784,0,10.753c2.97,2.97,7.784,2.97,10.753,0l42.138-42.138  c5.021-5.02,13.189-5.02,18.21,0c5.021,5.021,5.021,13.189,0,18.21L312.14,313.55c-2.97,2.97-2.97,7.784,0,10.753  c1.484,1.484,3.431,2.227,5.376,2.227c1.946,0,3.892-0.742,5.376-2.227l33.005-33.005c5.02-5.019,13.188-5.02,18.209,0  c5.021,5.021,5.021,13.189,0,18.21l-39.066,39.067c-2.97,2.97-2.97,7.784,0,10.753c1.484,1.484,3.431,2.227,5.376,2.227  c1.946,0,3.892-0.742,5.376-2.227l19.194-19.194c0.001-0.001,0.002-0.001,0.003-0.002c2.432-2.431,5.665-3.772,9.104-3.772  c3.439,0,6.673,1.339,9.104,3.772c5.02,5.021,5.02,13.189,0,18.21l-54.468,54.468c-19.461,19.461-45.254,31.754-72.627,34.613  c-2.275,0.237-4.322,1.487-5.574,3.401l-32.307,49.406c-2.298,3.515-1.312,8.227,2.203,10.526c1.284,0.839,2.727,1.241,4.155,1.241  c2.48,0,4.912-1.213,6.371-3.443l30.363-46.435c29.474-3.893,57.113-17.499,78.169-38.556l54.469-54.468  c10.949-10.95,10.949-28.767-0.001-39.717c-3.221-3.221-7.09-5.558-11.31-6.9l2.216-2.216c10.95-10.95,10.95-28.767,0-39.717  c-4.71-4.71-10.692-7.388-16.85-8.046c0.351-1.785,0.531-3.617,0.531-5.477c0-7.502-2.921-14.554-8.225-19.858  c-3.221-3.221-7.09-5.557-11.31-6.9l20.022-20.022c10.95-10.95,10.95-28.767,0-39.717c-3.281-3.281-7.179-5.571-11.324-6.886  l24.56-24.56c1.427-1.425,2.227-3.36,2.227-5.376c0-2.017-0.801-3.951-2.227-5.376l-16.664-16.664l11.735-11.735  c2.97-2.97,2.97-7.784,0-10.753c-2.97-2.97-7.784-2.97-10.753,0l-11.735,11.735l-5.828-5.828l55.642-55.642l5.828,5.828  L386.859,78.899z M174.385,175.01c-1.054-0.526-2.216-0.8-3.393-0.8h-11.15l7.087-7.087l37.457,4.693  c0.454,2.526,0.698,5.108,0.698,7.728c0,3.472-0.415,6.881-1.206,10.174L174.385,175.01z M366.134,143.705L232.462,277.377  c-6.52,6.52-14.811,6.37-20.397,4.056s-11.554-8.07-11.554-17.291v-40.81c0-0.26-0.012-0.517-0.019-0.775  c0.983-0.37,1.907-0.943,2.699-1.735c11.026-11.026,17.099-25.685,17.099-41.279c0-13.029-4.24-25.407-12.067-35.558l79.096-79.096  L366.134,143.705z M338.265,94.33l-20.332-20.332l55.642-55.642l20.332,20.332L338.265,94.33z"/>
<path d="M294.399,83.374c-2.97-2.97-7.784-2.97-10.753,0l-61.286,61.286c-2.97,2.97-2.97,7.784,0,10.753l52.207,52.207  c1.426,1.426,3.36,2.227,5.376,2.227c2.017,0,3.951-0.801,5.376-2.227l61.286-61.286c1.426-1.425,2.227-3.36,2.227-5.376  c0-2.017-0.801-3.951-2.227-5.376L294.399,83.374z M279.944,191.489l-6.197-6.197l22.231-22.231c2.97-2.97,2.97-7.784,0-10.753  c-2.97-2.97-7.784-2.97-10.753,0l-22.231,22.231l-10.529-10.529l22.231-22.23c2.97-2.97,2.97-7.784,0-10.753  c-2.969-2.971-7.783-2.97-10.753,0l-22.231,22.23l-3.221-3.221l50.532-50.532l41.454,41.453L279.944,191.489z"/>
<path d="M138.077,429.58c-3.55-2.244-8.246-1.186-10.491,2.362L84.333,500.33c-2.245,3.548-1.187,8.246,2.362,10.491  c1.261,0.798,2.667,1.178,4.056,1.178c2.52,0,4.987-1.252,6.434-3.54l43.252-68.388C142.684,436.522,141.626,431.825,138.077,429.58  z"/>
<g>
</g>
<g>
</g>
<g>
</g>
<g>
</g>
<g>
</g>
<g>
</g>
<g>
</g>
<g>
</g>
<g>
</g>
<g>
</g>
<g>
</g>
<g>
</g>
<g>
</g>
<g>
</g>
<g>
</g>
</svg>
