<?xml version="1.0" encoding="iso-8859-1"?>
<!-- Generator: Adobe Illustrator 19.0.0, SVG Export Plug-In . SVG Version: 6.00 Build 0)  -->
<svg xmlns="http://www.w3.org/2000/svg" xmlns:xlink="http://www.w3.org/1999/xlink" version="1.1" id="Capa_1" x="0px" y="0px" viewBox="0 0 512 512" style="enable-background:new 0 0 512 512;" xml:space="preserve">
<path style="fill:#F3C74F;" d="M374.764,449.647H236.801c-12.211,0-22.11-9.898-22.11-22.11s9.898-22.11,22.11-22.11h137.962  c12.211,0,22.11,9.898,22.11,22.11S386.975,449.647,374.764,449.647z"/>
<path style="opacity:0.2;enable-background:new    ;" d="M374.764,449.647H236.801c-12.211,0-22.11-9.898-22.11-22.11  s9.898-22.11,22.11-22.11h137.962c12.211,0,22.11,9.898,22.11,22.11S386.975,449.647,374.764,449.647z"/>
<circle style="fill:#0081C6;" cx="304.058" cy="137.527" r="50.775"/>
<circle style="fill:#F3C74F;" cx="304.058" cy="137.527" r="23.708"/>
<path style="fill:#40BAB3;" d="M341.137,276.778c0-87.858-73.245-214.428-159.553-214.428S22.03,188.919,22.03,276.778  s71.435,159.081,159.554,159.081S341.137,364.636,341.137,276.778z"/>
<path style="fill:#FFFFFF;" d="M24.718,305.954c13.744,73.922,78.744,129.906,156.866,129.906s143.121-55.983,156.866-129.906  H24.718z"/>
<path style="fill:#0081C6;" d="M52.963,370.907c29.04,39.387,75.832,64.952,128.621,64.952s99.581-25.566,128.621-64.952H52.963z"/>
<path style="opacity:0.2;enable-background:new    ;" d="M198.503,418.94c-88.119,0-159.553-71.223-159.553-159.081  c0-52.893,26.553-119.806,66.516-164.696C56.251,138.608,22.03,216.729,22.03,276.778c0,87.858,71.434,159.081,159.553,159.081  c48.448,0,91.848-21.534,121.11-55.523C274.739,404.391,238.326,418.94,198.503,418.94z"/>
<path style="fill:#F0B0B7;" d="M130.573,250.407h-26.634c-4.472,0-8.096-3.624-8.096-8.096c0-4.472,3.624-8.096,8.096-8.096h26.635  c4.472,0,8.096,3.624,8.096,8.096C138.669,246.783,135.045,250.407,130.573,250.407z"/>
<path style="fill:#0081C6;" d="M109.632,135.932c0.031,1.033-0.096,2.075-0.357,3.074c-3.438,13.172-9.189,22.189-18.043,31.043  c-8.814,8.814-17.415,14.299-30.644,17.788c-1.13,0.298-2.305,0.444-3.471,0.404c-27.881-0.95-50.059-24.376-48.981-52.728  c1-26.319,22.445-47.765,48.763-48.763C85.317,85.669,108.788,107.956,109.632,135.932z"/>
<circle style="fill:#F3C74F;" cx="58.87" cy="137.494" r="23.708"/>
<path style="opacity:0.2;enable-background:new    ;" d="M72.661,175.761c-1.13,0.298-2.305,0.444-3.471,0.404  c-27.881-0.95-50.059-24.376-48.981-52.728c0.384-10.129,3.807-19.53,9.361-27.327c-12.463,8.877-20.822,23.214-21.436,39.403  c-1.076,28.352,21.101,51.778,48.981,52.728c1.168,0.04,2.342-0.106,3.471-0.404c13.229-3.488,21.83-8.972,30.644-17.788  c2.077-2.077,3.977-4.164,5.721-6.31C90.112,169.293,82.728,173.108,72.661,175.761z"/>
<path style="fill:#A4A8AB;" d="M280.253,405.428h-129.16c-4.807,0-8.703-3.897-8.703-8.703v-17.116c0-4.807,3.897-8.703,8.703-8.703  h129.16V405.428z"/>
<path style="opacity:0.15;enable-background:new    ;" d="M161.252,396.585c-4.923,0-8.914-3.991-8.914-8.914v-16.695  c0-0.024,0.003-0.046,0.003-0.069h-1.039c-4.923,0-8.914,3.991-8.914,8.913v16.695c0,4.922,3.991,8.914,8.914,8.914h128.949v-8.844  H161.252z"/>
<path style="fill:#5F666F;" d="M503.903,379.412V238.461c0-4.315-3.498-7.815-7.815-7.815h-208.02c-4.315,0-7.814,3.498-7.814,7.815  v166.967h215.835c4.315,0,7.815-3.498,7.815-7.815v-18.201H503.903z"/>
<g>
	<circle style="fill:#FFFFFF;" cx="398.711" cy="323.185" r="25.415"/>
	<path style="fill:#FFFFFF;" d="M420.817,290.401c5.348-5.348,6.85-13.214,7.25-17.978c0.192-2.289-1.72-4.201-4.009-4.009   c-4.765,0.4-12.629,1.902-17.978,7.25c-8.139,8.139-7.368,22.105-7.368,22.105S412.678,298.54,420.817,290.401z"/>
	<path style="opacity:0.1;fill:#FFFFFF;enable-background:new    ;" d="M496.089,230.647h-58.48   c-0.861,4.393-1.324,8.929-1.324,13.575c0,37.905,30.046,68.773,67.618,70.132v-75.893   C503.903,234.146,500.405,230.647,496.089,230.647z"/>
	<circle style="opacity:0.1;fill:#FFFFFF;enable-background:new    ;" cx="470.514" cy="340.013" r="15.724"/>
</g>
<g>
	<path style="fill:#F3C74F;" d="M174.668,380.372c-0.426,0-0.853-0.013-1.283-0.037c-17.082-0.978-46.86-6.756-74.568-19.821   c-34.013-16.038-55.042-38.356-60.812-64.543c-2.627-11.924,4.909-23.721,16.833-26.349c11.921-2.623,23.721,4.908,26.349,16.833   c3.606,16.368,24.409,28.368,36.488,34.063c20.568,9.698,44.069,14.858,58.235,15.669c12.192,0.698,21.508,11.147,20.811,23.337   C196.048,371.285,186.299,380.372,174.668,380.372z"/>
	<path style="fill:#F3C74F;" d="M293.618,449.647H155.656c-12.211,0-22.11-9.898-22.11-22.11s9.898-22.11,22.11-22.11h137.962   c12.211,0,22.109,9.898,22.109,22.11S305.829,449.647,293.618,449.647z"/>
</g>
<path d="M496.088,222.551H341.695c-2.863-10.956-6.462-21.903-10.713-32.655c19.407-9.968,31.954-30.064,31.954-52.366  c0-32.464-26.412-58.876-58.875-58.876c-13.751,0-27.028,4.863-37.519,13.53C239.79,67.28,210.78,54.256,181.584,54.256  c-28.915,0-58.165,13.119-85.003,38.024c-11.191-9.361-25.262-14.192-39.992-13.621c-30.547,1.16-55.386,25.999-56.545,56.547  c-0.6,15.791,4.984,30.843,15.723,42.384c4.785,5.142,10.335,9.309,16.406,12.402c-11.783,29.854-18.236,60.395-18.236,86.785  c0,36.175,11.4,70.604,32.964,99.567c20.229,27.168,47.618,47.229,79.398,58.277c3.197,13.248,15.143,23.122,29.359,23.122h219.107  c16.655,0,30.205-13.55,30.205-30.204c0-5.056-1.255-9.823-3.461-14.014h94.58c8.773,0,15.91-7.137,15.91-15.909V238.461  C512,229.689,504.861,222.551,496.088,222.551z M304.06,94.844c23.536,0,42.684,19.149,42.684,42.685  c0,15.778-8.659,30.03-22.144,37.427c-1.519-3.306-3.096-6.584-4.731-9.828c9.659-5.54,15.995-15.945,15.995-27.598  c0-17.536-14.268-31.804-31.804-31.804c-6.876,0-13.46,2.239-18.858,6.215c-0.207-0.247-0.412-0.5-0.62-0.746  c-2.173-2.571-4.367-5.049-6.578-7.451C285.421,98.031,294.585,94.844,304.06,94.844z M319.673,137.529  c0,5.574-2.95,10.563-7.481,13.332c-5.246-9.138-10.938-17.911-17.002-26.176c2.575-1.778,5.659-2.769,8.87-2.769  C312.67,121.916,319.673,128.919,319.673,137.529z M27.618,166.56c-7.785-8.365-11.831-19.283-11.397-30.74  c0.841-22.139,18.842-40.14,40.982-40.982c0.56-0.022,1.116-0.031,1.673-0.031c10.874,0,21.162,4.043,29.128,11.486  c8.384,7.831,13.19,18.444,13.535,29.883c0.008,0.24-0.027,0.512-0.099,0.787c-2.868,10.986-7.485,18.914-15.935,27.364  c-8.374,8.375-15.94,12.772-26.979,15.683c-0.398,0.105-0.779,0.162-1.138,0.141C45.984,179.762,35.412,174.935,27.618,166.56z   M30.127,276.778c0-24.604,6.144-53.314,17.367-81.517c3.055,0.595,6.174,0.963,9.343,1.071c0.219,0.009,0.439,0.012,0.66,0.012  c1.711,0,3.441-0.227,5.153-0.678c13.904-3.666,23.843-9.428,34.305-19.89c10.517-10.518,16.543-20.902,20.15-34.721  c0.464-1.771,0.671-3.575,0.618-5.361v-0.004c-0.344-11.42-3.924-22.233-10.246-31.433c23.818-22.144,49.317-33.808,74.106-33.808  c63.738,0,122.369,77.129,143.338,152.105h-36.855c-8.772,0-15.909,7.137-15.909,15.909v124.35h-67.651  c0.14-0.928,0.242-1.87,0.297-2.824c0.952-16.626-11.801-30.928-28.429-31.881c-13.385-0.766-35.658-5.673-55.246-14.911  c-18.268-8.612-29.944-18.993-32.035-28.482c-3.583-16.261-19.728-26.579-35.998-22.997c-7.879,1.736-14.61,6.438-18.954,13.237  c-1.773,2.776-3.053,5.768-3.839,8.871C30.196,281.483,30.127,279.136,30.127,276.778z M150.486,385.489  c8.629,1.636,16.326,2.579,22.464,2.931c0.576,0.03,1.147,0.047,1.718,0.047c8.603,0,16.406-3.628,21.925-9.465h75.565v18.331  H151.302c-0.45,0-0.817-0.367-0.817-0.818v-11.025H150.486z M102.27,353.192c-31.66-14.929-51.149-35.318-56.359-58.964  c-0.805-3.655-0.139-7.405,1.875-10.559c2.015-3.155,5.139-5.336,8.793-6.142c1.01-0.222,2.021-0.329,3.017-0.329  c6.434,0,12.247,4.466,13.687,10.997c2.281,10.356,11.236,25.64,40.941,39.643c21.551,10.163,46.28,15.575,61.225,16.43  c7.716,0.443,13.633,7.079,13.193,14.792c-0.425,7.409-6.562,13.214-13.971,13.214c-0.283,0-0.563-0.009-0.821-0.023  C157.49,371.317,128.928,365.762,102.27,353.192z M127.112,417.681c-26.79-10.265-49.909-27.751-67.226-51.007  c-12.849-17.255-21.671-36.67-26.205-57.262c9.295,23.622,30.367,43.658,61.683,58.424c12.995,6.127,26.442,10.706,38.93,13.985  v14.693c0,2.851,0.714,5.536,1.958,7.898C132.11,407.895,128.918,412.466,127.112,417.681z M293.618,441.552H155.657  c-7.727,0-14.014-6.286-14.014-14.013c0-7.727,6.286-14.014,14.014-14.014h137.962c7.727,0,14.014,6.286,14.014,14.014  C307.633,435.265,301.345,441.552,293.618,441.552z M374.764,441.552h-54.4c2.205-4.191,3.461-8.957,3.461-14.013  s-1.255-9.823-3.461-14.014h54.4c7.727,0,14.014,6.286,14.014,14.014C388.778,435.265,382.491,441.552,374.764,441.552z   M495.808,397.333h-207.46V238.742h207.459v158.591H495.808z M90.678,137.491c0-17.536-14.268-31.804-31.804-31.804  s-31.804,14.268-31.804,31.804s14.268,31.804,31.804,31.804S90.678,155.027,90.678,137.491z M43.263,137.491  c0-8.609,7.003-15.613,15.613-15.613s15.613,7.003,15.613,15.613s-7.003,15.613-15.613,15.613S43.263,146.099,43.263,137.491z   M303.396,215.707c4.472,0,8.096-3.624,8.096-8.096v-4.368c0-4.472-3.624-8.096-8.096-8.096c-4.472,0-8.096,3.624-8.096,8.096v4.368  C295.301,212.082,298.924,215.707,303.396,215.707z M117.256,215.707c4.472,0,8.096-3.624,8.096-8.096v-4.368  c0-4.472-3.624-8.096-8.096-8.096s-8.096,3.624-8.096,8.096v4.368C109.16,212.082,112.785,215.707,117.256,215.707z   M194.698,238.145c5.98,0,11.451-2.225,15.629-5.889c4.176,3.665,9.649,5.889,15.629,5.889c13.081,0,23.724-10.642,23.724-23.724  c0-4.472-3.624-8.096-8.096-8.096s-8.096,3.624-8.096,8.096c0,4.154-3.38,7.533-7.533,7.533c-4.154,0-7.533-3.38-7.533-7.533  c0-4.472-3.624-8.096-8.096-8.096c-4.472,0-8.096,3.624-8.096,8.096c0,4.154-3.38,7.533-7.533,7.533  c-4.154,0-7.533-3.38-7.533-7.533c0-4.472-3.624-8.096-8.096-8.096c-4.472,0-8.096,3.624-8.096,8.096  C170.973,227.502,181.615,238.145,194.698,238.145z"/>
<g>
</g>
<g>
</g>
<g>
</g>
<g>
</g>
<g>
</g>
<g>
</g>
<g>
</g>
<g>
</g>
<g>
</g>
<g>
</g>
<g>
</g>
<g>
</g>
<g>
</g>
<g>
</g>
<g>
</g>
</svg>
