<?xml version="1.0" encoding="iso-8859-1"?>
<!-- Generator: Adobe Illustrator 19.0.0, SVG Export Plug-In . SVG Version: 6.00 Build 0)  -->
<svg xmlns="http://www.w3.org/2000/svg" xmlns:xlink="http://www.w3.org/1999/xlink" version="1.1" id="Capa_1" x="0px" y="0px" viewBox="0 0 512.002 512.002" style="enable-background:new 0 0 512.002 512.002;" xml:space="preserve">
<path style="fill:#4FBA6F;" d="M510.438,62.745c-0.053-0.318-0.079-0.644-0.088-0.971c-86.961,0-113.093,61.799-113.093,61.799  l-2.737,1.677c-1.236-2.031-2.472-4.061-3.708-6.092c-6.092-9.976-12.625-19.511-19.423-28.516  c-0.971-1.059-1.766-2.119-2.649-3.267c-0.088-0.265-0.265-0.53-0.353-0.795c0-0.088,0-0.088-0.088-0.177  c-6.595-8.378-13.675-16.359-21.188-23.925c-27.28-27.192-58.18-44.849-90.934-44.849c-26.371,0.927-51.664,10.727-71.776,27.81  c-6.604,5.271-12.934,10.868-18.981,16.774c-7.31,7.363-14.179,15.141-20.57,23.307h-0.177c-1.148,1.501-2.295,3.002-3.531,4.503  c-2.295,3.09-4.591,6.092-6.798,9.27c-4.591,6.445-8.917,13.154-13.154,19.864c-1.236,2.031-2.472,4.061-3.62,6.092l-2.825-1.677  c0,0-26.132-61.799-113.093-61.799c-0.009,0.327-0.035,0.653-0.088,0.971C0.327,76.164-11.768,226.514,57.713,312.062v1.501  c0,99.85,88.815,180.808,198.288,180.808s198.288-80.957,198.288-180.808v-1.501C523.769,226.514,511.674,76.164,510.438,62.745z"/>
<path style="fill:#46B29D;" d="M510.438,62.745c-8.034,5.209-44.584,30.547-60.21,69.657c-15.45,38.669-24.102,50.234-26.044,52.53  c-1.501-3.796-3.09-7.504-4.767-11.3c-5.209-11.742-10.921-23.307-17.127-34.696c-2.472-4.591-5.121-9.182-7.769-13.684l2.737-1.677  c0,0,26.132-61.799,113.093-61.799C510.359,62.1,510.394,62.427,510.438,62.745z"/>
<g>
	<path style="fill:#4C8056;" d="M454.289,312.062c-0.106-7.796-0.671-15.573-1.677-23.307c-3.328-26.406-9.552-52.371-18.54-77.426   c-0.971-3.09-2.119-6.268-3.267-9.27c-0.106-0.512-0.256-1.015-0.441-1.501c-1.942-5.209-3.973-10.418-6.18-15.626   c1.942-2.295,10.594-13.861,26.044-52.53c15.626-39.11,52.176-64.448,60.21-69.657C511.674,76.164,523.769,226.514,454.289,312.062   z"/>
	<path style="fill:#4C8056;" d="M87.818,184.931c-2.207,5.209-4.238,10.418-6.18,15.626c-0.177,0.441-0.265,0.795-0.441,1.236   c-1.148,3.178-2.295,6.357-3.355,9.535c-8.917,25.073-15.106,51.029-18.452,77.426c-1.006,7.734-1.571,15.512-1.677,23.307   C-11.768,226.514,0.327,76.164,1.563,62.745c8.034,5.209,44.584,30.547,60.21,69.657C77.224,171.071,85.876,182.636,87.818,184.931   z"/>
</g>
<path style="fill:#46B29D;" d="M117.57,125.251c-2.825,4.591-5.474,9.27-8.034,13.949c-3.973,7.239-7.769,14.655-11.212,21.983  c-2.031,4.149-3.885,8.299-5.739,12.448c-1.677,3.796-3.267,7.504-4.767,11.3c-1.942-2.295-10.594-13.861-26.044-52.53  C46.147,93.292,9.597,67.954,1.563,62.745c0.053-0.318,0.079-0.644,0.088-0.971c86.961,0,113.093,61.799,113.093,61.799  L117.57,125.251z"/>
<g>
	<path style="fill:#4C8056;" d="M300.143,432.571h-88.285c-4.873,0-8.828-3.955-8.828-8.828s3.955-8.828,8.828-8.828h88.285   c4.873,0,8.829,3.955,8.829,8.828S305.017,432.571,300.143,432.571z"/>
	<path style="fill:#4C8056;" d="M203.03,450.228c-4.873,0-8.828-3.946-8.828-8.82v-0.009c0.344-18.708,7.548-36.638,20.244-50.384   c3.461-3.434,9.049-3.417,12.483,0.044c3.417,3.434,3.417,8.979,0.018,12.422c-9.358,10.453-14.708,23.89-15.088,37.918   c0,4.873-3.946,8.829-8.82,8.829C203.039,450.228,203.039,450.228,203.03,450.228z"/>
	<path style="fill:#4C8056;" d="M308.972,450.228c-4.873,0-8.829-3.946-8.829-8.82v-0.009c-0.3-14.037-5.65-27.492-15.07-37.901   c-3.417-3.478-3.364-9.067,0.115-12.484c3.434-3.372,8.934-3.372,12.369,0c12.695,13.746,19.899,31.677,20.244,50.384   c0,4.873-3.946,8.829-8.82,8.829C308.981,450.228,308.981,450.228,308.972,450.228z"/>
	<path style="fill:#4C8056;" d="M222.391,220.687c-2.34,0-4.591-0.927-6.242-2.587c-4.423-4.432-9.667-7.963-15.432-10.4   c-12.086-5.068-25.709-5.068-37.795-0.009c-5.774,2.437-11.018,5.968-15.441,10.409c-3.478,3.417-9.067,3.364-12.483-0.115   c-3.372-3.434-3.372-8.934,0-12.369c6.03-6.056,13.181-10.877,21.056-14.187c16.483-6.904,35.058-6.904,51.541,0.009   c7.866,3.311,15.017,8.131,21.047,14.179c3.443,3.452,3.443,9.04,0,12.484C226.973,219.76,224.73,220.687,222.391,220.687   L222.391,220.687z"/>
	<path style="fill:#4C8056;" d="M229.506,150.915c-1.58,0-3.125-0.424-4.485-1.227c-4.344-2.49-9.032-4.344-13.905-5.5   c-11.68-2.79-23.855-2.79-35.526,0c-4.873,1.157-9.561,3.011-13.905,5.5c-4.202,2.472-9.614,1.068-12.086-3.134   c-2.463-4.194-1.077-9.588,3.108-12.077c5.818-3.355,12.086-5.853,18.61-7.434c14.488-3.487,29.593-3.487,44.081,0   c6.524,1.571,12.792,4.079,18.61,7.434c4.202,2.481,5.597,7.893,3.116,12.095C235.536,149.264,232.632,150.915,229.506,150.915z"/>
	<path style="fill:#4C8056;" d="M291.306,88.259c-1.572,0-3.116-0.415-4.467-1.218c-4.352-2.49-9.04-4.344-13.923-5.5   c-11.68-2.807-23.855-2.807-35.526,0c-4.882,1.157-9.57,3.011-13.923,5.5c-4.211,2.463-9.623,1.042-12.077-3.169   c-2.445-4.194-1.051-9.579,3.125-12.051c5.818-3.346,12.077-5.844,18.593-7.416c14.488-3.487,29.593-3.487,44.081,0   c6.524,1.571,12.784,4.07,18.593,7.416c4.202,2.472,5.606,7.884,3.143,12.086C297.345,86.608,294.44,88.268,291.306,88.259z"/>
	<path style="fill:#4C8056;" d="M370.771,220.687c-2.34,0-4.591-0.927-6.242-2.587c-4.423-4.432-9.667-7.963-15.432-10.4   c-12.086-5.068-25.709-5.068-37.795-0.009c-5.774,2.437-11.018,5.968-15.441,10.409c-3.443,3.452-9.04,3.452-12.483,0   s-3.452-9.04,0-12.483c6.03-6.056,13.181-10.877,21.056-14.187c16.483-6.904,35.058-6.904,51.541,0.009   c7.866,3.311,15.017,8.131,21.047,14.179c3.443,3.452,3.443,9.04,0,12.484C375.353,219.76,373.111,220.687,370.771,220.687z"/>
	<path style="fill:#4C8056;" d="M354.809,150.915c-1.58,0-3.125-0.424-4.485-1.227c-4.344-2.49-9.032-4.344-13.905-5.5   c-11.68-2.79-23.855-2.79-35.526,0c-4.873,1.157-9.561,3.011-13.905,5.5c-4.202,2.472-9.614,1.068-12.095-3.134   c-2.472-4.194-1.077-9.597,3.108-12.077c5.818-3.355,12.086-5.853,18.611-7.434c14.488-3.487,29.593-3.487,44.081,0   c6.524,1.571,12.793,4.079,18.611,7.434c4.202,2.481,5.597,7.893,3.116,12.095C360.83,149.264,357.935,150.915,354.809,150.915   L354.809,150.915z"/>
</g>
<circle style="fill:#FFFFFF;" cx="326.629" cy="300.143" r="52.971"/>
<circle style="fill:#71C285;" cx="326.629" cy="300.143" r="26.486"/>
<circle style="fill:#2C2F38;" cx="326.629" cy="300.143" r="8.828"/>
<g>
	<path style="fill:#4C8056;" d="M376.51,282.486h-99.762c9.703-27.545,39.905-42.015,67.45-32.312   C359.312,255.498,371.186,267.381,376.51,282.486z"/>
	<path style="fill:#4C8056;" d="M376.51,317.8c-9.703,27.545-39.905,42.015-67.45,32.312c-15.106-5.324-26.989-17.207-32.312-32.312   H376.51z"/>
</g>
<circle style="fill:#FFFFFF;" cx="185.373" cy="300.143" r="52.971"/>
<circle style="fill:#71C285;" cx="185.373" cy="300.143" r="26.486"/>
<circle style="fill:#2C2F38;" cx="185.373" cy="300.143" r="8.828"/>
<g>
	<path style="fill:#4C8056;" d="M235.254,282.486h-99.762c9.703-27.545,39.905-42.015,67.45-32.312   C218.056,255.498,229.93,267.381,235.254,282.486z"/>
	<path style="fill:#4C8056;" d="M235.254,317.8c-9.703,27.545-39.905,42.015-67.45,32.312   c-15.106-5.324-26.989-17.207-32.312-32.312H235.254z"/>
</g>
<g>
</g>
<g>
</g>
<g>
</g>
<g>
</g>
<g>
</g>
<g>
</g>
<g>
</g>
<g>
</g>
<g>
</g>
<g>
</g>
<g>
</g>
<g>
</g>
<g>
</g>
<g>
</g>
<g>
</g>
</svg>
