<?xml version="1.0" encoding="iso-8859-1"?>
<!-- Generator: Adobe Illustrator 19.0.0, SVG Export Plug-In . SVG Version: 6.00 Build 0)  -->
<svg xmlns="http://www.w3.org/2000/svg" xmlns:xlink="http://www.w3.org/1999/xlink" version="1.1" id="Capa_1" x="0px" y="0px" viewBox="0 0 511.998 511.998" style="enable-background:new 0 0 511.998 511.998;" xml:space="preserve">
<path style="fill:#FFFFFF;" d="M344.145,116.479l-35.338-12.862l33.444-91.885c1.071-2.943,4.326-4.461,7.269-3.39l24.679,8.983  c2.943,1.071,4.461,4.326,3.39,7.269L344.145,116.479z"/>
<polygon style="opacity:0.2;enable-background:new    ;" points="331.396,41.551 308.806,103.617 344.145,116.479 371.416,41.551   "/>
<path style="fill:#FFFFFF;" d="M446.677,93.52H65.321c-4.753,0-8.607,3.854-8.607,8.607v37.37c0,4.753,3.854,8.607,8.607,8.607  h381.356c4.753,0,8.607-3.854,8.607-8.607v-37.37C455.284,97.374,451.431,93.52,446.677,93.52z"/>
<path style="fill:#D0D1D2;" d="M408.569,57.296H103.43c-7.452,0-13.493,6.041-13.493,13.493V93.52h332.124V70.789  C422.062,63.338,416.02,57.296,408.569,57.296z"/>
<rect x="89.933" y="77.849" style="opacity:0.2;enable-background:new    ;" width="332.123" height="15.67"/>
<path style="fill:#A27B5A;" d="M433.952,148.103H78.047l45.543,341.561c1.094,8.211,8.099,14.344,16.383,14.344h232.05  c8.284,0,15.288-6.132,16.384-14.344L433.952,148.103z"/>
<polygon style="opacity:0.2;enable-background:new    ;" points="112.677,407.813 120.421,465.892 391.578,465.892 399.322,407.813   "/>
<polygon style="opacity:0.2;enable-background:new    ;" points="78.047,148.103 80.571,167.035 431.428,167.035 433.952,148.103   "/>
<path style="fill:#FFFFFF;" d="M66.147,199.287l30.52,228.888c0.779,5.845,5.765,10.211,11.663,10.211h295.338  c5.898,0,10.884-4.365,11.663-10.211l30.52-228.888c0.941-7.054-4.547-13.321-11.663-13.321H77.81  C70.693,185.965,65.206,192.233,66.147,199.287z"/>
<path style="fill:#3DAD4B;" d="M116.372,312.176c0,55.721,32.643,103.812,79.847,126.211H315.78  c47.203-22.398,79.847-70.489,79.847-126.211c0-55.721-32.643-103.812-79.847-126.21H196.219  C149.015,208.363,116.372,256.454,116.372,312.176z"/>
<g>
	<circle style="fill:#0081C6;" cx="318.322" cy="259.816" r="25.843"/>
	<circle style="fill:#0081C6;" cx="193.679" cy="259.816" r="25.843"/>
</g>
<path style="opacity:0.2;enable-background:new    ;" d="M208.949,238.974c-12.15,10.981-22.454,26.097-29.774,42.231  c4.135,2.807,9.124,4.449,14.499,4.449c14.272,0,25.841-11.569,25.841-25.841C219.514,251.258,215.354,243.677,208.949,238.974z"/>
<path style="fill:#40BAB3;" d="M337.193,330.675c0-44.71-37.274-109.118-81.194-109.118s-81.194,64.409-81.194,109.118  s36.352,80.954,81.194,80.954S337.193,375.384,337.193,330.675z"/>
<g>
	<path style="fill:#F0B0B7;" d="M215.414,329.329H201.86c-4.414,0-7.993-3.578-7.993-7.993c0-4.415,3.579-7.993,7.993-7.993h13.555   c4.414,0,7.993,3.578,7.993,7.993C223.407,325.751,219.829,329.329,215.414,329.329z"/>
	<path style="fill:#F0B0B7;" d="M310.138,329.329h-13.555c-4.415,0-7.993-3.578-7.993-7.993c0-4.415,3.578-7.993,7.993-7.993h13.555   c4.415,0,7.993,3.578,7.993,7.993C318.131,325.751,314.554,329.329,310.138,329.329z"/>
</g>
<path style="fill:#FFFFFF;" d="M176.173,345.522c6.994,37.618,40.071,66.107,79.827,66.107c39.755,0,72.832-28.489,79.827-66.107  H176.173z"/>
<path style="fill:#0081C6;" d="M190.546,378.576c14.778,20.044,38.59,33.053,65.453,33.053c26.864,0,50.675-13.01,65.453-33.053  H190.546z"/>
<path style="opacity:0.2;enable-background:new    ;" d="M264.609,403.018c-44.842,0-81.194-36.244-81.194-80.954  c0-26.916,13.513-60.967,33.848-83.811c-25.045,22.109-42.458,61.863-42.458,92.421c0,44.71,36.352,80.954,81.194,80.954  c24.655,0,46.74-10.958,61.631-28.255C303.404,395.615,284.875,403.018,264.609,403.018z"/>
<path d="M446.677,85.528h-16.623V70.789c0-11.847-9.638-21.485-21.485-21.485H377.1l7.999-21.977  c2.576-7.079-1.088-14.935-8.166-17.514l-24.681-8.983c-3.43-1.248-7.139-1.085-10.447,0.457s-5.818,4.281-7.066,7.709  l-14.67,40.306H103.43c-11.847,0-21.485,9.638-21.485,21.485v14.739H65.321c-9.152,0-16.599,7.446-16.599,16.599v37.368  c0,9.153,7.446,16.599,16.599,16.599h5.728l2.968,22.262c-4.26,0.834-8.169,3.039-11.075,6.359  c-3.752,4.285-5.472,9.981-4.719,15.627l30.52,228.887c1.303,9.777,9.723,17.148,19.585,17.148h1.426l5.912,44.34  c1.618,12.132,12.067,21.281,24.306,21.281h232.05c12.237,0,22.688-9.148,24.307-21.281l5.911-44.34h1.426  c9.862,0,18.282-7.371,19.586-17.148l30.52-228.887c0.752-5.646-0.968-11.342-4.72-15.627c-2.905-3.319-6.815-5.525-11.075-6.359  l2.968-22.262h5.728c9.153,0,16.599-7.446,16.599-16.599v-37.367C463.276,92.974,455.83,85.528,446.677,85.528z M348.967,16.647  l20.317,7.395l-9.195,25.262H337.08L348.967,16.647z M97.93,70.789c0-3.033,2.467-5.5,5.5-5.5h305.14c3.033,0,5.5,2.467,5.5,5.5  v14.739H97.93V70.789z M380.486,488.606c-0.563,4.224-4.2,7.409-8.461,7.409H139.974c-4.261,0-7.898-3.184-8.462-7.408  l-5.631-42.228h260.232L380.486,488.606z M437.929,198.231l-30.52,228.887c-0.248,1.867-1.856,3.275-3.741,3.275H108.329  c-1.883,0-3.491-1.408-3.741-3.275L74.07,198.231c-0.197-1.477,0.481-2.504,0.902-2.985c0.422-0.482,1.35-1.288,2.84-1.288h356.378  c1.489,0,2.419,0.807,2.839,1.288C437.449,195.726,438.127,196.754,437.929,198.231z M87.176,156.096h337.646l-2.917,21.877H90.093  L87.176,156.096z M447.291,139.496c0,0.338-0.276,0.614-0.614,0.614H65.321c-0.338,0-0.614-0.276-0.614-0.614v-37.37  c0-0.338,0.275-0.614,0.614-0.614h381.356c0.338,0,0.614,0.276,0.614,0.614V139.496z M271.945,294.887  c-4.415,0-7.953,3.578-7.953,7.993c0-4.415-3.538-7.993-7.953-7.993h-0.039c-4.144,0-7.551,3.154-7.953,7.192  c-0.401-4.038-3.809-7.192-7.953-7.192c-4.414,0-7.993,3.578-7.993,7.993c0,8.793,7.153,15.946,15.946,15.946  c2.894,0,5.611-0.776,7.953-2.128c2.342,1.353,5.059,2.128,7.953,2.128c8.793,0,15.946-7.153,15.946-15.946  C279.898,298.466,276.36,294.887,271.945,294.887z M303.362,307.407c4.415,0,7.993-3.579,7.993-7.993v-2.222  c0-4.415-3.578-7.993-7.993-7.993s-7.993,3.578-7.993,7.993v2.222C295.369,303.829,298.947,307.407,303.362,307.407z   M208.638,289.199c-4.414,0-7.993,3.578-7.993,7.993v2.222c0,4.414,3.579,7.993,7.993,7.993s7.993-3.579,7.993-7.993v-2.222  C216.63,292.778,213.052,289.199,208.638,289.199z M352.16,259.813c0-18.656-15.178-33.834-33.834-33.834  c-6.742,0-13.283,2.037-18.803,5.724c-12.724-11.091-27.499-18.139-43.523-18.139c-16.025,0-30.798,7.048-43.524,18.139  c-5.52-3.687-12.061-5.724-18.803-5.724c-18.656,0-33.834,15.178-33.834,33.834c0,11.651,5.963,22.248,15.424,28.385  c-5.445,14.712-8.45,29.575-8.45,42.477c0,49.044,40.008,88.946,89.187,88.946s89.187-39.901,89.187-88.946  c0-12.903-3.006-27.766-8.451-42.478C346.196,282.061,352.16,271.464,352.16,259.813z M175.825,259.813  c0-9.842,8.007-17.848,17.848-17.848c2.516,0,4.981,0.536,7.239,1.539c-1.763,2.081-3.471,4.236-5.119,6.455  c-0.684-0.146-1.393-0.228-2.121-0.228c-5.568,0-10.081,4.513-10.081,10.081c0,2.248,0.745,4.316,1.988,5.992  c-1.34,2.398-2.616,4.832-3.827,7.293C178.062,269.782,175.825,264.996,175.825,259.813z M255.999,403.636  c-40.363,0-73.201-32.73-73.201-72.96c0-43.221,36.191-101.127,73.201-101.127c37.009,0,73.201,57.905,73.201,101.127  C329.2,370.906,296.362,403.636,255.999,403.636z M330.246,273.099c-1.211-2.461-2.487-4.895-3.827-7.293  c1.244-1.676,1.989-3.745,1.989-5.992c0-5.568-4.513-10.081-10.081-10.081c-0.728,0-1.437,0.081-2.121,0.228  c-1.649-2.22-3.356-4.374-5.119-6.455c2.258-1.003,4.723-1.539,7.239-1.539c9.842,0,17.848,8.007,17.848,17.848  C336.174,264.996,333.936,269.782,330.246,273.099z"/>
<g>
</g>
<g>
</g>
<g>
</g>
<g>
</g>
<g>
</g>
<g>
</g>
<g>
</g>
<g>
</g>
<g>
</g>
<g>
</g>
<g>
</g>
<g>
</g>
<g>
</g>
<g>
</g>
<g>
</g>
</svg>
