<?xml version="1.0" encoding="iso-8859-1"?>
<!-- Generator: Adobe Illustrator 19.0.0, SVG Export Plug-In . SVG Version: 6.00 Build 0)  -->
<svg xmlns="http://www.w3.org/2000/svg" xmlns:xlink="http://www.w3.org/1999/xlink" version="1.1" id="Capa_1" x="0px" y="0px" viewBox="0 0 512.001 512.001" style="enable-background:new 0 0 512.001 512.001;" xml:space="preserve">
<circle style="fill:#0081C6;" cx="379.983" cy="84.101" r="51.41"/>
<circle style="fill:#F3C74F;" cx="379.983" cy="84.101" r="23.999"/>
<circle style="fill:#0081C6;" cx="132.012" cy="84.101" r="51.41"/>
<circle style="fill:#F3C74F;" cx="132.012" cy="84.101" r="23.999"/>
<path style="opacity:0.2;enable-background:new    ;" d="M162.405,42.649c-24.169,21.844-44.669,51.914-59.23,84.009  c8.224,5.585,18.151,8.851,28.842,8.851c28.39,0,51.405-23.015,51.405-51.405C183.422,67.084,175.146,52.004,162.405,42.649z"/>
<path style="fill:#40BAB3;" d="M417.518,225.067C417.518,136.128,343.371,8,256.001,8S94.483,136.128,94.483,225.067  S166.797,386.106,256,386.106S417.518,314.007,417.518,225.067z"/>
<g>
	<path style="fill:#F0B0B7;" d="M175.267,206.01h-26.964c-4.418,0-7.999-3.581-7.999-7.999s3.582-7.999,7.999-7.999h26.964   c4.418,0,7.999,3.581,7.999,7.999C183.266,202.428,179.684,206.01,175.267,206.01z"/>
	<path style="fill:#F0B0B7;" d="M363.699,206.01h-26.964c-4.418,0-7.999-3.581-7.999-7.999s3.582-7.999,7.999-7.999h26.964   c4.418,0,7.999,3.581,7.999,7.999C371.698,202.428,368.117,206.01,363.699,206.01z"/>
</g>
<path style="fill:#FFFFFF;" d="M97.204,254.602c13.914,74.832,79.713,131.504,158.797,131.504s144.882-56.672,158.796-131.504  H97.204z"/>
<path style="fill:#0081C6;" d="M125.796,320.354c29.397,39.871,76.766,65.752,130.204,65.752s100.807-25.881,130.204-65.752H125.796  z"/>
<path style="opacity:0.2;enable-background:new    ;" d="M273.128,368.979c-89.203,0-161.517-72.099-161.517-161.039  c0-53.545,26.881-121.281,67.335-166.724c-49.821,43.981-84.462,123.063-84.462,183.85c0,88.94,72.314,161.04,161.517,161.04  c49.045,0,92.979-21.8,122.601-56.206C350.302,354.251,313.441,368.979,273.128,368.979z"/>
<path style="fill:#FFFFFF;" d="M432.577,322.013v-90.66l-20.083-11.518c-3.598-2.063-7.731-2.985-11.863-2.628  c-31.107,2.689-111.591,21.859-144.631,35.797c-33.04-13.938-113.523-33.108-144.631-35.797c-4.132-0.357-8.265,0.565-11.863,2.628  l-20.083,11.518v90.66H432.577z"/>
<polygon style="opacity:0.2;enable-background:new    ;" points="421.785,225.163 285.856,262.547 226.137,262.547 90.214,225.164   79.425,231.353 79.425,322.013 432.577,322.013 432.577,231.353 "/>
<rect x="226.139" y="271.703" style="fill:#0081C6;" width="59.719" height="232.292"/>
<rect x="226.139" y="271.703" style="opacity:0.2;enable-background:new    ;" width="59.719" height="232.292"/>
<g>
	<path style="fill:#0081C6;" d="M226.137,271.703L61.263,226.358c-4.514-1.242-8.97,2.155-8.97,6.836v217.592   c0,3.191,2.132,5.99,5.21,6.836l168.633,46.38V271.703z"/>
	<path style="fill:#0081C6;" d="M285.857,271.703l164.873-45.345c4.514-1.242,8.97,2.155,8.97,6.836v217.592   c0,3.191-2.132,5.99-5.209,6.836l-168.634,46.38V271.703z"/>
</g>
<g>
	<path style="fill:#F3C74F;" d="M70.82,369.396c-6.929-7.181-16.694-11.284-18.526-15.014v-95.436   c-10.277,11.657-18.362,24.487-23.729,35.868c-0.002,0.004-0.004,0.009-0.006,0.013c-13.296,28.203-16.548,81.245,11.926,107.487   c4.302,3.965,9.739,5.923,15.163,5.923c6.035,0,12.051-2.426,16.464-7.214C80.486,391.933,79.908,377.774,70.82,369.396z"/>
	<path style="fill:#F3C74F;" d="M441.182,369.396c6.929-7.181,16.693-11.284,18.526-15.014v-95.436   c10.277,11.657,18.362,24.487,23.729,35.868c0.002,0.004,0.004,0.009,0.006,0.013c13.296,28.203,16.548,81.245-11.926,107.487   c-4.303,3.965-9.739,5.923-15.163,5.923c-6.035,0-12.051-2.426-16.464-7.214C431.515,391.933,432.093,377.774,441.182,369.396z"/>
</g>
<path style="fill:#FFFFFF;" d="M427.887,329.886l-97.621,26.848c-3.966,1.091-7.881-1.893-7.881-6.006v-40.906  c0-2.804,1.874-5.263,4.578-6.006l97.621-26.848c3.966-1.091,7.881,1.893,7.881,6.006v40.905  C432.465,326.683,430.591,329.143,427.887,329.886z"/>
<path d="M490.679,291.414c-0.017-0.034-0.033-0.068-0.05-0.103c-5.747-12.164-13.83-24.609-22.931-35.35v-22.766  c0-4.748-2.166-9.123-5.942-12.001c-3.776-2.879-8.57-3.807-13.149-2.549l-14.944,4.111l-8.296-4.758  c-1.038-25.392-7.599-53.567-18.431-80.946c19.706-10.016,32.452-30.342,32.452-52.947c0-32.756-26.649-59.404-59.405-59.404  c-13.956,0-27.427,4.965-38.04,13.806c-6.47-6.014-13.101-11.398-19.812-16.032C300.539,7.561,278.288,0,256.001,0  c-22.289,0-44.54,7.562-66.135,22.475c-6.711,4.634-13.34,10.017-19.809,16.03c-10.614-8.841-24.084-13.807-38.04-13.807  c-32.756,0-59.405,26.648-59.405,59.404c0,22.604,12.746,42.93,32.452,52.947c-10.831,27.378-17.392,55.553-18.431,80.947  l-8.299,4.76l-14.95-4.112c-4.579-1.263-9.371-0.331-13.148,2.549c-3.776,2.879-5.942,7.253-5.942,12.001v22.776  c-9.097,10.738-17.177,23.18-22.923,35.34c-0.017,0.034-0.033,0.069-0.05,0.103c-7.642,16.211-11.55,38.014-10.453,58.322  c0.938,17.361,5.896,41.597,24.192,58.459c2.732,2.517,5.862,4.48,9.232,5.84v36.751c0,6.773,4.56,12.755,11.088,14.549  l168.633,46.38c0.691,0.191,1.405,0.287,2.121,0.287h59.719c0.717,0,1.43-0.096,2.121-0.287l168.632-46.38  c6.529-1.794,11.089-7.776,11.089-14.549v-36.748c3.374-1.359,6.507-3.323,9.24-5.843c18.296-16.862,23.255-41.097,24.193-58.459  C502.229,329.428,498.322,307.626,490.679,291.414z M379.985,40.698c23.934,0,43.406,19.472,43.406,43.405  c0,16.147-8.896,30.701-22.743,38.184c-1.584-3.462-3.231-6.901-4.946-10.309c9.824-5.546,16.281-16.073,16.281-27.875  c0-17.645-14.354-32-31.999-32c-6.988,0-13.678,2.296-19.139,6.374c-2.477-2.954-4.991-5.826-7.546-8.588  C360.874,43.991,370.269,40.698,379.985,40.698z M388.129,97.883c-4.007-7.007-8.279-13.829-12.805-20.386  c-1.506-2.182-3.044-4.318-4.596-6.428c2.674-1.897,5.894-2.967,9.256-2.967c8.823,0,16,7.177,16,16.001  C395.986,89.894,392.881,95.071,388.129,97.883z M88.611,84.104c0-23.933,19.472-43.405,43.406-43.405  c9.716,0,19.11,3.294,26.685,9.191c-2.556,2.762-5.07,5.635-7.546,8.588c-5.461-4.076-12.151-6.374-19.139-6.374  c-17.645,0-31.999,14.355-31.999,32c0,11.802,6.457,22.329,16.281,27.875c-1.715,3.407-3.362,6.846-4.945,10.309  C97.507,114.804,88.611,100.25,88.611,84.104z M141.272,71.07c-1.553,2.112-3.092,4.249-4.599,6.433  c-4.524,6.554-8.796,13.375-12.801,20.38c-4.752-2.812-7.855-7.988-7.855-13.779c0-8.823,7.177-16.001,16-16.001  C135.378,68.103,138.599,69.171,141.272,71.07z M149.84,86.592c30.967-44.863,69.661-70.593,106.161-70.593  c36.498,0,75.19,25.728,106.156,70.588c25.75,37.301,43.017,83.359,46.643,123.289c-2.882-0.674-5.861-0.901-8.858-0.639  C369.29,211.885,291.701,230.136,256,244.359c-35.7-14.223-113.29-32.472-143.941-35.122c-2.998-0.263-5.978-0.036-8.858,0.638  C106.827,169.947,124.093,123.892,149.84,86.592z M45.904,396.431c-25.289-23.308-22.056-72.763-10.151-98.109  c0.015-0.032,0.031-0.064,0.046-0.096c2.404-5.097,5.289-10.248,8.494-15.285v71.441c0,1.222,0.281,2.429,0.819,3.527  c1.854,3.774,5.468,6.216,10.045,9.309c3.29,2.223,7.02,4.743,9.903,7.732c0.109,0.114,0.221,0.222,0.335,0.329  c5.832,5.375,6.203,14.492,0.829,20.324c-2.754,2.99-6.512,4.635-10.581,4.635C52.027,400.236,48.568,398.885,45.904,396.431z   M218.138,493.504L60.294,450.091v-34.217c6.747-1.05,13.024-4.358,17.699-9.431c11.298-12.259,10.575-31.393-1.575-42.767  c-4.011-4.114-8.601-7.217-12.3-9.714c-1.227-0.829-2.755-1.861-3.824-2.673V234.387l157.845,43.412L218.138,493.504  L218.138,493.504z M277.858,496.001h-43.721V279.702h43.721V496.001z M284.777,263.703h-57.56l-127.148-34.969l3.419-1.961  c2.199-1.263,4.687-1.81,7.193-1.598c29.86,2.581,109.894,21.564,142.209,35.197c0.994,0.42,2.052,0.629,3.11,0.629  c1.058,0,2.115-0.209,3.109-0.629c32.315-13.633,112.349-32.616,142.21-35.197c2.505-0.214,4.994,0.335,7.193,1.598l3.416,1.959  L284.777,263.703z M451.7,450.091l-157.845,43.413V277.799L451.7,234.387v110.14h0.007v6.762c-1.07,0.812-2.597,1.844-3.824,2.673  c-3.698,2.499-8.288,5.601-12.3,9.715c-12.151,11.374-12.874,30.507-1.576,42.766c4.674,5.072,10.947,8.379,17.692,9.431v34.217  H451.7z M466.097,396.431c-2.663,2.454-6.122,3.806-9.741,3.806c-4.069,0-7.827-1.646-10.582-4.636  c-5.375-5.831-5.002-14.948,0.83-20.323c0.115-0.107,0.226-0.214,0.335-0.329c2.884-2.989,6.613-5.509,9.903-7.732  c4.577-3.093,8.192-5.536,10.046-9.309c0.539-1.098,0.819-2.304,0.819-3.527v-18.387H467.7v-53.066  c3.208,5.041,6.097,10.195,8.503,15.297c0.015,0.032,0.031,0.063,0.046,0.096C488.153,323.668,491.385,373.123,466.097,396.431z   M350.217,170.881c4.418,0,7.999-3.581,7.999-7.999v-4.422c0-4.419-3.582-7.999-7.999-7.999s-7.999,3.581-7.999,7.999v4.422  C342.218,167.3,345.799,170.881,350.217,170.881z M401.027,353.364l-48.142,13.24c-4.26,1.172-6.763,5.575-5.592,9.835  c0.976,3.55,4.197,5.88,7.708,5.88c0.702,0,1.416-0.094,2.126-0.288l48.142-13.24c4.26-1.172,6.763-5.575,5.592-9.835  C409.69,354.695,405.286,352.195,401.027,353.364z M161.785,170.881c4.418,0,7.999-3.581,7.999-7.999v-4.422  c0-4.419-3.582-7.999-7.999-7.999c-4.418,0-7.999,3.581-7.999,7.999v4.422C153.786,167.3,157.367,170.881,161.785,170.881z   M240.179,193.597c6.067,0,11.611-2.28,15.822-6.027c4.21,3.748,9.755,6.027,15.821,6.027c13.134,0,23.82-10.686,23.82-23.821  c0-4.419-3.582-7.999-7.999-7.999c-4.418,0-7.999,3.581-7.999,7.999c0,4.313-3.508,7.822-7.821,7.822S264,174.089,264,169.775  c0-4.419-3.582-7.999-7.999-7.999c-4.418,0-7.999,3.581-7.999,7.999c0,4.313-3.509,7.822-7.822,7.822  c-4.312,0-7.821-3.509-7.821-7.822c0-4.419-3.582-7.999-7.999-7.999c-4.418,0-7.999,3.581-7.999,7.999  C216.359,182.91,227.045,193.597,240.179,193.597z"/>
<g>
</g>
<g>
</g>
<g>
</g>
<g>
</g>
<g>
</g>
<g>
</g>
<g>
</g>
<g>
</g>
<g>
</g>
<g>
</g>
<g>
</g>
<g>
</g>
<g>
</g>
<g>
</g>
<g>
</g>
</svg>
