<?xml version="1.0" encoding="iso-8859-1"?>
<!-- Generator: Adobe Illustrator 19.0.0, SVG Export Plug-In . SVG Version: 6.00 Build 0)  -->
<svg xmlns="http://www.w3.org/2000/svg" xmlns:xlink="http://www.w3.org/1999/xlink" version="1.1" id="Layer_1" x="0px" y="0px" viewBox="0 0 512.003 512.003" style="enable-background:new 0 0 512.003 512.003;" xml:space="preserve">
<g>
	<path style="fill:#49618C;" d="M504.397,288.68c-19.804-17.286-19.804-48.074,0-65.361l0,0l-0.095-0.047   c-23.548-11.595-31.484-41.28-16.866-63.079l0.06-0.089l-0.072-0.014c-25.766-5.064-41.161-31.681-32.7-56.54l0.022-0.067   l-0.028,0.002c-26.215,1.77-47.974-19.987-46.204-46.204l0.002-0.028l-0.067,0.022c-24.86,8.461-51.477-6.934-56.541-32.7   l-0.014-0.071l-0.088,0.059c-21.799,14.62-51.486,6.682-63.079-16.866l-0.046-0.094l0,0c-17.286,19.804-48.074,19.804-65.361,0l0,0   l-0.047,0.095c-11.595,23.548-41.28,31.485-63.079,16.866l-0.088-0.06l-0.014,0.072c-5.064,25.767-31.681,41.161-56.54,32.7   l-0.067-0.023l0.002,0.028c1.77,26.215-19.987,47.974-46.204,46.204l-0.028-0.002l0.022,0.067   c8.461,24.86-6.934,51.477-32.7,56.541l-0.071,0.014l0.059,0.088c14.62,21.799,6.682,51.486-16.866,63.079l-0.094,0.047l0,0   c19.804,17.286,19.804,48.074,0,65.361l0,0l0.095,0.047c23.548,11.595,31.484,41.28,16.866,63.079l-0.06,0.088l0.072,0.014   c25.766,5.064,41.161,31.681,32.7,56.54l-0.022,0.068l0.028-0.002c26.215-1.77,47.974,19.987,46.204,46.204l-0.002,0.028   l0.067-0.022c24.86-8.461,51.477,6.934,56.541,32.7l0.014,0.071l0.088-0.059c21.799-14.62,51.486-6.682,63.079,16.866l0.046,0.094   l0,0c17.286-19.804,48.074-19.804,65.361,0l0,0l0.047-0.095c11.595-23.548,41.28-31.485,63.079-16.866l0.089,0.06l0.014-0.072   c5.064-25.766,31.681-41.161,56.54-32.7l0.067,0.023l-0.002-0.028c-1.77-26.215,19.987-47.974,46.204-46.204l0.028,0.002   l-0.022-0.067c-8.461-24.86,6.934-51.477,32.7-56.541l0.071-0.014l-0.059-0.088c-14.619-21.799-6.682-51.486,16.866-63.079   L504.397,288.68L504.397,288.68z M443.588,288.323c-13.553,79.214-76.051,141.711-155.265,155.265   c-1.395-16.633-15.329-29.701-32.323-29.701s-30.928,13.068-32.323,29.701c-79.214-13.553-141.711-76.05-155.265-155.265   c16.633-1.395,29.701-15.329,29.701-32.323s-13.068-30.928-29.701-32.323c13.553-79.214,76.05-141.711,155.265-155.265   c1.395,16.633,15.329,29.701,32.323,29.701s30.927-13.068,32.323-29.701c79.214,13.553,141.711,76.051,155.265,155.265   c-16.633,1.395-29.701,15.329-29.701,32.323C413.887,272.994,426.955,286.927,443.588,288.323z"/>
	<path style="fill:#49618C;" d="M324.217,148.296c-19.72-12.521-43.12-19.77-68.213-19.77c-70.403,0-127.473,57.07-127.473,127.473   c0,59.879,41.284,110.116,96.956,123.792c9.774,2.403,19.993,3.68,30.517,3.68c70.403,0,127.473-57.07,127.473-127.473   C383.477,210.689,359.834,170.905,324.217,148.296z M256.004,282.44c-14.61,0-26.441-11.832-26.441-26.442   c0-14.6,11.832-26.442,26.441-26.442c14.6,0,26.442,11.842,26.442,26.442C282.446,270.608,270.604,282.44,256.004,282.44z"/>
</g>
<path style="fill:#5189B8;" d="M383.477,255.999c0,70.403-57.07,127.473-127.473,127.473c-10.524,0-20.744-1.277-30.517-3.68  c104.357-93.853,105.452-188.183,98.73-231.495C359.834,170.905,383.477,210.689,383.477,255.999z"/>
<path d="M509.398,282.951c-7.784-6.795-12.249-16.619-12.249-26.952c0-10.332,4.464-20.157,12.248-26.951  c1.919-1.675,2.872-4.198,2.54-6.723c-0.334-2.525-1.908-4.715-4.195-5.835l-0.079-0.04c-9.257-4.557-16.094-12.888-18.759-22.855  c-2.664-9.967-0.897-20.598,4.828-29.135l0.061-0.089c1.432-2.112,1.672-4.809,0.701-7.168c-0.971-2.359-3.097-4.082-5.601-4.574  c-10.128-1.99-18.901-8.257-24.069-17.193c-5.168-8.935-6.224-19.665-2.868-29.526c0.811-2.406,0.353-5.057-1.197-7.069  c-1.549-2.01-3.99-3.115-6.551-2.944c-10.291,0.692-20.403-3.093-27.706-10.396c-7.304-7.304-11.093-17.403-10.397-27.716  c0.178-2.541-0.96-4.99-2.979-6.544c-2.019-1.554-4.715-1.983-7.123-1.163c-9.774,3.325-20.5,2.269-29.436-2.899  c-8.935-5.168-15.203-13.941-17.206-24.135c-0.489-2.496-2.194-4.584-4.542-5.56c-2.352-0.977-5.032-0.714-7.146,0.7l-0.098,0.065  c-8.568,5.748-19.201,7.514-29.167,4.849c-9.967-2.665-18.298-9.502-22.862-18.772l-0.047-0.094  c-1.126-2.277-3.316-3.842-5.837-4.169c-2.522-0.327-5.037,0.626-6.708,2.54c-6.795,7.784-16.619,12.249-26.953,12.249  c-10.332,0-20.157-4.465-26.951-12.249c-1.675-1.919-4.2-2.87-6.724-2.538c-2.525,0.334-4.714,1.908-5.835,4.195l-0.039,0.08  c-4.557,9.257-12.888,16.093-22.855,18.758c-9.967,2.665-20.598,0.897-29.184-4.86l-0.089-0.06  c-2.115-1.409-4.801-1.634-7.147-0.657c-2.345,0.976-4.056,3.096-4.546,5.589c-1.99,10.128-8.258,18.901-17.193,24.069  c-8.934,5.167-19.664,6.225-29.517,2.872c-2.405-0.813-5.058-0.359-7.075,1.191c-2.013,1.55-3.118,4.017-2.947,6.552  c0.697,10.305-3.093,20.404-10.397,27.708c-7.303,7.304-17.406,11.09-27.725,10.396c-2.527-0.173-4.985,0.965-6.537,2.983  c-1.552,2.018-1.981,4.71-1.162,7.12c3.326,9.773,2.269,20.502-2.898,29.437c-5.169,8.935-13.941,15.202-24.126,17.203  c-2.507,0.488-4.603,2.202-5.577,4.562c-0.974,2.361-0.699,5.054,0.735,7.168l0.039,0.057c5.747,8.568,7.514,19.199,4.849,29.167  c-2.665,9.967-9.503,18.298-18.773,22.862l-0.094,0.047c-2.277,1.126-3.842,3.316-4.168,5.836c-0.326,2.52,0.626,5.037,2.541,6.708  c7.784,6.795,12.249,16.618,12.249,26.951c0,10.333-4.465,20.157-12.249,26.951c-1.915,1.671-2.867,4.187-2.541,6.708  s1.891,4.71,4.168,5.837l0.108,0.054c9.256,4.557,16.092,12.887,18.757,22.854c2.665,9.967,0.898,20.599-4.849,29.17l-0.06,0.088  c-1.416,2.114-1.648,4.803-0.672,7.154c0.974,2.351,3.096,4.065,5.593,4.556c10.128,1.99,18.901,8.257,24.069,17.192  c5.169,8.935,6.225,19.665,2.904,29.423c-0.852,2.412-0.419,5.091,1.128,7.128c1.546,2.037,4.023,3.164,6.582,2.987  c10.321-0.697,20.405,3.094,27.708,10.397c7.304,7.303,11.093,17.402,10.397,27.715c-0.178,2.541,0.96,4.99,2.979,6.544  c2.018,1.555,4.714,1.984,7.122,1.163c9.775-3.325,20.501-2.269,29.436,2.899c8.935,5.169,15.203,13.941,17.206,24.136  c0.489,2.496,2.194,4.584,4.542,5.56c2.352,0.977,5.033,0.714,7.146-0.7l0.098-0.065c8.569-5.747,19.201-7.515,29.168-4.849  c9.967,2.665,18.298,9.502,22.862,18.772l0.047,0.094c1.126,2.278,3.316,3.842,5.837,4.169c2.518,0.326,5.036-0.626,6.708-2.54  c6.795-7.784,16.618-12.249,26.951-12.249c10.333,0,20.157,4.465,26.951,12.249c1.455,1.666,3.549,2.604,5.727,2.604  c0.331,0,0.663-0.021,0.995-0.065c2.525-0.334,4.715-1.908,5.836-4.195l0.039-0.08c4.557-9.257,12.888-16.094,22.855-18.758  c9.964-2.663,20.598-0.897,29.184,4.86l0.089,0.06c2.115,1.41,4.8,1.632,7.147,0.658c2.345-0.976,4.056-3.096,4.546-5.59  c1.99-10.128,8.258-18.901,17.192-24.069c8.936-5.167,19.666-6.224,29.47-2.887c2.412,0.834,5.076,0.388,7.102-1.161  c2.025-1.548,3.139-4.023,2.968-6.568c-0.697-10.305,3.093-20.404,10.397-27.707c7.304-7.304,17.395-11.097,27.706-10.397  c2.537,0.178,4.994-0.955,6.552-2.974c1.556-2.018,1.987-4.714,1.165-7.127c-3.324-9.772-2.268-20.501,2.899-29.436  c5.169-8.935,13.941-15.203,24.126-17.204c2.504-0.487,4.597-2.197,5.573-4.554c0.976-2.356,0.706-5.046-0.72-7.161l-0.049-0.073  c-5.748-8.569-7.515-19.201-4.849-29.169c2.665-9.967,9.503-18.297,18.773-22.861l0.094-0.047c2.277-1.126,3.842-3.316,4.168-5.837  C512.265,287.138,511.312,284.622,509.398,282.951z M474.213,314.474c-2.935,10.975-2.099,22.516,2.216,32.835  c-10.336,4.243-19.084,11.807-24.771,21.639c-5.684,9.827-7.879,21.18-6.394,32.282c-11.08,1.432-21.486,6.482-29.517,14.513  c-8.027,8.026-13.075,18.422-14.509,29.511c-11.086-1.484-22.449,0.71-32.288,6.4c-9.818,5.679-17.376,14.41-21.63,24.773  c-10.318-4.316-21.863-5.154-32.843-2.218c-10.983,2.936-20.571,9.427-27.361,18.325c-8.844-6.814-19.762-10.595-31.113-10.595  c-0.001,0,0,0-0.001,0c-11.35,0-22.271,3.781-31.114,10.595c-6.787-8.893-16.376-15.386-27.361-18.324  c-10.977-2.935-22.524-2.097-32.835,2.214c-4.244-10.335-11.807-19.082-21.639-24.768c-9.825-5.683-21.172-7.878-32.281-6.392  c-1.432-11.081-6.482-21.487-14.512-29.52c-8.027-8.027-18.422-13.075-29.511-14.509c1.482-11.083-0.71-22.449-6.401-32.287  c-5.68-9.819-14.413-17.377-24.772-21.631c4.315-10.316,5.153-21.863,2.218-32.844c-2.938-10.986-9.434-20.577-18.323-27.361  c6.814-8.844,10.594-19.763,10.594-31.113c0-11.351-3.781-22.271-10.595-31.114c8.893-6.787,15.386-16.377,18.323-27.361  c2.934-10.972,2.098-22.509-2.218-32.833c10.335-4.243,19.085-11.807,24.772-21.64c5.684-9.828,7.879-21.18,6.394-32.283  c11.082-1.432,21.485-6.481,29.518-14.512c8.025-8.026,13.074-18.419,14.508-29.511c11.078,1.482,22.449-0.71,32.287-6.399  c9.819-5.679,17.377-14.411,21.631-24.773c10.317,4.316,21.862,5.154,32.844,2.218c10.983-2.936,20.572-9.429,27.36-18.325  c8.845,6.814,19.763,10.595,31.115,10.595c11.35,0,22.271-3.781,31.114-10.595c6.786,8.893,16.376,15.386,27.36,18.324  c10.981,2.935,22.524,2.097,32.835-2.214c4.244,10.335,11.807,19.083,21.639,24.769c9.83,5.686,21.183,7.88,32.282,6.394  c1.432,11.08,6.483,21.485,14.513,29.517c8.027,8.027,18.42,13.075,29.51,14.508c-1.483,11.083,0.71,22.448,6.4,32.286  c5.685,9.831,14.433,17.395,24.769,21.639c-4.312,10.314-5.149,21.858-2.214,32.835c2.937,10.987,9.432,20.578,18.321,27.362  c-6.813,8.844-10.593,19.762-10.593,31.113s3.781,22.271,10.595,31.115C483.642,293.901,477.149,303.49,474.213,314.474z"/>
<path d="M444.224,231.254c2.123-0.177,4.074-1.238,5.378-2.922c1.304-1.684,1.841-3.838,1.482-5.937  c-14.111-82.475-79.004-147.367-161.478-161.478c-2.1-0.359-4.252,0.178-5.937,1.482c-1.683,1.304-2.743,3.254-2.922,5.377  c-1.071,12.747-11.939,22.733-24.745,22.733c-12.807,0-23.677-9.986-24.745-22.732c-0.178-2.123-1.238-4.073-2.922-5.377  s-3.837-1.842-5.937-1.482C139.922,75.029,75.029,139.922,60.919,222.396c-0.359,2.1,0.178,4.253,1.482,5.937  c1.304,1.684,3.254,2.745,5.378,2.922c12.746,1.07,22.732,11.939,22.732,24.745c0,12.806-9.986,23.676-22.732,24.745  c-2.123,0.177-4.074,1.238-5.378,2.922c-1.304,1.684-1.841,3.837-1.482,5.937c3.527,20.621,10.287,40.454,20.087,58.95  c1.966,3.71,6.568,5.126,10.28,3.158c3.711-1.966,5.125-6.569,3.158-10.28c-7.886-14.88-13.637-30.703-17.139-47.124  c16.459-5.047,28.413-20.519,28.413-38.308s-11.954-33.261-28.413-38.308c14.973-70.248,70.143-125.419,140.389-140.39  c5.047,16.459,20.518,28.414,38.308,28.414c17.789,0,33.261-11.955,38.308-28.414c70.245,14.973,125.416,70.143,140.388,140.388  c-16.458,5.047-28.413,20.519-28.413,38.308s11.955,33.261,28.413,38.308c-14.973,70.246-70.143,125.417-140.388,140.388  c-5.048-16.458-20.52-28.413-38.308-28.413c-17.791,0-33.264,11.955-38.309,28.417c-44.803-9.518-83.914-35.232-110.74-72.982  c-2.43-3.423-7.178-4.227-10.603-1.795c-3.423,2.432-4.226,7.18-1.794,10.603c14.947,21.037,33.559,38.722,55.315,52.569  c22.217,14.138,46.617,23.555,72.525,27.988c2.1,0.361,4.253-0.178,5.937-1.482s2.743-3.254,2.922-5.377  c1.07-12.747,11.938-22.732,24.745-22.732c12.806,0,23.676,9.986,24.745,22.733c0.178,2.122,1.239,4.073,2.923,5.377  c1.341,1.039,2.981,1.592,4.655,1.592c0.427,0,0.856-0.037,1.283-0.108c82.474-14.11,147.367-79.003,161.478-161.478  c0.359-2.099-0.178-4.253-1.482-5.937c-1.304-1.684-3.254-2.745-5.378-2.922c-12.747-1.07-22.733-11.939-22.733-24.745  C421.491,243.196,431.476,232.324,444.224,231.254z"/>
<path d="M290.048,256c0-18.774-15.273-34.047-34.046-34.047c-18.775,0-34.047,15.273-34.047,34.047s15.273,34.048,34.047,34.048  C274.775,290.047,290.048,274.773,290.048,256z M256.001,274.839c-10.388,0-18.84-8.451-18.84-18.84  c0-10.389,8.452-18.84,18.84-18.84c10.388,0,18.839,8.451,18.839,18.84C274.84,266.389,266.389,274.839,256.001,274.839z"/>
<path d="M331.529,143.995c-22.342-15.095-48.46-23.073-75.528-23.073c-74.482,0-135.078,60.595-135.078,135.078  s60.595,135.078,135.078,135.078S391.078,330.482,391.078,256c0-33.671-12.462-65.927-35.092-90.825  c-2.823-3.106-7.631-3.337-10.742-0.513c-3.106,2.825-3.337,7.633-0.512,10.742c20.08,22.092,31.138,50.715,31.138,80.596  c0,66.097-53.773,119.87-119.869,119.87c-66.097,0-119.87-53.773-119.87-119.87s53.773-119.87,119.87-119.87  c24.021,0,47.195,7.078,67.015,20.468c3.481,2.351,8.206,1.436,10.557-2.044C335.924,151.073,335.01,146.346,331.529,143.995z"/>
<path d="M353.791,256.212c0-0.041,0-0.081,0-0.112c0-0.03,0-0.071,0-0.101c0-4.197-3.397-7.604-7.604-7.604  c-4.198,0-7.594,3.407-7.594,7.604c-0.01,0-0.01,0-0.01,0c0,0.03,0,0.071,0,0.101c0,0.02,0,0.051,0,0.071c0,0.01,0,0.01,0,0.01  c-0.011,4.197,3.396,7.604,7.593,7.614h0.011C350.385,263.795,353.78,260.399,353.791,256.212z"/>
<path d="M302.885,333.437c-1.877-3.761-6.439-5.292-10.2-3.427s-5.292,6.438-3.427,10.199c1.328,2.666,4.025,4.218,6.813,4.218  c1.146,0,2.292-0.253,3.386-0.791h-0.01C303.21,341.761,304.751,337.199,302.885,333.437z"/>
<path d="M316.937,311.751c-2.839,3.092-2.626,7.908,0.466,10.737c1.46,1.338,3.305,1.997,5.14,1.997  c2.058,0,4.106-0.831,5.607-2.474c2.839-3.092,2.626-7.898-0.478-10.737C324.582,308.436,319.766,308.648,316.937,311.751z"/>
<path d="M342.821,281.67c-3.913-1.521-8.324,0.406-9.845,4.319c-1.531,3.914,0.405,8.324,4.319,9.855  c0.912,0.355,1.845,0.517,2.758,0.517c3.042,0,5.922-1.835,7.087-4.846C348.67,287.611,346.735,283.201,342.821,281.67z"/>
<path d="M337.377,216.326c-3.914,1.521-5.86,5.921-4.339,9.834c1.166,3.011,4.045,4.856,7.097,4.856  c0.912,0.01,1.836-0.162,2.737-0.507c3.913-1.521,5.86-5.921,4.339-9.845C345.701,216.752,341.29,214.805,337.377,216.326z"/>
<path d="M328.283,190.128c-2.829-3.102-7.645-3.325-10.748-0.497c-3.102,2.829-3.324,7.634-0.496,10.737  c1.5,1.653,3.559,2.484,5.627,2.484c1.825,0,3.659-0.659,5.12-1.987C330.887,198.036,331.111,193.23,328.283,190.128z"/>
<path d="M206.142,321.849c-3.346-2.545-8.111-1.886-10.656,1.46c-2.535,3.346-1.876,8.121,1.47,10.656  c1.369,1.044,2.981,1.541,4.584,1.541c2.301,0,4.573-1.034,6.072-3.011C210.146,329.149,209.488,324.384,206.142,321.849z"/>
<path d="M165.953,246.813c0.466,0.081,0.943,0.132,1.399,0.132c3.589,0,6.783-2.555,7.472-6.215c0.76-4.126-1.957-8.101-6.083-8.871  c-4.126-0.771-8.101,1.957-8.871,6.083C159.1,242.068,161.817,246.043,165.953,246.813z"/>
<path d="M263.497,338.253c-4.187,0.375-7.269,4.066-6.894,8.253c0.355,3.954,3.67,6.925,7.563,6.925c0.233,0,0.466-0.01,0.689-0.03  c4.187-0.375,7.269-4.076,6.895-8.253C271.375,340.96,267.683,337.878,263.497,338.253z"/>
<path d="M183.361,201.99c-3.569-2.21-8.253-1.125-10.473,2.443c-2.219,3.569-1.124,8.253,2.443,10.473  c1.247,0.781,2.637,1.146,4.005,1.146c2.545,0,5.029-1.267,6.468-3.589C188.025,208.895,186.93,204.211,183.361,201.99z"/>
<path d="M179.255,310.99c1.369,0,2.748-0.365,3.995-1.136c3.569-2.21,4.673-6.894,2.464-10.463  c-2.21-3.579-6.894-4.684-10.463-2.474c-3.579,2.21-4.684,6.894-2.473,10.473C174.216,309.713,176.71,310.99,179.255,310.99z"/>
<path d="M207.765,179.401c-2.525-3.356-7.3-4.015-10.646-1.49c-3.357,2.535-4.025,7.3-1.49,10.656  c1.5,1.977,3.772,3.021,6.072,3.021c1.602,0,3.204-0.507,4.584-1.541C209.63,187.522,210.299,182.747,207.765,179.401z"/>
<path d="M159.829,273.853c0.679,3.66,3.883,6.225,7.472,6.225c0.456,0,0.923-0.041,1.389-0.122c4.126-0.771,6.864-4.735,6.103-8.861  c-0.01,0-0.01,0-0.01,0c-0.76-4.126-4.725-6.864-8.85-6.103C161.807,265.762,159.069,269.726,159.829,273.853z"/>
<path d="M223.875,340.646c-1.156,4.035,1.186,8.243,5.221,9.398c0.699,0.203,1.399,0.294,2.089,0.294c3.316,0,6.358-2.18,7.31-5.515  c1.157-4.045-1.186-8.253-5.22-9.398C229.238,334.269,225.02,336.611,223.875,340.646z"/>
<path d="M299.631,168.452c-3.762-1.876-8.325-0.345-10.2,3.407c-1.876,3.761-0.345,8.324,3.407,10.199  c1.084,0.547,2.251,0.801,3.386,0.801c2.798,0,5.485-1.541,6.813-4.208C304.913,174.9,303.392,170.327,299.631,168.452z"/>
<path d="M231.356,176.816c0.69,0,1.389-0.091,2.079-0.284c4.044-1.146,6.387-5.353,5.242-9.388  c-1.136-4.045-5.344-6.387-9.389-5.242c-4.034,1.146-6.377,5.343-5.242,9.388C225,174.636,228.052,176.816,231.356,176.816z"/>
<path d="M264.369,173.795c3.893,0,7.208-2.96,7.563-6.904c0.385-4.187-2.687-7.888-6.874-8.273  c-4.177-0.385-7.878,2.697-8.262,6.874c-0.386,4.187,2.686,7.888,6.873,8.273C263.902,173.785,264.135,173.795,264.369,173.795z"/>
<g>
</g>
<g>
</g>
<g>
</g>
<g>
</g>
<g>
</g>
<g>
</g>
<g>
</g>
<g>
</g>
<g>
</g>
<g>
</g>
<g>
</g>
<g>
</g>
<g>
</g>
<g>
</g>
<g>
</g>
</svg>
