<?xml version="1.0" encoding="iso-8859-1"?>
<!-- Generator: Adobe Illustrator 19.0.0, SVG Export Plug-In . SVG Version: 6.00 Build 0)  -->
<svg xmlns="http://www.w3.org/2000/svg" xmlns:xlink="http://www.w3.org/1999/xlink" version="1.1" id="Capa_1" x="0px" y="0px" viewBox="0 0 512 512" style="enable-background:new 0 0 512 512;" xml:space="preserve">
<path style="fill:#F3C74F;" d="M90.516,306.349c-17.126,0-32.958-4.512-46.334-13.286c-15.249-10.002-26.727-25.409-32.323-43.382  c-10.892-34.995,0.149-84.58,50.134-110.753c11.768-6.16,26.294-1.616,32.453,10.147c6.159,11.763,1.616,26.294-10.147,32.452  c-25.714,13.464-31.851,36.753-26.526,53.86c7.377,23.697,29.951,23.607,39.315,22.462c13.181-1.594,25.169,7.779,26.774,20.96  c1.606,13.181-7.779,25.168-20.96,26.774C98.711,306.096,94.577,306.349,90.516,306.349z"/>
<path style="opacity:0.2;enable-background:new    ;" d="M123.862,278.811c-1.606-13.181-13.593-22.555-26.774-20.96  c-6.911,0.845-21.014,1.103-30.896-8.341c-0.094,2.385-0.156,4.755-0.156,7.092c0,16.671,2.372,32.788,6.786,48.042  c5.702,1.126,11.614,1.706,17.695,1.706c4.061,0,8.194-0.254,12.386-0.765C116.082,303.979,125.467,291.993,123.862,278.811z"/>
<g>
	<path style="fill:#F3C74F;" d="M421.484,306.349c-4.062,0-8.193-0.254-12.386-0.765c-13.181-1.606-22.566-13.593-20.96-26.774   c1.606-13.181,13.587-22.56,26.774-20.96c9.364,1.145,31.938,1.234,39.315-22.462c5.325-17.107-0.812-40.396-26.526-53.86   c-11.764-6.159-16.307-20.689-10.148-32.452c6.16-11.762,20.69-16.305,32.453-10.147c49.985,26.172,61.027,75.756,50.134,110.753   c-5.596,17.974-17.074,33.38-32.323,43.382C454.443,301.837,438.609,306.349,421.484,306.349z"/>
	<path style="fill:#F3C74F;" d="M307.694,501.204c-13.279,0-24.044-10.764-24.044-24.044v-91.047   c0-13.279,10.764-24.043,24.044-24.043c13.28,0,24.044,10.764,24.044,24.043v91.047   C331.736,490.44,320.972,501.204,307.694,501.204z"/>
</g>
<path style="opacity:0.2;enable-background:new    ;" d="M307.694,362.07c-13.279,0-24.044,10.764-24.044,24.043v50.426  c16.978-2.711,33.133-7.872,48.087-15.118v-35.307C331.736,372.835,320.972,362.07,307.694,362.07z"/>
<path style="fill:#F3C74F;" d="M204.307,501.204c-13.279,0-24.044-10.764-24.044-24.044v-91.047  c0-13.279,10.764-24.043,24.044-24.043c13.279,0,24.044,10.764,24.044,24.043v91.047C228.35,490.44,217.586,501.204,204.307,501.204  z"/>
<path style="opacity:0.2;enable-background:new    ;" d="M204.307,362.07c-13.279,0-24.044,10.764-24.044,24.043v35.308  c14.954,7.245,31.109,12.407,48.087,15.118v-50.425C228.35,372.835,217.586,362.07,204.307,362.07z"/>
<circle style="fill:#0081C6;" cx="389.188" cy="92.546" r="55.217"/>
<circle style="fill:#F3C74F;" cx="389.188" cy="92.546" r="25.782"/>
<circle style="fill:#0081C6;" cx="122.806" cy="92.546" r="55.217"/>
<circle style="fill:#F3C74F;" cx="122.806" cy="92.546" r="25.782"/>
<path style="opacity:0.2;enable-background:new    ;" d="M155.455,48.017c-25.963,23.465-47.985,55.768-63.627,90.246  c8.835,5.999,19.498,9.507,30.983,9.507c30.498,0,55.222-24.724,55.222-55.222C178.032,74.267,169.143,58.067,155.455,48.017z"/>
<path style="fill:#40BAB3;" d="M429.509,243.979c0-95.543-79.652-233.183-173.509-233.183S82.492,148.436,82.492,243.979  S160.174,416.974,256,416.974S429.509,339.521,429.509,243.979z"/>
<g>
	<circle style="fill:#F0B0B7;" cx="256.002" cy="209.579" r="21.097"/>
	<path style="fill:#F0B0B7;" d="M169.272,252.938h-28.966c-4.437,0-8.034-3.596-8.034-8.034c0-4.438,3.597-8.034,8.034-8.034h28.966   c4.437,0,8.034,3.596,8.034,8.034S173.709,252.938,169.272,252.938z"/>
	<path style="fill:#F0B0B7;" d="M371.693,252.938h-28.966c-4.437,0-8.034-3.596-8.034-8.034c0-4.438,3.597-8.034,8.034-8.034h28.966   c4.437,0,8.034,3.596,8.034,8.034S376.131,252.938,371.693,252.938z"/>
</g>
<path style="fill:#FFFFFF;" d="M85.414,275.707C100.36,356.095,171.045,416.974,256,416.974s155.64-60.879,170.587-141.267H85.414z"/>
<path style="fill:#0081C6;" d="M116.129,346.34c31.579,42.832,82.465,70.634,139.871,70.634S364.29,389.172,395.87,346.34H116.129z"/>
<path style="opacity:0.2;enable-background:new    ;" d="M274.399,398.575c-95.826,0-173.509-77.453-173.509-172.996  c0-57.52,28.877-130.285,72.334-179.101c-53.521,47.246-90.733,132.199-90.733,197.5c0,95.543,77.682,172.996,173.509,172.996  c52.686,0,99.882-23.418,131.703-60.378C357.303,382.755,317.705,398.575,274.399,398.575z"/>
<path d="M453.733,131.811c-3.956-2.072-8.15-3.229-12.344-3.556c7.032-10.286,11.055-22.65,11.055-35.705  c0-34.878-28.376-63.255-63.255-63.255c-15.027,0-29.524,5.407-40.882,15.02c-6.86-6.406-13.889-12.152-21.008-17.111  C304.018,10.984,280.03,2.762,256,2.762c-24.03,0-48.018,8.223-71.298,24.44c-7.119,4.959-14.149,10.705-21.008,17.111  c-11.358-9.612-25.855-15.02-40.882-15.02c-34.88,0-63.255,28.376-63.255,63.255c0,13.056,4.023,25.42,11.056,35.706  c-4.194,0.327-8.389,1.485-12.345,3.555C4.204,160.118-7.663,213.992,4.189,252.069c6.147,19.745,18.786,36.691,35.587,47.712  c14.097,9.248,30.993,14.261,48.962,14.573c16.494,38.836,46.217,70.776,83.492,90.192v72.615c0,17.688,14.39,32.077,32.077,32.077  c17.687,0,32.076-14.39,32.076-32.077v-53.212c6.446,0.694,12.989,1.06,19.617,1.06s13.171-0.366,19.617-1.06v53.212  c0,17.688,14.39,32.077,32.077,32.077c17.687,0,32.076-14.39,32.076-32.077v-72.615c37.277-19.417,66.998-51.356,83.492-90.192  c17.968-0.312,34.865-5.325,48.962-14.573c16.801-11.021,29.439-27.965,35.587-47.712  C519.664,213.992,507.796,160.118,453.733,131.811z M80.572,174.411c-29.814,15.612-36.786,43.074-30.47,63.365  c4.091,13.14,13.032,22.27,25.474,26.242c1.296,11.681,3.701,23.034,7.126,33.942c-12.577-1.127-24.056-5.017-34.114-11.617  c-13.696-8.984-24.015-22.853-29.058-39.053C5.36,201.765,33.54,162.894,65.72,146.044c7.82-4.093,17.516-1.064,21.61,6.756  C91.425,160.623,88.393,170.316,80.572,174.411z M74.483,245.9c-4.247-2.85-7.24-7.12-9.038-12.9  c-5.032-16.166,3.264-30.616,15.227-39.684c-4.042,17.532-6.214,34.692-6.214,50.662C74.458,244.621,74.475,245.259,74.483,245.9z   M75.623,92.549c0-26.019,21.168-47.188,47.188-47.188c10.772,0,21.188,3.715,29.506,10.369c-3,3.227-5.956,6.577-8.855,10.051  c-5.846-4.507-13.085-7.046-20.651-7.046c-18.645,0-33.815,15.169-33.815,33.815c0,12.658,7.025,23.934,17.668,29.721  c-2.016,3.986-3.956,8.008-5.803,12.063C85.525,126.276,75.623,110.262,75.623,92.549z M133.537,78.418  c-2.077,2.812-4.121,5.68-6.122,8.612c-4.64,6.796-9.021,13.849-13.14,21.075c-5.547-3.046-9.213-8.933-9.213-15.554  c0-9.787,7.962-17.748,17.748-17.748C126.732,74.802,130.486,76.104,133.537,78.418z M220.316,477.16  c0,8.828-7.182,16.01-16.009,16.01c-8.828,0-16.01-7.182-16.01-16.01v-65.22c10.247,4.122,20.952,7.338,32.02,9.547V477.16z   M323.703,477.16c0,8.828-7.182,16.01-16.009,16.01c-8.828,0-16.01-7.182-16.01-16.01v-55.673  c11.067-2.209,21.773-5.425,32.02-9.547V477.16z M256,408.941c-91.243,0-165.475-74.002-165.475-164.962  c0-45.903,19.219-102.571,50.159-147.89C174.204,46.99,216.235,18.829,256,18.829s81.796,28.16,115.316,77.259  c30.94,45.32,50.159,101.988,50.159,147.89C421.475,334.939,347.243,408.941,256,408.941z M378.464,78.418  c3.051-2.314,6.804-3.616,10.725-3.616c9.786,0,17.748,7.962,17.748,17.748c0,6.621-3.665,12.508-9.213,15.554  c-4.119-7.226-8.5-14.277-13.139-21.075C382.584,84.098,380.541,81.23,378.464,78.418z M411.139,134.334  c-1.847-4.054-3.788-8.076-5.803-12.063c10.644-5.787,17.668-17.063,17.668-29.721c0-18.645-15.169-33.815-33.815-33.815  c-7.565,0-14.803,2.539-20.651,7.046c-2.9-3.474-5.855-6.823-8.855-10.051c8.316-6.654,18.733-10.369,29.506-10.369  c26.02,0,47.188,21.169,47.188,47.188C436.377,110.262,426.474,126.276,411.139,134.334z M492.47,247.293  c-5.043,16.2-15.362,30.069-29.058,39.054c-10.058,6.598-21.536,10.486-34.114,11.614c3.424-10.909,5.829-22.262,7.125-33.942  c12.442-3.972,21.383-13.102,25.474-26.242c6.317-20.292-0.656-47.754-30.47-63.365c-3.789-1.984-6.578-5.324-7.854-9.405  c-1.276-4.082-0.887-8.416,1.097-12.206c4.094-7.818,13.788-10.85,21.609-6.756C492.187,170.082,502.404,215.379,492.47,247.293z   M431.329,193.317c11.964,9.067,20.26,23.518,15.227,39.684c-1.8,5.779-4.791,10.049-9.038,12.9  c0.006-0.641,0.025-1.279,0.025-1.922C437.543,228.01,435.371,210.849,431.329,193.317z M164.44,140.21  c1.998,1.936,3.099,4.394,3.099,6.925c0,4.438,3.597,8.034,8.034,8.034c4.437,0,8.034-3.596,8.034-8.034  c0-6.92-2.836-13.477-7.988-18.465c-3.538-3.427-7.966-5.877-12.796-7.176v-3.315c0-4.438-3.597-8.034-8.034-8.034  s-8.034,3.596-8.034,8.034v3.302c-12.085,3.252-20.782,13.681-20.782,26.102c0,12.141,8.792,22.409,20.782,25.641v20.371  c-0.573-0.393-1.123-0.816-1.617-1.295c-1.998-1.936-3.099-4.395-3.099-6.925c0-4.437-3.597-8.034-8.034-8.034  s-8.034,3.597-8.034,8.034c0,6.92,2.836,13.477,7.987,18.466c3.537,3.424,7.968,5.871,12.795,7.169v8.557  c0,4.438,3.597,8.034,8.034,8.034c4.437,0,8.034-3.596,8.034-8.034v-8.539c12.086-3.251,20.782-13.68,20.782-26.102  c0-12.142-8.792-22.41-20.782-25.642v-20.37C163.396,139.307,163.944,139.73,164.44,140.21z M146.756,155.832  c-2.874-1.953-4.715-4.924-4.715-8.251c0-3.415,1.851-6.511,4.715-8.561V155.832z M167.538,184.927c0,3.415-1.851,6.51-4.715,8.559  v-16.812C165.697,178.628,167.538,181.601,167.538,184.927z M365.244,118.179c0-4.438-3.597-8.034-8.034-8.034  c-4.437,0-8.034,3.596-8.034,8.034v3.302c-12.085,3.252-20.782,13.681-20.782,26.102c0,12.141,8.792,22.409,20.782,25.641v20.37  c-0.573-0.392-1.123-0.815-1.617-1.295c-1.998-1.936-3.099-4.395-3.099-6.925c0-4.437-3.597-8.034-8.034-8.034  s-8.034,3.597-8.034,8.034c0,6.92,2.836,13.477,7.988,18.466c3.537,3.424,7.968,5.871,12.795,7.169v8.557  c0,4.438,3.597,8.034,8.034,8.034c4.437,0,8.034-3.596,8.034-8.034v-8.539c12.085-3.251,20.782-13.68,20.782-26.102  c0-12.142-8.792-22.41-20.782-25.642v-20.37c0.573,0.392,1.123,0.816,1.617,1.295c1.998,1.936,3.099,4.394,3.099,6.925  c0,4.438,3.597,8.034,8.034,8.034c4.437,0,8.034-3.596,8.034-8.034c0-6.92-2.836-13.477-7.988-18.465  c-3.537-3.426-7.967-5.877-12.796-7.175v-3.315H365.244z M349.177,155.832c-2.874-1.953-4.715-4.924-4.715-8.251  c0-3.415,1.851-6.511,4.715-8.561V155.832z M369.96,184.927c0,3.415-1.851,6.51-4.715,8.559v-16.812  C368.119,178.628,369.96,181.601,369.96,184.927z M256,180.449c-16.063,0-29.131,13.068-29.131,29.13s13.068,29.13,29.131,29.13  c16.063,0,29.131-13.068,29.131-29.13S272.062,180.449,256,180.449z M256,222.643c-7.203,0-13.064-5.86-13.064-13.063  c0-7.203,5.86-13.063,13.064-13.063c7.203,0,13.064,5.86,13.064,13.063C269.063,216.783,263.203,222.643,256,222.643z"/>
<g>
</g>
<g>
</g>
<g>
</g>
<g>
</g>
<g>
</g>
<g>
</g>
<g>
</g>
<g>
</g>
<g>
</g>
<g>
</g>
<g>
</g>
<g>
</g>
<g>
</g>
<g>
</g>
<g>
</g>
</svg>
