<?xml version="1.0" encoding="iso-8859-1"?>
<!-- Generator: Adobe Illustrator 19.0.0, SVG Export Plug-In . SVG Version: 6.00 Build 0)  -->
<svg xmlns="http://www.w3.org/2000/svg" xmlns:xlink="http://www.w3.org/1999/xlink" version="1.1" id="Layer_1" x="0px" y="0px" viewBox="0 0 512 512" style="enable-background:new 0 0 512 512;" xml:space="preserve">
<rect x="154.867" y="207.395" style="fill:#49618C;" width="79.963" height="269.9"/>
<rect x="154.867" y="207.395" style="fill:#3B4773;" width="26.296" height="269.9"/>
<rect x="166.05" y="176.98" style="fill:#49618C;" width="57.61" height="30.416"/>
<rect x="166.05" y="176.98" style="fill:#3B4773;" width="23.163" height="30.416"/>
<polyline style="fill:#CCCCCC;" points="205.494,50.763 205.494,176.979 184.214,176.979 184.214,50.763 "/>
<rect x="106.303" y="477.296" style="fill:#49618C;" width="177.101" height="27.102"/>
<rect x="106.303" y="477.296" style="fill:#3B4773;" width="34.245" height="27.102"/>
<rect x="92.647" y="7.604" style="fill:#EDD154;" width="204.425" height="43.158"/>
<rect x="92.647" y="29.183" style="fill:#D6B31D;" width="204.425" height="21.579"/>
<rect x="303.773" y="79.862" style="fill:#49618C;" width="26.36" height="41.568"/>
<path d="M366.638,196.962c-24.877,0-45.117-20.239-45.117-45.117v-22.812h8.618c4.2,0,7.604-3.405,7.604-7.604v-20.784h2.535  c4.2,0,7.604-3.405,7.604-7.604s-3.404-7.604-7.604-7.604h-2.535v-5.576c0-4.199-3.404-7.604-7.604-7.604h-26.36  c-4.2,0-7.604,3.405-7.604,7.604v41.568c0,4.199,3.404,7.604,7.604,7.604h2.535v22.812c0,33.264,27.061,60.325,60.325,60.325  c24.877,0,45.117,20.239,45.117,45.117v130.788c0,24.878-20.24,45.117-45.117,45.117H242.44V256.273  c0-4.199-3.404-7.604-7.604-7.604c-4.2,0-7.604,3.405-7.604,7.604v213.418h-64.755V215.001h64.755v15.926  c0,4.199,3.404,7.604,7.604,7.604c4.2,0,7.604-3.405,7.604-7.604v-23.53c0-4.199-3.404-7.604-7.604-7.604h-3.572V176.98  c0-4.199-3.404-7.604-7.604-7.604h-10.56V58.366h83.966c4.2,0,7.604-3.405,7.604-7.604V7.604c0-4.199-3.404-7.604-7.604-7.604  H92.642c-4.2,0-7.604,3.405-7.604,7.604v43.158c0,4.199,3.404,7.604,7.604,7.604h83.967v111.009h-10.56  c-4.2,0-7.604,3.405-7.604,7.604v22.814h-3.573c-4.2,0-7.604,3.405-7.604,7.604v262.294h-40.966c-4.2,0-7.604,3.405-7.604,7.604  v27.102c0,4.199,3.404,7.604,7.604,7.604h44.384c4.2,0,7.604-3.405,7.604-7.604s-3.404-7.604-7.604-7.604h-36.78v-11.894h161.896  v11.894h-99.769c-4.2,0-7.604,3.405-7.604,7.604s3.404,7.604,7.604,7.604h107.373c4.2,0,7.604-3.405,7.604-7.604v-27.102  c0-4.199-3.404-7.604-7.604-7.604H242.44v-21.291h124.198c33.264,0,60.325-27.061,60.325-60.325V257.287  C426.962,224.023,399.9,196.962,366.638,196.962z M311.382,87.465h11.152v26.36h-11.152V87.465z M100.246,15.208H289.46v27.95  H100.246V15.208z M191.818,58.366h6.073v111.009h-6.073V58.366z M173.653,184.583h42.402v15.21h-42.402L173.653,184.583  L173.653,184.583z"/>
<g>
</g>
<g>
</g>
<g>
</g>
<g>
</g>
<g>
</g>
<g>
</g>
<g>
</g>
<g>
</g>
<g>
</g>
<g>
</g>
<g>
</g>
<g>
</g>
<g>
</g>
<g>
</g>
<g>
</g>
</svg>
