<?xml version="1.0" encoding="iso-8859-1"?>
<!-- Generator: Adobe Illustrator 19.0.0, SVG Export Plug-In . SVG Version: 6.00 Build 0)  -->
<svg xmlns="http://www.w3.org/2000/svg" xmlns:xlink="http://www.w3.org/1999/xlink" version="1.1" id="Capa_1" x="0px" y="0px" viewBox="0 0 512 512" style="enable-background:new 0 0 512 512;" xml:space="preserve">
<g>
	<path style="fill:#F3C74F;" d="M317.485,387.581c-25.762,0-52.31-8.807-76.153-25.748c-10.95-7.781-13.52-22.964-5.74-33.915   c7.782-10.952,22.968-13.519,33.915-5.74c21.826,15.508,45.161,20.521,65.714,14.119c18.873-5.882,33.666-21.219,41.653-43.185   c4.59-12.623,18.545-19.138,31.17-14.546c12.624,4.591,19.136,18.546,14.546,31.17c-13.299,36.571-39.186,62.497-72.894,73.002   C339.282,385.983,328.454,387.581,317.485,387.581z"/>
	<path style="fill:#F3C74F;" d="M265.648,504.048c-13.433,0-24.322-10.889-24.322-24.322v-92.103   c0-13.433,10.889-24.322,24.322-24.322c13.433,0,24.322,10.889,24.322,24.322v92.103   C289.971,493.159,279.082,504.048,265.648,504.048z"/>
</g>
<path style="opacity:0.2;enable-background:new    ;" d="M265.648,363.3c-13.433,0-24.322,10.889-24.322,24.322v51.011  c17.174-2.743,33.517-7.963,48.644-15.293v-35.718C289.971,374.19,279.082,363.3,265.648,363.3z"/>
<circle style="fill:#0081C6;" cx="343.23" cy="90.658" r="55.862"/>
<circle style="fill:#F3C74F;" cx="343.23" cy="90.658" r="26.081"/>
<path style="fill:#40BAB3;" d="M388.877,243.839c0-96.651-80.576-235.887-175.522-235.887S37.834,147.188,37.834,243.839  s78.584,175.002,175.522,175.002C310.293,418.842,388.877,340.49,388.877,243.839z"/>
<path style="fill:#FFFFFF;" d="M40.79,275.935c15.121,81.321,86.625,142.907,172.565,142.907  c85.941,0,157.445-61.586,172.566-142.907L40.79,275.935L40.79,275.935z"/>
<path style="fill:#0081C6;" d="M71.862,347.389c31.946,43.328,83.421,71.453,141.493,71.453s109.547-28.125,141.493-71.453H71.862z"/>
<path style="opacity:0.2;enable-background:new    ;" d="M231.967,400.229c-96.937,0-175.522-78.351-175.522-175.002  c0-58.187,29.212-131.797,73.173-181.179C75.477,91.842,37.833,177.781,37.833,243.84c0,96.651,78.584,175.002,175.522,175.002  c53.297,0,101.04-23.69,133.231-61.078C315.833,384.225,275.776,400.229,231.967,400.229z"/>
<path style="fill:#F0B0B7;" d="M331.525,187.261c-16.106,0-29.163-13.056-29.163-29.163c0,16.106-13.056,29.163-29.163,29.163  c-11.627,0-21.636-6.821-26.318-16.665v92.216c0,30.642,24.839,55.481,55.481,55.481c30.641,0,55.481-24.839,55.481-55.481v-92.216  C353.161,180.44,343.153,187.261,331.525,187.261z"/>
<path style="fill:#E6595A;" d="M246.886,263.003c0.103,30.553,24.899,55.291,55.476,55.291c9.611,0,18.65-2.446,26.532-6.746  C312.876,282.708,282.177,263.156,246.886,263.003z"/>
<path style="fill:#F0B0B7;" d="M212.197,222.388h-29.302c-4.392,0-7.952-3.56-7.952-7.952c0-4.391,3.559-7.952,7.952-7.952h29.302  c4.392,0,7.952,3.56,7.952,7.952C220.148,218.828,216.589,222.388,212.197,222.388z"/>
<path style="fill:#A27B5A;" d="M473.632,244.456c3.819,0,6.643-3.523,5.859-7.261c-4.998-23.82-34.213-42.101-69.505-42.101  s-64.507,18.281-69.505,42.101c-0.785,3.737,2.04,7.261,5.859,7.261L473.632,244.456L473.632,244.456z"/>
<path style="opacity:0.2;enable-background:new    ;" d="M479.49,237.195c-0.091-0.437-0.209-0.869-0.317-1.303H356.352  c-3.819,0-6.643-3.523-5.859-7.261c1.498-7.139,5.184-13.774,10.545-19.576c-10.807,7.376-18.256,17.167-20.558,28.139  c-0.785,3.737,2.04,7.261,5.859,7.261h127.292C477.451,244.456,480.275,240.932,479.49,237.195z"/>
<g>
	<path style="fill:#F3C74F;" d="M386.075,231.812c-2.363,0-4.701-1.049-6.269-3.053c-2.706-3.459-2.094-8.457,1.366-11.162   l7.506-5.87c3.457-2.705,8.456-2.095,11.162,1.366c2.706,3.459,2.094,8.457-1.366,11.162l-7.506,5.87   C389.514,231.261,387.788,231.812,386.075,231.812z"/>
	<path style="fill:#F3C74F;" d="M438.337,230.687c-0.86,0-1.737-0.141-2.596-0.438l-12.104-4.181   c-4.151-1.434-6.353-5.962-4.919-10.112c1.436-4.151,5.96-6.352,10.112-4.919l12.104,4.181c4.151,1.433,6.353,5.96,4.919,10.112   C444.715,228.621,441.633,230.687,438.337,230.687z"/>
</g>
<rect x="349.146" y="244.451" style="fill:#3DAD4B;" width="121.679" height="26.175"/>
<rect x="349.146" y="270.627" style="fill:#593C00;" width="121.679" height="26.175"/>
<path style="fill:#3DAD4B;" d="M471.545,244.456H348.426c-7.228,0-13.087,5.86-13.087,13.087l0,0c0,7.228,5.86,13.087,13.087,13.087  h123.12c7.228,0,13.088-5.86,13.088-13.087l0,0C484.633,250.316,478.774,244.456,471.545,244.456z"/>
<path style="opacity:0.2;enable-background:new    ;" d="M471.545,244.456H348.426c-5.736,0-10.598,3.696-12.366,8.831h147.851  C482.143,248.151,477.281,244.456,471.545,244.456z"/>
<path style="fill:#A27B5A;" d="M475.032,296.807H344.939c-2.98,0-5.397,2.416-5.397,5.397v15.381c0,2.98,2.416,5.397,5.397,5.397  h130.093c2.98,0,5.397-2.416,5.397-5.397v-15.381C480.429,299.223,478.012,296.807,475.032,296.807z"/>
<path style="opacity:0.2;enable-background:new    ;" d="M351.475,316.445c-2.98,0-5.397-2.416-5.397-5.397v-14.242h-1.14  c-2.98,0-5.397,2.416-5.397,5.397v15.381c0,2.98,2.416,5.397,5.397,5.397h130.093c2.981,0,5.397-2.416,5.397-5.397v-1.14  L351.475,316.445L351.475,316.445z"/>
<rect x="349.146" y="270.627" style="opacity:0.2;enable-background:new    ;" width="121.679" height="13.088"/>
<g>
	<path style="fill:#F3C74F;" d="M259.885,371.715c-11.92,0-24.273-1.205-36.999-3.618c-50.615-9.597-90.789-45.346-97.699-86.935   c-2.202-13.251,6.757-25.779,20.008-27.98c13.246-2.206,25.777,6.756,27.979,20.007c2.992,18.004,24.606,40.636,58.773,47.115   c45.795,8.683,81.397-3.011,105.811-34.754c8.19-10.649,23.459-12.64,34.108-4.452c10.647,8.19,12.64,23.46,4.451,34.108   c-19.831,25.784-45.047,42.993-74.95,51.149C288.269,369.927,274.4,371.715,259.885,371.715z"/>
	<path style="fill:#F3C74F;" d="M161.062,504.048c-13.433,0-24.322-10.889-24.322-24.322v-82.374   c0-13.433,10.889-24.322,24.322-24.322s24.322,10.889,24.322,24.322v82.374C185.384,493.159,174.495,504.048,161.062,504.048z"/>
</g>
<path style="fill:#0081C6;" d="M139.066,88.898c0.034,1.137-0.106,2.282-0.393,3.382c-3.783,14.491-10.109,24.41-19.849,34.149  c-9.697,9.697-19.158,15.73-33.711,19.567c-1.243,0.328-2.535,0.488-3.819,0.444c-30.672-1.045-55.068-26.816-53.884-58.006  c1.099-28.953,24.691-52.545,53.644-53.644C112.318,33.604,138.138,58.121,139.066,88.898z"/>
<circle style="fill:#F3C74F;" cx="83.226" cy="90.615" r="26.081"/>
<path style="opacity:0.2;enable-background:new    ;" d="M98.396,132.713c-1.243,0.328-2.535,0.488-3.819,0.444  c-30.672-1.044-55.068-26.816-53.884-58.006c0.423-11.143,4.188-21.485,10.298-30.063C37.28,54.855,28.085,70.625,27.409,88.436  c-1.184,31.189,23.212,56.96,53.884,58.006c1.285,0.043,2.576-0.117,3.819-0.444c14.553-3.837,24.015-9.87,33.711-19.567  c2.285-2.285,4.374-4.581,6.294-6.942C117.594,125.597,109.469,129.794,98.396,132.713z"/>
<path d="M197.546,184.214c4.392,0,7.952-3.56,7.952-7.952v-4.805c0-4.391-3.559-7.952-7.952-7.952s-7.952,3.56-7.952,7.952v4.805  C189.594,180.654,193.153,184.214,197.546,184.214z M478.777,289.399v-12.124c8.044-2.958,13.807-10.674,13.807-19.731  c0-5.605-2.218-10.693-5.804-14.467c0.837-2.38,1.025-4.967,0.491-7.514c-5.887-28.055-38.392-48.418-77.287-48.418  c-6.996,0-13.779,0.669-20.245,1.913c-3.53-14.504-8.284-29.108-14.103-43.428c19.297-11.376,31.401-32.185,31.401-54.974  c0-35.187-28.627-63.814-63.814-63.814c-14.2,0-27.727,4.646-38.824,13.181C277.317,15.502,246.116,0,213.355,0  c-30.915,0-62.318,13.82-91.199,40.047c-11.798-9.115-26.288-13.77-41.404-13.202c-33.11,1.257-60.032,28.178-61.289,61.288  c-0.65,17.116,5.402,33.43,17.038,45.939c4.325,4.648,9.226,8.561,14.549,11.679c-13.681,33.684-21.169,68.256-21.169,98.088  c0,34.996,9.943,69.013,28.752,98.372c17.401,27.159,41.591,49.195,70.155,64.011v73.505c0,17.797,14.478,32.274,32.274,32.274  s32.274-14.478,32.274-32.274v-54.02c6.634,0.717,13.334,1.088,20.02,1.088c6.716,0,13.397-0.375,20.02-1.095v54.028  c0,17.797,14.478,32.274,32.274,32.274c17.796,0,32.273-14.478,32.273-32.274v-73.511c4.275-2.217,8.479-4.586,12.585-7.147  c1.851-1.155,3.678-2.344,5.482-3.561c0.499,0.006,1.001,0.026,1.497,0.026c11.866,0,23.499-1.75,34.575-5.203  c29.755-9.273,54.375-30.276,69.813-59.396h53.156c7.36,0,13.349-5.988,13.349-13.348v-15.381  C488.38,296.144,484.319,291.023,478.777,289.399z M409.986,203.046c29.723,0,55.402,14.227,61.133,33.459H348.852  C354.584,217.271,380.262,203.046,409.986,203.046z M333.19,243.076c-3.587,3.774-5.804,8.862-5.804,14.468  c0,7.358,3.803,13.836,9.541,17.597c-2,1.593-3.843,3.446-5.471,5.561c-10.482,13.629-23.268,23.223-38.26,28.756  c-22.013-4.311-38.363-24.001-38.363-46.646v-72.483c5.421,3.101,11.688,4.884,18.367,4.884c11.816,0,22.361-5.551,29.162-14.181  c6.802,8.631,17.346,14.181,29.163,14.181c6.679,0,12.947-1.782,18.367-4.884v17.235c-8.843,7.752-14.952,17.314-17.193,27.997  C332.165,238.108,332.353,240.695,333.19,243.076z M344.063,290.397c5.502-7.155,15.801-8.498,22.957-2.997  c7.154,5.504,8.499,15.802,2.995,22.958c-18.749,24.377-42.548,40.635-70.739,48.325c-12.361,3.371-25.613,5.08-39.391,5.08  c-11.391,0-23.341-1.17-35.518-3.479c-47.404-8.988-84.962-42.061-91.336-80.427c-0.717-4.313,0.288-8.648,2.833-12.205  s6.321-5.911,10.638-6.628c0.909-0.152,1.816-0.226,2.718-0.226c3.381,0,6.673,1.05,9.48,3.057  c3.557,2.544,5.912,6.322,6.628,10.636c3.519,21.178,27.023,46.398,65.137,53.624C279.454,337.406,317.669,324.713,344.063,290.397z   M365.795,197.027v-24.691c0.533-1.278,0.99-2.593,1.379-3.938c2.804,8.264,5.228,16.593,7.235,24.914  C371.422,194.418,368.547,195.658,365.795,197.027z M343.225,42.743c26.418,0,47.91,21.492,47.91,47.911  c0,16.441-8.393,31.508-21.902,40.241c-1.972-4.247-4.038-8.454-6.191-12.613c8.736-6.301,14.213-16.547,14.213-27.628  c0-18.766-15.266-34.032-34.032-34.032c-6.34,0-12.535,1.801-17.865,5.084c-3.067-3.593-6.207-7.073-9.418-10.429  C323.903,45.739,333.346,42.743,343.225,42.743z M361.353,90.654c0,5.242-2.296,10.136-6.065,13.519  c-6.079-10.436-12.712-20.461-19.832-29.891c2.393-1.138,5.023-1.757,7.769-1.757C353.221,72.524,361.353,80.657,361.353,90.654z   M48.145,123.239c-8.736-9.389-13.278-21.643-12.79-34.501c0.945-24.851,21.15-45.058,46.002-46  c0.627-0.023,1.253-0.036,1.877-0.036c12.206,0,23.752,4.538,32.693,12.89c9.41,8.79,14.806,20.703,15.193,33.545  c0.012,0.353-0.037,0.746-0.139,1.134c-3.202,12.263-8.352,21.111-17.779,30.536c-9.345,9.344-17.788,14.25-30.117,17.501  c-0.522,0.138-1.045,0.206-1.52,0.187C68.761,138.058,56.893,132.641,48.145,123.239z M177.433,479.725  c0,9.028-7.344,16.371-16.371,16.371c-9.028,0-16.371-7.344-16.371-16.371v-82.373c0-9.028,7.344-16.371,16.371-16.371  s16.371,7.344,16.371,16.371V479.725z M282.018,479.725c0,9.028-7.344,16.371-16.37,16.371c-9.028,0-16.371-7.344-16.371-16.371  v-56.479c11.2-2.221,22.162-5.454,32.741-9.708v66.187H282.018z M213.355,410.891c-6.692,0-13.398-0.4-20.02-1.184v-12.354  c0-17.797-14.477-32.274-32.274-32.274c-14.824,0-27.336,10.049-31.106,23.69c-23.42-13.414-43.3-32.298-57.932-55.136  c-17.166-26.793-26.24-57.844-26.24-89.793c0-27.755,7.039-60.118,19.899-91.846c4.937,1.402,10.078,2.216,15.34,2.396  c0.229,0.007,0.458,0.012,0.687,0.012c1.806,0,3.628-0.241,5.428-0.715c15.117-3.985,25.925-10.253,37.306-21.633  c11.442-11.441,17.998-22.734,21.923-37.767c0.486-1.863,0.703-3.756,0.647-5.626c0,0,0-0.001-0.001-0.001  c-0.416-13.784-5.165-26.756-13.543-37.401c25.723-23.158,53.212-35.356,79.885-35.356c34.609,0,70.919,20.894,102.246,58.834  c18.039,21.848,33.411,47.95,44.734,75.429c-4.227,0.186-7.6,3.661-7.6,7.933c0,11.696-9.515,21.211-21.211,21.211  c-11.696,0-21.211-9.515-21.211-21.211c0-4.391-3.559-7.952-7.952-7.952s-7.952,3.56-7.952,7.952  c0,11.696-9.515,21.211-21.21,21.211c-11.696,0-21.211-9.515-21.211-21.211c0-4.391-3.559-7.952-7.952-7.952  c-4.392,0-7.952,3.56-7.952,7.952c0,5.042,1.015,9.85,2.845,14.237v90.475c0,15.286,5.515,30.054,15.528,41.582  c3.482,4.009,7.434,7.523,11.73,10.51c-10.19,0.592-21.112-0.204-32.759-2.412c-32.522-6.166-50.226-27.457-52.411-40.606  c-1.412-8.504-6.053-15.95-13.066-20.964c-7.014-5.016-15.561-6.998-24.058-5.583c-8.505,1.412-15.95,6.052-20.964,13.065  c-5.014,7.012-6.998,15.558-5.585,24.061c7.445,44.814,50.238,83.24,104.062,93.445c13.151,2.494,26.097,3.757,38.48,3.757  c15.19,0,29.851-1.898,43.576-5.641c9.232-2.519,18.027-5.875,26.392-10.006C299.144,393.687,257.757,410.891,213.355,410.891z   M347.33,375.147c-2.822,0.88-5.692,1.622-8.596,2.244c14.377-13.423,26.546-29.096,35.987-46.458h28.836  C390.046,352.648,370.819,367.826,347.33,375.147z M472.477,315.03h-86.69c1.67-3.274,2.733-6.747,3.21-10.272h83.479V315.03z   M380.833,278.583h82.041v10.272h-75.701C385.755,285.125,383.629,281.631,380.833,278.583z M471.545,262.68h-123.12  c-2.832,0-5.136-2.304-5.136-5.137c0-2.832,2.304-5.136,5.136-5.136h123.12c2.832,0,5.137,2.304,5.137,5.136  C476.682,260.375,474.377,262.68,471.545,262.68z M117.262,90.612c0-18.766-15.266-34.032-34.032-34.032  S49.197,71.847,49.197,90.612s15.266,34.032,34.032,34.032S117.262,109.377,117.262,90.612z M65.101,90.612  c0-9.997,8.133-18.129,18.129-18.129s18.129,8.133,18.129,18.129s-8.133,18.129-18.129,18.129  C73.234,108.741,65.101,100.609,65.101,90.612z"/>
<g>
</g>
<g>
</g>
<g>
</g>
<g>
</g>
<g>
</g>
<g>
</g>
<g>
</g>
<g>
</g>
<g>
</g>
<g>
</g>
<g>
</g>
<g>
</g>
<g>
</g>
<g>
</g>
<g>
</g>
</svg>
