<?xml version="1.0" encoding="iso-8859-1"?>
<!-- Generator: Adobe Illustrator 19.0.0, SVG Export Plug-In . SVG Version: 6.00 Build 0)  -->
<svg xmlns="http://www.w3.org/2000/svg" xmlns:xlink="http://www.w3.org/1999/xlink" version="1.1" id="Capa_1" x="0px" y="0px" viewBox="0 0 512 512" style="enable-background:new 0 0 512 512;" xml:space="preserve">
<g>
	<path style="fill:#F29C1F;" d="M84.395,241.876c-10.39,30.287-17.558,61.599-21.363,93.396   c-26.739-1.73-47.007-24.814-45.277-51.553c1.66-25.538,22.863-45.391,48.455-45.374C72.451,238.318,78.621,239.519,84.395,241.876   z"/>
	<path style="fill:#F29C1F;" d="M494.348,286.897c0.035,25.847-20.259,47.157-46.08,48.375   c-3.769-31.717-10.929-62.941-21.363-93.131c5.985-2.481,12.403-3.769,18.891-3.796c26.801-0.018,48.534,21.698,48.552,48.499   C494.348,286.861,494.348,286.879,494.348,286.897z"/>
</g>
<path style="fill:#F0C419;" d="M449.68,309.583c-0.177-5.914-0.706-12.094-1.412-18.45c-1.58-14.345-3.999-28.575-7.239-42.637  c-2.03-9.446-4.502-19.156-7.415-28.954c-2.03-7.15-4.237-14.301-6.709-21.539c-0.106-0.512-0.256-1.015-0.441-1.501  c-3.266-9.71-6.886-19.332-10.77-28.954c-5.12-12.623-10.708-25.044-16.772-37.252c-8.819-17.991-18.935-35.31-30.279-51.818  c-0.883-1.236-1.677-2.383-2.56-3.619c-0.088-0.265-0.265-0.53-0.353-0.794c0-0.088,0-0.088-0.088-0.177  c-6.4-8.969-13.321-17.549-20.745-25.688C318.149,18.891,287.871,0,255.826,0c-26.244,1.174-51.191,11.767-70.268,29.837  c-1.501,1.324-3.09,2.648-4.59,4.061c-26.041-28.337-67.531-16.861-67.531-16.861c22.952,5.826,27.189,32.839,27.719,46.08  c-45.727-9.092-69.208,34.957-70.444,37.517c15.651-11.388,37.57-7.927,48.958,7.724c0.856,1.174,1.633,2.392,2.33,3.663  c-3.443,6.091-6.709,12.27-9.799,18.538c-3.884,7.768-7.592,15.713-11.034,23.658c-1.942,4.414-3.796,8.828-5.561,13.33  c-3.884,9.622-7.503,19.332-10.77,28.954c-0.177,0.441-0.265,0.794-0.441,1.236c-2.472,7.415-4.767,14.83-6.797,22.157  c-2.825,9.622-5.297,19.244-7.327,28.513c-3.231,14.089-5.65,28.354-7.239,42.726c-0.706,6.091-1.148,12.094-1.412,17.832  c-0.088,3.001-0.177,6.003-0.177,8.828C61.549,425.004,148.439,511.894,255.65,512h1.501  c106.628-0.927,192.6-87.578,192.706-194.207C449.857,315.145,449.768,312.408,449.68,309.583z"/>
<path style="fill:#804537;" d="M433.614,219.542l-3.972,1.148c-6.647-0.026-13.241-1.156-19.509-3.354  c-18.467-6.7-32.23-22.396-36.458-41.578c-37.782,13.215-77.656,19.465-117.672,18.45c-39.027,0.9-77.903-4.952-114.935-17.302  c-6.206,25.724-29.246,43.829-55.702,43.785c-1.942,0-3.972-0.088-5.914-0.265l-1.854-0.53c2.03-7.327,4.326-14.742,6.797-22.157  c0.177-0.441,0.265-0.794,0.441-1.236c3.266-9.622,6.886-19.332,10.77-28.954c1.766-4.502,3.619-8.916,5.561-13.33  c3.443-7.945,7.15-15.89,11.034-23.658c3.09-6.268,6.356-12.447,9.799-18.538c-9.366-16.94-30.685-23.084-47.625-13.718  c-1.262,0.697-2.489,1.474-3.663,2.33c1.236-2.56,24.717-46.61,70.444-37.517c-0.53-13.241-4.767-40.254-27.719-46.08  c0,0,41.49-11.476,67.531,16.861c1.501-1.412,3.09-2.737,4.59-4.061C204.635,11.767,229.582,1.174,255.826,0  c32.044,0,62.323,18.891,89.07,48.199c7.415,8.139,14.345,16.719,20.745,25.688c0.088,0.088,0.088,0.088,0.088,0.177  c0.088,0.265,0.265,0.53,0.353,0.794c0.883,1.236,1.677,2.383,2.56,3.619c11.343,16.508,21.46,33.827,30.279,51.818  c6.091,12.182,11.679,24.602,16.772,37.252c3.884,9.622,7.503,19.244,10.77,28.954c0.185,0.486,0.335,0.989,0.441,1.501  C429.377,205.241,431.584,212.392,433.614,219.542z"/>
<path style="fill:#E64C3C;" d="M449.68,309.583c-85.716,107.432-141.859,80.419-164.546,60.204  c-4.326-3.787-8.183-8.086-11.476-12.8h-35.31c0,0-61.793,96.132-176.552-48.022h-0.177c0.265-5.738,0.706-11.741,1.412-17.832  c1.589-14.371,4.008-28.637,7.239-42.726c2.03-9.269,4.502-18.891,7.327-28.513l1.854,0.53c1.942,0.177,3.972,0.265,5.914,0.265  c26.456,0.044,49.496-18.061,55.702-43.785c37.032,12.35,75.917,18.202,114.935,17.302c40.015,1.015,79.89-5.235,117.672-18.45  c4.228,19.191,17.991,34.878,36.458,41.578c6.268,2.198,12.862,3.328,19.509,3.354l3.972-1.148  c2.913,9.799,5.385,19.509,7.415,28.954c3.24,14.062,5.658,28.301,7.239,42.637C448.974,297.49,449.504,303.669,449.68,309.583z"/>
<path style="fill:#802F34;" d="M256.003,361.931c-24.753,0-44.138-13.568-44.138-30.897c0-4.873,3.955-8.828,8.828-8.828  s8.828,3.955,8.828,8.828c0,6.25,11.326,13.241,26.483,13.241s26.483-6.991,26.483-13.241c0-4.873,3.955-8.828,8.828-8.828  c4.873,0,8.828,3.955,8.828,8.828C300.141,348.363,280.755,361.931,256.003,361.931z"/>
<path style="fill:#2C2F38;" d="M220.693,291.31c-2.03,0-3.999-0.697-5.57-1.986c-36.961-30.102-81.39-2.692-81.832-2.401  c-4.122,2.604-9.578,1.368-12.173-2.754c-2.604-4.122-1.368-9.578,2.754-12.173c19.076-12.041,65.024-26.783,102.4,3.646  c3.778,3.072,4.352,8.633,1.28,12.42C225.866,290.119,223.35,291.31,220.693,291.31z"/>
<path style="fill:#3B97D3;" d="M349.928,262.532c13.409,10.478,15.793,29.846,5.314,43.255  c-10.478,13.409-29.846,15.793-43.255,5.314c-13.409-10.478-15.793-29.846-5.314-43.255c5.862-7.495,14.848-11.864,24.364-11.847  c0.591-0.018,1.183,0.018,1.766,0.088"/>
<g>
	<path style="fill:#2C2F38;" d="M379.589,282.483c-1.059,0-2.11-0.194-3.098-0.556l-70.621-26.483   c-4.573-1.686-6.921-6.762-5.235-11.335c1.686-4.573,6.762-6.921,11.335-5.235c0.035,0.009,0.062,0.026,0.097,0.035l70.621,26.483   c4.564,1.713,6.877,6.797,5.173,11.361C386.572,280.196,383.27,282.483,379.589,282.483z"/>
	<path style="fill:#2C2F38;" d="M317.116,426.558c-0.83,1.942-1.695,3.831-2.692,5.667c-0.168,0.318-0.371,0.627-0.539,0.892   c-5.782,10.478-14.283,19.2-24.62,25.247c-0.706,0.424-1.404,0.839-2.11,1.209c-20.056,11.476-44.8,11.008-64.415-1.209   c-0.177-0.088-0.344-0.194-0.494-0.318c-4.864-2.887-9.34-6.382-13.321-10.39c-4.705-4.758-8.66-10.205-11.705-16.163   c-0.874-1.598-1.66-3.249-2.357-4.935c-1.81-4.211,0.132-9.092,4.352-10.902c2.083-0.9,4.449-0.9,6.532-0.009   c32.079,13.789,68.414,13.789,100.493,0c4.211-1.801,9.084,0.15,10.893,4.361C318.017,422.1,318.017,424.466,317.116,426.558z"/>
</g>
<g>
</g>
<g>
</g>
<g>
</g>
<g>
</g>
<g>
</g>
<g>
</g>
<g>
</g>
<g>
</g>
<g>
</g>
<g>
</g>
<g>
</g>
<g>
</g>
<g>
</g>
<g>
</g>
<g>
</g>
</svg>
