<?xml version="1.0" encoding="iso-8859-1"?>
<!-- Generator: Adobe Illustrator 19.0.0, SVG Export Plug-In . SVG Version: 6.00 Build 0)  -->
<svg xmlns="http://www.w3.org/2000/svg" xmlns:xlink="http://www.w3.org/1999/xlink" version="1.1" id="Layer_1" x="0px" y="0px" viewBox="0 0 512 512" style="enable-background:new 0 0 512 512;" xml:space="preserve">
<path style="fill:#52BED3;" d="M419.891,292.865l6.018,25.308l-11.9,11.9l21.967,49.428c0,0,43.02-0.916,53.089-21.967  c10.069-21.052,15.332-77.556,15.332-77.556l-74.433-43.02"/>
<path style="fill:#76D9E5;" d="M429.966,236.956l-2.532,14.05l50.122,28.969c0,0-5.263,56.503-15.332,77.556  c-4.697,9.821-16.566,15.259-27.891,18.267l1.645,3.702c0,0,43.02-0.916,53.089-21.967s15.332-77.556,15.332-77.556L429.966,236.956  z"/>
<path style="fill:#E24260;" d="M383.802,308.106l22.406,54.982c4.471,10.99-1.845,23.4-13.373,26.229  c-34.208,8.405-80.694,8.263-121.948,2.737c-2.119-0.284-4.238-0.588-6.327-0.902c-6.59-0.983-13.028-2.109-19.223-3.356  c-18.108-3.64-34.208-8.354-46.435-13.789c-49.426-21.97-150.113-10.068-150.113-10.068L7.607,322.747  c0,0,172.783-172.803,247.008-194.449c20.571-7.918,42.917-12.258,66.287-12.258c94.979,0,173.209,71.711,183.5,163.932  C446.773,274.467,383.802,308.106,383.802,308.106z"/>
<path style="fill:#CE2647;" d="M175.99,322.21c0,0,18.838,51.322,69.348,65.587c-18.108-3.64-34.208-8.354-46.435-13.789  c-49.426-21.97-150.113-10.068-150.113-10.068L7.607,322.748c0,0,172.783-172.803,247.008-194.449  c20.571-7.918,42.917-12.258,66.287-12.258C320.902,116.041,168.366,217.375,175.99,322.21z"/>
<path style="fill:#49618C;" d="M392.836,389.318c-12.197,2.991-25.965,4.907-40.494,5.87h-0.051  c-54.191,3.609-119.038-5.911-153.388-21.18c-49.426-21.97-150.113-10.068-150.113-10.068L7.607,322.758  c0,0,118.987-19.223,194.966,6.397c75.969,25.631,181.228-21.048,181.228-21.048l22.406,54.982  C410.68,374.08,404.363,386.489,392.836,389.318z"/>
<path style="fill:#3B4773;" d="M352.291,395.188c-54.191,3.609-119.038-5.911-153.388-21.18  c-49.426-21.97-150.113-10.068-150.113-10.068L7.607,322.758c0,0,118.987-19.223,194.966,6.397  C202.574,329.154,260.932,395.188,352.291,395.188z"/>
<path style="fill:#6AA2E5;" d="M264.561,391.153c2.443,0.182,4.542,0.477,6.327,0.902  C268.769,391.771,266.65,391.466,264.561,391.153z"/>
<path d="M512,279.95c-0.001-0.283-0.016-0.563-0.048-0.838c-5.574-49.914-30.117-95.039-69.112-127.063  c-3.243-2.664-8.037-2.196-10.702,1.05c-2.665,3.245-2.195,8.037,1.05,10.702c33.561,27.562,55.498,65.649,62.417,108.02  c-54.949-1.583-110.19,26.836-115.107,29.428c-2.502,1.087-27.484,11.768-60.572,19.591c-31.707,7.497-77.386,13.774-114.926,1.11  c-23.836-8.041-54.013-12.597-89.694-13.541c-0.068-0.001-0.137-0.002-0.205-0.002c-4.106,0-7.488,3.274-7.598,7.403  c-0.111,4.198,3.202,7.691,7.4,7.803c34.161,0.904,62.838,5.193,85.234,12.748c17.332,5.847,35.971,8.132,54.539,8.132  c53.341,0,106.023-18.873,124.974-26.428l19.511,47.889c1.3,3.192,1.149,6.784-0.417,9.855c-1.565,3.07-4.382,5.302-7.728,6.123  c-56.425,13.859-147.942,3.384-189.022-14.872c-45.891-20.396-131.352-13.038-150.403-11.074l-27.758-27.759  c15.183-1.829,40.384-4.295,68.644-4.727c4.199-0.064,7.551-3.52,7.487-7.719c-0.064-4.16-3.455-7.488-7.601-7.488  c-0.04,0-0.079,0-0.119,0.001c-25.046,0.382-47.426,2.274-63.063,3.989c44.494-42.973,169.105-159.637,227.56-176.686  c0.203-0.059,0.404-0.127,0.601-0.203c20.261-7.796,41.645-11.749,63.557-11.749c33.48,0,66.074,9.387,94.255,27.147  c3.554,2.239,8.248,1.174,10.487-2.38c2.24-3.553,1.174-8.248-2.379-10.487c-30.613-19.292-66.01-29.488-102.364-29.488  c-23.681,0-46.803,4.256-68.726,12.651C176.8,143.389,9.329,310.27,2.227,317.372c-2.97,2.97-2.969,7.784,0,10.753l41.189,41.189  c1.647,1.647,3.958,2.447,6.27,2.175c0.985-0.117,99.156-11.412,146.133,9.465c29.948,13.31,82.984,22.608,132.806,22.608  c23.673,0,46.618-2.099,66.019-6.864c7.642-1.877,14.074-6.973,17.648-13.983c3.574-7.012,3.922-15.213,0.951-22.501l-19.729-48.425  c4.735-2.231,11.986-5.458,20.954-8.851l3.059,12.859l-8.896,8.896c-2.224,2.224-2.85,5.59-1.572,8.465l21.968,49.428  c1.222,2.751,3.949,4.516,6.948,4.516c0.055,0,0.108,0,0.162-0.002c0.472-0.01,11.712-0.281,24.368-3.294  c18.287-4.354,30.203-12.09,35.418-22.995c10.533-22.023,15.823-77.77,16.043-80.131c0.014-0.155,0.014-0.308,0.019-0.462  C511.992,280.129,512.001,280.04,512,279.95z M482.207,354.251c-5.668,11.849-28.844,16.237-41.418,17.349l-17.71-39.845  l8.207-8.206c1.867-1.867,2.631-4.567,2.021-7.137l-4.402-18.511c19.507-6.253,43.593-11.652,67.109-10.841  C493.862,306.043,488.917,340.221,482.207,354.251z"/>
<g>
</g>
<g>
</g>
<g>
</g>
<g>
</g>
<g>
</g>
<g>
</g>
<g>
</g>
<g>
</g>
<g>
</g>
<g>
</g>
<g>
</g>
<g>
</g>
<g>
</g>
<g>
</g>
<g>
</g>
</svg>
