<?xml version="1.0" encoding="iso-8859-1"?>
<!-- Generator: Adobe Illustrator 19.0.0, SVG Export Plug-In . SVG Version: 6.00 Build 0)  -->
<svg xmlns="http://www.w3.org/2000/svg" xmlns:xlink="http://www.w3.org/1999/xlink" version="1.1" id="Layer_1" x="0px" y="0px" viewBox="0 0 512 512" style="enable-background:new 0 0 512 512;" xml:space="preserve">
<polygon style="fill:#49618C;" points="501.235,504.393 10.772,504.393 108.934,31.583 113.912,7.604 398.095,7.604 "/>
<path style="fill:#3B4773;" d="M351.276,504.393H10.772l98.161-472.811l18.604,8.131  C127.538,39.713,101.026,374.366,351.276,504.393z"/>
<g>
	<polyline style="fill:#52BED3;" points="467.778,504.394 378.707,7.605 398.091,7.605 501.232,504.394  "/>
	<polyline style="fill:#52BED3;" points="44.222,504.394 133.293,7.605 113.91,7.605 10.769,504.394  "/>
</g>
<g>
	<polygon style="fill:#E6E6E6;" points="240.479,126.903 239.072,199.793 272.928,199.793 271.521,126.903  "/>
	<polygon style="fill:#E6E6E6;" points="278.815,504.393 233.192,504.393 235.017,409.973 236.061,355.529 275.936,355.529    277.852,454.339  "/>
	<polygon style="fill:#E6E6E6;" points="269.812,38.294 242.185,38.294 242.783,7.604 269.214,7.604  "/>
	<polygon style="fill:#E6E6E6;" points="271.08,104.073 240.917,104.073 241.84,56.544 270.157,56.544  "/>
	<polygon style="fill:#E6E6E6;" points="275.249,319.929 273.457,227.166 238.543,227.166 236.751,319.929  "/>
</g>
<path style="fill:#CCCCCC;" d="M278.815,504.393h-45.623l1.825-94.42c12.734,15.573,26.958,30.466,42.835,44.366L278.815,504.393z"/>
<path d="M405.51,50.981c-3.528,0-6.691-2.469-7.437-6.06l-7.427-35.77c-0.855-4.112,1.786-8.137,5.899-8.991  c4.108-0.853,8.136,1.787,8.991,5.9l7.426,35.77c0.854,4.112-1.787,8.137-5.9,8.991C406.542,50.929,406.022,50.981,405.51,50.981z"/>
<path d="M501.224,512c-3.528,0-6.691-2.47-7.437-6.06L404.314,74.987c-0.854-4.112,1.787-8.137,5.9-8.991  c4.111-0.856,8.136,1.787,8.991,5.9l89.472,430.953c0.854,4.112-1.787,8.137-5.9,8.991C502.256,511.948,501.736,512,501.224,512z"/>
<path d="M10.776,512c-0.512,0-1.032-0.052-1.553-0.16c-4.112-0.854-6.753-4.879-5.9-8.991L106.464,6.06  c0.854-4.112,4.88-6.752,8.991-5.9c4.112,0.854,6.753,4.88,5.9,8.991L18.214,505.94C17.469,509.53,14.304,512,10.776,512z"/>
<path d="M467.769,512c-3.612,0-6.816-2.583-7.476-6.264L371.222,8.947c-0.741-4.133,2.008-8.085,6.143-8.827  c4.132-0.74,8.086,2.008,8.827,6.143l89.07,496.789c0.741,4.133-2.008,8.085-6.143,8.827C468.666,511.96,468.214,512,467.769,512z"/>
<path d="M44.231,512c-0.445,0-0.897-0.04-1.351-0.121c-4.133-0.741-6.884-4.693-6.143-8.827L68.73,324.609  c0.741-4.133,4.693-6.882,8.827-6.143c4.133,0.741,6.884,4.693,6.143,8.827L51.708,505.736C51.048,509.416,47.843,512,44.231,512z"/>
<path d="M81.697,303.033c-0.445,0-0.897-0.04-1.351-0.121c-4.133-0.741-6.884-4.693-6.143-8.827L125.808,6.264  c0.741-4.133,4.693-6.884,8.827-6.143s6.884,4.693,6.143,8.827L89.174,296.77C88.514,300.45,85.309,303.033,81.697,303.033z"/>
<path d="M272.929,207.397h-33.857c-2.042,0-3.999-0.821-5.428-2.279c-1.43-1.458-2.213-3.43-2.174-5.472l1.407-72.89  c0.08-4.142,3.46-7.457,7.603-7.457h31.041c4.142,0,7.523,3.315,7.603,7.457l1.408,72.89c0.04,2.042-0.744,4.014-2.174,5.472  C276.927,206.576,274.971,207.397,272.929,207.397z M246.824,192.189h18.353l-1.114-57.683h-16.124L246.824,192.189z"/>
<path d="M278.81,511.998h-45.621c-2.042,0-3.999-0.821-5.428-2.279c-1.431-1.458-2.214-3.43-2.175-5.472l2.874-148.867  c0.08-4.141,3.46-7.457,7.603-7.457h39.872c4.143,0,7.523,3.316,7.603,7.457l0.898,46.529c0.081,4.199-3.257,7.668-7.456,7.75  c-4.184,0.085-7.669-3.257-7.75-7.456l-0.754-39.072h-24.955l-2.581,133.66h30.118l-1.3-67.282c-0.081-4.199,3.257-7.668,7.456-7.75  c4.152-0.091,7.668,3.257,7.75,7.456l1.449,75.033c0.04,2.042-0.744,4.014-2.175,5.472  C282.809,511.177,280.853,511.998,278.81,511.998z"/>
<path d="M269.811,45.897h-27.628c-2.043,0-3.999-0.821-5.429-2.28c-1.43-1.458-2.213-3.431-2.174-5.473l0.598-30.689  C235.261,3.315,238.641,0,242.783,0h26.431c4.142,0,7.522,3.315,7.603,7.456l0.598,30.689c0.04,2.042-0.743,4.014-2.174,5.473  C273.811,45.076,271.854,45.897,269.811,45.897z M249.938,30.689h12.121l-0.302-15.482H250.24L249.938,30.689z"/>
<path d="M271.079,111.677h-30.162c-2.042,0-3.999-0.821-5.428-2.28c-1.431-1.458-2.213-3.43-2.174-5.472l0.923-47.53  c0.08-4.142,3.46-7.456,7.603-7.456h28.317c4.142,0,7.522,3.315,7.603,7.456l0.923,47.53c0.04,2.042-0.743,4.014-2.174,5.472  C275.077,110.855,273.121,111.677,271.079,111.677z M248.669,96.469h14.656l-0.628-32.322h-13.401L248.669,96.469z"/>
<path d="M275.249,327.534h-38.497c-2.042,0-3.999-0.821-5.428-2.279c-1.43-1.458-2.213-3.43-2.174-5.472l1.791-92.764  c0.08-4.142,3.46-7.457,7.603-7.457h34.914c4.142,0,7.523,3.315,7.603,7.457l1.791,92.764c0.04,2.042-0.744,4.014-2.174,5.472  C279.247,326.712,277.29,327.534,275.249,327.534z M244.504,312.326h22.992l-1.497-77.556h-19.997L244.504,312.326z"/>
<g>
</g>
<g>
</g>
<g>
</g>
<g>
</g>
<g>
</g>
<g>
</g>
<g>
</g>
<g>
</g>
<g>
</g>
<g>
</g>
<g>
</g>
<g>
</g>
<g>
</g>
<g>
</g>
<g>
</g>
</svg>
