<?xml version="1.0" encoding="iso-8859-1"?>
<!-- Generator: Adobe Illustrator 19.0.0, SVG Export Plug-In . SVG Version: 6.00 Build 0)  -->
<svg xmlns="http://www.w3.org/2000/svg" xmlns:xlink="http://www.w3.org/1999/xlink" version="1.1" id="Capa_1" x="0px" y="0px" viewBox="0 0 511.999 511.999" style="enable-background:new 0 0 511.999 511.999;" xml:space="preserve">
<path style="fill:#FFFFFF;" d="M42.396,179.4c-13.302-4.841-28.009,2.017-32.851,15.319l0,0  c-4.842,13.301,2.017,28.009,15.318,32.85l46.871,17.06c-13.302-4.842-28.009,2.017-32.851,15.318l0,0  c-4.841,13.302,2.017,28.009,15.319,32.851l52.605,19.147c26.603,9.683,56.019-4.034,65.701-30.637l0,0  c9.683-26.603-4.034-56.019-30.637-65.701L42.396,179.4z"/>
<path style="opacity:0.2;enable-background:new    ;" d="M77.065,232.081l-41.814-15.219c-13.302-4.841-20.16-19.549-15.319-32.851  l0,0c0.373-1.024,0.81-2.004,1.294-2.949c-5.228,2.889-9.48,7.602-11.683,13.656l0,0c-4.841,13.302,2.018,28.01,15.319,32.851  l45.508,16.563c0.308,0.094,0.56,0.175,0.732,0.234C82.773,248.438,84.787,234.994,77.065,232.081z"/>
<path style="opacity:0.2;enable-background:new    ;" d="M117.196,301.237l-52.605-19.147c-13.302-4.841-20.16-19.549-15.319-32.851  l0,0c0.373-1.024,0.811-2.004,1.295-2.949c-5.229,2.889-9.481,7.602-11.684,13.656l0,0c-4.841,13.302,2.017,28.009,15.319,32.851  l52.605,19.147c22.071,8.033,46.066-0.05,59.135-18.226C152.509,304.012,134.277,307.454,117.196,301.237z"/>
<path style="fill:#FFFFFF;" d="M469.601,179.4c13.302-4.841,28.009,2.017,32.851,15.319l0,0  c4.841,13.302-2.017,28.009-15.319,32.851l-46.872,17.06c13.302-4.842,28.01,2.017,32.851,15.318l0,0  c4.841,13.302-2.017,28.009-15.319,32.851l-52.605,19.147c-26.603,9.683-56.019-4.034-65.701-30.637l0,0  c-9.683-26.603,4.034-56.019,30.637-65.701L469.601,179.4z"/>
<path style="opacity:0.2;enable-background:new    ;" d="M434.931,232.081l41.813-15.219c13.302-4.841,20.16-19.549,15.319-32.851  l0,0c-0.373-1.024-0.81-2.004-1.294-2.949c5.228,2.889,9.48,7.602,11.683,13.656l0,0c4.841,13.302-2.017,28.009-15.319,32.851  l-45.508,16.563c-0.308,0.094-0.56,0.175-0.732,0.234C429.225,248.438,427.211,234.994,434.931,232.081z"/>
<path style="opacity:0.2;enable-background:new    ;" d="M394.801,301.237l52.605-19.147c13.302-4.841,20.16-19.549,15.319-32.851  l0,0c-0.373-1.024-0.811-2.004-1.295-2.949c5.229,2.889,9.481,7.602,11.684,13.656l0,0c4.841,13.302-2.017,28.009-15.319,32.851  l-52.605,19.147c-22.072,8.033-46.066-0.05-59.134-18.226C359.487,304.012,377.719,307.454,394.801,301.237z"/>
<g>
	<path style="fill:#F3C74F;" d="M394.978,400.864c-8.208,0-16.004-4.837-19.385-12.877c-4.499-10.701,0.528-23.023,11.227-27.522   c9.191-3.865,15.911-13.475,16.722-23.916c0.58-7.48-1.561-18.145-15.066-26.48c-9.878-6.097-12.942-19.048-6.845-28.925   c6.096-9.878,19.044-12.944,28.925-6.846c23.891,14.746,36.936,39.234,34.897,65.505c-2.029,26.13-18.646,49.451-42.337,59.414   C400.455,400.334,397.693,400.864,394.978,400.864z"/>
	<path style="fill:#F3C74F;" d="M117.019,400.864c-2.716,0-5.476-0.529-8.138-1.649c-23.689-9.962-40.308-33.283-42.336-59.413   c-2.039-26.271,11.006-50.759,34.897-65.506c9.876-6.097,22.829-3.033,28.926,6.846c6.096,9.878,3.031,22.828-6.846,28.925   c-13.504,8.335-15.647,19.001-15.066,26.48c0.811,10.441,7.53,20.051,16.721,23.916c10.7,4.5,15.727,16.822,11.227,27.522   C133.022,396.027,125.224,400.864,117.019,400.864z"/>
</g>
<path style="opacity:0.2;enable-background:new    ;" d="M130.368,281.143c-6.097-9.879-19.05-12.943-28.926-6.846  c-6.608,4.079-12.381,8.905-17.24,14.306c4.458,16.098,13.871,42.121,25.088,52.831c-0.413-1.596-0.706-3.228-0.834-4.886  c-0.581-7.48,1.561-18.145,15.066-26.48C133.399,303.972,136.463,291.021,130.368,281.143z"/>
<path style="fill:#F3C74F;" d="M301.188,501.469c-11.608,0-21.019-9.41-21.019-21.019v-79.592c0-11.608,9.41-21.019,21.019-21.019  c11.608,0,21.019,9.41,21.019,21.019v79.592C322.206,492.059,312.796,501.469,301.188,501.469z"/>
<path style="opacity:0.2;enable-background:new    ;" d="M301.188,379.84c-11.608,0-21.019,9.41-21.019,21.019v44.081  c14.841-2.37,28.965-6.882,42.037-13.216v-30.866C322.206,389.251,312.796,379.84,301.188,379.84z"/>
<path style="fill:#F3C74F;" d="M210.809,501.469c-11.608,0-21.019-9.41-21.019-21.019v-79.592c0-11.608,9.41-21.019,21.019-21.019  c11.608,0,21.019,9.41,21.019,21.019v79.592C231.827,492.059,222.417,501.469,210.809,501.469z"/>
<path style="opacity:0.2;enable-background:new    ;" d="M210.809,379.84c-11.608,0-21.019,9.41-21.019,21.019v30.866  c13.073,6.334,27.196,10.846,42.037,13.216v-44.081C231.827,389.251,222.417,379.84,210.809,379.84z"/>
<circle style="fill:#0081C6;" cx="372.433" cy="144.226" r="48.271"/>
<circle style="fill:#F3C74F;" cx="372.433" cy="144.226" r="22.533"/>
<circle style="fill:#0081C6;" cx="139.563" cy="144.226" r="48.271"/>
<circle style="fill:#F3C74F;" cx="139.563" cy="144.226" r="22.533"/>
<path style="opacity:0.2;enable-background:new    ;" d="M168.103,105.298c-22.697,20.513-41.948,48.752-55.623,78.892  c7.723,5.245,17.045,8.312,27.085,8.312c26.661,0,48.274-21.613,48.274-48.274C187.84,128.246,180.068,114.085,168.103,105.298z"/>
<path style="fill:#40BAB3;" d="M407.678,276.606c0-83.523-69.631-203.845-151.68-203.845S104.319,193.084,104.319,276.606  c0,83.523,67.909,151.231,151.679,151.231S407.678,360.129,407.678,276.606z"/>
<g>
	<path style="fill:#F0B0B7;" d="M180.183,259.18h-25.322c-4.41,0-7.983-3.574-7.983-7.983c0-4.409,3.573-7.983,7.983-7.983h25.322   c4.41,0,7.983,3.574,7.983,7.983C188.166,255.606,184.592,259.18,180.183,259.18z"/>
	<path style="fill:#F0B0B7;" d="M357.137,259.18h-25.322c-4.41,0-7.983-3.574-7.983-7.983c0-4.409,3.573-7.983,7.983-7.983h25.322   c4.409,0,7.983,3.574,7.983,7.983C365.12,255.606,361.546,259.18,357.137,259.18z"/>
</g>
<path style="fill:#FFFFFF;" d="M106.874,304.342c13.067,70.274,74.857,123.494,149.124,123.494s136.059-53.22,149.124-123.494  H106.874z"/>
<path style="fill:#0081C6;" d="M133.725,366.089c27.606,37.443,72.09,61.747,122.274,61.747s94.667-24.305,122.274-61.747  L133.725,366.089L133.725,366.089z"/>
<path style="opacity:0.2;enable-background:new    ;" d="M272.082,411.753c-83.77,0-151.679-67.708-151.679-151.231  c0-50.284,25.243-113.893,63.234-156.569c-46.788,41.301-79.318,115.568-79.318,172.652c0,83.523,67.909,151.231,151.679,151.231  c46.058,0,87.315-20.472,115.133-52.782C344.557,397.922,309.94,411.753,272.082,411.753z"/>
<g>
	<path style="fill:#F3C74F;" d="M140.302,404.911c-11.59,0-22.339-1.877-31.421-5.696c-10.702-4.5-15.728-16.822-11.228-27.522   c4.5-10.699,16.824-15.729,27.522-11.228c13.047,5.487,36.357,1.014,52.634-6.24c17.899-7.977,31.098-19.969,35.305-32.082   c3.809-10.965,15.787-16.765,26.752-12.957c10.965,3.81,16.768,15.786,12.958,26.752c-8.184,23.562-28.75,43.693-57.905,56.685   C176.694,400.744,157.566,404.911,140.302,404.911z"/>
	<path style="fill:#F3C74F;" d="M371.694,404.911c-17.266,0-36.388-4.166-54.615-12.289c-29.156-12.992-49.72-33.123-57.906-56.685   c-3.81-10.965,1.991-22.943,12.958-26.752c10.962-3.811,22.942,1.993,26.752,12.957c4.208,12.113,17.406,24.107,35.306,32.082   c16.277,7.254,39.586,11.727,52.632,6.24c10.705-4.499,23.024,0.528,27.523,11.228c4.499,10.7-0.528,23.023-11.227,27.522   C394.036,403.034,383.283,404.911,371.694,404.911z"/>
</g>
<path d="M344.476,232.153c10.535,0,19.108-8.573,19.108-19.109c0-4.409-3.573-7.983-7.983-7.983c-4.41,0-7.983,3.574-7.983,7.983  c0,1.733-1.409,3.143-3.142,3.143s-3.143-1.41-3.143-3.143c0-4.409-3.573-7.983-7.983-7.983c-4.41,0-7.983,3.574-7.983,7.983  C325.367,223.58,333.939,232.153,344.476,232.153z M203.347,54.244c14.173,4.202,32.872,6.516,52.651,6.516  c19.779,0,38.477-2.314,52.651-6.516c17.639-5.229,26.584-12.83,26.584-22.591s-8.943-17.362-26.584-22.591  c-14.173-4.202-32.872-6.516-52.651-6.516s-38.477,2.314-52.651,6.516c-17.639,5.229-26.584,12.83-26.584,22.591  S185.708,49.015,203.347,54.244z M210.852,23.542c12.379-3.244,28.412-5.031,45.147-5.031s32.768,1.787,45.147,5.031  c11.866,3.11,16.649,6.601,17.893,8.11c-1.243,1.508-6.026,5.001-17.893,8.111c-12.379,3.244-28.412,5.031-45.147,5.031  s-32.768-1.787-45.147-5.031c-11.866-3.11-16.649-6.603-17.893-8.111C194.202,30.145,198.986,26.653,210.852,23.542z   M509.954,191.988c-3.071-8.436-9.243-15.173-17.381-18.968c-8.136-3.795-17.265-4.194-25.701-1.123l-67.615,24.611  c-0.299-0.78-0.595-1.561-0.902-2.342c18.43-9.559,30.332-28.702,30.332-49.938c0-31.02-25.237-56.257-56.257-56.257  c-13.076,0-25.705,4.6-35.707,12.808c-5.833-5.398-11.803-10.252-17.847-14.463c-20.515-14.292-41.67-21.538-62.878-21.538  s-42.362,7.246-62.878,21.538c-6.044,4.211-12.014,9.066-17.847,14.463c-10.001-8.207-22.631-12.808-35.707-12.808  c-31.021,0-56.258,25.237-56.258,56.257c0,21.236,11.902,40.378,30.332,49.938c-0.307,0.779-0.601,1.56-0.902,2.342l-67.614-24.61  c-8.439-3.07-17.565-2.672-25.701,1.123c-8.138,3.795-14.31,10.53-17.381,18.967c-3.071,8.438-2.673,17.565,1.122,25.702  c3.796,8.137,10.531,14.31,18.968,17.381l19.998,7.278c-4.742,3.735-8.538,8.79-10.749,14.868  c-6.339,17.417,2.674,36.743,20.09,43.083l12.87,4.684c-4.674,10.999-6.719,23.033-5.755,35.437  c2.257,29.077,20.784,55.045,47.201,66.153l0.056,0.023c9.961,4.178,21.554,6.297,34.46,6.297c9.176,0,18.641-1.077,28.142-3.159  c4.345,2.848,8.799,5.48,13.363,7.874v62.841c0,15.992,13.01,29.002,29.002,29.002c15.991,0,29.001-13.01,29.001-29.002v-45.463  c5.353,0.536,10.75,0.832,16.189,0.832c5.437,0,10.836-0.296,16.189-0.832v45.463c0,15.992,13.01,29.002,29.001,29.002  c15.992,0,29.002-13.01,29.002-29.002v-62.84c4.563-2.394,9.017-5.028,13.361-7.876c9.501,2.082,18.967,3.159,28.143,3.159  c12.906,0,24.502-2.119,34.461-6.297c0.019-0.007,0.036-0.015,0.055-0.022c26.416-11.109,44.945-37.075,47.201-66.153  c0.963-12.406-1.081-24.439-5.755-35.437l12.87-4.684c17.415-6.34,26.428-25.666,20.09-43.084  c-2.213-6.079-6.005-11.132-10.748-14.868l19.997-7.278c8.438-3.071,15.173-9.243,18.968-17.381  C512.626,209.553,513.024,200.425,509.954,191.988z M372.43,103.938c22.216,0,40.291,18.075,40.291,40.291  c0,14.799-8.07,28.177-20.662,35.196c-1.362-2.964-2.778-5.909-4.244-8.83c9.151-5.346,15.137-15.266,15.137-26.365  c0-16.829-13.691-30.521-30.522-30.521c-6.509,0-12.746,2.09-17.887,5.81c-2.128-2.528-4.288-4.978-6.477-7.355  C355.026,106.882,363.584,103.938,372.43,103.938z M386.986,144.229c0,5.1-2.651,9.669-6.742,12.276  c-3.472-6.044-7.154-11.946-11.044-17.644c-1.568-2.297-3.171-4.545-4.792-6.759c2.351-1.555,5.129-2.429,8.022-2.429  C380.456,129.673,386.986,136.203,386.986,144.229z M99.275,144.229c0-22.216,18.075-40.291,40.292-40.291  c8.845,0,17.404,2.945,24.364,8.225c-2.188,2.378-4.35,4.828-6.477,7.355c-5.141-3.719-11.378-5.81-17.887-5.81  c-16.83,0-30.522,13.691-30.522,30.521c0,11.1,5.986,21.019,15.137,26.365c-1.466,2.922-2.881,5.866-4.244,8.83  C107.346,172.405,99.275,159.028,99.275,144.229z M147.59,132.103c-1.621,2.214-3.224,4.461-4.792,6.759  c-3.889,5.698-7.571,11.599-11.044,17.644c-4.091-2.608-6.742-7.176-6.742-12.276c0-8.026,6.53-14.555,14.556-14.555  C142.46,129.673,145.237,130.547,147.59,132.103z M155.984,147.864c29.12-42.656,65.575-67.12,100.015-67.12  s70.895,24.464,100.015,67.12c26.944,39.467,43.682,88.798,43.682,128.743c0,27.944-8.044,54.871-23.256,78.121  c-10.522,0.952-25.92-1.964-39.001-7.794c-15.684-6.989-27.568-17.492-31.014-27.411c-5.249-15.104-21.808-23.125-36.913-17.878  c-5.444,1.891-10.097,5.278-13.514,9.758c-3.417-4.481-8.069-7.868-13.514-9.76c-15.104-5.248-31.665,2.774-36.912,17.879  c-3.444,9.918-15.328,20.421-31.014,27.41c-13.08,5.829-28.478,8.745-38.999,7.794c-15.209-23.25-23.258-50.201-23.258-78.121  C112.301,236.662,129.039,187.33,155.984,147.864z M56.933,285.296c-9.144-3.327-13.875-13.475-10.547-22.619  c3.327-9.14,13.466-13.87,22.606-10.551l0.013,0.004c4.144,1.508,8.724-0.628,10.232-4.771c1.508-4.144-0.628-8.724-4.771-10.232  c-0.003-0.001-0.005-0.001-0.009-0.002l-46.863-17.057c-4.43-1.613-7.966-4.853-9.959-9.125c-1.992-4.271-2.2-9.064-0.589-13.493  c1.613-4.429,4.853-7.966,9.124-9.959c4.273-1.992,9.066-2.202,13.493-0.589l67.774,24.668c-6.151,19.26-9.923,38.501-10.864,56.367  c-9.934,6.251-18.14,14.049-24.37,22.919L56.933,285.296z M140.303,396.928c-10.634,0-20.426-1.752-28.313-5.065  c-0.015-0.006-0.029-0.012-0.044-0.018c-20.949-8.823-35.644-29.489-37.443-52.659c-1.533-19.748,6.65-38.398,22.219-51.623  c0.794,11.649,2.86,23.089,6.135,34.163c-1.976,4.836-2.783,10.01-2.361,15.441c1.035,13.317,9.678,25.615,21.516,30.628  c0.024,0.011,0.05,0.021,0.075,0.032c15.85,6.659,41.677,1.398,58.97-6.31c20.173-8.989,34.606-22.386,39.597-36.754  c2.358-6.79,9.803-10.392,16.591-8.036c3.289,1.143,5.936,3.498,7.454,6.631c1.519,3.134,1.725,6.671,0.582,9.96  c-7.453,21.456-26.493,39.928-53.612,52.013C174.887,392.809,156.645,396.928,140.303,396.928z M223.844,480.451  c0,7.188-5.847,13.036-13.035,13.036c-7.188,0-13.036-5.848-13.036-13.036v-55.552c8.446,3.301,17.165,5.855,26.07,7.67V480.451z   M314.223,480.451c0,7.188-5.848,13.036-13.036,13.036c-7.188,0-13.035-5.848-13.035-13.036v-47.883  c8.906-1.814,17.624-4.367,26.07-7.668V480.451z M255.998,419.853c-23.463,0-46.199-5.614-66.664-16.327  c2.961-1.113,5.91-2.31,8.833-3.613c26.951-12.01,47.097-29.914,57.83-51.116c10.735,21.202,30.879,39.106,57.83,51.116  c2.924,1.304,5.873,2.5,8.835,3.614C302.199,414.241,279.459,419.853,255.998,419.853z M437.493,339.185  c-1.799,23.17-16.493,43.835-37.441,52.658c-0.015,0.006-0.029,0.013-0.045,0.019c-7.887,3.315-17.678,5.065-28.313,5.065  c-16.343,0-34.585-4.119-51.367-11.598c-27.12-12.085-46.159-30.557-53.612-52.013c-1.143-3.289-0.937-6.826,0.582-9.959  c1.518-3.134,4.165-5.489,7.454-6.631c6.782-2.358,14.232,1.245,16.591,8.035c4.991,14.369,19.424,27.766,39.597,36.755  c17.292,7.706,43.121,12.968,58.97,6.31c0.025-0.011,0.05-0.021,0.075-0.032c11.838-5.012,20.481-17.31,21.516-30.628  c0.421-5.432-0.385-10.607-2.362-15.442c3.273-11.071,5.34-22.509,6.134-34.163C430.842,300.786,439.026,319.437,437.493,339.185z   M494.361,210.942c-1.993,4.273-5.529,7.513-9.959,9.125l-46.863,17.057c-0.003,0.001-0.005,0.001-0.009,0.002  c-4.143,1.508-6.279,6.089-4.771,10.232c1.507,4.143,6.088,6.278,10.232,4.771l0.013-0.004c4.427-1.608,9.212-1.398,13.481,0.594  c4.273,1.993,7.514,5.529,9.125,9.958c3.328,9.144-1.403,19.291-10.547,22.619l-15.271,5.558c-6.23-8.87-14.435-16.668-24.37-22.918  c-0.942-17.866-4.714-37.106-10.864-56.367l67.774-24.668c4.43-1.613,9.222-1.402,13.493,0.589c4.273,1.993,7.513,5.529,9.124,9.959  S496.354,206.67,494.361,210.942z M167.521,232.153c10.537,0,19.109-8.573,19.109-19.109c0-4.409-3.573-7.983-7.983-7.983  s-7.983,3.574-7.983,7.983c0,1.733-1.41,3.143-3.143,3.143c-1.733,0-3.142-1.41-3.142-3.143c0-4.409-3.573-7.983-7.983-7.983  s-7.983,3.574-7.983,7.983C148.412,223.58,156.985,232.153,167.521,232.153z M241.141,247.523c5.668,0,10.86-2.075,14.857-5.506  c3.997,3.432,9.189,5.506,14.857,5.506c12.594,0,22.841-10.246,22.841-22.84c0-4.409-3.573-7.983-7.983-7.983  c-4.41,0-7.983,3.574-7.983,7.983c0,3.79-3.085,6.874-6.875,6.874s-6.874-3.084-6.874-6.874c0-4.409-3.573-7.983-7.983-7.983  s-7.983,3.574-7.983,7.983c0,3.79-3.085,6.874-6.874,6.874c-3.79,0-6.875-3.084-6.875-6.874c0-4.409-3.573-7.983-7.983-7.983  s-7.983,3.574-7.983,7.983C218.3,237.277,228.547,247.523,241.141,247.523z"/>
<g>
</g>
<g>
</g>
<g>
</g>
<g>
</g>
<g>
</g>
<g>
</g>
<g>
</g>
<g>
</g>
<g>
</g>
<g>
</g>
<g>
</g>
<g>
</g>
<g>
</g>
<g>
</g>
<g>
</g>
</svg>
