<?xml version="1.0" encoding="iso-8859-1"?>
<!-- Generator: Adobe Illustrator 19.0.0, SVG Export Plug-In . SVG Version: 6.00 Build 0)  -->
<svg xmlns="http://www.w3.org/2000/svg" xmlns:xlink="http://www.w3.org/1999/xlink" version="1.1" id="Layer_1" x="0px" y="0px" viewBox="0 0 512 512" style="enable-background:new 0 0 512 512;" xml:space="preserve">
<path style="fill:#2DADC1;" d="M150.781,226.774c10.578-10.578,10.578-27.728,0-38.306h207.843  c-10.578,10.578-10.578,27.728,0,38.306H150.781z"/>
<g>
	<path style="fill:#52BED3;" d="M358.628,226.769v257.207c0,11.274-9.145,20.419-20.429,20.419H171.206   c-11.284,0-20.429-9.145-20.429-20.419V226.769H358.628z"/>
	<path style="fill:#52BED3;" d="M335.161,90.521H174.243c-12.958,0-23.463,10.505-23.463,23.463v74.485h207.843v-74.485   C358.624,101.025,348.119,90.521,335.161,90.521z"/>
</g>
<g>
	<path style="fill:#2DADC1;" d="M191.843,325.659v-98.89h-41.061v93.7l-0.004,0.001v163.505c0,11.274,9.145,20.419,20.429,20.419   h0.004h41.051h45.579C200.677,482.873,192.733,369.984,191.843,325.659z"/>
	<path style="fill:#2DADC1;" d="M215.304,90.517c-12.957,0-23.461,10.504-23.461,23.471v74.478h-41.061v-74.478   c0-12.967,10.504-23.471,23.461-23.471C174.242,90.517,215.304,90.517,215.304,90.517z"/>
</g>
<path style="fill:#52BED3;" d="M306.071,61.492H203.335c-10.806,0-19.567,8.76-19.567,19.567v9.462h141.868v-9.462  C325.636,70.252,316.876,61.492,306.071,61.492z"/>
<path style="fill:#2DADC1;" d="M245.917,61.492h-42.582c-10.806,0-19.567,8.76-19.567,19.567v9.462h42.582v-9.462  C226.351,70.252,235.11,61.492,245.917,61.492z"/>
<rect x="227.764" y="7.604" style="fill:#E24260;" width="53.887" height="53.887"/>
<rect x="227.764" y="7.604" style="fill:#CE2647;" width="26.944" height="53.887"/>
<path style="fill:#FFFFFF;" d="M278.719,339.219l-24.016-24.016l-24.016,24.016c-13.264,13.264-13.264,34.769,0,48.033l0,0  c13.264,13.264,34.769,13.264,48.033,0l0,0C291.983,373.988,291.983,352.483,278.719,339.219z"/>
<path d="M335.161,82.917h-1.921v-1.858c0-1.836-0.186-3.63-0.534-5.364h11.743c13.44,0,24.375-10.934,24.375-24.375  s-10.935-24.375-24.375-24.375h-55.198V15.208h1.39c4.199,0,7.604-3.405,7.604-7.604S294.84,0,290.641,0h-8.994h-53.888h-8.994  c-4.199,0-7.604,3.405-7.604,7.604s3.405,7.604,7.604,7.604h1.39v11.736h-1.903c-4.199,0-7.604,3.405-7.604,7.604  s3.405,7.604,7.604,7.604h1.903v11.735h-16.82c-14.982,0-27.17,12.189-27.17,27.17v1.858h-1.921  c-17.13,0-31.067,13.937-31.067,31.067v74.485c0,2.1,0.852,4.002,2.227,5.378c7.595,7.596,7.595,19.955,0,27.551  c-1.377,1.376-2.227,3.278-2.227,5.378v181.358c0,4.199,3.405,7.604,7.604,7.604c4.199,0,7.604-3.405,7.604-7.604V234.378h124.297  c4.199,0,7.604-3.405,7.604-7.604c0-4.199-3.405-7.604-7.604-7.604H164.334c2.62-7.459,2.62-15.64,0-23.098h180.735  c-2.62,7.459-2.62,15.64,0,23.098h-37.041c-4.199,0-7.604,3.405-7.604,7.604c0,4.199,3.405,7.604,7.604,7.604h42.991v249.594  c0,7.069-5.751,12.82-12.82,12.82H171.205c-7.069,0-12.82-5.751-12.82-12.82v-48.469c0-4.199-3.405-7.604-7.604-7.604  c-4.199,0-7.604,3.405-7.604,7.604v48.468c0,15.454,12.573,28.028,28.028,28.028H338.2c15.454,0,28.028-12.573,28.028-28.028  V226.774c0-2.1-0.852-4.002-2.227-5.378c-7.595-7.596-7.595-19.955,0-27.551c1.377-1.376,2.227-3.278,2.227-5.378v-74.485  C366.228,96.853,352.291,82.917,335.161,82.917z M344.448,42.152c5.054,0,9.167,4.112,9.167,9.167s-4.112,9.167-9.167,9.167h-20.659  c-4.761-4.107-10.953-6.598-17.719-6.598h-16.82V42.152H344.448z M235.363,15.208h38.68v11.736h-38.68L235.363,15.208  L235.363,15.208z M235.363,42.152h38.68v11.735h-38.68L235.363,42.152L235.363,42.152z M191.372,81.058  c0-6.596,5.366-11.963,11.963-11.963h102.736c6.596,0,11.963,5.366,11.963,11.963v1.858H191.372V81.058z M158.384,113.983  c0-8.745,7.114-15.859,15.859-15.859H335.16c8.745,0,15.859,7.114,15.859,15.859v66.881H158.384V113.983z"/>
<path d="M284.096,392.628c7.851-7.851,12.175-18.29,12.175-29.393s-4.324-21.543-12.175-29.393l-24.016-24.016  c-2.97-2.97-7.784-2.97-10.753,0l-24.016,24.016c-7.851,7.851-12.175,18.29-12.175,29.393s4.324,21.543,12.175,29.393  c7.851,7.851,18.29,12.175,29.393,12.175S276.245,400.479,284.096,392.628z M236.062,381.875c-10.277-10.277-10.277-27.001,0-37.28  l18.64-18.639l18.64,18.64c10.277,10.278,10.277,27.001,0,37.28C263.064,392.152,246.34,392.153,236.062,381.875z"/>
<g>
</g>
<g>
</g>
<g>
</g>
<g>
</g>
<g>
</g>
<g>
</g>
<g>
</g>
<g>
</g>
<g>
</g>
<g>
</g>
<g>
</g>
<g>
</g>
<g>
</g>
<g>
</g>
<g>
</g>
</svg>
