<?xml version="1.0" encoding="iso-8859-1"?>
<!-- Generator: Adobe Illustrator 19.0.0, SVG Export Plug-In . SVG Version: 6.00 Build 0)  -->
<svg xmlns="http://www.w3.org/2000/svg" xmlns:xlink="http://www.w3.org/1999/xlink" version="1.1" id="Capa_1" x="0px" y="0px" viewBox="0 0 512 512" style="enable-background:new 0 0 512 512;" xml:space="preserve">
<g>
	<path style="fill:#F29C1F;" d="M84.395,241.876c-10.39,30.287-17.558,61.599-21.363,93.396   c-26.739-1.73-47.007-24.814-45.277-51.553c1.66-25.538,22.863-45.391,48.455-45.374C72.451,238.318,78.621,239.519,84.395,241.876   z"/>
	<path style="fill:#F29C1F;" d="M494.348,286.897c0.035,25.847-20.259,47.157-46.08,48.375   c-3.769-31.717-10.929-62.941-21.363-93.131c5.985-2.481,12.403-3.769,18.891-3.796c26.801-0.018,48.534,21.698,48.552,48.499   C494.348,286.861,494.348,286.879,494.348,286.897z"/>
</g>
<path style="fill:#F0C419;" d="M449.68,309.583c-0.177-5.914-0.706-12.094-1.412-18.45c-1.58-14.345-3.999-28.575-7.239-42.637  c-2.03-9.446-4.502-19.156-7.415-28.954c-2.03-7.15-4.237-14.301-6.709-21.539c-0.106-0.512-0.256-1.015-0.441-1.501  c-3.266-9.71-6.886-19.332-10.77-28.954c-5.12-12.623-10.708-25.044-16.772-37.252c-8.819-17.991-18.935-35.31-30.279-51.818  c-0.883-1.236-1.677-2.383-2.56-3.619c-0.088-0.265-0.265-0.53-0.353-0.794c0-0.088,0-0.088-0.088-0.177  c-6.4-8.969-13.321-17.549-20.745-25.688C318.149,18.891,287.871,0,255.826,0c-26.244,1.174-51.191,11.767-70.268,29.837  c-1.501,1.324-3.09,2.648-4.59,4.061c-26.041-28.337-67.531-16.861-67.531-16.861c22.952,5.826,27.189,32.839,27.719,46.08  c-45.727-9.092-69.208,34.957-70.444,37.517c15.651-11.388,37.57-7.927,48.958,7.724c0.856,1.174,1.633,2.392,2.33,3.663  c-3.443,6.091-6.709,12.27-9.799,18.538c-3.884,7.768-7.592,15.713-11.034,23.658c-1.942,4.414-3.796,8.828-5.561,13.33  c-3.884,9.622-7.503,19.332-10.77,28.954c-0.177,0.441-0.265,0.794-0.441,1.236c-2.472,7.415-4.767,14.83-6.797,22.157  c-2.825,9.622-5.297,19.244-7.327,28.513c-3.231,14.089-5.65,28.354-7.239,42.726c-0.706,6.091-1.148,12.094-1.412,17.832  c-0.088,3.001-0.177,6.003-0.177,8.828C61.549,425.004,148.439,511.894,255.65,512h1.501  c106.628-0.927,192.6-87.578,192.706-194.207C449.857,315.145,449.768,312.408,449.68,309.583z"/>
<path style="fill:#804537;" d="M433.614,219.542l-3.972,1.148c-6.647-0.026-13.241-1.156-19.509-3.354  c-18.467-6.7-32.23-22.396-36.458-41.578c-37.782,13.215-77.656,19.465-117.672,18.45c-39.027,0.9-77.903-4.952-114.935-17.302  c-6.206,25.724-29.246,43.829-55.702,43.785c-1.942,0-3.972-0.088-5.914-0.265l-1.854-0.53c2.03-7.327,4.326-14.742,6.797-22.157  c0.177-0.441,0.265-0.794,0.441-1.236c3.266-9.622,6.886-19.332,10.77-28.954c1.766-4.502,3.619-8.916,5.561-13.33  c3.443-7.945,7.15-15.89,11.034-23.658c3.09-6.268,6.356-12.447,9.799-18.538c-9.366-16.94-30.685-23.084-47.625-13.718  c-1.262,0.697-2.489,1.474-3.663,2.33c1.236-2.56,24.717-46.61,70.444-37.517c-0.53-13.241-4.767-40.254-27.719-46.08  c0,0,41.49-11.476,67.531,16.861c1.501-1.412,3.09-2.737,4.59-4.061C204.635,11.767,229.582,1.174,255.826,0  c32.044,0,62.323,18.891,89.07,48.199c7.415,8.139,14.345,16.719,20.745,25.688c0.088,0.088,0.088,0.088,0.088,0.177  c0.088,0.265,0.265,0.53,0.353,0.794c0.883,1.236,1.677,2.383,2.56,3.619c11.343,16.508,21.46,33.827,30.279,51.818  c6.091,12.182,11.679,24.602,16.772,37.252c3.884,9.622,7.503,19.244,10.77,28.954c0.185,0.486,0.335,0.989,0.441,1.501  C429.377,205.241,431.584,212.392,433.614,219.542z"/>
<path style="fill:#E64C3C;" d="M449.68,309.583c-85.716,107.432-141.859,80.419-164.546,60.204  c-4.326-3.787-8.183-8.086-11.476-12.8h-35.31c0,0-61.793,96.132-176.552-48.022h-0.177c0.265-5.738,0.706-11.741,1.412-17.832  c1.589-14.371,4.008-28.637,7.239-42.726c2.03-9.269,4.502-18.891,7.327-28.513l1.854,0.53c1.942,0.177,3.972,0.265,5.914,0.265  c26.456,0.044,49.496-18.061,55.702-43.785c37.032,12.35,75.917,18.202,114.935,17.302c40.015,1.015,79.89-5.235,117.672-18.45  c4.228,19.191,17.991,34.878,36.458,41.578c6.268,2.198,12.862,3.328,19.509,3.354l3.972-1.148  c2.913,9.799,5.385,19.509,7.415,28.954c3.24,14.062,5.658,28.301,7.239,42.637C448.974,297.49,449.504,303.669,449.68,309.583z"/>
<g>
	<path style="fill:#3B97D3;" d="M196.946,259.796c3.972,5.261,6.118,11.679,6.091,18.273c0.044,17.064-13.745,30.932-30.808,30.985   c-17.064,0.044-30.932-13.745-30.985-30.808c-0.026-9.913,4.696-19.226,12.712-25.062"/>
	<path style="fill:#3B97D3;" d="M358.05,253.175c13.762,10.055,16.764,29.369,6.709,43.132   c-10.055,13.762-29.369,16.764-43.132,6.709c-7.962-5.817-12.668-15.086-12.659-24.947c-0.026-6.594,2.119-13.012,6.091-18.273"/>
</g>
<path style="fill:#802F34;" d="M256.003,361.931c-24.753,0-44.138-13.568-44.138-30.897c0-4.873,3.955-8.828,8.828-8.828  s8.828,3.955,8.828,8.828c0,6.25,11.326,13.241,26.483,13.241s26.483-6.991,26.483-13.241c0-4.873,3.955-8.828,8.828-8.828  c4.873,0,8.828,3.955,8.828,8.828C300.141,348.363,280.755,361.931,256.003,361.931z"/>
<g>
	<path style="fill:#2C2F38;" d="M282.486,436.966c0,17.064,0,30.897-26.483,30.897s-26.483-13.833-26.483-30.897   c-1.121-15.81,10.681-29.59,26.483-30.897C271.804,407.375,283.607,421.155,282.486,436.966z"/>
	<path style="fill:#2C2F38;" d="M229.538,273.655c-0.45,0-0.909-0.035-1.351-0.106l-114.759-17.655   c-4.82-0.733-8.13-5.235-7.398-10.055c0.733-4.82,5.235-8.13,10.055-7.398c0.009,0,0.018,0,0.026,0l114.759,17.655   c4.82,0.742,8.121,5.244,7.38,10.063C237.589,270.468,233.89,273.646,229.538,273.655z"/>
	<path style="fill:#2C2F38;" d="M282.477,273.655c-4.873-0.009-8.819-3.964-8.819-8.836c0.009-4.352,3.187-8.051,7.486-8.713   l114.759-17.655c4.82-0.75,9.331,2.551,10.072,7.371c0.75,4.82-2.551,9.331-7.371,10.072c-0.009,0-0.018,0-0.026,0l-114.759,17.655   C283.377,273.62,282.927,273.655,282.477,273.655z"/>
</g>
<g>
</g>
<g>
</g>
<g>
</g>
<g>
</g>
<g>
</g>
<g>
</g>
<g>
</g>
<g>
</g>
<g>
</g>
<g>
</g>
<g>
</g>
<g>
</g>
<g>
</g>
<g>
</g>
<g>
</g>
</svg>
