<?xml version="1.0" encoding="iso-8859-1"?>
<!-- Generator: Adobe Illustrator 19.0.0, SVG Export Plug-In . SVG Version: 6.00 Build 0)  -->
<svg xmlns="http://www.w3.org/2000/svg" xmlns:xlink="http://www.w3.org/1999/xlink" version="1.1" id="Capa_1" x="0px" y="0px" viewBox="0 0 512 512" style="enable-background:new 0 0 512 512;" xml:space="preserve">
<path style="fill:#F3C74F;" d="M335.883,504.043c-1.44,0-2.901-0.167-4.363-0.514c-10.08-2.402-16.305-12.519-13.903-22.599  c3.986-16.733-9.878-41.256-15.049-48.527c-6.051-8.411-4.122-20.117,4.289-26.166c8.411-6.051,20.15-4.116,26.201,4.295  c3.068,4.265,29.726,42.721,21.06,79.095C352.066,498.243,344.371,504.043,335.883,504.043z"/>
<path style="opacity:0.2;enable-background:new    ;" d="M333.059,410.53c-6.051-8.411-17.79-10.346-26.201-4.295  c-8.411,6.05-10.34,17.755-4.289,26.167c2.197,3.09,5.962,9.299,9.261,16.697c12.492-2.766,24.338-7.244,35.268-13.188  C341.306,422.324,334.518,412.559,333.059,410.53z"/>
<path style="fill:#40BAB3;" d="M417.755,303.453c0-74.555-62.155-181.961-135.395-181.961S146.965,228.898,146.965,303.453  s60.618,134.995,135.395,134.995S417.755,378.008,417.755,303.453z"/>
<path style="opacity:0.2;enable-background:new    ;" d="M282.36,121.492c-43.741,0-83.525,38.314-108.479,85.056l65.265,19.883  c8.518,2.595,17.617,2.595,26.136,0l69.326-21.121c8.518-2.595,17.611-2.597,26.129-0.002c9.159,2.79,22.017,6.708,34.856,10.619  C371.131,165.043,328.995,121.492,282.36,121.492z"/>
<path style="fill:#FFFFFF;" d="M149.245,328.212c11.664,62.729,66.821,110.236,133.115,110.236  c66.294,0,121.451-47.507,133.115-110.236H149.245z"/>
<path style="fill:#0081C6;" d="M173.213,383.33c24.643,33.423,64.35,55.118,109.147,55.118c44.797,0,84.504-21.695,109.147-55.118  H173.213z"/>
<path style="opacity:0.2;enable-background:new    ;" d="M296.717,424.091c-74.777,0-135.395-60.439-135.395-134.995  c0-44.885,22.533-101.666,56.445-139.759c-41.764,36.867-70.802,103.161-70.802,154.117c0,74.555,60.618,134.995,135.395,134.995  c41.113,0,77.941-18.274,102.772-47.116C361.411,411.745,330.511,424.091,296.717,424.091z"/>
<path style="fill:#F0B0B7;" d="M303.828,288.728h-22.603c-4.395,0-7.956-3.562-7.956-7.956c0-4.394,3.561-7.956,7.956-7.956h22.603  c4.394,0,7.956,3.562,7.956,7.956C311.784,285.167,308.222,288.728,303.828,288.728z"/>
<path style="fill:#F3C74F;" d="M235.397,499.922c-7.864,0-15.19-4.983-17.804-12.856c-3.264-9.834,2.061-20.453,11.895-23.717  c6.485-2.152,10.864-6.327,13.016-12.404c2.562-7.233,1.221-15.205-1.428-19.342c-5.587-8.726-3.042-20.33,5.684-25.917  c8.726-5.587,20.33-3.042,25.917,5.684c9.392,14.67,11.384,34.634,5.197,52.103c-6.044,17.065-19.03,29.668-36.566,35.49  C239.349,499.614,237.356,499.922,235.397,499.922z"/>
<path style="fill:#0081C6;" d="M224.116,177.567c0.027,0.877-0.082,1.76-0.303,2.609c-2.918,11.178-7.798,18.83-15.311,26.343  c-7.48,7.48-14.778,12.134-26.004,15.095c-0.959,0.252-1.955,0.377-2.946,0.343c-23.66-0.806-42.479-20.685-41.566-44.745  c0.848-22.334,19.046-40.532,41.381-41.381C203.483,134.914,223.4,153.828,224.116,177.567z"/>
<circle style="fill:#F3C74F;" cx="181.042" cy="178.888" r="20.119"/>
<path style="opacity:0.2;enable-background:new    ;" d="M179.366,135.831c-22.334,0.848-40.532,19.046-41.381,41.381  c-0.913,24.06,17.906,43.939,41.566,44.745c0.991,0.034,1.987-0.09,2.946-0.343c11.227-2.96,18.524-7.614,26.004-15.095  c7.513-7.513,12.394-15.165,15.311-26.343c0.222-0.849,0.33-1.732,0.303-2.609C223.4,153.828,203.483,134.914,179.366,135.831z   M192.743,211.367c-0.959,0.252-1.955,0.377-2.946,0.343c-12.307-0.419-23.295-6.006-30.887-14.651  c3.681,0.177,7.346,0.802,10.909,1.888l31.38,9.56C198.62,209.602,195.834,210.552,192.743,211.367z"/>
<path style="fill:#8E78CF;" d="M82.378,207.956l66.61-20.293c8.518-2.596,17.617-2.596,26.136,0l69.326,21.12  c8.518,2.595,17.617,2.595,26.136,0l69.326-21.12c8.518-2.596,17.611-2.597,26.129-0.002c17.363,5.289,48.014,14.628,66.64,20.302  c7.932,2.417,15.74-3.982,15.009-12.242C439.069,98.262,357.217,21.84,257.517,21.84c-99.694,0-181.542,76.412-190.172,173.863  C66.613,203.971,74.439,210.375,82.378,207.956z"/>
<path style="opacity:0.1;enable-background:new    ;" d="M67.346,195.703c-0.732,8.268,7.093,14.67,15.033,12.252l7.685-2.341  c-2.671-2.359-4.31-5.909-3.957-9.903c8.001-90.344,78.41-162.745,167.833-173.828C155.873,23.687,75.872,99.421,67.346,195.703z   M264.681,208.9l-2.179,1.551c1.641-0.184,3.274-0.458,4.891-0.823C266.484,209.411,265.58,209.174,264.681,208.9z"/>
<path style="opacity:0.2;enable-background:new    ;" d="M257.517,21.84c-58.17,30.376-90.286,115.769-94.885,163.886  c4.212,0.054,8.418,0.695,12.49,1.936l69.326,21.12c8.518,2.595,17.617,2.595,26.136,0l69.326-21.12  c4.074-1.241,8.28-1.882,12.49-1.937C347.804,137.608,315.687,52.216,257.517,21.84z"/>
<path style="opacity:0.1;fill:#FFFFFF;enable-background:new    ;" d="M357.512,50.104c-5.749,7.966-9.147,17.74-9.147,28.315  c0,26.755,21.69,48.445,48.445,48.445c9.948,0,19.194-3.003,26.888-8.146C407.775,90.641,384.943,67.003,357.512,50.104z"/>
<path style="fill:#F3C74F;" d="M203.7,369.048c-0.147,0-0.29,0-0.437-0.001c-28.577-0.2-55.223-20.491-66.305-50.491  c-3.591-9.72,1.378-20.51,11.098-24.101c9.72-3.592,20.51,1.378,24.101,11.098c5.705,15.443,18.311,25.879,31.37,25.971  c0.056,0,0.114,0,0.171,0c12.855,0,23.861-10.195,31.005-28.731c3.727-9.668,14.585-14.485,24.254-10.759  c9.668,3.727,14.486,14.585,10.759,24.255C256.97,349.355,232.312,369.048,203.7,369.048z"/>
<path d="M438.956,61.304c0.92,0.345,1.863,0.508,2.791,0.508c3.222,0,6.254-1.971,7.451-5.166l11.981-31.971  c1.541-4.115-0.544-8.7-4.659-10.242c-4.114-1.541-8.7,0.543-10.242,4.658l-11.981,31.971  C432.756,55.177,434.842,59.762,438.956,61.304z M44.371,89.13c0.92,0.345,1.863,0.508,2.791,0.508c3.222,0,6.255-1.971,7.451-5.166  l11.98-31.97c1.542-4.115-0.543-8.7-4.658-10.242c-4.115-1.542-8.701,0.544-10.242,4.658l-11.981,31.97  C38.17,83.003,40.256,87.589,44.371,89.13z M121.334,408.704c-4.114-1.542-8.7,0.544-10.242,4.658l-11.981,31.97  c-1.542,4.115,0.543,8.7,4.658,10.242c0.92,0.345,1.863,0.508,2.791,0.508c3.222,0,6.255-1.971,7.451-5.166l11.981-31.97  C127.535,414.831,125.449,410.245,121.334,408.704z M51.304,324.69c-4.114-1.544-8.7,0.543-10.242,4.658l-11.981,31.971  c-1.542,4.115,0.543,8.7,4.658,10.242c0.92,0.345,1.863,0.508,2.791,0.508c3.222,0,6.255-1.971,7.451-5.166l11.981-31.97  C57.504,330.818,55.419,326.232,51.304,324.69z M112.521,266.527c1.542-4.115-0.543-8.7-4.658-10.242  c-4.115-1.541-8.7,0.543-10.242,4.658l-11.981,31.97c-1.542,4.115,0.543,8.7,4.658,10.242c0.92,0.345,1.863,0.508,2.791,0.508  c3.222,0,6.255-1.971,7.451-5.166L112.521,266.527z M450.53,408.704c-4.112-1.541-8.7,0.543-10.242,4.658l-11.98,31.97  c-1.541,4.115,0.544,8.701,4.659,10.242c0.92,0.345,1.863,0.508,2.791,0.508c3.222,0,6.255-1.972,7.451-5.166l11.98-31.97  C456.73,414.831,454.645,410.245,450.53,408.704z M478.26,246.93c-4.113-1.541-8.7,0.543-10.242,4.658l-11.981,31.971  c-1.541,4.115,0.544,8.7,4.659,10.242c0.92,0.345,1.863,0.508,2.791,0.508c3.222,0,6.254-1.971,7.451-5.166l11.981-31.971  C484.461,253.057,482.375,248.472,478.26,246.93z M430.364,215.574c6.239,1.902,12.99,0.583,18.054-3.525  c5.086-4.128,7.777-10.494,7.198-17.028c-4.361-49.31-26.902-94.994-63.47-128.642c-34.833-32.051-79.55-50.457-126.67-52.326V7.956  c0-4.394-3.561-7.956-7.956-7.956c-4.394,0-7.956,3.562-7.956,7.956v6.098c-47.119,1.867-91.835,20.27-126.668,52.319  c-36.567,33.643-59.109,79.325-63.475,128.629c-0.579,6.537,2.113,12.904,7.201,17.034c5.07,4.115,11.826,5.436,18.076,3.532  l49.999-15.232c4.684,10.184,12.508,18.376,22.133,23.539c-9.353,22.175-15.371,45.211-17.21,66.054  c-4.019,2.703-7.253,6.439-9.331,10.951c-2.985,6.482-3.267,13.739-0.795,20.434c4.065,11.005,10.064,20.816,17.422,29.031  c14.367,41.267,47.189,73.939,88.514,88.215c0.651,2.584,0.813,6.237-0.424,9.731c-1.327,3.747-3.876,6.133-8.024,7.51  c-13.982,4.642-21.581,19.794-16.939,33.775c3.634,10.949,13.824,18.306,25.355,18.306c2.86,0,5.693-0.459,8.421-1.365  c19.919-6.612,34.679-20.955,41.558-40.385c2.275-6.425,3.55-13.159,3.887-19.893c3.974-0.189,7.905-0.54,11.789-1.046  c5.871,10.859,10.991,24.805,8.826,33.896c-1.655,6.942-0.507,14.113,3.233,20.193c3.739,6.079,9.623,10.337,16.566,11.991  c2.038,0.486,4.127,0.731,6.207,0.731c12.415,0,23.095-8.443,25.974-20.53c5.453-22.89-1.41-46.043-9.5-63.306  c43.735-24.507,73.353-71.221,73.353-124.71c0-29.997-9.558-65.184-26.056-97.234L430.364,215.574z M80.06,200.344  c-1.641,0.5-2.841-0.203-3.411-0.665c-0.581-0.472-1.533-1.524-1.378-3.275c4.016-45.348,24.756-87.369,58.399-118.323  c33.843-31.138,77.827-48.286,123.848-48.286c46.025,0,90.011,17.15,123.854,48.291c33.643,30.957,54.381,72.982,58.393,118.335  c0.155,1.748-0.795,2.8-1.375,3.269c-0.565,0.459-1.755,1.155-3.389,0.66l-66.64-20.302c-10.061-3.066-20.702-3.066-30.767,0.001  l-69.326,21.121c-7.034,2.143-14.467,2.141-21.499,0l-69.326-21.121c-5.034-1.533-10.209-2.3-15.386-2.3  c-5.176,0-10.353,0.767-15.385,2.3L80.06,200.344z M150.145,195.627l1.162-0.353c1.999-0.609,4.032-1.025,6.079-1.288  c5.086,7.945,13.97,12.979,23.66,12.979c5.478,0,10.76-1.587,15.279-4.526l3.716,1.132c-5.901,5.254-11.664,8.264-19.573,10.349  c-0.294,0.079-0.509,0.089-0.646,0.085C167.121,213.572,155.972,206.444,150.145,195.627z M171.888,229.113  c2.414,0.434,4.881,0.709,7.392,0.795c0.197,0.006,0.396,0.011,0.594,0.011c1.549,0,3.111-0.205,4.652-0.611  c11.999-3.163,20.576-8.136,29.603-17.162c1.12-1.12,2.156-2.223,3.143-3.325l24.861,7.574c2.448,0.746,4.931,1.307,7.43,1.69  v64.882c-9.709,0.983-18.541,7.256-22.284,16.966c-3.403,8.827-10.99,23.635-23.582,23.635h-0.115  c-9.615-0.068-19.469-8.609-23.962-20.772c-2.473-6.695-7.405-12.026-13.886-15.011c-3.077-1.417-6.329-2.217-9.612-2.41  C158.383,267.446,163.831,247.976,171.888,229.113z M144.42,315.798c-2.064-5.588,0.803-11.816,6.393-13.881  c1.22-0.451,2.487-0.676,3.75-0.676c1.539,0,3.073,0.333,4.513,0.996c2.621,1.207,4.617,3.364,5.616,6.071  c6.844,18.529,22.428,31.055,38.76,31.169l0.243,0.001c16.374,0,30.022-12.013,38.43-33.826c2.143-5.559,8.41-8.338,13.969-6.196  c2.693,1.038,4.822,3.063,5.991,5.701c1.171,2.638,1.243,5.575,0.205,8.268c-11.504,29.845-33.407,47.664-58.59,47.664l-0.381-0.001  C178.032,360.912,154.363,342.711,144.42,315.798z M270.376,460.817c-5.204,14.698-16.417,25.564-31.574,30.594  c-1.108,0.368-2.253,0.555-3.405,0.555c-4.662,0-8.782-2.977-10.253-7.407c-1.878-5.655,1.197-11.783,6.851-13.659  c8.81-2.924,15.038-8.906,18.011-17.3c3.593-10.145,1.47-20.512-2.227-26.287c-1.556-2.43-2.074-5.322-1.455-8.141  s2.298-5.229,4.729-6.785c1.8-1.153,3.816-1.703,5.809-1.703c3.563,0,7.057,1.759,9.118,4.975  C274.077,428.308,275.763,445.611,270.376,460.817z M346.379,487.781c-1.165,4.889-5.48,8.305-10.496,8.305  c-0.841,0-1.689-0.101-2.52-0.298c-2.808-0.668-5.187-2.391-6.699-4.849c-1.513-2.458-1.976-5.358-1.307-8.167  c3.234-13.585-2.777-29.91-8.026-40.679c7.138-1.791,14.069-4.111,20.739-6.927C349.382,459.335,348.958,476.956,346.379,487.781z   M409.799,303.453c0,68.074-53.991,123.808-121.527,126.898c-1.479-8.358-4.448-16.33-8.892-23.271  c-3.849-6.01-9.806-10.162-16.777-11.69c-6.97-1.53-14.122-0.251-20.13,3.597c-6.011,3.849-10.163,9.807-11.691,16.778  c-0.266,1.211-0.441,2.429-0.539,3.645c-23.224-10.394-42.79-27.534-56.152-48.928c9.16,4.151,19.025,6.451,29.117,6.522  l0.493,0.001c32.022,0,59.474-21.627,73.438-57.854c2.567-6.659,2.387-13.92-0.507-20.443c-2.338-5.27-6.24-9.524-11.157-12.328  v-68.295c2.499-0.383,4.982-0.944,7.43-1.69l69.326-21.121c7.033-2.142,14.464-2.143,21.493-0.001l13.985,4.26  C397.838,232.863,409.799,271.494,409.799,303.453z M292.526,239.662c-4.395,0-7.956,3.562-7.956,7.956v3.707  c0,4.394,3.561,7.956,7.956,7.956c4.395,0,7.956-3.562,7.956-7.956v-3.707C300.482,243.224,296.921,239.662,292.526,239.662z   M372.035,257.103c0-4.394-3.562-7.956-7.956-7.956c-4.395,0-7.956,3.562-7.956,7.956c0,2.926-2.379,5.306-5.305,5.306  s-5.306-2.38-5.306-5.306c0-4.394-3.561-7.956-7.956-7.956c-4.395,0-7.956,3.562-7.956,7.956c0,11.7,9.519,21.219,21.219,21.219  c5.014,0,9.626-1.748,13.261-4.667c3.635,2.918,8.248,4.667,13.263,4.667c11.7,0,21.219-9.519,21.219-21.219  c0-4.394-3.562-7.956-7.956-7.956c-4.395,0-7.956,3.562-7.956,7.956c0,2.926-2.38,5.306-5.306,5.306S372.035,260.03,372.035,257.103  z"/>
<g>
</g>
<g>
</g>
<g>
</g>
<g>
</g>
<g>
</g>
<g>
</g>
<g>
</g>
<g>
</g>
<g>
</g>
<g>
</g>
<g>
</g>
<g>
</g>
<g>
</g>
<g>
</g>
<g>
</g>
</svg>
