<?xml version="1.0" encoding="iso-8859-1"?>
<!-- Generator: Adobe Illustrator 19.0.0, SVG Export Plug-In . SVG Version: 6.00 Build 0)  -->
<svg xmlns="http://www.w3.org/2000/svg" xmlns:xlink="http://www.w3.org/1999/xlink" version="1.1" id="Capa_1" x="0px" y="0px" viewBox="0 0 512 512" style="enable-background:new 0 0 512 512;" xml:space="preserve">
<g>
	<path style="fill:#F29C1F;" d="M87.303,246.454c-10.214,29.774-17.26,60.555-21.001,91.813   c-26.286-1.701-46.21-24.394-44.509-50.679c1.631-25.105,22.476-44.622,47.633-44.605   C75.562,242.957,81.628,244.137,87.303,246.454z"/>
	<path style="fill:#F29C1F;" d="M490.308,290.712c0.035,25.409-19.916,46.358-45.299,47.555   c-3.705-31.18-10.743-61.874-21.001-91.553c5.884-2.439,12.193-3.705,18.571-3.732c26.346-0.017,47.711,21.33,47.729,47.677   C490.308,290.677,490.308,290.695,490.308,290.712z"/>
</g>
<path style="fill:#F0C419;" d="M436.071,243.504c-3.298-13.624-7.376-27.596-12.149-41.654c-1.215-3.471-2.43-7.029-3.732-10.5  h-0.087c-4.426-12.496-9.459-24.906-14.926-37.142c-8.938,5.901-17.009,10.761-24.298,14.926c-0.087,0.087-0.087,0.087-0.174,0.087  c-0.165,0.191-0.373,0.338-0.607,0.434c-0.174,0.087-0.347,0.26-0.607,0.434c-26.381,17.79-71.767,29.505-123.487,29.505  s-97.106-11.715-123.487-29.505c-0.26-0.174-0.434-0.347-0.607-0.434c-0.234-0.095-0.443-0.243-0.607-0.434  c-0.087,0-0.087,0-0.174-0.087c-7.289-4.165-15.273-9.025-24.212-14.926c-0.955,1.996-1.909,4.079-2.777,6.075  c-4.426,10.153-8.504,20.48-12.236,30.807c-1.388,3.558-2.603,7.203-3.818,10.761c-4.773,14.058-8.852,28.03-12.149,41.654  c-6.639,25.348-10.283,51.382-10.847,77.581C65.088,426.522,150.566,512,256.003,512s190.915-85.478,190.915-190.915  C446.354,294.886,442.718,268.852,436.071,243.504z"/>
<path style="fill:#C03A2B;" d="M429.562,173.559h-8.678v-26.034C420.893,66.057,354.854,0.009,273.385,0c-0.009,0-0.017,0-0.026,0  h-34.712C157.178-0.009,91.13,66.031,91.122,147.499c0,0.009,0,0.017,0,0.026v26.034h-8.678c-23.96,0.009-43.381,19.43-43.39,43.39  v26.034h433.898v-26.034C472.943,192.989,453.522,173.568,429.562,173.559z"/>
<path style="fill:#E64C3C;" d="M305.033,173.559h124.529c23.96,0.009,43.381,19.43,43.39,43.39v26.034H39.054v-26.034  c0.009-23.96,19.43-43.381,43.39-43.39h124.529"/>
<circle style="fill:#F5EFCA;" cx="256.003" cy="156.203" r="52.068"/>
<path style="fill:#2C2F38;" d="M316.08,419.328c-0.816,1.909-1.666,3.766-2.647,5.571c-0.165,0.312-0.364,0.616-0.529,0.876  c-5.684,10.301-14.041,18.875-24.203,24.819c-0.694,0.417-1.38,0.824-2.074,1.189c-19.716,11.281-44.041,10.821-63.323-1.189  c-0.174-0.087-0.338-0.191-0.486-0.312c-4.782-2.838-9.181-6.274-13.095-10.214c-4.625-4.677-8.513-10.032-11.507-15.889  c-0.859-1.571-1.631-3.193-2.317-4.851c-1.779-4.139,0.13-8.938,4.278-10.717c2.048-0.885,4.374-0.885,6.422-0.009  c31.536,13.555,67.254,13.555,98.79,0c4.139-1.77,8.93,0.148,10.709,4.287C316.966,414.946,316.966,417.271,316.08,419.328z"/>
<path style="fill:#2FA8CC;" d="M171.835,312.494c0.573-0.069,1.154-0.104,1.736-0.087c16.861-0.087,30.607,13.512,30.703,30.373  s-13.512,30.607-30.373,30.703c-16.861,0.087-30.607-13.512-30.703-30.373c-0.052-9.485,4.313-18.458,11.802-24.281"/>
<path style="fill:#2C3E50;" d="M125.842,338.441c-4.79,0-8.678-3.888-8.678-8.687c0-3.619,2.248-6.856,5.632-8.123l69.424-26.034  c4.478-1.71,9.494,0.538,11.203,5.016c1.71,4.478-0.538,9.494-5.016,11.203c-0.035,0.009-0.061,0.026-0.095,0.035l-69.424,26.034  C127.916,338.258,126.883,338.441,125.842,338.441z"/>
<path style="fill:#2FA8CC;" d="M357.023,318.828c13.182,10.301,15.525,29.34,5.224,42.522c-10.301,13.182-29.34,15.525-42.522,5.224  c-13.182-10.301-15.525-29.34-5.224-42.522c5.762-7.368,14.596-11.663,23.951-11.646c0.581-0.017,1.163,0.017,1.736,0.087"/>
<path style="fill:#2C3E50;" d="M386.181,338.441c-1.041,0-2.074-0.191-3.046-0.555l-69.424-26.034  c-4.478-1.71-6.725-6.725-5.016-11.203c1.692-4.443,6.647-6.691,11.108-5.051l69.424,26.034c4.487,1.684,6.76,6.691,5.077,11.177  C393.037,336.202,389.8,338.441,386.181,338.441z"/>
<g>
</g>
<g>
</g>
<g>
</g>
<g>
</g>
<g>
</g>
<g>
</g>
<g>
</g>
<g>
</g>
<g>
</g>
<g>
</g>
<g>
</g>
<g>
</g>
<g>
</g>
<g>
</g>
<g>
</g>
</svg>
