<?xml version="1.0" encoding="iso-8859-1"?>
<!-- Generator: Adobe Illustrator 19.0.0, SVG Export Plug-In . SVG Version: 6.00 Build 0)  -->
<svg xmlns="http://www.w3.org/2000/svg" xmlns:xlink="http://www.w3.org/1999/xlink" version="1.1" id="Capa_1" x="0px" y="0px" viewBox="0 0 512.002 512.002" style="enable-background:new 0 0 512.002 512.002;" xml:space="preserve">
<path style="fill:#F3C74F;" d="M90.2,339.591c-22.362,0-43.582-9.048-59.603-25.745c-8.86-9.234-8.556-23.903,0.678-32.763  c9.233-8.86,23.902-8.557,32.763,0.678c11.535,12.023,24.838,12.098,31.741,11.07c12.658-1.882,24.055-10.014,29.742-21.223  c5.79-11.414,19.735-15.973,31.149-10.179c11.413,5.79,15.97,19.737,10.179,31.149c-12.556,24.748-36.577,41.979-64.255,46.094  C98.442,339.287,94.3,339.591,90.2,339.591z"/>
<path style="opacity:0.2;enable-background:new    ;" d="M156.669,261.426c-11.415-5.792-25.36-1.234-31.149,10.179  c-3.562,7.02-9.365,12.833-16.313,16.659c1.914,15.933,6.076,31.175,12.17,45.401c19.536-7.625,35.863-22.153,45.471-41.091  C172.64,281.163,168.082,267.216,156.669,261.426z"/>
<path style="fill:#F3C74F;" d="M338.247,492.319c-12.798,0-23.173-10.374-23.173-23.173v-87.747  c0-12.798,10.374-23.173,23.173-23.173c12.798,0,23.173,10.374,23.173,23.173v87.747  C361.419,481.945,351.045,492.319,338.247,492.319z"/>
<path style="opacity:0.2;enable-background:new    ;" d="M338.247,358.228c-12.798,0-23.173,10.374-23.173,23.173v48.598  c16.362-2.612,31.932-7.586,46.344-14.57V381.4C361.419,368.602,351.045,358.228,338.247,358.228z"/>
<path style="fill:#F3C74F;" d="M238.606,492.319c-12.798,0-23.173-10.374-23.173-23.173v-87.747  c0-12.798,10.374-23.173,23.173-23.173c12.797,0,23.171,10.374,23.171,23.173v87.747  C261.779,481.945,251.405,492.319,238.606,492.319z"/>
<path style="opacity:0.2;enable-background:new    ;" d="M238.606,358.228c-12.798,0-23.173,10.374-23.173,23.173v34.028  c14.412,6.983,29.982,11.958,46.344,14.57V381.4C261.779,368.602,251.405,358.228,238.606,358.228z"/>
<path style="fill:#F3C74F;" d="M480.755,392.679c-12.798,0-23.173-10.374-23.173-23.173c0-20.682-1.169-36.985-6.874-49.33  c-7.443-16.108-22.549-22.936-34.878-27.084c-12.129-4.082-18.654-17.222-14.572-29.352c4.082-12.129,17.222-18.652,29.352-14.572  c67.65,22.764,73.316,74.051,73.316,120.337C503.927,382.305,493.553,392.679,480.755,392.679z"/>
<circle style="fill:#0081C6;" cx="416.789" cy="93.087" r="53.217"/>
<circle style="fill:#F3C74F;" cx="416.789" cy="93.087" r="24.843"/>
<circle style="fill:#0081C6;" cx="160.07" cy="93.087" r="53.217"/>
<circle style="fill:#F3C74F;" cx="160.07" cy="93.087" r="24.843"/>
<path style="opacity:0.2;enable-background:new    ;" d="M191.526,50.174c-25.023,22.615-46.246,53.746-61.321,86.976  c8.514,5.782,18.792,9.163,29.86,9.163c29.393,0,53.22-23.828,53.22-53.22C213.284,75.472,204.716,59.86,191.526,50.174z"/>
<path style="fill:#40BAB3;" d="M455.648,244.416c0-92.081-76.765-224.732-167.22-224.732s-167.22,132.652-167.22,224.732  s74.867,166.726,167.22,166.726S455.648,336.496,455.648,244.416z"/>
<g>
	<path style="fill:#F0B0B7;" d="M304.807,203.552c-9.046,0-16.379-7.333-16.379-16.379c0,9.046-7.333,16.379-16.379,16.379   c-4.568,0-8.695-1.874-11.666-4.89v8.076c0,15.489,12.556,28.045,28.045,28.045s28.045-12.556,28.045-28.045v-8.076   C313.502,201.678,309.375,203.552,304.807,203.552z"/>
	<path style="fill:#F0B0B7;" d="M204.842,224.477h-27.916c-4.458,0-8.073-3.615-8.073-8.073s3.615-8.073,8.073-8.073h27.916   c4.458,0,8.073,3.615,8.073,8.073S209.301,224.477,204.842,224.477z"/>
	<path style="fill:#F0B0B7;" d="M399.928,224.477h-27.916c-4.458,0-8.073-3.615-8.073-8.073s3.615-8.073,8.073-8.073h27.916   c4.458,0,8.073,3.615,8.073,8.073S404.387,224.477,399.928,224.477z"/>
</g>
<path style="fill:#FFFFFF;" d="M124.023,274.994c14.405,77.474,82.528,136.148,164.405,136.148s149.999-58.673,164.405-136.148  H124.023L124.023,274.994z"/>
<path style="fill:#0081C6;" d="M153.624,343.068c30.435,41.28,79.476,68.074,134.802,68.074c55.326,0,104.367-26.795,134.802-68.074  H153.624z"/>
<path style="opacity:0.2;enable-background:new    ;" d="M306.158,393.41c-92.353,0-167.22-74.646-167.22-166.726  c0-55.435,27.83-125.564,69.712-172.611c-51.581,45.533-87.445,127.409-87.445,190.342c0,92.081,74.867,166.726,167.22,166.726  c50.777,0,96.262-22.57,126.93-58.191C386.059,378.162,347.896,393.41,306.158,393.41z"/>
<path style="fill:#394049;" d="M165.933,146.669l10.743-40.094c1.658-6.185-2.014-12.543-8.199-14.201l-29.692-7.956  c-27.532-7.378-55.832,8.962-63.209,36.494l-22.732,84.836c-7.378,27.532,8.962,55.832,36.494,63.209l29.692,7.956  c6.185,1.658,12.543-2.013,14.201-8.199l10.743-40.094c1.658-6.185-2.013-12.543-8.199-14.201l-13.842-3.709  c-10.206-2.735-16.264-13.227-13.529-23.433l6.053-22.59c2.735-10.206,13.227-16.264,23.433-13.529l13.842,3.709  C157.918,156.525,164.275,152.854,165.933,146.669z"/>
<path style="opacity:0.3;enable-background:new    ;" d="M123.694,266.149l-29.692-7.956c-22.557-6.044-39.946-28.286-41.442-51.268  c-6.609,27.157,9.638,54.76,36.778,62.032l29.692,7.956c6.185,1.658,12.543-2.013,14.201-8.199l1.437-5.362  C131.838,266.032,127.734,267.232,123.694,266.149z M154.689,143.924l-13.842-3.709c-10.207-2.735-20.698,3.323-23.433,13.529  l-1.301,6.821c4.11-7.633,13.04-11.748,21.779-9.407l13.842,3.709c6.185,1.658,12.543-2.013,14.201-8.199l2.815-10.503  C166.91,142.079,160.723,145.541,154.689,143.924z"/>
<path style="opacity:0.1;fill:#FFFFFF;enable-background:new    ;" d="M168.477,92.375l-29.692-7.956  c-5.519-1.479-11.065-1.989-16.471-1.663c-0.013,0.414-0.031,0.828-0.031,1.244c0,22.588,18.31,40.899,40.899,40.899  c3.039,0,5.995-0.341,8.845-0.97l4.65-17.354C178.333,100.389,174.662,94.032,168.477,92.375z"/>
<path style="fill:#F3C74F;" d="M47.32,320.975c-6.091,0-12.173-2.386-16.724-7.129c-17.489-18.231-25.53-45.856-21.507-73.901  c3.979-27.739,19.498-51.247,42.577-64.496c11.099-6.371,25.262-2.539,31.633,8.559c6.371,11.099,2.539,25.261-8.559,31.633  c-14.55,8.353-18.634,22.935-19.775,30.885c-1.954,13.621,1.608,27.451,9.075,35.233c8.861,9.234,8.556,23.903-0.678,32.763  C58.869,318.833,53.09,320.975,47.32,320.975z"/>
<path d="M385.97,167.385c-4.458,0-8.073,3.615-8.073,8.073v4.577c0,4.458,3.615,8.073,8.073,8.073s8.073-3.615,8.073-8.073v-4.577  C394.043,170.998,390.428,167.385,385.97,167.385z M190.884,167.385c-4.458,0-8.073,3.615-8.073,8.073v4.577  c0,4.458,3.615,8.073,8.073,8.073s8.073-3.615,8.073-8.073v-4.577C198.956,170.998,195.342,167.385,190.884,167.385z   M503.843,306.781c-7.603-21.893-20.879-38.666-40.494-51.145c0.237-3.711,0.371-7.451,0.371-11.221  c0-29.547-7.655-63.308-21.098-95.747c21.249-9.933,35.461-31.648,35.461-55.576c0-33.797-27.496-61.293-61.293-61.293  c-16.009,0-31.029,6.129-42.37,17.023c-5.605-5.016-11.316-9.577-17.088-13.597c-22.493-15.669-45.676-23.614-68.904-23.614  c-29.497,0-59.025,12.929-86.066,37.141C191.029,37.902,176.04,31.8,160.065,31.8c-28.99,0-53.962,20.527-59.928,48.453  c-15.389,7.22-27.624,20.906-32.358,38.571l-12.457,46.493c-2.627,0.685-5.209,1.718-7.675,3.132  c-25.25,14.495-42.216,40.136-46.55,70.351c-4.372,30.483,4.478,60.628,23.675,80.636c17.467,18.204,40.702,28.229,65.427,28.229  c4.504,0,9.073-0.339,13.582-1.01c12.115-1.801,23.843-5.989,34.38-12.223c16.694,27.591,40.758,50.03,69.201,64.876v69.839  c0,17.229,14.017,31.244,31.245,31.244s31.244-14.016,31.244-31.244v-50.923c6.117,0.651,12.314,0.991,18.575,0.991  c6.274,0,12.47-0.338,18.575-0.982v50.913c0,17.229,14.016,31.244,31.244,31.244s31.245-14.016,31.245-31.244v-69.785  c31.801-16.611,57.885-42.669,74.482-74.416c4.567,10.895,5.537,25.746,5.537,44.56c0,17.229,14.016,31.245,31.244,31.245  c17.229,0,31.245-14.017,31.245-31.245C512,350.103,511.031,327.479,503.843,306.781z M416.789,47.946  c24.894,0,45.147,20.252,45.147,45.147c0,17.537-10.358,33.461-25.873,40.827c-1.752-3.686-3.584-7.339-5.48-10.958  c11.309-5.264,19.126-16.765,19.126-29.87c0-18.152-14.768-32.92-32.92-32.92c-8.573,0-16.551,3.258-22.539,8.899  c-2.696-3.114-5.434-6.13-8.213-9.024C394.339,52.294,405.214,47.946,416.789,47.946z M422.683,108.796  c-3.201-5.4-6.551-10.691-10.059-15.828c-2.644-3.873-5.367-7.629-8.146-11.284c3.124-3.384,7.536-5.367,12.31-5.367  c9.249,0,16.774,7.525,16.774,16.774C433.563,100.203,429.052,106.391,422.683,108.796z M160.064,47.946  c11.546,0,22.399,4.326,30.692,12.043c-2.765,2.89-5.495,5.913-8.193,9.046c-5.984-5.618-13.942-8.862-22.499-8.862  c-11.315,0-21.519,5.667-27.515,14.849c-4.668-0.564-9.309-0.558-13.846-0.038C125.75,58.963,141.83,47.946,160.064,47.946z   M172.362,81.672c-0.705,0.932-1.408,1.872-2.108,2.821l-19.662-5.269c2.722-1.858,5.995-2.906,9.473-2.906  C164.833,76.318,169.24,78.295,172.362,81.672z M83.374,123.002c6.213-23.189,30.136-36.999,53.322-30.786l29.692,7.957  c1.226,0.328,1.865,1.169,2.138,1.64c0.272,0.471,0.68,1.447,0.352,2.672l-10.743,40.094c-0.328,1.226-1.169,1.865-1.64,2.139  c-0.471,0.272-1.447,0.682-2.672,0.352l-13.843-3.709c-14.49-3.885-29.437,4.748-33.321,19.238l-6.054,22.59  c-3.883,14.49,4.747,29.438,19.237,33.321l13.842,3.709c1.875,0.503,2.992,2.438,2.49,4.313l-10.743,40.094  c-0.328,1.226-1.169,1.865-1.64,2.138c-0.471,0.273-1.447,0.682-2.673,0.352l-29.691-7.956  c-11.444-3.067-21.007-10.577-26.729-20.83c2.053-6.069,6.097-13.116,14.058-17.686c14.941-8.578,20.119-27.712,11.542-42.653  c-4.175-7.273-10.855-12.225-18.334-14.411L83.374,123.002z M130.151,158.948c-5.049,13.481-9.026,26.936-11.874,40.201  c-2.129-2.657-3.023-6.248-2.075-9.782l6.054-22.59C123.32,162.805,126.433,159.925,130.151,158.948z M104.826,281.465  c-3.189,1.688-6.654,2.846-10.236,3.379c-6.546,0.975-16.151,0.263-24.726-8.674c-2.752-2.869-4.815-7.015-6.046-11.771  c6.694,5.748,14.659,10.006,23.432,12.357L104.826,281.465z M101.408,330.684c-3.724,0.553-7.495,0.834-11.207,0.834  c-20.286,0-39.384-8.261-53.778-23.262c-15.784-16.452-23.015-41.561-19.344-67.165c3.624-25.263,17.695-46.637,38.604-58.641  c7.224-4.145,16.469-1.644,20.613,5.577c4.145,7.221,1.643,16.468-5.578,20.613c-17.52,10.058-22.399,27.336-23.746,36.739  c-2.328,16.234,1.978,32.315,11.241,41.968c14.052,14.646,30.312,14.722,38.753,13.465c8.196-1.218,15.977-4.622,22.506-9.683  c2.808,10.125,6.501,19.849,10.98,29.1C121.577,325.577,111.658,329.16,101.408,330.684z M253.706,469.147  c0,8.326-6.774,15.099-15.099,15.099c-8.326,0-15.1-6.774-15.1-15.099v-62.424c9.7,3.875,19.798,6.911,30.198,9.017L253.706,469.147  L253.706,469.147z M353.346,469.147c0,8.326-6.774,15.099-15.1,15.099c-8.326,0-15.099-6.774-15.099-15.099v-53.381  c10.429-2.098,20.525-5.123,30.198-8.982V469.147z M288.427,403.069c-73.602,0-137.738-50.752-154.756-121.51  c3.602-2.635,6.186-6.383,7.358-10.755l10.743-40.094c2.806-10.475-3.433-21.281-13.907-24.087l-4.407-1.181  c2.898-14.349,7.223-28.98,12.892-43.658l3.294,0.883c5.073,1.358,10.373,0.662,14.924-1.965c4.55-2.626,7.804-6.868,9.163-11.943  l10.743-40.094c1.282-4.788,0.711-9.768-1.562-14.138c31.643-43.106,68.947-66.768,105.514-66.768  c38.213,0,78.622,27.087,110.864,74.315c29.783,43.625,48.284,98.168,48.284,142.344  C447.575,331.897,376.181,403.069,288.427,403.069z M480.754,384.606c-8.326,0-15.099-6.774-15.099-15.1  c0-21.747-1.296-39.034-7.619-52.716c-1.61-3.484-3.61-6.749-5.952-9.765c4.091-10.599,7.175-21.693,9.135-33.164  c31.749,24.507,34.634,61.929,34.634,95.645C495.854,377.832,489.08,384.606,480.754,384.606z M321.186,179.098  c-4.458,0-8.073,3.615-8.073,8.073c0,4.58-3.726,8.306-8.307,8.306s-8.307-3.726-8.307-8.306c0-4.458-3.615-8.073-8.073-8.073  s-8.073,3.615-8.073,8.073c0,4.58-3.726,8.306-8.306,8.306c-4.58,0-8.306-3.726-8.306-8.306c0-4.458-3.615-8.073-8.073-8.073  s-8.073,3.615-8.073,8.073c0,5.385,1.753,10.366,4.714,14.41v5.157c0,19.915,16.203,36.118,36.118,36.118  s36.118-16.203,36.118-36.118v-5.157c2.961-4.044,4.714-9.026,4.714-14.41C329.259,182.713,325.644,179.098,321.186,179.098z   M288.427,226.711c-9.394,0-17.273-6.527-19.392-15.279c0.988,0.122,1.992,0.193,3.013,0.193c6.295,0,12.042-2.391,16.379-6.312  c4.339,3.921,10.085,6.312,16.379,6.312c1.02,0,2.025-0.07,3.013-0.193C305.7,220.184,297.821,226.711,288.427,226.711z"/>
<g>
</g>
<g>
</g>
<g>
</g>
<g>
</g>
<g>
</g>
<g>
</g>
<g>
</g>
<g>
</g>
<g>
</g>
<g>
</g>
<g>
</g>
<g>
</g>
<g>
</g>
<g>
</g>
<g>
</g>
</svg>
