<?xml version="1.0" encoding="iso-8859-1"?>
<!-- Generator: Adobe Illustrator 19.0.0, SVG Export Plug-In . SVG Version: 6.00 Build 0)  -->
<svg xmlns="http://www.w3.org/2000/svg" xmlns:xlink="http://www.w3.org/1999/xlink" version="1.1" id="Layer_1" x="0px" y="0px" viewBox="0 0 511.999 511.999" style="enable-background:new 0 0 511.999 511.999;" xml:space="preserve">
<polygon style="fill:#E24260;" points="385.301,95.349 385.301,490.314 126.693,490.314 126.693,95.349 151.394,87.634   196.955,73.408 315.05,73.408 "/>
<path style="fill:#CE2647;" d="M294.677,490.314H126.693V95.349l24.701-7.715C151.394,87.634,133.912,440.265,294.677,490.314z"/>
<g>
	<rect x="196.952" y="21.689" style="fill:#52BED3;" width="118.096" height="51.718"/>
	<polyline style="fill:#52BED3;" points="126.698,95.353 7.583,205.063 51.468,275.591 126.698,242.678  "/>
	<polyline style="fill:#52BED3;" points="385.301,95.353 504.416,205.063 460.531,275.591 385.301,242.678  "/>
</g>
<path style="fill:#E24260;" d="M473.57,254.637l-13.043,20.95l-75.226-32.911v-49.615  C385.301,193.061,437.302,191.666,473.57,254.637z"/>
<path style="fill:#52BED3;" d="M318.933,490.314h-62.931V344.716C323.109,411.822,318.933,490.314,318.933,490.314z"/>
<path style="fill:#2DADC1;" d="M385.301,95.349v252.401c-46.47-47.653-67.41-114.628-56.338-180.269l14.368-85.236L385.301,95.349z"/>
<path style="fill:#52BED3;" d="M385.301,347.749c-46.47-47.653-67.41-114.628-56.338-180.269l14.368-85.236"/>
<path style="fill:#2DADC1;" d="M256.002,344.716c67.107,67.107,62.931,145.598,62.931,145.598"/>
<path style="fill:#E24260;" d="M38.425,254.637l13.043,20.95l75.226-32.911v-49.615C126.694,193.061,74.693,191.666,38.425,254.637z  "/>
<g>
	<path style="fill:#52BED3;" d="M255.992,344.716v145.598h-62.931c0,0-1.79-33.72,15.874-75.863   C218.217,392.308,232.878,367.829,255.992,344.716z"/>
	<path style="fill:#52BED3;" d="M166.398,290.278c-9.787,20.99-23.124,40.464-39.706,57.471V95.349l24.701-7.715l17.27-5.389   l14.368,85.236C190.149,209.694,184.032,252.463,166.398,290.278z"/>
</g>
<g>
	<path style="fill:#2DADC1;" d="M166.398,290.278c-9.787,20.99-23.124,40.464-39.706,57.471V95.349l24.701-7.715   C151.394,87.634,146.389,188.693,166.398,290.278z"/>
	<path style="fill:#2DADC1;" d="M255.992,470.304v20.01h-62.931c0,0-1.79-33.72,15.874-75.863   C221.665,436.847,237.155,456.119,255.992,470.304z"/>
</g>
<path d="M510.854,209.069c1.924-3.093,1.377-7.117-1.301-9.584L390.439,89.774c-0.057-0.053-0.121-0.091-0.183-0.133  c-0.772-0.67-1.672-1.208-2.693-1.527l-64.932-20.281V21.689c0-4.188-3.394-7.583-7.583-7.583H196.95  c-4.189,0-7.583,3.395-7.583,7.583v46.145l-64.931,20.28c-1.02,0.318-1.92,0.855-2.693,1.526c-0.063,0.043-0.126,0.082-0.184,0.134  l-58.971,54.315c-3.081,2.837-3.278,7.635-0.441,10.716c1.495,1.623,3.534,2.446,5.58,2.446c1.836,0,3.678-0.663,5.135-2.005  l46.251-42.6v73.346c-15.612,1.954-51.546,11.21-80.67,54.312l-21.105-33.918l34.277-31.572c3.081-2.837,3.278-7.635,0.441-10.716  c-2.837-3.081-7.635-3.278-10.716-0.441L2.446,199.485c-2.678,2.468-3.225,6.491-1.301,9.584l30.815,49.525  c0.006,0.01,0.013,0.02,0.019,0.03l13.049,20.973c1.423,2.286,3.891,3.578,6.443,3.578c1.018,0,2.051-0.206,3.035-0.637  l64.607-28.266V490.31c0,4.188,3.394,7.583,7.583,7.583H385.3c4.189,0,7.583-3.395,7.583-7.583V254.272l64.607,28.266  c0.985,0.431,2.017,0.637,3.036,0.637c2.551,0,5.019-1.292,6.442-3.578l13.044-20.964c0.01-0.016,0.02-0.031,0.029-0.048  L510.854,209.069z M473.556,240.305c-29.13-43.11-65.059-52.36-80.672-54.312v-73.346l101.776,93.741L473.556,240.305z   M307.465,65.827h-43.882V29.272h43.882V65.827z M204.533,29.272h43.883v36.554h-43.883V29.272z M162.634,92.073l12.925,76.671  c9.529,56.517-5.828,114.569-41.278,158.952V100.929L162.634,92.073z M54.44,266.014l-7.131-11.462  c13.675-22.308,30.845-38.123,51.095-47.022c8.36-3.673,15.649-5.386,20.711-6.186v36.374L54.44,266.014z M134.281,350.77  c46.471-49.073,67.486-117.804,56.233-184.549l-13.27-78.712l20.862-6.516h50.31v260.637c-19.995,20.538-35.632,44.03-46.474,69.889  c-1.62,3.862,0.199,8.306,4.063,9.926c0.958,0.401,1.951,0.591,2.928,0.591c2.964,0,5.778-1.748,6.997-4.653  c8.049-19.202,18.95-37.011,32.487-53.158v118.501h-47.702c0.316-7.286,1.441-19.619,5.134-34.758c0.993-4.069-1.5-8.172-5.57-9.165  c-4.064-0.99-8.172,1.5-9.164,5.57c-4.091,16.767-5.284,30.325-5.591,38.353h-51.242L134.281,350.77L134.281,350.77z   M305.142,444.011c4.5,16.95,5.796,30.808,6.141,38.717h-47.701V364.242C287.874,393.289,299.554,422.966,305.142,444.011z   M326.477,482.727c-0.329-8.597-1.67-23.53-6.507-41.971c-6.795-25.905-22.095-63.895-56.387-99.133V80.993h50.31l20.861,6.516  l-13.27,78.713c-5.134,30.451-3.755,61.033,4.099,90.894c0.895,3.404,3.967,5.656,7.328,5.656c0.638,0,1.287-0.082,1.933-0.252  c4.05-1.065,6.47-5.212,5.405-9.263c-7.302-27.766-8.583-56.201-3.811-84.516l12.925-76.671l28.353,8.856V327.74  c-11.642-14.524-21.174-30.552-28.431-47.853c-1.62-3.862-6.063-5.679-9.925-4.061c-3.862,1.62-5.68,6.064-4.061,9.926  c10.136,24.171,24.406,46.029,42.417,65.031v131.941h-51.24V482.727z M457.558,266.014l-64.675-28.295V201.34  c5.061,0.799,12.345,2.512,20.712,6.189c20.25,8.9,37.419,24.714,51.094,47.022L457.558,266.014z"/>
<g>
</g>
<g>
</g>
<g>
</g>
<g>
</g>
<g>
</g>
<g>
</g>
<g>
</g>
<g>
</g>
<g>
</g>
<g>
</g>
<g>
</g>
<g>
</g>
<g>
</g>
<g>
</g>
<g>
</g>
</svg>
