<?xml version="1.0" encoding="iso-8859-1"?>
<!-- Generator: Adobe Illustrator 19.0.0, SVG Export Plug-In . SVG Version: 6.00 Build 0)  -->
<svg xmlns="http://www.w3.org/2000/svg" xmlns:xlink="http://www.w3.org/1999/xlink" version="1.1" id="Capa_1" x="0px" y="0px" viewBox="0 0 512 512" style="enable-background:new 0 0 512 512;" xml:space="preserve">
<path style="fill:#F3C74F;" d="M345.439,469.702c-8.806,0-17.997-2.075-27.001-7.491c-31.976-19.235-34.461-65.413-34.461-79.108  c0-13.432,10.888-24.319,24.319-24.319c13.432,0,24.319,10.888,24.319,24.319c0,21.063,6.501,34.786,10.893,37.429  c2.134,1.284,7.594-0.052,13.91-3.401c11.865-6.292,26.587-1.776,32.88,10.09c6.293,11.866,1.775,26.587-10.09,32.88  C370.75,465.117,358.523,469.701,345.439,469.702z"/>
<path style="opacity:0.2;enable-background:new    ;" d="M332.616,383.102c0-13.432-10.888-24.319-24.319-24.319  s-24.319,10.888-24.319,24.319c0,9.253,1.149,33.33,11.749,53.912c16.391-3.781,31.897-9.861,46.172-17.864  C337.687,414.576,332.616,401.704,332.616,383.102z"/>
<g>
	<path style="fill:#F3C74F;" d="M450.829,367.661c-3.58,0-7.214-0.793-10.649-2.47c-12.07-5.89-17.08-20.451-11.189-32.522   c8.186-16.773-2.435-36.981-17.43-46.826c-11.227-7.372-14.353-22.45-6.983-33.677c7.372-11.227,22.449-14.352,33.677-6.983   c37.802,24.819,52.611,71.601,34.447,108.82C468.488,362.638,459.834,367.661,450.829,367.661z"/>
	<path style="fill:#F3C74F;" d="M61.188,367.661c-9.005,0-17.659-5.021-21.873-13.659c-18.164-37.218-3.355-84.001,34.447-108.82   c11.227-7.371,26.305-4.245,33.677,6.983c7.371,11.227,4.245,26.305-6.983,33.677c-14.996,9.846-25.617,30.053-17.43,46.826   c5.891,12.071,0.881,26.632-11.189,32.522C68.403,366.867,64.768,367.661,61.188,367.661z"/>
</g>
<path style="opacity:0.2;enable-background:new    ;" d="M107.44,252.165c-7.372-11.227-22.45-14.353-33.677-6.983  c-2.325,1.526-4.561,3.138-6.709,4.822c-0.002,0.307-0.012,0.62-0.012,0.926c0,23.653,4.717,46.204,13.248,66.785  c1.008-12.559,9.471-24.852,20.167-31.874C111.685,278.47,114.811,263.393,107.44,252.165z"/>
<path style="fill:#F3C74F;" d="M203.721,504.023c-13.432,0-24.319-10.888-24.319-24.319V387.61  c0-13.431,10.888-24.319,24.319-24.319s24.319,10.888,24.319,24.319v92.094C228.041,493.135,217.153,504.023,203.721,504.023z"/>
<path style="opacity:0.2;enable-background:new    ;" d="M203.721,363.289c-13.432,0-24.319,10.888-24.319,24.319v35.714  c15.126,7.328,31.467,12.55,48.64,15.292v-51.005C228.041,374.178,217.153,363.289,203.721,363.289z"/>
<circle style="fill:#0081C6;" cx="390.728" cy="90.673" r="55.861"/>
<circle style="fill:#F3C74F;" cx="390.728" cy="90.673" r="26.078"/>
<circle style="fill:#0081C6;" cx="121.284" cy="90.673" r="55.861"/>
<circle style="fill:#F3C74F;" cx="121.284" cy="90.673" r="26.078"/>
<path style="opacity:0.2;enable-background:new    ;" d="M154.308,45.626c-26.262,23.735-48.537,56.408-64.359,91.283  c8.936,6.069,19.722,9.617,31.339,9.617c30.849,0,55.856-25.008,55.856-55.856C177.144,72.178,168.153,55.792,154.308,45.626z"/>
<path style="fill:#40BAB3;" d="M431.512,243.841c0-96.642-80.567-235.864-175.504-235.864S80.505,147.199,80.505,243.841  s78.575,174.985,175.504,174.985S431.512,340.482,431.512,243.841z"/>
<path style="fill:#FFFFFF;" d="M83.462,275.933c15.118,81.312,86.616,142.892,172.547,142.892  c85.932,0,157.429-61.58,172.547-142.892L83.462,275.933L83.462,275.933z"/>
<path style="fill:#0081C6;" d="M114.53,347.379c31.943,43.324,83.412,71.446,141.479,71.446s109.536-28.122,141.479-71.446H114.53z"/>
<path style="opacity:0.2;enable-background:new    ;" d="M274.619,400.215c-96.928,0-175.503-78.343-175.503-174.984  c0-58.182,29.209-131.783,73.166-181.16c-54.136,47.788-91.777,133.719-91.777,199.77c0,96.642,78.575,174.985,175.504,174.985  c53.292,0,101.03-23.688,133.217-61.072C358.477,384.212,318.424,400.215,274.619,400.215z"/>
<g>
	<path style="fill:#F0B0B7;" d="M191.388,222.418h-29.299c-4.405,0-7.977-3.572-7.977-7.977c0-4.405,3.572-7.977,7.977-7.977h29.299   c4.405,0,7.977,3.572,7.977,7.977C199.365,218.846,195.794,222.418,191.388,222.418z"/>
	<path style="fill:#F0B0B7;" d="M396.136,222.418h-29.298c-4.405,0-7.977-3.572-7.977-7.977c0-4.405,3.572-7.977,7.977-7.977h29.298   c4.405,0,7.977,3.572,7.977,7.977C404.113,218.846,400.542,222.418,396.136,222.418z"/>
</g>
<g>
	<path style="fill:#F3C74F;" d="M97.102,388.804c-1.729,0-3.458-0.065-5.183-0.197c-22.101-1.679-41.585-14.265-52.12-33.667   c-6.409-11.803-2.036-26.568,9.768-32.977c11.802-6.409,26.567-2.037,32.977,9.767c2.697,4.968,7.336,7.943,13.061,8.378   c11.353,0.863,25.253-8.015,37.193-23.748c8.119-10.699,23.375-12.792,34.075-4.671c10.699,8.12,12.791,23.375,4.671,34.075   C150.606,373.352,123.739,388.804,97.102,388.804z"/>
	<path style="fill:#F3C74F;" d="M414.916,388.804c-26.638,0-53.504-15.451-74.442-43.041c-8.12-10.699-6.029-25.955,4.671-34.075   c10.7-8.118,25.955-6.029,34.075,4.671c11.939,15.733,25.841,24.612,37.193,23.748c5.725-0.435,10.364-3.41,13.061-8.378   c6.409-11.803,21.174-16.174,32.977-9.767c11.804,6.409,16.176,21.174,9.768,32.977c-10.535,19.402-30.019,31.988-52.12,33.667   C418.375,388.739,416.644,388.804,414.916,388.804z"/>
</g>
<path style="fill:#E6595A;" d="M350.421,22.327c-10.596-10.596-27.79-10.573-38.358,0.068c-10.545,10.618-10.305,27.848,0.275,38.43  l32.167,32.167c3.267,3.267,8.564,3.267,11.832,0l32.167-32.167c10.581-10.581,10.82-27.812,0.275-38.43  C378.21,11.754,361.017,11.732,350.421,22.327z"/>
<path style="opacity:0.2;fill:#FFFFFF;enable-background:new    ;" d="M388.778,22.395c-4.836-4.869-11.059-7.508-17.404-7.93  c-2.072,3.525-3.265,7.629-3.265,12.013c0,13.114,10.632,23.746,23.746,23.746c1.126,0,2.233-0.084,3.317-0.236  C398.268,40.595,396.193,29.861,388.778,22.395z"/>
<path d="M442.634,238.514c-1.063-0.698-2.172-1.309-3.303-1.875c-1.077-27.908-8.297-58.813-20.228-88.781  c21.503-10.658,35.459-32.696,35.459-57.188c0-16.036-5.97-31.367-16.81-43.17c-9.564-10.413-22.175-17.282-35.944-19.694  c-1.679-4.013-4.129-7.771-7.37-11.034c-6.615-6.66-15.427-10.337-24.812-10.353h-0.063c-6.902,0-13.499,1.982-19.144,5.675  C344.777,8.4,338.18,6.42,331.276,6.42h-0.064c-7.838,0.014-15.269,2.589-21.362,7.313C292.082,4.627,273.996,0,256.009,0  c-24.276,0-48.51,8.309-72.033,24.695c-7.228,5.035-14.366,10.873-21.33,17.385c-11.477-9.754-26.149-15.243-41.357-15.243  c-35.198,0-63.834,28.636-63.834,63.834c0,24.483,13.945,46.513,35.434,57.176c-11.957,30.041-19.132,60.955-20.206,88.794  c-1.13,0.565-2.238,1.176-3.299,1.874c-40.7,26.722-56.883,77.497-37.687,118.014c0.113,0.251,0.224,0.503,0.353,0.772  c0.036,0.077,0.074,0.158,0.106,0.223c0.055,0.113,0.113,0.224,0.173,0.336c0.15,0.301,0.301,0.6,0.456,0.886  c0.09,0.166,0.183,0.331,0.277,0.493l0.145,0.256c11.918,21.351,33.64,35.208,58.107,37.067c1.918,0.146,3.865,0.219,5.786,0.219  c14.297,0,28.686-4.082,42.269-11.716c9.973,8.196,20.721,15.267,32.054,21.139v73.497c0,17.809,14.488,32.296,32.296,32.296  c17.809,0,32.296-14.487,32.296-32.296v-53.994c6.609,0.721,13.281,1.093,19.991,1.093c8.819,0,17.574-0.641,26.207-1.882  c6.37,20.284,17.14,35.12,32.11,44.126c9.524,5.729,19.992,8.633,31.114,8.633c12.376-0.001,25.332-3.544,38.51-10.532  c15.732-8.345,21.742-27.932,13.399-43.665c-8.344-15.731-27.931-21.743-43.665-13.4c-3.044,1.615-5.296,2.391-6.64,2.727  c-0.906-1.361-2.286-3.984-3.55-8.133c10.27-5.556,20.035-12.116,29.156-19.611c13.583,7.634,27.971,11.715,42.268,11.715  c1.922,0,3.869-0.073,5.788-0.219c24.465-1.86,46.187-15.716,58.073-37.01c0.012-0.019,0.073-0.13,0.084-0.149l0.088-0.155  c0.098-0.171,0.196-0.342,0.275-0.49c0.151-0.277,0.292-0.555,0.462-0.896c0.061-0.112,0.12-0.227,0.18-0.348  c0.028-0.057,0.063-0.131,0.095-0.201c0.115-0.24,0.225-0.486,0.356-0.779C499.491,315.939,483.304,265.216,442.634,238.514z   M422.145,328.43c-1.247,1.99-3.047,3.197-5.363,3.602c2.515-4.552,4.83-9.197,6.938-13.928  C424.037,321.745,423.534,325.257,422.145,328.43z M404.367,44.743c20.049,5.855,34.241,24.203,34.241,45.928  c0,18.06-10.112,34.341-25.772,42.484c-1.908-4.194-3.907-8.355-5.99-12.473c10.8-5.804,17.939-17.206,17.939-30.011  c0-15.421-10.305-28.473-24.39-32.65C402.61,53.849,403.934,49.328,404.367,44.743z M408.83,90.671  c0,6.808-3.801,12.856-9.537,15.939c-5.45-9.58-11.36-18.834-17.684-27.609l6.185-6.185c0.966-0.157,1.946-0.246,2.936-0.246  C400.71,72.569,408.83,80.69,408.83,90.671z M317.724,28.015c3.605-3.629,8.405-5.633,13.518-5.641h0.034  c5.101,0,9.896,1.986,13.504,5.594c3.115,3.115,8.166,3.115,11.281,0c3.609-3.608,8.402-5.594,13.504-5.594h0.034  c5.114,0.009,9.915,2.012,13.518,5.642c7.394,7.445,7.279,19.633-0.255,27.168l-32.167,32.167c-0.152,0.152-0.399,0.152-0.551,0  l-32.167-32.167C310.444,47.65,310.33,35.462,317.724,28.015z M73.41,90.671c0-26.401,21.479-47.879,47.879-47.879  c10.984,0,21.602,3.808,30.062,10.623c-3.1,3.331-6.154,6.791-9.149,10.383c-5.907-4.595-13.245-7.181-20.913-7.181  c-18.778,0-34.055,15.277-34.055,34.056c0,12.798,7.129,24.194,17.92,30.002c-2.086,4.119-4.092,8.276-5.999,12.469  C83.509,124.993,73.41,108.719,73.41,90.671z M132.345,76.345c-2.13,2.88-4.226,5.821-6.276,8.827  c-4.718,6.911-9.172,14.083-13.357,21.433c-5.73-3.087-9.525-9.129-9.525-15.933c0-9.981,8.12-18.102,18.1-18.102  C125.338,72.569,129.214,73.929,132.345,76.345z M88.298,318.104c2.108,4.73,4.422,9.376,6.938,13.928  c-2.317-0.405-4.117-1.612-5.363-3.602C88.483,325.257,87.981,321.745,88.298,318.104z M92.523,380.654  c-19.115-1.453-36.081-12.27-45.434-29.025l-0.286-0.505c-0.069-0.128-0.132-0.257-0.197-0.386l-0.058-0.117  c-0.034-0.068-0.069-0.136-0.105-0.203c-0.061-0.127-0.118-0.258-0.207-0.461c-0.024-0.056-0.051-0.112-0.077-0.167  c-15.014-31.688-3.46-71.124,26.761-94.219c0.868,13.602,3.233,26.992,7.051,39.948c-8.397,13.003-10.097,27.677-4.42,39.958  c0.101,0.219,0.213,0.434,0.334,0.643c4.03,6.973,10.997,11.325,19.115,11.943c14.271,1.093,30.365-8.713,44.153-26.881  c2.639-3.478,6.474-5.719,10.798-6.313c4.328-0.594,8.622,0.534,12.1,3.173c3.478,2.64,5.719,6.474,6.313,10.8  c0.592,4.325-0.534,8.622-3.174,12.099C144.735,367.894,118.009,382.588,92.523,380.654z M220.064,479.704  c0,9.011-7.331,16.342-16.342,16.342s-16.342-7.331-16.342-16.342v-66.169c10.549,4.241,21.491,7.494,32.685,9.72L220.064,479.704  L220.064,479.704z M361.158,424.178c7.961-4.224,17.874-1.18,22.095,6.779c4.223,7.961,1.18,17.874-6.781,22.096  c-19.963,10.586-38.579,11.554-53.924,2.322c-11.093-6.673-19.318-17.907-24.533-33.432c10.63-2.49,21.003-5.918,31-10.24  c2.652,7.599,6.304,13.211,10.381,15.665C344.294,430.313,351.615,429.238,361.158,424.178z M256.009,410.848  c-37.331,0-73.424-12.395-102.716-35.079c8.819-6.874,17.118-15.318,24.604-25.183c5.216-6.872,7.442-15.364,6.271-23.911  c-1.172-8.547-5.602-16.125-12.474-21.34c-6.872-5.216-15.363-7.44-23.911-6.27c-8.547,1.172-16.125,5.602-21.34,12.473  c-4.993,6.579-10.453,11.892-15.714,15.482c-14.564-25.232-22.246-53.824-22.246-83.178c0-46.46,19.451-103.811,50.762-149.674  c33.933-49.706,76.492-78.212,116.764-78.212c14.447,0,29.084,3.54,43.618,10.512c-6.12,13.043-3.751,29.177,7.072,40l32.167,32.167  c3.187,3.187,7.371,4.78,11.556,4.78c4.185,0,8.371-1.593,11.556-4.78l8.192-8.192c32.603,46.127,53.366,105.376,53.366,153.401  c0,29.352-7.681,57.944-22.244,83.175c-5.262-3.59-10.724-8.901-15.716-15.478c-5.215-6.872-12.793-11.302-21.34-12.474  c-8.544-1.17-17.039,1.055-23.911,6.27c-6.872,5.216-11.302,12.794-12.474,21.341c-1.172,8.547,1.055,17.039,6.271,23.91  c7.487,9.865,15.785,18.309,24.604,25.183C329.433,398.452,293.341,410.848,256.009,410.848z M465.859,349.79  c-0.027,0.056-0.087,0.19-0.113,0.248c-0.061,0.135-0.119,0.272-0.169,0.374l-0.007,0.016c-0.04,0.076-0.079,0.151-0.106,0.205  l-0.052,0.105c-0.065,0.129-0.127,0.258-0.211,0.413l-0.239,0.421c-0.011,0.018-0.072,0.129-0.083,0.148  c-9.302,16.666-26.268,27.483-45.382,28.935c-1.518,0.115-3.059,0.173-4.581,0.173c-24.034,0-48.85-14.537-68.087-39.886  c-5.448-7.178-4.04-17.451,3.14-22.898c3.478-2.639,7.777-3.764,12.1-3.173c4.325,0.594,8.159,2.835,10.799,6.313  c13.785,18.166,29.877,27.96,44.153,26.88c8.119-0.617,15.085-4.97,19.115-11.943c0.121-0.21,0.233-0.424,0.334-0.643  c5.678-12.279,3.977-26.955-4.42-39.958c3.817-12.956,6.182-26.346,7.051-39.948C469.319,278.665,480.872,318.101,465.859,349.79z   M276.694,149.998c-2.536,0-4.92-0.988-6.714-2.781c-3.115-3.115-8.166-3.115-11.281,0c-3.115,3.115-3.115,8.166,0,11.281  c4.806,4.808,11.198,7.454,17.994,7.454c5.081,0,9.214,4.133,9.214,9.214s-4.133,9.214-9.214,9.214  c-4.405,0-7.977,3.572-7.977,7.977c0,4.405,3.572,7.977,7.977,7.977c5.081,0,9.214,4.133,9.214,9.214  c0,5.08-4.133,9.214-9.214,9.214c-4.405,0-7.977,3.572-7.977,7.977c0,4.405,3.572,7.977,7.977,7.977  c13.878,0,25.168-11.29,25.168-25.168c0-6.641-2.586-12.689-6.802-17.191c4.216-4.502,6.802-10.55,6.802-17.191  C301.862,161.289,290.572,149.998,276.694,149.998z M368.816,184.552c4.405,0,7.977-3.572,7.977-7.977  c0-2.589,2.105-4.694,4.694-4.694s4.694,2.105,4.694,4.694c0,4.405,3.572,7.977,7.977,7.977c4.405,0,7.977-3.572,7.977-7.977  c0-11.386-9.262-20.648-20.648-20.648c-11.386,0-20.648,9.262-20.648,20.648C360.839,180.98,364.411,184.552,368.816,184.552z   M176.738,163.489c-4.405,0-7.977,3.572-7.977,7.977v4.804c0,4.405,3.572,7.977,7.977,7.977s7.977-3.572,7.977-7.977v-4.804  C184.715,167.061,181.144,163.489,176.738,163.489z"/>
<g>
</g>
<g>
</g>
<g>
</g>
<g>
</g>
<g>
</g>
<g>
</g>
<g>
</g>
<g>
</g>
<g>
</g>
<g>
</g>
<g>
</g>
<g>
</g>
<g>
</g>
<g>
</g>
<g>
</g>
</svg>
