<?xml version="1.0" encoding="iso-8859-1"?>
<!-- Generator: Adobe Illustrator 19.0.0, SVG Export Plug-In . SVG Version: 6.00 Build 0)  -->
<svg xmlns="http://www.w3.org/2000/svg" xmlns:xlink="http://www.w3.org/1999/xlink" version="1.1" id="Capa_1" x="0px" y="0px" viewBox="0 0 512 512" style="enable-background:new 0 0 512 512;" xml:space="preserve">
<g>
	<path style="fill:#F29C1F;" d="M87.303,246.454c-10.214,29.774-17.26,60.555-21.001,91.813   c-26.286-1.701-46.21-24.394-44.509-50.679c1.631-25.105,22.476-44.622,47.633-44.605   C75.562,242.957,81.628,244.137,87.303,246.454z"/>
	<path style="fill:#F29C1F;" d="M490.308,290.712c0.035,25.409-19.916,46.358-45.299,47.555   c-3.705-31.18-10.743-61.874-21.001-91.553c5.884-2.439,12.193-3.705,18.571-3.732c26.346-0.017,47.711,21.33,47.729,47.677   C490.308,290.677,490.308,290.695,490.308,290.712z"/>
</g>
<path style="fill:#F0C419;" d="M436.071,243.504c-3.298-13.624-7.376-27.596-12.149-41.654c-1.215-3.471-2.43-7.029-3.732-10.5  h-0.087c-4.426-12.496-9.459-24.906-14.926-37.142c-8.938,5.901-17.009,10.761-24.298,14.926c-0.087,0.087-0.087,0.087-0.174,0.087  c-0.165,0.191-0.373,0.338-0.607,0.434c-0.174,0.087-0.347,0.26-0.607,0.434c-26.381,17.79-71.767,29.505-123.487,29.505  s-97.106-11.715-123.487-29.505c-0.26-0.174-0.434-0.347-0.607-0.434c-0.234-0.095-0.443-0.243-0.607-0.434  c-0.087,0-0.087,0-0.174-0.087c-7.289-4.165-15.273-9.025-24.212-14.926c-0.955,1.996-1.909,4.079-2.777,6.075  c-4.426,10.153-8.504,20.48-12.236,30.807c-1.388,3.558-2.603,7.203-3.818,10.761c-4.773,14.058-8.852,28.03-12.149,41.654  c-6.639,25.348-10.283,51.382-10.847,77.581C65.088,426.522,150.566,512,256.003,512s190.915-85.478,190.915-190.915  C446.354,294.886,442.718,268.852,436.071,243.504z"/>
<path style="fill:#C03A2B;" d="M429.562,173.559h-8.678v-26.034C420.893,66.057,354.854,0.009,273.385,0c-0.009,0-0.017,0-0.026,0  h-34.712C157.178-0.009,91.13,66.031,91.122,147.499c0,0.009,0,0.017,0,0.026v26.034h-8.678c-23.96,0.009-43.381,19.43-43.39,43.39  v26.034h433.898v-26.034C472.943,192.989,453.522,173.568,429.562,173.559z"/>
<path style="fill:#E64C3C;" d="M305.033,173.559h124.529c23.96,0.009,43.381,19.43,43.39,43.39v26.034H39.054v-26.034  c0.009-23.96,19.43-43.381,43.39-43.39h124.529"/>
<circle style="fill:#F5EFCA;" cx="256.003" cy="156.203" r="52.068"/>
<g>
	<path style="fill:#2FA8CC;" d="M193.756,288.195c1.293,3.011,1.944,6.266,1.909,9.546c-0.009,14.379-11.663,26.034-26.043,26.025   c-14.379-0.009-26.034-11.663-26.025-26.043c0.009-14.102,11.238-25.643,25.34-26.017"/>
	<path style="fill:#2FA8CC;" d="M343.078,271.707c14.379,0.382,25.721,12.34,25.34,26.719c-0.382,14.379-12.34,25.721-26.719,25.34   c-14.102-0.373-25.348-11.915-25.348-26.025c-0.035-3.28,0.616-6.534,1.909-9.546"/>
</g>
<g>
	<path style="fill:#2C3E50;" d="M220.892,297.637h-19.413c-14.935-0.035-28.984-7.064-37.975-18.987l-0.13-0.174   c-5.71-7.472-14.57-11.863-23.977-11.889h-19.413c-4.79,0-8.678-3.888-8.678-8.678c0-4.79,3.888-8.678,8.678-8.678h19.413   c14.935,0.035,28.984,7.064,37.975,18.987l0.13,0.174c5.71,7.472,14.57,11.863,23.977,11.889h19.413   c4.79,0,8.678,3.888,8.678,8.678S225.682,297.637,220.892,297.637L220.892,297.637z"/>
	<path style="fill:#2C3E50;" d="M310.535,297.637h-19.413c-4.79,0-8.678-3.888-8.678-8.678s3.888-8.678,8.678-8.678h19.413   c9.407-0.017,18.267-4.417,23.977-11.889l0.13-0.174c8.99-11.924,23.04-18.953,37.975-18.987h19.413   c4.79,0,8.678,3.888,8.678,8.678c0,4.79-3.888,8.678-8.678,8.678h-19.413c-9.407,0.026-18.267,4.417-23.977,11.897l-0.13,0.174   C339.52,290.573,325.47,297.602,310.535,297.637z"/>
</g>
<path style="fill:#59474E;" d="M351.808,396.757v26.034c-14.076,0.304-25.73-10.873-26.034-24.949c-0.009-0.364-0.009-0.72,0-1.085  H186.926c0.304,14.076-10.873,25.73-24.949,26.034c-0.364,0.009-0.72,0.009-1.085,0v-26.034  c0.043-28.741,23.326-52.024,52.068-52.068h86.78C328.49,344.715,351.79,368.007,351.808,396.757z"/>
<g>
	<path style="fill:#2C2F38;" d="M212.96,379.401v17.356h-17.356v-17.356c0-4.79,3.888-8.678,8.678-8.678   C209.072,370.723,212.96,374.61,212.96,379.401z"/>
	<path style="fill:#2C2F38;" d="M247.672,379.401v17.356h-17.356v-17.356c0-4.79,3.888-8.678,8.678-8.678   S247.672,374.61,247.672,379.401z"/>
	<path style="fill:#2C2F38;" d="M282.384,379.401v17.356h-17.356v-17.356c0-4.79,3.888-8.678,8.678-8.678   C278.505,370.723,282.384,374.61,282.384,379.401z"/>
	<path style="fill:#2C2F38;" d="M317.096,379.401v17.356H299.74v-17.356c0-4.79,3.888-8.678,8.678-8.678   S317.096,374.61,317.096,379.401z"/>
</g>
<path style="fill:#F29C1F;" d="M273.706,440.146h-34.712c-4.79,0-8.678-3.888-8.678-8.678s3.888-8.678,8.678-8.678h34.712  c4.79,0,8.678,3.888,8.678,8.678S278.505,440.146,273.706,440.146z"/>
<g>
	<path style="fill:#2C2F38;" d="M446.918,318.655c0.052,30.902-7.454,61.353-21.868,88.689l-3.818-1.909   c-34.712-13.364-34.712-58.229-34.712-58.229c32.889,0,45.82-69.684,50.159-103.528   C442.978,268.193,446.415,293.35,446.918,318.655z"/>
	<path style="fill:#2C2F38;" d="M126.181,347.205c0,0,0,44.865-34.712,58.229l-4.426,2.256   c-14.44-27.457-21.981-58.012-21.955-89.036c0.529-25.539,4.027-50.94,10.414-75.672l0.434,0.087   C80.187,276.654,93.117,347.205,126.181,347.205z"/>
</g>
<g>
</g>
<g>
</g>
<g>
</g>
<g>
</g>
<g>
</g>
<g>
</g>
<g>
</g>
<g>
</g>
<g>
</g>
<g>
</g>
<g>
</g>
<g>
</g>
<g>
</g>
<g>
</g>
<g>
</g>
</svg>
