<?xml version="1.0" encoding="iso-8859-1"?>
<!-- Generator: Adobe Illustrator 19.0.0, SVG Export Plug-In . SVG Version: 6.00 Build 0)  -->
<svg xmlns="http://www.w3.org/2000/svg" xmlns:xlink="http://www.w3.org/1999/xlink" version="1.1" id="Capa_1" x="0px" y="0px" viewBox="0 0 512.003 512.003" style="enable-background:new 0 0 512.003 512.003;" xml:space="preserve">
<path style="fill:#F3C74F;" d="M306.354,503.985c-13.377,0-24.219-10.844-24.219-24.219v-91.714  c0-13.377,10.844-24.219,24.219-24.219c13.377,0,24.219,10.844,24.219,24.219v91.714  C330.574,493.141,319.731,503.985,306.354,503.985z"/>
<path style="opacity:0.2;enable-background:new    ;" d="M306.354,363.831c-13.377,0-24.219,10.844-24.219,24.219v53.016  c16.773-1.591,33.074-5.592,48.44-11.747V388.05C330.574,374.675,319.731,363.831,306.354,363.831z"/>
<path style="fill:#F3C74F;" d="M147.998,482.517c-12.92-3.462-20.588-16.742-17.126-29.663l23.737-88.589  c3.462-12.92,16.742-20.588,29.663-17.126c12.92,3.462,20.588,16.742,17.126,29.663l-23.737,88.589  C174.199,478.313,160.918,485.98,147.998,482.517z"/>
<path style="opacity:0.2;enable-background:new    ;" d="M184.272,347.14c-12.92-3.462-26.201,4.206-29.663,17.126l-9.465,35.324  c13.088,9.883,27.736,18.045,43.704,24.047l12.549-46.834C204.861,363.882,197.193,350.603,184.272,347.14z"/>
<path style="fill:#F3C74F;" d="M87.873,256.994c-21.845-5.854-40.311-18.586-52.298-36.781  c-16.948-25.725-18.153-58.698-3.222-88.201c6.041-11.935,20.613-16.716,32.546-10.675c11.935,6.04,16.714,20.611,10.675,32.545  c-7.197,14.222-7.037,28.314,0.452,39.68c8.429,12.795,25.062,19.705,44.492,18.483c13.352-0.84,24.852,9.303,25.691,22.652  c0.84,13.35-9.303,24.852-22.651,25.692C111.057,261.177,99.025,259.981,87.873,256.994z"/>
<path style="opacity:0.2;enable-background:new    ;" d="M146.208,234.699c-0.839-13.35-12.339-23.493-25.691-22.653  c-17.452,1.098-32.625-4.382-41.647-14.777c-0.353,1.213-0.7,2.425-1.024,3.633c-4.511,16.837-6.376,33.761-5.872,50.337  c5.05,2.343,10.365,4.271,15.898,5.753c11.152,2.987,23.184,4.183,35.683,3.398C136.905,259.552,147.048,248.05,146.208,234.699z"/>
<path style="fill:#F3C74F;" d="M429.063,446.188c-13.242-1.89-22.444-14.157-20.555-27.399c3.055-21.399,4.253-38.441,0.172-52.057  c-5.324-17.767-19.945-27.062-32.09-33.175c-11.948-6.014-16.758-20.575-10.743-32.524c6.014-11.948,20.575-16.756,32.524-10.743  c66.638,33.543,64.926,87.45,58.091,135.343C454.572,438.875,442.305,448.078,429.063,446.188z"/>
<circle style="fill:#0081C6;" cx="434.435" cy="133.093" r="55.629"/>
<circle style="fill:#F3C74F;" cx="434.435" cy="133.093" r="25.97"/>
<circle style="fill:#0081C6;" cx="175.248" cy="63.644" r="55.629"/>
<circle style="fill:#F3C74F;" cx="175.248" cy="63.644" r="25.97"/>
<path style="opacity:0.2;enable-background:new    ;" d="M218.618,28.829c-31.38,16.062-61.229,41.751-85.438,71.222  c7.032,8.141,16.493,14.335,27.668,17.329c29.674,7.952,60.177-9.66,68.127-39.334C233.742,60.256,229.315,42.176,218.618,28.829z"/>
<path style="fill:#40BAB3;" d="M434.184,290.951c24.91-92.963-16.707-247.655-108.03-272.124  c-91.324-24.47-204.71,88.687-229.62,181.651s30.483,188.578,123.723,213.562S409.274,383.914,434.184,290.951z"/>
<g>
	<path style="fill:#F0B0B7;" d="M188.554,202.839c-0.687,0-1.385-0.089-2.08-0.275l-28.183-7.552   c-4.276-1.146-6.813-5.54-5.668-9.818c1.145-4.276,5.54-6.811,9.818-5.669l28.183,7.552c4.276,1.146,6.813,5.542,5.668,9.818   C195.333,200.478,192.094,202.839,188.554,202.839z"/>
	<path style="fill:#F0B0B7;" d="M385.512,255.614c-0.687,0-1.385-0.089-2.08-0.275l-28.184-7.552   c-4.276-1.146-6.813-5.542-5.668-9.818c1.145-4.276,5.539-6.81,9.818-5.668l28.184,7.552c4.276,1.146,6.813,5.542,5.668,9.818   C392.29,253.252,389.052,255.614,385.512,255.614z"/>
</g>
<path style="fill:#FFFFFF;" d="M91.105,232.111c-6.415,82.114,46.489,159.779,129.151,181.929  c82.662,22.149,167.31-18.659,202.812-92.979L91.105,232.111z"/>
<path style="fill:#0081C6;" d="M102.576,308.846c19.561,49.908,61.823,90.227,117.68,105.193  c55.857,14.967,112.616,1.181,154.51-32.261L102.576,308.846z"/>
<path style="opacity:0.2;enable-background:new    ;" d="M242.955,400.934c-93.239-24.983-148.631-120.599-123.723-213.562  c14.997-55.967,62.065-119.239,117.077-155.407C171.916,63.981,113.559,136.94,96.534,200.478  c-24.91,92.963,30.483,188.578,123.723,213.562c51.263,13.736,103.291,3.254,143.889-24.412  C327.746,407.154,285.092,412.225,242.955,400.934z"/>
<path style="fill:#F0B0B7;" d="M292.949,208.889c-9.133-2.447-14.553-11.834-12.106-20.968  c-2.447,9.133-11.834,14.553-20.968,12.106c-5.53-1.481-9.682-5.514-11.567-10.486l-4.085,15.244  c-4.432,16.541,5.384,33.544,21.926,37.976c16.541,4.432,33.544-5.384,37.977-21.926l4.085-15.244  C304.091,208.955,298.479,210.371,292.949,208.889z"/>
<path d="M392.255,129.906l-69.561,18.638c-2.766,0.742-4.926,2.902-5.668,5.669c-0.741,2.766,0.049,5.718,2.073,7.742l50.922,50.921  c1.566,1.565,3.618,2.348,5.669,2.348c2.051,0,4.103-0.782,5.669-2.348c3.13-3.13,3.13-8.206,0-11.336l-41.105-41.105l56.15-15.045  c4.276-1.146,6.813-5.54,5.668-9.818C400.927,131.297,396.532,128.761,392.255,129.906z M450.905,71.624  c-14.626-3.918-30.148-2.428-43.704,3.981c-5.013-8.041-10.365-15.481-16.01-22.176c-18.414-21.837-39.597-36.084-62.962-42.346  c-23.365-6.261-48.834-4.514-75.701,5.191c-8.236,2.975-16.59,6.743-24.952,11.2c-8.535-12.328-21.233-21.381-35.858-25.299  c-33.898-9.081-68.864,11.104-77.945,45.001c-6.313,23.557,1.412,48.346,19.32,64.162c-20.37,27.336-35.837,56.992-43.683,84.865  c-2.678-2.031-4.943-4.395-6.692-7.049c-7.484-11.359-4.127-23.482,0.006-31.65c3.889-7.682,4.552-16.419,1.868-24.601  c-2.684-8.181-8.392-14.829-16.073-18.716c-7.682-3.889-16.419-4.551-24.602-1.868c-8.181,2.684-14.829,8.392-18.718,16.075  c-16.244,32.101-14.868,68.075,3.682,96.23c12.421,18.855,31.781,32.788,54.676,39.461c4.638,44.57,25.704,85.932,58.515,115.997  l-18.944,70.699c-4.601,17.169,5.625,34.879,22.793,39.48c2.784,0.746,5.582,1.102,8.336,1.102c14.232,0,27.291-9.511,31.145-23.895  l13.895-51.859c6.113,2.367,12.407,4.44,18.882,6.174c15.791,4.23,31.815,6.324,47.732,6.324c2.739,0,5.474-0.084,8.206-0.208  v51.867c0,17.775,14.46,32.235,32.235,32.235c17.776,0,32.236-14.46,32.236-32.235v-66.909c6.203-2.711,12.299-5.759,18.25-9.183  c16.634-9.571,31.393-21.47,43.955-35.24c0.064,0.202,0.145,0.398,0.206,0.601c3.661,12.214,2.475,28.272-0.429,48.624  c-1.217,8.525,0.959,17.012,6.126,23.9c5.166,6.887,12.708,11.35,21.231,12.568c1.539,0.219,3.064,0.326,4.575,0.326  c15.773-0.001,29.598-11.625,31.891-27.683c5.98-41.9,6.668-85.159-27.151-118.86c1.754-4.867,3.324-9.826,4.679-14.88  c7.638-28.506,9.243-62.802,5.166-97.551c23.418-4.743,42.503-22.349,48.814-45.906C504.987,115.673,484.8,80.706,450.905,71.624z   M82.595,246.954c-16.997-6.089-30.839-16.752-40.326-31.151c-15.346-23.294-16.38-53.264-2.765-80.17  c1.955-3.863,5.297-6.732,9.41-8.082c4.112-1.349,8.504-1.015,12.365,0.939c3.861,1.955,6.732,5.296,8.081,9.408  c1.35,4.113,1.015,8.504-0.939,12.367c-8.55,16.897-8.226,33.841,0.912,47.71c3.977,6.037,9.526,11.063,16.227,14.799  C83.459,224.22,82.498,235.654,82.595,246.954z M129.257,51.326c6.794-25.356,32.95-40.462,58.311-33.665  c10.525,2.819,19.727,9.185,26.096,17.877c-3.803,2.382-7.593,4.898-11.361,7.553c-4.506-5.927-10.893-10.296-18.261-12.271  c-18.101-4.847-36.774,5.93-41.624,24.031c-3.3,12.315,0.608,25.116,9.474,33.502c-3.035,3.39-6.006,6.837-8.892,10.34  C130.107,86.841,124.619,68.638,129.257,51.326z M189.472,52.707c-2.773,2.209-5.529,4.482-8.259,6.829  c-6.305,5.419-12.421,11.154-18.327,17.129c-4.662-4.429-6.725-11.168-4.985-17.662c1.242-4.632,4.212-8.504,8.366-10.902  c4.152-2.397,8.987-3.036,13.625-1.793C183.748,47.338,187.094,49.617,189.472,52.707z M169.919,463.318  c-2.314,8.631-11.225,13.771-19.846,11.457c-8.63-2.313-13.77-11.216-11.458-19.846l17.034-63.569  c8.934,6.719,18.557,12.671,28.801,17.727L169.919,463.318z M322.558,479.764c0,8.935-7.27,16.204-16.205,16.204  s-16.204-7.269-16.204-16.204v-53.297c10.979-1.483,21.819-3.988,32.408-7.476V479.764z M348.846,389.777  c-38.554,22.183-83.485,28.05-126.515,16.52c-88.822-23.8-141.78-115.2-118.055-203.744c11.972-44.679,45.457-94.821,87.388-130.86  c36.511-31.381,74.848-48.165,108.59-48.165c8.248,0,16.222,1.003,23.826,3.041c38.717,10.373,72.29,48.75,92.113,105.286  c18.293,52.176,22.221,112.342,10.249,157.021C414.948,331.765,387.391,367.599,348.846,389.777z M448.526,424.501  c-1.263,8.845-9.496,15.011-18.33,13.752c-4.286-0.611-8.076-2.855-10.673-6.318c-2.597-3.462-3.69-7.728-3.079-12.014  c3.203-22.447,4.415-40.474-0.084-55.491c-1.031-3.44-2.41-6.747-4.112-9.887c7.037-9.464,13.143-19.624,18.234-30.37  C455.928,353.764,453.276,391.218,448.526,424.501z M438.628,150.551c-2.127-8.128-4.557-16.154-7.308-23.999  c-1.192-3.398-2.44-6.744-3.737-10.043c3.605-1.487,7.643-1.786,11.498-0.753c4.633,1.241,8.504,4.212,10.901,8.365  c2.398,4.153,3.035,8.993,1.794,13.626C450.034,144.241,444.882,149.047,438.628,150.551z M480.421,145.42  c-4.638,17.311-18.494,30.331-35.586,34.151c-0.748-4.483-1.599-8.958-2.534-13.417c11.87-2.831,21.661-11.948,24.959-24.26  c2.35-8.769,1.144-17.927-3.394-25.789c-4.539-7.862-11.868-13.486-20.637-15.835c-7.369-1.975-15.086-1.385-21.95,1.495  c-1.937-4.183-3.961-8.257-6.063-12.221c9.863-4.341,21.015-5.254,31.538-2.434C472.113,93.904,487.215,120.062,480.421,145.42z   M315.992,189.041c-4.276-1.148-8.671,1.392-9.818,5.668c-1.3,4.849-6.304,7.737-11.15,6.438c-2.349-0.63-4.312-2.136-5.529-4.242  c-1.216-2.107-1.539-4.559-0.911-6.909c0.186-0.693,0.275-1.389,0.276-2.074c0.002-3.541-2.36-6.782-5.943-7.742  c-4.276-1.146-8.672,1.392-9.818,5.668c-1.299,4.849-6.3,7.738-11.152,6.438c-2.349-0.63-4.312-2.135-5.528-4.242  c-1.216-2.105-1.54-4.559-0.911-6.909c1.146-4.276-1.392-8.672-5.668-9.818c-4.278-1.147-8.672,1.392-9.818,5.668  c-1.137,4.245-1.141,8.612-0.072,12.755l-3.475,12.971c-2.699,10.068-1.315,20.584,3.897,29.612  c5.212,9.027,13.627,15.484,23.696,18.182c3.362,0.901,6.774,1.347,10.164,1.347c6.761,0,13.434-1.774,19.447-5.246  c9.027-5.211,15.484-13.627,18.182-23.695l3.486-13.009c2.924-2.984,5.149-6.729,6.306-11.044  C322.805,194.582,320.268,190.186,315.992,189.041z M296.383,218.761c-1.589,5.932-5.394,10.89-10.712,13.961  c-5.32,3.071-11.518,3.885-17.445,2.297c-5.933-1.589-10.89-5.394-13.961-10.712c-3.071-5.319-3.887-11.514-2.297-17.447  l0.348-1.301c1.722,0.931,3.549,1.692,5.487,2.21c6.381,1.708,12.852,0.794,18.272-2.082c3.382,5.412,8.607,9.283,14.802,10.944  c1.954,0.524,3.915,0.788,5.854,0.838L296.383,218.761z M266.364,140.637c0.741-2.766-0.049-5.718-2.073-7.742l-50.921-50.922  c-3.131-3.13-8.206-3.13-11.336,0s-3.13,8.206,0,11.335l41.105,41.105l-56.15,15.046c-4.276,1.146-6.813,5.542-5.668,9.818  c0.96,3.581,4.198,5.943,7.737,5.943c0.687,0,1.385-0.089,2.08-0.275l69.561-18.639  C263.462,145.564,265.623,143.403,266.364,140.637z"/>
<g>
</g>
<g>
</g>
<g>
</g>
<g>
</g>
<g>
</g>
<g>
</g>
<g>
</g>
<g>
</g>
<g>
</g>
<g>
</g>
<g>
</g>
<g>
</g>
<g>
</g>
<g>
</g>
<g>
</g>
</svg>
