<?xml version="1.0" encoding="iso-8859-1"?>
<!-- Generator: Adobe Illustrator 19.0.0, SVG Export Plug-In . SVG Version: 6.00 Build 0)  -->
<svg xmlns="http://www.w3.org/2000/svg" xmlns:xlink="http://www.w3.org/1999/xlink" version="1.1" id="Capa_1" x="0px" y="0px" viewBox="0 0 511.996 511.996" style="enable-background:new 0 0 511.996 511.996;" xml:space="preserve">
<g>
	<path style="fill:#804537;" d="M137.635,83.026c-44.68-13.158-91.902,10.678-107.84,54.449l-27.092,74.57   c-8.375,22.848,3.362,48.157,26.21,56.532c0.026,0.009,0.062,0.018,0.088,0.035l31.858,11.561"/>
	<path style="fill:#804537;" d="M451.182,280.173l31.769-11.561c22.892-8.357,34.69-33.658,26.386-56.567l-27.181-74.57   c-15.938-43.683-63.018-67.537-107.663-54.538"/>
</g>
<path style="fill:#E4C05C;" d="M454.27,317.767c-0.026,53.117-22.106,103.842-60.98,140.05c-10.687-0.794-21.321-2.18-31.858-4.148  c-24.657-4.033-48.395-12.461-70.069-24.886c-14.084-7.616-26.174-18.435-35.299-31.593c-9.125,13.158-21.215,23.977-35.299,31.593  c-21.674,12.425-45.413,20.853-70.069,24.886c-10.537,1.968-21.171,3.353-31.858,4.148c-38.873-36.208-60.953-86.934-60.98-140.05  c0.018-8.913,0.582-17.809,1.677-26.651c3.353-28.257,9.531-56.108,18.444-83.13c1.059-3.353,2.206-6.795,3.353-10.237  c0.176-0.441,0.265-0.794,0.441-1.235c3.265-9.619,6.972-19.326,10.943-28.946c1.853-4.501,3.706-8.913,5.736-13.326  c3.442-7.942,7.236-15.885,11.208-23.651c3.706-7.325,7.589-14.473,11.649-21.444c4.236-7.325,8.56-14.473,13.149-21.356  c2.206-3.442,4.501-6.707,6.795-9.972c1.235-1.677,2.383-3.265,3.53-4.854h0.177c6.345-8.737,13.211-17.076,20.562-24.974  c5.992-6.372,12.328-12.408,18.973-18.091c19.635-18.117,45.06-28.681,71.746-29.828c32.74,0,63.627,18.885,90.896,48.184  c7.563,8.137,14.632,16.705,21.18,25.68c0.088,0.088,0.088,0.088,0.088,0.177c0.088,0.265,0.265,0.529,0.353,0.794  c0.882,1.235,1.677,2.383,2.647,3.618c6.619,9.443,13.061,19.415,19.062,29.916c0.079,0.256,0.203,0.485,0.353,0.706  c3.971,6.795,7.854,13.943,11.472,21.18c6.177,12.178,11.887,24.595,17.12,37.241c3.971,9.619,7.678,19.238,10.943,28.945  c0.185,0.485,0.335,0.988,0.441,1.5c1.147,3.353,2.294,6.707,3.265,9.972c2.559,7.854,4.854,15.62,6.883,23.209l0.088,0.088  c5.366,19.626,9.231,39.624,11.561,59.832C453.697,299.959,454.253,308.863,454.27,317.767z"/>
<ellipse style="fill:#FFFFFF;" cx="176.676" cy="247.186" rx="26.475" ry="44.124"/>
<path style="fill:#804537;" d="M335.488,326.592c-35.211,0-61.774-34.143-61.774-79.424s26.563-79.424,61.774-79.424  s61.774,34.143,61.774,79.424S370.708,326.592,335.488,326.592z"/>
<ellipse style="fill:#FFFFFF;" cx="335.523" cy="247.186" rx="26.475" ry="44.124"/>
<path style="fill:#EF3A76;" d="M291.364,357.479c0,12.187-15.805,39.712-35.299,39.712s-35.299-27.525-35.299-39.712  c0-12.187,15.805-22.062,35.299-22.062S291.364,345.301,291.364,357.479z"/>
<path style="fill:#804537;" d="M291.364,428.784c-9.707-5.692-18.603-12.646-26.475-20.685v-0.053l-8.825-10.855l-0.177,0.282  l-8.648,10.572v0.053c-7.872,8.039-16.767,14.993-26.475,20.685c-21.674,12.425-45.413,20.853-70.069,24.886  c2.206,8.913,13.237,31.769,70.069,31.769l1.059-0.265c4.721,18.912,23.88,30.41,42.792,25.689  c12.646-3.159,22.53-13.034,25.689-25.689l1.059,0.265c56.832,0,67.863-22.856,70.069-31.769  C336.776,449.646,313.046,441.218,291.364,428.784z"/>
<path style="fill:#E64C3C;" d="M291.364,428.784v47.831c0.009,2.886-0.353,5.763-1.059,8.56  c-4.721,18.912-23.88,30.41-42.792,25.689c-12.646-3.159-22.53-13.034-25.689-25.689c-0.706-2.797-1.068-5.674-1.059-8.56v-47.831  c14.084-7.616,26.174-18.435,35.299-31.593C265.189,410.349,277.288,421.168,291.364,428.784z"/>
<path style="fill:#C03A2B;" d="M256.064,397.191l-0.088,0.177l-8.737,10.678v50.919c0,4.871,3.954,8.825,8.825,8.825  c4.871,0,8.825-3.954,8.825-8.825v-50.919L256.064,397.191z"/>
<g>
</g>
<g>
</g>
<g>
</g>
<g>
</g>
<g>
</g>
<g>
</g>
<g>
</g>
<g>
</g>
<g>
</g>
<g>
</g>
<g>
</g>
<g>
</g>
<g>
</g>
<g>
</g>
<g>
</g>
</svg>
