<?xml version="1.0" encoding="iso-8859-1"?>
<!-- Generator: Adobe Illustrator 19.0.0, SVG Export Plug-In . SVG Version: 6.00 Build 0)  -->
<svg xmlns="http://www.w3.org/2000/svg" xmlns:xlink="http://www.w3.org/1999/xlink" version="1.1" id="Capa_1" x="0px" y="0px" viewBox="0 0 512 512" style="enable-background:new 0 0 512 512;" xml:space="preserve">
<path style="fill:#F3C74F;" d="M95.197,414.014c-13.432,0-24.32-10.888-24.32-24.32v-105.94c0-13.432,10.888-24.32,24.32-24.32  s24.32,10.888,24.32,24.32v105.94C119.517,403.125,108.629,414.014,95.197,414.014z"/>
<path style="opacity:0.2;enable-background:new    ;" d="M95.197,259.432c-11.786,0-21.609,8.384-23.841,19.514  c5.269,37.838,22.667,71.802,48.161,97.868v-93.062C119.517,270.321,108.629,259.432,95.197,259.432z"/>
<g>
	<path style="fill:#F3C74F;" d="M416.801,414.014c-13.432,0-24.32-10.888-24.32-24.32v-105.94c0-13.432,10.888-24.32,24.32-24.32   s24.32,10.888,24.32,24.32v105.94C441.122,403.125,430.234,414.014,416.801,414.014z"/>
	<path style="fill:#F3C74F;" d="M308.289,504.029c-13.432,0-24.32-10.888-24.32-24.32v-92.096c0-13.432,10.888-24.32,24.32-24.32   s24.32,10.888,24.32,24.32v92.096C332.609,493.141,321.721,504.029,308.289,504.029z"/>
</g>
<path style="opacity:0.2;enable-background:new    ;" d="M308.289,363.293c-13.432,0-24.32,10.888-24.32,24.32v51.007  c17.173-2.742,33.514-7.963,48.641-15.292v-35.714C332.609,374.181,321.721,363.293,308.289,363.293z"/>
<path style="fill:#F3C74F;" d="M203.71,504.029c-13.432,0-24.32-10.888-24.32-24.32v-92.096c0-13.432,10.888-24.32,24.32-24.32  s24.32,10.888,24.32,24.32v92.096C228.031,493.141,217.143,504.029,203.71,504.029z"/>
<path style="opacity:0.2;enable-background:new    ;" d="M203.71,363.293c-13.432,0-24.32,10.888-24.32,24.32v35.714  c15.127,7.329,31.469,12.55,48.641,15.292v-51.007C228.031,374.181,217.143,363.293,203.71,363.293z"/>
<circle style="fill:#0081C6;" cx="390.718" cy="90.668" r="55.861"/>
<circle style="fill:#F3C74F;" cx="390.718" cy="90.668" r="26.079"/>
<circle style="fill:#0081C6;" cx="121.276" cy="90.668" r="55.861"/>
<circle style="fill:#F3C74F;" cx="121.276" cy="90.668" r="26.079"/>
<path style="opacity:0.2;enable-background:new    ;" d="M154.296,45.621c-26.263,23.736-48.537,56.41-64.36,91.286  c8.937,6.069,19.723,9.617,31.34,9.617c30.849,0,55.858-25.009,55.858-55.858C177.134,72.173,168.141,55.787,154.296,45.621z"/>
<path style="fill:#40BAB3;" d="M431.507,243.841c0-96.644-80.57-235.87-175.508-235.87S80.492,147.197,80.492,243.841  S159.069,418.829,256,418.829S431.507,340.484,431.507,243.841z"/>
<g>
	<path style="fill:#F0B0B7;" d="M168.273,222.411h-29.299c-4.403,0-7.971-3.569-7.971-7.971s3.568-7.971,7.971-7.971h29.299   c4.403,0,7.971,3.569,7.971,7.971S172.675,222.411,168.273,222.411z"/>
	<path style="fill:#F0B0B7;" d="M373.026,222.411h-29.299c-4.403,0-7.971-3.569-7.971-7.971s3.568-7.971,7.971-7.971h29.299   c4.403,0,7.971,3.569,7.971,7.971S377.428,222.411,373.026,222.411z"/>
</g>
<path style="fill:#FFFFFF;" d="M83.448,275.934c15.118,81.314,86.617,142.895,172.551,142.895s157.433-61.581,172.551-142.895  L83.448,275.934L83.448,275.934z"/>
<path style="fill:#0081C6;" d="M114.516,347.381c31.944,43.325,83.415,71.448,141.482,71.448s109.539-28.123,141.482-71.448H114.516  z"/>
<path style="opacity:0.2;enable-background:new    ;" d="M274.611,400.219c-96.93,0-175.508-78.346-175.508-174.988  c0-58.182,29.209-131.786,73.168-181.165c-54.137,47.79-91.778,133.723-91.778,199.776c0,96.644,78.577,174.989,175.508,174.989  c53.293,0,101.033-23.688,133.22-61.074C358.47,384.215,318.415,400.219,274.611,400.219z"/>
<g>
	<circle style="fill:#FFFFFF;" cx="153.617" cy="138.717" r="48.166"/>
	<circle style="fill:#FFFFFF;" cx="358.377" cy="138.717" r="48.166"/>
</g>
<circle style="fill:#F0B0B7;" cx="255.997" cy="192.357" r="26.481"/>
<path d="M358.377,126.602c-6.689,0-12.112,5.422-12.112,12.112s5.422,12.112,12.112,12.112c6.689,0,12.112-5.422,12.112-12.112  C370.488,132.025,365.066,126.602,358.377,126.602z M438.747,260.083c0.475-5.353,0.731-10.768,0.731-16.242  c0-29.307-7.184-62.967-20.345-96.008c21.482-10.664,35.419-32.682,35.419-57.166c0-35.196-28.633-63.829-63.829-63.829  c-15.187,0-29.839,5.473-41.309,15.203C320.253,14.846,287.916,0,256,0c-31.899,0-64.239,14.855-93.406,42.049  c-11.471-9.734-26.127-15.211-41.318-15.211c-35.195,0-63.829,28.633-63.829,63.829c0,24.483,13.937,46.501,35.419,57.166  c-13.163,33.044-20.345,66.703-20.345,96.009c0,5.475,0.256,10.888,0.731,16.242c-6.544,6.065-10.346,14.601-10.346,23.67v105.94  c0,17.805,14.486,32.291,32.291,32.291c17.806,0,32.292-14.486,32.292-32.291v-15.404c12.928,12.666,27.721,23.442,43.931,31.875  v73.545c0,17.805,14.486,32.291,32.291,32.291c17.806,0,32.292-14.486,32.292-32.291V425.71c6.57,0.713,13.24,1.09,19.997,1.09  c6.757,0,13.426-0.377,19.997-1.09v53.999c0,17.805,14.486,32.291,32.292,32.291c17.805,0,32.291-14.486,32.291-32.291v-73.545  c16.209-8.432,31.003-19.208,43.931-31.875v15.404c0,17.805,14.486,32.291,32.292,32.291c17.805,0,32.291-14.486,32.291-32.291  v-105.94C449.093,274.684,445.29,266.148,438.747,260.083z M390.723,42.779c26.405,0,47.887,21.481,47.887,47.887  c0,17.553-9.547,33.417-24.455,41.773c-0.553-4.941-1.753-9.685-3.506-14.158c8.768-6.289,14.125-16.425,14.125-27.617  c0-18.774-15.275-34.05-34.049-34.05c-7.726,0-15.021,2.612-20.873,7.153c-3.003-3.612-6.058-7.072-9.153-10.4  C369.151,46.575,379.755,42.779,390.723,42.779z M391.257,93.256c-3.756-5.897-7.626-11.538-11.597-16.925  c3.107-2.396,6.972-3.772,11.063-3.772c9.985,0,18.107,8.123,18.107,18.108c0,5.354-2.307,10.252-6.162,13.619  C399.403,100.094,395.561,96.378,391.257,93.256z M398.572,138.715c0,22.164-18.032,40.195-40.195,40.195  s-40.195-18.032-40.195-40.195s18.032-40.195,40.195-40.195C380.54,98.519,398.572,116.551,398.572,138.715z M73.389,90.667  c0-26.405,21.481-47.887,47.887-47.887c10.969,0,21.574,3.796,30.03,10.593c-3.095,3.326-6.146,6.792-9.149,10.403  c-5.855-4.543-13.152-7.158-20.881-7.158c-18.774,0-34.049,15.275-34.049,34.05c0,11.192,5.357,21.328,14.125,27.617  c-1.754,4.471-2.955,9.217-3.506,14.158C82.936,124.083,73.389,108.22,73.389,90.667z M153.622,98.519  c22.164,0,40.195,18.032,40.195,40.195s-18.032,40.195-40.195,40.195s-40.195-18.032-40.195-40.195S131.459,98.519,153.622,98.519z   M109.331,104.284c-3.855-3.367-6.162-8.263-6.162-13.619c0-9.984,8.123-18.108,18.107-18.108c4.091,0,7.957,1.376,11.064,3.772  c-3.973,5.389-7.847,11.031-11.605,16.93C116.434,96.381,112.594,100.096,109.331,104.284z M111.547,389.694  c0,9.015-7.334,16.349-16.35,16.349s-16.349-7.334-16.349-16.349v-98.194c6.492,23.968,17.745,46.007,32.699,65.025  C111.547,356.525,111.547,389.694,111.547,389.694z M220.06,479.709c0,9.015-7.334,16.349-16.35,16.349  c-9.015,0-16.349-7.334-16.349-16.349v-66.202c10.459,4.223,21.392,7.512,32.699,9.76V479.709z M324.638,479.709  c0,9.015-7.333,16.349-16.349,16.349c-9.015,0-16.35-7.334-16.35-16.349v-56.442c11.307-2.248,22.24-5.537,32.699-9.76V479.709z   M256,410.858c-92.38,0-167.537-74.924-167.537-167.017c0-24.247,5.346-51.842,15.223-79.531  c9.323,18.114,28.2,30.542,49.937,30.542c30.954,0,56.137-25.183,56.137-56.137s-25.183-56.137-56.137-56.137  c-2.149,0-4.266,0.133-6.353,0.37c1.38-1.823,2.773-3.6,4.175-5.354l1.079-0.468c-0.081-0.185-0.176-0.36-0.259-0.543  c31.389-38.873,68.143-60.64,103.737-60.64c35.615,0,72.355,21.762,103.737,60.635c-0.084,0.184-0.181,0.36-0.261,0.546l1.081,0.469  c1.401,1.754,2.793,3.533,4.17,5.353c-2.086-0.236-4.202-0.369-6.35-0.369c-30.954,0-56.137,25.183-56.137,56.137  s25.183,56.137,56.137,56.137c21.738,0,40.614-12.427,49.937-30.542c9.878,27.687,15.223,55.284,15.223,79.531  C423.536,335.934,348.379,410.858,256,410.858z M433.151,389.694c0,9.015-7.333,16.349-16.349,16.349  c-9.015,0-16.35-7.334-16.35-16.349v-33.169c14.954-19.02,26.208-41.057,32.699-65.025V389.694z M256,157.903  c-18.997,0-34.452,15.455-34.452,34.453s15.455,34.452,34.452,34.452s34.452-15.455,34.452-34.452S274.997,157.903,256,157.903z   M256,210.865c-10.207,0-18.51-8.304-18.51-18.51c0-10.206,8.304-18.511,18.51-18.511c10.206,0,18.51,8.304,18.51,18.511  C274.51,202.563,266.206,210.865,256,210.865z M153.622,150.827c6.689,0,12.112-5.422,12.112-12.112  c0-6.689-5.422-12.112-12.112-12.112c-6.689,0-12.112,5.422-12.112,12.112C141.511,145.403,146.933,150.827,153.622,150.827z"/>
<g>
</g>
<g>
</g>
<g>
</g>
<g>
</g>
<g>
</g>
<g>
</g>
<g>
</g>
<g>
</g>
<g>
</g>
<g>
</g>
<g>
</g>
<g>
</g>
<g>
</g>
<g>
</g>
<g>
</g>
</svg>
