<?xml version="1.0" encoding="iso-8859-1"?>
<!-- Generator: Adobe Illustrator 19.0.0, SVG Export Plug-In . SVG Version: 6.00 Build 0)  -->
<svg xmlns="http://www.w3.org/2000/svg" xmlns:xlink="http://www.w3.org/1999/xlink" version="1.1" id="Capa_1" x="0px" y="0px" viewBox="0 0 511.999 511.999" style="enable-background:new 0 0 511.999 511.999;" xml:space="preserve">
<path style="fill:#F3C74F;" d="M321.085,504.028c-3.519,0-7.088-0.86-10.392-2.67c-10.492-5.75-14.337-18.917-8.587-29.41  c20.938-38.207,5.789-55.7-11.792-67.773c-9.863-6.772-12.368-20.259-5.596-30.122c6.775-9.864,20.262-12.367,30.122-5.595  c6.127,4.207,24.769,17.008,34.504,39.577c10.871,25.199,7.761,53.709-9.242,84.737  C336.163,499.959,328.742,504.028,321.085,504.028z"/>
<path style="opacity:0.2;enable-background:new    ;" d="M352.82,417.84c-0.932-3.321-2.088-6.59-3.475-9.805  c-9.735-22.569-28.377-35.37-34.504-39.577c-9.86-6.772-23.347-4.269-30.122,5.595c-6.772,9.863-4.267,23.35,5.596,30.122  c11.909,8.178,22.686,18.853,21.902,36.758C326.959,435.267,340.625,427.443,352.82,417.84z"/>
<path style="fill:#F3C74F;" d="M55.681,356.286c-5.606,0-11.21-2.163-15.451-6.478c-18.716-19.042-28.073-41.629-26.347-63.602  c1.386-17.653,10.013-33.197,24.29-43.767c16.145-11.952,36.34-14.833,58.4-8.329c17.741,5.23,36.469,16.68,54.162,33.112  c8.767,8.142,9.273,21.849,1.131,30.616c-8.144,8.766-21.851,9.272-30.616,1.131c-22.979-21.343-46.005-30.067-57.296-21.707  c-4.22,3.125-6.47,7.16-6.876,12.337c-0.718,9.144,4.404,20.02,14.052,29.837c8.387,8.533,8.269,22.25-0.265,30.636  C66.648,354.219,61.163,356.286,55.681,356.286z"/>
<path style="opacity:0.2;enable-background:new    ;" d="M150.735,267.221c-17.693-16.431-36.421-27.882-54.162-33.112  c-3.163-0.932-6.281-1.649-9.361-2.197c-3.045,14.11-4.68,27.916-4.68,40.861c0,0.809,0.018,1.613,0.031,2.419  c11.242,2.799,24.972,11.038,38.686,23.776c8.765,8.141,22.472,7.635,30.616-1.131C160.008,289.071,159.502,275.364,150.735,267.221  z"/>
<path style="fill:#F3C74F;" d="M456.321,356.286c-5.483,0.001-10.966-2.067-15.185-6.213c-8.533-8.387-8.652-22.103-0.265-30.636  c9.648-9.817,14.771-20.693,14.053-29.836c-0.407-5.177-2.656-9.212-6.877-12.337c-11.288-8.358-34.315,0.366-57.295,21.707  c-8.766,8.142-22.473,7.635-30.617-1.131c-8.142-8.767-7.635-22.475,1.132-30.616c17.693-16.431,36.421-27.882,54.162-33.112  c22.061-6.504,42.256-3.623,58.399,8.329c14.278,10.571,22.905,26.114,24.292,43.767c1.725,21.972-7.631,44.559-26.347,63.602  C467.532,354.122,461.927,356.286,456.321,356.286z"/>
<circle style="fill:#0081C6;" cx="376.011" cy="136.336" r="49.756"/>
<circle style="fill:#F3C74F;" cx="376.011" cy="136.336" r="23.23"/>
<circle style="fill:#0081C6;" cx="135.997" cy="136.336" r="49.756"/>
<circle style="fill:#F3C74F;" cx="135.997" cy="136.336" r="23.23"/>
<path style="opacity:0.2;enable-background:new    ;" d="M165.406,96.206c-23.393,21.143-43.236,50.248-57.33,81.314  c7.96,5.407,17.569,8.567,27.917,8.567c27.48,0,49.756-22.276,49.756-49.756C185.749,119.858,177.739,105.261,165.406,96.206z"/>
<path style="fill:#F3C74F;" d="M190.917,504.028c-7.658,0-15.078-4.067-19.018-11.257c-17.003-31.027-20.113-59.536-9.242-84.736  c9.735-22.569,28.377-35.37,34.503-39.577c9.863-6.774,23.349-4.268,30.122,5.595c6.773,9.863,4.268,23.35-5.595,30.122  c-17.581,12.072-32.73,29.566-11.792,67.773c5.75,10.492,1.906,23.659-8.587,29.409  C198.005,503.168,194.435,504.028,190.917,504.028z"/>
<path style="opacity:0.2;enable-background:new    ;" d="M227.282,374.053c-6.773-9.863-20.259-12.369-30.122-5.595  c-6.126,4.207-24.768,17.008-34.503,39.577c-1.387,3.215-2.543,6.484-3.475,9.805c12.195,9.602,25.86,17.427,40.602,23.094  c-0.783-17.906,9.994-28.581,21.903-36.758C231.55,397.403,234.055,383.917,227.282,374.053z"/>
<path style="fill:#40BAB3;" d="M412.338,272.775c0-86.087-71.769-210.105-156.337-210.105S99.664,186.687,99.664,272.775  s69.994,155.874,156.337,155.874S412.338,358.861,412.338,272.775z"/>
<g>
	<path style="fill:#F0B0B7;" d="M177.856,254.556h-26.099c-4.402,0-7.971-3.569-7.971-7.971c0-4.402,3.569-7.971,7.971-7.971h26.099   c4.402,0,7.971,3.569,7.971,7.971C185.827,250.987,182.258,254.556,177.856,254.556z"/>
	<path style="fill:#F0B0B7;" d="M360.244,254.556h-26.099c-4.403,0-7.971-3.569-7.971-7.971c0-4.402,3.568-7.971,7.971-7.971h26.099   c4.403,0,7.971,3.569,7.971,7.971C368.215,250.987,364.648,254.556,360.244,254.556z"/>
</g>
<path style="fill:#FFFFFF;" d="M102.297,301.362c13.468,72.432,77.157,127.287,153.704,127.287s140.236-54.855,153.704-127.287  L102.297,301.362L102.297,301.362z"/>
<path style="fill:#0081C6;" d="M129.972,365.005c28.455,38.593,74.303,63.643,126.029,63.643s97.574-25.05,126.029-63.643H129.972z"/>
<path style="opacity:0.2;enable-background:new    ;" d="M272.579,412.07c-86.342,0-156.337-69.787-156.337-155.875  c0-51.827,26.019-117.391,65.176-161.377c-48.224,42.57-81.753,119.116-81.753,177.954c0,86.087,69.994,155.874,156.337,155.874  c47.472,0,89.996-21.101,118.669-54.403C347.278,397.815,311.6,412.07,272.579,412.07z"/>
<g>
	<path style="fill:#892641;" d="M266.126,149.732c-3.256,0-6.313-2.01-7.492-5.247c-1.506-4.138,0.627-8.711,4.764-10.217   c5.618-2.045,8.525-8.279,6.481-13.897c-1.506-4.136,0.628-8.711,4.764-10.217c4.139-1.507,8.711,0.627,10.217,4.765   c5.052,13.878-2.131,29.278-16.009,34.33C267.952,149.577,267.032,149.732,266.126,149.732z"/>
	<path style="fill:#892641;" d="M315.701,130.49c-10.945,0-21.241-6.759-25.196-17.625l14.981-5.453   c2.045,5.618,8.282,8.527,13.896,6.48c4.141-1.509,8.712,0.628,10.217,4.765c1.506,4.136-0.628,8.711-4.763,10.217   C321.823,129.971,318.735,130.49,315.701,130.49z"/>
	<path style="fill:#892641;" d="M316.363,173.158c-3.256,0-6.313-2.01-7.492-5.247c-2.447-6.723-2.13-13.996,0.894-20.48   c3.024-6.484,8.392-11.403,15.115-13.849c4.131-1.506,8.71,0.626,10.216,4.764c1.505,4.138-0.628,8.711-4.763,10.217   c-2.722,0.991-4.894,2.981-6.119,5.606c-1.223,2.625-1.352,5.569-0.361,8.29c1.506,4.138-0.627,8.711-4.763,10.217   C318.189,173.003,317.268,173.158,316.363,173.158z"/>
	<path style="fill:#892641;" d="M296.674,178.656c-3.256,0-6.313-2.01-7.492-5.247c-2.045-5.617-8.274-8.525-13.896-6.48   c-4.138,1.507-8.712-0.629-10.216-4.765c-1.505-4.138,0.628-8.711,4.765-10.217c13.875-5.052,29.277,2.13,34.329,16.009   c1.506,4.136-0.628,8.711-4.763,10.217C298.499,178.5,297.578,178.656,296.674,178.656z"/>
</g>
<path style="fill:#FFFFFF;" d="M279.672,211.633H232.33c-8.439,0-15.28,6.841-15.28,15.28l0,0c0,8.439,6.841,15.28,15.28,15.28  h47.342c8.439,0,15.28-6.841,15.28-15.28l0,0C294.951,218.474,288.111,211.633,279.672,211.633z"/>
<g style="opacity:0.2;">
	<rect x="235.285" y="211.636" width="15.942" height="30.559"/>
	<rect x="260.781" y="211.636" width="15.942" height="30.559"/>
</g>
<path d="M166.234,186.144c-3.113-3.113-8.16-3.113-11.273,0c-3.113,3.113-3.113,8.16,0,11.273l4.755,4.755  c-1.76,1.462-2.881,3.666-2.881,6.132v4.28c0,4.402,3.569,7.971,7.971,7.971s7.971-3.569,7.971-7.971v-1.794  c1.673-0.224,3.289-0.97,4.574-2.255c3.113-3.113,3.113-8.16,0-11.272L166.234,186.144z M13.255,66.426  c-3.502,6.614-4.224,14.5-1.784,21.722c3.873,11.469,14.61,18.718,26.096,18.717c2.912,0,5.875-0.467,8.783-1.449  c2.095-0.708,4.061-1.653,5.893-2.809l13.404,5.409c0.978,0.394,1.987,0.581,2.98,0.581c3.154,0,6.142-1.885,7.394-4.99  c1.647-4.082-0.326-8.728-4.409-10.375L45.002,82.494c-4.083-1.646-8.728,0.327-10.375,4.409c-0.459,1.138-0.628,2.319-0.557,3.467  c-3.402-1.077-6.269-3.691-7.496-7.324c-1.307-3.872-0.452-8.202,2.234-11.3c2.502-2.887,2.604-7.144,0.242-10.148  c-1.214-1.543-2.148-3.273-2.78-5.143c-1.474-4.366-1.161-9.047,0.885-13.177c2.045-4.131,5.577-7.218,9.943-8.693  c4.681-1.581,9.83-1.071,14.126,1.399c2.791,1.605,6.272,1.373,8.827-0.588c1.013-0.777,2.137-1.377,3.344-1.784  c6.051-2.044,12.631,1.217,14.674,7.264c0.554,1.64,0.703,3.349,0.512,5.013c-1.405,0.063-2.812,0.489-4.067,1.329  c-3.659,2.447-4.643,7.397-2.196,11.056l15.03,22.479c1.537,2.299,4.061,3.541,6.634,3.541c1.523,0,3.062-0.436,4.423-1.346  c3.659-2.447,4.643-7.397,2.196-11.056l-9.399-14.057c3.665-6.674,4.467-14.671,1.972-22.059  c-4.855-14.377-20.504-22.12-34.878-17.267c-1.239,0.419-2.441,0.923-3.602,1.508c-7.223-2.82-15.263-3.045-22.694-0.535  c-8.401,2.837-15.195,8.776-19.129,16.723c-3.935,7.947-4.539,16.95-1.702,25.351C11.736,63.241,12.433,64.867,13.255,66.426z   M315.285,59.859c0.987,0.404,2.008,0.595,3.012,0.595c3.142,0,6.12-1.869,7.381-4.958l7.543-18.455  c1.665-4.075-0.288-8.729-4.363-10.394c-0.732-0.3-1.483-0.477-2.231-0.552c-0.034-0.432-0.039-0.866,0.015-1.305  c0.213-1.707,1.079-3.23,2.437-4.286c1.357-1.056,3.048-1.519,4.752-1.307c0.705,0.088,1.386,0.29,2.025,0.602  c2.895,1.411,6.352,0.94,8.764-1.19c2.288-2.019,5.329-2.961,8.353-2.586c5.815,0.727,9.953,6.048,9.228,11.861  c-0.152,1.207-0.504,2.369-1.046,3.451c-1.711,3.415-0.76,7.564,2.269,9.892c1.838,1.412,2.764,3.624,2.477,5.913  c-0.149,1.19-0.621,2.287-1.35,3.202c-0.027-0.041-0.047-0.085-0.074-0.125c-2.429-3.672-7.376-4.676-11.046-2.246l-17.64,11.68  c-3.671,2.431-4.675,7.376-2.245,11.047c1.533,2.317,4.068,3.571,6.653,3.571c1.511,0,3.039-0.429,4.394-1.326l8.021-5.311  c1.332,0.429,2.707,0.742,4.122,0.919c0.944,0.118,1.884,0.176,2.821,0.176c4.947,0,9.728-1.632,13.697-4.719  c4.719-3.671,7.727-8.959,8.468-14.893c0.722-5.78-0.875-11.574-4.277-16.151c0.252-1.017,0.444-2.052,0.576-3.101  c0.88-7.041-1.036-14.006-5.393-19.607c-4.358-5.602-10.635-9.172-17.678-10.051c-5.913-0.741-11.876,0.544-16.926,3.564  c-0.729-0.167-1.468-0.297-2.214-0.39c-5.932-0.742-11.798,0.872-16.518,4.542c-4.719,3.671-7.727,8.959-8.468,14.892  c-0.732,5.854,0.897,11.664,4.351,16.248l-4.252,10.404C309.256,53.54,311.21,58.194,315.285,59.859z M70.284,70.568L56.76,61.357  c-3.638-2.48-8.597-1.537-11.074,2.101c-2.478,3.638-1.538,8.597,2.101,11.074l13.524,9.211c1.373,0.935,2.934,1.384,4.48,1.384  c2.549,0,5.053-1.22,6.596-3.485C74.864,78.005,73.923,73.047,70.284,70.568z M279.671,203.661H232.33  c-12.821,0-23.251,10.43-23.251,23.251s10.43,23.25,23.251,23.25h47.341c12.821,0,23.251-10.43,23.251-23.25  C302.922,214.092,292.491,203.661,279.671,203.661z M279.671,234.221H232.33c-4.03,0-7.309-3.279-7.309-7.308  c0-4.03,3.279-7.309,7.309-7.309h47.341c4.03,0,7.309,3.279,7.309,7.309C286.98,230.943,283.701,234.221,279.671,234.221z   M345.767,186.144l-11.118,11.118c-3.113,3.113-3.113,8.16,0,11.272c1.286,1.285,2.902,2.031,4.575,2.255v1.794  c0,4.402,3.568,7.971,7.971,7.971c4.403,0,7.971-3.569,7.971-7.971v-4.28c0-2.467-1.121-4.671-2.88-6.132l4.755-4.755  c3.113-3.113,3.113-8.16,0-11.273C353.927,183.031,348.881,183.031,345.767,186.144z M506.065,285.583  c-1.57-19.99-11.334-37.587-27.494-49.55c-17.907-13.256-40.039-16.675-64.083-9.939c-2.981-12.724-7.045-25.654-12.084-38.415  c19.029-9.774,31.332-29.478,31.332-51.347c0-31.831-25.896-57.727-57.727-57.727c-13.494,0-26.522,4.776-36.812,13.287  c-6.056-5.618-12.256-10.667-18.534-15.041C299.56,62.15,277.805,54.696,256,54.696s-43.559,7.453-64.661,22.153  c-6.278,4.373-12.478,9.423-18.534,15.041c-10.29-8.511-23.319-13.287-36.814-13.287c-31.831,0-57.727,25.896-57.727,57.727  c0,21.868,12.303,41.573,31.332,51.347c-5.039,12.761-9.103,25.691-12.084,38.415c-24.044-6.737-46.177-3.316-64.082,9.939  c-16.161,11.963-25.925,29.561-27.495,49.55c-1.909,24.306,8.251,49.1,28.609,69.813c5.617,5.714,13.122,8.862,21.137,8.862  c7.819,0,15.196-3.018,20.773-8.499c11.654-11.454,11.816-30.254,0.361-41.909c-7.914-8.051-12.321-16.883-11.791-23.625  c0.226-2.892,1.291-4.791,3.673-6.554c4.193-3.106,13.261-1.518,23.678,3.964c4.246,46.867,28.361,88.097,63.863,115.234  c-0.31,0.67-0.611,1.34-0.901,2.011c-11.894,27.571-8.674,58.431,9.571,91.723c5.205,9.497,15.171,15.397,26.008,15.397  c4.945,0,9.863-1.263,14.221-3.651c14.33-7.853,19.599-25.901,11.747-40.23c-10.9-19.889-10.018-31.724-7.716-38.29  c14.848,4.411,30.565,6.791,46.832,6.791s31.983-2.381,46.832-6.791c2.302,6.566,3.183,18.4-7.716,38.29  c-7.853,14.329-2.584,32.376,11.747,40.23c4.36,2.388,9.277,3.65,14.221,3.65c10.837,0,20.803-5.9,26.009-15.397  c18.244-33.292,21.464-64.152,9.571-91.723c-0.29-0.672-0.591-1.342-0.901-2.011c35.502-27.137,59.617-68.367,63.863-115.233  c10.418-5.483,19.487-7.069,23.678-3.965c2.381,1.763,3.446,3.662,3.673,6.555c0.529,6.742-3.878,15.574-11.793,23.625  c-11.453,11.654-11.29,30.454,0.362,41.908c5.577,5.481,12.955,8.499,20.774,8.499c8.014,0,15.52-3.147,21.136-8.862  C497.813,334.683,507.973,309.89,506.065,285.583z M91.731,269.798c-13.193-5.178-24.484-4.892-32.519,1.059  c-6.099,4.515-9.491,10.612-10.081,18.119c-0.899,11.446,5.047,24.585,16.314,36.049c5.293,5.384,5.218,14.072-0.167,19.364  c-2.576,2.533-5.985,3.927-9.597,3.927c-3.703,0-7.172-1.454-9.767-4.095c-17.074-17.372-25.627-37.753-24.085-57.389  c1.203-15.319,8.692-28.808,21.086-37.985c14.059-10.407,31.833-12.86,51.403-7.09c0.018,0.005,0.037,0.012,0.055,0.018  C92.793,251.391,91.895,260.787,91.731,269.798z M376.008,94.546c23.041,0,41.785,18.745,41.785,41.785  c0,15.443-8.473,29.393-21.672,36.635c-1.473-3.211-3.007-6.399-4.598-9.563c9.472-5.435,15.684-15.64,15.684-27.073  c0-17.205-13.997-31.201-31.202-31.201c-6.736,0-13.188,2.19-18.48,6.082c-2.302-2.741-4.642-5.394-7.015-7.964  C357.772,97.663,366.738,94.546,376.008,94.546z M391.267,136.331c0,5.442-2.876,10.31-7.294,13.018  c-3.616-6.307-7.451-12.464-11.508-18.406c-1.669-2.443-3.372-4.834-5.099-7.187c2.511-1.725,5.516-2.686,8.642-2.686  C384.422,121.073,391.267,127.917,391.267,136.331z M94.208,136.331c0-23.041,18.745-41.785,41.785-41.785  c9.271,0,18.237,3.117,25.496,8.702c-2.372,2.57-4.712,5.223-7.015,7.964c-5.292-3.892-11.744-6.082-18.481-6.082  c-17.205,0-31.201,13.997-31.201,31.201c0,11.432,6.212,21.637,15.685,27.073c-1.59,3.163-3.125,6.352-4.598,9.563  C102.68,165.724,94.208,151.774,94.208,136.331z M144.636,123.758c-1.727,2.352-3.431,4.742-5.099,7.186  c-4.057,5.941-7.893,12.099-11.508,18.406c-4.418-2.707-7.294-7.577-7.294-13.018c0-8.414,6.846-15.259,15.259-15.259  C139.119,121.073,142.124,122.032,144.636,123.758z M197.478,494.368c-2.017,1.104-4.285,1.689-6.561,1.689  c-5.013,0-9.623-2.727-12.028-7.117c-15.557-28.389-18.672-54.238-9.279-76.857c7.779,4.815,15.989,8.998,24.557,12.482  c-5.11,14.361-2.218,31.22,8.738,51.215C206.534,482.401,204.099,490.739,197.478,494.368z M333.113,488.94  c-2.406,4.389-7.015,7.117-12.028,7.117c-2.275,0-4.544-0.585-6.561-1.689c-6.62-3.628-9.056-11.967-5.428-18.588  c10.956-19.995,13.848-36.854,8.738-51.215c8.568-3.484,16.777-7.667,24.557-12.482C351.783,434.701,348.67,460.55,333.113,488.94z   M256.001,420.678c-81.81,0-148.366-66.35-148.366-147.903c0-41.22,17.268-92.122,45.067-132.841  c14.254-20.88,30.766-38.169,47.75-50.001c18.376-12.802,37.065-19.292,55.549-19.292c18.483,0,37.173,6.491,55.549,19.292  c16.984,11.831,33.495,29.121,47.75,50.001c27.799,40.719,45.067,91.62,45.067,132.841  C404.367,354.328,337.811,420.678,256.001,420.678z M466.087,344.22c-2.595,2.64-6.063,4.095-9.767,4.095  c-3.612,0-7.021-1.394-9.597-3.927c-5.384-5.293-5.461-13.979-0.168-19.364c11.268-11.463,17.214-24.602,16.315-36.049  c-0.59-7.507-3.981-13.603-10.079-18.119c-8.037-5.95-19.327-6.237-32.52-1.059c-0.164-9.009-1.062-18.407-2.644-28.024  c0.019-0.005,0.037-0.013,0.056-0.018c19.569-5.769,37.342-3.317,51.403,7.09c12.394,9.176,19.883,22.667,21.087,37.985  C491.714,306.468,483.16,326.849,466.087,344.22z"/>
<g>
</g>
<g>
</g>
<g>
</g>
<g>
</g>
<g>
</g>
<g>
</g>
<g>
</g>
<g>
</g>
<g>
</g>
<g>
</g>
<g>
</g>
<g>
</g>
<g>
</g>
<g>
</g>
<g>
</g>
</svg>
