<?xml version="1.0" encoding="iso-8859-1"?>
<!-- Generator: Adobe Illustrator 19.0.0, SVG Export Plug-In . SVG Version: 6.00 Build 0)  -->
<svg xmlns="http://www.w3.org/2000/svg" xmlns:xlink="http://www.w3.org/1999/xlink" version="1.1" id="Capa_1" x="0px" y="0px" viewBox="0 0 512.001 512.001" style="enable-background:new 0 0 512.001 512.001;" xml:space="preserve">
<g>
	<path style="fill:#F29C1F;" d="M84.395,241.872c-10.39,30.287-17.558,61.598-21.362,93.394   c-26.738-1.73-47.006-24.814-45.276-51.552c1.66-25.538,22.863-45.391,48.454-45.373C72.452,238.314,78.631,239.515,84.395,241.872   z"/>
	<path style="fill:#F29C1F;" d="M494.341,286.892c0.035,25.847-20.259,47.156-46.079,48.374   c-3.769-31.717-10.928-62.94-21.362-93.129c5.985-2.481,12.403-3.769,18.891-3.796c26.8-0.018,48.533,21.698,48.551,48.498   C494.341,286.856,494.341,286.874,494.341,286.892z"/>
</g>
<g>
	<path style="fill:#894B9D;" d="M503.169,180.962c0,12.191-9.878,22.06-22.069,22.069c-2.145-0.018-4.281-0.309-6.356-0.883   c1.315,3.063,1.977,6.373,1.942,9.71c0,14.627-11.864,26.482-26.491,26.482c-6.674,0-13.109-2.525-17.999-7.062l-0.088-0.088   c-2.03-7.592-4.325-15.36-6.885-23.216c-0.53-1.765-1.148-3.619-1.766-5.385c-0.441-1.501-0.971-3.09-1.501-4.59   c-0.106-0.512-0.256-1.015-0.441-1.501c-3.266-9.71-6.974-19.332-10.946-28.954c-5.208-12.623-10.92-25.043-17.125-37.252   c-3.619-7.238-7.503-14.389-11.476-21.186c-0.15-0.221-0.274-0.45-0.353-0.706c5.897-15.96,23.613-24.117,39.573-18.22   c10.893,4.025,18.591,13.833,19.924,25.37c11.723-12.358,31.249-12.879,43.608-1.156c6.153,5.835,9.631,13.947,9.622,22.431   c0.026,8.474-3.496,16.578-9.71,22.333C495.321,160.906,503.16,170.14,503.169,180.962z"/>
	<path style="fill:#894B9D;" d="M130.386,108.401c-0.079,0.256-0.203,0.486-0.353,0.706c-4.061,6.974-7.945,14.124-11.652,21.451   c-3.972,7.768-7.768,15.713-11.211,23.658c-2.03,4.414-3.884,8.827-5.738,13.329c-3.972,9.622-7.68,19.332-10.946,28.954   c-0.177,0.441-0.265,0.794-0.441,1.236c-0.53,1.589-1.059,3.178-1.501,4.679c-0.706,1.854-1.236,3.708-1.854,5.561   c-2.03,6.532-3.972,12.976-5.738,19.332c-0.353,1.324-0.706,2.56-1.059,3.884l-0.088,0.088c-10.725,9.949-27.48,9.313-37.428-1.421   c-4.537-4.89-7.053-11.326-7.062-17.999c-0.035-3.337,0.627-6.647,1.942-9.71c-2.066,0.574-4.202,0.865-6.356,0.883   c-12.191-0.009-22.077-9.896-22.069-22.095c0.009-10.822,7.856-20.047,18.538-21.777c-6.215-5.755-9.737-13.859-9.71-22.333   c-0.026-17.037,13.762-30.87,30.799-30.896c8.483-0.018,16.596,3.469,22.431,9.622c1.951-16.905,17.231-29.025,34.127-27.074   C116.563,89.81,126.37,97.508,130.386,108.401z"/>
</g>
<path style="fill:#F0C419;" d="M454.265,317.788c-1.139,108.366-89.89,195.298-198.264,194.204  c-108.366,1.095-197.117-85.838-198.264-194.204c0.018-8.916,0.583-17.814,1.677-26.659c1.589-14.768,4.122-29.422,7.592-43.872  c1.501-6.532,3.178-13.241,5.12-19.95c1.765-6.356,3.708-12.8,5.738-19.332c0.618-1.854,1.148-3.708,1.854-5.561  c0.441-1.501,0.971-3.09,1.501-4.679c0.177-0.441,0.265-0.794,0.441-1.236c3.266-9.622,6.974-19.332,10.946-28.954  c1.854-4.502,3.708-8.916,5.738-13.329c3.443-7.945,7.238-15.889,11.211-23.658c3.708-7.327,7.592-14.477,11.652-21.451  c4.237-7.327,8.563-14.477,13.153-21.362c2.207-3.443,4.502-6.709,6.797-9.975c1.236-1.677,2.383-3.266,3.531-4.855h0.177  c6.347-8.739,13.215-17.081,20.568-24.982c5.994-6.373,12.332-12.411,18.979-18.096C204.051,11.714,229.483,1.148,256.177,0  c32.75,0,63.646,18.891,90.923,48.198c7.565,8.139,14.636,16.71,21.186,25.688c0.088,0.088,0.088,0.088,0.088,0.177  c0.088,0.265,0.265,0.53,0.353,0.794c0.883,1.236,1.677,2.383,2.648,3.619c6.982,9.878,13.462,20.1,19.42,30.631  c3.972,6.797,7.856,13.947,11.476,21.186c6.179,12.182,11.891,24.602,17.125,37.252c3.972,9.622,7.68,19.244,10.946,28.954  c0.185,0.486,0.335,0.989,0.441,1.501c0.53,1.501,1.059,3.09,1.501,4.59c0.618,1.765,1.236,3.619,1.765,5.385  c8.995,27.012,15.21,54.88,18.538,83.154C453.691,299.974,454.247,308.872,454.265,317.788z"/>
<path style="fill:#F9EAB0;" d="M449.233,361.219c-21.663,88.981-101.648,151.391-193.233,150.773  c-91.576,0.618-171.561-61.792-193.233-150.773c5.738-3.884,36.899-23.216,60.821,0.706c26.482,26.482,79.447,8.827,79.447,8.827  l5.296-0.441c21.663,26.323,60.556,30.11,86.888,8.448c3.081-2.533,5.914-5.367,8.448-8.448l5.296,0.441  c0,0,52.965,17.655,79.447-8.827C412.335,338.003,443.495,357.335,449.233,361.219z"/>
<path style="fill:#FFFFFF;" d="M229.518,233.927c0.159,16.322-3.284,32.476-10.063,47.315c-9.49,6.877-16.781,16.348-21.009,27.277  c-7.512,5.897-16.754,9.154-26.306,9.269c-31.69,0-57.378-37.517-57.378-83.861s25.688-83.861,57.378-83.861  S229.518,187.583,229.518,233.927z"/>
<circle style="fill:#805333;" cx="172.14" cy="233.927" r="22.069"/>
<path style="fill:#FFFFFF;" d="M397.24,233.927c0,46.344-25.688,83.861-57.378,83.861c-9.551-0.124-18.785-3.381-26.306-9.269  c-4.228-10.928-11.52-20.4-21.009-27.277c-6.779-14.839-10.222-30.993-10.063-47.315c0-46.344,25.688-83.861,57.378-83.861  S397.24,187.583,397.24,233.927z"/>
<circle style="fill:#805333;" cx="339.861" cy="233.927" r="22.069"/>
<g>
	<path style="fill:#E64C3C;" d="M317.793,331.029c-0.009,34.127-27.692,61.783-61.819,61.766   c-34.127-0.018-61.774-27.683-61.766-61.81c0-7.689,1.439-15.307,4.237-22.466c12.482-31.788,48.366-47.439,80.153-34.957   c16.004,6.285,28.672,18.952,34.957,34.957C316.372,315.687,317.81,323.322,317.793,331.029z"/>
	<path style="fill:#E64C3C;" d="M317.113,435.378c-0.83,1.942-1.695,3.831-2.692,5.667c-0.168,0.318-0.371,0.627-0.538,0.892   c-5.782,10.478-14.283,19.2-24.62,25.246c-0.706,0.424-1.404,0.839-2.11,1.209c-20.056,11.476-44.799,11.008-64.414-1.209   c-0.177-0.088-0.344-0.194-0.494-0.318c-4.864-2.887-9.339-6.382-13.321-10.39c-4.705-4.758-8.66-10.204-11.705-16.163   c-0.874-1.598-1.66-3.249-2.357-4.935c-1.81-4.211,0.132-9.092,4.352-10.902c2.083-0.9,4.449-0.9,6.532-0.009   c32.079,13.788,68.413,13.788,100.492,0c4.211-1.801,9.083,0.15,10.893,4.361C318.022,430.92,318.013,433.286,317.113,435.378z"/>
</g>
<g>
</g>
<g>
</g>
<g>
</g>
<g>
</g>
<g>
</g>
<g>
</g>
<g>
</g>
<g>
</g>
<g>
</g>
<g>
</g>
<g>
</g>
<g>
</g>
<g>
</g>
<g>
</g>
<g>
</g>
</svg>
