<?xml version="1.0" encoding="iso-8859-1"?>
<!-- Generator: Adobe Illustrator 19.0.0, SVG Export Plug-In . SVG Version: 6.00 Build 0)  -->
<svg xmlns="http://www.w3.org/2000/svg" xmlns:xlink="http://www.w3.org/1999/xlink" version="1.1" id="Capa_1" x="0px" y="0px" viewBox="0 0 512.001 512.001" style="enable-background:new 0 0 512.001 512.001;" xml:space="preserve">
<path style="fill:#F3C74F;" d="M306.32,494.686c-12.926,0-23.404-10.478-23.404-23.404v-88.627  c0-12.926,10.478-23.404,23.404-23.404s23.404,10.478,23.404,23.404v88.627C329.725,484.208,319.246,494.686,306.32,494.686z"/>
<path style="opacity:0.2;enable-background:new    ;" d="M306.32,359.251c-12.926,0-23.404,10.478-23.404,23.404v49.086  c16.526-2.639,32.252-7.663,46.808-14.716v-34.37C329.725,369.729,319.246,359.251,306.32,359.251z"/>
<path style="fill:#F3C74F;" d="M205.682,494.686c-12.926,0-23.404-10.478-23.404-23.404v-88.627  c0-12.926,10.478-23.404,23.404-23.404s23.404,10.478,23.404,23.404v88.627C229.087,484.208,218.608,494.686,205.682,494.686z"/>
<path style="opacity:0.2;enable-background:new    ;" d="M205.682,359.251c-12.926,0-23.404,10.478-23.404,23.404v34.37  c14.557,7.053,30.282,12.077,46.809,14.716v-49.086C229.087,369.729,218.608,359.251,205.682,359.251z"/>
<path style="fill:#F3C74F;" d="M93.157,299.218c-21.854,0-42.274-7.266-58.014-21.251c-22.254-19.773-31.625-50.249-25.067-81.521  c2.653-12.651,15.059-20.758,27.708-18.104c12.651,2.653,20.756,15.058,18.104,27.708c-3.161,15.075,0.513,28.188,10.346,36.925  c11.068,9.835,28.321,12.125,46.152,6.125c12.252-4.124,25.525,2.467,29.646,14.718c4.123,12.251-2.467,25.525-14.718,29.646  C115.843,297.324,104.313,299.218,93.157,299.218z"/>
<path style="opacity:0.2;enable-background:new    ;" d="M142.03,263.818c-4.122-12.25-17.393-18.842-29.646-14.718  c-16.015,5.389-31.548,4.069-42.569-3.377c-0.026,1.221-0.047,2.439-0.047,3.647c0,16.845,2.493,33.107,7.109,48.454  c5.299,0.924,10.742,1.394,16.279,1.394c11.156,0,22.686-1.894,34.156-5.754C139.563,289.343,146.153,276.069,142.03,263.818z"/>
<path style="fill:#F3C74F;" d="M418.846,299.218c21.854,0,42.274-7.266,58.014-21.251c22.254-19.773,31.625-50.249,25.067-81.521  c-2.653-12.651-15.059-20.758-27.708-18.104c-12.651,2.653-20.756,15.058-18.104,27.708c3.161,15.075-0.514,28.188-10.347,36.925  c-11.068,9.835-28.321,12.125-46.152,6.125c-12.253-4.124-25.525,2.467-29.646,14.718c-4.123,12.251,2.467,25.525,14.717,29.646  C396.16,297.324,407.69,299.218,418.846,299.218z"/>
<circle style="fill:#0081C6;" cx="385.651" cy="96.894" r="53.754"/>
<circle style="fill:#F3C74F;" cx="385.651" cy="96.894" r="25.096"/>
<circle style="fill:#0081C6;" cx="126.353" cy="96.894" r="53.754"/>
<circle style="fill:#F3C74F;" cx="126.353" cy="96.894" r="25.096"/>
<path style="opacity:0.2;enable-background:new    ;" d="M158.129,53.546c-25.274,22.842-46.709,54.286-61.936,87.847  c8.6,5.84,18.98,9.255,30.159,9.255c29.687,0,53.754-24.067,53.754-53.754C180.106,79.098,171.452,63.329,158.129,53.546z"/>
<path style="fill:#40BAB3;" d="M424.898,244.299c0-93.003-77.535-226.985-168.897-226.985S87.105,151.297,87.105,244.299  s75.617,168.397,168.897,168.397S424.898,337.302,424.898,244.299z"/>
<g>
	<path style="fill:#F0B0B7;" d="M171.579,224.023h-28.196c-4.427,0-8.017-3.589-8.017-8.017c0-4.427,3.589-8.017,8.017-8.017h28.196   c4.427,0,8.017,3.589,8.017,8.017C179.596,220.433,176.006,224.023,171.579,224.023z"/>
	<path style="fill:#F0B0B7;" d="M368.619,224.023h-28.196c-4.427,0-8.017-3.589-8.017-8.017c0-4.427,3.589-8.017,8.017-8.017h28.196   c4.427,0,8.017,3.589,8.017,8.017C376.636,220.433,373.047,224.023,368.619,224.023z"/>
</g>
<path style="fill:#FFFFFF;" d="M89.949,275.183c14.549,78.251,83.355,137.513,166.052,137.513s151.502-59.262,166.052-137.513  H89.949z"/>
<path style="fill:#0081C6;" d="M119.849,343.94c30.741,41.692,80.272,68.756,136.153,68.756s105.412-27.064,136.153-68.756H119.849z  "/>
<path style="opacity:0.2;enable-background:new    ;" d="M273.911,394.786c-93.278,0-168.897-75.394-168.897-168.397  c0-55.991,28.109-126.822,70.411-174.341c-52.098,45.989-88.321,128.686-88.321,192.25c0,93.004,75.617,168.397,168.897,168.397  c51.286,0,97.227-22.796,128.202-58.773C354.612,379.386,316.066,394.786,273.911,394.786z"/>
<path style="fill:#EBE73B;" d="M342.01,340.781L342.01,340.781c-31.191-31.191-48.714-73.495-48.714-117.606v-24.697  c-12.054-2.438-24.521-3.738-37.294-3.738c-12.773,0-25.24,1.299-37.294,3.738v53.856c0,34.229-13.597,67.056-37.801,91.258l0,0  c-6.91,6.91-6.91,18.114,0,25.024c6.91,6.91,18.114,6.91,25.024,0l3.909-3.909c2.996-2.996,8.12-0.874,8.12,3.364v10.688  c0,9.773,7.923,17.695,17.695,17.695l0,0c9.773,0,17.695-7.922,17.695-17.695v-21.568c0-3.998,3.241-7.24,7.239-7.24l0,0  c3.999,0,7.239,3.241,7.239,7.24v13.471c0,8.333,6.755,15.088,15.088,15.088c8.333,0,15.088-6.755,15.088-15.088v-5.534  c0-6.755,8.167-10.137,12.943-5.361l6.037,6.037c6.91,6.91,18.114,6.91,25.024,0C348.92,358.895,348.92,347.692,342.01,340.781z"/>
<path style="opacity:0.2;enable-background:new    ;" d="M256.001,194.74c-12.773,0-25.24,1.299-37.294,3.738v18.804  c12.054-2.438,24.521-3.738,37.294-3.738c12.773,0,25.24,1.299,37.294,3.738v-18.804C281.241,196.04,268.775,194.74,256.001,194.74z  "/>
<g>
	<path style="opacity:0.3;fill:#FFFFFF;enable-background:new    ;" d="M342.01,340.782L342.01,340.782   c-15.908-15.908-28.251-34.712-36.537-55.167c-7.56,7.066-12.292,17.12-12.292,28.285c0,21.382,17.334,38.716,38.716,38.716   c5.282,0,10.317-1.061,14.904-2.977C346.119,346.394,344.529,343.301,342.01,340.782z"/>
	<path style="opacity:0.3;fill:#FFFFFF;enable-background:new    ;" d="M294.039,238.798c-0.286-0.014-0.569-0.044-0.858-0.044   c-9.525,0-17.246,7.722-17.246,17.246c0,9.525,7.722,17.246,17.246,17.246c2.621,0,5.096-0.602,7.321-1.648   C297.264,260.962,295.093,249.975,294.039,238.798z"/>
</g>
<path style="fill:#8E78CF;" d="M221.262,337.235c-2.051,0-4.103-0.782-5.668-2.348c-3.131-3.131-3.131-8.207,0-11.336l10.208-10.208  c3.131-3.131,8.207-3.131,11.336,0c3.131,3.131,3.131,8.207,0,11.336l-10.208,10.208  C225.366,336.452,223.315,337.235,221.262,337.235z"/>
<g>
	<path style="fill:#3DAD4B;" d="M285.054,341.51c-2.051,0-4.103-0.782-5.668-2.348c-3.131-3.131-3.131-8.207,0-11.336l10.208-10.208   c3.131-3.131,8.207-3.131,11.336,0c3.131,3.131,3.131,8.207,0,11.336l-10.208,10.208   C289.157,340.728,287.106,341.51,285.054,341.51z"/>
	<path style="fill:#3DAD4B;" d="M244.215,249.631c-2.051,0-4.103-0.782-5.668-2.348c-3.131-3.131-3.131-8.207,0-11.336   l10.208-10.208c3.131-3.131,8.207-3.131,11.338,0c3.131,3.131,3.131,8.207,0,11.338l-10.208,10.208   C248.318,248.848,246.267,249.631,244.215,249.631z"/>
</g>
<path style="fill:#E6595A;" d="M266.562,295.661c-2.051,0-4.103-0.782-5.668-2.348l-10.208-10.208  c-3.131-3.131-3.131-8.207,0-11.336c3.131-3.131,8.207-3.131,11.336,0l10.208,10.208c3.131,3.131,3.131,8.207,0,11.336  C270.666,294.878,268.613,295.661,266.562,295.661z"/>
<path d="M367.44,164.385c-2.536-3.63-7.533-4.516-11.162-1.983l-12.692,8.864c-2.147,1.5-3.427,3.954-3.427,6.572  c0,2.619,1.279,5.073,3.427,6.573l12.692,8.864c1.398,0.977,2.998,1.445,4.583,1.445c2.53,0,5.02-1.195,6.579-3.427  c2.535-3.63,1.647-8.628-1.983-11.162l-3.281-2.292l3.281-2.292C369.088,173.012,369.975,168.015,367.44,164.385z M168.417,171.266  l-12.692-8.864c-3.631-2.535-8.627-1.647-11.162,1.983c-2.535,3.63-1.648,8.628,1.982,11.162l3.281,2.292l-3.281,2.292  c-3.63,2.535-4.517,7.532-1.982,11.162c1.558,2.232,4.049,3.427,6.579,3.427c1.585,0,3.185-0.468,4.583-1.445l12.692-8.864  c2.147-1.5,3.427-3.954,3.427-6.572C171.844,175.22,170.565,172.766,168.417,171.266z M509.774,194.801  c-1.722-8.214-6.54-15.267-13.567-19.858c-7.027-4.591-15.42-6.173-23.632-4.448c-8.214,1.722-15.267,6.54-19.858,13.566  c-4.591,7.027-6.17,15.42-4.448,23.633c1.801,8.589,1.905,20.643-7.825,29.288c-2.181,1.937-4.729,3.52-7.564,4.717  c-0.412-27.844-7.394-59.191-19.47-89.619c20.636-10.37,34.008-31.601,34.008-55.186c0-34.061-27.71-61.77-61.77-61.77  c-14.615,0-28.716,5.239-39.789,14.555c-6.644-6.194-13.451-11.753-20.344-16.556c-22.694-15.81-46.083-23.826-69.515-23.826  s-46.821,8.017-69.515,23.826c-6.893,4.801-13.7,10.361-20.344,16.556c-11.071-9.316-25.174-14.555-39.789-14.555  c-34.061,0-61.77,27.709-61.77,61.77c0,23.586,13.374,44.816,34.009,55.187c-12.076,30.428-19.059,61.774-19.471,89.619  c-2.835-1.197-5.384-2.78-7.564-4.717c-9.73-8.645-9.625-20.699-7.825-29.287c1.723-8.214,0.143-16.608-4.448-23.634  c-4.591-7.026-11.643-11.844-19.856-13.566c-8.211-1.722-16.606-0.144-23.633,4.448c-7.027,4.591-11.845,11.643-13.567,19.858  c-7.155,34.123,3.159,67.453,27.589,89.159c16.316,14.497,37.863,22.679,60.897,23.222c15.5,40.376,45.466,73.666,83.546,93.534  v70.566c0,17.325,14.095,31.421,31.421,31.421s31.421-14.095,31.421-31.421v-51.579c6.211,0.661,12.514,1.008,18.899,1.008  c6.383,0,12.688-0.347,18.899-1.008v51.577c0,17.325,14.095,31.421,31.421,31.421c17.325,0,31.421-14.095,31.421-31.421v-70.566  c38.081-19.868,68.047-53.158,83.546-93.534c23.034-0.543,44.581-8.725,60.897-23.222  C506.615,262.254,516.929,228.922,509.774,194.801z M40.467,271.974c-20.078-17.84-28.506-45.459-22.546-73.884  c0.843-4.023,3.203-7.477,6.644-9.726c3.441-2.248,7.551-3.022,11.573-2.177c4.023,0.843,7.477,3.203,9.726,6.644  c2.248,3.441,3.022,7.551,2.177,11.575c-3.775,18.009,0.794,33.835,12.868,44.562c5.212,4.631,11.618,7.95,18.777,9.783  c0.9,11.019,2.824,21.752,5.669,32.11C68.182,289.369,52.785,282.92,40.467,271.974z M385.65,51.158  c25.22,0,45.737,20.517,45.737,45.737c0,17.121-9.51,32.572-24.277,40.408c-1.748-3.831-3.58-7.631-5.482-11.398  c10.328-5.694,17.135-16.68,17.135-29.009c0-18.258-14.854-33.114-33.114-33.114c-7.342,0-14.369,2.446-20.067,6.787  c-2.74-3.276-5.529-6.439-8.361-9.489C365.256,54.713,375.282,51.158,385.65,51.158z M394.034,111.772  c-3.984-6.98-8.219-13.793-12.704-20.361c-1.912-2.8-3.864-5.54-5.847-8.229c2.907-2.154,6.458-3.367,10.166-3.367  c9.418,0,17.081,7.662,17.081,17.081C402.729,103.199,399.278,108.814,394.034,111.772z M80.616,96.895  c0-25.22,20.517-45.737,45.737-45.737c10.368,0,20.394,3.555,28.428,9.922c-2.831,3.051-5.621,6.213-8.361,9.489  c-5.698-4.342-12.725-6.787-20.067-6.787c-18.258,0-33.113,14.855-33.113,33.114c0,12.329,6.807,23.315,17.135,29.009  c-1.903,3.768-3.735,7.568-5.482,11.398C90.127,129.467,80.616,114.016,80.616,96.895z M136.519,83.183  c-1.983,2.688-3.936,5.429-5.847,8.229c-4.484,6.568-8.72,13.381-12.704,20.361c-5.244-2.958-8.695-8.572-8.695-14.877  c0-9.418,7.662-17.081,17.08-17.081C130.061,79.815,133.612,81.028,136.519,83.183z M221.07,471.282  c0,8.485-6.903,15.388-15.387,15.388s-15.387-6.903-15.387-15.388v-63.194c9.855,3.945,20.143,7.032,30.775,9.163V471.282z   M235.654,388.438c-5.337,0-9.679-4.342-9.679-9.679v-10.688c0-5.185-3.095-9.816-7.885-11.8c-4.791-1.984-10.255-0.897-13.92,2.769  l-3.909,3.909c-1.828,1.828-4.258,2.835-6.844,2.835c-2.585,0-5.015-1.007-6.843-2.835c-1.828-1.828-2.835-4.258-2.835-6.844  s1.007-5.015,2.835-6.844c25.89-25.89,40.148-60.312,40.148-96.927v-47.182c9.646-1.585,19.441-2.395,29.278-2.395  c9.837,0,19.632,0.81,29.277,2.395v18.023c0,46.567,18.135,90.347,51.062,123.274c3.774,3.774,3.774,9.914,0,13.687  c-3.774,3.774-9.914,3.773-13.688,0l-6.037-6.037c-4.476-4.476-11.149-5.804-16.999-3.382c-5.85,2.423-9.629,8.08-9.629,14.412  v5.534c0,3.899-3.172,7.072-7.072,7.072s-7.072-3.172-7.072-7.072v-13.471c0-8.412-6.844-15.256-15.256-15.256  c-8.412,0-15.256,6.844-15.256,15.256v21.567C245.332,384.096,240.991,388.438,235.654,388.438z M321.709,471.282  c0,8.485-6.903,15.388-15.388,15.388s-15.387-6.903-15.387-15.388v-54.03c10.632-2.132,20.921-5.218,30.775-9.163V471.282z   M256.001,404.679c-5.134,0-10.209-0.251-15.222-0.723c11.655-2.368,20.473-12.645,20.584-24.962  c3.35,8.635,11.747,14.774,21.552,14.774c12.74,0,23.105-10.365,23.105-23.105l0.001-4.484l5.295,5.295  c10.024,10.023,26.336,10.025,36.361-0.001c10.025-10.024,10.025-26.336,0-36.362c-29.9-29.9-46.366-69.653-46.366-111.938v-14.647  c0.627,0.151,1.255,0.231,1.874,0.231c3.563,0,6.816-2.394,7.754-6.004c1.113-4.285-1.459-8.661-5.744-9.774  c-15.991-4.152-32.543-6.257-49.194-6.257s-33.202,2.106-49.194,6.257c-4.285,1.113-6.858,5.489-5.744,9.774  c1.101,4.237,5.391,6.795,9.627,5.775v43.805c0,32.331-12.59,62.728-35.452,85.59c-4.856,4.856-7.531,11.313-7.531,18.18  c0,6.867,2.674,13.325,7.531,18.18c4.856,4.856,11.313,7.53,18.18,7.53c6.114,0,11.901-2.12,16.525-6.01v2.952  c0,9.756,5.462,18.26,13.488,22.615c-73.148-15.053-128.31-79.761-128.31-157.075c0-44.645,18.696-99.764,48.792-143.849  c32.592-47.739,73.447-75.119,112.088-75.119s79.496,27.38,112.088,75.119c30.096,44.084,48.792,99.203,48.792,143.849  C416.881,332.733,344.711,404.679,256.001,404.679z M471.536,271.974c-12.319,10.945-27.715,17.395-44.887,18.887  c2.845-10.358,4.768-21.091,5.669-32.11c7.159-1.833,13.565-5.152,18.778-9.783c12.073-10.728,16.642-26.554,12.867-44.563  c-0.843-4.022-0.071-8.133,2.177-11.574c2.248-3.441,5.701-5.801,9.727-6.644c4.021-0.844,8.131-0.069,11.572,2.177  c3.441,2.249,5.801,5.702,6.644,9.726C500.042,226.515,491.614,254.135,471.536,271.974z"/>
<g>
</g>
<g>
</g>
<g>
</g>
<g>
</g>
<g>
</g>
<g>
</g>
<g>
</g>
<g>
</g>
<g>
</g>
<g>
</g>
<g>
</g>
<g>
</g>
<g>
</g>
<g>
</g>
<g>
</g>
</svg>
