<?xml version="1.0" encoding="iso-8859-1"?>
<!-- Generator: Adobe Illustrator 19.0.0, SVG Export Plug-In . SVG Version: 6.00 Build 0)  -->
<svg xmlns="http://www.w3.org/2000/svg" xmlns:xlink="http://www.w3.org/1999/xlink" version="1.1" id="Capa_1" x="0px" y="0px" viewBox="0 0 512.001 512.001" style="enable-background:new 0 0 512.001 512.001;" xml:space="preserve">
<path style="fill:#E6595A;" d="M464.117,234.023h-49.615c-25.447,0-48.785-14.146-60.558-36.706l-37.838-72.508  c-13.102-25.106-39.073-40.848-67.392-40.848H22.419C14.455,83.962,8,90.417,8,98.381v295.284c0,7.964,6.455,14.419,14.419,14.419  h441.698c17.903,0,32.416-14.513,32.416-32.416V266.441C496.533,248.538,482.02,234.023,464.117,234.023z"/>
<g>
	<path style="opacity:0.2;fill:#FFFFFF;enable-background:new    ;" d="M316.107,124.81c-12.034-23.061-34.93-38.211-60.528-40.528   c-2.076,5.728-3.211,11.905-3.211,18.35c0,29.749,24.117,53.867,53.867,53.867c8.457,0,16.455-1.953,23.577-5.426L316.107,124.81z"/>
	<path style="opacity:0.2;fill:#FFFFFF;enable-background:new    ;" d="M464.117,234.023h-49.615c-3.781,0-7.515-0.32-11.171-0.926   c-0.077,1.181-0.131,2.369-0.131,3.569c0,29.749,24.117,53.867,53.867,53.867c15.593,0,29.63-6.633,39.467-17.221v-6.873   C496.533,248.538,482.02,234.023,464.117,234.023z"/>
</g>
<path style="opacity:0.2;enable-background:new    ;" d="M188.67,408.085c0-57.07,46.265-103.333,103.333-103.333  s103.333,46.263,103.333,103.333H188.67z"/>
<g>
	<circle style="fill:#394049;" cx="292" cy="408.086" r="87.808"/>
	<circle style="fill:#394049;" cx="292" cy="408.086" r="87.808"/>
</g>
<path style="opacity:0.2;enable-background:new    ;" d="M299.604,488.29c-48.493,0-87.805-39.312-87.805-87.805  c0-22.313,8.337-42.668,22.048-58.158c-18.176,16.087-29.648,39.577-29.648,65.758c0,48.494,39.312,87.805,87.805,87.805  c26.181,0,49.67-11.472,65.758-29.647C342.272,479.953,321.917,488.29,299.604,488.29z"/>
<circle style="fill:#A4A8AB;" cx="292" cy="408.086" r="40.411"/>
<path style="opacity:0.2;enable-background:new    ;" d="M295.474,445.026c-22.318,0-40.411-18.093-40.411-40.411  c0-10.276,3.842-19.65,10.16-26.781c-8.356,7.404-13.63,18.209-13.63,30.251c0,22.318,18.093,40.411,40.411,40.411  c12.043,0,22.848-5.274,30.251-13.63C315.124,441.184,305.75,445.026,295.474,445.026z"/>
<path style="opacity:0.2;fill:#FFFFFF;enable-background:new    ;" d="M292.004,367.675c-0.846,0-1.683,0.034-2.516,0.085  c-1.177,3.358-1.823,6.964-1.823,10.724c0,17.913,14.522,32.434,32.434,32.434c4.357,0,8.51-0.865,12.305-2.423  c0.001-0.138,0.011-0.273,0.011-0.411C332.415,385.767,314.322,367.675,292.004,367.675z"/>
<path style="fill:#394049;" d="M307.986,245.986H62.875c-9.563,0-17.315-7.872-17.315-17.584V141.07  c0-9.711,7.753-17.584,17.315-17.584H247.03c19.827,0,37.839,11.724,46.118,30.018l30.572,67.554  C328.992,232.709,320.611,245.986,307.986,245.986z"/>
<circle style="fill:#0081C6;" cx="283.755" cy="72.108" r="37.823"/>
<circle style="fill:#F3C74F;" cx="283.755" cy="72.108" r="17.659"/>
<circle style="fill:#0081C6;" cx="101.312" cy="72.108" r="37.823"/>
<circle style="fill:#F3C74F;" cx="101.312" cy="72.108" r="17.659"/>
<path style="opacity:0.2;enable-background:new    ;" d="M123.668,41.605c-17.783,16.073-32.866,38.197-43.58,61.812  c6.051,4.109,13.355,6.512,21.221,6.512c20.889,0,37.823-16.933,37.823-37.823C139.132,59.585,133.042,48.49,123.668,41.605z"/>
<path style="fill:#40BAB3;" d="M192.533,16.112c-64.285,0-118.841,94.273-118.841,159.713c0,26.237,8.559,50.477,23.036,70.11  h191.609c14.477-19.633,23.036-43.873,23.036-70.11C311.374,110.385,256.818,16.112,192.533,16.112z"/>
<path style="fill:#FFFFFF;" d="M75.695,197.556c3.321,17.859,10.678,34.298,21.063,48.379H288.31  c10.385-14.081,17.742-30.519,21.063-48.379H75.695z"/>
<path style="opacity:0.2;enable-background:new    ;" d="M135.839,40.551c-36.657,32.359-62.145,90.547-62.145,135.273  c0,26.237,8.559,50.477,23.036,70.11h23.324c-20.885-21.351-33.758-50.53-33.758-82.711  C86.295,123.826,106.074,73.987,135.839,40.551z"/>
<g>
	<path style="fill:#F0B0B7;" d="M138.071,163.917h-19.84c-4.418,0-8-3.582-8-8s3.582-8,8-8h19.84c4.418,0,8,3.582,8,8   S142.491,163.917,138.071,163.917z"/>
	<path style="fill:#F0B0B7;" d="M276.716,163.917h-19.84c-4.418,0-8-3.582-8-8s3.582-8,8-8h19.84c4.418,0,8,3.582,8,8   S281.134,163.917,276.716,163.917z"/>
	<path style="fill:#F0B0B7;" d="M209.115,146.783c-6.429,0-11.641-5.212-11.641-11.641c0,6.429-5.212,11.641-11.641,11.641   c-1.261,0-2.471-0.207-3.609-0.577v5.833c0,8.422,6.828,15.249,15.249,15.249s15.249-6.828,15.249-15.249v-5.833   C211.586,146.577,210.375,146.783,209.115,146.783z"/>
</g>
<g>
	<path style="fill:#F3C74F;" d="M82.317,214.146c-14.119,0-27.116-4.74-38.074-13.98c-12.719-10.725-22.444-27.069-28.905-48.579   C10.674,136.058,8,118.395,8,103.126c0-9.095,7.373-16.468,16.468-16.468s16.468,7.373,16.468,16.468   c0,19.783,6.662,56.786,24.539,71.859c6.447,5.436,13.639,7.25,22.634,5.709c8.964-1.536,17.476,4.485,19.013,13.45   c1.536,8.964-4.485,17.476-13.45,19.013C89.82,213.819,86.029,214.146,82.317,214.146z"/>
	<path style="fill:#F3C74F;" d="M452.722,318.026h43.811v49.649h-43.811c-8.107,0-14.678-6.572-14.678-14.678v-20.292   C438.045,324.597,444.617,318.026,452.722,318.026z"/>
</g>
<path style="fill:#A4A8AB;" d="M428.057,367.675h69.262c3.691,0,6.682,2.992,6.682,6.682v36.286c0,3.69-2.992,6.682-6.682,6.682  h-69.262c-3.691,0-6.682-2.992-6.682-6.682v-36.286C421.375,370.666,424.367,367.675,428.057,367.675z"/>
<path style="opacity:0.2;enable-background:new    ;" d="M503.173,411.469h-69.262c-3.691,0-6.682-2.992-6.682-6.682v-36.286  c0-0.263,0.019-0.522,0.049-0.778c-3.323,0.386-5.904,3.206-5.904,6.633v36.286c0,3.69,2.992,6.682,6.682,6.682h69.262  c3.426,0,6.246-2.58,6.633-5.904C503.696,411.45,503.437,411.469,503.173,411.469z"/>
<path style="opacity:0.2;fill:#FFFFFF;enable-background:new    ;" d="M497.318,367.675h-29.771  c-0.169,1.148-0.259,2.321-0.259,3.516c0,13.23,10.725,23.955,23.955,23.955c4.69,0,9.061-1.353,12.755-3.682v-17.107  C504,370.666,501.009,367.675,497.318,367.675z"/>
<circle style="fill:#A4A8AB;" cx="426.677" cy="138.956" r="15.468"/>
<path style="opacity:0.2;enable-background:new    ;" d="M429.309,151.794c-8.543,0-15.468-6.925-15.468-15.468  c0-3.601,1.242-6.906,3.305-9.534c-3.607,2.832-5.933,7.221-5.933,12.163c0,8.543,6.925,15.468,15.468,15.468  c4.942,0,9.331-2.325,12.163-5.933C436.214,150.553,432.91,151.794,429.309,151.794z"/>
<path style="opacity:0.2;fill:#FFFFFF;enable-background:new    ;" d="M429.44,123.747c-2.976,1.431-5.035,4.466-5.035,7.989  c0,4.899,3.971,8.87,8.87,8.87c3.805,0,7.041-2.4,8.301-5.764C440.014,129.167,435.308,124.806,429.44,123.747z"/>
<path style="fill:#394049;" d="M76.753,289.287H49.395c-4.418,0-8-3.582-8-8s3.582-8,8-8h27.358c4.418,0,8,3.582,8,8  S81.171,289.287,76.753,289.287z"/>
<path d="M174.225,150.949v1.089c0,12.82,10.43,23.249,23.249,23.249c12.82,0,23.249-10.43,23.249-23.249v-1.089  c4.86-3.579,8.032-9.323,8.032-15.807c0-4.418-3.582-8-8-8s-8,3.582-8,8c0,2.007-1.633,3.642-3.641,3.642s-3.641-1.633-3.641-3.642  c0-4.418-3.582-8-8-8c-4.418,0-8,3.582-8,8c0,2.007-1.633,3.642-3.641,3.642s-3.641-1.633-3.641-3.642c0-4.418-3.582-8-8-8  c-4.418,0-8,3.582-8,8C166.193,141.627,169.365,147.371,174.225,150.949z M197.474,150.954c2.041,1.506,4.383,2.627,6.917,3.255  c-0.925,2.941-3.676,5.079-6.917,5.079c-3.242,0-5.991-2.139-6.916-5.079C193.091,153.581,195.434,152.46,197.474,150.954z   M504.533,361.584v-95.145c0-22.286-18.131-40.416-40.417-40.416H434.68v-65.007c9.012-3.278,15.468-11.93,15.468-22.062  c0-12.94-10.528-23.467-23.468-23.467c-12.94,0-23.467,10.527-23.467,23.467c0,10.132,6.454,18.784,15.467,22.062v65.007h-4.178  c-22.547,0-43.035-12.418-53.467-32.407l-37.837-72.508c-2.663-5.103-5.83-9.891-9.453-14.319  c9.856-8.513,15.835-21.04,15.835-34.683c0-25.267-20.556-45.823-45.822-45.823c-10.102,0-19.882,3.379-27.817,9.434  c-19.809-17.997-41.555-27.606-63.408-27.606s-43.6,9.61-63.409,27.606c-7.935-6.054-17.713-9.434-27.815-9.434  c-25.267,0-45.823,20.556-45.823,45.823c0,1.296,0.057,2.581,0.163,3.855H22.42C10.058,75.962,0,86.019,0,98.381v295.284  c0,12.363,10.058,22.42,22.42,22.42h174.116c4.079,49.098,45.335,87.805,95.469,87.805s91.389-38.707,95.468-87.805h26.961  c2.169,5.406,7.453,9.238,13.623,9.238h69.262c8.095,0,14.682-6.587,14.682-14.682v-36.286  C512,368.883,508.985,364.109,504.533,361.584z M426.681,131.488c4.117,0,7.468,3.35,7.468,7.467c0,4.117-3.35,7.468-7.468,7.468  c-4.117,0-7.467-3.35-7.467-7.468C419.213,134.837,422.563,131.488,426.681,131.488z M283.758,42.285  c16.445,0,29.822,13.378,29.822,29.823c0,10.343-5.286,19.69-13.681,25.081c-0.597-1.27-1.204-2.538-1.825-3.797  c6.905-4.646,11.342-12.508,11.342-21.283c0-14.148-11.51-25.659-25.659-25.659c-4.901,0-9.619,1.411-13.657,3.95  c-0.916-1.077-1.839-2.131-2.767-3.169C272.171,44.043,277.881,42.285,283.758,42.285z M316.432,224.358  c1.401,3.094,1.151,6.5-0.685,9.346c-1.756,2.721-4.585,4.283-7.76,4.283h-4.958c3.951-6.954,7.194-14.228,9.732-21.74  L316.432,224.358z M293.417,72.107c0,2.742-1.152,5.246-3.026,7.02c-2.447-4.173-5.022-8.253-7.723-12.209  c-0.861-1.26-1.728-2.498-2.602-3.721c1.157-0.48,2.405-0.749,3.693-0.749C289.084,62.448,293.417,66.781,293.417,72.107z   M192.534,24.112c26.397,0,54.434,18.891,76.919,51.827c20.923,30.647,33.92,68.922,33.92,99.886  c0,22.396-6.635,43.801-19.211,62.162H100.901c-3.571-5.219-6.665-10.719-9.278-16.441c1.132-0.143,2.266-0.308,3.398-0.502  c13.298-2.278,22.262-14.95,19.984-28.25c-2.278-13.297-14.954-22.259-28.249-19.983c-1.802,0.308-3.465,0.442-5.029,0.403  c0.701-30.485,13.548-67.483,33.887-97.275C138.1,43.003,166.135,24.112,192.534,24.112z M91.65,72.107  c0-5.326,4.333-9.659,9.659-9.659c1.286,0,2.535,0.269,3.692,0.749c-0.874,1.222-1.742,2.461-2.602,3.721  c-2.701,3.956-5.276,8.037-7.723,12.209C92.802,77.354,91.65,74.85,91.65,72.107z M101.31,42.285c5.877,0,11.588,1.758,16.423,4.945  c-0.928,1.038-1.851,2.093-2.767,3.169c-4.037-2.54-8.755-3.95-13.657-3.95c-14.148,0-25.659,11.51-25.659,25.659  c0,8.775,4.437,16.637,11.342,21.283c-0.622,1.261-1.228,2.527-1.825,3.797c-8.395-5.391-13.681-14.737-13.681-25.081  C71.487,55.663,84.865,42.285,101.31,42.285z M59.994,91.962c4.023,8.391,10.553,15.443,18.825,20.087  c-0.442,1.145-0.874,2.291-1.295,3.439H62.875c-4.706,0-9.13,1.284-12.924,3.549c-0.645-5.062-1.015-10.379-1.015-15.909  c0-4.021-0.981-7.815-2.707-11.166H59.994z M72.334,131.488c-3.116,11.099-5.193,22.099-6.106,32.591  c-4.337-5.726-8.896-14.655-12.245-25.857c1.186-3.968,4.74-6.735,8.892-6.735h9.459V131.488z M24.467,94.659  c4.669,0,8.468,3.799,8.468,8.468c0,22.063,7.293,61.036,27.381,77.975c8.272,6.975,17.804,9.422,29.141,7.477  c4.604-0.786,8.989,2.314,9.777,6.916c0.382,2.229-0.127,4.475-1.434,6.321c-1.307,1.846-3.253,3.073-5.483,3.456  c-3.379,0.579-6.745,0.873-10.003,0.873h-0.001c-12.322,0.001-23.397-4.069-32.916-12.096  c-11.511-9.707-20.394-24.767-26.399-44.763C18.551,134.471,16,117.648,16,103.127C16,98.458,19.798,94.659,24.467,94.659z   M82.061,237.986H62.875c-5.136,0-9.315-4.299-9.315-9.583v-12.741c6.523,3.129,13.489,5.146,20.737,6.002  C76.49,227.285,79.084,232.737,82.061,237.986z M292.004,487.89c-44.004,0-79.805-35.801-79.805-79.805s35.801-79.805,79.805-79.805  s79.805,35.801,79.805,79.805S336.009,487.89,292.004,487.89z M413.375,374.355v25.73h-25.903  c-4.079-49.098-45.335-87.805-95.468-87.805s-91.39,38.707-95.469,87.805H22.42c-3.54,0-6.42-2.88-6.42-6.42v-218.19  c5.833,12.016,13.042,21.875,21.559,29.459v23.469c0,14.107,11.357,25.583,25.315,25.583h245.111  c8.589,0,16.516-4.339,21.205-11.609c4.768-7.391,5.447-16.593,1.818-24.615l-12.457-27.524c0.538-4.754,0.821-9.563,0.821-14.414  c0-11.386-1.583-23.637-4.53-36.142l32.007,61.335c13.2,25.293,39.121,41.005,67.65,41.005h49.615  c13.463,0,24.417,10.953,24.417,24.416v43.585h-35.81c-12.506,0-22.678,10.174-22.678,22.678v20.292  c0,2.323,0.354,4.565,1.006,6.678h-2.994C419.962,359.675,413.375,366.26,413.375,374.355z M488.533,326.026v33.649h-35.81  c-3.683,0-6.678-2.996-6.678-6.678v-20.292c0-3.682,2.996-6.678,6.678-6.678L488.533,326.026L488.533,326.026z M496,409.324h-66.625  v-33.649H496V409.324z M128.153,138.07c4.418,0,8-3.582,8-8v-3.253c0-4.418-3.582-8-8-8c-4.418,0-8,3.582-8,8v3.253  C120.153,134.489,123.734,138.07,128.153,138.07z M266.796,138.07c4.418,0,8-3.582,8-8v-3.253c0-4.418-3.582-8-8-8s-8,3.582-8,8  v3.253C258.796,134.489,262.378,138.07,266.796,138.07z M292.004,359.675c-26.693,0-48.411,21.717-48.411,48.411  s21.717,48.411,48.411,48.411s48.411-21.716,48.411-48.411S318.698,359.675,292.004,359.675z M292.004,440.496  c-17.871,0-32.411-14.539-32.411-32.411s14.54-32.411,32.411-32.411c17.871,0,32.411,14.54,32.411,32.411  S309.875,440.496,292.004,440.496z"/>
<g>
</g>
<g>
</g>
<g>
</g>
<g>
</g>
<g>
</g>
<g>
</g>
<g>
</g>
<g>
</g>
<g>
</g>
<g>
</g>
<g>
</g>
<g>
</g>
<g>
</g>
<g>
</g>
<g>
</g>
</svg>
