<?xml version="1.0" encoding="iso-8859-1"?>
<!-- Generator: Adobe Illustrator 19.0.0, SVG Export Plug-In . SVG Version: 6.00 Build 0)  -->
<svg xmlns="http://www.w3.org/2000/svg" xmlns:xlink="http://www.w3.org/1999/xlink" version="1.1" id="Capa_1" x="0px" y="0px" viewBox="0 0 512.001 512.001" style="enable-background:new 0 0 512.001 512.001;" xml:space="preserve">
<g>
	<path style="fill:#F3C74F;" d="M400.148,391.444c-5.235,0-10.487-1.881-14.655-5.693c-8.854-8.097-9.468-21.839-1.371-30.695   c5.02-5.489,7.532-13.136,6.722-20.455c-0.361-3.253-1.773-9.275-7.174-13.044c-9.841-6.867-12.25-20.409-5.384-30.25   c6.864-9.84,20.409-12.252,30.25-5.384c14.418,10.062,23.474,25.65,25.496,43.891c2.202,19.87-4.301,39.758-17.844,54.565   C411.902,389.067,406.035,391.444,400.148,391.444z"/>
	<path style="fill:#F3C74F;" d="M111.928,391.444c-5.888,0-11.753-2.377-16.039-7.064c-13.543-14.808-20.046-34.696-17.844-54.565   c2.021-18.241,11.076-33.83,25.495-43.891c9.841-6.868,23.383-4.456,30.25,5.384c6.867,9.84,4.457,23.384-5.384,30.25   c-5.402,3.769-6.813,9.791-7.174,13.044c-0.81,7.32,1.701,14.966,6.722,20.455c8.097,8.854,7.485,22.597-1.371,30.695   C122.416,389.562,117.164,391.444,111.928,391.444z"/>
	<path style="fill:#F3C74F;" d="M302.749,503.853c-11.999,0-21.726-9.727-21.726-21.726v-82.271   c0-11.999,9.727-21.726,21.726-21.726s21.726,9.727,21.726,21.726v82.271C324.475,494.126,314.748,503.853,302.749,503.853z"/>
</g>
<path style="opacity:0.2;enable-background:new    ;" d="M302.749,378.13c-11.999,0-21.726,9.727-21.726,21.726v67.778  c2.286-1.553,4.464-3.334,6.491-5.361l36.961-36.961v-25.455C324.475,387.856,314.748,378.13,302.749,378.13z"/>
<path style="fill:#F3C74F;" d="M209.328,503.853c-11.999,0-21.726-9.727-21.726-21.726v-82.271c0-11.999,9.727-21.726,21.726-21.726  s21.726,9.727,21.726,21.726v82.271C231.054,494.126,221.326,503.853,209.328,503.853z"/>
<path style="opacity:0.2;enable-background:new    ;" d="M209.328,378.13c-11.999,0-21.726,9.727-21.726,21.726v25.456  l36.961,36.961c2.026,2.026,4.205,3.806,6.491,5.361v-67.778C231.054,387.856,221.326,378.13,209.328,378.13z"/>
<path style="fill:#E6595A;" d="M256.037,70.878c-56.376-56.377-147.854-56.256-204.081,0.361  C-4.145,127.73-2.875,219.408,53.422,275.704l171.14,171.14c17.383,17.383,45.567,17.383,62.951,0l171.14-171.14  c56.296-56.296,57.566-147.975,1.465-204.466C403.893,14.622,312.414,14.501,256.037,70.878z"/>
<path style="opacity:0.2;fill:#FFFFFF;enable-background:new    ;" d="M460.119,71.239c-20.197-20.337-44.943-33.384-70.975-39.142  c-12.118,13.161-19.525,30.725-19.525,50.024c0,40.803,33.078,73.88,73.88,73.88c20.72,0,39.436-8.541,52.852-22.279  C490.053,110.843,478.008,89.251,460.119,71.239z"/>
<path style="opacity:0.2;enable-background:new    ;" d="M238.943,432.464l-171.14-171.14  c-54.02-54.02-57.364-140.612-7.981-197.439c-2.69,2.337-5.315,4.785-7.866,7.353C-4.145,127.73-2.875,219.408,53.422,275.704  l171.14,171.14c17.383,17.383,45.567,17.383,62.951,0l14.38-14.38C284.51,449.848,256.326,449.848,238.943,432.464z"/>
<ellipse style="fill:#40BAB3;" cx="256.042" cy="225.429" rx="138.981" ry="77.225"/>
<path style="opacity:0.2;enable-background:new    ;" d="M256.039,148.201c-55.068,0-102.652,17.798-125.147,43.605  c24.607-21.688,68.093-36.1,117.642-36.1c76.756,0,138.978,34.576,138.978,77.226c0,12.051-4.971,23.456-13.83,33.621  c13.511-11.908,21.336-26.009,21.336-41.126C395.017,182.776,332.793,148.201,256.039,148.201z"/>
<g>
	<path style="fill:#F0B0B7;" d="M177.669,253.303h-26.174c-4.501,0-8.147-3.648-8.147-8.147c0-4.499,3.647-8.147,8.147-8.147h26.174   c4.501,0,8.147,3.648,8.147,8.147C185.817,249.655,182.17,253.303,177.669,253.303z"/>
	<path style="fill:#F0B0B7;" d="M360.581,253.303h-26.174c-4.501,0-8.147-3.648-8.147-8.147c0-4.499,3.647-8.147,8.147-8.147h26.174   c4.501,0,8.147,3.648,8.147,8.147C368.728,249.655,365.08,253.303,360.581,253.303z"/>
</g>
<path style="opacity:0.2;fill:#FFFFFF;enable-background:new    ;" d="M135.583,29.893c-0.281,2.199-0.442,4.434-0.442,6.71  c0,28.973,23.487,52.46,52.461,52.46c22.597,0,41.854-14.288,49.238-34.322C206.806,33.65,170.526,25.369,135.583,29.893z"/>
<g>
	<path style="fill:#F3C74F;" d="M151.393,407.76c-21.698,0-41.893-8.498-55.504-23.379c-8.097-8.854-7.485-22.597,1.371-30.695   c8.853-8.099,22.597-7.485,30.695,1.37c5.387,5.89,13.913,9.252,23.432,9.252c0.116,0,0.23,0,0.347-0.001   c13.481-0.116,28.045-6.752,42.117-19.194c8.991-7.947,22.721-7.102,30.667,1.887c7.946,8.989,7.102,22.72-1.887,30.667   c-27.835,24.609-53.717,29.946-70.527,30.091C151.867,407.759,151.63,407.76,151.393,407.76z"/>
	<path style="fill:#F3C74F;" d="M360.684,407.76c-0.239,0-0.473-0.001-0.712-0.002c-16.811-0.144-42.692-5.48-70.527-30.091   c-8.989-7.947-9.834-21.678-1.887-30.667c7.948-8.988,21.678-9.834,30.668-1.887c14.072,12.441,28.636,19.079,42.118,19.194   c9.677,0.072,18.326-3.289,23.779-9.251c8.099-8.854,21.84-9.468,30.695-1.37c8.854,8.098,9.468,21.84,1.371,30.695   C402.577,399.261,382.379,407.76,360.684,407.76z"/>
</g>
<path style="fill:#892641;" d="M63.02,85.567c-11.724-11.724-30.749-11.699-42.442,0.075C8.911,97.39,9.175,116.456,20.884,128.163  l35.592,35.592c3.615,3.615,9.476,3.615,13.091,0l35.592-35.592c11.707-11.708,11.972-30.774,0.304-42.522  C93.769,73.867,74.745,73.842,63.02,85.567z"/>
<path style="opacity:0.1;fill:#FFFFFF;enable-background:new    ;" d="M105.462,85.642c-5.351-5.388-12.237-8.308-19.257-8.775  c-2.293,3.9-3.613,8.442-3.613,13.293c0,14.511,11.764,26.274,26.274,26.274c1.246,0,2.47-0.092,3.671-0.261  C115.962,105.779,113.666,93.903,105.462,85.642z"/>
<path style="opacity:0.2;enable-background:new    ;" d="M59.465,160.764l-35.592-35.592c-11.235-11.235-11.93-29.242-1.66-41.06  c-0.559,0.486-1.106,0.995-1.636,1.53C8.91,97.39,9.174,116.456,20.882,128.163l35.592,35.592c3.615,3.615,9.476,3.615,13.091,0  l2.991-2.991C68.942,164.379,63.08,164.379,59.465,160.764z"/>
<path style="fill:#892641;" d="M443.499,16.921c-11.724-11.724-30.749-11.699-42.442,0.075  c-11.667,11.748-11.403,30.814,0.305,42.522l35.592,35.592c3.615,3.615,9.477,3.615,13.091,0l35.592-35.592  c11.707-11.708,11.972-30.774,0.305-42.522C474.248,5.223,455.224,5.198,443.499,16.921z"/>
<path style="opacity:0.1;fill:#FFFFFF;enable-background:new    ;" d="M485.941,16.996c-5.351-5.388-12.237-8.308-19.257-8.775  c-2.293,3.9-3.613,8.442-3.613,13.293c0,14.511,11.764,26.274,26.274,26.274c1.246,0,2.47-0.092,3.671-0.261  C496.441,37.134,494.145,25.258,485.941,16.996z"/>
<path style="opacity:0.2;enable-background:new    ;" d="M439.945,92.119l-35.592-35.592c-11.235-11.235-11.93-29.242-1.66-41.06  c-0.559,0.486-1.106,0.995-1.636,1.53c-11.667,11.748-11.403,30.814,0.304,42.522l35.592,35.592c3.615,3.615,9.477,3.615,13.091,0  l2.991-2.991C449.421,95.735,443.559,95.735,439.945,92.119z"/>
<path style="opacity:0.2;enable-background:new    ;" d="M127.954,355.057c-2.789-3.049-4.8-6.765-5.901-10.72L84.86,307.144  c-2.088,3.992-3.752,8.249-4.952,12.728c11.747,11.592,38.341,31.906,48.963,36.296  C128.572,355.793,128.282,355.415,127.954,355.057z"/>
<path d="M286.753,209.601c-4.501,0-8.147,3.648-8.147,8.147c0,3.976-3.235,7.211-7.21,7.211c-3.976,0-7.211-3.234-7.211-7.211  c0-4.499-3.647-8.147-8.147-8.147s-8.147,3.648-8.147,8.147c0,3.976-3.235,7.211-7.211,7.211c-3.975,0-7.21-3.234-7.21-7.211  c0-4.499-3.647-8.147-8.147-8.147s-8.147,3.648-8.147,8.147c0,12.961,10.544,23.505,23.504,23.505c5.865,0,11.236-2.16,15.358-5.725  c4.123,3.565,9.492,5.725,15.358,5.725c12.961,0,23.504-10.544,23.504-23.505C294.9,213.249,291.253,209.601,286.753,209.601z   M358.267,163.698c-27.44-15.247-63.745-23.644-102.229-23.644s-74.79,8.397-102.229,23.644  c-28.951,16.088-44.896,38.011-44.896,61.729s15.945,45.642,44.896,61.729c27.44,15.247,63.745,23.644,102.229,23.644  s74.79-8.397,102.229-23.644c28.951-16.088,44.896-38.011,44.896-61.729S387.218,179.785,358.267,163.698z M350.353,272.913  c-25.059,13.924-58.554,21.594-94.315,21.594s-69.256-7.669-94.315-21.594c-23.548-13.085-36.515-29.949-36.515-47.485  c0-17.537,12.968-34.401,36.515-47.486c25.059-13.924,58.554-21.594,94.315-21.594s69.256,7.669,94.315,21.594  c23.548,13.085,36.515,29.949,36.515,47.486C386.868,242.964,373.901,259.828,350.353,272.913z M477.749,78.928l13.649-13.649  c14.932-14.932,15.078-39.168,0.324-54.024C484.531,4.015,474.952,0.017,464.749,0h-0.068c-7.655,0-14.965,2.242-21.182,6.417  C437.283,2.241,429.974,0,422.318,0h-0.068c-10.203,0.018-19.782,4.015-26.972,11.256c-3.561,3.586-6.245,7.72-8.072,12.136  c-22.808-4.451-46.494-3.663-68.962,2.378c-23.06,6.201-44.412,17.849-62.203,33.875c-28.001-25.281-63.861-39.107-101.858-39.107  c-0.09,0-0.182,0-0.272,0c-40.754,0.071-79.014,16.037-107.736,44.959c-1.036,1.044-2.064,2.113-3.077,3.194  c-0.42-0.014-0.838-0.046-1.26-0.046h-0.068c-10.203,0.018-19.78,4.015-26.971,11.256c-12.514,12.6-14.303,31.947-5.448,46.644  c-8.033,25.661-9.155,53.092-3.19,79.611c6.419,28.537,20.77,54.579,41.501,75.31l27.415,27.415  c-2.622,6.298-4.35,13.01-5.127,20.036c-2.457,22.164,4.78,44.348,19.853,60.88c0.025,0.028,0.05,0.055,0.075,0.083  c15.129,16.541,37.549,26.028,61.515,26.028l0.782-0.003c7.3-0.063,16.167-1.022,26.086-3.838l1.194,1.194v68.868  c0,16.473,13.402,29.873,29.873,29.873s29.873-13.401,29.873-29.873v-16.849c5.355,1.801,11.022,2.752,16.838,2.752  s11.482-0.951,16.838-2.752v16.849c0,16.473,13.402,29.873,29.873,29.873s29.873-13.401,29.873-29.873V413.26l1.194-1.194  c9.922,2.817,18.795,3.777,26.102,3.84l0.766,0.002c23.966,0,46.386-9.487,61.515-26.028c0.025-0.027,0.05-0.054,0.074-0.083  c15.075-16.53,22.312-38.715,19.854-60.879c-0.779-7.026-2.505-13.738-5.127-20.036l27.416-27.416  C519.411,226.469,524.672,138.939,477.749,78.928z M406.839,22.737c4.116-4.144,9.6-6.433,15.439-6.443h0.039  c5.826,0,11.301,2.268,15.421,6.389c3.183,3.182,8.341,3.182,11.522,0c4.12-4.12,9.595-6.389,15.421-6.389h0.038  c5.84,0.01,11.324,2.299,15.441,6.443c8.444,8.504,8.316,22.419-0.286,31.02l-35.592,35.592c-0.432,0.431-1.136,0.433-1.569,0  l-35.589-35.592C398.523,45.156,398.394,31.241,406.839,22.737z M26.36,91.383c4.116-4.144,9.6-6.433,15.439-6.443h0.039  c5.826,0,11.301,2.267,15.422,6.387c3.181,3.182,8.341,3.182,11.52,0c4.121-4.12,9.596-6.387,15.422-6.387h0.038  c5.84,0.01,11.324,2.299,15.441,6.444c8.445,8.502,8.316,22.418-0.287,31.019l-35.592,35.592c-0.268,0.268-0.574,0.324-0.784,0.324  c-0.209,0-0.516-0.057-0.784-0.325l-35.592-35.592C18.044,113.802,17.915,99.887,26.36,91.383z M152.05,399.61l-0.657,0.002  c-19.373,0-37.386-7.532-49.435-20.67c-0.023-0.024-0.043-0.048-0.065-0.072c-11.951-13.075-17.692-30.627-15.749-48.159  c0.343-3.1,0.932-6.112,1.735-9.028l27.018,27.017c1.541,4.401,3.947,8.463,7.042,11.849c0.014,0.015,0.026,0.029,0.04,0.045  c6.919,7.538,17.634,11.86,29.407,11.86l0.417-0.001c15.473-0.133,31.88-7.476,47.443-21.236c5.612-4.96,14.21-4.431,19.168,1.179  c4.96,5.61,4.43,14.209-1.18,19.168C191.286,394.505,167.456,399.478,152.05,399.61z M222.906,482.127  c0,7.488-6.091,13.579-13.579,13.579s-13.579-6.091-13.579-13.579v-52.574l23.053,23.052c1.312,1.312,2.684,2.541,4.104,3.695  V482.127z M316.328,482.127c0,7.488-6.091,13.579-13.579,13.579s-13.579-6.091-13.579-13.579v-25.826  c1.421-1.154,2.793-2.382,4.104-3.695l23.053-23.053L316.328,482.127L316.328,482.127z M410.184,378.872  c-0.022,0.024-0.042,0.048-0.065,0.072c-12.049,13.138-30.062,20.67-49.435,20.67l-0.642-0.002  c-15.421-0.133-39.252-5.106-65.201-28.047c-5.61-4.959-6.139-13.557-1.18-19.167c4.958-5.61,13.558-6.139,19.168-1.18  c15.565,13.76,31.971,21.104,47.44,21.236l0.421,0.001c11.773,0,22.486-4.321,29.405-11.859c0.015-0.015,0.028-0.03,0.042-0.046  c3.096-3.386,5.501-7.449,7.042-11.849l27.018-27.018c0.802,2.918,1.39,5.929,1.735,9.029  C427.875,348.243,422.135,365.797,410.184,378.872z M367.457,355.379c-2.127,0.498-4.392,0.781-6.767,0.781h-0.277  c-11.489-0.099-24.211-6.029-36.792-17.152c-12.34-10.909-31.257-9.744-42.167,2.595c-10.91,12.341-9.746,31.257,2.595,42.167  c11.415,10.092,22.565,17.141,33.003,22.014l-35.299,35.299c-6.868,6.869-15.999,10.651-25.714,10.651  c-9.715,0-18.846-3.783-25.714-10.651l-35.299-35.299c10.438-4.873,21.587-11.921,33.003-22.014  c12.34-10.91,13.505-29.827,2.595-42.168c-10.912-12.34-29.827-13.503-42.168-2.594c-12.579,11.122-25.302,17.053-36.795,17.151  h-0.273c-2.375,0-4.64-0.284-6.767-0.781l-85.434-85.435C40.64,251.395,27.801,228.1,22.061,202.579  c-4.593-20.421-4.494-41.438,0.2-61.519l28.457,28.456c3.287,3.287,7.657,5.097,12.306,5.097c4.649,0,9.021-1.811,12.307-5.097  l35.59-35.592c14.934-14.932,15.08-39.168,0.326-54.024c-7.19-7.24-16.77-11.238-26.973-11.255h-0.068  c-7.655,0-14.965,2.242-21.182,6.417c-0.659-0.442-1.336-0.852-2.019-1.25c25.248-23.816,58.069-36.918,92.939-36.978  c0.083,0,0.16,0,0.243,0c36.3,0,70.421,14.132,96.094,39.806c1.528,1.528,3.6,2.387,5.762,2.387c2.161,0,4.232-0.858,5.762-2.387  c16.839-16.839,37.82-28.988,60.675-35.133c20.156-5.418,41.412-6.105,61.867-2.073c0.345,9.381,4.096,18.684,11.258,25.846  l35.592,35.592c3.394,3.394,7.851,5.089,12.308,5.089s8.913-1.697,12.307-5.089l10.319-10.319  c40.585,53.535,35.461,130.698-13.232,179.392L367.457,355.379z M347.494,196.786c-11.046,0-20.031,8.986-20.031,20.031  c0,4.499,3.647,8.147,8.147,8.147s8.147-3.648,8.147-8.147c0-2.061,1.676-3.737,3.737-3.737c2.061,0,3.737,1.676,3.737,3.737  c0,4.499,3.647,8.147,8.147,8.147s8.147-3.648,8.147-8.147C367.525,205.772,358.54,196.786,347.494,196.786z M164.582,196.786  c-11.046,0-20.03,8.986-20.03,20.031c0,4.499,3.647,8.147,8.147,8.147s8.147-3.648,8.147-8.147c0-2.061,1.676-3.737,3.736-3.737  c2.061,0,3.737,1.676,3.737,3.737c0,4.499,3.647,8.147,8.147,8.147c4.501,0,8.147-3.648,8.147-8.147  C184.614,205.772,175.627,196.786,164.582,196.786z"/>
<g>
</g>
<g>
</g>
<g>
</g>
<g>
</g>
<g>
</g>
<g>
</g>
<g>
</g>
<g>
</g>
<g>
</g>
<g>
</g>
<g>
</g>
<g>
</g>
<g>
</g>
<g>
</g>
<g>
</g>
</svg>
