<?xml version="1.0" encoding="iso-8859-1"?>
<!-- Generator: Adobe Illustrator 19.0.0, SVG Export Plug-In . SVG Version: 6.00 Build 0)  -->
<svg xmlns="http://www.w3.org/2000/svg" xmlns:xlink="http://www.w3.org/1999/xlink" version="1.1" id="Capa_1" x="0px" y="0px" viewBox="0 0 511.999 511.999" style="enable-background:new 0 0 511.999 511.999;" xml:space="preserve">
<path style="fill:#F3C74F;" d="M379.65,269.802c-9.902,0-18.826-6.852-21.061-16.919c-2.585-11.643,4.758-23.176,16.401-25.761  c35.886-7.966,67.169-20.197,86.535-89.482c3.211-11.486,15.127-18.195,26.611-14.984c11.486,3.211,18.195,15.125,14.984,26.61  c-11.274,40.337-27.833,69.456-50.621,89.018c-21.978,18.867-46.783,26.259-68.148,31.001  C382.775,269.634,381.2,269.802,379.65,269.802z"/>
<circle style="fill:#0081C6;" cx="325.768" cy="88.531" r="49.597"/>
<g>
	<circle style="fill:#F3C74F;" cx="325.768" cy="88.531" r="23.156"/>
	<path style="fill:#F3C74F;" d="M312.259,481.642c-11.927,0-21.594-9.668-21.594-21.594v-89.33c0-11.926,9.668-21.594,21.594-21.594   s21.594,9.668,21.594,21.594v89.33C333.853,471.974,324.186,481.642,312.259,481.642z"/>
</g>
<path style="opacity:0.2;enable-background:new    ;" d="M312.259,349.122c-11.927,0-21.594,9.668-21.594,21.594v44.813  c15.802-5.043,30.296-12.405,43.189-21.618v-23.195C333.853,358.791,324.186,349.122,312.259,349.122z"/>
<path style="fill:#F3C74F;" d="M219.404,481.642c-11.927,0-21.594-9.668-21.594-21.594v-81.772c0-11.927,9.668-21.594,21.594-21.594  c11.927,0,21.594,9.668,21.594,21.594v81.772C240.998,471.974,231.33,481.642,219.404,481.642z"/>
<path style="opacity:0.2;enable-background:new    ;" d="M219.404,356.68c-11.927,0-21.594,9.668-21.594,21.594v38.036  c13.841,4.202,28.364,6.499,43.189,6.681v-44.717C240.998,366.349,231.33,356.68,219.404,356.68z"/>
<path style="fill:#40BAB3;" d="M394.293,211.465C373.206,128.286,273.481,26.039,191.77,46.754  C110.059,67.47,71.094,204.879,92.182,288.058s105.813,133.463,189.239,112.313C364.846,379.22,415.381,294.644,394.293,211.465z"/>
<g>
	<path style="fill:#F0B0B7;" d="M162.259,251.459c-3.618,0-6.913-2.442-7.843-6.11c-1.1-4.335,1.523-8.74,5.86-9.839l25.217-6.393   c4.332-1.097,8.741,1.525,9.838,5.86c1.1,4.335-1.523,8.74-5.86,9.839l-25.217,6.393   C163.588,251.378,162.919,251.459,162.259,251.459z"/>
	<path style="fill:#F0B0B7;" d="M338.485,206.781c-3.618,0-6.913-2.442-7.843-6.11c-1.099-4.335,1.523-8.74,5.86-9.839l25.218-6.393   c4.334-1.096,8.741,1.525,9.838,5.86c1.1,4.335-1.523,8.74-5.86,9.839l-25.219,6.393   C339.814,206.7,339.144,206.781,338.485,206.781z"/>
</g>
<path style="fill:#FFFFFF;" d="M101.729,315.036c30.756,66.686,105.73,104.087,179.692,85.335  c73.961-18.751,122.062-87.354,117.331-160.639L101.729,315.036z"/>
<path style="fill:#0081C6;" d="M144.06,369.749c36.947,30.318,87.383,43.292,137.361,30.622  c49.978-12.67,88.141-48.107,106.18-92.365L144.06,369.749z"/>
<path style="opacity:0.2;enable-background:new    ;" d="M293.378,380.291c-83.425,21.151-168.15-29.133-189.239-112.312  c-12.695-50.076-3.617-119.799,23.443-171.89c-36.166,52.945-49.813,135.119-35.399,191.969  c21.088,83.179,105.813,133.463,189.239,112.313c45.868-11.628,81.787-42.434,101.333-81.635  C362.062,348.22,331.081,370.733,293.378,380.291z"/>
<path style="fill:#0081C6;" d="M141.311,133.687c0.277,0.971,0.407,1.987,0.399,2.996c-0.094,13.296-3.374,23.213-9.631,33.721  c-6.23,10.461-13.055,17.718-24.743,24.195c-0.998,0.553-2.075,0.973-3.189,1.216c-26.624,5.793-53.244-11.063-59.029-38.164  c-5.37-25.157,9.785-50.608,34.462-57.872C106.227,91.938,133.798,107.404,141.311,133.687z"/>
<circle style="fill:#F3C74F;" cx="93.63" cy="147.348" r="23.156"/>
<path style="opacity:0.2;enable-background:new    ;" d="M115.87,180.27c-0.998,0.553-2.075,0.973-3.189,1.216  c-26.625,5.793-53.243-11.063-59.029-38.164c-2.068-9.683-1.083-19.404,2.303-28.119c-9.669,11.395-14.141,26.974-10.837,42.45  c5.786,27.101,32.405,43.956,59.029,38.164c1.115-0.243,2.192-0.662,3.189-1.216c11.688-6.477,18.513-13.734,24.743-24.195  c1.467-2.464,2.765-4.897,3.902-7.347C130.839,169.956,124.764,175.34,115.87,180.27z"/>
<path style="fill:#F3C74F;" d="M108.828,338.119c-23.29,0-45.426-8.278-63.152-23.791c-22.907-20.044-36.248-50.115-37.564-84.672  c-0.455-11.918,8.839-21.947,20.756-22.401c11.934-0.457,21.946,8.839,22.401,20.756c0.861,22.564,8.975,41.676,22.848,53.815  c11.076,9.692,25.301,14.248,40.056,12.849c11.888-1.134,22.415,7.576,23.546,19.449c1.132,11.873-7.577,22.414-19.449,23.545  C115.107,337.969,111.956,338.119,108.828,338.119z"/>
<path style="fill:#5F666F;" d="M488.643,152.94l-47.895,8.39c-3.473,0.609-6.783-1.714-7.391-5.187l-14.09-80.431  c-0.609-3.473,1.715-6.783,5.188-7.391l47.895-8.39c3.473-0.609,6.783,1.714,7.391,5.187l14.09,80.431  C494.439,149.023,492.117,152.331,488.643,152.94z"/>
<circle style="fill:#FFFFFF;" cx="461.769" cy="82.23" r="8.079"/>
<rect x="451.717" y="98.638" transform="matrix(-0.1725 -0.985 0.985 -0.1725 411.7376 604.5679)" style="fill:#394049;" width="16.196" height="61.394"/>
<path style="opacity:0.2;enable-background:new    ;" d="M492.992,146.743l-47.895,8.39c-3.473,0.609-6.783-1.714-7.391-5.187  l-14.09-80.43c-0.056-0.32-0.079-0.637-0.086-0.952c-2.948,0.985-4.816,3.995-4.263,7.149l14.09,80.431  c0.609,3.473,3.917,5.796,7.391,5.188l47.895-8.39c3.154-0.553,5.351-3.332,5.274-6.439  C493.618,146.601,493.312,146.687,492.992,146.743z"/>
<path style="opacity:0.2;fill:#FFFFFF;enable-background:new    ;" d="M472.348,59.931l-16.559,2.901  c-0.89,2.809-1.147,5.864-0.604,8.967c1.805,10.304,11.621,17.193,21.925,15.388c2.216-0.388,4.259-1.165,6.106-2.219l-3.478-19.851  C479.131,61.645,475.823,59.323,472.348,59.931z"/>
<path d="M393.781,151.286c-3.381,2.927-3.748,8.042-0.821,11.422c1.601,1.85,3.857,2.796,6.125,2.796  c1.879,0,3.766-0.65,5.298-1.977l11.836-10.25c3.381-2.927,3.748-8.042,0.821-11.422c-2.929-3.382-8.043-3.749-11.423-0.821  L393.781,151.286z M389.169,36.701l21.594,17.133c1.489,1.181,3.264,1.755,5.027,1.755c2.386,0,4.75-1.051,6.349-3.065  c2.78-3.504,2.193-8.597-1.311-11.377l-21.594-17.133c-3.505-2.779-8.597-2.192-11.376,1.311  C385.078,28.827,385.665,33.92,389.169,36.701z M382.497,120.813c0.974,3.611,4.243,5.988,7.812,5.988  c0.699,0,1.41-0.092,2.116-0.282l12.957-3.499c4.318-1.166,6.872-5.611,5.706-9.929c-1.165-4.319-5.618-6.873-9.928-5.706  l-12.957,3.499C383.885,112.05,381.33,116.495,382.497,120.813z M497.183,117.758l-9.466-54.036  c-0.667-3.81-2.779-7.133-5.946-9.356c-3.168-2.223-7.014-3.076-10.82-2.411l-47.894,8.39c-3.81,0.667-7.133,2.779-9.356,5.945  c-2.223,3.167-3.079,7.009-2.411,10.82l14.091,80.433c1.232,7.024,7.36,11.983,14.258,11.983c0.497,0,0.999-0.035,1.503-0.087  c-11.73,23.698-25.612,34.503-38.845,40.677c-0.053-0.214-0.1-0.428-0.154-0.641c-6.434-25.379-19.973-52.607-38.087-77.773  c15.961-14.146,22.998-36.208,17.638-57.349c-7.817-30.838-39.269-49.567-70.104-41.747c-13.029,3.303-24.446,11.088-32.321,21.806  c-7.194-3.92-14.388-7.261-21.493-9.936c-24.019-9.046-46.897-10.92-67.995-5.571c-27.377,6.94-51.929,26.362-71.373,56.345  c-12.845-6.131-27.316-7.299-41.112-3.237c-28.739,8.458-46.351,38.034-40.096,67.331c3.233,15.143,12.162,28.096,25.139,36.472  c5.735,3.701,11.954,6.309,18.406,7.793c-3.328,26.05-2.988,51.637,0.943,73.945c-0.759-0.584-1.508-1.186-2.237-1.823  c-12.179-10.657-19.314-27.714-20.088-48.029c-0.301-7.926-3.669-15.26-9.481-20.648c-5.817-5.393-13.384-8.194-21.319-7.892  c-7.926,0.302-15.26,3.672-20.65,9.49s-8.193,13.386-7.891,21.311c1.403,36.807,15.724,68.933,40.323,90.458  c19.008,16.634,43.331,25.795,68.486,25.795c0.631,0,1.264-0.012,1.897-0.023c18.596,25.456,43.964,44.87,73.646,56.251  c1.772,0.679,3.553,1.316,5.34,1.933v55.67c0,16.373,13.32,29.692,29.692,29.692s29.692-13.319,29.692-29.692v-46.869  c11.193-0.43,22.395-2.012,33.471-4.758v51.628c0,16.373,13.32,29.692,29.692,29.692c16.372,0,29.692-13.319,29.692-29.692V380.25  c16.718-12.596,31.001-28.427,42.049-46.919c11.407-19.092,18.67-39.851,21.651-61.211c20.993-6.419,37.668-15.287,52.12-27.694  c24.042-20.639,41.426-51.054,53.146-92.983C514.584,138.33,508.641,124.419,497.183,117.758z M315.568,48.305  c22.186-5.623,44.802,7.848,50.426,30.028c3.754,14.813-0.95,30.251-11.803,40.445c-2.148-2.663-4.346-5.29-6.589-7.881  c7.786-7.61,11.262-18.996,8.461-30.047c-4.235-16.703-21.267-26.85-37.976-22.615c-6.493,1.647-12.182,5.32-16.354,10.344  c-2.813-2.022-5.642-3.955-8.478-5.806C298.872,55.694,306.7,50.553,315.568,48.305z M336.65,98.936  c-5.007-5.169-10.187-10.142-15.524-14.857c-2.17-1.916-4.361-3.774-6.564-5.591c1.972-2.199,4.566-3.808,7.505-4.553  c8.041-2.041,16.256,2.846,18.297,10.895C341.669,89.981,340.142,95.278,336.65,98.936z M71.119,182.207  c-9.334-6.024-15.755-15.345-18.082-26.246c-4.498-21.065,8.166-42.33,28.829-48.412c3.903-1.149,7.881-1.718,11.831-1.718  c6.903,0,13.724,1.736,19.93,5.151c9.772,5.377,16.838,14.232,19.897,24.931c0.059,0.207,0.09,0.457,0.087,0.714  c-0.078,11.052-2.538,19.637-8.492,29.634c-5.9,9.907-11.987,15.866-21.711,21.257c-0.333,0.184-0.673,0.317-0.985,0.385  C91.582,190.264,80.465,188.238,71.119,182.207z M117.5,329.606c-2.882,0.275-5.8,0.415-8.672,0.415  c-21.538,0-41.532-7.534-57.821-21.788c-21.212-18.561-33.574-46.577-34.805-78.887c-0.137-3.602,1.137-7.043,3.587-9.687  c2.45-2.644,5.783-4.176,9.387-4.313c0.177-0.006,0.354-0.011,0.53-0.011c3.413,0,6.648,1.265,9.159,3.594  c2.641,2.45,4.171,5.783,4.309,9.389c0.946,24.813,10.04,45.981,25.608,59.601c12.759,11.166,29.159,16.426,46.157,14.817  c3.594-0.347,7.102,0.732,9.878,3.027c2.777,2.295,4.495,5.537,4.837,9.128c0.341,3.589-0.735,7.096-3.031,9.875  C124.33,327.545,121.089,329.264,117.5,329.606z M232.9,460.048c0,7.442-6.054,13.496-13.496,13.496  c-7.442,0-13.496-6.054-13.496-13.496v-50.989c8.896,2.076,17.919,3.385,26.993,3.942V460.048z M325.755,460.048  c0,7.442-6.054,13.496-13.496,13.496s-13.496-6.054-13.496-13.496v-56.513c9.431-3.381,18.452-7.586,26.993-12.542V460.048z   M370.098,325.025c-20.212,33.827-52.411,57.797-90.668,67.496c-29.815,7.559-60.68,5.761-89.262-5.199  c-24.19-9.275-45.199-24.459-61.388-44.232c3.951-1.84,7.475-4.551,10.332-8.01c5.052-6.114,7.419-13.831,6.666-21.726  c-0.751-7.896-4.532-15.025-10.642-20.075c-6.113-5.053-13.829-7.42-21.729-6.666c-4.569,0.431-9.075,0.184-13.411-0.693  c-5.856-23.202-6.922-51.707-3.104-80.962c2.992-0.176,5.991-0.58,8.976-1.229c1.861-0.405,3.675-1.094,5.393-2.046  c12.315-6.826,20.362-14.687,27.775-27.134c7.452-12.512,10.674-23.818,10.773-37.814c0.012-1.807-0.228-3.58-0.71-5.272  c-0.001,0-0.001,0-0.001-0.001c-3.062-10.711-9.021-20.079-17.178-27.282c17.193-26.561,38.465-43.65,61.842-49.576  c34.335-8.706,76.848,6.463,116.645,41.615c36.813,32.514,65.949,77.437,76.04,117.237  C396.11,251.583,390.305,291.206,370.098,325.025z M441.038,153.059l-13.499-77.056l44.521-7.8l13.499,77.056L441.038,153.059z   M447.224,232.139c-11.266,9.671-24.199,16.94-40.096,22.472c0.277-9.383-0.26-18.825-1.63-28.238  c25.08-10.689,42.293-29.619,54.902-60.263l29.64-5.192c0.384-0.067,0.76-0.16,1.134-0.256  C480.599,192.419,466.155,215.888,447.224,232.139z M283.894,176.066c-4.335,1.099-6.958,5.504-5.859,9.839  c0.971,3.83-1.356,7.737-5.187,8.708c-1.851,0.472-3.78,0.19-5.427-0.789c-1.644-0.979-2.809-2.541-3.28-4.397  c-1.098-4.335-5.501-6.957-9.839-5.86c-3.666,0.93-6.107,4.224-6.109,7.841c0,0.66,0.081,1.33,0.25,2  c0.471,1.855,0.19,3.783-0.789,5.428c-0.979,1.644-2.542,2.81-4.396,3.28c-3.832,0.971-7.738-1.356-8.709-5.186  c-1.098-4.336-5.499-6.957-9.839-5.86c-4.335,1.099-6.958,5.504-5.859,9.839c2.68,10.568,12.213,17.624,22.65,17.623  c1.894,0,3.819-0.232,5.738-0.718c5.649-1.433,10.296-4.825,13.397-9.267c4.84,2.428,10.54,3.197,16.195,1.764  c12.486-3.167,20.07-15.901,16.903-28.388C292.636,177.59,288.237,174.968,283.894,176.066z M173.345,201.183  c-1.1-4.336-5.504-6.959-9.841-5.857c-4.335,1.099-6.957,5.505-5.857,9.841l1.049,4.135c0.93,3.668,4.226,6.109,7.843,6.109  c0.659,0,1.329-0.081,1.999-0.25c4.335-1.1,6.957-5.505,5.857-9.841L173.345,201.183z M349.574,156.507  c-1.099-4.335-5.509-6.957-9.839-5.86c-4.336,1.099-6.959,5.504-5.861,9.839l1.048,4.135c0.93,3.668,4.226,6.11,7.844,6.11  c0.659,0,1.328-0.081,1.996-0.25c4.336-1.099,6.959-5.504,5.861-9.839L349.574,156.507z M120.485,163.337  c4.271-7.173,5.494-15.579,3.442-23.672c-4.235-16.704-21.273-26.851-37.975-22.615c-8.092,2.051-14.901,7.132-19.172,14.304  c-4.271,7.173-5.494,15.579-3.442,23.671c2.051,8.092,7.132,14.901,14.304,19.172c4.901,2.918,10.377,4.414,15.937,4.414  c2.577,0,5.173-0.322,7.735-0.971C109.405,175.59,116.213,170.51,120.485,163.337z M85.927,160.284  c-3.455-2.058-5.903-5.338-6.892-9.237c-0.988-3.899-0.399-7.949,1.658-11.405c2.058-3.456,5.338-5.903,9.237-6.892  c1.237-0.313,2.477-0.463,3.699-0.463c6.726,0,12.871,4.548,14.599,11.359c0.988,3.899,0.399,7.949-1.658,11.405  c-2.058,3.456-5.338,5.903-9.237,6.892C93.432,162.931,89.384,162.342,85.927,160.284z"/>
<g>
</g>
<g>
</g>
<g>
</g>
<g>
</g>
<g>
</g>
<g>
</g>
<g>
</g>
<g>
</g>
<g>
</g>
<g>
</g>
<g>
</g>
<g>
</g>
<g>
</g>
<g>
</g>
<g>
</g>
</svg>
