<?xml version="1.0" encoding="iso-8859-1"?>
<!-- Generator: Adobe Illustrator 19.0.0, SVG Export Plug-In . SVG Version: 6.00 Build 0)  -->
<svg xmlns="http://www.w3.org/2000/svg" xmlns:xlink="http://www.w3.org/1999/xlink" version="1.1" id="Capa_1" x="0px" y="0px" viewBox="0 0 512.005 512.005" style="enable-background:new 0 0 512.005 512.005;" xml:space="preserve">
<path style="fill:#F0C419;" d="M439.175,238.879c-3.354-13.859-7.503-28.072-12.359-42.372c-1.236-3.531-2.472-7.15-3.796-10.681  h-0.088c-4.502-12.712-9.622-25.335-15.183-37.782c-9.092,6.003-17.302,10.946-24.717,15.183c-0.088,0.088-0.088,0.088-0.177,0.088  c-0.168,0.194-0.38,0.344-0.618,0.441c-0.177,0.088-0.353,0.265-0.618,0.441c-26.836,18.097-73.004,30.014-125.617,30.014  s-98.781-11.917-125.617-30.014c-0.265-0.177-0.441-0.353-0.618-0.441c-0.238-0.097-0.45-0.247-0.618-0.441  c-0.088,0-0.088,0-0.177-0.088c-7.415-4.237-15.537-9.181-24.629-15.183c-0.971,2.03-1.942,4.149-2.825,6.179  c-4.502,10.328-8.651,20.833-12.447,31.338c-1.412,3.619-2.648,7.327-3.884,10.946c-4.855,14.301-9.004,28.513-12.359,42.372  c-6.753,25.785-10.461,52.277-11.035,78.919c0,107.255,86.952,194.207,194.207,194.207s194.207-86.952,194.207-194.207  C449.635,291.156,445.937,264.664,439.175,238.879z"/>
<path style="fill:#7F6E5D;" d="M509.001,123.591c-9.092-26.483-27.366-70.621-91.189-26.483  c-9.799,6.797-18.714,12.447-26.748,17.302c-2.825,1.677-5.473,3.178-8.033,4.679c-0.088,0.088-0.088,0.088-0.177,0.088  c-0.168,0.194-0.38,0.344-0.618,0.441c-0.177,0.088-0.353,0.265-0.618,0.441l-0.088-0.088l-19.685-37.694l-28.778-55.084  c-2.481-10.726-9.869-19.659-19.95-24.099c-1.598-0.715-3.249-1.306-4.943-1.766c-0.177-0.088-0.441-0.088-0.618-0.177  c-1.359-0.362-2.745-0.627-4.149-0.794c-1.58-0.23-3.169-0.353-4.767-0.353h-0.971c-0.15-0.018-0.309,0.018-0.441,0.088h-0.53  c-0.3-0.018-0.591,0.009-0.883,0.088c-0.238-0.018-0.477,0.018-0.706,0.088c-0.503,0.044-1.006,0.132-1.501,0.265  c-1.598,0.335-3.16,0.812-4.679,1.412c-0.777,0.265-1.518,0.618-2.207,1.059c-1.448,0.715-2.79,1.642-3.972,2.737  c-0.653,0.459-1.245,0.989-1.766,1.589c-0.574,0.547-1.112,1.13-1.589,1.766c-0.124,0.221-0.274,0.424-0.441,0.618  c-0.221,0.159-0.406,0.371-0.53,0.618c-0.777,1.024-1.457,2.119-2.03,3.266c0,0.088-0.088,0.177-0.088,0.265  c-0.265,0.618-0.53,1.148-0.794,1.766c-0.609,1.386-1.059,2.834-1.324,4.326c-0.15,0.583-0.274,1.174-0.353,1.766v0.265  c0,0.53-0.088,0.971-0.088,1.501c-0.071,0.503-0.097,1.006-0.088,1.501v19.156c-0.062,9.799-8.051,17.69-17.849,17.629  c-0.468,0-0.927-0.026-1.395-0.062h-0.177c-1.139-0.097-2.269-0.335-3.354-0.706h-0.088c-0.998-0.335-1.977-0.75-2.913-1.236  c-5.853-3.01-9.525-9.039-9.534-15.625V24.987c-0.018-13.789-11.193-24.964-24.982-24.982  c-16.384,0.009-30.623,11.255-34.428,27.189l-28.778,55.084l-19.686,37.694l-0.088,0.088c-0.265-0.177-0.441-0.353-0.618-0.441  c-0.238-0.097-0.45-0.247-0.618-0.441c-0.088,0-0.088,0-0.177-0.088c-0.044,0-0.088-0.035-0.088-0.088l0,0  c-2.295-1.324-4.679-2.648-7.239-4.149c-0.221-0.168-0.459-0.318-0.706-0.441c-8.033-4.855-16.949-10.505-26.748-17.302  c-63.823-44.138-82.097,0-91.189,26.483c-3.558,14.38-3.531,29.414,0.088,43.785v0.088c6.886,31.073,26.836,65.236,67.531,70.886  l2.207,0.53c3.354-13.859,7.503-28.072,12.359-42.372c1.236-3.619,2.472-7.327,3.884-10.946c3.796-10.505,7.945-21.01,12.447-31.338  c0.883-2.03,1.854-4.149,2.825-6.179c9.092,6.003,17.214,10.946,24.629,15.183c0.088,0.088,0.088,0.088,0.177,0.088  c0.168,0.194,0.38,0.344,0.618,0.441c0.177,0.088,0.353,0.265,0.618,0.441c26.836,18.097,73.004,30.014,125.617,30.014  s98.781-11.917,125.617-30.014c0.265-0.177,0.441-0.353,0.618-0.441c0.238-0.097,0.45-0.247,0.618-0.441  c0.088,0,0.088,0,0.177-0.088c7.415-4.237,15.625-9.181,24.717-15.183c5.561,12.447,10.681,25.07,15.183,37.782h0.088  c1.324,3.531,2.56,7.15,3.796,10.681c4.855,14.301,9.004,28.513,12.359,42.372l2.207-0.53c40.695-5.65,60.646-39.812,67.531-70.886  v-0.088C512.532,153.013,512.558,137.98,509.001,123.591z"/>
<path style="fill:#B19046;" d="M361.845,82.278c-33.624,13.497-69.623,20.074-105.843,19.332  c-36.22,0.742-72.218-5.835-105.843-19.332l28.778-55.084c3.805-15.934,18.044-27.18,34.428-27.189  c13.789,0.018,24.964,11.193,24.982,24.982v19.156c0.009,6.585,3.681,12.606,9.534,15.625c0.936,0.486,1.916,0.9,2.913,1.236h0.088  c1.086,0.371,2.216,0.609,3.354,0.706h0.177c9.763,0.83,18.353-6.409,19.182-16.172c0.035-0.459,0.062-0.927,0.062-1.395V24.987  c-0.018-0.503,0.018-1.006,0.088-1.501c0-0.53,0.088-0.971,0.088-1.501V21.72c0.079-0.591,0.203-1.183,0.353-1.766  c0.265-1.492,0.715-2.94,1.324-4.326c0.265-0.618,0.53-1.148,0.794-1.766c0-0.088,0.088-0.177,0.088-0.265  c0.574-1.148,1.254-2.242,2.03-3.266c0.124-0.247,0.309-0.459,0.53-0.618c0.168-0.194,0.318-0.397,0.441-0.618  c0.477-0.636,1.015-1.218,1.589-1.766c0.521-0.6,1.112-1.13,1.766-1.589c1.183-1.095,2.525-2.022,3.972-2.737  c0.689-0.441,1.43-0.794,2.207-1.059c1.518-0.6,3.081-1.077,4.679-1.412c0.494-0.132,0.997-0.221,1.501-0.265  c0.23-0.071,0.468-0.106,0.706-0.088c0.291-0.079,0.583-0.106,0.883-0.088h0.53c0.132-0.071,0.291-0.106,0.441-0.088h0.971  c1.598,0,3.187,0.115,4.767,0.353c1.404,0.168,2.79,0.433,4.149,0.794c0.177,0.088,0.441,0.088,0.618,0.177  c1.695,0.459,3.346,1.05,4.943,1.766c10.081,4.44,17.47,13.374,19.95,24.099L361.845,82.278z"/>
<path style="fill:#D75E72;" d="M381.619,120.06c-26.836,18.097-73.004,30.014-125.617,30.014s-98.781-11.917-125.617-30.014  l0.088-0.088l19.686-37.694c33.624,13.497,69.623,20.074,105.843,19.332c36.22,0.742,72.219-5.835,105.843-19.332l19.686,37.694  L381.619,120.06z"/>
<g>
	<path style="fill:#B19046;" d="M508.913,167.376v0.088c-6.886,31.073-26.836,65.236-67.531,70.886l-2.207,0.53   c-3.354-13.859-7.503-28.072-12.359-42.372c-1.236-3.531-2.472-7.15-3.796-10.681h-0.088c-4.502-12.712-9.622-25.335-15.183-37.782   c3.178-2.119,6.621-4.414,10.063-6.797C481.371,97.285,499.732,140.893,508.913,167.376z"/>
	<path style="fill:#B19046;" d="M104.344,148.043c-0.971,2.03-1.942,4.149-2.825,6.179c-4.502,10.328-8.651,20.833-12.447,31.338   c-1.412,3.619-2.648,7.327-3.884,10.946c-4.855,14.301-9.004,28.513-12.359,42.372l-2.207-0.53   c-40.695-5.65-60.646-39.812-67.531-70.886v-0.088c9.181-26.483,27.542-70.091,91.101-26.13   C97.724,143.629,101.078,145.924,104.344,148.043z"/>
</g>
<g>
	<path style="fill:#2C2F38;" d="M335.451,404.343c-1.227,0-2.445-0.256-3.575-0.759c-7.433-3.275-15.095-6.003-22.925-8.157   c-8.369-2.313-16.878-4.043-25.485-5.191c-18.229-2.41-36.696-2.41-54.934,0c-8.607,1.148-17.117,2.878-25.485,5.191   c-7.83,2.154-15.492,4.882-22.925,8.157c-4.449,1.986-9.675-0.009-11.652-4.467c-1.986-4.449,0.009-9.675,4.467-11.652   c0.009-0.009,0.026-0.009,0.035-0.018c8.218-3.628,16.693-6.647,25.353-9.031c9.145-2.525,18.458-4.423,27.86-5.676   c19.791-2.622,39.83-2.622,59.622,0c9.41,1.254,18.714,3.151,27.86,5.676c8.66,2.392,17.134,5.411,25.353,9.031   c4.458,1.977,6.462,7.194,4.484,11.652C342.107,402.286,338.937,404.343,335.451,404.343z"/>
	<path style="fill:#2C2F38;" d="M176.563,423.729c-2.957,0-5.711-1.474-7.353-3.928c-17.143-25.706-6.78-47.395,1.103-55.278   c3.443-3.443,9.031-3.452,12.482,0c3.425,3.416,3.452,8.96,0.071,12.412c-1.315,1.404-11.917,13.639,1.042,33.068   c2.701,4.061,1.607,9.534-2.445,12.244C180.006,423.217,178.302,423.729,176.563,423.729z"/>
	<path style="fill:#2C2F38;" d="M335.442,423.729c-4.873,0-8.819-3.955-8.819-8.836c0-1.739,0.521-3.443,1.483-4.891   c13.48-20.224,1.227-32.874,1.103-32.997c-3.425-3.46-3.399-9.057,0.062-12.482c3.443-3.407,8.978-3.407,12.42,0   c7.883,7.883,18.247,29.572,1.103,55.278C341.162,422.263,338.399,423.737,335.442,423.729z"/>
	<path style="fill:#2C2F38;" d="M282.485,441.613c-2.048,0-4.034-0.715-5.614-2.022c-12.429-9.066-29.299-9.066-41.728,0   c-3.761,3.107-9.331,2.569-12.429-1.192c-3.107-3.761-2.569-9.331,1.192-12.429l0,0c18.856-14.76,45.347-14.76,64.203,0   c3.761,3.107,4.29,8.669,1.183,12.429C287.614,440.439,285.116,441.613,282.485,441.613L282.485,441.613z"/>
</g>
<g>
	<path style="fill:#2980BA;" d="M196.946,277.464c3.972,5.261,6.118,11.679,6.091,18.273c0.044,17.064-13.745,30.932-30.808,30.985   c-17.064,0.044-30.932-13.745-30.985-30.808c-0.026-9.913,4.696-19.226,12.712-25.062"/>
	<path style="fill:#2980BA;" d="M358.049,270.844c13.762,10.055,16.764,29.369,6.709,43.132   c-10.055,13.762-29.369,16.764-43.132,6.709c-7.962-5.817-12.668-15.086-12.659-24.947c-0.026-6.594,2.119-13.012,6.091-18.273"/>
</g>
<g>
	<path style="fill:#2C2F38;" d="M229.528,291.324c-0.45,0-0.909-0.035-1.351-0.106l-114.759-17.655   c-4.811-0.786-8.068-5.332-7.283-10.143c0.777-4.749,5.208-7.998,9.975-7.309l114.759,17.655c4.82,0.742,8.121,5.252,7.38,10.072   C237.579,288.137,233.88,291.315,229.528,291.324z"/>
	<path style="fill:#2C2F38;" d="M282.476,291.324c-4.873-0.009-8.819-3.964-8.81-8.845c0.009-4.352,3.178-8.051,7.477-8.713   l114.759-17.655c4.829-0.697,9.304,2.648,10.002,7.477c0.689,4.758-2.56,9.19-7.309,9.975l-114.759,17.655   C283.385,291.288,282.935,291.324,282.476,291.324z"/>
</g>
<g>
</g>
<g>
</g>
<g>
</g>
<g>
</g>
<g>
</g>
<g>
</g>
<g>
</g>
<g>
</g>
<g>
</g>
<g>
</g>
<g>
</g>
<g>
</g>
<g>
</g>
<g>
</g>
<g>
</g>
</svg>
