<?xml version="1.0" encoding="iso-8859-1"?>
<!-- Generator: Adobe Illustrator 19.0.0, SVG Export Plug-In . SVG Version: 6.00 Build 0)  -->
<svg xmlns="http://www.w3.org/2000/svg" xmlns:xlink="http://www.w3.org/1999/xlink" version="1.1" id="Capa_1" x="0px" y="0px" viewBox="0 0 511.999 511.999" style="enable-background:new 0 0 511.999 511.999;" xml:space="preserve">
<g>
	<path style="fill:#F3C74F;" d="M434.82,388.577c-3.815,0-7.675-1.028-11.157-3.184c-9.964-6.172-13.036-19.254-6.864-29.217   c4.676-7.548,2.621-15.277,0.979-19.212c-2.871-6.884-8.689-12.404-14.474-13.733c-11.424-2.625-18.555-14.013-15.931-25.436   c2.625-11.423,14.016-18.553,25.436-15.93c19.085,4.385,36,19.238,44.143,38.761c8.132,19.498,6.649,40.602-4.07,57.904   C448.863,385.01,441.923,388.577,434.82,388.577z"/>
	<path style="fill:#F3C74F;" d="M320.341,504.042c-11.721,0-21.222-9.501-21.222-21.222v-80.362   c0-11.721,9.501-21.222,21.222-21.222s21.222,9.501,21.222,21.222v80.362C341.563,494.541,332.062,504.042,320.341,504.042z"/>
</g>
<path style="opacity:0.2;enable-background:new    ;" d="M320.341,381.235c-11.721,0-21.222,9.501-21.222,21.222v44.509  c14.985-2.393,29.245-6.948,42.444-13.343v-31.164C341.563,390.737,332.062,381.235,320.341,381.235z"/>
<path style="fill:#F3C74F;" d="M229.087,504.042c-11.721,0-21.222-9.501-21.222-21.222v-80.362c0-11.721,9.501-21.222,21.222-21.222  s21.222,9.501,21.222,21.222v80.362C250.309,494.541,240.808,504.042,229.087,504.042z"/>
<path style="opacity:0.2;enable-background:new    ;" d="M229.087,381.235c-11.721,0-21.222,9.501-21.222,21.222v31.164  c13.199,6.395,27.459,10.951,42.444,13.343v-44.509C250.309,390.737,240.808,381.235,229.087,381.235z"/>
<path style="fill:#F3C74F;" d="M127.054,326.8c-19.816,0-38.332-6.588-52.605-19.27c-20.179-17.929-28.676-45.562-22.73-73.92  c2.406-11.472,13.655-18.822,25.125-16.415c11.472,2.406,18.821,13.654,16.415,25.125c-2.866,13.669,0.466,25.56,9.381,33.482  c10.036,8.917,25.681,10.994,41.847,5.554c11.111-3.739,23.144,2.237,26.882,13.345s-2.237,23.144-13.345,26.882  C147.624,325.083,137.169,326.8,127.054,326.8z"/>
<path style="opacity:0.2;enable-background:new    ;" d="M171.371,294.701c-3.737-11.109-15.771-17.085-26.882-13.345  c-14.522,4.886-28.607,3.69-38.599-3.062c-0.023,1.107-0.042,2.211-0.042,3.306c0,15.274,2.26,30.021,6.446,43.936  c4.806,0.837,9.741,1.264,14.761,1.264c10.115,0,20.57-1.717,30.971-5.217C169.134,317.845,175.109,305.81,171.371,294.701z"/>
<circle style="fill:#0081C6;" cx="392.277" cy="143.343" r="48.741"/>
<circle style="fill:#F3C74F;" cx="392.277" cy="143.343" r="22.756"/>
<circle style="fill:#0081C6;" cx="157.159" cy="143.343" r="48.741"/>
<circle style="fill:#F3C74F;" cx="157.159" cy="143.343" r="22.756"/>
<path style="opacity:0.2;enable-background:new    ;" d="M185.968,104.036c-22.916,20.712-42.354,49.223-56.161,79.655  c7.798,5.296,17.21,8.392,27.348,8.392c26.919,0,48.741-21.822,48.741-48.741C205.896,127.205,198.049,112.907,185.968,104.036z"/>
<path style="fill:#40BAB3;" d="M427.862,277.002c0-84.331-70.305-205.819-153.148-205.819S121.566,192.672,121.566,277.002  s68.567,152.695,153.148,152.695S427.862,361.333,427.862,277.002z"/>
<g>
	<path style="fill:#F0B0B7;" d="M198.164,259.305h-25.567c-4.395,0-7.958-3.563-7.958-7.958c0-4.395,3.563-7.958,7.958-7.958h25.567   c4.395,0,7.958,3.563,7.958,7.958C206.123,255.742,202.56,259.305,198.164,259.305z"/>
	<path style="fill:#F0B0B7;" d="M376.831,259.305h-25.567c-4.396,0-7.958-3.563-7.958-7.958c0-4.395,3.562-7.958,7.958-7.958h25.567   c4.396,0,7.958,3.563,7.958,7.958C384.789,255.742,381.227,259.305,376.831,259.305z"/>
</g>
<path style="fill:#FFFFFF;" d="M124.146,305.007c13.193,70.954,75.582,124.69,150.568,124.69s137.376-53.736,150.568-124.69H124.146  z"/>
<path style="fill:#0081C6;" d="M151.257,367.351c27.874,37.805,72.787,62.345,123.457,62.345s95.584-24.54,123.457-62.345H151.257z"/>
<path style="opacity:0.2;enable-background:new    ;" d="M290.954,413.457c-84.581,0-153.148-68.363-153.148-152.695  c0-50.77,25.488-114.996,63.846-158.084c-47.24,41.701-80.085,116.687-80.085,174.323c0,84.331,68.567,152.695,153.148,152.695  c46.504,0,88.161-20.67,116.248-53.292C364.129,399.492,329.178,413.457,290.954,413.457z"/>
<path style="fill:#394049;" d="M335.953,7.958H213.475c-7.533,0-13.639,6.107-13.639,13.639v73.003h149.758V21.598  C349.593,14.065,343.487,7.958,335.953,7.958z"/>
<rect x="199.837" y="62.312" style="fill:#E6595A;" width="149.752" height="32.289"/>
<path style="fill:#394049;" d="M375.826,114.409H173.602c-5.47,0-9.904-4.434-9.904-9.904l0,0c0-5.47,4.434-9.904,9.904-9.904  h202.224c5.47,0,9.904,4.434,9.904,9.904l0,0C385.73,109.975,381.296,114.409,375.826,114.409z"/>
<path style="fill:#A0C6E6;" d="M364.048,299.651c0,13.262-10.987,23.956-24.353,23.482c-12.732-0.453-22.64-11.304-22.64-24.044  v-20.671c0-2.448,1.984-4.433,4.433-4.433h38.128c2.448,0,4.433,1.984,4.433,4.433v21.234H364.048z"/>
<path style="fill:#892641;" d="M364.048,299.651c0,13.262-10.987,23.956-24.353,23.482c-12.732-0.453-22.64-11.304-22.64-24.044  L364.048,299.651z"/>
<path style="opacity:0.2;fill:#FFFFFF;enable-background:new    ;" d="M359.616,273.983H348.84  c-3.252,3.263-5.263,7.763-5.263,12.733c0,9.963,8.076,18.039,18.039,18.039c0.641,0,1.272-0.036,1.895-0.101  c0.35-1.613,0.538-3.286,0.538-5.003v-21.235C364.048,275.969,362.063,273.983,359.616,273.983z"/>
<path style="fill:#F3C74F;" d="M405.192,402.729c-23.953,0-49.312-11.719-69.191-32.298c-8.143-8.429-7.91-21.864,0.519-30.008  c8.427-8.142,21.862-7.913,30.008,0.519c15.283,15.821,32.028,20.222,41.731,19.182c2.437-0.261,6.787-1.122,8.54-3.952  c6.172-9.964,19.255-13.037,29.217-6.863c9.964,6.172,13.037,19.254,6.864,29.217c-8.346,13.471-22.587,21.923-40.1,23.799  C410.272,402.597,407.739,402.729,405.192,402.729z"/>
<path style="opacity:0.2;enable-background:new    ;" d="M213.322,87.173c-2.868,0-5.193-2.325-5.193-5.193V14.17  c0-1.984,0.433-3.863,1.195-5.563c-5.502,1.757-9.488,6.907-9.488,12.991v73.003h149.758v-7.428  C349.593,87.173,213.322,87.173,213.322,87.173z"/>
<path d="M364.049,225.998c4.396,0,7.958-3.563,7.958-7.958v-4.192c0-4.395-3.562-7.958-7.958-7.958s-7.958,3.563-7.958,7.958v4.192  C356.091,222.434,359.653,225.998,364.049,225.998z M464.295,317.561c-5.939-14.241-15.998-26.287-28.597-34.408  c0.077-2.046,0.122-4.096,0.122-6.151c0-26.04-6.42-55.173-17.528-83.273c18.637-9.616,30.682-28.942,30.682-50.386  c0-31.264-25.436-56.7-56.7-56.7c-3.564,0-7.115,0.346-10.596,1.005c-1.837-0.64-3.8-1.005-5.852-1.005h-18.275V21.598  C357.552,9.689,347.863,0,335.953,0H213.475c-11.909,0-21.598,9.689-21.598,21.598v65.045h-18.275c-2.051,0-4.015,0.365-5.852,1.005  c-3.481-0.658-7.032-1.005-10.596-1.005c-31.264,0-56.7,25.436-56.7,56.7c0,21.438,12.037,40.76,30.666,50.378  c-10.619,26.865-16.928,54.671-17.457,79.856c-2.125-0.997-4.061-2.235-5.737-3.724c-8.576-7.62-8.474-18.29-6.878-25.899  c1.6-7.628,0.133-15.423-4.131-21.949c-4.263-6.525-10.812-10.999-18.44-12.598c-2.712-0.569-5.444-0.742-8.134-0.548v-5.486  c0-4.395-3.563-7.958-7.958-7.958s-7.958,3.563-7.958,7.958v11.679c-5.381,4.227-9.076,10.148-10.497,16.926  c-6.54,31.186,2.895,61.654,25.233,81.502c14.807,13.158,34.322,20.627,55.198,21.221c14.112,36.442,41.18,66.505,75.546,84.549  v63.57c0,16.089,13.09,29.18,29.18,29.18s29.18-13.091,29.18-29.18v-45.995c5.408,0.55,10.895,0.831,16.447,0.831  c5.509,0,10.998-0.291,16.447-0.851v46.015c0,16.089,13.091,29.18,29.18,29.18s29.18-13.091,29.18-29.18v-63.55  c8.123-4.24,15.896-9.178,23.218-14.778c10.665,4.053,21.644,6.197,32.453,6.197c2.833,0,5.672-0.151,8.436-0.447  c20.007-2.143,36.35-11.917,46.018-27.522c0.02-0.032,0.038-0.063,0.058-0.096C471.738,363.129,473.413,339.421,464.295,317.561z   M79.736,301.58c-18.018-16.01-25.58-40.809-20.228-66.338c0.728-3.468,2.761-6.445,5.728-8.383  c2.966-1.939,6.507-2.605,9.975-1.877c3.468,0.727,6.445,2.761,8.383,5.727s2.604,6.509,1.877,9.976  c-3.476,16.582,0.745,31.165,11.884,41.064c4.694,4.171,10.433,7.193,16.842,8.906c0.807,9.524,2.452,18.813,4.86,27.796  C104.05,316.959,90.552,311.193,79.736,301.58z M393.688,104.505c0-0.646-0.039-1.284-0.106-1.913  c21.884,0.695,39.475,18.701,39.475,40.75c0,15.031-8.227,28.615-21.049,35.7c-1.406-3.056-2.869-6.088-4.38-9.096  c9.279-5.363,15.36-15.385,15.36-26.604c0-16.936-13.777-30.714-30.713-30.714c-0.19,0-0.378,0.014-0.568,0.017  C392.965,110.201,393.688,107.439,393.688,104.505z M392.274,128.544c8.159,0,14.797,6.638,14.797,14.798  c0,5.235-2.748,9.924-6.978,12.562c-4.959-8.643-10.338-16.968-16.081-24.829C386.424,129.453,389.29,128.544,392.274,128.544z   M207.794,21.598c0-3.132,2.549-5.681,5.681-5.681h122.478c3.132,0,5.681,2.549,5.681,5.681v65.045h-133.84V21.598z   M173.602,102.559h202.224c1.074,0,1.946,0.873,1.946,1.946s-0.872,1.945-1.946,1.945H173.602c-1.073,0-1.946-0.872-1.946-1.945  S172.529,102.559,173.602,102.559z M116.372,143.342c0-22.05,17.591-40.055,39.474-40.75c-0.067,0.629-0.106,1.266-0.106,1.913  c0,2.933,0.724,5.696,1.982,8.14c-0.189-0.003-0.377-0.017-0.567-0.017c-16.936,0-30.714,13.778-30.714,30.714  c0,11.215,6.076,21.233,15.348,26.597c-1.512,3.007-2.973,6.041-4.379,9.097C124.593,171.951,116.372,158.371,116.372,143.342z   M165.413,131.075c-5.745,7.861-11.13,16.182-16.089,24.822c-4.223-2.639-6.967-7.324-6.967-12.555  c0-8.16,6.638-14.798,14.798-14.798C160.137,128.544,163.002,129.453,165.413,131.075z M242.351,482.82  c0,7.313-5.95,13.264-13.264,13.264c-7.314,0-13.264-5.951-13.264-13.264v-56.278c8.514,3.346,17.381,5.99,26.527,7.856V482.82z   M333.605,482.82c0,7.313-5.95,13.264-13.264,13.264s-13.264-5.951-13.264-13.264v-48.463c9.059-1.857,17.936-4.485,26.527-7.847  V482.82z M274.714,421.739c-79.758,0-144.692-64.445-145.178-143.842c12.703-6.033,21.358-25.908,28.538-42.412  c2.285-5.25,5.414-12.441,6.741-13.993l-0.074,0.079l-11.254-11.254c-3.077,3.077-5.547,8.568-10.007,18.819  c-3.599,8.271-7.677,17.646-12.241,24.924c-0.029,0.045-0.054,0.083-0.082,0.127c6.211-45.649,29.82-96.711,61.863-131.818h163.385  c37.498,41.085,63.499,104.161,63.499,154.635c0,26.426-7.153,52.092-20.723,74.557c-7.319-1.605-17.209-6.083-26.93-16.145  c-4.478-4.634-10.131-7.458-16.044-8.468c2.216-1.278,4.292-2.834,6.184-4.659c6.2-5.982,9.615-14.021,9.615-22.635v-21.235  c0-6.832-5.558-12.391-12.391-12.391h-38.128c-6.832,0-12.391,5.559-12.391,12.391v20.671c0,14.658,10.055,27.315,23.497,30.957  v3.23c-0.545,0.455-1.083,0.925-1.602,1.426c-11.571,11.179-11.892,29.687-0.714,41.261c7.996,8.278,16.834,15.23,26.144,20.688  C332.46,412.901,303.887,421.739,274.714,421.739z M356.091,281.942v17.71c0,4.255-1.687,8.227-4.751,11.183  c-3.06,2.954-7.098,4.495-11.363,4.345c-8.251-0.293-14.965-7.513-14.965-16.092v-17.146H356.091z M446.119,374.327h0.001  c-0.017,0.025-0.032,0.051-0.048,0.077c-7.031,11.299-19.153,18.405-34.142,20.01c-2.204,0.237-4.471,0.355-6.74,0.355  c-21.998,0-45.131-10.887-63.467-29.868c-5.082-5.261-4.935-13.674,0.325-18.755c5.26-5.082,13.674-4.934,18.755,0.325  c17.261,17.867,36.275,22.853,48.303,21.567c6.801-0.729,11.799-3.383,14.457-7.674c0.018-0.029,0.036-0.058,0.054-0.088  c6.338-10.311,3.844-20.571,1.65-26.012c4.015-10.495,6.9-21.395,8.63-32.536c6.714,5.959,12.206,13.562,15.707,21.958  C456.734,340.781,455.464,359.237,446.119,374.327z M304.718,220.862c-4.396,0-7.958,3.563-7.958,7.958  c0,3.884-3.16,7.044-7.044,7.044c-3.884,0-7.044-3.16-7.044-7.044c0-4.395-3.562-7.958-7.958-7.958s-7.958,3.563-7.958,7.958  c0,3.884-3.16,7.044-7.044,7.044c-3.884,0-7.042-3.16-7.042-7.044c0-4.395-3.563-7.958-7.958-7.958  c-4.395,0-7.958,3.563-7.958,7.958c0,12.66,10.299,22.96,22.959,22.96c5.729,0,10.975-2.109,15.002-5.592  c4.027,3.483,9.272,5.592,15.002,5.592c12.66,0,22.96-10.3,22.96-22.96C312.676,224.425,309.113,220.862,304.718,220.862z   M287.728,216.508h13.75c6.251,0,12.261,2.639,16.489,7.242c1.568,1.707,3.712,2.573,5.861,2.573c1.925,0,3.854-0.694,5.382-2.098  c3.237-2.974,3.45-8.008,0.475-11.244c-7.235-7.873-17.517-12.388-28.209-12.388h-13.75c-4.396,0-7.958,3.563-7.958,7.958  C279.769,212.946,283.332,216.508,287.728,216.508z M185.38,205.889c-4.395,0-7.958,3.563-7.958,7.958v4.192  c0,4.395,3.563,7.958,7.958,7.958c4.395,0,7.958-3.563,7.958-7.958v-4.192C193.339,209.452,189.775,205.889,185.38,205.889z   M261.7,216.508c4.396,0,7.958-3.563,7.958-7.958c0-4.395-3.562-7.958-7.958-7.958h-13.75c-10.693,0-20.974,4.515-28.209,12.388  c-2.974,3.236-2.761,8.271,0.475,11.244c1.529,1.405,3.458,2.098,5.383,2.098c2.15,0,4.292-0.866,5.861-2.573  c4.228-4.602,10.239-7.242,16.489-7.242h13.75V216.508z"/>
<path style="fill:#60523F;" d="M185.38,250.167c-18.872,0-34.225-15.353-34.225-34.225s15.353-34.225,34.225-34.225  s34.225,15.353,34.225,34.225S204.252,250.167,185.38,250.167z M185.38,197.634c-10.095,0-18.308,8.213-18.308,18.308  s8.213,18.308,18.308,18.308c10.095,0,18.308-8.213,18.308-18.308S195.476,197.634,185.38,197.634z"/>
<g>
</g>
<g>
</g>
<g>
</g>
<g>
</g>
<g>
</g>
<g>
</g>
<g>
</g>
<g>
</g>
<g>
</g>
<g>
</g>
<g>
</g>
<g>
</g>
<g>
</g>
<g>
</g>
<g>
</g>
</svg>
