<?xml version="1.0" encoding="iso-8859-1"?>
<!-- Generator: Adobe Illustrator 19.0.0, SVG Export Plug-In . SVG Version: 6.00 Build 0)  -->
<svg xmlns="http://www.w3.org/2000/svg" xmlns:xlink="http://www.w3.org/1999/xlink" version="1.1" id="Capa_1" x="0px" y="0px" viewBox="0 0 512.002 512.002" style="enable-background:new 0 0 512.002 512.002;" xml:space="preserve">
<path style="fill:#F3C74F;" d="M112.162,408.563c-5.016,0-9.995-2.139-13.464-6.288c-10.7-12.795-14.19-31.963-8.89-48.831  c5.811-18.498,20.541-31.819,41.477-37.512c9.345-2.542,18.985,2.975,21.527,12.324c2.541,9.347-2.975,18.985-12.324,21.527  c-9.128,2.482-15.081,7.384-17.215,14.176c-1.952,6.215-0.303,12.659,2.334,15.812c6.215,7.431,5.228,18.492-2.203,24.707  C120.123,407.223,116.13,408.563,112.162,408.563z"/>
<path style="opacity:0.2;enable-background:new    ;" d="M152.811,328.255c-2.542-9.347-12.183-14.865-21.527-12.324  c-7.658,2.082-14.474,5.195-20.339,9.199c0.141,1.95,0.315,3.879,0.537,5.777c1.608,13.755,5.386,26.728,10.94,38.631  c0.006-1.818,0.263-3.709,0.851-5.581c2.133-6.792,8.087-11.694,17.215-14.176C149.835,347.24,155.353,337.603,152.811,328.255z"/>
<path style="fill:#F3C74F;" d="M283.164,503.996c-9.687,0-17.539-7.853-17.539-17.539v-66.418c0-9.687,7.853-17.54,17.539-17.54  c9.687,0,17.539,7.853,17.539,17.54v66.418C300.703,496.144,292.852,503.996,283.164,503.996z"/>
<path style="opacity:0.2;enable-background:new    ;" d="M283.164,402.498c-9.687,0-17.539,7.853-17.539,17.54v36.786  c12.385-1.978,24.17-5.743,35.079-11.028v-25.757C300.703,410.351,292.852,402.498,283.164,402.498z"/>
<path style="fill:#F3C74F;" d="M207.744,503.996c-9.687,0-17.539-7.853-17.539-17.539v-66.418c0-9.687,7.853-17.54,17.539-17.54  c9.687,0,17.539,7.853,17.539,17.54v66.418C225.283,496.144,217.43,503.996,207.744,503.996z"/>
<path style="opacity:0.2;enable-background:new    ;" d="M207.744,402.498c-9.687,0-17.539,7.853-17.539,17.54v25.757  c10.909,5.286,22.694,9.05,35.079,11.028v-36.786C225.283,410.351,217.43,402.498,207.744,402.498z"/>
<circle style="fill:#0081C6;" cx="331.668" cy="195.2" r="40.284"/>
<circle style="fill:#F3C74F;" cx="331.668" cy="195.2" r="18.808"/>
<circle style="fill:#0081C6;" cx="138.667" cy="217.772" r="40.284"/>
<circle style="fill:#F3C74F;" cx="138.667" cy="217.772" r="18.808"/>
<path style="opacity:0.2;enable-background:new    ;" d="M158.545,182.738c-16.823,19.203-30.041,44.474-38.453,70.781  c6.909,3.599,14.934,5.237,23.254,4.264c22.097-2.585,37.916-22.594,35.331-44.691C177.129,199.843,169.314,188.859,158.545,182.738  z"/>
<path style="fill:#F3C74F;" d="M354.698,347.382c-9.687,0-17.54-7.853-17.54-17.54c0-9.687,7.853-17.539,17.54-17.539  c19.725,0,33.01-9.214,34.672-24.045c2.26-20.177-16.676-33.898-35.227-38.108c-9.446-2.144-15.367-11.539-13.223-20.986  c2.144-9.446,11.537-15.369,20.986-13.223c20.58,4.67,37.409,14.809,48.669,29.321c10.655,13.733,15.505,30.391,13.654,46.903  C421.151,319.649,398.456,347.382,354.698,347.382z"/>
<path style="fill:#40BAB3;" d="M373.721,301.497c-8.097-69.226-77.476-162.204-145.48-154.25  c-68.005,7.954-114.052,114.434-105.954,183.661c8.097,69.226,70.948,118.761,140.38,110.64  C332.099,433.426,381.82,370.723,373.721,301.497z"/>
<g>
	<path style="fill:#F0B0B7;" d="M161.704,312.953c-4.005,0-7.463-3-7.94-7.075c-0.513-4.391,2.63-8.366,7.02-8.881l20.987-2.455   c4.398-0.51,8.367,2.63,8.881,7.02c0.514,4.391-2.63,8.366-7.02,8.881l-20.987,2.455   C162.328,312.935,162.014,312.953,161.704,312.953z"/>
	<path style="fill:#F0B0B7;" d="M308.37,295.797c-4.005,0-7.463-3-7.94-7.075c-0.513-4.391,2.63-8.366,7.02-8.881l20.987-2.455   c4.397-0.514,8.367,2.63,8.881,7.02c0.514,4.391-2.63,8.366-7.02,8.881l-20.987,2.455   C308.995,295.779,308.681,295.797,308.37,295.797z"/>
</g>
<path style="fill:#FFFFFF;" d="M127.094,353.649c17.643,56.979,74.018,95.099,135.573,87.899s107.611-57.302,111.627-116.815  L127.094,353.649z"/>
<path style="fill:#0081C6;" d="M155.335,402.224c26.512,28.357,65.737,44.189,107.331,39.324s76.107-29.323,95.359-63.033  L155.335,402.224z"/>
<path style="opacity:0.2;enable-background:new    ;" d="M274.438,426.657c-69.432,8.122-132.281-41.414-140.38-110.64  c-4.875-41.676,9.881-96.846,37.231-135.9c-34.774,38.768-54.537,103.476-49.003,150.791  c8.097,69.226,70.948,118.761,140.38,110.641c38.174-4.465,70.385-25.434,90.31-54.91  C333.167,408.167,305.817,422.987,274.438,426.657z"/>
<path style="fill:#F3C74F;" d="M135.683,419.684c-14.363,0-27.554-6.13-36.986-17.409c-6.215-7.431-5.228-18.493,2.203-24.707  c7.431-6.215,18.493-5.227,24.707,2.203c3.286,3.931,7.258,5.411,12.497,4.654c11.031-1.589,26.445-13.041,36.015-35.043  c3.863-8.883,14.197-12.952,23.08-9.089c8.883,3.863,12.952,14.197,9.089,23.08c-13.358,30.711-37.567,52.082-63.18,55.772  C140.608,419.507,138.128,419.684,135.683,419.684z"/>
<path style="fill:#FFFFFF;" d="M255.991,8.004c-69.956,0-126.666,3.7-126.666,57.496c0,50.841,50.655,56.937,115.269,57.453  l9.081,15.317c1.041,1.756,3.582,1.756,4.623,0l9.081-15.317c64.618-0.517,115.277-6.611,115.277-57.453  C382.656,11.705,325.946,8.004,255.991,8.004z"/>
<path style="opacity:0.1;enable-background:new    ;" d="M256.259,135.215l-9.429-18.055c-64.614-0.517-111.96-6.156-111.96-56.998  c0-14.1,3.902-24.755,10.913-32.808c-10.472,8.493-16.457,20.675-16.457,38.145c0,50.841,50.655,56.937,115.269,57.453l9.081,15.317  c1.041,1.756,3.582,1.756,4.623,0l1.122-1.892C258.288,136.753,256.947,136.376,256.259,135.215z"/>
<g>
	<circle style="fill:#7E858B;" cx="255.99" cy="65.337" r="14.41"/>
	<circle style="fill:#7E858B;" cx="192.04" cy="65.337" r="14.41"/>
	<circle style="fill:#7E858B;" cx="319.939" cy="65.337" r="14.41"/>
</g>
<path d="M172.354,252.556c-0.544,0.574-1.729,1.539-3.546,1.539s-3.002-0.965-3.546-1.539c-3.038-3.21-8.105-3.35-11.316-0.309  c-3.21,3.04-3.349,8.105-0.309,11.316c2.263,2.39,5.061,4.17,8.107,5.272c-0.875,1.462-1.3,3.21-1.086,5.034l0.403,3.442  c0.477,4.075,3.936,7.074,7.94,7.074c0.311,0,0.624-0.018,0.94-0.054c4.391-0.513,7.534-4.49,7.019-8.881l-0.402-3.442  c-0.13-1.111-0.482-2.141-1.005-3.052c3.172-1.09,6.085-2.918,8.428-5.392c3.04-3.21,2.901-8.277-0.309-11.316  C180.46,249.206,175.393,249.346,172.354,252.556z M266.669,262.334c-4.391,0.513-7.534,4.49-7.02,8.881  c0.137,1.165-0.189,2.315-0.917,3.236c-0.728,0.92-1.771,1.503-2.936,1.639c-1.164,0.134-2.315-0.189-3.235-0.917  c-0.921-0.728-1.503-1.771-1.639-2.936c-0.513-4.391-4.481-7.533-8.881-7.02c-4.074,0.477-7.073,3.933-7.075,7.936  c-0.001,0.312,0.018,0.626,0.054,0.945c0.137,1.165-0.189,2.314-0.917,3.235c-0.728,0.92-1.771,1.503-2.937,1.639  c-1.163,0.136-2.315-0.189-3.235-0.917c-0.921-0.728-1.503-1.771-1.639-2.936c-0.513-4.391-4.482-7.535-8.88-7.02  c-4.391,0.513-7.534,4.489-7.02,8.88c0.633,5.413,3.336,10.255,7.611,13.635c3.638,2.876,8.045,4.4,12.612,4.4  c0.8,0,1.605-0.047,2.411-0.141c4.514-0.528,8.632-2.495,11.836-5.615c3.719,2.218,8.168,3.276,12.793,2.734  c5.413-0.633,10.255-3.336,13.635-7.612c3.38-4.275,4.892-9.611,4.259-15.024C275.035,264.964,271.07,261.823,266.669,262.334z   M315.548,228.928c-0.544,0.575-1.729,1.539-3.546,1.539s-3.002-0.965-3.546-1.539c-3.038-3.21-8.105-3.35-11.316-0.309  c-3.21,3.04-3.349,8.105-0.31,11.316c3.936,4.158,9.465,6.542,15.171,6.542c5.706,0,11.235-2.384,15.171-6.542  c3.04-3.21,2.901-8.277-0.31-11.316C323.652,225.579,318.586,225.719,315.548,228.928z M416.899,240.354  c-9.866-12.714-23.53-22.348-39.971-28.324c2.644-7.117,3.598-14.823,2.707-22.445c-1.498-12.811-7.896-24.271-18.014-32.27  c-10.118-7.999-22.747-11.582-35.556-10.08c-10.723,1.254-20.667,6.098-28.27,13.579c-10.962-7.891-22.15-13.706-33.341-17.388  c0.26-0.34,0.509-0.695,0.732-1.072l6.782-11.441c29.084-0.356,58.517-2.054,80.146-10.337  c25.579-9.796,38.549-28.325,38.549-55.074c0-28.073-14.323-47.087-42.57-56.514C323.243,0.694,288.967,0,255.991,0  s-67.253,0.694-92.1,8.986c-28.247,9.426-42.57,28.44-42.57,56.514c0,26.747,12.968,45.277,38.546,55.073  c21.628,8.284,51.06,9.982,80.141,10.338l4.905,8.272c-5.914-0.597-11.792-0.567-17.6,0.113  c-23.103,2.702-44.91,15.612-63.616,37.199c-9.124-5.523-19.916-7.941-30.639-6.686c-26.445,3.093-45.445,27.125-42.351,53.572  c2.069,17.696,13.639,32.553,29.726,39.108c-4.583,17.669-7.041,35.436-7.059,51.906c-15.413,8.036-26.16,20.604-31.202,36.65  c-6.097,19.406-2.02,41.531,10.386,56.366c10.936,13.077,26.252,20.279,43.126,20.279c2.83,0,5.712-0.208,8.567-0.62  c6.713-0.967,13.325-3.019,19.702-6.01c5.763,4.589,11.875,8.659,18.247,12.213v53.185c0,14.084,11.459,25.544,25.544,25.544  c14.086,0,25.544-11.459,25.544-25.544v-36.887c4.878,0.537,9.791,0.837,14.725,0.837c3.197,0,6.401-0.128,9.607-0.359v36.409  c0,14.084,11.459,25.544,25.545,25.544c14.086,0,25.545-11.459,25.545-25.544V435.93c33.477-16.944,58.476-47.267,68.742-83.137  c36.305-8.701,52.209-37.186,54.735-59.735C434.268,274.461,428.84,255.744,416.899,240.354z M327.924,163.133  c8.564-1.002,17.004,1.392,23.769,6.739s11.041,13.008,12.043,21.571c0.65,5.56-0.168,11.186-2.318,16.293  c-2.019-0.268-4.036-0.293-6.017-0.091c2.444-4.644,3.552-10.025,2.904-15.567c-1.717-14.684-15.056-25.225-29.745-23.515  c-5.24,0.613-10.096,2.757-14.043,6.045c-1.356-1.268-2.72-2.494-4.087-3.697C315.305,166.652,321.397,163.896,327.924,163.133z   M339.533,202.616c-3.216-4.281-6.568-8.437-10.045-12.438c-1.204-1.385-2.416-2.735-3.633-4.068  c1.362-0.872,2.913-1.453,4.563-1.646c5.916-0.686,11.294,3.557,11.985,9.474C342.787,197.214,341.663,200.357,339.533,202.616z   M244.658,114.949c-69.608-0.556-107.329-8.602-107.329-49.449c0-42.086,38.263-49.492,118.662-49.492S374.653,23.414,374.653,65.5  c0,20.263-8.717,32.639-28.265,40.124c-20.375,7.803-50.045,9.093-79.071,9.325c-2.804,0.022-5.392,1.51-6.822,3.922l-4.507,7.603  l-4.508-7.603C250.048,116.459,247.461,114.972,244.658,114.949z M106.606,221.521c-2.068-17.679,10.632-33.744,28.31-35.812  c6.524-0.762,13.087,0.511,18.813,3.529c-1.051,1.486-2.093,2.996-3.118,4.541c-4.598-2.288-9.817-3.253-15.059-2.64  c-14.684,1.718-25.233,15.062-23.515,29.745c1.082,9.251,6.83,16.987,14.776,20.915c-0.62,1.735-1.216,3.476-1.796,5.222  C115.03,242.362,107.926,232.809,106.606,221.521z M142.232,207.59c-0.876,1.577-1.744,3.171-2.596,4.796  c-2.459,4.694-4.742,9.521-6.883,14.427c-2.604-1.708-4.434-4.513-4.818-7.787c-0.692-5.917,3.558-11.294,9.475-11.985  C139.062,206.848,140.705,207.055,142.232,207.59z M141.967,411.224c-2.1,0.303-4.215,0.456-6.284,0.456  c-12.049,0-23.005-5.163-30.846-14.54c-8.995-10.756-11.898-26.965-7.394-41.297c2.999-9.544,8.796-17.459,16.979-23.348  c0.924,7.584,2.46,14.982,4.597,22.167c-1.469,2.122-2.606,4.425-3.383,6.898c-2.961,9.425-0.209,18.517,3.83,23.347  c5.099,6.097,11.753,8.6,19.78,7.442c12.261-1.766,30.674-13.243,42.213-39.773c2.097-4.822,7.726-7.036,12.547-4.94  c2.335,1.016,4.137,2.881,5.069,5.251s0.887,4.961-0.128,7.297C186.688,388.368,164.854,407.926,141.967,411.224z M217.279,486.456  c0,5.257-4.278,9.535-9.535,9.535c-5.257,0-9.535-4.278-9.535-9.535v-45.576c6.199,2.457,12.579,4.426,19.071,5.944v39.632H217.279z   M292.7,486.456c0,5.257-4.278,9.535-9.536,9.535s-9.536-4.278-9.536-9.535v-38.517c6.558-1.268,12.922-3.011,19.071-5.173v43.69  H292.7z M261.737,433.598c-29.444,3.443-59.136-4.335-83.033-21.456c14.328-10.742,26.627-26.498,34.925-45.575  c2.721-6.256,2.844-13.199,0.344-19.548c-2.501-6.348-7.322-11.343-13.58-14.065c-12.917-5.615-27.994,0.321-33.612,13.236  c-6.678,15.353-15.593,23.618-22.452,27.507c-7.536-13.48-12.271-28.156-14.092-43.719c-3.843-32.854,5.192-75.066,23.579-110.164  c19.792-37.778,47.258-61.331,75.355-64.618c28.093-3.292,60.257,13.292,88.234,45.482c25.991,29.906,44.523,68.893,48.367,101.747  C373.344,367.158,326.674,426.002,261.737,433.598z M374.72,269.718c4.595,4.688,7.482,10.611,6.695,17.648  c-0.176,1.57-0.534,3.038-1.068,4.405C379.036,284.573,377.133,277.181,374.72,269.718z M416.276,291.273  c-1.838,16.403-12.107,35.264-35.022,43.69c1.025-7.194,1.461-14.546,1.283-21.997c8.468-5.525,13.667-13.811,14.788-23.817  c2.114-18.874-10.496-35.872-32.343-44.069c-3.26-6.984-6.905-13.915-10.917-20.686c1.862-0.852,3.981-1.121,6.07-0.647  c18.751,4.255,34.006,13.392,44.116,26.421C413.623,262.246,417.893,276.843,416.276,291.273z M323.223,254.851  c-0.514-4.391-4.479-7.531-8.881-7.019c-4.391,0.513-7.534,4.49-7.019,8.881l0.403,3.442c0.477,4.075,3.936,7.074,7.94,7.074  c0.311,0,0.624-0.018,0.94-0.054c4.391-0.513,7.534-4.49,7.019-8.881L323.223,254.851z"/>
<g>
</g>
<g>
</g>
<g>
</g>
<g>
</g>
<g>
</g>
<g>
</g>
<g>
</g>
<g>
</g>
<g>
</g>
<g>
</g>
<g>
</g>
<g>
</g>
<g>
</g>
<g>
</g>
<g>
</g>
</svg>
