<?xml version="1.0" encoding="iso-8859-1"?>
<!-- Generator: Adobe Illustrator 19.0.0, SVG Export Plug-In . SVG Version: 6.00 Build 0)  -->
<svg xmlns="http://www.w3.org/2000/svg" xmlns:xlink="http://www.w3.org/1999/xlink" version="1.1" id="Capa_1" x="0px" y="0px" viewBox="0 0 512.005 512.005" style="enable-background:new 0 0 512.005 512.005;" xml:space="preserve">
<path style="fill:#F0C419;" d="M439.175,238.879c-3.354-13.859-7.503-28.072-12.359-42.372c-1.236-3.531-2.472-7.15-3.796-10.681  h-0.088c-4.502-12.712-9.622-25.335-15.183-37.782c-9.092,6.003-17.302,10.946-24.717,15.183c-0.088,0.088-0.088,0.088-0.177,0.088  c-0.168,0.194-0.38,0.344-0.618,0.441c-0.177,0.088-0.353,0.265-0.618,0.441c-26.836,18.097-73.004,30.014-125.617,30.014  s-98.781-11.917-125.617-30.014c-0.265-0.177-0.441-0.353-0.618-0.441c-0.238-0.097-0.45-0.247-0.618-0.441  c-0.088,0-0.088,0-0.177-0.088c-7.415-4.237-15.537-9.181-24.629-15.183c-0.971,2.03-1.942,4.149-2.825,6.179  c-4.502,10.328-8.651,20.833-12.447,31.338c-1.412,3.619-2.648,7.327-3.884,10.946c-4.855,14.301-9.004,28.513-12.359,42.372  c-6.753,25.785-10.461,52.277-11.035,78.919c0,107.255,86.952,194.207,194.207,194.207s194.207-86.952,194.207-194.207  C449.635,291.156,445.937,264.664,439.175,238.879z"/>
<path style="fill:#7F6E5D;" d="M509.001,123.591c-9.092-26.483-27.366-70.621-91.189-26.483  c-9.799,6.797-18.714,12.447-26.748,17.302c-2.825,1.677-5.473,3.178-8.033,4.679c-0.088,0.088-0.088,0.088-0.177,0.088  c-0.168,0.194-0.38,0.344-0.618,0.441c-0.177,0.088-0.353,0.265-0.618,0.441l-0.088-0.088l-19.685-37.694l-28.778-55.084  c-2.481-10.726-9.869-19.659-19.95-24.099c-1.598-0.715-3.249-1.306-4.943-1.766c-0.177-0.088-0.441-0.088-0.618-0.177  c-1.359-0.362-2.745-0.627-4.149-0.794c-1.58-0.23-3.169-0.353-4.767-0.353h-0.971c-0.15-0.018-0.309,0.018-0.441,0.088h-0.53  c-0.3-0.018-0.591,0.009-0.883,0.088c-0.238-0.018-0.477,0.018-0.706,0.088c-0.503,0.044-1.006,0.132-1.501,0.265  c-1.598,0.335-3.16,0.812-4.679,1.412c-0.777,0.265-1.518,0.618-2.207,1.059c-1.448,0.715-2.79,1.642-3.972,2.737  c-0.653,0.459-1.245,0.989-1.766,1.589c-0.574,0.547-1.112,1.13-1.589,1.766c-0.124,0.221-0.274,0.424-0.441,0.618  c-0.221,0.159-0.406,0.371-0.53,0.618c-0.777,1.024-1.457,2.119-2.03,3.266c0,0.088-0.088,0.177-0.088,0.265  c-0.265,0.618-0.53,1.148-0.794,1.766c-0.609,1.386-1.059,2.834-1.324,4.326c-0.15,0.583-0.274,1.174-0.353,1.766v0.265  c0,0.53-0.088,0.971-0.088,1.501c-0.071,0.503-0.097,1.006-0.088,1.501v19.156c-0.062,9.799-8.051,17.69-17.849,17.629  c-0.468,0-0.927-0.026-1.395-0.062h-0.177c-1.139-0.097-2.269-0.335-3.354-0.706h-0.088c-0.998-0.335-1.977-0.75-2.913-1.236  c-5.853-3.01-9.525-9.039-9.534-15.625V24.987c-0.018-13.789-11.193-24.964-24.982-24.982  c-16.384,0.009-30.623,11.255-34.428,27.189l-28.778,55.084l-19.686,37.694l-0.088,0.088c-0.265-0.177-0.441-0.353-0.618-0.441  c-0.238-0.097-0.45-0.247-0.618-0.441c-0.088,0-0.088,0-0.177-0.088c-0.044,0-0.088-0.035-0.088-0.088l0,0  c-2.295-1.324-4.679-2.648-7.239-4.149c-0.221-0.168-0.459-0.318-0.706-0.441c-8.033-4.855-16.949-10.505-26.748-17.302  c-63.823-44.138-82.097,0-91.189,26.483c-3.558,14.38-3.531,29.414,0.088,43.785v0.088c6.886,31.073,26.836,65.236,67.531,70.886  l2.207,0.53c3.354-13.859,7.503-28.072,12.359-42.372c1.236-3.619,2.472-7.327,3.884-10.946c3.796-10.505,7.945-21.01,12.447-31.338  c0.883-2.03,1.854-4.149,2.825-6.179c9.092,6.003,17.214,10.946,24.629,15.183c0.088,0.088,0.088,0.088,0.177,0.088  c0.168,0.194,0.38,0.344,0.618,0.441c0.177,0.088,0.353,0.265,0.618,0.441c26.836,18.097,73.004,30.014,125.617,30.014  s98.781-11.917,125.617-30.014c0.265-0.177,0.441-0.353,0.618-0.441c0.238-0.097,0.45-0.247,0.618-0.441  c0.088,0,0.088,0,0.177-0.088c7.415-4.237,15.625-9.181,24.717-15.183c5.561,12.447,10.681,25.07,15.183,37.782h0.088  c1.324,3.531,2.56,7.15,3.796,10.681c4.855,14.301,9.004,28.513,12.359,42.372l2.207-0.53c40.695-5.65,60.646-39.812,67.531-70.886  v-0.088C512.532,153.013,512.558,137.98,509.001,123.591z"/>
<path style="fill:#B19046;" d="M361.845,82.278c-33.624,13.497-69.623,20.074-105.843,19.332  c-36.22,0.742-72.218-5.835-105.843-19.332l28.778-55.084c3.805-15.934,18.044-27.18,34.428-27.189  c13.789,0.018,24.964,11.193,24.982,24.982v19.156c0.009,6.585,3.681,12.606,9.534,15.625c0.936,0.486,1.916,0.9,2.913,1.236h0.088  c1.086,0.371,2.216,0.609,3.354,0.706h0.177c9.763,0.83,18.353-6.409,19.182-16.172c0.035-0.459,0.062-0.927,0.062-1.395V24.987  c-0.018-0.503,0.018-1.006,0.088-1.501c0-0.53,0.088-0.971,0.088-1.501V21.72c0.079-0.591,0.203-1.183,0.353-1.766  c0.265-1.492,0.715-2.94,1.324-4.326c0.265-0.618,0.53-1.148,0.794-1.766c0-0.088,0.088-0.177,0.088-0.265  c0.574-1.148,1.254-2.242,2.03-3.266c0.124-0.247,0.309-0.459,0.53-0.618c0.168-0.194,0.318-0.397,0.441-0.618  c0.477-0.636,1.015-1.218,1.589-1.766c0.521-0.6,1.112-1.13,1.766-1.589c1.183-1.095,2.525-2.022,3.972-2.737  c0.689-0.441,1.43-0.794,2.207-1.059c1.518-0.6,3.081-1.077,4.679-1.412c0.494-0.132,0.997-0.221,1.501-0.265  c0.23-0.071,0.468-0.106,0.706-0.088c0.291-0.079,0.583-0.106,0.883-0.088h0.53c0.132-0.071,0.291-0.106,0.441-0.088h0.971  c1.598,0,3.187,0.115,4.767,0.353c1.404,0.168,2.79,0.433,4.149,0.794c0.177,0.088,0.441,0.088,0.618,0.177  c1.695,0.459,3.346,1.05,4.943,1.766c10.081,4.44,17.47,13.374,19.95,24.099L361.845,82.278z"/>
<path style="fill:#D75E72;" d="M381.619,120.06c-26.836,18.097-73.004,30.014-125.617,30.014s-98.781-11.917-125.617-30.014  l0.088-0.088l19.686-37.694c33.624,13.497,69.623,20.074,105.843,19.332c36.22,0.742,72.219-5.835,105.843-19.332l19.686,37.694  L381.619,120.06z"/>
<g>
	<path style="fill:#B19046;" d="M508.913,167.376v0.088c-6.886,31.073-26.836,65.236-67.531,70.886l-2.207,0.53   c-3.354-13.859-7.503-28.072-12.359-42.372c-1.236-3.531-2.472-7.15-3.796-10.681h-0.088c-4.502-12.712-9.622-25.335-15.183-37.782   c3.178-2.119,6.621-4.414,10.063-6.797C481.371,97.285,499.732,140.893,508.913,167.376z"/>
	<path style="fill:#B19046;" d="M104.344,148.043c-0.971,2.03-1.942,4.149-2.825,6.179c-4.502,10.328-8.651,20.833-12.447,31.338   c-1.412,3.619-2.648,7.327-3.884,10.946c-4.855,14.301-9.004,28.513-12.359,42.372l-2.207-0.53   c-40.695-5.65-60.646-39.812-67.531-70.886v-0.088c9.181-26.483,27.542-70.091,91.101-26.13   C97.724,143.629,101.078,145.924,104.344,148.043z"/>
</g>
<g>
	<path style="fill:#2C2F38;" d="M222.351,282.487c-2.03,0-3.999-0.697-5.57-1.986c-36.988-30.102-81.39-2.692-81.832-2.401   c-4.122,2.604-9.578,1.368-12.173-2.754c-2.604-4.122-1.368-9.578,2.754-12.173c19.076-12.05,65.024-26.774,102.4,3.646   c3.778,3.072,4.352,8.633,1.28,12.42C227.524,281.296,225.009,282.496,222.351,282.487z"/>
	<path style="fill:#2C2F38;" d="M386.977,363.083c-1.748,3.275-3.663,6.462-5.747,9.534c-0.353,0.53-0.794,1.059-1.148,1.501   c-6.444,9.225-14.23,17.434-23.093,24.364c-9.048,7.247-18.979,13.33-29.546,18.097c-1.501,0.706-3.01,1.412-4.511,2.03   c-44.05,19.279-94.287,18.538-137.737-2.03c-0.371-0.141-0.724-0.318-1.059-0.53c-10.143-4.696-19.703-10.567-28.487-17.479   c-9.754-7.662-18.202-16.843-25.035-27.189c-1.845-2.657-3.531-5.429-5.041-8.298c-6.1-11.652,8.757-23.57,23.27-18.361   c34.578,11.873,70.93,17.752,107.485,17.39c36.529,0.353,72.845-5.526,107.396-17.39   C378.22,339.513,393.165,351.431,386.977,363.083z"/>
</g>
<path style="fill:#FF5364;" d="M300.705,397.246c4.873,0,8.828,3.955,8.828,8.828v18.185c-0.291,29.255-24.249,52.727-53.495,52.436  c-28.734-0.291-52.003-23.437-52.436-52.171v-18.45c0-4.873,3.955-8.828,8.828-8.828H300.705z"/>
<path style="fill:#2FA8CC;" d="M341.1,253.709c13.409,10.478,15.793,29.846,5.314,43.255c-10.478,13.409-29.846,15.793-43.255,5.314  c-13.409-10.478-15.793-29.846-5.314-43.255c5.862-7.495,14.848-11.864,24.364-11.847c0.591-0.018,1.183,0.018,1.766,0.088"/>
<path style="fill:#2C3E50;" d="M370.761,273.668c-1.059,0-2.11-0.194-3.099-0.565l-70.621-26.483  c-4.573-1.686-6.921-6.762-5.235-11.335c1.686-4.573,6.762-6.921,11.335-5.235c0.035,0.009,0.062,0.026,0.097,0.035l70.621,26.483  c4.564,1.713,6.877,6.806,5.164,11.37C377.735,271.382,374.442,273.668,370.761,273.668z"/>
<g>
</g>
<g>
</g>
<g>
</g>
<g>
</g>
<g>
</g>
<g>
</g>
<g>
</g>
<g>
</g>
<g>
</g>
<g>
</g>
<g>
</g>
<g>
</g>
<g>
</g>
<g>
</g>
<g>
</g>
</svg>
