<?xml version="1.0" encoding="iso-8859-1"?>
<!-- Generator: Adobe Illustrator 19.0.0, SVG Export Plug-In . SVG Version: 6.00 Build 0)  -->
<svg xmlns="http://www.w3.org/2000/svg" xmlns:xlink="http://www.w3.org/1999/xlink" version="1.1" id="Capa_1" x="0px" y="0px" viewBox="0 0 512 512" style="enable-background:new 0 0 512 512;" xml:space="preserve">
<path style="fill:#F3C74F;" d="M300.928,474.759c-11.564,0-20.937-9.373-20.937-20.937v-79.284c0-11.564,9.374-20.937,20.937-20.937  c11.564,0,20.937,9.373,20.937,20.937v79.284C321.865,465.386,312.492,474.759,300.928,474.759z"/>
<path style="opacity:0.1;fill:#25292F;enable-background:new    ;" d="M300.928,353.601c-11.564,0-20.937,9.373-20.937,20.937  v68.016l13.477,8.308c8.532,5.259,19.301,5.259,27.832,0l0.566-0.349v-75.975C321.865,362.975,312.492,353.601,300.928,353.601z"/>
<path style="fill:#F3C74F;" d="M210.898,474.759c-11.564,0-20.937-9.373-20.937-20.937v-79.284c0-11.564,9.373-20.937,20.937-20.937  s20.937,9.373,20.937,20.937v79.284C231.836,465.386,222.462,474.759,210.898,474.759z"/>
<path style="opacity:0.1;fill:#25292F;enable-background:new    ;" d="M210.898,353.601c-11.564,0-20.937,9.373-20.937,20.937  v75.975l0.566,0.349c8.532,5.259,19.3,5.259,27.832,0l13.477-8.308V374.54C231.836,362.975,222.462,353.601,210.898,353.601z"/>
<circle style="fill:#0081C6;" cx="371.897" cy="118.896" r="48.087"/>
<circle style="fill:#F3C74F;" cx="371.897" cy="118.896" r="22.451"/>
<circle style="fill:#0081C6;" cx="139.933" cy="118.896" r="48.087"/>
<circle style="fill:#F3C74F;" cx="139.933" cy="118.896" r="22.451"/>
<path style="opacity:0.2;fill:#25292F;enable-background:new    ;" d="M158.09,74.373c-9.066,9.275-17.706,19.849-25.631,31.457  c-10.115,14.816-18.875,30.977-25.996,47.584c8.658,8.397,20.455,13.574,33.469,13.574c26.558,0,48.087-21.53,48.087-48.087  C188.019,98.771,175.644,81.539,158.09,74.373z"/>
<g>
	<path style="fill:#FFFFFF;" d="M486.598,189.868c-15.516-7.749-34.379-1.454-42.13,14.063   c-3.159,6.325-12.068,21.873-27.603,32.738c-3.326-40.358-20.352-86.801-46.111-124.533   c-15.008-21.983-32.562-40.305-50.768-52.988c-20.867-14.536-42.423-21.907-64.072-21.907c-21.65,0-43.206,7.37-64.072,21.907   c-18.206,12.683-35.761,31.005-50.768,52.988c-25.76,37.732-42.785,84.175-46.111,124.534   c-15.535-10.867-24.444-26.414-27.603-32.739c-7.803-15.621-26.867-21.897-42.443-13.904   c-15.459,7.934-21.228,27.198-13.382,42.703c10.313,20.38,24.923,38.201,42.29,51.575c12.056,9.284,25.307,16.259,39.24,20.744   c5.06,1.628,8.437,6.409,8.437,11.724v111.825c0,9.132,10.017,14.724,17.79,9.932l19.763-12.184c8.532-5.259,19.3-5.259,27.832,0   l23.639,14.572c8.532,5.259,19.3,5.259,27.832,0l23.638-14.572c8.532-5.259,19.3-5.259,27.832,0l23.639,14.572   c8.532,5.259,19.3,5.259,27.832,0l23.639-14.572c8.532-5.259,19.3-5.259,27.832,0l19.764,12.184c7.773,4.792,17.79-0.8,17.79-9.932   V316.772c0-5.315,3.378-10.094,8.437-11.724c13.933-4.484,27.185-11.46,39.24-20.744c17.575-13.534,32.327-31.621,42.658-52.307   C508.411,216.482,502.114,197.619,486.598,189.868z"/>
	<path style="opacity:0.25;fill:#FFFFFF;enable-background:new    ;" d="M67.358,203.931c-7.803-15.621-26.867-21.897-42.443-13.904   c-0.3,0.153-0.588,0.319-0.88,0.481c1.054,15.521,13.97,27.786,29.757,27.786c6.856,0,13.168-2.319,18.207-6.207   C69.88,208.757,68.34,205.898,67.358,203.931z"/>
</g>
<path style="opacity:0.1;fill:#25292F;enable-background:new    ;" d="M107.169,293.007c-54.788-12.66-84.742-66.087-93.357-93.297  c-6.574,9.372-7.794,22.122-2.278,33.02c10.313,20.38,24.923,38.201,42.29,51.575c12.056,9.284,25.307,16.259,39.24,20.744  c5.06,1.628,8.437,6.408,8.437,11.724v111.825c0,8.864,9.436,14.391,17.098,10.327V307.45  C118.601,300.566,113.875,294.556,107.169,293.007z"/>
<path style="opacity:0.05;enable-background:new    ;" d="M370.755,112.136c-15.008-21.983-32.562-40.305-50.768-52.988  c-7.829-5.454-15.754-9.898-23.746-13.324c-14.966,12.181-24.531,30.74-24.531,51.541c0,36.687,29.741,66.429,66.429,66.429  c19.884,0,37.716-8.748,49.89-22.592C382.841,131.136,377.062,121.374,370.755,112.136z"/>
<circle style="opacity:0.05;enable-background:new    ;" cx="365.149" cy="302.22" r="21.099"/>
<circle style="opacity:0.05;enable-background:new    ;" cx="190.083" cy="117.546" r="21.099"/>
<circle style="opacity:0.03;enable-background:new    ;" cx="213.23" cy="266.359" r="21.099"/>
<circle style="opacity:0.03;enable-background:new    ;" cx="240.608" cy="80.421" r="15.3"/>
<circle style="opacity:0.03;enable-background:new    ;" cx="320.815" cy="238.959" r="15.3"/>
<g>
	<path style="fill:#E6595A;" d="M180.39,233.489h-25.224c-4.437,0-8.033-3.597-8.033-8.033c0-4.437,3.597-8.033,8.033-8.033h25.224   c4.437,0,8.033,3.597,8.033,8.033C188.424,229.892,184.827,233.489,180.39,233.489z"/>
	<path style="fill:#E6595A;" d="M356.66,233.489h-25.223c-4.437,0-8.033-3.597-8.033-8.033c0-4.437,3.597-8.033,8.033-8.033h25.223   c4.437,0,8.033,3.597,8.033,8.033C364.694,229.892,361.097,233.489,356.66,233.489z"/>
</g>
<path style="opacity:0.25;fill:#FFFFFF;enable-background:new    ;" d="M486.598,189.868c-5.836-2.915-12.145-3.841-18.158-3.039  c-1.956,3.971-3.059,8.438-3.059,13.164c0,16.477,13.358,29.835,29.835,29.835c2.317,0,4.567-0.273,6.732-0.772  C507.589,214.17,501.146,197.136,486.598,189.868z"/>
<path d="M490.187,182.682c0,0,0-0.001-0.001-0.001c-19.454-9.717-43.188-1.793-52.905,17.661  c-2.006,4.017-6.671,12.356-14.255,20.383c-2.977-18.904-8.567-38.619-16.282-57.831c13.427-10.59,21.272-26.58,21.272-43.992  c0-30.945-25.176-56.121-56.121-56.121c-9.411,0-18.506,2.312-26.657,6.727c-6.72-6.371-13.639-12.059-20.66-16.951  c-22.24-15.493-45.341-23.349-68.664-23.349c-23.324,0-46.425,7.856-68.665,23.349c-7.021,4.891-13.94,10.578-20.66,16.951  c-8.151-4.414-17.246-6.727-26.657-6.727c-30.945,0-56.121,25.175-56.121,56.121c0,17.412,7.845,33.402,21.272,43.992  c-7.715,19.214-13.306,38.928-16.282,57.833c-7.583-8.028-12.248-16.366-14.256-20.384c-4.744-9.498-12.912-16.549-23.001-19.856  c-10.086-3.306-20.845-2.456-30.296,2.394c-19.233,9.872-26.806,33.861-16.881,53.476c10.847,21.439,26.256,40.22,44.557,54.314  c12.748,9.816,26.771,17.226,41.681,22.026c1.687,0.543,2.865,2.218,2.865,4.076v111.825c0,7.242,3.775,13.672,10.098,17.202  c6.322,3.529,13.778,3.369,19.941-0.432l19.765-12.184c5.983-3.688,13.417-3.688,19.4,0l19.256,11.87v8.769  c0,15.974,12.996,28.97,28.97,28.97c15.975,0,28.971-12.996,28.971-28.97v-16.728l6.344-3.911c5.983-3.688,13.417-3.688,19.4,0  l6.344,3.911v16.728c0,15.974,12.996,28.97,28.97,28.97c15.975,0,28.971-12.996,28.971-28.97v-8.769l19.256-11.87  c5.983-3.689,13.417-3.688,19.4,0l19.763,12.184c6.164,3.799,13.618,3.961,19.942,0.432c6.323-3.53,10.098-9.96,10.098-17.202  V316.772c0-1.857,1.178-3.533,2.865-4.077c14.909-4.799,28.932-12.209,41.68-22.026c18.532-14.271,34.074-33.318,44.944-55.082  C517.564,216.133,509.642,192.399,490.187,182.682z M371.895,78.847c22.086,0,40.054,17.968,40.054,40.054  c0,10.942-4.352,21.088-11.932,28.523c-1.452-3.099-2.956-6.175-4.515-9.221c4.426-5.387,6.878-12.141,6.878-19.302  c0-16.809-13.675-30.484-30.484-30.484c-2.736,0-5.455,0.383-8.08,1.103c-2.213-2.687-4.461-5.301-6.744-7.836  C361.746,79.819,366.752,78.847,371.895,78.847z M386.312,118.901c0,0.794-0.086,1.57-0.21,2.336  c-2.787-4.653-5.692-9.206-8.713-13.631c-0.606-0.888-1.223-1.759-1.837-2.635C381.733,106.597,386.312,112.216,386.312,118.901z   M99.879,118.901c0-22.086,17.968-40.054,40.054-40.054c5.143,0,10.149,0.972,14.823,2.835c-2.283,2.535-4.531,5.149-6.744,7.836  c-2.624-0.72-5.344-1.103-8.078-1.103c-16.809,0-30.484,13.675-30.484,30.484c0,7.161,2.452,13.915,6.878,19.302  c-1.557,3.046-3.062,6.123-4.515,9.221C104.231,139.991,99.879,129.843,99.879,118.901z M136.275,104.971  c-0.614,0.876-1.232,1.747-1.837,2.635c-3.021,4.425-5.927,8.978-8.713,13.631c-0.124-0.767-0.21-1.544-0.21-2.337  C125.514,112.216,130.093,106.597,136.275,104.971z M223.802,453.823c0,7.114-5.788,12.903-12.904,12.903  c-7.116,0-12.903-5.788-12.903-12.903v-1.524c8.321,1.596,17.062,0.092,24.579-4.543l1.228-0.756V453.823z M313.832,453.823  c0,7.114-5.788,12.903-12.904,12.903c-7.116,0-12.903-5.788-12.903-12.903v-6.824l1.228,0.756  c5.592,3.447,11.862,5.171,18.131,5.171c2.159,0,4.317-0.22,6.448-0.629V453.823z M493.474,228.409  c-9.792,19.606-23.753,36.733-40.373,49.531c-11.276,8.684-23.658,15.232-36.8,19.46c-8.381,2.697-14.01,10.481-14.01,19.371  v111.825c0,1.856-1.168,2.785-1.863,3.173c-0.695,0.388-2.099,0.894-3.678-0.079l-19.763-12.184  c-11.185-6.895-25.081-6.896-36.263,0l-23.638,14.572c-5.982,3.688-13.417,3.689-19.401,0l-23.638-14.572  c-5.592-3.448-11.861-5.171-18.132-5.171c-6.269,0-12.541,1.724-18.131,5.171l-23.638,14.572c-5.983,3.689-13.418,3.688-19.401,0  l-23.638-14.572c-11.186-6.896-25.081-6.896-36.263,0l-19.765,12.184c-1.58,0.975-2.983,0.468-3.678,0.079  c-0.696-0.388-1.863-1.316-1.863-3.173V316.772c0-8.889-5.63-16.674-14.01-19.37c-13.143-4.23-25.524-10.778-36.8-19.461  c-16.412-12.638-30.252-29.526-40.024-48.837c-5.948-11.756-1.516-26.079,9.882-31.928c5.602-2.875,11.978-3.378,17.956-1.42  c5.979,1.96,10.821,6.139,13.631,11.767c3.374,6.756,13.071,23.76,30.186,35.732c2.358,1.65,5.416,1.911,8.02,0.689  c2.604-1.223,4.354-3.745,4.591-6.612c3.236-39.26,19.961-84.368,44.74-120.664c14.464-21.185,31.312-38.795,48.726-50.926  c19.492-13.58,39.504-20.465,59.48-20.465s39.987,6.885,59.48,20.465c17.413,12.131,34.262,29.741,48.726,50.926  c24.779,36.295,41.504,81.403,44.74,120.664c0.237,2.866,1.987,5.389,4.591,6.611c2.605,1.223,5.662,0.961,8.02-0.689  c17.116-11.972,26.81-28.976,30.184-35.732c5.759-11.528,19.826-16.222,31.353-10.465  C494.537,202.815,499.232,216.879,493.474,228.409z M344.049,180.426c-4.437,0-8.033,3.597-8.033,8.033v4.136  c0,4.437,3.597,8.033,8.033,8.033c4.437,0,8.034-3.597,8.034-8.033v-4.136C352.082,184.023,348.485,180.426,344.049,180.426z   M167.779,180.426c-4.437,0-8.033,3.597-8.033,8.033v4.136c0,4.437,3.597,8.033,8.033,8.033c4.437,0,8.033-3.597,8.033-8.033v-4.136  C175.812,184.023,172.215,180.426,167.779,180.426z M285.513,191.01c-4.437,0-8.033,3.597-8.033,8.033  c0,3.731-3.035,6.766-6.766,6.766c-3.731,0-6.766-3.036-6.766-6.766c0-4.437-3.597-8.033-8.033-8.033s-8.033,3.597-8.033,8.033  c0,3.731-3.035,6.766-6.766,6.766c-3.731,0-6.766-3.036-6.766-6.766c0-4.437-3.597-8.033-8.033-8.033  c-4.437,0-8.033,3.597-8.033,8.033c0,12.59,10.243,22.833,22.833,22.833c5.642,0,10.811-2.057,14.8-5.46  c3.989,3.403,9.159,5.46,14.8,5.46c12.59,0,22.833-10.243,22.833-22.833C293.547,194.607,289.95,191.01,285.513,191.01z"/>
<g>
</g>
<g>
</g>
<g>
</g>
<g>
</g>
<g>
</g>
<g>
</g>
<g>
</g>
<g>
</g>
<g>
</g>
<g>
</g>
<g>
</g>
<g>
</g>
<g>
</g>
<g>
</g>
<g>
</g>
</svg>
