<?xml version="1.0" encoding="iso-8859-1"?>
<!-- Generator: Adobe Illustrator 19.0.0, SVG Export Plug-In . SVG Version: 6.00 Build 0)  -->
<svg xmlns="http://www.w3.org/2000/svg" xmlns:xlink="http://www.w3.org/1999/xlink" version="1.1" id="Capa_1" x="0px" y="0px" viewBox="0 0 512.001 512.001" style="enable-background:new 0 0 512.001 512.001;" xml:space="preserve">
<g>
	<path style="fill:#F3C74F;" d="M95.979,331.334c-0.579,0-1.155-0.006-1.735-0.018c-25.535-0.555-49.659-13.268-66.186-34.88   c-7.69-10.057-5.771-24.446,4.286-32.136c10.056-7.69,24.444-5.772,32.136,4.285c10.976,14.354,23.983,16.745,30.76,16.892   c8.281,0.177,16.221-2.747,20.16-7.46c8.122-9.713,22.581-11.005,32.292-2.885c9.714,8.12,11.006,22.578,2.886,32.293   C138.001,322.469,117.69,331.334,95.979,331.334z"/>
	<path style="fill:#F3C74F;" d="M324.722,503.959c-12.661,0-22.925-10.263-22.925-22.925v-86.811   c0-12.662,10.263-22.925,22.925-22.925c12.662,0,22.925,10.263,22.925,22.925v86.811   C347.647,493.696,337.383,503.959,324.722,503.959z"/>
</g>
<path style="opacity:0.2;enable-background:new    ;" d="M324.722,371.299c-12.661,0-22.925,10.263-22.925,22.925v48.08  c16.188-2.585,31.592-7.506,45.849-14.414v-33.666C347.647,381.562,337.383,371.299,324.722,371.299z"/>
<path style="fill:#F3C74F;" d="M226.145,503.959c-12.661,0-22.925-10.263-22.925-22.925v-86.811  c0-12.662,10.263-22.925,22.925-22.925c12.662,0,22.925,10.263,22.925,22.925v86.811  C249.07,493.696,238.806,503.959,226.145,503.959z"/>
<path style="opacity:0.2;enable-background:new    ;" d="M226.145,371.299c-12.661,0-22.925,10.263-22.925,22.925v33.666  c14.259,6.909,29.663,11.83,45.851,14.414v-48.081C249.07,381.562,238.806,371.299,226.145,371.299z"/>
<path style="fill:#F3C74F;" d="M465.71,405.382c-12.661,0-22.925-10.263-22.925-22.925c0-20.461-1.157-36.591-6.8-48.803  c-7.364-15.937-22.309-22.691-34.506-26.795c-12-4.038-18.455-17.039-14.417-29.039c4.038-12,17.039-18.453,29.039-14.417  c66.929,22.521,72.534,73.261,72.534,119.055C488.635,395.118,478.372,405.382,465.71,405.382z"/>
<circle style="fill:#0081C6;" cx="402.432" cy="114.318" r="52.651"/>
<circle style="fill:#F3C74F;" cx="402.432" cy="114.318" r="24.582"/>
<circle style="fill:#0081C6;" cx="148.44" cy="114.318" r="52.651"/>
<circle style="fill:#F3C74F;" cx="148.44" cy="114.318" r="24.582"/>
<path style="opacity:0.2;enable-background:new    ;" d="M179.566,71.854c-24.756,22.374-45.753,53.174-60.667,86.048  c8.424,5.721,18.591,9.066,29.542,9.066c29.08,0,52.653-23.573,52.653-52.653C201.092,96.883,192.616,81.437,179.566,71.854z"/>
<path style="fill:#40BAB3;" d="M440.871,258.7c0-91.099-75.947-222.335-165.437-222.335S109.996,167.602,109.996,258.7  s74.069,164.948,165.438,164.948C366.802,423.648,440.871,349.799,440.871,258.7z"/>
<path style="fill:#F0B0B7;" d="M385.746,239.027h-27.618c-4.442,0-8.041-3.6-8.041-8.041c0-4.441,3.599-8.041,8.041-8.041h27.618  c4.442,0,8.041,3.6,8.041,8.041C393.786,235.427,390.186,239.027,385.746,239.027z"/>
<path style="fill:#FFFFFF;" d="M112.782,288.952c14.251,76.649,81.648,134.697,162.651,134.697  c81.004,0,148.399-58.048,162.651-134.697H112.782z"/>
<path style="fill:#0081C6;" d="M142.069,356.3c30.111,40.839,78.629,67.348,133.365,67.348s103.254-26.509,133.365-67.348H142.069z"/>
<path style="opacity:0.2;enable-background:new    ;" d="M292.977,406.105c-91.369,0-165.437-73.85-165.437-164.948  c0-54.844,27.533-124.224,68.969-170.77c-51.031,45.048-86.512,126.05-86.512,188.312c0,91.099,74.069,164.948,165.438,164.948  c50.235,0,95.236-22.329,125.576-57.57C372.025,391.02,334.269,406.105,292.977,406.105z"/>
<path style="fill:#892641;" d="M453.55,202.866L410.627,98.59c-22.553-54.79-75.944-90.55-135.193-90.55l0,0  c-59.25,0-112.64,35.76-135.193,90.55L97.318,202.866c-3.833,8.688,0.103,18.838,8.791,22.671c2.257,0.995,4.613,1.467,6.93,1.467  c6.605,0,12.903-3.827,15.74-10.259l32.485-73.643c1.706-3.868,5.535-6.364,9.763-6.364h208.817c4.227,0,8.056,2.496,9.763,6.364  l32.485,73.643c2.837,6.432,9.134,10.259,15.74,10.259c2.317,0,4.673-0.472,6.93-1.467  C453.447,221.704,457.382,211.554,453.55,202.866z"/>
<g>
	<rect x="155.002" y="63.308" style="opacity:0.2;fill:#25292F;enable-background:new    ;" width="240.354" height="16.082"/>
	<rect x="221.536" y="15.413" style="opacity:0.2;fill:#25292F;enable-background:new    ;" width="16.082" height="113.846"/>
	<rect x="313.244" y="15.413" style="opacity:0.2;fill:#25292F;enable-background:new    ;" width="16.082" height="113.846"/>
	<rect x="397.843" y="153.729" style="opacity:0.2;fill:#25292F;enable-background:new    ;" width="38.799" height="16.082"/>
	<rect x="114.23" y="153.729" style="opacity:0.2;fill:#25292F;enable-background:new    ;" width="38.799" height="16.082"/>
</g>
<path style="fill:#EACEB2;" d="M344.026,106.966H206.841c-13.26,0-24.01,10.749-24.01,24.01l0,0c0,13.26,10.75,24.01,24.01,24.01  h137.184c13.26,0,24.01-10.749,24.01-24.01l0,0C368.035,117.715,357.286,106.966,344.026,106.966z"/>
<path style="opacity:0.2;enable-background:new    ;" d="M350.082,148.928H212.898c-13.26,0-24.01-10.75-24.01-24.01  c0-5.083,1.589-9.788,4.283-13.669c-6.244,4.336-10.34,11.548-10.34,19.726c0,13.26,10.749,24.01,24.01,24.01h137.184  c8.178,0,15.39-4.096,19.726-10.34C359.87,147.339,355.165,148.928,350.082,148.928z"/>
<path style="fill:#60523F;" d="M127.263,237.169l-27.585-23.147l-69.1,82.35c-6.392,7.617-5.398,18.974,2.219,25.366l0,0  c7.617,6.392,18.974,5.398,25.366-2.219L127.263,237.169z"/>
<path style="opacity:0.3;enable-background:new    ;" d="M99.677,214.022l-27.198,32.413c3.392,4.484,7.316,8.67,11.805,12.436  c5.019,4.211,10.421,7.662,16.068,10.368l26.911-32.071L99.677,214.022z"/>
<circle style="fill:#5F666F;" cx="141.054" cy="192.721" r="76.093"/>
<circle style="fill:#FFFFFF;" cx="141.054" cy="192.721" r="48.905"/>
<path style="opacity:0.3;enable-background:new    ;" d="M172.487,155.263c-20.656-17.333-51.433-14.669-68.81,5.928  c17.84-15.11,44.481-15.652,62.997-0.115c20.69,17.362,23.389,48.208,6.027,68.899c-0.029,0.034-0.06,0.066-0.089,0.101  c2.095-1.774,4.076-3.738,5.902-5.914C195.875,203.471,193.177,172.623,172.487,155.263z"/>
<path style="opacity:0.3;fill:#FFFFFF;enable-background:new    ;" d="M192.153,136.368c-1.997-0.346-4.048-0.537-6.144-0.537  c-19.757,0-35.773,16.016-35.773,35.774s16.016,35.774,35.773,35.774c13.295,0,24.888-7.258,31.054-18.023  C216.186,169.715,207.74,150.483,192.153,136.368z"/>
<path d="M371.936,182.436c-4.442,0-8.041,3.6-8.041,8.041v4.529c0,4.441,3.599,8.041,8.041,8.041s8.041-3.6,8.041-8.041v-4.529  C379.977,186.036,376.377,182.436,371.936,182.436z M104.448,236.349c10.65,8.936,23.638,13.297,36.559,13.297  c16.264,0,32.421-6.913,43.669-20.317c20.183-24.054,17.036-60.043-7.018-80.226c-11.653-9.779-26.423-14.432-41.568-13.106  c-15.153,1.325-28.882,8.473-38.66,20.125c-9.778,11.652-14.433,26.413-13.107,41.566C85.65,212.841,92.796,226.57,104.448,236.349z   M109.748,166.459c7.016-8.361,16.868-13.49,27.742-14.441c1.216-0.106,2.427-0.16,3.632-0.16c9.582,0,18.77,3.331,26.197,9.563  c17.262,14.483,19.521,40.309,5.037,57.571c-14.485,17.262-40.312,19.52-57.57,5.037c-8.362-7.016-13.49-16.868-14.442-27.743  C99.392,185.413,102.732,174.821,109.748,166.459z M488.603,320.382c-7.523-21.661-20.656-38.259-40.057-50.609  c0.234-3.663,0.366-7.354,0.366-11.074c0-8.133-0.59-16.672-1.739-25.466c0.278-0.111,0.555-0.22,0.83-0.341  c6.168-2.72,10.906-7.679,13.343-13.964c2.424-6.25,2.283-13.068-0.396-19.209l-16.956-41.194  c12.218-11.443,19.127-27.231,19.127-44.211c0-33.467-27.228-60.694-60.694-60.694c-3.154,0-6.294,0.27-9.394,0.752  C364.276,20.403,321.705,0,275.433,0c-46.271,0-88.842,20.403-117.6,54.373c-3.099-0.482-6.239-0.752-9.393-0.752  c-33.467,0-60.694,27.227-60.694,60.694c0,4.15,0.429,8.263,1.258,12.291c-4.484,3.543-8.644,7.56-12.402,12.04  c-14.447,17.216-21.323,39.026-19.364,61.413c1.175,13.44,5.471,26.109,12.426,37.224l-13.37,15.935  c-9.634-3.271-20.536-1.649-28.832,4.695c-12.76,9.757-15.81,27.567-7.492,40.938c-3.731,10.037-1,21.783,7.661,29.05  c4.733,3.972,10.589,6.096,16.696,6.096c0.769,0,1.542-0.033,2.316-0.102c3.832-0.336,7.464-1.488,10.703-3.35  c11.563,5.503,24.157,8.538,36.727,8.811c0.638,0.014,1.274,0.02,1.909,0.02c8.31,0,16.401-1.158,24.152-3.435  c8.514,16.99,19.884,32.63,33.862,46.295c12.362,12.086,26.238,22.11,41.186,29.904v68.896c0,17.074,13.891,30.965,30.965,30.965  c17.075,0,30.967-13.891,30.967-30.965v-50.306c6.049,0.63,12.161,0.961,18.322,0.961c6.188,0,12.3-0.331,18.323-0.965v50.31  c0,17.074,13.891,30.965,30.967,30.965c17.074,0,30.965-13.891,30.965-30.965v-69.008c31.424-16.422,57.206-42.167,73.629-73.53  c4.477,10.76,5.429,25.413,5.429,43.96c0,17.074,13.891,30.965,30.967,30.965c17.074,0,30.965-13.891,30.965-30.965  C496.676,363.257,495.717,340.867,488.603,320.382z M447.04,114.315c0,10.328-3.482,20.056-9.77,27.876l-5.559-13.504  c2.189-4.449,3.341-9.34,3.341-14.37c0-14.375-9.333-26.846-22.714-31.089c-2.402-4.645-5.002-9.147-7.822-13.471  C428.148,70.851,447.04,90.417,447.04,114.315z M146.351,69.756c-2.819,4.324-5.421,8.826-7.822,13.471  c-12.794,4.057-21.882,15.639-22.653,29.214c-4.115,1.281-8.105,2.873-11.95,4.762c-0.061-0.96-0.099-1.921-0.099-2.887  C103.828,90.417,122.719,70.851,146.351,69.756z M88.919,148.981c11.685-13.924,28.092-22.466,46.201-24.05  c2.024-0.177,4.04-0.265,6.049-0.265c15.956,0,31.258,5.549,43.626,15.927c28.746,24.12,32.508,67.13,8.388,95.876  c-24.122,28.746-67.133,32.506-95.876,8.388c-13.926-11.685-22.467-28.092-24.052-46.201  C71.673,180.548,77.236,162.907,88.919,148.981z M191.808,125.623c2.221-6.195,8.176-10.617,15.033-10.617h137.184  c8.805,0,15.969,7.164,15.969,15.968s-7.164,15.969-15.969,15.969H211.641c-4.435-6.846-9.941-13.159-16.507-18.668  C194.043,127.36,192.934,126.477,191.808,125.623z M37.229,270.686c2.029-1.551,4.384-2.505,6.815-2.872L31.412,282.87  C31.306,278.272,33.304,273.687,37.229,270.686z M52.004,314.352c-3.533,4.208-9.83,4.759-14.038,1.229  c-4.209-3.531-4.761-9.83-1.229-14.039l42.989-51.232c2.269,2.407,4.672,4.71,7.244,6.868c2.584,2.168,5.269,4.136,8.024,5.94  L52.004,314.352z M94.418,323.276c-8.523-0.185-16.82-1.843-24.779-4.924l21.114-25.162c1.441,0.179,2.883,0.294,4.316,0.325  c0.289,0.006,0.578,0.01,0.867,0.01c3.166,0,6.31-0.39,9.311-1.092c1.936,9.807,4.716,19.377,8.297,28.63  C107.39,322.657,100.974,323.415,94.418,323.276z M241.029,481.034c0,8.207-6.678,14.884-14.885,14.884  c-8.207,0-14.884-6.677-14.884-14.884v-61.544c9.608,3.811,19.563,6.762,29.769,8.802V481.034z M339.607,481.034  c0,8.207-6.677,14.884-14.884,14.884c-8.207,0-14.885-6.677-14.885-14.884v-52.768c10.279-2.07,20.231-5.051,29.769-8.851V481.034z   M275.433,415.607c-41.464,0-80.598-15.936-110.197-44.873c-26.714-26.115-42.963-60.167-46.476-96.901  c7.282,1.99,14.759,2.989,22.224,2.989c24.028,0,47.901-10.214,64.519-30.018c20.207-24.083,24.565-56.257,14.229-83.78h124.294  c12.733,0,23.753-7.464,28.921-18.246h6.897c1.041,0,1.986,0.615,2.405,1.567l32.485,73.643c3.095,7.019,9.16,12.12,16.33,14.117  c1.168,8.532,1.768,16.785,1.768,24.593C432.83,345.219,362.222,415.607,275.433,415.607z M429.446,213.499l-32.486-73.644  c-2.99-6.778-9.71-11.158-17.118-11.158h-3.857c-1.173-16.612-15.053-29.772-31.96-29.772H206.842  c-12.569,0-23.644,7.405-28.866,18.168c-10.332-5.068-21.59-7.921-33.193-8.412l2.895-7.03  c21.396-51.982,71.543-85.57,127.756-85.57c56.213,0,106.361,33.588,127.758,85.57l42.923,104.276  c0.026,0.062,0.053,0.123,0.078,0.184c0.987,2.236,1.044,4.724,0.16,7.003c-0.883,2.279-2.603,4.078-4.839,5.065  c-1.178,0.52-2.419,0.783-3.686,0.783C434.199,218.963,430.91,216.818,429.446,213.499z M465.71,397.342  c-8.207,0-14.885-6.677-14.885-14.884c0-21.523-1.282-38.634-7.542-52.176c-1.59-3.441-3.564-6.667-5.877-9.648  c4.034-10.455,7.077-21.394,9.015-32.706c31.326,24.234,34.172,61.212,34.172,94.529  C480.594,390.665,473.918,397.342,465.71,397.342z M307.842,194.026c-4.442,0-8.041,3.6-8.041,8.041  c0,4.502-3.662,8.164-8.164,8.164c-4.502,0-8.164-3.662-8.164-8.164c0-4.441-3.599-8.041-8.041-8.041  c-4.441,0-8.041,3.6-8.041,8.041c0,4.502-3.662,8.164-8.164,8.164c-4.501,0-8.163-3.662-8.163-8.164  c0-4.441-3.599-8.041-8.041-8.041s-8.041,3.6-8.041,8.041c0,13.369,10.876,24.246,24.244,24.246c6.224,0,11.908-2.358,16.205-6.226  c4.298,3.868,9.982,6.226,16.205,6.226c13.369,0,24.246-10.876,24.246-24.246C315.883,197.626,312.284,194.026,307.842,194.026z"/>
<g>
</g>
<g>
</g>
<g>
</g>
<g>
</g>
<g>
</g>
<g>
</g>
<g>
</g>
<g>
</g>
<g>
</g>
<g>
</g>
<g>
</g>
<g>
</g>
<g>
</g>
<g>
</g>
<g>
</g>
</svg>
