<?xml version="1.0" encoding="iso-8859-1"?>
<!-- Generator: Adobe Illustrator 19.0.0, SVG Export Plug-In . SVG Version: 6.00 Build 0)  -->
<svg xmlns="http://www.w3.org/2000/svg" xmlns:xlink="http://www.w3.org/1999/xlink" version="1.1" id="Capa_1" x="0px" y="0px" viewBox="0 0 512.001 512.001" style="enable-background:new 0 0 512.001 512.001;" xml:space="preserve">
<path style="fill:#F3C74F;" d="M301.872,484.584c-11.784,0-21.336-9.552-21.336-21.336v-60.885c0-11.784,9.552-21.336,21.336-21.336  c11.784,0,21.336,9.552,21.336,21.336v60.885C323.208,475.032,313.656,484.584,301.872,484.584z"/>
<path style="opacity:0.2;enable-background:new    ;" d="M301.872,381.028c-11.784,0-21.336,9.552-21.336,21.336v44.747  c15.065-2.406,29.402-6.985,42.672-13.415v-31.332C323.208,390.58,313.656,381.028,301.872,381.028z"/>
<path style="fill:#F3C74F;" d="M210.129,484.584c-11.784,0-21.336-9.552-21.336-21.336v-60.885c0-11.784,9.552-21.336,21.336-21.336  s21.336,9.552,21.336,21.336v60.885C231.464,475.032,221.912,484.584,210.129,484.584z"/>
<path style="opacity:0.2;enable-background:new    ;" d="M210.129,381.028c-11.784,0-21.336,9.552-21.336,21.336v31.332  c13.27,6.43,27.606,11.009,42.672,13.415v-44.747C231.464,390.58,221.912,381.028,210.129,381.028z"/>
<circle style="fill:#0081C6;" cx="374.187" cy="141.862" r="49.003"/>
<circle style="fill:#F3C74F;" cx="374.187" cy="141.862" r="22.878"/>
<circle style="fill:#0081C6;" cx="137.808" cy="141.862" r="49.003"/>
<circle style="fill:#F3C74F;" cx="137.808" cy="141.862" r="22.878"/>
<path style="opacity:0.2;enable-background:new    ;" d="M166.779,102.341c-23.039,20.823-42.581,49.487-56.462,80.083  c7.84,5.324,17.302,8.437,27.494,8.437c27.063,0,49.003-21.94,49.003-49.003C186.813,125.635,178.924,111.259,166.779,102.341z"/>
<g>
	<path style="fill:#F3C74F;" d="M413.181,388.41c-1.576,0-3.176-0.175-4.777-0.542c-11.487-2.628-18.669-14.07-16.04-25.556   c5.548-24.253-11.527-39.072-17.137-43.941c-8.9-7.723-9.853-21.198-2.13-30.097c7.724-8.899,21.198-9.854,30.098-2.13   c27.101,23.518,38.027,53.949,30.766,85.686C431.699,381.713,422.909,388.41,413.181,388.41z"/>
	<path style="fill:#F3C74F;" d="M98.82,388.41c-9.729,0-18.517-6.696-20.78-16.582c-7.262-31.737,3.665-62.167,30.766-85.686   c8.899-7.723,22.376-6.769,30.098,2.13c7.722,8.899,6.77,22.375-2.13,30.097c-22.686,19.688-18.51,37.943-17.137,43.941   c2.629,11.487-4.554,22.93-16.04,25.556C101.996,388.234,100.394,388.41,98.82,388.41z"/>
</g>
<path style="fill:#40BAB3;" d="M409.969,276.235c0-84.783-70.682-206.923-153.97-206.923s-153.969,122.14-153.969,206.923  s68.935,153.514,153.97,153.514S409.969,361.018,409.969,276.235z"/>
<g>
	<path style="fill:#F0B0B7;" d="M179.039,244.772h-25.704c-4.42,0-8.001-3.582-8.001-8.001c0-4.419,3.581-8.001,8.001-8.001h25.704   c4.42,0,8.001,3.582,8.001,8.001C187.04,241.19,183.459,244.772,179.039,244.772z"/>
	<path style="fill:#F0B0B7;" d="M358.665,244.772h-25.704c-4.42,0-8.001-3.582-8.001-8.001c0-4.419,3.581-8.001,8.001-8.001h25.704   c4.42,0,8.001,3.582,8.001,8.001C366.666,241.19,363.085,244.772,358.665,244.772z"/>
</g>
<path style="fill:#FFFFFF;" d="M104.624,304.39c13.263,71.335,75.988,125.359,151.376,125.359s138.113-54.024,151.376-125.359  L104.624,304.39L104.624,304.39z"/>
<path style="fill:#0081C6;" d="M131.881,367.07c28.023,38.008,73.177,62.679,124.12,62.679s96.096-24.672,124.12-62.679H131.881z"/>
<path style="opacity:0.2;enable-background:new    ;" d="M272.327,413.422c-85.035,0-153.97-68.73-153.97-153.514  c0-51.043,25.624-115.613,64.189-158.932c-47.493,41.925-80.515,117.313-80.515,175.258c0,84.783,68.935,153.514,153.97,153.514  c46.753,0,88.634-20.781,116.871-53.578C345.896,399.383,310.757,413.422,272.327,413.422z"/>
<ellipse style="fill:#892641;" cx="255.997" cy="223.92" rx="22.637" ry="27.278"/>
<path style="fill:#F0B0B7;" d="M256.001,227.99c-8.022,0-15.092,4.072-19.26,10.26c3.99,7.767,11.122,12.943,19.26,12.943  c8.137,0,15.27-5.177,19.26-12.943C271.092,232.062,264.023,227.99,256.001,227.99z"/>
<rect x="53.972" y="420.699" style="fill:#5F666F;" width="404.057" height="30.769"/>
<rect x="53.972" y="441.736" style="opacity:0.2;enable-background:new    ;" width="404.057" height="9.734"/>
<path style="fill:#A4A8AB;" d="M49.668,500.546H24.092c-8.887,0-16.091-7.204-16.091-16.091v-96.746  c0-8.887,7.204-16.091,16.091-16.091h25.576c8.886,0,16.091,7.204,16.091,16.091v96.746  C65.759,493.342,58.555,500.546,49.668,500.546z"/>
<path style="opacity:0.2;enable-background:new    ;" d="M56.052,494.162H30.477c-8.886,0-16.091-7.204-16.091-16.091v-96.747  c0-2.801,0.719-5.434,1.978-7.729c-4.983,2.734-8.363,8.029-8.363,14.114v96.746c0,8.887,7.204,16.091,16.091,16.091h25.576  c6.085,0,11.378-3.38,14.114-8.363C61.488,493.443,58.855,494.162,56.052,494.162z"/>
<path style="opacity:0.2;fill:#FFFFFF;enable-background:new    ;" d="M49.668,371.618h-9.218  c-4.714,5.425-7.574,12.504-7.574,20.255c0,17.069,13.836,30.905,30.905,30.905c0.665,0,1.323-0.029,1.978-0.069v-35  C65.759,378.822,58.555,371.618,49.668,371.618z"/>
<path style="fill:#A4A8AB;" d="M487.909,500.546h-25.576c-8.886,0-16.091-7.204-16.091-16.091v-96.746  c0-8.887,7.204-16.091,16.091-16.091h25.576c8.887,0,16.091,7.204,16.091,16.091v96.746  C503.999,493.342,496.795,500.546,487.909,500.546z"/>
<path style="opacity:0.2;enable-background:new    ;" d="M494.293,494.162h-25.576c-8.886,0-16.091-7.204-16.091-16.091v-96.747  c0-2.801,0.719-5.434,1.978-7.729c-4.983,2.734-8.363,8.029-8.363,14.114v96.746c0,8.887,7.204,16.091,16.091,16.091h25.576  c6.085,0,11.378-3.38,14.114-8.363C499.728,493.443,497.095,494.162,494.293,494.162z"/>
<path style="opacity:0.2;fill:#FFFFFF;enable-background:new    ;" d="M487.909,371.618h-9.218  c-4.714,5.425-7.574,12.504-7.574,20.255c0,17.069,13.836,30.905,30.905,30.905c0.665,0,1.323-0.029,1.978-0.069v-35  C503.999,378.822,496.795,371.618,487.909,371.618z"/>
<path style="fill:#F3C74F;" d="M122.804,441.016c-6.316,0-12.569-2.792-16.78-8.14C91.45,414.363,82.012,389.2,78.039,371.826  c-2.626-11.487,4.556-22.929,16.042-25.555c11.494-2.626,22.927,4.555,25.556,16.042c2.805,12.268,9.705,31.196,19.917,44.169  c7.288,9.259,5.691,22.674-3.567,29.962C132.077,439.522,127.423,441.016,122.804,441.016z"/>
<path style="opacity:0.2;enable-background:new    ;" d="M119.637,362.313c-0.001-0.003-0.002-0.006-0.003-0.011  c-0.659-2.882-1.953-8.591-0.622-15.92c-8.602-16.665-14.235-35.103-16.202-54.62c-2.921,2.924-5.64,5.928-8.098,9.025  c3.552,23.692,12.539,45.611,25.649,64.464C120.099,364.242,119.853,363.252,119.637,362.313z"/>
<path style="fill:#F3C74F;" d="M389.196,441.016c-4.619,0-9.271-1.493-13.182-4.572c-9.259-7.288-10.856-20.703-3.567-29.962  c10.212-12.973,17.112-31.901,19.917-44.169c2.626-11.486,14.058-18.671,25.556-16.042c11.487,2.626,18.669,14.069,16.042,25.555  c-3.974,17.375-13.412,42.537-27.986,61.051C401.764,438.225,395.512,441.016,389.196,441.016z"/>
<path style="fill:#E6595A;" d="M256.001,122.457h97.48c6.534,0,12.598,3.399,16.008,8.972l23.817,38.92  c2.159,3.529-0.38,8.061-4.518,8.061H256.001H123.212c-4.137,0-6.677-4.532-4.518-8.061l23.817-38.92  c3.411-5.574,9.474-8.972,16.008-8.972C158.52,122.457,256.001,122.457,256.001,122.457z"/>
<path style="fill:#FFFFFF;" d="M393.306,170.35l-12.187-19.916H130.881l-12.187,19.916c-2.159,3.529,0.38,8.061,4.518,8.061h265.577  C392.926,178.41,395.466,173.879,393.306,170.35z"/>
<g style="opacity:0.15;">
	<path d="M176.898,165.274c-1.33,0-2.679-0.332-3.92-1.032c-3.849-2.17-5.212-7.048-3.044-10.898l5.805-10.304   c2.169-3.85,7.048-5.211,10.898-3.044c3.849,2.17,5.212,7.048,3.044,10.898l-5.805,10.304   C182.406,163.807,179.692,165.274,176.898,165.274z"/>
	<path d="M262.21,160.12c-2.327,0-4.632-1.008-6.213-2.954l-8.341-10.261c-2.788-3.429-2.268-8.468,1.161-11.256   c3.431-2.788,8.469-2.266,11.256,1.162l8.341,10.261c2.788,3.429,2.268,8.468-1.161,11.256   C265.769,159.535,263.983,160.12,262.21,160.12z"/>
	<path d="M343.675,167.042c-1.166,0-2.348-0.256-3.468-0.796c-3.98-1.918-5.653-6.701-3.735-10.681l5.993-12.438   c1.919-3.981,6.702-5.652,10.682-3.734c3.98,1.918,5.653,6.701,3.735,10.681l-5.993,12.438   C349.509,165.373,346.651,167.042,343.675,167.042z"/>
</g>
<path d="M345.813,211.286c4.42,0,8.001-3.582,8.001-8.001v-4.215c0-4.419-3.581-8.001-8.001-8.001c-4.419,0-8.001,3.582-8.001,8.001  v4.215C337.813,207.703,341.395,211.286,345.813,211.286z M256.001,41.761c4.42,0,8.001-3.582,8.001-8.001V11.455  c0-4.419-3.581-8.001-8.001-8.001c-4.42,0-8.001,3.582-8.001,8.001V33.76C248,38.18,251.581,41.761,256.001,41.761z M329.375,68.072  c1.228,0.68,2.557,1.003,3.868,1.003c2.816,0,5.546-1.489,7.007-4.127l18.046-32.595c2.14-3.866,0.741-8.735-3.125-10.875  c-3.867-2.141-8.735-0.74-10.875,3.125l-18.046,32.595C324.111,61.064,325.509,65.932,329.375,68.072z M441.66,107.797  c1.478,0,2.972-0.409,4.308-1.264l27.579-17.663c3.721-2.383,4.806-7.332,2.423-11.053c-2.382-3.722-7.333-4.804-11.052-2.423  l-27.579,17.663c-3.721,2.383-4.806,7.332-2.422,11.053C436.443,106.496,439.024,107.797,441.66,107.797z M171.75,64.948  c1.46,2.638,4.191,4.127,7.007,4.127c1.311,0,2.64-0.323,3.868-1.003c3.866-2.14,5.265-7.009,3.125-10.875l-18.046-32.595  c-2.14-3.865-7.008-5.266-10.875-3.125c-3.866,2.14-5.265,7.009-3.125,10.875L171.75,64.948z M166.187,211.286  c4.42,0,8.001-3.582,8.001-8.001v-4.215c0-4.419-3.581-8.001-8.001-8.001s-8.001,3.582-8.001,8.001v4.215  C158.186,207.703,161.768,211.286,166.187,211.286z M256.001,259.195c16.895,0,30.639-15.826,30.639-35.279  s-13.745-35.279-30.639-35.279s-30.639,15.826-30.639,35.279S239.106,259.195,256.001,259.195z M256.001,204.641  c7.935,0,14.637,8.828,14.637,19.277s-6.703,19.277-14.637,19.277c-7.935,0-14.637-8.828-14.637-19.277  C241.363,213.468,248.066,204.641,256.001,204.641z M487.908,363.617h-25.576c-9.172,0-17.163,5.155-21.23,12.717  c0.229-0.922,0.457-1.84,0.659-2.726c0.007-0.034,0.016-0.069,0.022-0.106c6.973-30.635-1.657-60.569-24.306-84.704  c0.326-4.157,0.493-8.348,0.493-12.565c0-25.737-6.187-54.918-17.58-83.742c18.714-9.675,30.802-29.091,30.802-50.635  c0-31.432-25.572-57.004-57.005-57.004c-13.277,0-26.104,4.685-36.251,13.037c-25.755-23.749-54.2-36.581-81.939-36.581  c-27.739,0-56.182,12.833-81.939,36.581c-10.145-8.352-22.973-13.037-36.251-13.037c-31.433,0-57.005,25.572-57.005,57.004  c0,21.544,12.09,40.96,30.802,50.635c-11.392,28.823-17.58,58.003-17.58,83.742c0,4.218,0.166,8.409,0.493,12.566  c-22.648,24.133-31.278,54.063-24.308,84.694c0.009,0.038,0.017,0.076,0.025,0.113c0.203,0.884,0.43,1.804,0.659,2.726  c-4.069-7.564-12.058-12.717-21.23-12.717H24.092C10.808,363.617,0,374.425,0,387.709v96.747c0,13.285,10.808,24.091,24.092,24.091  h25.576c13.284,0,24.091-10.808,24.091-24.091v-24.988h107.032v3.781c0,16.177,13.161,29.337,29.337,29.337  s29.337-13.16,29.337-29.337v-3.781h33.07v3.781c0,16.177,13.161,29.337,29.337,29.337c16.176,0,29.337-13.16,29.337-29.337v-3.781  h107.032v24.988c0,13.285,10.808,24.091,24.091,24.091h25.576c13.285,0,24.092-10.808,24.092-24.091v-96.747  C512,374.425,501.193,363.617,487.908,363.617z M57.758,484.456c0,4.461-3.628,8.089-8.089,8.089H24.092  c-4.461,0-8.091-3.629-8.091-8.089v-96.747c0-4.461,3.629-8.091,8.091-8.091h25.576c4.461,0,8.089,3.629,8.089,8.091V484.456z   M374.19,100.857c22.608,0,41.003,18.394,41.003,41.002c0,11.704-4.962,22.533-13.184,30.133c-0.172-2.028-0.779-4.025-1.876-5.818  l-2.552-4.169c4.772-5.539,7.49-12.651,7.49-20.145c0-17.027-13.852-30.879-30.879-30.879c-5.437,0-10.636,1.405-15.267,4.054  c-1.626-0.342-3.291-0.531-4.974-0.561c-1.531-1.772-3.077-3.496-4.634-5.185C356.412,103.877,365.155,100.857,374.19,100.857z   M389.068,141.859c0,1.682-0.304,3.318-0.84,4.863l-11.914-19.469c-0.023-0.038-0.051-0.075-0.075-0.114  C383.474,128.143,389.068,134.352,389.068,141.859z M256.001,77.313c25.427,0,51.996,13.075,76.102,37.145H179.898  C204.003,90.387,230.573,77.313,256.001,77.313z M353.482,130.459c3.721,0,7.24,1.973,9.183,5.147l21.298,34.803H128.037  l21.298-34.803c1.943-3.176,5.462-5.147,9.183-5.147C158.518,130.459,353.482,130.459,353.482,130.459z M123.772,146.721  c-0.536-1.546-0.84-3.181-0.84-4.864c0-7.507,5.593-13.716,12.828-14.72c-0.023,0.038-0.051,0.075-0.075,0.114L123.772,146.721z   M109.992,171.991c-8.224-7.6-13.184-18.429-13.184-30.133c0-22.608,18.394-41.002,41.003-41.002c9.035,0,17.778,3.02,24.875,8.431  c-1.556,1.689-3.103,3.413-4.634,5.185c-1.683,0.03-3.349,0.219-4.974,0.561c-4.631-2.65-9.829-4.054-15.267-4.054  c-17.027,0-30.879,13.852-30.879,30.879c0,7.494,2.717,14.606,7.49,20.145l-2.552,4.169  C110.772,167.966,110.164,169.963,109.992,171.991z M131.547,186.411h248.909c13.887,30.806,21.514,62.524,21.514,89.824  c0,60.858-38.327,115.558-95.499,136.562H205.54c-57.196-21.005-95.51-75.646-95.51-136.562  C110.032,248.935,117.658,217.215,131.547,186.411z M376.38,384.216c-2.914,6.342-6.376,12.433-10.222,17.317  c-2.698,3.428-4.501,7.276-5.457,11.263h-18.189C355.154,404.81,366.527,395.164,376.38,384.216z M169.478,412.797h-18.179  c-0.956-3.988-2.759-7.836-5.457-11.263c-3.833-4.869-7.284-10.938-10.193-17.259C145.49,395.2,156.851,404.823,169.478,412.797z   M73.714,386.281c2.623,8.34,6.137,17.448,10.533,26.417H73.76V387.71C73.76,387.229,73.742,386.753,73.714,386.281z M73.76,443.466  v-14.767h19.5c2.044,3.157,4.194,6.225,6.479,9.127c1.712,2.175,3.689,4.062,5.864,5.64H73.76V443.466z M131.039,430.158  c-2.377,1.87-5.223,2.858-8.235,2.858c-4.123,0-7.947-1.854-10.492-5.088c-13.73-17.441-22.662-41.271-26.453-57.795  c-0.009-0.036-0.016-0.071-0.023-0.108c-4.891-21.399-0.798-41.811,11.825-59.831c2.825,13.055,7.248,25.609,13.088,37.411  c-0.913,7.711,0.46,13.748,1.084,16.482c0.009,0.036,0.017,0.073,0.026,0.109c3.003,13.078,10.4,33.254,21.406,47.236  C137.816,417.209,136.816,425.609,131.039,430.158z M223.463,463.248c0,7.353-5.981,13.335-13.335,13.335  s-13.335-5.981-13.335-13.335v-3.781h26.67V463.248z M315.207,463.248c0,7.353-5.981,13.335-13.335,13.335  c-7.353,0-13.335-5.981-13.335-13.335v-3.781h26.67V463.248z M139.917,443.466c0.34-0.244,0.689-0.476,1.02-0.735  c4.723-3.718,7.991-8.606,9.725-13.932h210.679c1.734,5.326,5.002,10.215,9.725,13.932c0.33,0.259,0.68,0.491,1.02,0.735H139.917z   M389.196,433.015c-3.01,0-5.858-0.989-8.235-2.858c-5.777-4.548-6.777-12.949-2.23-18.726  c11.007-13.981,18.404-34.159,21.407-47.236c0.01-0.036,0.018-0.071,0.026-0.109c0.625-2.736,2-8.786,1.081-16.51  c5.839-11.798,10.263-24.344,13.088-37.389c12.628,18.022,16.722,38.435,11.83,59.837c-0.007,0.032-0.015,0.066-0.022,0.1  c-3.791,16.525-12.724,40.36-26.455,57.803C397.142,431.161,393.319,433.015,389.196,433.015z M438.241,443.466h-31.844  c2.175-1.578,4.152-3.465,5.864-5.64c2.222-2.823,4.316-5.8,6.31-8.864h19.669V443.466z M438.241,387.709v25.251h-10.613  c4.456-9.053,8.012-18.258,10.659-26.68C438.259,386.753,438.241,387.229,438.241,387.709z M495.998,484.456  c0,4.461-3.629,8.089-8.091,8.089h-25.576c-4.461,0-8.089-3.629-8.089-8.089v-96.747c0-4.461,3.628-8.091,8.089-8.091h25.576  c4.461,0,8.091,3.629,8.091,8.091V484.456z M38.455,88.87l27.579,17.663c1.337,0.856,2.83,1.264,4.308,1.264  c2.636,0,5.218-1.303,6.744-3.687c2.383-3.721,1.299-8.669-2.423-11.053L47.085,75.395c-3.723-2.383-8.67-1.299-11.052,2.423  C33.649,81.538,34.734,86.487,38.455,88.87z"/>
<g>
</g>
<g>
</g>
<g>
</g>
<g>
</g>
<g>
</g>
<g>
</g>
<g>
</g>
<g>
</g>
<g>
</g>
<g>
</g>
<g>
</g>
<g>
</g>
<g>
</g>
<g>
</g>
<g>
</g>
</svg>
