<?xml version="1.0" encoding="iso-8859-1"?>
<!-- Generator: Adobe Illustrator 19.0.0, SVG Export Plug-In . SVG Version: 6.00 Build 0)  -->
<svg xmlns="http://www.w3.org/2000/svg" xmlns:xlink="http://www.w3.org/1999/xlink" version="1.1" id="Capa_1" x="0px" y="0px" viewBox="0 0 512 512" style="enable-background:new 0 0 512 512;" xml:space="preserve">
<path style="fill:#FFFFFF;" d="M228.306,467.701H26.217c-9.947,0-18.011-8.064-18.011-18.011V317.209  c0-9.947,8.064-18.011,18.011-18.011h202.089c9.947,0,18.011,8.064,18.011,18.011V449.69  C246.317,459.638,238.253,467.701,228.306,467.701z"/>
<path style="opacity:0.2;enable-background:new    ;" d="M228.306,299.199H37.418c1.995,14.445,6.608,29.15,13.249,43.615  c-7.964,5.696-14.354,13.767-17.955,23.662c-9.494,26.084,3.955,54.926,30.039,64.419c16.836,6.127,34.812,2.687,48.001-7.529  c20.407,18.872,43.062,34.376,65.341,44.334h52.213c9.947,0,18.011-8.064,18.011-18.011V317.209  C246.317,307.262,238.253,299.199,228.306,299.199z"/>
<path style="fill:#40BAB3;" d="M309.053,161.635c-81.714-29.741-224.228-4.464-253.445,75.808s63.707,191.242,145.421,220.983  s172.139-12.587,201.969-94.544C432.828,281.926,390.767,191.376,309.053,161.635z"/>
<circle style="fill:#0081C6;" cx="84.064" cy="376.807" r="50.26"/>
<circle style="fill:#F3C74F;" cx="84.064" cy="376.807" r="23.465"/>
<path style="opacity:0.2;enable-background:new    ;" d="M56.144,335.022c11.987,29.509,32.759,58.4,57.378,82.511  c7.881-5.689,14.201-13.716,17.777-23.539c9.494-26.084-3.955-54.926-30.039-64.419C85.621,323.883,68.999,326.444,56.144,335.022z"/>
<path style="fill:#40BAB3;" d="M309.053,161.635c-81.714-29.741-224.228-4.464-253.445,75.808s63.707,191.242,145.421,220.983  s172.139-12.587,201.969-94.544C432.828,281.926,390.767,191.376,309.053,161.635z"/>
<path style="fill:#FFFFFF;" d="M229.074,465.803c73.406,12.24,147.477-29.262,173.923-101.921s-3.62-152.064-67.72-189.872  L229.074,465.803z"/>
<path style="fill:#0081C6;" d="M299.047,461.521c46.462-13.676,86.081-48.541,103.952-97.64s9.932-101.272-16.87-141.615  L299.047,461.521z"/>
<path style="opacity:0.2;enable-background:new    ;" d="M392.989,342.418c-29.83,81.957-120.255,124.286-201.969,94.544  c-49.195-17.906-102.44-65.254-130.662-117.618c23.748,60.481,84.821,118.754,140.671,139.081  c81.714,29.741,172.139-12.587,201.969-94.544c16.4-45.061,11.064-92.716-10.642-131.436  C405.266,266.589,406.47,305.38,392.989,342.418z"/>
<g>
	<path style="fill:#F0B0B7;" d="M184.893,433.618c-0.932,0-1.88-0.16-2.807-0.497c-4.258-1.55-6.454-6.26-4.904-10.518l9.017-24.774   c1.55-4.258,6.257-6.454,10.518-4.904c4.258,1.55,6.454,6.26,4.904,10.518l-9.017,24.774   C191.393,431.547,188.246,433.618,184.893,433.618z"/>
	<path style="fill:#F0B0B7;" d="M247.906,260.493c-0.932,0-1.88-0.16-2.807-0.497c-4.258-1.55-6.454-6.26-4.904-10.518l9.017-24.774   c1.55-4.258,6.259-6.454,10.518-4.905c4.26,1.55,6.454,6.26,4.904,10.518l-9.017,24.774   C254.404,258.424,251.257,260.493,247.906,260.493z"/>
</g>
<path style="fill:#0081C6;" d="M150.448,189.806c0.951,0.379,1.962,0.613,2.98,0.708c13.415,1.26,23.748-1.035,34.98-6.273  c11.182-5.215,19.195-11.356,26.917-22.481c0.66-0.95,1.193-1.992,1.55-3.092c8.554-26.253-5.726-54.81-32.46-63.407  c-24.817-7.98-52.023,4.706-61.862,28.846C111.931,150.177,124.715,179.552,150.448,189.806z"/>
<circle style="fill:#F3C74F;" cx="169.081" cy="143.127" r="23.465"/>
<path style="fill:#8E78CF;" d="M341.195,158.165L341.195,158.165c88.635,29.598,150.481,109.97,156.386,203.228l6.167,97.386  c0.851,13.449-9.828,24.827-23.305,24.827H225.963L341.195,158.165z"/>
<g style="opacity:0.2;">
	<path style="fill:#25292F;" d="M364.872,440.851c-1.465,0-2.948-0.392-4.287-1.215l-9.062-5.566   c-3.862-2.372-5.07-7.425-2.698-11.287c2.372-3.862,7.426-5.07,11.286-2.697l9.062,5.566c3.862,2.371,5.07,7.425,2.698,11.287   C370.323,439.46,367.63,440.851,364.872,440.851z"/>
	<path style="fill:#25292F;" d="M408.811,276.355c-1.465,0-2.948-0.392-4.288-1.215l-9.061-5.566   c-3.861-2.373-5.069-7.426-2.697-11.287c2.371-3.861,7.424-5.069,11.287-2.697l9.061,5.566c3.861,2.373,5.069,7.426,2.697,11.287   C414.262,274.966,411.569,276.355,408.811,276.355z"/>
	<path style="fill:#25292F;" d="M450.965,350.101c-1.465,0-2.948-0.392-4.288-1.214l-9.061-5.566   c-3.861-2.372-5.069-7.426-2.697-11.287c2.372-3.862,7.425-5.069,11.287-2.697l9.061,5.566c3.861,2.372,5.069,7.426,2.697,11.287   C456.414,348.712,453.722,350.101,450.965,350.101z"/>
	<path style="fill:#25292F;" d="M362.893,356.168c-1.465,0-2.948-0.392-4.288-1.215l-9.062-5.566   c-3.861-2.372-5.069-7.426-2.697-11.287c2.372-3.862,7.424-5.07,11.287-2.697l9.062,5.566c3.861,2.372,5.069,7.426,2.697,11.287   C368.343,354.777,365.651,356.168,362.893,356.168z"/>
	<path style="fill:#25292F;" d="M435.071,424.012c-1.465,0-2.948-0.392-4.288-1.215l-9.061-5.566   c-3.861-2.372-5.069-7.426-2.697-11.287c2.372-3.862,7.425-5.069,11.287-2.697l9.061,5.566c3.861,2.372,5.069,7.426,2.697,11.287   C440.522,422.622,437.829,424.012,435.071,424.012z"/>
</g>
<path style="fill:#C0B2DF;" d="M370.864,147.922h-41.596c-7.851,0-14.864,4.907-17.555,12.282L199.036,469.083  c-2.573,7.055,2.65,14.522,10.16,14.522h41.596c7.851,0,14.864-4.907,17.555-12.282l112.679-308.878  C383.599,155.388,378.375,147.922,370.864,147.922z"/>
<path d="M208.355,280.236c-4.258-1.55-8.968,0.646-10.518,4.905c-1.55,4.258,0.646,8.968,4.905,10.518  c3.763,1.369,5.71,5.545,4.341,9.308c-1.37,3.764-5.548,5.709-9.309,4.339c-4.26-1.552-8.968,0.647-10.518,4.905  c-0.338,0.928-0.498,1.876-0.497,2.809c0.001,3.351,2.07,6.496,5.402,7.708c3.763,1.369,5.71,5.545,4.341,9.309  c-1.37,3.763-5.542,5.71-9.308,4.339c-4.256-1.548-8.968,0.646-10.518,4.905c-1.55,4.258,0.646,8.968,4.905,10.518  c2.642,0.962,5.38,1.44,8.111,1.44c3.41,0,6.809-0.747,9.991-2.231c5.731-2.673,10.078-7.417,12.243-13.36  c1.965-5.4,1.914-11.2-0.117-16.514c4.79-2.674,8.68-7.01,10.699-12.558C226.97,298.313,220.623,284.7,208.355,280.236z   M261.275,75.064h26.469l-32.038,29.596c-2.48,2.292-3.304,5.871-2.073,9.018c1.23,3.147,4.263,5.217,7.642,5.217h47.446  c4.533,0,8.206-3.674,8.206-8.206c0-4.532-3.673-8.206-8.206-8.206h-26.469l32.037-29.596c2.483-2.292,3.305-5.871,2.075-9.018  c-1.231-3.146-4.263-5.217-7.642-5.217h-47.446c-4.532,0-8.206,3.674-8.206,8.206S256.743,75.064,261.275,75.064z M158.247,172.888  c3.564,1.297,7.211,1.911,10.8,1.911c12.941,0,25.118-7.994,29.794-20.84c5.972-16.41-2.519-34.62-18.93-40.594  c-7.95-2.894-16.551-2.519-24.217,1.058c-7.667,3.576-13.483,9.922-16.376,17.872c-2.893,7.949-2.518,16.55,1.057,24.217  C143.951,164.179,150.298,169.995,158.247,172.888z M154.742,137.908c1.394-3.83,4.196-6.888,7.89-8.61  c3.695-1.722,7.837-1.903,11.667-0.51c7.906,2.878,11.997,11.652,9.12,19.557c-2.878,7.906-11.651,11.999-19.558,9.12  c-3.83-1.394-6.888-4.195-8.61-7.89C153.528,145.881,153.348,141.737,154.742,137.908z M347.4,36.602h15.258L341.832,55.84  c-2.483,2.292-3.305,5.871-2.075,9.018s4.263,5.217,7.642,5.217h36.235c4.533,0,8.206-3.674,8.206-8.206s-3.673-8.206-8.206-8.206  h-15.258l20.826-19.239c2.483-2.292,3.305-5.871,2.075-9.018s-4.263-5.217-7.642-5.217H347.4c-4.533,0-8.206,3.674-8.206,8.206  S342.868,36.602,347.4,36.602z M160.3,386.241c-4.257-1.55-8.968,0.646-10.518,4.905l-4.792,13.167  c-1.549,4.258,0.646,8.968,4.905,10.518c0.927,0.337,1.873,0.497,2.805,0.497c3.351,0,6.499-2.07,7.712-5.402l4.792-13.167  C166.755,392.5,164.559,387.791,160.3,386.241z M511.938,458.26l-6.167-97.386c-2.566-40.505-15.557-79.921-37.569-113.986  c-20.512-31.745-48.465-58.267-81.132-77.069l1.664-4.563c2.125-5.827,1.271-12.341-2.286-17.423  c-3.556-5.082-9.381-8.115-15.584-8.115h-41.596c-9.259,0-17.764,4.814-22.639,12.407c-22.889-7.48-50.477-11.191-79.076-10.684  c-0.243-8.568-2.394-17.051-6.416-24.923c-7.122-13.94-19.271-24.261-34.21-29.064c-28.902-9.293-60.515,5.449-71.973,33.561  c-5.939,14.571-5.825,30.551,0.319,44.995c0.09,0.21,0.191,0.412,0.282,0.621c-34.174,16.673-57.487,40.052-67.663,68.007  c-6.25,17.171-7.61,36.082-4.104,56.357H26.217C11.761,290.993,0,302.754,0,317.209V449.69c0,14.456,11.761,26.216,26.217,26.216  h164.225c0.458,2.763,1.519,5.429,3.169,7.787c3.556,5.082,9.382,8.118,15.585,8.118h271.248c8.681,0,17.068-3.63,23.008-9.96  C509.394,475.522,512.486,466.924,511.938,458.26z M130.155,127.207c6.57-16.122,22.36-26.127,39.028-26.127  c4.23,0,8.517,0.644,12.723,1.997c10.755,3.458,19.497,10.883,24.619,20.907c5.129,10.038,6.034,21.453,2.552,32.142  c-0.101,0.309-0.27,0.64-0.49,0.956c-6.426,9.254-13.054,14.785-23.644,19.723c-10.686,4.983-19.591,6.59-30.746,5.54  c-0.261-0.024-0.507-0.08-0.709-0.161l0,0c-10.477-4.174-18.683-12.201-23.108-22.602  C125.959,149.194,125.88,137.697,130.155,127.207z M73.236,406.566c3.554,1.293,7.211,1.913,10.822,1.913  c7.422,0,14.638-2.623,20.333-7.381c2.384,2.526,4.81,5.011,7.275,7.448c-11.386,9.903-27.431,13.073-41.982,7.776  c-21.79-7.93-33.066-32.111-25.134-53.9c3.172-8.714,9.153-16.083,16.863-21.024c1.577,3.049,3.237,6.098,4.989,9.141  c-5.49,3.695-9.774,9.056-12.096,15.434C48.333,382.381,56.825,400.591,73.236,406.566z M69.73,371.584  c1.05-2.886,2.938-5.338,5.356-7.102c1.608,2.406,3.257,4.804,4.969,7.188c4.209,5.863,8.694,11.593,13.396,17.166  c-4.044,3.148-9.541,4.149-14.599,2.306C70.943,388.265,66.852,379.491,69.73,371.584z M26.217,459.494  c-5.406,0-9.805-4.398-9.805-9.804V317.21c0-5.406,4.399-9.804,9.805-9.804h21.386c1.827,6.265,4.11,12.63,6.805,19.036  c-11.608,6.848-20.622,17.566-25.281,30.365c-5.341,14.675-4.648,30.551,1.952,44.705s18.316,24.89,32.991,30.232  c6.547,2.383,13.312,3.534,20.005,3.534c14.538,0,28.724-5.449,39.604-15.48c18.603,16.473,38.798,30.19,58.762,39.697H26.217  V459.494z M93.385,362.097c-31.383-43.708-42.342-88.12-30.065-121.848c10.884-29.904,37.956-48.616,60.904-59.58  c6.138,7.357,14.038,13.115,23.187,16.76c1.66,0.662,3.427,1.083,5.251,1.255c2.682,0.252,5.277,0.381,7.814,0.381  c10.814,0,20.568-2.335,31.401-7.386c13.306-6.205,22.053-13.517,30.19-25.239c1.135-1.636,2.013-3.394,2.612-5.229  c0.36-1.104,0.675-2.216,0.967-3.33c27.11-0.702,53.191,2.613,74.723,9.477L197.854,448.381  C160.469,433.004,120.94,400.473,93.385,362.097z M250.791,475.398h-41.596c-1.183,0-1.847-0.698-2.138-1.114  c-0.291-0.416-0.719-1.279-0.313-2.39l112.679-308.878c1.503-4.121,5.459-6.889,9.845-6.889h41.596c1.182,0,1.847,0.698,2.137,1.114  c0.292,0.416,0.719,1.279,0.314,2.39L260.637,468.51C259.133,472.63,255.178,475.398,250.791,475.398z M491.486,470.619  c-2.892,3.082-6.814,4.779-11.042,4.779H275.538c0.177-0.419,0.361-0.834,0.519-1.264l105.292-288.629  c29.349,17.406,54.491,41.539,73.07,70.289c20.493,31.713,32.585,68.408,34.974,106.116l6.167,97.386  C495.825,463.516,494.38,467.537,491.486,470.619z M223.311,213.117c-4.258-1.55-8.968,0.646-10.518,4.905l-4.792,13.167  c-1.55,4.258,0.646,8.968,4.905,10.518c0.927,0.337,1.873,0.497,2.805,0.497c3.351,0,6.499-2.07,7.712-5.402l4.792-13.167  C229.767,219.376,227.571,214.667,223.311,213.117z"/>
<g>
</g>
<g>
</g>
<g>
</g>
<g>
</g>
<g>
</g>
<g>
</g>
<g>
</g>
<g>
</g>
<g>
</g>
<g>
</g>
<g>
</g>
<g>
</g>
<g>
</g>
<g>
</g>
<g>
</g>
</svg>
