<?xml version="1.0" encoding="iso-8859-1"?>
<!-- Generator: Adobe Illustrator 19.0.0, SVG Export Plug-In . SVG Version: 6.00 Build 0)  -->
<svg xmlns="http://www.w3.org/2000/svg" xmlns:xlink="http://www.w3.org/1999/xlink" version="1.1" id="Capa_1" x="0px" y="0px" viewBox="0 0 511.999 511.999" style="enable-background:new 0 0 511.999 511.999;" xml:space="preserve">
<path style="fill:#F3C74F;" d="M335.409,352.651c-10.286,0-18.623-8.337-18.623-18.623s8.337-18.623,18.623-18.623  c31.696,0,53.582-22.791,57.116-59.479c0.986-10.238,10.086-17.741,20.323-16.75c10.238,0.986,17.737,10.085,16.75,20.323  C424.231,315.215,386.38,352.651,335.409,352.651z"/>
<path style="fill:#A27B5A;" d="M430.55,218.59l-26.433,7.083c-3.159,0.846-6.407-1.028-7.253-4.188l-31.869-118.931  c-0.846-3.159,1.028-6.407,4.188-7.253l26.433-7.083c3.159-0.847,6.407,1.028,7.253,4.188l31.868,118.932  C435.584,214.497,433.709,217.744,430.55,218.59z"/>
<g>
	<circle style="fill:#60523F;" cx="377.327" cy="72.819" r="19.605"/>
	<circle style="fill:#60523F;" cx="422.404" cy="241.065" r="19.605"/>
</g>
<g>
	
		<rect x="381.857" y="99.816" transform="matrix(-0.2588 -0.9659 0.9659 -0.2588 375.367 526.8737)" style="fill:#F3C74F;" width="15.943" height="39.209"/>
	
		<rect x="401.967" y="174.836" transform="matrix(-0.2588 -0.9659 0.9659 -0.2588 328.218 640.7355)" style="fill:#F3C74F;" width="15.943" height="39.209"/>
</g>
<path style="opacity:0.2;enable-background:new    ;" d="M408.344,218.351c-3.159,0.847-6.407-1.028-7.253-4.188L369.238,95.286  l-0.054,0.015c-3.159,0.846-5.034,4.094-4.188,7.253l31.868,118.932c0.846,3.159,4.094,5.034,7.253,4.188l26.433-7.083  c3.159-0.847,5.034-4.094,4.188-7.253l-0.015-0.055L408.344,218.351z"/>
<path style="fill:#F3C74F;" d="M181.156,504.028c-10.286,0-18.623-8.337-18.623-18.623v-70.52c0-10.286,8.337-18.623,18.623-18.623  c10.285,0,18.623,8.337,18.623,18.623v70.52C199.778,495.691,191.44,504.028,181.156,504.028z"/>
<path style="opacity:0.2;enable-background:new    ;" d="M181.156,396.263c-10.286,0-18.623,8.337-18.623,18.623v27.347  c11.582,5.612,24.096,9.61,37.245,11.709v-39.057C199.778,404.601,191.44,396.263,181.156,396.263z"/>
<path style="fill:#F3C74F;" d="M261.232,504.028c10.285,0,18.623-8.337,18.623-18.623v-70.52c0-10.286-8.337-18.623-18.623-18.623  s-18.623,8.337-18.623,18.623v70.52C242.61,495.691,250.948,504.028,261.232,504.028z"/>
<path style="opacity:0.2;enable-background:new    ;" d="M261.232,396.263c10.285,0,18.623,8.337,18.623,18.623v27.347  c-11.582,5.612-24.096,9.61-37.245,11.709v-39.057C242.61,404.601,250.948,396.263,261.232,396.263z"/>
<circle style="fill:#0081C6;" cx="324.352" cy="187.505" r="42.771"/>
<circle style="fill:#F3C74F;" cx="324.352" cy="187.505" r="19.969"/>
<path style="fill:#40BAB3;" d="M355.583,304.797c0-74.002-61.694-180.609-134.389-180.609S86.805,230.796,86.805,304.797  s60.168,133.992,134.389,133.992S355.583,378.799,355.583,304.797z"/>
<path style="fill:#FFFFFF;" d="M89.067,329.372c11.577,62.263,66.325,109.418,132.126,109.418s120.549-47.154,132.126-109.418  H89.067z"/>
<path style="fill:#0081C6;" d="M112.858,384.08c24.46,33.175,63.873,54.708,108.336,54.708c44.464,0,83.876-21.534,108.336-54.708  H112.858z"/>
<path style="opacity:0.2;enable-background:new    ;" d="M235.445,424.539c-74.221,0-134.389-59.99-134.389-133.992  c0-44.551,22.367-100.911,56.025-138.722c-41.454,36.593-70.277,102.394-70.277,152.972c0,74.002,60.168,133.992,134.389,133.992  c40.808,0,77.363-18.138,102.009-46.765C299.658,412.284,268.987,424.539,235.445,424.539z"/>
<g>
	<path style="fill:#F0B0B7;" d="M333.877,290.257h-22.436c-4.403,0-7.972-3.569-7.972-7.972c0-4.402,3.569-7.972,7.972-7.972h22.436   c4.403,0,7.972,3.569,7.972,7.972C341.848,286.687,338.279,290.257,333.877,290.257z"/>
	<path style="fill:#F0B0B7;" d="M177.092,290.257h-22.435c-4.403,0-7.972-3.569-7.972-7.972c0-4.402,3.569-7.972,7.972-7.972h22.435   c4.403,0,7.972,3.569,7.972,7.972C185.064,286.687,181.496,290.257,177.092,290.257z"/>
</g>
<path style="fill:#0081C6;" d="M155.496,186.165c0.027,0.87-0.081,1.747-0.301,2.59c-2.896,11.094-7.74,18.69-15.197,26.147  c-7.424,7.424-14.668,12.044-25.811,14.982c-0.951,0.251-1.941,0.374-2.924,0.34c-23.484-0.8-42.164-20.532-41.256-44.412  c0.842-22.168,18.905-40.232,41.073-41.073C135.016,143.829,154.786,162.601,155.496,186.165z"/>
<circle style="fill:#F3C74F;" cx="112.74" cy="187.474" r="19.969"/>
<path style="opacity:0.2;enable-background:new    ;" d="M120.387,223.683c-0.951,0.251-1.941,0.374-2.924,0.34  c-23.484-0.8-42.164-20.532-41.256-44.412c0.362-9.532,3.915-18.3,9.602-25.271c-9.242,7.539-15.323,18.836-15.802,31.471  c-0.907,23.88,17.773,43.613,41.256,44.412c0.983,0.034,1.973-0.089,2.924-0.34c11.143-2.938,18.387-7.557,25.811-14.983  c1.052-1.052,2.047-2.109,2.997-3.176C136.61,217.412,129.928,221.167,120.387,223.683z"/>
<path style="fill:#F3C74F;" d="M131.713,393.304c-15.431,0-29.202-5.772-38.816-16.276c-16.115-17.607-16.592-43.769-1.136-62.209  c6.607-7.882,18.353-8.916,26.234-2.31c7.882,6.607,8.917,18.353,2.31,26.234c-3.949,4.711-2.811,9.992,0.067,13.137  c5.82,6.358,20.632,6.539,40.605-7.395c8.437-5.883,20.044-3.816,25.928,4.618c5.884,8.435,3.817,20.044-4.618,25.928  c-17.231,12.021-34.116,18.167-50.184,18.268C131.973,393.303,131.842,393.304,131.713,393.304z"/>
<path style="fill:#FFFFFF;" d="M288.919,8.016c-13.702-0.594-26.132,4.854-34.879,13.892c-8.311-8.589-19.951-13.937-32.847-13.937  c-12.896,0-24.536,5.347-32.847,13.936c-8.746-9.037-21.177-14.486-34.878-13.892c-23.478,1.018-42.602,20.123-43.639,43.6  c-0.918,20.805,12.078,38.703,30.46,45.187c3.857,1.361,6.501,4.919,6.501,9.009v55.862h148.806v-55.862  c0-4.09,2.645-7.649,6.501-9.009c18.383-6.484,31.379-24.382,30.46-45.187C331.521,28.139,312.398,9.034,288.919,8.016z"/>
<g>
	<path style="opacity:0.2;fill:#25292F;enable-background:new    ;" d="M192.01,149.451c-4.403,0-7.972-3.569-7.972-7.972V93.858   c0-4.403,3.569-7.972,7.972-7.972s7.972,3.569,7.972,7.972v47.622C199.982,145.881,196.412,149.451,192.01,149.451z"/>
	<path style="opacity:0.2;fill:#25292F;enable-background:new    ;" d="M250.379,149.451c-4.403,0-7.972-3.569-7.972-7.972V93.858   c0-4.403,3.569-7.972,7.972-7.972s7.972,3.569,7.972,7.972v47.622C258.351,145.881,254.781,149.451,250.379,149.451z"/>
</g>
<rect x="146.795" y="130.141" style="fill:#7E858B;" width="148.805" height="31.531"/>
<path style="opacity:0.2;enable-background:new    ;" d="M153.9,88.147c-18.383-6.484-31.379-24.382-30.46-45.187  c0.55-12.437,6.175-23.644,14.834-31.589c-16.051,6.598-27.644,22.114-28.444,40.244c-0.918,20.805,12.078,38.703,30.46,45.187  c3.857,1.361,6.501,4.919,6.501,9.009v55.862h13.61V97.156C160.402,93.066,157.757,89.507,153.9,88.147z"/>
<path d="M449.045,233.931c-1.424-5.314-4.332-9.976-8.371-13.531c0.125-0.195,0.259-0.382,0.376-0.584  c1.856-3.214,2.348-6.958,1.388-10.543L410.57,90.343c-0.961-3.584-3.26-6.58-6.474-8.437c-0.207-0.12-0.423-0.218-0.635-0.326  c1.673-4.968,1.957-10.462,0.501-15.895l0,0c-3.936-14.687-19.087-23.434-33.776-19.5c-7.115,1.907-13.062,6.47-16.745,12.848  c-3.683,6.379-4.661,13.811-2.755,20.926c1.424,5.316,4.332,9.977,8.371,13.532c-0.125,0.195-0.259,0.382-0.375,0.582  c-1.857,3.214-2.349,6.959-1.388,10.543l31.868,118.933c1.057,3.94,3.717,7.026,7.09,8.756c-0.447,1.326-0.789,2.681-1.027,4.051  c-6.005,4.452-9.907,11.249-10.635,18.806c-1.865,19.368-9.402,34.577-21.185,43.452c-0.891-21.103-6.241-44.119-14.972-66.43  c16.228-8.738,26.663-25.779,26.663-44.675c0-27.98-22.764-50.743-50.744-50.743c-7.244,0-14.31,1.542-20.785,4.45v-35.406  c0-0.653,0.463-1.237,1.181-1.491c22.448-7.918,36.824-29.239,35.773-53.055c-1.215-27.525-23.73-50.02-51.257-51.213  c-12.762-0.55-25.234,3.465-35.212,11.176C244.693,3.941,233.272,0,221.194,0c-12.078,0-23.5,3.941-32.859,11.228  c-9.978-7.712-22.464-11.731-35.212-11.176c-27.527,1.193-50.042,23.689-51.257,51.211c-1.052,23.817,13.323,45.139,35.773,53.058  c0.717,0.253,1.181,0.838,1.181,1.49v38.128c-8.369-5.033-18.027-7.543-28.043-7.168c-26.329,1-47.737,22.408-48.736,48.737  c-0.517,13.609,4.295,26.581,13.55,36.527c4.997,5.37,10.962,9.5,17.522,12.25c-9.231,24.305-14.278,49.056-14.278,70.511  c0,4.608,0.237,9.238,0.679,13.811c-11.442,20.489-8.868,45.913,7.504,63.801c7.431,8.118,16.978,13.787,27.761,16.67  c11.43,12.822,24.927,23.328,39.785,31.178v55.147c0,14.664,11.93,26.594,26.594,26.594s26.595-11.93,26.595-26.594v-39.29  c4.448,0.42,8.932,0.645,13.445,0.645c4.534,0,9.017-0.222,13.443-0.638v39.283c0,14.664,11.931,26.594,26.595,26.594  s26.595-11.93,26.595-26.594v-55.188c29.027-15.397,52.105-40.518,64.838-70.981c45.43-7.412,77.981-43.927,84.391-94.789  c3.778-2.361,6.945-5.624,9.234-9.59C449.973,248.478,450.952,241.047,449.045,233.931z M324.354,152.709  c19.188,0,34.8,15.611,34.8,34.799c0,12.465-6.629,23.737-17.035,29.913c-0.969-2.082-1.97-4.151-2.994-6.207  c7.984-4.981,13.17-13.821,13.17-23.706c0-15.407-12.535-27.94-27.941-27.94c-5.677,0-11.126,1.729-15.697,4.833  c-1.496-1.768-3.014-3.495-4.552-5.187C309.984,155.002,317.036,152.709,324.354,152.709z M336.351,187.51  c0,3.889-1.867,7.401-4.812,9.608c-4.038-6.967-8.389-13.69-13.01-20.079c1.759-0.979,3.754-1.525,5.825-1.525  C330.97,175.512,336.351,180.894,336.351,187.51z M117.793,51.967c0.854-19.342,16.676-35.149,36.02-35.986  c10.805-0.463,21.296,3.713,28.804,11.471c1.502,1.552,3.569,2.428,5.729,2.428c2.16,0,4.227-0.876,5.729-2.428  c7.181-7.421,16.812-11.508,27.118-11.508s19.937,4.087,27.119,11.508c1.502,1.552,3.569,2.428,5.729,2.428  c2.16,0,4.227-0.876,5.729-2.428c7.507-7.759,18.013-11.947,28.804-11.471l0,0c19.345,0.839,35.166,16.646,36.02,35.988  c0.74,16.754-9.366,31.751-25.148,37.316c-7.07,2.494-11.822,9.136-11.822,16.527v16.358H154.763v-16.358  c0-7.391-4.751-14.033-11.822-16.526C127.16,83.719,117.053,68.723,117.793,51.967z M287.626,138.114v15.587H154.763v-15.587  H287.626z M87.262,211.176c-6.345-6.821-9.645-15.72-9.29-25.062c0.686-18.049,15.361-32.724,33.41-33.41  c0.456-0.017,0.91-0.026,1.364-0.026c8.866,0,17.254,3.297,23.748,9.363c1.27,1.186,2.438,2.451,3.502,3.784  c0.281,0.457,0.604,0.883,0.967,1.274c4.059,5.592,6.354,12.255,6.567,19.306c0.001,0.046-0.002,0.164-0.047,0.336  c-2.359,9.038-6.161,15.564-13.12,22.523c-6.896,6.896-13.123,10.515-22.21,12.911c-0.283,0.075-0.488,0.086-0.619,0.081  C102.235,221.94,93.615,218.005,87.262,211.176z M131.713,385.333c-13.162,0-24.858-4.861-32.936-13.686  c-13.383-14.622-13.764-36.367-0.908-51.706c2.103-2.509,5.126-3.804,8.172-3.804c2.414,0,4.843,0.815,6.833,2.483  c4.5,3.772,5.093,10.504,1.321,15.005c-6.006,7.165-5.885,16.886,0.295,23.641c9.969,10.888,30.006,8.439,51.046-6.239  c4.819-3.359,11.472-2.174,14.831,2.64c1.628,2.333,2.25,5.16,1.752,7.962c-0.5,2.801-2.059,5.24-4.392,6.868  c-15.883,11.08-31.249,16.744-45.686,16.834L131.713,385.333z M191.806,485.406c0,5.872-4.778,10.65-10.651,10.65  c-5.872,0-10.65-4.778-10.65-10.65v-47.949c6.908,2.624,14.027,4.715,21.301,6.243V485.406z M271.883,485.406  c0,5.872-4.778,10.65-10.651,10.65c-5.872,0-10.651-4.778-10.651-10.65v-41.693c7.322-1.539,14.438-3.643,21.303-6.259  L271.883,485.406L271.883,485.406z M221.194,430.818c-30.218,0-59.12-10.738-81.816-29.957c15.47-1.618,31.403-8.081,47.47-19.289  c5.826-4.065,9.721-10.155,10.966-17.148c1.245-6.994-0.307-14.054-4.372-19.88c-8.391-12.025-24.999-14.983-37.027-6.594  c-10.292,7.179-17.687,9.367-22.077,9.939c-4.492,0.584-7.121-0.335-8.085-1.388c-1.068-1.168-0.238-2.159,0.162-2.635  c9.419-11.238,7.94-28.046-3.299-37.466c-8.155-6.834-19.237-7.926-28.305-3.722c0.329-19.641,5.218-42.294,13.925-64.62  c0.749,0.058,1.501,0.106,2.258,0.132c0.197,0.006,0.392,0.01,0.589,0.01c1.547,0,3.104-0.204,4.636-0.609  c11.925-3.144,20.447-8.084,29.416-17.053c9.013-9.013,14.179-17.917,17.273-29.77c0.418-1.599,0.605-3.228,0.557-4.841v-0.003  c-0.17-5.655-1.27-11.133-3.196-16.279h131.769c32.831,35.895,55.575,90.974,55.575,135.152  C347.611,374.285,290.901,430.818,221.194,430.818z M366.089,75.832c-0.805-3.002-0.392-6.136,1.162-8.827  c1.553-2.691,4.062-4.616,7.063-5.421c1.005-0.27,2.015-0.399,3.009-0.399c5.136,0,9.849,3.432,11.24,8.624l0,0  c1.66,6.197-2.03,12.588-8.226,14.248c-3.002,0.806-6.136,0.392-8.827-1.162C368.818,81.343,366.892,78.835,366.089,75.832z   M373.226,102.471l11.227-3.008c0.003-0.001,0.006-0.001,0.01-0.002c0.004-0.001,0.008-0.002,0.012-0.004l11.225-3.008  l30.807,114.972l-11.233,3.01c-0.002,0.001-0.003,0.001-0.005,0.001l-0.005,0.001l-11.232,3.009L373.226,102.471z M397.376,317.757  c-10.496,11.682-23.708,19.783-38.688,23.864c2.109-7.824,3.562-15.913,4.298-24.204c20.902-9.884,34.377-31.309,37.37-59.773  c2.202,2.931,4.992,5.419,8.263,7.306c3.639,2.101,7.621,3.315,11.691,3.622C416.887,287.89,409.061,304.752,397.376,317.757z   M432.483,246.885c-1.554,2.691-4.062,4.616-7.064,5.421c-3.002,0.805-6.136,0.391-8.827-1.162  c-2.691-1.554-4.616-4.062-5.421-7.064l0,0c-0.804-3.002-0.391-6.136,1.163-8.827c1.553-2.69,4.061-4.616,7.063-5.42l0.002-0.001  c1.002-0.269,2.018-0.402,3.029-0.402c2.016,0,4.005,0.529,5.798,1.564c2.691,1.554,4.616,4.062,5.421,7.064  C434.449,241.059,434.037,244.195,432.483,246.885z M140.685,187.478c0-15.407-12.535-27.94-27.94-27.94  c-15.407,0-27.941,12.535-27.941,27.94c0,15.407,12.535,27.94,27.941,27.94S140.685,202.883,140.685,187.478z M100.748,187.478  c0-6.615,5.383-11.997,11.998-11.997s11.997,5.382,11.997,11.997c0,6.615-5.381,11.997-11.997,11.997  C106.129,199.475,100.748,194.092,100.748,187.478z M270.595,250.821c-4.402,0-7.972,3.569-7.972,7.972  c0,2.862-2.329,5.192-5.192,5.192c-2.862,0-5.192-2.329-5.192-5.192c0-4.403-3.569-7.972-7.972-7.972s-7.972,3.569-7.972,7.972  c0,2.862-2.329,5.192-5.192,5.192c-2.862,0-5.192-2.329-5.192-5.192c0-4.403-3.569-7.972-7.972-7.972s-7.972,3.569-7.972,7.972  c0,11.654,9.481,21.136,21.136,21.136c4.973,0,9.55-1.726,13.164-4.611c3.614,2.885,8.191,4.611,13.164,4.611  c11.654,0,21.136-9.481,21.136-21.136C278.567,254.39,274.998,250.821,270.595,250.821z M165.875,241.406  c-4.403,0-7.972,3.569-7.972,7.972v3.679c0,4.403,3.569,7.972,7.972,7.972s7.972-3.569,7.972-7.972v-3.679  C173.847,244.975,170.278,241.406,165.875,241.406z M322.659,261.028c4.402,0,7.972-3.569,7.972-7.972v-3.679  c0-4.403-3.569-7.972-7.972-7.972c-4.403,0-7.972,3.569-7.972,7.972v3.679C314.687,257.459,318.256,261.028,322.659,261.028z"/>
<g>
</g>
<g>
</g>
<g>
</g>
<g>
</g>
<g>
</g>
<g>
</g>
<g>
</g>
<g>
</g>
<g>
</g>
<g>
</g>
<g>
</g>
<g>
</g>
<g>
</g>
<g>
</g>
<g>
</g>
</svg>
