<?xml version="1.0" encoding="iso-8859-1"?>
<!-- Generator: Adobe Illustrator 19.0.0, SVG Export Plug-In . SVG Version: 6.00 Build 0)  -->
<svg xmlns="http://www.w3.org/2000/svg" xmlns:xlink="http://www.w3.org/1999/xlink" version="1.1" id="Capa_1" x="0px" y="0px" viewBox="0 0 512.002 512.002" style="enable-background:new 0 0 512.002 512.002;" xml:space="preserve">
<g>
	<path style="fill:#E6595A;" d="M10.172,176.825c0.682-24.791,6.621-37.413,13.856-46.916c0.967-1.271,2.958-1.266,3.835,0.069   c4.066,6.188,12.742,6.438,18.44,17.761c-3.393-20.972,16.551-62.336,39.069-88.27c2.391-2.754,6.976-1.643,7.78,1.915   c6.253,27.655,35.088,60.644,35.696,75.867c2.856-4.569,12.458-22.39,22.707-32.721c2.593-2.614,7.001-1.906,8.61,1.405   c15.031,30.922,27.884,36.842,27.884,75.749c0,48.893-39.438,88.575-88.239,88.969C48.883,271.064,8.772,227.736,10.172,176.825z"/>
	<path style="fill:#E6595A;" d="M501.829,276.325c-0.607-22.064-5.892-33.298-12.331-41.756c-0.861-1.132-2.632-1.126-3.413,0.062   c-3.618,5.508-11.341,5.73-16.413,15.807c3.02-18.665-14.73-55.478-34.771-78.561c-2.128-2.451-6.209-1.462-6.925,1.705   c-5.566,24.613-31.229,53.974-31.77,67.522c-2.541-4.066-11.088-19.928-20.209-29.122c-2.308-2.326-6.231-1.696-7.664,1.251   c-13.377,27.521-24.817,32.789-24.817,67.417c0,43.516,35.1,78.833,78.533,79.183C467.377,360.199,503.076,321.637,501.829,276.325   z"/>
	<path style="fill:#E6595A;" d="M429.246,26.506c2.05-1.401,4.821,0.193,4.707,2.673c-1.504,32.803,15.909,36.258,23.973,51.252   c14.652,27.247-1.495,46.841-11.862,53.926c-2.05,1.401-4.82-0.193-4.707-2.673c1.504-32.803-15.909-36.258-23.973-51.253   C402.732,53.185,418.878,33.59,429.246,26.506z"/>
	<path style="fill:#E6595A;" d="M45.54,8.4c-1.583-1.081-3.723,0.149-3.634,2.064c1.162,25.331-12.285,27.998-18.511,39.577   c-11.314,21.039,1.153,36.17,9.159,41.641c1.583,1.081,3.723-0.148,3.634-2.064c-1.162-25.33,12.285-27.998,18.511-39.577   C66.014,29.001,53.545,13.87,45.54,8.4z"/>
</g>
<path style="fill:#892641;" d="M355.242,408.357c-29.187,0-58.017-15.214-78.068-42.542l19.758-14.497  c19.663,26.798,49.783,38.412,76.736,29.583c30.14-9.871,48.133-42.346,48.133-86.87h24.506c0,28.655-6.196,53.12-18.417,72.716  c-11.374,18.238-27.485,31.186-46.594,37.445C372.732,406.995,363.967,408.357,355.242,408.357z"/>
<path style="opacity:0.3;enable-background:new    ;" d="M421.8,294.032c0,4.926-0.233,9.694-0.665,14.31h24.615  c0.361-4.649,0.556-9.414,0.556-14.31H421.8z"/>
<path style="fill:#892641;" d="M428.479,243.452l-28.334,39.764c-3.228,4.53,0.011,10.816,5.574,10.816h56.667  c5.563,0,8.802-6.285,5.574-10.816l-28.334-39.764C436.898,239.623,431.208,239.623,428.479,243.452z"/>
<path style="fill:#40BAB3;" d="M380.041,276.029c0-84.68-70.596-206.671-153.783-206.671S72.477,191.348,72.477,276.029  s68.851,153.328,153.783,153.328S380.041,360.709,380.041,276.029z"/>
<path style="fill:#F3C74F;" d="M180.443,504.01c-11.769,0-21.31-9.54-21.31-21.31v-80.695c0-11.769,9.54-21.31,21.31-21.31  s21.31,9.54,21.31,21.31V482.7C201.753,494.469,192.212,504.01,180.443,504.01z"/>
<path style="opacity:0.2;enable-background:new    ;" d="M180.443,380.695c-11.769,0-21.31,9.54-21.31,21.31v31.294  c13.254,6.422,27.573,10.996,42.62,13.399v-44.693C201.753,390.235,192.212,380.695,180.443,380.695z"/>
<path style="fill:#F3C74F;" d="M272.076,504.01c11.769,0,21.31-9.54,21.31-21.31v-80.695c0-11.769-9.54-21.31-21.31-21.31  c-11.769,0-21.31,9.54-21.31,21.31V482.7C250.766,494.469,260.306,504.01,272.076,504.01z"/>
<path style="opacity:0.2;enable-background:new    ;" d="M272.076,380.695c11.769,0,21.31,9.54,21.31,21.31v31.294  c-13.254,6.422-27.573,10.996-42.62,13.399v-44.693C250.766,390.235,260.306,380.695,272.076,380.695z"/>
<circle style="fill:#0081C6;" cx="108.211" cy="141.818" r="48.943"/>
<circle style="fill:#F3C74F;" cx="108.211" cy="141.818" r="22.851"/>
<path style="opacity:0.2;enable-background:new    ;" d="M137.145,102.347c-23.011,20.797-42.529,49.427-56.393,79.985  c7.83,5.318,17.281,8.427,27.461,8.427c27.03,0,48.943-21.913,48.943-48.943C157.156,125.613,149.277,111.254,137.145,102.347z"/>
<path style="fill:#892641;" d="M184.152,89.244L184.152,89.244c-11.359-8.914-20.654-20.181-27.245-33.028l0,0  c-1.59-3.097-6.027-3.066-7.574,0.052l-1.851,3.733c-7.62,15.376-7.845,33.38-0.613,48.941l0,0  c1.966,4.229,5.688,7.384,10.182,8.629l0,0c10.844,3.005,22.43-0.813,29.363-9.675l0,0  C190.936,102.121,189.923,93.774,184.152,89.244z"/>
<path style="fill:#40BAB3;" d="M380.041,276.029c0-84.68-70.596-206.671-153.783-206.671S72.477,191.348,72.477,276.029  s68.851,153.328,153.783,153.328S380.041,360.709,380.041,276.029z"/>
<path style="fill:#FFFFFF;" d="M75.067,304.15c13.247,71.248,75.895,125.207,151.192,125.207s137.945-53.959,151.192-125.207  L75.067,304.15L75.067,304.15z"/>
<path style="fill:#0081C6;" d="M102.291,366.753c27.989,37.961,73.089,62.603,123.969,62.603s95.98-24.642,123.969-62.603H102.291z"/>
<path style="opacity:0.2;enable-background:new    ;" d="M242.566,413.05c-84.931,0-153.783-68.646-153.783-153.328  c0-50.981,25.593-115.473,64.111-158.739c-47.436,41.874-80.417,117.17-80.417,175.045c0,84.68,68.851,153.328,153.783,153.328  c46.696,0,88.526-20.756,116.729-53.513C316.046,399.027,280.949,413.05,242.566,413.05z"/>
<g>
	<path style="fill:#25292F;" d="M110.153,224.813c-4.413,0-7.991-3.578-7.991-7.991v-4.21c0-4.413,3.578-7.991,7.991-7.991   s7.991,3.578,7.991,7.991v4.21C118.144,221.235,114.566,224.813,110.153,224.813z"/>
	<path style="fill:#25292F;" d="M289.561,224.813c-4.413,0-7.991-3.578-7.991-7.991v-4.21c0-4.413,3.578-7.991,7.991-7.991   s7.991,3.578,7.991,7.991v4.21C297.552,221.235,293.974,224.813,289.561,224.813z"/>
	<path style="fill:#25292F;" d="M214.92,246.44c-5.753,0-11.02-2.118-15.063-5.615c-4.044,3.497-9.311,5.615-15.064,5.615   c-12.712,0-23.054-10.342-23.054-23.054c0-4.413,3.578-7.991,7.991-7.991s7.991,3.578,7.991,7.991c0,3.9,3.173,7.072,7.072,7.072   c3.9,0,7.073-3.172,7.073-7.072c0-4.413,3.578-7.991,7.991-7.991s7.991,3.578,7.991,7.991c0,3.9,3.173,7.072,7.072,7.072   c3.9,0,7.073-3.172,7.073-7.072c0-4.413,3.578-7.991,7.991-7.991s7.991,3.578,7.991,7.991   C237.975,236.098,227.632,246.44,214.92,246.44z"/>
</g>
<g>
	<path style="fill:#F0B0B7;" d="M122.989,258.259H97.317c-4.413,0-7.991-3.578-7.991-7.991s3.578-7.991,7.991-7.991h25.673   c4.413,0,7.991,3.578,7.991,7.991C130.98,254.681,127.402,258.259,122.989,258.259z"/>
	<path style="fill:#F0B0B7;" d="M302.397,258.259h-25.673c-4.413,0-7.991-3.578-7.991-7.991s3.578-7.991,7.991-7.991h25.673   c4.413,0,7.991,3.578,7.991,7.991S306.81,258.259,302.397,258.259z"/>
</g>
<path style="fill:#0081C6;" d="M301.438,140.278c-0.03,0.996,0.093,1.999,0.345,2.963c3.314,12.695,8.857,21.387,17.391,29.92  c8.496,8.496,16.785,13.782,29.537,17.144c1.089,0.288,2.22,0.427,3.347,0.389c26.873-0.915,48.248-23.495,47.21-50.821  c-0.963-25.367-21.633-46.037-47-47C324.872,91.832,302.251,113.314,301.438,140.278z"/>
<g>
	<circle style="fill:#F3C74F;" cx="350.354" cy="141.775" r="22.851"/>
	<path style="fill:#F3C74F;" d="M293.181,376.069c-15.584,0-30.001-5.173-41.406-15.018c-13.785-11.898-22.015-29.657-22.015-47.503   c0-11.769,9.54-21.31,21.31-21.31s21.31,9.54,21.31,21.31c0,4.146,1.897,10.625,7.243,15.24c4.586,3.958,10.662,5.412,18.056,4.321   c7.551-1.116,25.985-7.187,34.048-39.399c2.858-11.417,14.431-18.355,25.846-15.498c11.417,2.858,18.356,14.429,15.498,25.846   c-9.926,39.661-35.782,66.282-69.164,71.213C300.287,375.804,296.703,376.069,293.181,376.069z"/>
	<path style="fill:#F3C74F;" d="M140.448,289.897c-11.573-2.149-22.694,5.487-24.844,17.059   c-3.599,19.37-15.212,35.657-23.908,39.638c-2.649,1.211-4.011,0.906-5.888-0.191c-1.186-0.691-3.171-1.851-3.176-6.896   c-0.002-1.92,0.319-4.056,0.908-6.294c-7.003-17.359-10.912-36.29-11.048-56.115c-19.501,15.071-32.503,39.524-32.479,62.454   c0.02,18.741,8.882,34.655,24.315,43.662c0.03,0.017,0.06,0.031,0.088,0.048c7.705,4.477,15.975,6.729,24.335,6.729   c6.927,0,13.915-1.545,20.69-4.647c12.035-5.511,23.097-15.815,31.99-29.799c7.74-12.17,13.449-26.661,16.077-40.803   C159.657,303.171,152.019,292.047,140.448,289.897z"/>
</g>
<path style="opacity:0.2;enable-background:new    ;" d="M83.539,333.213c-7.003-17.359-10.912-36.29-11.048-56.115  c-3.722,2.876-7.205,6.096-10.407,9.58c2.708,19.318,9.389,47.338,20.937,56.14c-0.238-0.865-0.388-1.941-0.39-3.31  C82.629,337.587,82.95,335.451,83.539,333.213z"/>
<path style="fill:#892641;" d="M265.169,89.244L265.169,89.244c11.359-8.914,20.654-20.181,27.245-33.028l0,0  c1.59-3.097,6.027-3.066,7.574,0.052l1.851,3.733c7.62,15.376,7.845,33.38,0.613,48.941l0,0c-1.966,4.229-5.688,7.384-10.182,8.629  l0,0c-10.844,3.005-22.43-0.813-29.363-9.675l0,0C258.385,102.121,259.399,93.774,265.169,89.244z"/>
<path d="M420.691,97.507c7.285,7.691,13.575,14.333,12.683,33.811c-0.193,4.209,1.975,8.1,5.66,10.154  c1.683,0.939,3.527,1.403,5.363,1.403c2.159,0,4.309-0.645,6.176-1.92c13.302-9.09,31.302-32.862,14.392-64.309  c-2.945-5.477-6.707-9.448-10.345-13.289c-7.285-7.691-13.577-14.333-12.683-33.813c0.193-4.209-1.977-8.099-5.661-10.153  c-3.662-2.041-8.082-1.843-11.537,0.517c-13.302,9.09-31.302,32.862-14.392,64.308C413.291,89.694,417.053,93.666,420.691,97.507z   M426.213,40.348c1.759,18.122,9.98,26.8,16.801,34.002c3.185,3.363,5.936,6.266,7.873,9.868c9.003,16.744,3.829,29.083-1.792,36.3  c-1.759-18.119-9.98-26.799-16.801-34.001c-3.185-3.363-5.936-6.267-7.873-9.869C415.418,59.904,420.593,47.564,426.213,40.348z   M28.046,98.28c1.753,1.197,3.769,1.801,5.794,1.801c1.722,0,3.45-0.437,5.028-1.317c3.451-1.924,5.483-5.57,5.303-9.514  c-0.654-14.268,3.737-18.904,9.296-24.774c2.756-2.91,5.88-6.21,8.27-10.652c13.669-25.418-0.916-44.66-11.69-52.023L50.047,1.8  c-3.242-2.214-7.389-2.398-10.823-0.485c-3.451,1.925-5.483,5.57-5.302,9.514c0.655,14.268-3.737,18.904-9.296,24.774  c-2.756,2.91-5.882,6.209-8.27,10.652C2.687,71.677,17.273,90.917,28.046,98.28z M30.433,53.825c1.381-2.568,3.428-4.729,5.797-7.23  c4.838-5.108,10.554-11.142,12.782-22.533c2.669,5.266,3.755,12.7-1.35,22.193c-1.381,2.568-3.428,4.729-5.797,7.231  c-4.837,5.107-10.554,11.143-12.782,22.532C26.414,70.754,25.328,63.319,30.433,53.825z M237.975,223.386  c0-4.413-3.578-7.991-7.991-7.991s-7.991,3.578-7.991,7.991c0,3.9-3.172,7.072-7.073,7.072c-3.9,0-7.072-3.172-7.072-7.072  c0-4.413-3.578-7.991-7.991-7.991s-7.991,3.578-7.991,7.991c0,3.9-3.172,7.072-7.073,7.072c-3.9,0-7.072-3.172-7.072-7.072  c0-4.413-3.578-7.991-7.991-7.991s-7.991,3.578-7.991,7.991c0,12.712,10.343,23.054,23.054,23.054c5.753,0,11.02-2.118,15.064-5.615  c4.042,3.497,9.31,5.615,15.063,5.615C227.632,246.44,237.975,236.098,237.975,223.386z M509.818,276.105  c-0.56-20.39-4.736-34.26-13.962-46.378c-1.986-2.608-5.136-4.105-8.42-3.982c-3.251,0.113-6.252,1.794-8.03,4.499  c-0.472,0.718-1.662,1.518-3.088,2.429c-4.92-21.619-19.978-48.291-35.384-66.035c-2.979-3.431-7.578-4.869-12-3.758  c-4.403,1.107-7.757,4.533-8.753,8.939c-2.635,11.651-10.718,25.268-17.848,37.283c-2.942,4.956-5.646,9.514-7.885,13.727  c-3.664-5.631-8.076-11.736-12.777-16.475c-1.985-2.001-4.594-3.267-7.355-3.645c-0.932-2.665-1.916-5.326-2.937-7.984  c7.76-3.076,14.805-7.87,20.668-14.171c10.383-11.16,15.783-25.715,15.202-40.985c-1.122-29.541-25.14-53.56-54.682-54.682  c-13.973-0.526-27.347,3.963-38.071,12.688c2.739-13.797,0.911-28.188-5.498-41.121l-1.851-3.733  c-2.063-4.162-6.23-6.768-10.875-6.8c-0.029,0-0.059,0-0.087,0c-4.61,0-8.774,2.541-10.881,6.649  c-3.661,7.137-8.307,13.814-13.714,19.786c-14.973-7.289-30.195-10.988-45.331-10.988c-15.954,0-31.877,4.058-47.531,12.073  c-5.844-6.24-10.791-13.23-14.711-20.871c-2.108-4.107-6.27-6.649-10.881-6.649c-0.029,0-0.059,0-0.088,0  c-4.644,0.032-8.812,2.638-10.873,6.799l-1.851,3.733c-5.37,10.836-7.515,22.797-6.43,34.561  c-6.943-3.508-14.587-5.587-22.453-6.036c-4.171-7.71-8.569-16.856-10.491-25.358c-1.037-4.587-4.529-8.152-9.112-9.305  c-4.608-1.158-9.394,0.341-12.497,3.912c-17.566,20.231-34.731,50.809-39.859,75.13c-0.204-0.13-0.404-0.258-0.601-0.383  c-2.028-1.288-3.628-2.307-4.338-3.387c-1.82-2.77-4.898-4.493-8.232-4.608c-3.384-0.117-6.602,1.411-8.639,4.086  c-12.86,16.891-15.046,35.531-15.486,51.538c-1.161,42.214,24.212,80.601,62.352,95.524c-0.01,0.387-0.009,0.769-0.015,1.155  c-19.874,16.836-32.526,42.432-32.501,66.278c0.022,21.654,10.33,40.081,28.249,50.537c0.069,0.042,0.156,0.091,0.242,0.136  c8.887,5.141,18.388,7.747,28.239,7.747c8.151,0,16.232-1.807,24.017-5.372c0.376-0.173,0.748-0.363,1.122-0.543  c11.242,10.849,23.77,19.883,37.253,26.951v63.683c0,16.157,13.144,29.301,29.301,29.301s29.301-13.144,29.301-29.301V436.53  c5.448,0.544,10.959,0.819,16.515,0.819c5.575,0,11.084-0.282,16.515-0.834v46.186c0,16.157,13.144,29.301,29.301,29.301  s29.301-13.144,29.301-29.301v-63.834c5.798-3.044,11.389-6.429,16.747-10.129c12.002,5.048,24.465,7.612,37.117,7.612  c9.692,0,19.294-1.535,28.541-4.564c20.912-6.849,38.509-20.96,50.887-40.809c0.897-1.439,1.758-2.908,2.594-4.394  c19.942-3.439,38.076-13.908,51.426-29.784C502.925,319.868,510.429,298.314,509.818,276.105z M369.964,350.058  c6.301,4.795,13.213,8.703,20.545,11.618c-5.575,5.298-12.049,9.247-19.329,11.632c-5.741,1.881-11.771,2.696-17.858,2.458  C359.647,367.772,365.227,359.166,369.964,350.058z M302.739,367.366c-3.204,0.473-6.42,0.713-9.557,0.713  c-13.762,0-26.274-4.522-36.185-13.077c-12.051-10.401-19.246-25.899-19.246-41.453c0-7.344,5.974-13.319,13.319-13.319  s13.319,5.974,13.319,13.319c0,6.114,2.631,14.917,10.013,21.289c4.416,3.811,12.243,7.976,24.445,6.177  c9.141-1.35,31.398-8.474,40.632-45.363c1.784-7.124,9.03-11.471,16.154-9.686c3.451,0.864,6.359,3.02,8.188,6.071  c1.829,3.051,2.361,6.632,1.498,10.083C356.204,338.532,332.81,362.924,302.739,367.366z M322.41,111.847  c8.034-7.504,18.526-11.407,29.551-10.988c21.241,0.807,38.511,18.077,39.318,39.318c0.418,10.993-3.465,21.465-10.932,29.492  c-7.478,8.036-17.621,12.667-28.566,13.04c-0.316,0.011-0.673-0.034-1.036-0.13c-10.609-2.798-17.877-7.022-25.922-15.068  c-8.119-8.118-12.555-15.734-15.31-26.288c-0.064-0.246-0.095-0.489-0.088-0.703C309.755,129.542,314.367,119.359,322.41,111.847z   M270.104,95.531L270.104,95.531c10.251-8.043,19.08-18.053,25.833-29.234c5.317,12.61,5.086,26.763-0.731,39.279  c-0.98,2.109-2.828,3.675-5.07,4.296c-7.756,2.149-15.975-0.557-20.935-6.898C267.399,100.674,267.804,97.335,270.104,95.531z   M153.383,66.306c3.303,5.485,7.086,10.644,11.303,15.452c-0.705,0.474-1.413,0.937-2.117,1.427c-4.163,2.9-8.291,6.11-12.366,9.578  C148.782,83.876,149.847,74.716,153.383,66.306z M108.213,100.864c9.03,0,17.765,3.019,24.855,8.429  c-2.265,2.458-4.502,4.993-6.702,7.61c-5.209-3.794-11.542-5.927-18.153-5.927c-17.006,0-30.842,13.835-30.842,30.842  c0,11.249,6.087,21.299,15.38,26.69c-1.517,3.023-2.983,6.07-4.392,9.138c-12.855-7.12-21.099-20.747-21.099-35.827  C67.26,119.235,85.632,100.864,108.213,100.864z M116.496,129.492c-1.666,2.273-3.312,4.581-4.923,6.94  c-3.963,5.804-7.712,11.817-11.247,17.976c-4.228-2.652-6.974-7.348-6.974-12.592c0-8.194,6.666-14.859,14.859-14.859  C111.205,126.957,114.077,127.867,116.496,129.492z M87.198,69.779c1.888,5.815,4.43,11.538,7.078,16.835  c-11.248,2.842-21.168,9.041-28.642,17.463C71.397,92.336,78.886,80.238,87.198,69.779z M18.16,177.044  c0.519-18.856,4.269-29.596,8.607-36.949c1.191,0.877,2.392,1.641,3.535,2.369c3.471,2.207,6.469,4.113,8.862,8.867  c1.772,3.523,5.848,5.224,9.601,4.009c1.446-0.469,2.673-1.319,3.603-2.407c3.362,16.929,14.278,31.502,29.688,39.464  c-8.313,21.082-13.947,42.636-16.314,62.895C36.396,241.615,17.232,210.791,18.16,177.044z M106.113,378.078  c-5.682,2.602-11.524,3.921-17.363,3.921c-7.035,0-13.872-1.9-20.37-5.676c-0.038-0.022-0.084-0.048-0.132-0.074  c-12.851-7.549-20.228-20.921-20.245-36.706c-0.016-15.374,6.607-31.746,17.589-44.785c1.569,13.387,4.809,26.545,9.624,39.089  c-0.376,1.983-0.577,3.885-0.575,5.668c0.011,9.629,5.376,12.76,7.139,13.789c4.393,2.564,8.476,2.736,13.244,0.554  c12.458-5.705,24.684-25.242,28.437-45.444c1.341-7.219,8.307-11.999,15.528-10.661c3.498,0.65,6.533,2.623,8.546,5.557  s2.765,6.474,2.115,9.971c-2.446,13.162-7.76,26.648-14.964,37.975C126.622,363.936,116.742,373.211,106.113,378.078z   M193.762,482.7c0,7.344-5.974,13.319-13.319,13.319c-7.344,0-13.319-5.974-13.319-13.319v-56.397  c8.603,3.362,17.505,5.983,26.637,7.823V482.7z M285.394,482.7c0,7.344-5.974,13.319-13.319,13.319  c-7.344,0-13.319-5.974-13.319-13.319v-48.623c9.185-1.875,18.088-4.529,26.637-7.889V482.7z M226.26,421.366  c-36.934,0-71.555-13.497-98.488-38.181c7.542-6.116,14.446-13.988,20.401-23.351c8.275-13.012,14.38-28.507,17.191-43.632  c1.43-7.695-0.223-15.486-4.652-21.937c-4.43-6.453-11.108-10.793-18.804-12.223c-15.886-2.947-31.208,7.572-34.161,23.456  c-2.393,12.878-8.918,24.176-14.532,30.039c-8.359-18.593-12.745-38.987-12.745-59.506c0-26.392,7.208-56.823,19.783-85.897  c-0.176,2.248,0.59,4.557,2.311,6.277l8.245,8.245c-0.216-0.017-0.434-0.033-0.654-0.033c-4.413,0-7.991,3.578-7.991,7.991v4.21  c0,4.413,3.578,7.991,7.991,7.991c4.413,0,7.991-3.578,7.991-7.991v-4.21c0-0.242-0.015-0.479-0.036-0.715  c1.465,1.197,3.256,1.794,5.046,1.794c2.045,0,4.09-0.781,5.65-2.341c3.121-3.121,3.121-8.181,0-11.301l-14.94-14.94  c-3.121-3.121-8.181-3.121-11.301,0c-0.06,0.06-0.111,0.125-0.168,0.186c6.315-13.863,13.842-27.346,22.38-39.852  C154.32,102.17,191.31,77.35,226.262,77.35c10.792,0,21.722,2.283,32.615,6.795c-7.991,7.44-9.109,19.928-2.261,28.681  c6.915,8.837,17.333,13.764,28.169,13.764c3.196,0,6.431-0.429,9.621-1.314c0.546-0.151,1.08-0.328,1.611-0.516  c-1.524,4.892-2.406,10.017-2.565,15.278v0.003c-0.052,1.74,0.15,3.496,0.601,5.22c3.486,13.356,9.31,23.39,19.472,33.551  c10.108,10.109,19.713,15.678,33.149,19.22c1.662,0.439,3.347,0.66,5.014,0.66c0.214,0,0.428-0.003,0.642-0.011  c1.13-0.038,2.252-0.12,3.369-0.224c10.569,26.85,16.354,54.185,16.354,77.572c0,0.364-0.011,0.727-0.014,1.09  c-3.519-3.184-7.79-5.476-12.525-6.66c-15.672-3.923-31.615,5.636-35.537,21.31c-6.892,27.532-21.502,32.553-27.461,33.433  c-5.065,0.746-8.881-0.059-11.668-2.464c-3.539-3.054-4.474-7.347-4.474-9.19c0-16.157-13.144-29.301-29.301-29.301  s-29.301,13.144-29.301,29.301c0,20.137,9.266,40.156,24.785,53.553c12.854,11.095,28.978,16.959,46.628,16.959  c3.916,0,7.917-0.297,11.892-0.884c10.904-1.611,21.062-5.306,30.245-10.809C308.59,402.401,269.608,421.366,226.26,421.366z   M421.108,362.519c-10.369,16.627-24.996,28.411-42.3,34.079c-7.639,2.501-15.567,3.77-23.568,3.77  c-7.496,0-14.929-1.092-22.219-3.248c2.553-2.241,5.04-4.554,7.446-6.948c4.95,1.084,9.94,1.629,14.896,1.629  c7.07,0,14.072-1.102,20.791-3.303c31.697-10.381,51.329-42.426,53.438-86.473h8.532  C437.088,325.71,431.387,346.039,421.108,362.519z M407.946,286.041l26.108-36.64l26.107,36.64H407.946z M445.729,347.878  c4.91-13.786,7.718-29.115,8.391-45.855h8.267c5.579,0,10.631-3.08,13.188-8.039c2.555-4.959,2.131-10.861-1.106-15.404  l-28.334-39.765c-2.778-3.899-7.295-6.226-12.082-6.226c-4.787,0.001-9.304,2.328-12.081,6.227l-28.334,39.764  c-3.237,4.543-3.66,10.446-1.106,15.404c2.555,4.959,7.609,8.039,13.188,8.039h7.875c-0.979,18.41-5.368,34.215-12.639,46.432  c-8.824-2.829-17.028-7.373-24.144-13.379c7.241-18.296,11.222-38.216,11.222-59.046c0-12.722-1.575-26.473-4.554-40.637  c1.624,2.625,3.012,4.991,4.051,6.762c0.798,1.359,1.442,2.453,1.899,3.186c1.859,2.973,5.438,4.388,8.825,3.489  c3.389-0.899,5.795-3.902,5.936-7.405c0.178-4.438,6.397-14.917,11.886-24.164c6.368-10.728,13.436-22.635,17.516-34.383  c17.377,22.363,30.429,52.456,28.191,66.286c-0.63,3.892,1.674,7.663,5.426,8.879c3.754,1.218,7.828-0.487,9.601-4.009  c2.02-4.015,4.471-5.574,7.574-7.546c0.778-0.494,1.584-1.008,2.396-1.569c3.592,6.419,6.624,15.737,7.061,31.629  C494.73,308.842,474.454,337.658,445.729,347.878z M276.559,213.692c1.79,0,3.581-0.598,5.046-1.794  c-0.021,0.235-0.036,0.473-0.036,0.715v4.21c0,4.413,3.578,7.991,7.991,7.991s7.991-3.578,7.991-7.991v-4.21  c0-4.413-3.578-7.991-7.991-7.991c-0.221,0-0.437,0.015-0.653,0.033l8.245-8.245c3.121-3.121,3.121-8.181,0-11.301  c-3.121-3.121-8.181-3.121-11.302,0l-14.94,14.94c-3.121,3.121-3.121,8.181,0,11.301  C272.469,212.911,274.515,213.692,276.559,213.692z M350.358,172.621c17.006,0,30.842-13.835,30.842-30.842  s-13.835-30.842-30.842-30.842s-30.842,13.835-30.842,30.842S333.351,172.621,350.358,172.621z M350.358,126.921  c8.194,0,14.859,6.666,14.859,14.859c0,8.194-6.666,14.859-14.859,14.859s-14.859-6.666-14.859-14.859  C335.498,133.586,342.164,126.921,350.358,126.921z"/>
<g>
</g>
<g>
</g>
<g>
</g>
<g>
</g>
<g>
</g>
<g>
</g>
<g>
</g>
<g>
</g>
<g>
</g>
<g>
</g>
<g>
</g>
<g>
</g>
<g>
</g>
<g>
</g>
<g>
</g>
</svg>
