<?xml version="1.0" encoding="iso-8859-1"?>
<!-- Generator: Adobe Illustrator 19.0.0, SVG Export Plug-In . SVG Version: 6.00 Build 0)  -->
<svg xmlns="http://www.w3.org/2000/svg" xmlns:xlink="http://www.w3.org/1999/xlink" version="1.1" id="Capa_1" x="0px" y="0px" viewBox="0 0 512 512" style="enable-background:new 0 0 512 512;" xml:space="preserve">
<path style="fill:#F3C74F;" d="M174.439,504.064c-7.151,0-14.128-3.624-18.109-10.183c-13.819-22.761-15.324-50.936-4.127-77.299  c11.35-26.727,34.267-47.515,58.383-52.958c11.397-2.573,22.728,4.583,25.302,15.984c2.574,11.4-4.583,22.728-15.983,25.303  c-10.914,2.463-22.735,14.067-28.744,28.217c-3.412,8.035-7.775,23.761,1.348,38.79c6.065,9.991,2.884,23.007-7.107,29.072  C181.971,503.072,178.18,504.064,174.439,504.064z"/>
<path style="opacity:0.2;enable-background:new    ;" d="M235.888,379.608c-2.573-11.401-13.905-18.557-25.302-15.984  c-24.116,5.443-47.032,26.231-58.383,52.958c-3.294,7.756-5.479,15.669-6.585,23.554c0.78,0.043,1.563,0.071,2.353,0.071  c6.575,0,12.785-1.548,18.299-4.288c4.4,10.525,12.096,19.323,21.794,25.122c-2.625-11.29,0.506-21.817,3.095-27.915  c6.009-14.15,17.829-25.753,28.744-28.217C231.305,402.337,238.461,391.008,235.888,379.608z"/>
<path style="fill:#F3C74F;" d="M62.92,405.475c-3.009,0-6.064-0.644-8.969-2.006C11.53,383.583,2.845,331.767,19.126,295.163  c8.455-19.01,23.105-33.403,41.251-40.526c14.111-5.54,37.484-9.385,68.685,3.756c10.772,4.537,15.825,16.947,11.288,27.717  c-4.536,10.772-16.948,15.824-27.717,11.288c-35.308-14.872-49.51,2.992-54.835,14.964c-8.205,18.447-4.49,44.058,14.12,52.782  c10.582,4.96,15.141,17.562,10.179,28.144C78.496,400.969,70.873,405.474,62.92,405.475z"/>
<path style="opacity:0.2;enable-background:new    ;" d="M129.062,258.395c-19.798-8.339-36.439-9.834-49.568-8.4  c-1.471,9.742-2.251,19.258-2.251,28.364c0,5.032,0.241,10.007,0.688,14.923c8.34-2.605,19.579-2.25,34.7,4.119  c10.771,4.536,23.181-0.516,27.717-11.288C144.888,275.341,139.833,262.932,129.062,258.395z"/>
<path style="fill:#F3C74F;" d="M339.952,504.064c-3.742,0-7.531-0.992-10.962-3.076c-9.991-6.065-13.173-19.081-7.107-29.072  c9.123-15.03,4.76-30.754,1.348-38.79c-6.009-14.15-17.829-25.752-28.744-28.217c-11.4-2.573-18.557-13.902-15.983-25.303  c2.573-11.401,13.905-18.556,25.302-15.984c24.116,5.443,47.032,26.231,58.383,52.958c11.196,26.363,9.691,54.538-4.127,77.299  C354.08,500.44,347.101,504.064,339.952,504.064z"/>
<path style="opacity:0.2;enable-background:new    ;" d="M362.188,416.582c-11.35-26.727-34.267-47.515-58.383-52.958  c-11.397-2.572-22.728,4.583-25.302,15.984c-2.574,11.4,4.583,22.728,15.983,25.303c10.916,2.463,22.735,14.067,28.744,28.217  c2.589,6.098,5.72,16.625,3.095,27.915c9.698-5.798,17.394-14.597,21.794-25.122c5.514,2.739,11.725,4.288,18.299,4.288  c0.79,0,1.574-0.028,2.353-0.071C367.667,432.251,365.482,424.338,362.188,416.582z"/>
<path style="fill:#F3C74F;" d="M474.482,352.283c-4.866,0.929-10.075,0.163-14.682-2.545c-10.075-5.921-13.444-18.891-7.521-28.967  c12.249-20.842,3.026-37.227-3.563-45.137c-11.659-14.001-35.411-24.993-60.02-16.024c-10.971,3.997-23.126-1.658-27.128-12.64  c-4.001-10.981,1.658-23.127,12.64-27.128c19.347-7.048,40.074-7.7,59.948-1.888c18.417,5.386,35.139,16.252,47.083,30.594  c22.63,27.174,25.514,63.065,7.527,93.669C485.553,347.687,480.259,351.181,474.482,352.283z"/>
<circle style="fill:#0081C6;" cx="382.796" cy="119.229" r="52.081"/>
<circle style="fill:#F3C74F;" cx="382.796" cy="119.229" r="24.313"/>
<circle style="fill:#0081C6;" cx="131.588" cy="119.229" r="52.081"/>
<circle style="fill:#F3C74F;" cx="131.588" cy="119.229" r="24.313"/>
<path style="opacity:0.2;enable-background:new    ;" d="M162.378,77.232c-24.485,22.128-45.251,52.591-60.003,85.105  c8.332,5.658,18.388,8.966,29.218,8.966c28.761,0,52.075-23.316,52.075-52.076C183.67,101.987,175.285,86.71,162.378,77.232z"/>
<path style="fill:#40BAB3;" d="M420.821,262.03c0-90.101-75.115-219.9-163.625-219.9S93.571,171.93,93.571,262.03  c0,90.101,73.258,163.142,163.625,163.142C347.563,425.172,420.821,352.131,420.821,262.03z"/>
<path style="fill:#FFFFFF;" d="M96.326,291.952c14.095,75.809,80.753,133.22,160.869,133.22s146.774-57.412,160.869-133.22  L96.326,291.952L96.326,291.952z"/>
<path style="fill:#0081C6;" d="M125.292,358.561c29.781,40.392,77.767,66.611,131.904,66.611s102.122-26.219,131.904-66.611H125.292  z"/>
<path style="opacity:0.2;enable-background:new    ;" d="M274.546,407.821c-90.367,0-163.625-73.041-163.625-163.141  c0-54.243,27.232-122.863,68.214-168.899C128.664,120.336,93.57,200.45,93.57,262.031c0,90.101,73.258,163.142,163.625,163.142  c49.685,0,94.193-22.084,124.201-56.939C352.729,392.9,315.385,407.821,274.546,407.821z"/>
<path style="fill:#A27B5A;" d="M438.933,308.679c0-27.496-20.914-50.106-47.702-52.793c-2.495-25.192-23.745-44.869-49.594-44.869  c-1.543,0-3.066,0.08-4.573,0.218c-6.275-14.739-20.888-25.072-37.918-25.072c-5.378,0-10.51,1.041-15.22,2.916  c-7.196-6.146-16.527-9.864-26.731-9.864c-10.204,0-19.535,3.718-26.731,9.864c-4.71-1.874-9.842-2.916-15.22-2.916  c-17.029,0-31.643,10.335-37.918,25.072c-1.507-0.138-3.03-0.218-4.573-0.218c-25.849,0-47.099,19.678-49.594,44.869  c-26.788,2.688-47.702,25.297-47.702,52.793c0,23.773,15.635,43.893,37.182,50.643c-3.718,6.19-5.861,13.435-5.861,21.181  c0,22.751,18.443,41.194,41.194,41.194c6.575,0,12.785-1.548,18.299-4.288c8.007,19.153,26.916,32.614,48.973,32.614  c5.153,0,10.129-0.749,14.841-2.119c7.246,6.341,16.726,10.193,27.11,10.193c10.385,0,19.865-3.852,27.11-10.193  c4.712,1.37,9.687,2.119,14.841,2.119c22.058,0,40.967-13.461,48.973-32.614c5.514,2.739,11.724,4.288,18.299,4.288  c22.751,0,41.194-18.443,41.194-41.194c0-7.747-2.142-14.991-5.861-21.181C423.299,352.572,438.933,332.452,438.933,308.679z"/>
<path style="opacity:0.2;enable-background:new    ;" d="M303.117,432.46c-3.424-0.62-6.95,0.199-9.852,2.117  c-6.501,4.297-14.289,6.803-22.666,6.803c-8.377,0-16.164-2.506-22.666-6.803c-2.902-1.918-6.428-2.736-9.852-2.117  c-3.061,0.554-6.212,0.846-9.433,0.846c-18.575,0-34.919-9.547-44.398-24c-2.98-4.544-8.552-6.51-13.853-5.321  c-3.8,0.852-7.798,1.179-11.917,0.895c-20.979-1.441-37.7-18.904-38.283-39.925c-0.125-4.504,0.475-8.849,1.69-12.93  c1.565-5.258-0.639-10.873-5.448-13.511c-16.436-9.016-27.579-26.482-27.579-46.551c0-6.001,0.284-12.731,1.004-19.615  c-8.927,9.494-14.406,22.269-14.406,36.332c0,23.773,15.635,43.893,37.182,50.643c-3.718,6.19-5.861,13.435-5.861,21.181  c0,22.751,18.443,41.194,41.194,41.194c6.575,0,12.785-1.548,18.299-4.288c8.007,19.153,26.916,32.614,48.973,32.614  c5.153,0,10.129-0.749,14.84-2.119c7.246,6.341,16.726,10.193,27.11,10.193c10.385,0,19.865-3.852,27.11-10.193  c4.712,1.37,9.687,2.119,14.841,2.119c21.271,0,39.612-12.521,48.072-30.59c-8.964,8.615-20.888,13.875-34.669,13.875  C309.329,433.307,306.177,433.015,303.117,432.46z"/>
<path style="fill:#A27B5A;" d="M322.098,40.014c-4.448,0-8.728,0.711-12.743,2.01c-8.808-20.066-28.841-34.088-52.16-34.088  s-43.352,14.022-52.16,34.088c-4.015-1.3-8.295-2.01-12.743-2.01c-22.834,0-41.345,18.511-41.345,41.345  s18.511,41.345,41.345,41.345c8.398,0,16.207-2.511,22.729-6.813c7.233,16.09,23.389,27.299,42.173,27.299  s34.94-11.21,42.173-27.299c6.523,4.302,14.331,6.813,22.729,6.813c22.834,0,41.345-18.511,41.345-41.345  S344.932,40.014,322.098,40.014z"/>
<path style="opacity:0.2;enable-background:new    ;" d="M216.192,25.383c-0.217,0.225-0.427,0.455-0.64,0.684  c0.095,0.03,0.192,0.055,0.287,0.085C215.952,25.894,216.075,25.64,216.192,25.383z M332.9,106.832  c-6.635,0-16.688-2.451-23.832-5.601c-2.825-1.245-6.114-0.019-7.548,2.716c-7.054,13.456-16.876,23.372-33.523,23.372  c-16.58,0-31.112-8.734-39.268-21.847c-1.751-2.816-5.337-3.812-8.349-2.423c-5.259,2.427-11.113,3.784-17.285,3.784  c-23.726,0-42.784-19.985-41.259-44.039c0.267-4.2,1.181-8.233,2.63-12.012c-8.305,7.562-13.519,18.461-13.519,30.579  c0,22.834,18.511,41.345,41.345,41.345c8.398,0,16.207-2.511,22.729-6.813c7.233,16.09,23.389,27.299,42.173,27.299  s34.94-11.21,42.173-27.299c6.523,4.302,14.331,6.813,22.729,6.813c17.669,0,32.742-11.088,38.66-26.684  C353.409,102.731,343.636,106.832,332.9,106.832z"/>
<g>
	<path style="fill:#60523F;" d="M177.682,162.324c-2.429,0-4.827-1.111-6.383-3.212c-2.278-3.076-5.758-4.84-9.548-4.84   c-3.79,0-7.271,1.764-9.55,4.84c-2.608,3.521-7.581,4.26-11.1,1.654c-3.522-2.609-4.262-7.579-1.654-11.101   c5.225-7.053,13.562-11.265,22.303-11.265c8.74,0,17.078,4.211,22.302,11.265c2.609,3.522,1.87,8.491-1.654,11.101   C180.98,161.816,179.324,162.324,177.682,162.324z"/>
	<path style="fill:#60523F;" d="M368.574,162.324c-2.429,0-4.827-1.111-6.383-3.212c-2.278-3.076-5.759-4.84-9.55-4.84   c-3.79,0-7.27,1.764-9.548,4.84c-2.609,3.521-7.581,4.26-11.1,1.654c-3.522-2.609-4.262-7.579-1.654-11.101   c5.225-7.053,13.562-11.265,22.302-11.265c8.741,0,17.079,4.211,22.303,11.265c2.609,3.522,1.87,8.491-1.654,11.101   C371.871,161.816,370.215,162.324,368.574,162.324z"/>
	<path style="fill:#60523F;" d="M155.923,326.591c-4.384,0-7.936-3.553-7.936-7.936v-16.716c0-4.383,3.552-7.936,7.936-7.936   s7.936,3.553,7.936,7.936v16.716C163.859,323.038,160.306,326.591,155.923,326.591z"/>
	<path style="fill:#60523F;" d="M195.104,394.645c-4.384,0-7.936-3.553-7.936-7.936v-16.715c0-4.383,3.552-7.936,7.936-7.936   s7.936,3.553,7.936,7.936v16.715C203.04,391.092,199.488,394.645,195.104,394.645z"/>
	<path style="fill:#60523F;" d="M319.287,394.645c-4.384,0-7.936-3.553-7.936-7.936v-16.715c0-4.383,3.552-7.936,7.936-7.936   s7.936,3.553,7.936,7.936v16.715C327.223,391.092,323.671,394.645,319.287,394.645z"/>
	<path style="fill:#60523F;" d="M257.196,364.652c-4.384,0-7.936-3.553-7.936-7.936v-16.715c0-4.383,3.552-7.936,7.936-7.936   s7.936,3.553,7.936,7.936v16.715C265.132,361.099,261.579,364.652,257.196,364.652z"/>
	<path style="fill:#60523F;" d="M358.469,326.591c-4.384,0-7.936-3.553-7.936-7.936v-16.716c0-4.383,3.552-7.936,7.936-7.936   s7.936,3.553,7.936,7.936v16.716C366.405,323.038,362.852,326.591,358.469,326.591z"/>
</g>
<g>
	<path style="fill:#F0B0B7;" d="M176.893,250.645h-25.495c-4.384,0-7.936-3.553-7.936-7.936c0-4.383,3.552-7.936,7.936-7.936h25.495   c4.384,0,7.936,3.553,7.936,7.936C184.828,247.092,181.276,250.645,176.893,250.645z"/>
	<path style="fill:#F0B0B7;" d="M355.059,250.645h-25.495c-4.383,0-7.936-3.553-7.936-7.936c0-4.383,3.553-7.936,7.936-7.936h25.495   c4.383,0,7.936,3.553,7.936,7.936C362.994,247.092,359.442,250.645,355.059,250.645z"/>
</g>
<path d="M283.147,208.077c-4.384,0-7.936,3.553-7.936,7.936c0,3.873-3.151,7.023-7.024,7.023s-7.024-3.151-7.024-7.023  c0-4.383-3.552-7.936-7.936-7.936c-4.384,0-7.936,3.553-7.936,7.936c0,3.873-3.151,7.023-7.023,7.023  c-3.873,0-7.024-3.151-7.024-7.023c0-4.383-3.552-7.936-7.936-7.936s-7.936,3.553-7.936,7.936c0,12.624,10.271,22.894,22.896,22.894  c5.712,0,10.944-2.104,14.959-5.576c4.016,3.473,9.246,5.576,14.96,5.576c12.624,0,22.896-10.271,22.896-22.894  C291.083,211.63,287.53,208.077,283.147,208.077z M352.641,189.91c4.384,0,7.936-3.553,7.936-7.936v-5.462  c0-4.383-3.552-7.936-7.936-7.936s-7.936,3.553-7.936,7.936v5.462C344.705,186.357,348.257,189.91,352.641,189.91z M487.338,243.471  c-12.941-15.543-31.037-27.309-50.954-33.134c-4.97-1.453-10.035-2.536-15.122-3.245c-2.953-11.458-6.731-22.989-11.251-34.371  c19.91-10.12,32.797-30.673,32.797-53.493c0-33.091-26.921-60.011-60.011-60.011c-5.36,0-10.613,0.711-15.701,2.09  c-7.698-17.204-24.965-29.227-44.999-29.227c-2.858,0-5.699,0.247-8.499,0.736C302.149,12.684,280.678,0,257.195,0  s-44.953,12.684-56.403,32.814c-2.8-0.49-5.641-0.736-8.499-0.736c-20.033,0-37.302,12.023-44.999,29.227  c-5.089-1.379-10.341-2.09-15.701-2.09c-33.089,0-60.011,26.921-60.011,60.011c0,22.818,12.886,43.369,32.791,53.49  c-9.118,22.958-15.231,46.528-17.613,68.873c-10.308,0.175-20.132,2.069-29.283,5.661c-20.099,7.889-36.295,23.76-45.603,44.688  c-17.801,40.021-8.063,96.79,38.707,118.716c3.901,1.829,8.051,2.756,12.338,2.756c11.243-0.001,21.59-6.577,26.361-16.752  c6.81-14.527,0.531-31.887-13.997-38.699c-14.181-6.648-16.775-27.666-10.236-42.371c0.654-1.47,1.486-3.061,2.514-4.649  c0.825,22.819,14.102,42.879,34.287,52.628c-1.981,5.396-3.007,11.129-3.007,16.936c0,24.28,17.708,44.49,40.884,48.424  c-5.951,24.032-2.536,48.721,9.819,69.071c5.32,8.769,14.626,14.002,24.892,14.002c5.31,0,10.523-1.461,15.082-4.228  c13.713-8.326,18.098-26.258,9.772-39.974c-2.463-4.057-3.86-8.489-4.202-13.246c6.358,2.218,13.151,3.407,20.153,3.407  c4.359,0,8.706-0.469,12.968-1.397c8.386,6.134,18.524,9.47,28.983,9.47c10.458,0,20.598-3.336,28.983-9.47  c4.263,0.928,8.61,1.397,12.969,1.397c7.003,0,13.795-1.189,20.153-3.406c-0.342,4.756-1.738,9.189-4.202,13.246  c-8.326,13.714-3.941,31.646,9.773,39.974c4.556,2.766,9.771,4.228,15.08,4.228c10.265,0,19.571-5.235,24.892-14  c12.357-20.352,15.771-45.041,9.82-69.073c23.176-3.935,40.884-24.144,40.884-48.424c0-5.807-1.026-11.54-3.007-16.936  c13.051-6.302,23.213-16.916,28.989-29.798c0.731,9.15,5.751,17.819,14.248,22.811c4.501,2.645,9.591,4.014,14.742,4.013  c1.818,0,3.642-0.17,5.45-0.515c8.235-1.572,15.395-6.616,19.64-13.84C515.34,312.666,512.171,273.289,487.338,243.471z   M371.148,76.649c3.771-1.031,7.668-1.562,11.65-1.562c24.339,0,44.139,19.801,44.139,44.139c0,16.427-9.074,31.258-23.184,38.862  c-1.655-3.606-3.382-7.186-5.178-10.732c9.937-5.581,16.473-16.214,16.473-28.129c0-17.782-14.467-32.248-32.249-32.248  c-4.199,0-8.287,0.831-12.075,2.363c0.425-2.6,0.656-5.264,0.656-7.982C371.379,79.769,371.296,78.2,371.148,76.649z   M391.04,133.381c-5.465-9.52-11.438-18.703-17.852-27.404c2.762-2.001,6.113-3.127,9.61-3.127c9.03,0,16.378,7.347,16.378,16.376  C399.175,125.189,395.955,130.515,391.04,133.381z M192.294,47.95c3.503,0,6.968,0.547,10.299,1.625  c3.875,1.257,8.073-0.631,9.711-4.361c7.823-17.825,25.444-29.343,44.892-29.343s37.07,11.518,44.894,29.342  c1.637,3.731,5.836,5.619,9.71,4.361c3.331-1.078,6.796-1.625,10.299-1.625c18.422,0,33.409,14.987,33.409,33.409  s-14.987,33.409-33.409,33.409c-6.554,0-12.902-1.902-18.359-5.502c-1.943-1.281-4.348-1.644-6.584-0.997  c-2.234,0.649-4.072,2.245-5.025,4.367c-6.176,13.74-19.889,22.617-34.936,22.617c-15.045,0-28.758-8.879-34.935-22.617  c-0.953-2.122-2.791-3.718-5.025-4.367c-0.728-0.211-1.472-0.314-2.214-0.314c-1.537,0-3.06,0.447-4.37,1.311  c-5.457,3.6-11.804,5.502-18.359,5.502c-18.422,0-33.409-14.987-33.409-33.409C158.884,62.937,173.872,47.95,192.294,47.95z   M87.454,119.227c0-24.339,19.801-44.139,44.139-44.139c3.982,0,7.879,0.532,11.65,1.562c-0.148,1.551-0.231,3.12-0.231,4.71  c0,2.718,0.231,5.383,0.656,7.982c-3.788-1.532-7.878-2.363-12.075-2.363c-17.783,0-32.249,14.467-32.249,32.248  c0,11.912,6.534,22.544,16.466,28.126c-1.798,3.547-3.525,7.126-5.179,10.732C96.526,150.48,87.454,135.651,87.454,119.227z   M141.202,105.977c-6.414,8.702-12.393,17.882-17.858,27.401c-4.912-2.867-8.128-8.192-8.128-14.151  c0-9.03,7.347-16.376,16.378-16.376C135.09,102.85,138.441,103.975,141.202,105.977z M155.197,113.747  c9.041,10.342,22.314,16.894,37.097,16.894c6.788,0,13.426-1.384,19.569-4.047c9.904,15.129,26.912,24.535,45.333,24.535  c18.422,0,35.429-9.406,45.334-24.535c6.142,2.663,12.781,4.047,19.569,4.047c14.781,0,28.053-6.551,37.093-16.891  c30.506,40.82,51.178,94.947,53.468,140.073c-4.526-2.198-9.374-3.864-14.477-4.901c-5.502-26.454-28.69-45.731-56.312-45.84  c-8.662-15.263-24.881-24.855-42.725-24.855c-4.685,0-9.292,0.658-13.751,1.963c-8.229-5.773-18.082-8.91-28.2-8.91  c-10.117,0-19.97,3.137-28.199,8.91c-4.459-1.304-9.066-1.963-13.751-1.963c-17.844,0-34.063,9.592-42.725,24.855  c-27.621,0.108-50.811,19.386-56.313,45.84c-5.103,1.036-9.951,2.703-14.476,4.9C104.019,208.669,124.681,154.577,155.197,113.747z   M50.547,309.14c-9.732,21.881-4.821,52.494,18.001,63.193c6.604,3.096,9.457,10.986,6.362,17.589  c-2.169,4.627-6.877,7.617-11.991,7.618c-1.938,0-3.822-0.422-5.6-1.256c-38.069-17.846-45.701-64.71-30.943-97.895  c7.603-17.094,20.707-30.008,36.9-36.363c6.984-2.742,14.499-4.256,22.423-4.532c-0.038,1.519-0.066,3.035-0.066,4.537  c0,1.043,0.013,2.095,0.032,3.147c-6.281,6.188-11.201,13.722-14.322,22.129C60.054,292.348,53.832,301.751,50.547,309.14z   M181.286,494.205c-2.075,1.259-4.442,1.924-6.847,1.924c-4.672,0-8.905-2.38-11.324-6.367  c-10.786-17.764-13.23-39.685-6.939-60.816c2.111-0.354,4.193-0.84,6.238-1.471c4.353,7.553,10.199,13.967,17.07,18.936  c-1.213,10.677,0.902,20.827,6.243,29.624C189.51,482.269,187.517,490.42,181.286,494.205z M351.277,489.763  c-2.42,3.986-6.653,6.366-11.325,6.366c-2.404,0-4.772-0.664-6.844-1.923c-6.234-3.786-8.227-11.937-4.442-18.17  c5.341-8.798,7.456-18.947,6.243-29.624c6.87-4.969,12.718-11.383,17.07-18.936c2.044,0.631,4.126,1.116,6.237,1.471  C364.505,450.077,362.063,471.997,351.277,489.763z M399.38,351.748c-2.322,0.728-4.182,2.479-5.046,4.754  c-0.864,2.274-0.638,4.82,0.615,6.905c3.093,5.149,4.728,11.061,4.728,17.095c0,18.338-14.919,33.258-33.258,33.258  c-5.181,0-10.148-1.164-14.768-3.459c-1.965-0.976-4.247-1.095-6.303-0.329c-2.056,0.767-3.703,2.35-4.55,4.375  c-7.043,16.851-23.392,27.739-41.651,27.739c-4.262,0-8.509-0.606-12.624-1.804c-2.6-0.755-5.406-0.133-7.443,1.649  c-6.063,5.306-13.835,8.228-21.885,8.228c-8.049,0-15.821-2.923-21.884-8.228c-1.465-1.282-3.329-1.964-5.227-1.964  c-0.74,0-1.486,0.104-2.216,0.315c-4.115,1.197-8.361,1.804-12.624,1.804c-18.259,0-34.607-10.888-41.651-27.739  c-0.846-2.025-2.493-3.608-4.55-4.375c-2.056-0.767-4.339-0.648-6.303,0.329c-4.62,2.295-9.588,3.459-14.768,3.459  c-18.338,0-33.258-14.919-33.258-33.258c0-6.036,1.635-11.947,4.728-17.095c1.253-2.086,1.478-4.631,0.615-6.905  c-0.863-2.275-2.724-4.027-5.046-4.754c-18.912-5.924-31.619-23.232-31.619-43.069c0-23.275,17.437-42.578,40.559-44.897  c3.759-0.378,6.732-3.353,7.105-7.114c2.13-21.502,20.056-37.717,41.696-37.717c1.224,0,2.487,0.06,3.855,0.185  c3.433,0.318,6.67-1.626,8.019-4.794c5.236-12.299,17.254-20.245,30.617-20.245c4.227,0,8.36,0.793,12.285,2.354  c2.734,1.089,5.848,0.574,8.089-1.339c6.013-5.135,13.675-7.963,21.577-7.963c7.902,0,15.565,2.828,21.578,7.963  c2.238,1.911,5.352,2.428,8.089,1.339c3.925-1.562,8.058-2.354,12.285-2.354c13.363,0,25.38,7.946,30.617,20.245  c1.349,3.169,4.578,5.11,8.02,4.794c1.369-0.125,2.63-0.185,3.856-0.185c21.641,0,39.566,16.215,41.695,37.717  c0.374,3.761,3.346,6.737,7.105,7.114c23.123,2.319,40.56,21.622,40.56,44.897C430.999,328.516,418.292,345.825,399.38,351.748z   M446.574,314.673c0.191-1.976,0.296-3.973,0.296-5.993c0-12.414-3.682-23.984-10.049-33.646c2.146,1.74,4.1,3.641,5.797,5.679  C448.753,288.078,454.22,299.833,446.574,314.673z M481.927,338.196c-1.93,3.283-5.185,5.577-8.931,6.293  c-3.151,0.601-6.406,0.036-9.175-1.591c-6.286-3.695-8.396-11.817-4.7-18.104c10.744-18.282,9.175-38.051-4.304-54.237  c-6.633-7.964-16.018-14.412-26.326-18.223c-0.491-9.26-1.676-18.795-3.487-28.467c2.324,0.485,4.639,1.035,6.926,1.705  c16.921,4.949,32.267,14.913,43.212,28.057C495.568,278.156,498.168,310.56,481.927,338.196z M161.751,189.91  c4.384,0,7.936-3.553,7.936-7.936v-5.462c0-4.383-3.552-7.936-7.936-7.936s-7.936,3.553-7.936,7.936v5.462  C153.815,186.357,157.367,189.91,161.751,189.91z"/>
<g>
</g>
<g>
</g>
<g>
</g>
<g>
</g>
<g>
</g>
<g>
</g>
<g>
</g>
<g>
</g>
<g>
</g>
<g>
</g>
<g>
</g>
<g>
</g>
<g>
</g>
<g>
</g>
<g>
</g>
</svg>
