<?xml version="1.0" encoding="iso-8859-1"?>
<!-- Generator: Adobe Illustrator 19.0.0, SVG Export Plug-In . SVG Version: 6.00 Build 0)  -->
<svg xmlns="http://www.w3.org/2000/svg" xmlns:xlink="http://www.w3.org/1999/xlink" version="1.1" id="Capa_1" x="0px" y="0px" viewBox="0 0 512 512" style="enable-background:new 0 0 512 512;" xml:space="preserve">
<path style="fill:#F3C74F;" d="M101.923,424.01c-13.428,0-24.314-10.885-24.314-24.314V282.354  c0-13.428,10.885-24.314,24.314-24.314c13.428,0,24.314,10.885,24.314,24.314v117.342  C126.237,413.126,115.352,424.01,101.923,424.01z"/>
<path style="opacity:0.2;enable-background:new    ;" d="M101.923,258.042c-13.428,0-24.313,10.885-24.313,24.314v14.864  c8.664,31.119,25.735,58.748,48.626,80.304v-95.169C126.237,268.928,115.352,258.042,101.923,258.042z"/>
<g>
	<path style="fill:#F3C74F;" d="M410.077,424.01c-13.428,0-24.314-10.885-24.314-24.314V282.354   c0-13.428,10.885-24.314,24.314-24.314c13.428,0,24.314,10.885,24.314,24.314v117.342   C434.39,413.126,423.506,424.01,410.077,424.01z"/>
	<path style="fill:#F3C74F;" d="M308.274,503.956c-13.428,0-24.314-10.885-24.314-24.314v-92.069   c0-13.428,10.885-24.314,24.314-24.314c13.428,0,24.313,10.885,24.313,24.314v92.069   C332.587,493.071,321.702,503.956,308.274,503.956z"/>
</g>
<path style="opacity:0.2;enable-background:new    ;" d="M308.274,363.26c-13.428,0-24.314,10.885-24.314,24.314v50.991  c17.168-2.742,33.505-7.961,48.626-15.288v-35.705C332.587,374.145,321.702,363.26,308.274,363.26z"/>
<path style="fill:#F3C74F;" d="M203.727,503.956c-13.428,0-24.313-10.885-24.313-24.314v-92.069  c0-13.428,10.885-24.314,24.313-24.314s24.314,10.885,24.314,24.314v92.069C228.041,493.071,217.155,503.956,203.727,503.956z"/>
<path style="opacity:0.2;enable-background:new    ;" d="M203.727,363.26c-13.428,0-24.313,10.885-24.313,24.314v35.705  c15.122,7.327,31.458,12.546,48.626,15.288v-50.991C228.041,374.145,217.155,363.26,203.727,363.26z"/>
<circle style="fill:#0081C6;" cx="106.52" cy="116.785" r="55.84"/>
<circle style="fill:#F3C74F;" cx="106.52" cy="116.785" r="26.071"/>
<path style="opacity:0.2;enable-background:new    ;" d="M131.92,67.059c-23.526,27.701-42.526,62.276-54.655,97.289  c8.51,5.247,18.53,8.28,29.261,8.28c30.84,0,55.841-25.001,55.841-55.842C162.365,95.095,149.989,76.305,131.92,67.059z"/>
<circle style="fill:#0081C6;" cx="405.475" cy="116.785" r="55.84"/>
<circle style="fill:#F3C74F;" cx="405.475" cy="116.785" r="26.071"/>
<path style="fill:#40BAB3;" d="M431.456,243.844C431.456,147.228,350.91,8.044,256,8.044S80.544,147.229,80.544,243.844  S159.098,418.78,256,418.78S431.456,340.459,431.456,243.844z"/>
<g>
	<path style="fill:#0081C6;" d="M166.575,242.976h-25.844c-4.444,0-8.044-3.602-8.044-8.044s3.601-8.044,8.044-8.044h25.844   c4.444,0,8.044,3.602,8.044,8.044S171.019,242.976,166.575,242.976z"/>
	<path style="fill:#0081C6;" d="M371.269,242.976h-25.844c-4.444,0-8.044-3.602-8.044-8.044s3.601-8.044,8.044-8.044h25.844   c4.444,0,8.044,3.602,8.044,8.044S375.713,242.976,371.269,242.976z"/>
</g>
<path style="fill:#FFFFFF;" d="M83.5,275.928c15.114,81.29,86.592,142.853,172.501,142.853s157.387-61.563,172.501-142.853H83.5z"/>
<path style="fill:#0081C6;" d="M114.56,347.355c31.935,43.312,83.39,71.427,141.44,71.427s109.506-28.115,141.441-71.427H114.56z"/>
<path style="opacity:0.2;enable-background:new    ;" d="M274.605,400.176c-96.902,0-175.456-78.322-175.456-174.937  c0-58.165,29.2-131.747,73.146-181.112c-54.121,47.776-91.751,133.683-91.751,199.717c0,96.615,78.554,174.937,175.456,174.937  c53.277,0,101.002-23.681,133.181-61.056C358.441,384.176,318.398,400.176,274.605,400.176z"/>
<path d="M469.362,116.786c0-35.226-28.659-63.886-63.885-63.886c-12.777,0-25.174,3.828-35.66,10.887  c-13.078-15.679-27.244-28.972-41.762-39.087C304.527,8.311,280.284,0,256,0c-24.284,0-48.525,8.311-72.054,24.701  c-14.518,10.115-28.683,23.407-41.762,39.087c-10.486-7.059-22.884-10.887-35.66-10.887c-35.227,0-63.886,28.659-63.886,63.886  c0,26.564,16.265,49.954,40.432,59.448c-6.834,23.364-10.572,46.514-10.572,67.61c0,7.575,0.473,15.04,1.374,22.377  c-2.823,4.895-4.308,10.427-4.308,16.135v117.342c0,17.842,14.515,32.358,32.358,32.358c17.842,0,32.357-14.515,32.357-32.358  v-19.049c11.223,9.94,23.67,18.531,37.088,25.516v73.477c0,17.842,14.515,32.357,32.357,32.357  c17.843,0,32.358-14.515,32.358-32.357v-53.898c6.544,0.708,13.187,1.081,19.915,1.081c6.73,0,13.372-0.374,19.915-1.081v53.898  c0,17.842,14.515,32.357,32.358,32.357c17.842,0,32.357-14.515,32.357-32.357v-73.477c13.418-6.985,25.866-15.576,37.088-25.516  v19.049c0,17.842,14.516,32.358,32.357,32.358c17.843,0,32.358-14.515,32.358-32.358V282.356c0-5.708-1.486-11.239-4.308-16.135  c0.901-7.336,1.374-14.802,1.374-22.377c0-21.096-3.738-44.246-10.572-67.61C453.097,166.74,469.362,143.351,469.362,116.786z   M58.727,116.786c0-26.355,21.441-47.797,47.797-47.797c9.161,0,18.059,2.633,25.689,7.5c-2.096,2.837-4.157,5.731-6.177,8.689  c-0.571,0.837-1.129,1.685-1.693,2.529c-5.309-3.253-11.461-5.036-17.819-5.036c-18.811,0-34.116,15.304-34.116,34.115  c0,13.919,8.264,25.958,20.377,31.249c-1.694,4.263-3.284,8.542-4.782,12.827C70.465,153.524,58.727,136.305,58.727,116.786z   M115.764,101.313c-6.126,10.296-11.71,20.99-16.67,31.897c-6.303-2.833-10.596-9.134-10.596-16.425  c0-9.94,8.086-18.026,18.027-18.026C109.813,98.76,112.999,99.662,115.764,101.313z M118.192,399.698  c0,8.97-7.298,16.269-16.268,16.269s-16.269-7.298-16.269-16.269v-87.835c7.825,19.416,18.894,37.192,32.537,52.665V399.698z   M219.996,479.642c0,8.97-7.299,16.268-16.269,16.268s-16.268-7.298-16.268-16.268v-66.069c10.41,4.195,21.289,7.466,32.537,9.707  L219.996,479.642L219.996,479.642z M324.542,479.642c0,8.97-7.298,16.268-16.268,16.268s-16.269-7.298-16.269-16.268V423.28  c11.248-2.241,22.128-5.512,32.537-9.707V479.642z M256,410.737c-92.311,0-167.411-74.867-167.411-166.892  c0-46.433,19.441-103.755,50.736-149.594C173.236,44.577,215.762,16.089,256,16.089s82.764,28.488,116.675,78.16  c31.295,45.84,50.736,103.162,50.736,149.594C423.412,335.868,348.311,410.737,256,410.737z M396.237,101.313  c2.765-1.652,5.951-2.554,9.239-2.554c9.941,0,18.027,8.086,18.027,18.026c0,7.29-4.294,13.592-10.596,16.425  C407.947,122.303,402.363,111.609,396.237,101.313z M426.346,399.698c0,8.97-7.299,16.269-16.269,16.269  s-16.268-7.298-16.268-16.269v-35.171c13.643-15.472,24.713-33.248,32.537-52.665V399.698z M423.997,160.863  c-1.497-4.286-3.089-8.566-4.782-12.827c12.113-5.291,20.377-17.331,20.377-31.249c0-18.811-15.304-34.115-34.116-34.115  c-6.359,0-12.51,1.783-17.819,5.036c-0.563-0.844-1.122-1.693-1.693-2.529c-2.02-2.957-4.081-5.852-6.177-8.689  c7.629-4.865,16.528-7.5,25.689-7.5c26.355,0,47.796,21.441,47.796,47.797C453.273,136.305,441.536,153.524,423.997,160.863z   M375.829,176.266c-4.444,0-8.044,3.602-8.044,8.044c0,5.203-4.234,9.437-9.438,9.437c-5.204,0-9.437-4.234-9.437-9.437  c0-4.443-3.601-8.044-8.044-8.044s-8.044,3.602-8.044,8.044c0,14.075,11.451,25.526,25.526,25.526  c14.076,0,25.527-11.451,25.527-25.526C383.873,179.867,380.272,176.266,375.829,176.266z M171.135,176.266  c-4.444,0-8.044,3.602-8.044,8.044c0,5.203-4.232,9.437-9.437,9.437s-9.438-4.234-9.438-9.437c0-4.443-3.601-8.044-8.044-8.044  s-8.044,3.602-8.044,8.044c0,14.075,11.451,25.526,25.527,25.526c14.075,0,25.526-11.451,25.526-25.526  C179.179,179.867,175.579,176.266,171.135,176.266z M256,199.847c-23.066,0-41.831,18.765-41.831,41.831  c0,4.443,3.601,8.044,8.044,8.044s8.044-3.602,8.044-8.044c0-14.195,11.549-25.742,25.742-25.742s25.742,11.548,25.742,25.742  c0,4.443,3.601,8.044,8.044,8.044s8.044-3.602,8.044-8.044C297.831,218.612,279.066,199.847,256,199.847z"/>
<g>
</g>
<g>
</g>
<g>
</g>
<g>
</g>
<g>
</g>
<g>
</g>
<g>
</g>
<g>
</g>
<g>
</g>
<g>
</g>
<g>
</g>
<g>
</g>
<g>
</g>
<g>
</g>
<g>
</g>
</svg>
