<?xml version="1.0" encoding="iso-8859-1"?>
<!-- Generator: Adobe Illustrator 19.0.0, SVG Export Plug-In . SVG Version: 6.00 Build 0)  -->
<svg xmlns="http://www.w3.org/2000/svg" xmlns:xlink="http://www.w3.org/1999/xlink" version="1.1" id="Capa_1" x="0px" y="0px" viewBox="0 0 511.999 511.999" style="enable-background:new 0 0 511.999 511.999;" xml:space="preserve">
<circle style="fill:#0081C6;" cx="352.666" cy="135.21" r="49.269"/>
<g>
	<circle style="fill:#F3C74F;" cx="352.666" cy="135.21" r="23.003"/>
	<path style="fill:#F3C74F;" d="M266.477,496.452c-7.707,0-15.152-4.163-18.996-11.453c-5.524-10.48-1.506-23.455,8.974-28.98   c9.98-5.26,15.513-11.483,16.913-19.022c1.847-9.947-3.5-19.807-5.656-22.274c-7.799-8.919-6.891-22.471,2.027-30.27   c8.919-7.799,22.469-6.891,30.27,2.027c10.83,12.383,19.835,35.228,15.542,58.349c-2.679,14.433-11.637,34.675-39.089,49.145   C273.272,495.654,269.849,496.452,266.477,496.452z"/>
</g>
<path style="opacity:0.2;enable-background:new    ;" d="M272.744,439.446c15.359-3.978,29.787-10.255,42.902-18.429  c-2.356-14.061-8.611-26.502-15.637-34.536c-7.801-8.919-21.351-9.826-30.27-2.027c-8.919,7.799-9.826,21.351-2.027,30.27  c2.157,2.466,7.504,12.326,5.656,22.274C273.214,437.829,273.001,438.643,272.744,439.446z"/>
<path style="fill:#F3C74F;" d="M393.23,318.509c-23.844,0-45.023-10.209-56.152-21.395c-8.355-8.399-8.321-21.982,0.078-30.337  c8.397-8.355,21.979-8.321,30.337,0.077c4.962,4.988,19.063,10.592,32.651,8.14c11.31-2.042,19.569-9.127,25.248-21.657  c4.893-10.79,17.608-15.574,28.395-10.683c10.792,4.891,15.575,17.603,10.684,28.395c-11.437,25.233-31.575,41.629-56.702,46.166  C402.857,318.102,397.989,318.509,393.23,318.509z"/>
<path style="fill:#40BAB3;" d="M389.587,273.125c0-85.244-71.066-208.048-154.807-208.048S79.974,187.881,79.974,273.125  s69.309,154.349,154.806,154.349C320.277,427.472,389.587,358.369,389.587,273.125z"/>
<g>
	<path style="fill:#F0B0B7;" d="M190.16,280.585h-25.844c-4.443,0-8.044-3.602-8.044-8.044s3.602-8.044,8.044-8.044h25.844   c4.443,0,8.044,3.602,8.044,8.044S194.603,280.585,190.16,280.585z"/>
	<path style="fill:#F0B0B7;" d="M386.292,280.585h-25.844c-4.444,0-8.044-3.602-8.044-8.044s3.601-8.044,8.044-8.044h25.844   c4.444,0,8.044,3.602,8.044,8.044S390.734,280.585,386.292,280.585z"/>
</g>
<path style="fill:#FFFFFF;" d="M82.582,301.433c13.335,71.723,76.4,126.041,152.199,126.041  c75.798,0,138.864-54.318,152.199-126.041L82.582,301.433L82.582,301.433z"/>
<path style="fill:#0081C6;" d="M109.986,364.453c28.176,38.214,73.575,63.02,124.795,63.02c51.218,0,96.619-24.806,124.795-63.02  H109.986z"/>
<path style="opacity:0.2;enable-background:new    ;" d="M251.196,411.058c-85.497,0-154.806-69.104-154.806-154.349  c0-51.32,25.764-116.242,64.537-159.796c-47.752,42.153-80.953,117.95-80.953,176.211c0,85.245,69.309,154.349,154.806,154.349  c47.007,0,89.116-20.894,117.507-53.87C325.164,396.941,289.834,411.058,251.196,411.058z"/>
<g>
	<path style="fill:#25292F;" d="M182.538,221.568c-4.443,0-8.044-3.602-8.044-8.044v-4.238c0-4.443,3.602-8.044,8.044-8.044   s8.044,3.602,8.044,8.044v4.238C190.582,217.966,186.98,221.568,182.538,221.568z"/>
	<path style="fill:#25292F;" d="M363.14,221.568c-4.444,0-8.044-3.602-8.044-8.044v-4.238c0-4.443,3.601-8.044,8.044-8.044   c4.444,0,8.044,3.602,8.044,8.044v4.238C371.184,217.966,367.583,221.568,363.14,221.568z"/>
</g>
<g>
	<path style="fill:#F3C74F;" d="M105.26,363.45c-3.868,0-7.783-1.046-11.309-3.239c-32.662-20.315-48.92-42.838-48.32-66.946   c0.535-21.525,14.864-41.168,40.349-55.312c10.357-5.749,23.417-2.012,29.167,8.347c5.749,10.359,2.012,23.418-8.347,29.167   c-10.97,6.089-18.145,13.494-18.278,18.866c-0.142,5.702,7.163,16.433,28.088,29.448c10.061,6.258,13.143,19.486,6.887,29.546   C119.432,359.858,112.427,363.45,105.26,363.45z"/>
	<path style="fill:#F3C74F;" d="M204.673,503.955c-11.848,0-21.452-9.604-21.452-21.452v-70.156   c0-11.848,9.604-21.452,21.452-21.452c11.848,0,21.452,9.604,21.452,21.452v70.156C226.124,494.352,216.52,503.955,204.673,503.955   z"/>
</g>
<path id="SVGCleanerId_0" style="fill:#394049;" d="M366.785,13.782c-2.104-5.413-8.715-7.437-13.489-4.131l0,0  c-25.055,17.357-54.808,26.656-85.288,26.656h-99.834c-28.773,0-52.099,23.326-52.099,52.099s23.326,52.099,52.099,52.099h112.093  c27.554,0,53.682-12.249,71.307-33.43l0,0C373.224,81.054,379.049,45.333,366.785,13.782z"/>
<g>
	<path id="SVGCleanerId_0_1_" style="fill:#394049;" d="M366.785,13.782c-2.104-5.413-8.715-7.437-13.489-4.131l0,0   c-25.055,17.357-54.808,26.656-85.288,26.656h-99.834c-28.773,0-52.099,23.326-52.099,52.099s23.326,52.099,52.099,52.099h112.093   c27.554,0,53.682-12.249,71.307-33.43l0,0C373.224,81.054,379.049,45.333,366.785,13.782z"/>
</g>
<g style="opacity:0.2;">
	<path d="M270.002,118.312h-19.922c-4.443,0-8.044-3.602-8.044-8.044s3.602-8.044,8.044-8.044h19.922   c18.391,0,36.295-6.49,50.414-18.275c3.411-2.848,8.483-2.389,11.33,1.021c2.847,3.411,2.391,8.484-1.021,11.331   C313.719,110.495,292.154,118.312,270.002,118.312z"/>
	<path d="M282.363,74.579h-16.578c-4.444,0-8.044-3.602-8.044-8.044c0-4.443,3.601-8.044,8.044-8.044h16.578   c9.593,0,19.125-2.41,27.564-6.969l14.012-7.569c3.91-2.111,8.79-0.653,10.901,3.255c2.112,3.91,0.654,8.79-3.254,10.902   l-14.012,7.569C306.795,71.501,294.618,74.579,282.363,74.579z"/>
	<path d="M203.376,81.892h-43.988c-4.443,0-8.044-3.602-8.044-8.044s3.602-8.044,8.044-8.044h43.988   c4.443,0,8.044,3.602,8.044,8.044S207.818,81.892,203.376,81.892z"/>
	<path d="M218.891,118.312h-23.24c-4.443,0-8.044-3.602-8.044-8.044s3.602-8.044,8.044-8.044h23.24c4.443,0,8.044,3.602,8.044,8.044   S223.333,118.312,218.891,118.312z"/>
</g>
<path style="opacity:0.07;fill:#FFFFFF;enable-background:new    ;" d="M366.785,13.782c-2.104-5.413-8.715-7.437-13.489-4.131  c-25.055,17.357-54.808,26.656-85.288,26.656h-19.961c14.102,21.633,38.494,35.946,66.244,35.946  c23.35,0,44.328-10.132,58.797-26.231C372.915,35.154,370.85,24.239,366.785,13.782z"/>
<path style="fill:#0081C6;" d="M164.249,133.703c0.03,1.003-0.093,2.012-0.348,2.983c-3.336,12.78-8.916,21.529-17.507,30.119  c-8.553,8.553-16.896,13.874-29.733,17.258c-1.096,0.29-2.235,0.43-3.369,0.391c-27.052-0.921-48.569-23.652-47.524-51.159  c0.97-25.536,21.777-46.343,47.313-47.313C140.658,84.935,163.43,106.559,164.249,133.703z"/>
<circle style="fill:#F3C74F;" cx="115.002" cy="135.21" r="23.003"/>
<path style="opacity:0.2;enable-background:new    ;" d="M128.378,172.348c-1.096,0.29-2.235,0.43-3.368,0.391  c-27.052-0.921-48.569-23.651-47.524-51.159c0.373-9.828,3.694-18.949,9.083-26.514c-12.092,8.613-20.202,22.522-20.799,38.23  c-1.045,27.509,20.472,50.238,47.524,51.159c1.133,0.039,2.273-0.103,3.369-0.391c12.836-3.384,21.18-8.705,29.733-17.258  c2.014-2.014,3.858-4.04,5.551-6.122C145.31,166.071,138.145,169.772,128.378,172.348z"/>
<path style="fill:#394049;" d="M216.131,217.137c0,18.867-15.554,34.101-34.537,33.581c-18.297-0.502-32.65-15.974-32.65-34.279  v-12.949c0-6.832,5.539-12.371,12.371-12.371h42.444c6.832,0,12.371,5.539,12.371,12.371V217.137z"/>
<path style="opacity:0.07;fill:#FFFFFF;enable-background:new    ;" d="M203.76,191.117h-28.327  c-1.372,3.454-2.134,7.216-2.134,11.159c0,16.704,13.541,30.246,30.246,30.246c3.361,0,6.591-0.557,9.613-1.569  c1.906-4.215,2.974-8.891,2.974-13.818v-13.649C216.131,196.656,210.592,191.117,203.76,191.117z"/>
<path style="fill:#394049;" d="M396.733,217.137c0,18.867-15.553,34.101-34.537,33.581c-18.297-0.502-32.649-15.974-32.649-34.279  v-12.949c0-6.832,5.539-12.371,12.371-12.371h42.444c6.832,0,12.371,5.539,12.371,12.371v13.648H396.733z"/>
<path style="opacity:0.07;fill:#FFFFFF;enable-background:new    ;" d="M384.362,191.117h-28.327  c-1.372,3.454-2.136,7.216-2.136,11.159c0,16.704,13.541,30.246,30.247,30.246c3.362,0,6.591-0.557,9.613-1.569  c1.906-4.215,2.974-8.891,2.974-13.818v-13.649C396.733,196.656,391.195,191.117,384.362,191.117z"/>
<path d="M146.049,135.216c0-17.12-13.928-31.047-31.047-31.047s-31.047,13.928-31.047,31.047s13.928,31.047,31.047,31.047  C132.123,166.262,146.049,152.335,146.049,135.216z M100.045,135.216c0-8.248,6.71-14.958,14.958-14.958s14.958,6.71,14.958,14.958  c0,8.248-6.71,14.958-14.958,14.958C106.755,150.173,100.045,143.464,100.045,135.216z M457.109,235.328  c-14.809-6.714-32.326-0.127-39.042,14.689c-4.568,10.08-10.717,15.502-19.348,17.061c-0.395,0.071-0.801,0.118-1.203,0.173  c-0.267-7.572-1.035-15.454-2.31-23.55c6.2-7.449,9.574-16.727,9.574-26.564v-13.649c0-11.258-9.159-20.416-20.416-20.416h-0.137  c15.82-10.422,25.757-28.241,25.757-47.858c0-23.454-14.021-44.028-35.038-52.83c8.355-22.775,8.402-48.203-0.661-71.517  c-1.901-4.891-5.869-8.576-10.886-10.112c-5.017-1.537-10.369-0.704-14.682,2.285c-23.821,16.501-51.73,25.223-80.707,25.223  h-99.834c-29.699,0-54.44,21.428-59.273,49.977c-27.934,2.982-50.09,26.317-51.17,54.75c-0.585,15.371,4.851,30.025,15.304,41.258  c5.013,5.388,10.891,9.668,17.333,12.737c-6.413,15.883-11.207,31.816-14.343,47.518c-24.287,15.297-37.874,35.89-38.437,58.561  c-0.676,27.16,16.858,52.049,52.114,73.978c4.673,2.907,10.039,4.444,15.521,4.45c18.165,23.785,42.178,41.914,69.953,52.792v58.219  c0,16.265,13.231,29.496,29.496,29.496s29.496-13.231,29.496-29.496v-46.994c0.204,0.001,0.408,0.009,0.611,0.009  c10.57,0,20.905-1.021,30.919-2.949c0.011,0.973-0.055,1.967-0.239,2.959c-0.92,4.961-5.093,9.336-12.754,13.374  c-14.388,7.583-19.923,25.459-12.34,39.848c5.119,9.712,15.126,15.746,26.112,15.746c4.756,0,9.504-1.178,13.736-3.407  c30.303-15.972,40.245-38.612,43.248-54.793c2.576-13.876,0.74-26.379-1.955-35.784c30.941-19.491,54.87-49.077,67.104-84.086  c1.545,0.077,3.088,0.127,4.621,0.127c5.369,0,10.742-0.478,15.969-1.422c27.808-5.022,50.038-23.049,62.599-50.762  C478.512,259.556,471.923,242.041,457.109,235.328z M393.893,135.216c0,15.309-8.41,29.097-21.512,36.217  c-1.451-3.072-2.952-6.113-4.503-9.121c9.573-5.345,15.836-15.531,15.836-27.097c0-13.628-8.831-25.226-21.068-29.392  c2.013-2.853,3.866-5.794,5.557-8.808C383.591,103.227,393.893,118.161,393.893,135.216z M367.626,135.216  c0,5.529-2.967,10.406-7.515,12.997c-4.747-8.072-9.837-15.81-15.207-23.108c1.762-1.476,3.484-3.009,5.151-4.611  c0.858-0.15,1.73-0.236,2.612-0.236C360.916,120.256,367.626,126.968,367.626,135.216z M168.175,44.351h99.834  c32.268,0,63.344-9.712,89.868-28.087c0.248-0.173,0.52-0.216,0.811-0.125c0.287,0.088,0.49,0.276,0.6,0.558  c11.199,28.813,5.875,61.472-13.899,85.233c-16.145,19.403-39.882,30.531-65.123,30.531h-108.03  c-0.708-14.986-7.107-28.853-18.117-39.137c-8.176-7.639-18.173-12.591-28.945-14.511C129.547,58.984,147.168,44.351,168.175,44.351  z M84.814,163.289c-7.518-8.079-11.426-18.622-11.006-29.688c0.812-21.382,18.198-38.768,39.58-39.58  c0.541-0.02,1.078-0.031,1.615-0.031c10.502,0,20.438,3.905,28.132,11.092c8.097,7.563,12.739,17.814,13.073,28.863l0,0  c0.006,0.213-0.025,0.458-0.09,0.708c-2.773,10.623-7.238,18.29-15.411,26.463c-8.1,8.099-15.416,12.352-26.096,15.167  c-0.365,0.097-0.721,0.142-1.044,0.131C102.552,176.041,92.34,171.378,84.814,163.289z M116.665,349.075  c-2.465,3.964-6.729,6.33-11.406,6.33c-2.488,0-4.93-0.7-7.06-2.025c-30.069-18.702-45.051-38.86-44.526-59.915  c0.461-18.558,13.322-35.775,36.211-48.48c2.018-1.12,4.239-1.69,6.485-1.69c1.239,0,2.485,0.174,3.709,0.523  c3.443,0.986,6.297,3.253,8.036,6.384c1.738,3.131,2.153,6.752,1.167,10.194c-0.986,3.443-3.253,6.296-6.384,8.035  c-6.639,3.685-22.117,13.566-22.416,25.699c-0.264,10.572,11.059,23.528,31.881,36.479  C118.638,334.514,120.569,342.798,116.665,349.075z M218.08,482.504c0,7.393-6.014,13.407-13.407,13.407  s-13.407-6.014-13.407-13.407v-70.156c0-7.392,6.014-13.407,13.407-13.407s13.407,6.015,13.407,13.407V482.504z M307.643,443.36  c-2.354,12.685-10.327,30.528-34.929,43.497c-1.954,1.03-4.052,1.551-6.236,1.551c-4.999,0-9.551-2.744-11.88-7.16  c-3.447-6.541-0.931-14.665,5.609-18.113c12.131-6.393,19.22-14.693,21.071-24.67c0.578-3.113,0.647-6.412,0.252-9.779  c8.823-2.642,17.333-6.01,25.46-10.036C308.573,425.61,309.356,434.133,307.643,443.36z M234.78,419.428  c-0.203,0-0.408-0.007-0.611-0.009v-7.072c0-16.264-13.231-29.496-29.496-29.496c-14.464,0-26.521,10.468-29.015,24.223  c-20.912-9.159-39.261-22.996-53.887-40.615c3.382-2.285,6.311-5.279,8.556-8.889c8.589-13.81,4.342-32.034-9.47-40.624  c-18.935-11.777-23.959-20.245-24.284-22.337c0.487-1.675,4.549-6.795,14.13-12.113c6.889-3.823,11.877-10.101,14.044-17.675  c2.168-7.575,1.256-15.54-2.568-22.429c-3.824-6.889-10.102-11.877-17.676-14.044c-3.429-0.981-6.94-1.325-10.393-1.06  c2.93-11.743,6.882-23.758,11.679-35.512c2.377,0.382,4.788,0.633,7.232,0.716c0.212,0.008,0.426,0.011,0.639,0.011  c1.682,0,3.379-0.223,5.052-0.665c13.525-3.565,23.194-9.172,33.37-19.348c7.58-7.58,12.757-15.093,16.361-23.943h111.821  c18.4,0,36.124-4.978,51.514-14.136c10.795,14.63,20.401,31.182,28.252,48.658h-18.113c-8.402,0-15.63,5.103-18.759,12.371H222.517  c-3.129-7.268-10.357-12.371-18.758-12.371h-42.443c-11.257,0-20.416,9.158-20.416,20.416v12.949  c0,22.723,18.156,41.709,40.473,42.32c0.395,0.011,0.787,0.016,1.181,0.016c10.909,0,21.174-4.162,29.017-11.792  c8.128-7.908,12.604-18.508,12.604-29.846v-5.604h97.328v4.905c0,22.723,18.157,41.709,40.472,42.32  c0.395,0.011,0.788,0.016,1.182,0.016c6.083,0,11.964-1.297,17.338-3.765c0.693,6.248,1.048,12.309,1.048,18.115  C381.542,353.796,315.705,419.428,234.78,419.428z M208.087,203.488v13.649c0,6.957-2.747,13.461-7.734,18.313  c-4.985,4.85-11.576,7.417-18.538,7.225c-13.688-0.375-24.825-12.146-24.825-26.238v-12.949c0-2.387,1.941-4.327,4.327-4.327h42.443  C206.145,199.161,208.087,201.103,208.087,203.488z M388.689,217.137c0,6.957-2.746,13.461-7.734,18.313  c-4.985,4.85-11.602,7.42-18.538,7.225c-13.689-0.375-24.825-12.146-24.825-26.238v-12.949c0-2.387,1.941-4.327,4.327-4.327h42.443  c2.387,0,4.327,1.94,4.327,4.327V217.137z M457.145,267.728c-10.313,22.753-28.357,37.517-50.804,41.57  c-4.266,0.77-8.648,1.147-13.058,1.151c2.072-8.751,3.426-17.775,4.009-27.003c1.447-0.12,2.881-0.282,4.283-0.535  c13.911-2.512,24.39-11.346,31.145-26.252c3.053-6.735,11.014-9.731,17.746-6.679C457.201,253.033,460.196,260.994,457.145,267.728z   M303.163,230.17c-4.444,0-8.044,3.602-8.044,8.044c0,3.926-3.194,7.12-7.12,7.12c-3.926,0-7.12-3.193-7.12-7.12  c0-4.443-3.602-8.044-8.044-8.044c-4.444,0-8.044,3.602-8.044,8.044c0,3.926-3.194,7.12-7.119,7.12c-3.926,0-7.12-3.193-7.12-7.12  c0-4.443-3.602-8.044-8.044-8.044s-8.044,3.602-8.044,8.044c0,12.797,10.412,23.209,23.209,23.209c5.79,0,11.094-2.132,15.163-5.653  c4.07,3.52,9.372,5.653,15.164,5.653c12.797,0,23.209-10.411,23.209-23.209C311.207,233.772,307.606,230.17,303.163,230.17z"/>
<g>
</g>
<g>
</g>
<g>
</g>
<g>
</g>
<g>
</g>
<g>
</g>
<g>
</g>
<g>
</g>
<g>
</g>
<g>
</g>
<g>
</g>
<g>
</g>
<g>
</g>
<g>
</g>
<g>
</g>
</svg>
