<?xml version="1.0" encoding="iso-8859-1"?>
<!-- Generator: Adobe Illustrator 19.0.0, SVG Export Plug-In . SVG Version: 6.00 Build 0)  -->
<svg xmlns="http://www.w3.org/2000/svg" xmlns:xlink="http://www.w3.org/1999/xlink" version="1.1" id="Capa_1" x="0px" y="0px" viewBox="0 0 512 512" style="enable-background:new 0 0 512 512;" xml:space="preserve">
<path style="fill:#F3C74F;" d="M327.326,503.988c-11.8,0-21.365-9.565-21.365-21.365V401.72c0-11.8,9.565-21.365,21.365-21.365  c11.8,0,21.365,9.565,21.365,21.365v80.904C348.691,494.423,339.126,503.988,327.326,503.988z"/>
<path style="opacity:0.2;enable-background:new    ;" d="M327.326,380.355c-11.8,0-21.365,9.565-21.365,21.365v44.808  c15.086-2.409,29.442-6.995,42.73-13.433V401.72C348.691,389.92,339.126,380.355,327.326,380.355z"/>
<path style="fill:#F3C74F;" d="M235.457,503.988c-11.8,0-21.365-9.565-21.365-21.365V401.72c0-11.8,9.565-21.365,21.365-21.365  s21.365,9.565,21.365,21.365v80.904C256.822,494.423,247.257,503.988,235.457,503.988z"/>
<path style="opacity:0.2;enable-background:new    ;" d="M235.457,380.355c-11.8,0-21.365,9.565-21.365,21.365v31.374  c13.288,6.438,27.644,11.024,42.73,13.433v-44.809C256.822,389.92,247.257,380.355,235.457,380.355z"/>
<path style="fill:#F3C74F;" d="M132.737,325.551c-19.95,0-38.59-6.633-52.959-19.399c-20.315-18.05-28.869-45.869-22.883-74.418  c2.422-11.549,13.747-18.949,25.294-16.526c11.549,2.422,18.947,13.746,16.526,25.294c-2.885,13.761,0.469,25.732,9.444,33.707  c10.105,8.978,25.854,11.068,42.13,5.591c11.186-3.764,23.301,2.252,27.063,13.435c3.763,11.183-2.252,23.3-13.435,27.063  C153.446,323.823,142.92,325.551,132.737,325.551z"/>
<path style="opacity:0.2;enable-background:new    ;" d="M177.352,293.237c-3.762-11.183-15.877-17.2-27.063-13.435  c-14.62,4.919-28.799,3.715-38.86-3.083c-0.024,1.114-0.043,2.226-0.043,3.329c0,15.377,2.275,30.223,6.49,44.232  c4.838,0.843,9.807,1.272,14.86,1.272c10.184,0,20.709-1.728,31.18-5.251C175.099,316.536,181.115,304.42,177.352,293.237z"/>
<path style="fill:#F3C74F;" d="M458.721,412.119c-11.8,0-21.365-9.565-21.365-21.365c0-19.068-1.078-34.101-6.338-45.483  c-6.863-14.852-20.791-21.147-32.159-24.971c-11.183-3.763-17.199-15.879-13.435-27.063c3.762-11.183,15.879-17.197,27.063-13.435  c62.375,20.988,67.599,68.276,67.599,110.952C480.086,402.554,470.521,412.119,458.721,412.119z"/>
<circle style="fill:#0081C6;" cx="399.737" cy="140.859" r="49.07"/>
<circle style="fill:#F3C74F;" cx="399.737" cy="140.859" r="22.91"/>
<circle style="fill:#0081C6;" cx="163.035" cy="140.859" r="49.07"/>
<circle style="fill:#F3C74F;" cx="163.035" cy="140.859" r="22.91"/>
<path style="opacity:0.2;enable-background:new    ;" d="M192.048,101.287c-23.071,20.851-42.639,49.555-56.539,80.192  c7.851,5.332,17.327,8.449,27.532,8.449c27.1,0,49.07-21.97,49.07-49.07C212.109,124.613,204.21,110.217,192.048,101.287z"/>
<path style="fill:#40BAB3;" d="M435.571,275.419c0-84.899-70.779-207.206-154.18-207.206s-154.18,122.307-154.18,207.206  s69.029,153.724,154.18,153.724S435.571,360.317,435.571,275.419z"/>
<g>
	<path style="fill:#F0B0B7;" d="M204.325,257.602h-25.739c-4.425,0-8.012-3.587-8.012-8.012c0-4.425,3.587-8.012,8.012-8.012h25.739   c4.425,0,8.012,3.587,8.012,8.012C212.337,254.015,208.75,257.602,204.325,257.602z"/>
	<path style="fill:#F0B0B7;" d="M384.197,257.602h-25.739c-4.425,0-8.012-3.587-8.012-8.012c0-4.425,3.587-8.012,8.012-8.012h25.739   c4.425,0,8.012,3.587,8.012,8.012C392.208,254.015,388.621,257.602,384.197,257.602z"/>
</g>
<path style="fill:#FFFFFF;" d="M129.809,303.612c13.282,71.433,76.092,125.531,151.583,125.531s138.302-54.098,151.583-125.531  L129.809,303.612L129.809,303.612z"/>
<path style="fill:#0081C6;" d="M157.102,366.377c28.062,38.059,73.277,62.765,124.289,62.765s96.228-24.705,124.289-62.765H157.102z  "/>
<path style="opacity:0.2;enable-background:new    ;" d="M297.741,412.793c-85.151,0-154.18-68.824-154.18-153.724  c0-51.112,25.659-115.771,64.276-159.15c-47.558,41.982-80.625,117.473-80.625,175.498c0,84.899,69.029,153.724,154.18,153.724  c46.817,0,88.755-20.809,117.032-53.652C371.41,398.734,336.223,412.793,297.741,412.793z"/>
<path style="fill:#E6595A;" d="M123.694,79.849c0-25.344-20.546-45.89-45.89-45.89s-45.891,20.546-45.891,45.89  s20.546,66.124,45.89,66.124S123.694,105.195,123.694,79.849z"/>
<path style="opacity:0.2;enable-background:new    ;" d="M83.011,140.768c-25.344,0-45.89-40.78-45.89-66.124  c0-11.347,4.127-21.724,10.95-29.734c-9.881,8.417-16.157,20.943-16.157,34.94c0,25.344,20.546,66.124,45.89,66.124  c9.291,0,17.931-5.492,25.155-13.682C96.927,137.521,90.161,140.768,83.011,140.768z"/>
<path style="fill:#F3C74F;" d="M180.995,126.969h200.787c2.665,0,4.129-3.101,2.435-5.159L296.344,15.073  c-7.749-9.413-22.164-9.413-29.914,0L178.558,121.81C176.865,123.867,178.329,126.969,180.995,126.969z"/>
<path style="opacity:0.25;fill:#FFFFFF;enable-background:new    ;" d="M88.772,35.288c-9.746,4.335-16.544,14.094-16.544,25.449  c0,15.378,12.466,27.846,27.846,27.846c9.837,0,18.477-5.106,23.431-12.808C121.766,56.038,107.541,39.894,88.772,35.288z"/>
<path style="fill:#E6595A;" d="M301.464,21.29l-120.796,97.958l-2.109,2.562c-1.694,2.057-0.23,5.159,2.436,5.159h41.032  l99.805-80.937L301.464,21.29z M345.279,74.512l-64.684,52.455h50.88l34.174-27.714L345.279,74.512z"/>
<path d="M443.261,285.47c0.205-3.325,0.323-6.675,0.323-10.052c0-26.137-6.379-55.471-17.589-83.864  c18.73-9.691,30.83-29.13,30.83-50.696c0-31.475-25.607-57.082-57.082-57.082c-10.475,0-20.744,2.915-29.626,8.301L302.53,9.98  C297.309,3.637,289.603,0,281.388,0c-8.215,0-15.921,3.637-21.143,9.98L192.66,92.075c-8.879-5.384-19.147-8.298-29.62-8.298  c-12.262,0-23.624,3.899-32.937,10.505c1.049-5.039,1.603-9.925,1.603-14.432c0-29.722-24.181-53.902-53.903-53.902  S23.901,50.13,23.901,79.85c0,26.569,19.215,66.257,45.89,73.107v54.889c-2.818,0.802-5.531,2.031-8.055,3.68  c-6.569,4.292-11.075,10.884-12.684,18.565c-6.583,31.396,2.914,62.069,25.404,82.051c14.907,13.245,34.554,20.766,55.57,21.364  c14.207,36.688,41.457,66.953,76.055,85.119v63.999c0,16.199,13.178,29.377,29.377,29.377s29.377-13.178,29.377-29.377v-46.305  c5.445,0.553,10.969,0.836,16.558,0.836c5.589,0,11.113-0.283,16.558-0.836v46.305c0,16.199,13.178,29.377,29.377,29.377  c16.199,0,29.377-13.178,29.377-29.377v-63.999c28.923-15.186,52.709-38.829,68.036-67.611c3.786,9.85,4.605,23.105,4.605,39.741  c0,16.199,13.178,29.377,29.377,29.377c16.199,0,29.377-13.178,29.377-29.377C488.097,350.866,482.534,310.65,443.261,285.47z   M399.743,99.801c22.639,0,41.058,18.419,41.058,41.058c0,15.107-8.253,28.761-21.125,35.904c-1.415-3.074-2.885-6.13-4.409-9.158  c9.304-5.407,15.397-15.477,15.397-26.746c0-17.05-13.871-30.921-30.921-30.921c-4.401,0-8.72,0.948-12.678,2.727l-6.616-8.036  C386.351,101.489,392.986,99.801,399.743,99.801z M414.641,140.858c0,5.253-2.747,9.956-6.979,12.617  c-4.908-8.538-10.245-16.778-15.949-24.597c0.051-0.101,0.117-0.193,0.167-0.297c0.075-0.158,0.121-0.322,0.187-0.481  c2.304-1.386,4.957-2.139,7.676-2.139C407.958,125.961,414.641,132.643,414.641,140.858z M272.616,20.163  c2.166-2.631,5.364-4.139,8.771-4.139c3.408,0,6.605,1.509,8.771,4.139l81.331,98.793H191.286L272.616,20.163z M163.04,99.801  c6.755,0,13.387,1.687,19.289,4.824l-6.617,8.037c-3.957-1.778-8.274-2.724-12.673-2.724c-17.05,0-30.921,13.871-30.921,30.921  c0,11.269,6.092,21.338,15.397,26.746c-1.523,3.028-2.993,6.084-4.409,9.158c-12.871-7.142-21.126-20.797-21.126-35.904  C121.982,118.219,140.4,99.801,163.04,99.801z M171.066,128.884c-5.703,7.817-11.038,16.055-15.946,24.591  c-4.231-2.66-6.979-7.364-6.979-12.617c0-8.215,6.683-14.898,14.898-14.898c2.717,0,5.365,0.75,7.667,2.131  c0.067,0.162,0.114,0.328,0.19,0.488C170.947,128.686,171.014,128.779,171.066,128.884z M39.925,79.849  c0-20.886,16.993-37.878,37.878-37.878c20.886,0,37.879,16.993,37.879,37.878c0,21.86-18.346,58.113-37.879,58.113  S39.925,101.71,39.925,79.849z M85.099,300.163c-18.14-16.118-25.752-41.084-20.364-66.785c0.672-3.203,2.461-5.98,5.057-7.925  v10.664c0,4.425,3.587,8.012,8.012,8.012c4.425,0,8.012-3.587,8.012-8.012v-10.672c1.226,0.921,2.304,2.047,3.167,3.368  c1.951,2.986,2.621,6.553,1.89,10.044c-3.5,16.695,0.749,31.377,11.964,41.341c4.72,4.194,10.504,7.228,16.954,8.953  c0.812,9.585,2.466,18.935,4.888,27.975C109.554,315.618,95.99,309.841,85.099,300.163z M119.249,271.968  c-2.138-1.004-4.085-2.251-5.769-3.747c-8.634-7.67-8.531-18.413-6.924-26.074c1.611-7.68,0.135-15.528-4.159-22.097  c-3.917-5.995-9.754-10.263-16.581-12.189v-54.906c7.367-1.892,14.165-6.284,20.146-12.219c0,0.041-0.003,0.08-0.003,0.121  c0,21.567,12.1,41.006,30.831,50.697C126.069,218.706,119.779,246.713,119.249,271.968z M248.81,482.623  c0,7.363-5.99,13.353-13.353,13.353s-13.353-5.99-13.353-13.353v-56.659c8.572,3.368,17.498,6.03,26.706,7.91V482.623z   M340.679,482.623c0,7.363-5.99,13.353-13.353,13.353c-7.363,0-13.353-5.99-13.353-13.353v-48.748  c9.208-1.88,18.135-4.541,26.706-7.91V482.623z M281.392,421.131c-80.597,0-146.168-65.366-146.168-145.712  c0-44.511,20.041-99.207,51.269-140.438H376.29c31.228,41.232,51.269,95.928,51.269,140.438  C427.56,355.765,361.989,421.131,281.392,421.131z M458.721,404.107c-7.363,0-13.353-5.99-13.353-13.353  c0-20.126-1.203-36.134-7.077-48.843c-1.457-3.155-3.257-6.116-5.359-8.861c3.617-9.425,6.381-19.268,8.181-29.44  c28.363,22.463,30.962,56.472,30.962,87.143C472.074,398.117,466.084,404.107,458.721,404.107z M311.596,214.627  c-4.425,0-8.012,3.587-8.012,8.012c0,3.91-3.18,7.091-7.091,7.091c-3.91,0-7.09-3.181-7.09-7.091c0-4.425-3.587-8.012-8.012-8.012  c-4.425,0-8.012,3.587-8.012,8.012c0,3.91-3.181,7.091-7.091,7.091s-7.09-3.181-7.09-7.091c0-4.425-3.587-8.012-8.012-8.012  c-4.425,0-8.012,3.587-8.012,8.012c0,12.745,10.369,23.115,23.114,23.115c5.767,0,11.049-2.124,15.103-5.63  c4.053,3.506,9.334,5.63,15.102,5.63c12.745,0,23.115-10.368,23.115-23.115C319.608,218.214,316.021,214.627,311.596,214.627z   M191.456,203.826c-4.425,0-8.012,3.587-8.012,8.012v4.221c0,4.425,3.587,8.012,8.012,8.012c4.425,0,8.012-3.587,8.012-8.012v-4.221  C199.468,207.413,195.881,203.826,191.456,203.826z M363.316,211.838v4.221c0,4.425,3.587,8.012,8.012,8.012  s8.012-3.587,8.012-8.012v-4.221c0-4.425-3.587-8.012-8.012-8.012S363.316,207.413,363.316,211.838z"/>
<g>
</g>
<g>
</g>
<g>
</g>
<g>
</g>
<g>
</g>
<g>
</g>
<g>
</g>
<g>
</g>
<g>
</g>
<g>
</g>
<g>
</g>
<g>
</g>
<g>
</g>
<g>
</g>
<g>
</g>
</svg>
