<?xml version="1.0" encoding="iso-8859-1"?>
<!-- Generator: Adobe Illustrator 19.0.0, SVG Export Plug-In . SVG Version: 6.00 Build 0)  -->
<svg xmlns="http://www.w3.org/2000/svg" xmlns:xlink="http://www.w3.org/1999/xlink" version="1.1" id="Capa_1" x="0px" y="0px" viewBox="0 0 511.993 511.993" style="enable-background:new 0 0 511.993 511.993;" xml:space="preserve">
<path style="fill:#DF4D60;" d="M444.481,185.037c15.984-17.78,14.526-45.149-3.254-61.133c-7.975-7.168-18.318-11.125-29.035-11.099  c-1.284,0-2.56,0.121-3.827,0.234c9.728-21.885-0.13-47.509-22.024-57.237c-11.22-4.99-24.037-4.981-35.248,0.017  c0.113-1.258,0.356-2.482,0.356-3.757c0.113-23.855-19.143-43.275-42.997-43.388c-7.263-0.035-14.422,1.77-20.8,5.233  c-16.062-17.485-43.266-18.639-60.751-2.577c-0.894,0.824-1.753,1.675-2.569,2.569c-20.965-11.376-47.18-3.601-58.556,17.372  c-3.462,6.378-5.267,13.528-5.233,20.791c0,1.293,0.252,2.543,0.364,3.827c-21.659-9.927-47.258-0.417-57.194,21.243  c-5.224,11.402-5.233,24.514-0.017,35.916c-1.284-0.121-2.577-0.243-3.896-0.243c-23.907-0.052-43.336,19.281-43.388,43.197  c-0.026,10.717,3.931,21.069,11.099,29.035c-22.457,8.192-34.025,33.035-25.833,55.493c4.773,13.077,15.533,23.056,28.931,26.831  l1.171,0.33h7.914l1.753-6.387c2.291-8.374,4.868-16.678,7.68-24.809c0.955-2.89,2.005-5.779,3.159-8.973l0.477-1.354  c2.959-8.053,6.404-16.539,10.378-25.564c0.252-0.503,0.928-2.048,1.128-2.499l0.121-0.269l3.905-7.801l-0.243-0.113  c0.278-0.581,0.503-1.119,0.816-1.744c3.254-6.916,6.881-14.023,10.786-21.147c3.376-6.187,7.055-12.496,11.177-19.229l5.736-9.085  l0.286,0.087l3.514-5.58c0.616-0.972,1.293-1.944,1.978-2.907l1.197-1.718c1.588-2.291,3.228-4.478,4.877-6.673l1.388-1.883  c0.347-0.417,0.686-0.842,1.015-1.258h0.13l2.612-3.306c6.04-7.723,12.53-15.082,19.429-22.041c1.961-1.892,4.018-3.801,6.066-5.718  l5.71-5.042c2.013-1.788,4.035-3.48,6.17-5.12c10.274-8.192,21.737-14.786,33.981-19.55l0.217-0.078  c9.892-3.835,20.41-5.831,31.022-5.883c10.535,0.078,20.974,2.031,30.831,5.771l0.052,0.017c14.76,5.814,28.384,14.17,40.264,24.688  l4.747,4.104c2.543,2.213,4.903,4.512,7.402,6.994c6.925,6.968,13.459,14.318,19.55,22.024l0.347,0.824l0.92,1.197  c0.694,0.946,1.44,1.848,2.239,2.716c3.219,4.243,6.361,8.669,9.502,13.172l1.553,2.23l-0.087,0.121l3.289,4.955  c1.493,2.247,2.907,4.486,4.347,6.864c4.217,6.838,7.827,13.06,11.046,19.021c4.504,8.304,8.287,15.871,11.732,23.186l-0.191,0.087  l3.714,7.428l1.05,2.308l0,0c0.104,0.226,0.182,0.399,0.208,0.451c4.373,9.91,7.723,18.145,10.569,25.85l0.147,0.868l0.312,0.824  c1.067,2.785,2.143,5.736,3.124,8.868c3.193,9.207,5.719,17.268,7.723,24.661l1.727,6.413h7.94l1.171-0.33  c23.013-6.482,36.411-30.389,29.929-53.401C467.546,200.57,457.558,189.81,444.481,185.037L444.481,185.037z"/>
<g>
	<path style="fill:#F29C1F;" d="M69.95,270.823c-4.408-1.224-8.964-1.84-13.537-1.822c-28.757,0-52.065,23.308-52.065,52.065   c0,28.757,23.308,52.065,52.065,52.065c3.089,0.017,6.17-0.269,9.198-0.868"/>
	<path style="fill:#F29C1F;" d="M446.381,372.264c3.028,0.599,6.109,0.885,9.198,0.868c28.757,0,52.065-23.308,52.065-52.065   c0-28.757-23.308-52.065-52.065-52.065c-4.573-0.017-9.129,0.599-13.537,1.822"/>
</g>
<path style="fill:#F0C419;" d="M450.894,334.256c0,98.143-87.296,177.716-194.897,177.716S61.099,432.399,61.099,334.256  c0.017-8.157,0.573-16.296,1.649-24.384c2.048-17.199,5.476-34.198,10.239-50.85h0.087c2.256-8.244,4.859-16.748,7.81-25.252  c1.041-3.124,2.169-6.248,3.297-9.372c0.174-0.434,0.26-0.781,0.434-1.215c3.211-8.764,6.855-17.615,10.76-26.466  c0.434-0.868,0.781-1.822,1.215-2.69c0.434-1.041,0.955-2.083,1.475-3.211c0.955-2.083,1.909-4.252,2.95-6.335  c3.384-7.202,7.116-14.491,11.02-21.607c3.645-6.682,7.463-13.19,11.454-19.698c1.475-2.343,3.037-4.773,4.512-7.116  c1.649-2.516,3.297-5.033,5.033-7.463c1.041-1.649,2.256-3.297,3.384-4.946c2.169-3.124,4.426-6.074,6.682-9.111  c1.215-1.475,2.343-2.95,3.471-4.426h0.174c6.283-8.027,13.034-15.672,20.219-22.909c2.43-2.343,4.946-4.686,7.376-6.942  c1.562-1.388,3.124-2.69,4.686-4.078c2.169-1.909,4.339-3.731,6.595-5.467c10.968-8.738,23.195-15.767,36.272-20.826  c10.925-4.261,22.544-6.465,34.276-6.508c11.593,0.078,23.082,2.221,33.929,6.335c15.784,6.204,30.345,15.134,43.041,26.38  c1.562,1.215,3.124,2.603,4.599,3.992c2.69,2.343,5.207,4.773,7.81,7.376c7.385,7.437,14.335,15.29,20.826,23.516  c0.087,0.087,0.087,0.087,0.087,0.174c0.087,0.26,0.26,0.521,0.347,0.781c0.868,1.128,1.649,2.169,2.603,3.211  c3.297,4.339,6.508,8.851,9.719,13.45c1.649,2.516,3.297,4.946,4.859,7.463c1.562,2.343,3.037,4.686,4.512,7.116  c3.905,6.335,7.723,12.843,11.281,19.438c5.033,9.285,9.806,18.657,14.144,28.202c0.521,1.041,0.955,2.083,1.475,3.211  c0.434,0.868,0.781,1.822,1.215,2.69c3.905,8.851,7.549,17.615,10.76,26.466c0.182,0.477,0.33,0.972,0.434,1.475  c1.128,2.95,2.256,6.074,3.211,9.111c2.95,8.504,5.64,16.921,7.897,25.252h0.087c4.729,16.661,8.148,33.66,10.239,50.85  C450.33,317.96,450.876,326.099,450.894,334.256z"/>
<g>
	<path style="fill:#DF4D60;" d="M134.511,381.809c-2.308,0.026-4.53-0.885-6.161-2.517c-0.764-0.842-1.38-1.814-1.822-2.864   c-0.928-2.1-0.928-4.495,0-6.595c0.417-1.059,1.041-2.031,1.822-2.864l1.293-1.041c0.486-0.33,1.015-0.59,1.571-0.781   c2.109-0.876,4.486-0.876,6.595,0c1.059,0.417,2.031,1.041,2.864,1.822c0.764,0.842,1.38,1.814,1.822,2.864   c1.388,3.228,0.659,6.977-1.822,9.458c-0.842,0.764-1.814,1.38-2.864,1.822C136.776,381.601,135.648,381.835,134.511,381.809z"/>
	<path style="fill:#DF4D60;" d="M134.511,416.519c-4.747,0.052-8.625-3.757-8.678-8.495c-0.009-1.197,0.226-2.378,0.694-3.471   c0.417-1.059,1.041-2.031,1.822-2.864l1.293-1.041c0.486-0.33,1.015-0.59,1.571-0.781c2.109-0.876,4.486-0.876,6.595,0   c1.05,0.443,2.022,1.059,2.864,1.822c0.764,0.842,1.38,1.814,1.822,2.864c0.928,2.1,0.928,4.495,0,6.595   c-0.79,2.178-2.508,3.896-4.686,4.686C136.767,416.267,135.648,416.502,134.511,416.519z"/>
	<path style="fill:#DF4D60;" d="M117.156,399.164c-2.308,0.026-4.53-0.885-6.161-2.516c-0.764-0.868-1.406-1.831-1.918-2.864   c-0.417-1.05-0.616-2.169-0.599-3.297c0.026-2.3,0.928-4.495,2.516-6.161c3.445-3.211,8.79-3.211,12.235,0   c2.551,2.447,3.306,6.213,1.909,9.458c-0.443,1.067-1.085,2.048-1.909,2.864C121.642,398.287,119.447,399.199,117.156,399.164z"/>
	<path style="fill:#DF4D60;" d="M151.866,399.164c-4.747,0.043-8.634-3.766-8.678-8.513c0-0.052,0-0.113,0-0.165   c0.026-2.3,0.928-4.495,2.516-6.161c0.408-0.373,0.842-0.72,1.293-1.041c0.486-0.33,1.015-0.59,1.571-0.781   c0.495-0.252,1.015-0.425,1.562-0.529c2.838-0.607,5.779,0.278,7.81,2.352c1.64,1.631,2.577,3.844,2.603,6.161   C160.509,395.268,156.648,399.129,151.866,399.164z"/>
	<path style="fill:#DF4D60;" d="M96.59,194.027c-0.434,0.868-0.781,1.822-1.215,2.69c-3.905,8.851-7.549,17.702-10.76,26.466   c-0.174,0.434-0.26,0.781-0.434,1.215c-1.128,3.124-2.256,6.248-3.297,9.372c-2.95,8.504-5.554,17.008-7.81,25.252h-0.087   c-18.448-5.224-29.165-24.419-23.933-42.867c4.235-14.934,17.867-25.252,33.391-25.252C87.34,190.869,92.174,191.936,96.59,194.027   z"/>
	<path style="fill:#DF4D60;" d="M128.003,136.061c-1.475,2.343-3.037,4.773-4.512,7.116c-3.992,6.508-7.81,13.016-11.454,19.698   c-3.905,7.116-7.636,14.405-11.02,21.607c-1.041,2.083-1.996,4.252-2.95,6.335c-19.134-0.928-33.894-17.181-32.975-36.324   s17.182-33.894,36.324-32.975C112.036,122.038,121.842,127.392,128.003,136.061L128.003,136.061z"/>
	<path style="fill:#DF4D60;" d="M174.341,80.265c-2.43,2.256-4.946,4.599-7.376,6.942c-7.185,7.237-13.936,14.882-20.219,22.909   h-0.174c-1.128,1.475-2.256,2.95-3.471,4.426c-2.256,3.037-4.512,5.987-6.682,9.111c-1.128,1.649-2.343,3.297-3.384,4.946   c-18.318-5.58-28.653-24.965-23.065-43.283c5.58-18.318,24.965-28.653,43.284-23.065C162.488,65.062,170.124,71.587,174.341,80.265   L174.341,80.265z"/>
	<path style="fill:#DF4D60;" d="M221.286,43.385c-0.017,2.187,0.182,4.365,0.607,6.508c-13.077,5.059-25.304,12.088-36.272,20.826   c-2.256,1.735-4.426,3.558-6.595,5.467c-13.346-13.737-13.034-35.682,0.703-49.028c6.482-6.3,15.168-9.814,24.202-9.806   c8.183,0.026,16.105,2.907,22.388,8.157C223.022,30.89,221.278,37.077,221.286,43.385z"/>
	<path style="fill:#DF4D60;" d="M464.257,225.613c-0.017,15.524-10.318,29.156-25.252,33.408h-0.087   c-2.256-8.33-4.946-16.748-7.897-25.252c-0.955-3.037-2.083-6.161-3.211-9.111c-0.104-0.503-0.252-0.998-0.434-1.475   c-3.211-8.851-6.855-17.615-10.76-26.466c-0.434-0.868-0.781-1.822-1.215-2.69c4.417-2.091,9.25-3.159,14.144-3.124   c19.169-0.009,34.701,15.524,34.71,34.693C464.257,225.605,464.257,225.605,464.257,225.613z"/>
	<path style="fill:#DF4D60;" d="M446.902,156.193c0.017,18.492-14.5,33.738-32.975,34.623c-4.339-9.545-9.111-18.917-14.144-28.202   c-3.558-6.595-7.376-13.103-11.281-19.438c-1.475-2.43-2.95-4.773-4.512-7.116c11.09-15.602,32.732-19.255,48.334-8.166   C441.487,134.413,446.919,144.956,446.902,156.193z"/>
	<path style="fill:#DF4D60;" d="M403.514,95.45c0.009,15.194-9.875,28.636-24.384,33.148c-3.211-4.599-6.421-9.111-9.719-13.45   c-0.955-1.041-1.736-2.083-2.603-3.211c-0.087-0.26-0.26-0.521-0.347-0.781c0-0.087,0-0.087-0.087-0.174   c-6.482-8.226-13.441-16.079-20.826-23.516c-2.603-2.603-5.12-5.033-7.81-7.376c8.461-17.181,29.252-24.245,46.425-15.776   C396.026,70.155,403.532,82.235,403.514,95.45z"/>
	<path style="fill:#DF4D60;" d="M290.707,43.385c0.017,2.126-0.182,4.252-0.607,6.335c-10.847-4.113-22.336-6.257-33.929-6.335   c-11.732,0.043-23.351,2.247-34.276,6.508c-0.425-2.143-0.625-4.321-0.607-6.508c-0.009-6.309,1.727-12.496,5.033-17.876   c9.797-16.392,31.031-21.737,47.414-11.94c4.903,2.933,9.007,7.029,11.94,11.94C288.98,30.89,290.724,37.077,290.707,43.385z"/>
	<path style="fill:#DF4D60;" d="M342.772,52.063c0.035,8.955-3.419,17.581-9.632,24.037c-12.695-11.246-27.265-20.175-43.041-26.38   c0.425-2.083,0.633-4.209,0.607-6.335c0.009-6.309-1.727-12.496-5.033-17.876c6.283-5.25,14.205-8.131,22.388-8.157   c19.169-0.009,34.701,15.524,34.71,34.693C342.772,52.054,342.772,52.054,342.772,52.063z"/>
</g>
<path style="fill:#FFFFFF;" d="M238.641,303.711c0,23.95-27.161,43.388-60.743,43.388s-60.743-19.438-60.743-43.388  c0-4.078,0.79-8.113,2.343-11.888c2.213-5.415,5.588-10.274,9.892-14.231c3.271-3.072,6.916-5.727,10.847-7.897  c5.198-2.976,10.769-5.224,16.574-6.682c6.881-1.805,13.971-2.707,21.086-2.69C211.481,260.323,238.641,279.761,238.641,303.711z"/>
<g>
	<path style="fill:#464F5D;" d="M129.391,277.592c-4.304,3.957-7.68,8.816-9.892,14.231c-0.72-0.417-1.388-0.911-1.996-1.475   l-15.186-15.186c-3.402-3.402-3.402-8.92,0-12.322c3.402-3.402,8.92-3.402,12.322,0L129.391,277.592z"/>
	<path style="fill:#464F5D;" d="M156.812,263.013c-5.805,1.458-11.385,3.705-16.574,6.682l-20.566-20.566   c-3.402-3.402-3.402-8.921,0-12.322c3.402-3.402,8.921-3.402,12.322,0l22.735,22.735   C155.728,260.488,156.448,261.686,156.812,263.013z"/>
</g>
<path style="fill:#FFFFFF;" d="M394.837,303.711c0,23.95-27.161,43.388-60.743,43.388s-60.743-19.438-60.743-43.388  s27.161-43.388,60.743-43.388c7.116-0.017,14.205,0.885,21.086,2.69c5.805,1.458,11.385,3.705,16.574,6.682  c3.931,2.169,7.575,4.825,10.847,7.897c4.304,3.957,7.68,8.816,9.892,14.231C394.047,295.598,394.846,299.633,394.837,303.711z"/>
<g>
	<path style="fill:#464F5D;" d="M409.675,275.162l-15.186,15.186c-0.607,0.564-1.276,1.059-1.996,1.475   c-2.213-5.415-5.588-10.274-9.892-14.231l14.752-14.752c3.419-3.393,8.929-3.367,12.322,0.052   C413.051,266.285,413.051,271.769,409.675,275.162z"/>
	<path style="fill:#464F5D;" d="M392.32,249.129l-20.566,20.566c-5.198-2.976-10.769-5.224-16.574-6.682   c0.373-1.328,1.085-2.525,2.083-3.471l22.735-22.735c3.402-3.402,8.921-3.402,12.322,0   C395.722,240.209,395.722,245.728,392.32,249.129L392.32,249.129z"/>
</g>
<g>
	<path style="fill:#F0C419;" d="M47.736,329.744H30.381c-4.79,0-8.678-3.888-8.678-8.678s3.888-8.678,8.678-8.678h17.355   c4.79,0,8.678,3.888,8.678,8.678S52.535,329.744,47.736,329.744z"/>
	<path style="fill:#F0C419;" d="M481.612,329.744h-17.355c-4.79,0-8.678-3.888-8.678-8.678s3.888-8.678,8.678-8.678h17.355   c4.79,0,8.678,3.888,8.678,8.678S486.411,329.744,481.612,329.744z"/>
</g>
<path style="fill:#F29C1F;" d="M381.56,132.243v0.087c-10.795,21.407-36.905,30.007-58.313,19.212  c-14.622-7.376-23.855-22.353-23.863-38.736c0-1.25,0.087-2.499,0.26-3.731c-5.536,2.482-11.541,3.749-17.615,3.731  c-23.993-0.026-43.414-19.498-43.388-43.492c0.009-9.129,2.898-18.015,8.244-25.408h0.087c3.054-0.347,6.126-0.521,9.198-0.521  c32.194,0,62.565,17.355,89.379,44.082c7.385,7.437,14.335,15.29,20.826,23.516c0.087,0.087,0.087,0.087,0.087,0.174  c0.087,0.26,0.26,0.521,0.347,0.781c0.868,1.128,1.649,2.169,2.603,3.211C373.577,120.615,377.655,126.342,381.56,132.243z"/>
<g>
	<circle style="fill:#4482C3;" cx="186.576" cy="321.066" r="26.033"/>
	<circle style="fill:#4482C3;" cx="325.417" cy="321.066" r="26.033"/>
</g>
<path style="fill:#2C3E50;" d="M251.658,459.907c-4.79,0-8.678-3.888-8.678-8.686c0-3.775,2.447-7.124,6.048-8.27l36.133-11.489  l-15.394-9.233c-7.949-4.278-10.925-14.188-6.656-22.136c1.519-2.82,3.835-5.137,6.656-6.656l15.446-9.216l-36.185-11.506  c-4.564-1.466-7.072-6.352-5.606-10.916c1.458-4.547,6.317-7.055,10.873-5.623l36.524,11.619c6.786,1.874,11.81,7.593,12.808,14.561  c0.642,6.604-2.699,12.947-8.495,16.166l-15.576,9.285l15.576,9.346c5.797,3.211,9.137,9.563,8.495,16.158  c-0.989,6.968-6.022,12.687-12.799,14.561l-36.532,11.619C253.437,459.768,252.552,459.907,251.658,459.907z"/>
<path style="fill:#FF5364;" d="M507.645,413.482c0.026,5.397-1.067,10.751-3.211,15.706l-1.215,2.256l-70.375,79.052  c-1.588,1.822-4.356,2.005-6.178,0.417c-0.148-0.13-0.286-0.269-0.417-0.417l-17.876-20.045l-52.499-59.007l-1.215-2.256  c-2.143-4.955-3.237-10.309-3.211-15.706c-0.009-5.397,1.085-10.743,3.211-15.706c1.987-4.781,4.903-9.12,8.591-12.756  c3.592-3.757,7.94-6.716,12.756-8.678c15.056-6.413,32.497-2.968,43.995,8.678c4.035,4.313,7.263,9.302,9.545,14.752  c2.282-5.449,5.51-10.439,9.545-14.752c3.627-3.723,7.966-6.673,12.756-8.678c3.584-1.571,7.393-2.569,11.281-2.95  c1.44-0.174,2.89-0.26,4.339-0.26c5.371-0.017,10.691,1.076,15.62,3.211c4.816,1.961,9.163,4.92,12.756,8.678  c3.688,3.636,6.604,7.975,8.591,12.756C506.56,402.739,507.653,408.084,507.645,413.482z"/>
<g>
</g>
<g>
</g>
<g>
</g>
<g>
</g>
<g>
</g>
<g>
</g>
<g>
</g>
<g>
</g>
<g>
</g>
<g>
</g>
<g>
</g>
<g>
</g>
<g>
</g>
<g>
</g>
<g>
</g>
</svg>
