<?xml version="1.0" encoding="iso-8859-1"?>
<!-- Generator: Adobe Illustrator 19.0.0, SVG Export Plug-In . SVG Version: 6.00 Build 0)  -->
<svg xmlns="http://www.w3.org/2000/svg" xmlns:xlink="http://www.w3.org/1999/xlink" version="1.1" id="Capa_1" x="0px" y="0px" viewBox="0 0 512 512" style="enable-background:new 0 0 512 512;" xml:space="preserve">
<path style="fill:#F3C74F;" d="M87.081,323.178c-1.293,0-2.583-0.027-3.874-0.082c-18.95-0.804-46.512-7.812-70.199-36.636  c-7.57-9.211-6.239-22.815,2.971-30.384c9.211-7.569,22.815-6.239,30.384,2.973c10.889,13.249,23.9,20.286,38.674,20.913  c15.821,0.67,28.599-6.134,32.935-10.581c8.323-8.537,21.99-8.709,30.527-0.387c8.537,8.323,8.71,21.99,0.387,30.527  C134.67,314.1,110.752,323.178,87.081,323.178z"/>
<path style="opacity:0.2;enable-background:new    ;" d="M148.498,268.991c-8.537-8.321-22.204-8.149-30.527,0.387  c-3.899,3.999-14.634,9.886-28.26,10.548c3.523,14.779,8.98,28.65,16.062,41.385c16.976-3.353,32.666-11.078,43.113-21.793  C157.209,290.981,157.035,277.314,148.498,268.991z"/>
<g>
	<path style="fill:#F3C74F;" d="M417.178,250.234c-6.461,0-12.504-0.966-17.764-2.993c-11.125-4.286-16.669-16.78-12.382-27.905   c4.261-11.06,16.635-16.604,27.709-12.457c4.695,1.151,21.583-1.91,33.737-13.191c10.54-9.782,14.224-22.304,11.263-38.28   c-2.173-11.723,5.57-22.987,17.292-25.159c11.724-2.177,22.987,5.57,25.159,17.293c5.98,32.27-3.969,61.04-28.012,81.011   C457.667,242.27,435.72,250.234,417.178,250.234z M414.93,206.951c0.002,0.001,0.004,0.001,0.007,0.003   C414.934,206.953,414.932,206.952,414.93,206.951z"/>
	<path style="fill:#F3C74F;" d="M234.1,499.876c-9.53,0-18.249-6.356-20.836-15.998c-10.888-40.58-7.619-112.019,6.476-141.554   c5.136-10.759,18.021-15.318,28.78-10.184c10.76,5.135,15.319,18.02,10.185,28.78c-9.029,18.919-12.596,78.767-3.741,111.77   c3.089,11.515-3.741,23.354-15.256,26.444C237.835,499.635,235.951,499.876,234.1,499.876z"/>
</g>
<path style="opacity:0.2;enable-background:new    ;" d="M248.52,332.139c-10.759-5.135-23.645-0.574-28.78,10.184  c-6.719,14.079-10.975,37.68-12.414,62.919c13.555,5.185,27.888,8.61,42.666,10.042c0.688-22.887,3.934-44.355,8.712-54.365  C263.839,350.16,259.28,337.274,248.52,332.139z"/>
<path style="fill:#F3C74F;" d="M386.097,456.674c-4.085,0-8.217-1.158-11.881-3.579c-9.946-6.572-12.683-19.964-6.109-29.911  c8.277-12.527,10.918-23.43,8.073-33.33c-4.652-16.189-23.259-28.415-33.521-33.087c-10.851-4.94-15.642-17.74-10.702-28.591  c4.939-10.851,17.739-15.643,28.591-10.702c7.638,3.477,46.286,22.734,57.126,60.456c4.436,15.436,5.686,39.947-13.547,69.056  C399.975,453.268,393.103,456.674,386.097,456.674z"/>
<path style="opacity:0.2;enable-background:new    ;" d="M360.548,317.473c-10.853-4.941-23.652-0.149-28.591,10.702  c-4.94,10.851-0.149,23.652,10.702,28.591c7.72,3.514,20.16,11.305,27.831,21.841c11.294-9.3,21.256-20.036,29.65-31.875  C384.844,329.301,365.685,319.812,360.548,317.473z"/>
<circle style="fill:#0081C6;" cx="364.675" cy="67.322" r="52.263"/>
<circle style="fill:#F3C74F;" cx="364.675" cy="67.322" r="24.399"/>
<circle style="fill:#0081C6;" cx="116.604" cy="112.169" r="52.263"/>
<circle style="fill:#F3C74F;" cx="116.604" cy="112.169" r="24.399"/>
<path style="opacity:0.2;enable-background:new    ;" d="M139.504,65.203c-20.227,26.224-35.295,60.014-44.058,94.756  c9.238,4.099,19.759,5.571,30.454,3.637c28.401-5.136,47.262-32.323,42.127-60.724C164.949,85.847,153.943,72.258,139.504,65.203z"/>
<circle style="opacity:0.1;fill:#FFFFFF;enable-background:new    ;" cx="211.167" cy="209.884" r="12.874"/>
<path style="fill:#40BAB3;" d="M427.715,201.547C411.627,112.572,314.274-2.194,226.869,13.61  C139.465,29.415,88.465,171.006,104.553,259.98c16.088,88.975,101.472,148.023,190.712,131.887  C384.504,375.731,443.804,290.521,427.715,201.547z"/>
<g>
	<path style="fill:#F0B0B7;" d="M154.974,239.478c-3.84,0-7.249-2.744-7.957-6.656c-0.795-4.399,2.126-8.61,6.526-9.407   l26.974-4.878c4.401-0.791,8.611,2.126,9.407,6.526c0.795,4.399-2.126,8.611-6.526,9.407l-26.974,4.878   C155.936,239.435,155.452,239.478,154.974,239.478z"/>
	<path style="fill:#F0B0B7;" d="M343.48,205.393c-3.84,0-7.249-2.744-7.957-6.656c-0.796-4.4,2.126-8.611,6.526-9.407l26.974-4.878   c4.399-0.793,8.611,2.126,9.407,6.526c0.796,4.4-2.126,8.611-6.526,9.407l-26.974,4.878   C344.443,205.35,343.958,205.393,343.48,205.393z"/>
</g>
<path style="fill:#FFFFFF;" d="M112.617,289.035c27.456,72.344,103.533,117.137,182.647,102.832  c79.115-14.306,134.69-82.903,135.072-160.281L112.617,289.035z"/>
<path style="fill:#0081C6;" d="M153.115,349.64c36.622,34.57,88.689,51.893,142.15,42.226c53.46-9.667,96.165-44.127,118.362-89.33  L153.115,349.64z"/>
<path style="opacity:0.2;enable-background:new    ;" d="M309.301,371.635c-89.239,16.135-174.623-42.912-190.712-131.887  c-9.685-53.566,4.953-126.192,37.204-178.969c-41.886,53.01-62.235,138.39-51.24,199.202  c16.088,88.975,101.472,148.023,190.712,131.887c49.065-8.871,89.072-38.627,112.483-78.405  C383.842,342.941,349.629,364.342,309.301,371.635z"/>
<path style="fill:#F0B0B7;" d="M275.375,191.471c-8.741,1.58-17.109-4.225-18.689-12.965c1.58,8.741-4.225,17.109-12.965,18.689  c-1.522,0.275-3.032,0.322-4.498,0.173l0.821,4.543c2.018,11.163,12.704,18.577,23.868,16.557  c11.163-2.018,18.577-12.704,16.559-23.868l-0.821-4.543C278.328,190.71,276.896,191.196,275.375,191.471z"/>
<path d="M510.153,146.068c-1.444-7.796-5.838-14.564-12.371-19.055c-6.536-4.493-14.427-6.167-22.222-4.723  c-7.796,1.444-14.563,5.838-19.054,12.372c-4.491,6.534-6.169,14.426-4.724,22.221c2.448,13.211-0.352,23.021-8.811,30.872  c-2.453,2.277-5.376,4.314-8.568,6.035c-5.575-25.445-17.271-52.715-33.227-78.406c17.892-13.578,26.967-36.223,22.884-58.807  c-5.921-32.748-37.381-54.578-70.131-48.652c-13.964,2.526-26.543,9.934-35.556,20.707c-7.366-4.723-14.777-8.822-22.139-12.195  C271.73,5.21,247.908,1.579,225.428,5.643c-22.479,4.065-43.522,15.808-62.543,34.903c-5.716,5.738-11.222,12.172-16.467,19.176  c-12.217-6.932-26.6-9.467-40.556-6.945c-32.748,5.921-54.574,37.382-48.652,70.131c4.084,22.586,20.514,40.616,42.028,47.07  c-6.445,32.119-7.571,64.234-2.652,91.441c0.549,3.042,1.186,6.046,1.89,9.019c-3.669,0.967-8.088,1.643-13.096,1.432  c-12.374-0.525-23.396-6.569-32.762-17.964c-10.39-12.643-29.131-14.476-41.778-4.086c-6.125,5.034-9.924,12.151-10.697,20.043  c-0.772,7.891,1.576,15.61,6.609,21.735c25.586,31.134,55.512,38.711,76.109,39.585c1.39,0.059,2.81,0.09,4.218,0.09  c11.895,0,23.876-2.086,35.046-6.056c19.103,28.913,46.559,51.317,78.332,64.414c-3.6,34.125-1.729,71.319,4.987,96.344  c3.474,12.951,15.258,21.995,28.655,21.995c2.592,0,5.184-0.343,7.706-1.019c7.658-2.054,14.057-6.968,18.019-13.835  c3.961-6.868,5.013-14.867,2.957-22.524c-5.027-18.737-5.641-46.316-4.003-68.135c2.361,0.097,4.73,0.152,7.107,0.152  c10.16-0.001,20.473-0.905,30.819-2.775c22.269-4.027,42.767-12.186,60.852-23.529c4.533,4.171,9.069,9.616,10.842,15.786  c2.152,7.488-0.153,16.198-7.046,26.631c-4.371,6.614-5.904,14.536-4.317,22.304c1.587,7.768,6.104,14.454,12.718,18.824  c4.871,3.219,10.523,4.921,16.344,4.921c10.007,0,19.272-4.979,24.784-13.32c20.934-31.681,19.479-58.682,14.573-75.754  c-4.092-14.24-12.075-27.386-23.758-39.171c18.156-23.164,30.371-50.863,34.84-80.538c15.38-3.595,30.699-11.139,42.817-21.204  C505.753,212.854,516.69,181.348,510.153,146.068z M356.81,23.857c23.966-4.335,46.984,11.638,51.317,35.601  c2.922,16.161-3.36,32.366-15.879,42.366c-2.225-3.196-4.515-6.353-6.864-9.47c8.831-7.316,13.393-19.014,11.258-30.819  c-3.187-17.63-20.123-29.378-37.756-26.194c-6.993,1.264-13.271,4.775-17.993,9.847c-3.033-2.526-6.093-4.945-9.17-7.261  C338.243,30.631,347.067,25.618,356.81,23.857z M375.305,79.679c-4.966-5.914-10.138-11.629-15.502-17.073  c-2.243-2.276-4.513-4.489-6.801-6.654c2.34-2.401,5.384-4.067,8.766-4.678c4.285-0.776,8.616,0.165,12.194,2.648  c3.578,2.483,5.975,6.209,6.75,10.495C381.764,70.234,379.578,75.999,375.305,79.679z M73.143,120.029  C68.81,96.065,84.78,73.045,108.744,68.712c9.739-1.76,19.764-0.158,28.426,4.393c-2.071,3.248-4.091,6.585-6.048,10.014  c-6.2-3.096-13.31-4.186-20.302-2.923c-17.631,3.188-29.381,20.126-26.194,37.757c2.135,11.804,10.503,21.165,21.338,24.925  c-1.107,3.742-2.148,7.502-3.112,11.274C87.624,149.169,76.065,136.192,73.143,120.029z M123.554,97.433  c-1.387,2.831-2.739,5.701-4.044,8.621c-3.117,6.978-5.96,14.142-8.541,21.421c-5.291-1.95-9.358-6.585-10.409-12.404  c-1.6-8.846,4.296-17.344,13.142-18.944C117.085,95.516,120.522,96.004,123.554,97.433z M87.081,315.082  c-1.181,0-2.368-0.025-3.531-0.074c-17.301-0.734-42.499-7.173-64.288-33.688c-2.288-2.785-3.355-6.294-3.004-9.879  c0.351-3.587,2.077-6.822,4.86-9.11c5.749-4.723,14.267-3.89,18.99,1.858c12.414,15.105,27.414,23.132,44.585,23.86  c6.987,0.295,13.163-0.667,18.247-2.037c2.943,8.691,6.547,17.029,10.746,24.968C105.127,313.675,96.077,315.082,87.081,315.082z   M245.8,485.025c-1.801,3.122-4.709,5.355-8.189,6.288c-1.154,0.31-2.335,0.466-3.51,0.466c-6.084,0-11.438-4.112-13.018-10.001  c-5.892-21.961-7.72-55.677-4.904-86.549c8.601,2.606,17.448,4.555,26.473,5.791c-1.676,22.1-1.366,51.925,4.493,73.765  C248.08,478.267,247.601,481.904,245.8,485.025z M409.895,380.165c3.966,13.801,5.014,35.822-12.521,62.357  c-2.506,3.793-6.722,6.056-11.277,6.056c-2.637,0-5.203-0.774-7.418-2.238c-3.007-1.987-5.06-5.026-5.781-8.556  c-0.721-3.531-0.024-7.131,1.962-10.138c9.661-14.621,12.637-27.715,9.099-40.028c-2.374-8.26-7.497-15.253-12.877-20.728  c7.153-5.507,13.834-11.551,20-18.057C400.345,358.429,406.667,368.937,409.895,380.165z M293.824,383.901  c-9.383,1.697-18.715,2.516-27.931,2.515c-73.972-0.004-139.797-52.79-153.375-127.876c-7.713-42.655,0.631-98.554,21.774-145.882  c22.88-51.217,57.148-84.415,94.017-91.081c4.831-0.873,9.777-1.304,14.819-1.304c33.431,0,70.932,18.971,105.141,53.696  c36.378,36.927,63.768,86.364,71.48,129.02C435.017,287.428,378.527,368.584,293.824,383.901z M469.009,222.326  c-8.824,7.329-19.65,13.068-30.773,16.45c0.446-9.334,0.116-18.809-1.022-28.35c5.234-2.262,11.252-5.683,16.769-10.803  c12.559-11.656,17.175-27.027,13.717-45.688c-0.656-3.544,0.106-7.13,2.147-10.101c2.041-2.969,5.117-4.967,8.663-5.624  c3.544-0.657,7.129,0.104,10.097,2.146c2.969,2.042,4.967,5.118,5.623,8.663C499.656,178.277,490.697,204.312,469.009,222.326z   M172.638,176.207c-4.186-2.904-9.25-4.004-14.265-3.098c-10.347,1.872-17.244,11.813-15.373,22.159  c0.707,3.913,4.117,6.658,7.957,6.658c0.478,0,0.963-0.043,1.45-0.131c4.4-0.795,7.321-5.007,6.526-9.406  c-0.283-1.563,0.76-3.065,2.322-3.348c1.565-0.282,3.064,0.759,3.348,2.322c0.796,4.399,5.013,7.322,9.406,6.526  c4.399-0.796,7.321-5.007,6.526-9.406C179.629,183.471,176.824,179.111,172.638,176.207z M346.88,139.024  c-10.348,1.872-17.244,11.813-15.372,22.16c0.708,3.913,4.116,6.656,7.957,6.656c0.478,0,0.964-0.043,1.45-0.131  c4.399-0.796,7.321-5.007,6.526-9.407c-0.283-1.563,0.759-3.065,2.321-3.348c1.566-0.284,3.065,0.76,3.348,2.323  c0.796,4.4,5.002,7.32,9.407,6.526c4.4-0.795,7.321-5.007,6.525-9.407C367.17,144.051,357.231,137.155,346.88,139.024z   M286.899,164.815c-4.399,0.795-7.321,5.007-6.526,9.407c0.784,4.335-2.105,8.499-6.439,9.283c-2.102,0.381-4.223-0.081-5.975-1.297  c-1.754-1.216-2.928-3.043-3.307-5.143c-0.794-4.4-5.005-7.318-9.407-6.526c-3.914,0.708-6.659,4.119-6.656,7.961  c0.001,0.476,0.043,0.96,0.131,1.445c0.784,4.335-2.105,8.499-6.439,9.283c-4.334,0.784-8.499-2.105-9.283-6.439  c-0.795-4.399-5.004-7.319-9.407-6.526c-4.399,0.796-7.321,5.007-6.526,9.407c1.555,8.603,7.516,15.311,15.129,18.25  c1.467,7.287,5.615,13.615,11.739,17.865c4.849,3.363,10.483,5.115,16.262,5.115c1.712,0,3.436-0.154,5.156-0.465  c7.527-1.361,14.074-5.572,18.433-11.857c4.246-6.12,5.915-13.494,4.743-20.827c6.107-5.419,9.334-13.804,7.778-22.41  C295.511,166.942,291.299,164.023,286.899,164.815z M270.482,205.35c-1.894,2.731-4.741,4.561-8.011,5.153  c-3.272,0.591-6.577-0.126-9.308-2.022c-1.676-1.162-3.008-2.685-3.928-4.443c4.295-1.586,7.953-4.316,10.661-7.781  c3.75,2.298,8.132,3.576,12.71,3.557C272.359,201.78,271.644,203.674,270.482,205.35z"/>
<g>
</g>
<g>
</g>
<g>
</g>
<g>
</g>
<g>
</g>
<g>
</g>
<g>
</g>
<g>
</g>
<g>
</g>
<g>
</g>
<g>
</g>
<g>
</g>
<g>
</g>
<g>
</g>
<g>
</g>
</svg>
