<?xml version="1.0" encoding="iso-8859-1"?>
<!-- Generator: Adobe Illustrator 19.0.0, SVG Export Plug-In . SVG Version: 6.00 Build 0)  -->
<svg xmlns="http://www.w3.org/2000/svg" xmlns:xlink="http://www.w3.org/1999/xlink" version="1.1" id="Capa_1" x="0px" y="0px" viewBox="0 0 511.998 511.998" style="enable-background:new 0 0 511.998 511.998;" xml:space="preserve">
<path style="fill:#DF4D60;" d="M444.493,185.047c15.985-17.781,14.527-45.151-3.254-61.136  c-7.966-7.168-18.319-11.125-29.036-11.099c-1.284,0-2.56,0.121-3.827,0.234c9.728-21.886-0.13-47.512-22.025-57.24  c-11.221-4.99-24.038-4.981-35.25,0.017c0.104-1.258,0.356-2.482,0.356-3.758c0.113-23.856-19.144-43.277-42.999-43.39  c-7.263-0.035-14.423,1.77-20.801,5.233c-16.063-17.486-43.268-18.64-60.754-2.577c-0.894,0.824-1.753,1.675-2.569,2.569  c-20.966-11.377-47.182-3.601-58.559,17.373c-3.471,6.378-5.268,13.529-5.233,20.792c0,1.293,0.252,2.543,0.364,3.827  c-21.66-9.928-47.26-0.417-57.196,21.244c-5.224,11.403-5.233,24.515-0.017,35.918c-1.284-0.121-2.586-0.243-3.896-0.243  c-23.908-0.052-43.338,19.282-43.39,43.199c-0.026,10.717,3.931,21.07,11.099,29.036c-22.459,8.192-34.026,33.037-25.834,55.496  c4.773,13.078,15.534,23.057,28.932,26.832l1.172,0.33h7.914l1.753-6.387c2.291-8.374,4.868-16.679,7.68-24.81  c0.955-2.89,2.005-5.78,3.159-8.973l0.477-1.354c2.959-8.053,6.404-16.54,10.379-25.565c0.252-0.503,0.929-2.048,1.128-2.499  l0.121-0.269l3.905-7.801l-0.243-0.113c0.278-0.581,0.503-1.119,0.816-1.744c3.254-6.916,6.882-14.024,10.787-21.148  c3.376-6.187,7.055-12.496,11.177-19.23l5.736-9.086l0.286,0.087l3.515-5.58c0.616-0.972,1.293-1.944,1.979-2.907l1.198-1.718  c1.588-2.291,3.228-4.478,4.877-6.673l1.388-1.883c0.347-0.417,0.686-0.842,1.015-1.258h0.13l2.612-3.306  c6.04-7.723,12.531-15.082,19.43-22.042c1.961-1.892,4.018-3.801,6.066-5.719l5.71-5.042c2.013-1.788,4.035-3.48,6.17-5.12  c10.275-8.192,21.738-14.787,33.983-19.551l0.217-0.078c9.902-3.818,20.411-5.814,31.032-5.866  c10.535,0.078,20.975,2.031,30.833,5.771l0.052,0.017c14.761,5.814,28.386,14.171,40.266,24.689l4.747,4.105  c2.543,2.213,4.903,4.513,7.402,6.994c6.925,6.968,13.46,14.319,19.551,22.025l0.347,0.824l0.92,1.198  c0.694,0.946,1.441,1.848,2.239,2.716c3.219,4.244,6.361,8.669,9.502,13.173l1.553,2.23l-0.087,0.121l3.289,4.955  c1.493,2.248,2.907,4.487,4.348,6.864c4.217,6.838,7.828,13.06,11.047,19.022c4.504,8.305,8.287,15.872,11.733,23.188l-0.191,0.087  l3.714,7.428l1.05,2.308l0,0c0.104,0.226,0.182,0.399,0.208,0.451c4.374,9.91,7.723,18.146,10.57,25.852l0.148,0.868l0.312,0.824  c1.067,2.786,2.143,5.736,3.124,8.869c3.193,9.207,5.719,17.269,7.723,24.663l1.727,6.413h7.94l1.172-0.33  c23.014-6.482,36.413-30.39,29.93-53.404C467.55,200.58,457.571,189.82,444.493,185.047L444.493,185.047z"/>
<g>
	<path style="fill:#F29C1F;" d="M69.943,270.837c-4.408-1.224-8.964-1.84-13.538-1.822c-28.759,0-52.068,23.309-52.068,52.068   c0,28.759,23.309,52.068,52.068,52.068c3.089,0.017,6.17-0.269,9.199-0.868"/>
	<path style="fill:#F29C1F;" d="M446.393,372.282c3.029,0.599,6.109,0.885,9.199,0.868c28.759,0,52.068-23.309,52.068-52.068   c0-28.759-23.309-52.068-52.068-52.068c-4.573-0.017-9.129,0.599-13.538,1.822"/>
</g>
<path style="fill:#F0C419;" d="M450.906,334.273c0,98.148-87.3,177.725-194.907,177.725S61.092,432.421,61.092,334.273  c0.017-8.157,0.573-16.297,1.649-24.385c2.048-17.2,5.476-34.2,10.24-50.853h0.087c2.256-8.244,4.86-16.748,7.81-25.253  c1.041-3.124,2.169-6.248,3.298-9.372c0.174-0.434,0.26-0.781,0.434-1.215c3.211-8.765,6.856-17.616,10.761-26.468  c0.434-0.868,0.781-1.822,1.215-2.69c0.434-1.041,0.955-2.083,1.475-3.211c0.955-2.083,1.909-4.252,2.951-6.335  c3.384-7.203,7.116-14.492,11.021-21.608c3.645-6.682,7.463-13.191,11.455-19.699c1.475-2.343,3.037-4.773,4.513-7.116  c1.649-2.517,3.298-5.033,5.033-7.463c1.041-1.649,2.256-3.298,3.384-4.946c2.169-3.124,4.426-6.075,6.682-9.112  c1.215-1.475,2.343-2.951,3.471-4.426h0.174c6.283-8.027,13.034-15.672,20.22-22.91c2.43-2.343,4.946-4.686,7.376-6.942  c1.562-1.388,3.124-2.69,4.686-4.079c2.169-1.909,4.339-3.732,6.595-5.467c10.969-8.739,23.196-15.768,36.274-20.827  c10.926-4.261,22.545-6.465,34.278-6.508c11.594,0.078,23.083,2.222,33.931,6.335c15.785,6.205,30.347,15.134,43.043,26.381  c1.562,1.215,3.124,2.603,4.599,3.992c2.69,2.343,5.207,4.773,7.81,7.376c7.385,7.437,14.336,15.291,20.827,23.517  c0.087,0.087,0.087,0.087,0.087,0.174c0.087,0.26,0.26,0.521,0.347,0.781c0.868,1.128,1.649,2.169,2.603,3.211  c3.298,4.339,6.508,8.852,9.719,13.451c1.649,2.517,3.298,4.946,4.86,7.463c1.562,2.343,3.037,4.686,4.513,7.116  c3.905,6.335,7.723,12.843,11.281,19.439c5.033,9.285,9.806,18.658,14.145,28.203c0.521,1.041,0.955,2.083,1.475,3.211  c0.434,0.868,0.781,1.822,1.215,2.69c3.905,8.852,7.55,17.616,10.761,26.468c0.182,0.477,0.33,0.972,0.434,1.475  c1.128,2.951,2.256,6.075,3.211,9.112c2.951,8.504,5.641,16.922,7.897,25.253h0.087c4.729,16.662,8.149,33.662,10.24,50.853  C450.333,317.976,450.889,326.116,450.906,334.273z"/>
<g>
	<path style="fill:#DF4D60;" d="M377.49,381.828c-1.137-0.017-2.256-0.252-3.298-0.694c-1.05-0.443-2.022-1.059-2.864-1.822   c-0.764-0.842-1.38-1.814-1.822-2.864c-0.929-2.1-0.929-4.495,0-6.595c0.443-1.05,1.059-2.022,1.822-2.864   c2.074-2.048,5.042-2.924,7.897-2.352c0.538,0.095,1.067,0.278,1.562,0.529c0.555,0.191,1.076,0.451,1.562,0.781   c0.451,0.321,0.894,0.668,1.302,1.041c0.781,0.833,1.406,1.805,1.822,2.864c0.929,2.1,0.929,4.495,0,6.595   c-0.79,2.178-2.508,3.896-4.686,4.686C379.747,381.577,378.627,381.811,377.49,381.828z"/>
	<path style="fill:#DF4D60;" d="M377.49,416.54c-1.137-0.017-2.256-0.252-3.298-0.694c-1.05-0.443-2.022-1.059-2.864-1.822   c-1.631-1.631-2.543-3.853-2.517-6.161c0.017-0.581,0.078-1.163,0.174-1.736c0.095-0.547,0.278-1.067,0.529-1.562   c0.191-0.555,0.451-1.085,0.781-1.571c0.321-0.451,0.668-0.885,1.041-1.293c2.1-2.013,5.042-2.89,7.897-2.352   c0.538,0.095,1.067,0.278,1.562,0.529c0.555,0.191,1.076,0.451,1.562,0.781c0.451,0.321,0.894,0.668,1.302,1.041   c1.588,1.666,2.482,3.862,2.517,6.161c0.017,2.308-0.885,4.53-2.517,6.161c-0.842,0.764-1.814,1.38-2.864,1.822   C379.747,416.288,378.627,416.523,377.49,416.54z"/>
	<path style="fill:#DF4D60;" d="M360.134,399.184c-2.308,0.026-4.53-0.885-6.161-2.517c-0.764-0.842-1.38-1.814-1.822-2.864   c-0.929-2.1-0.929-4.495,0-6.595c0.443-1.05,1.059-2.022,1.822-2.864c3.48-3.211,8.843-3.211,12.323,0   c0.764,0.842,1.38,1.814,1.822,2.864c0.929,2.1,0.929,4.495,0,6.595c-0.443,1.05-1.059,2.022-1.822,2.864   c-0.868,0.764-1.831,1.406-2.864,1.909C362.382,398.993,361.263,399.201,360.134,399.184z"/>
	<path style="fill:#DF4D60;" d="M394.846,399.184c-4.747,0.043-8.635-3.766-8.678-8.513c0-0.052,0-0.113,0-0.165   c0.026-2.3,0.929-4.495,2.517-6.161c0.833-0.781,1.805-1.406,2.864-1.822c1.553-0.694,3.28-0.876,4.938-0.529   c0.573,0.087,1.137,0.26,1.649,0.529c0.555,0.191,1.076,0.451,1.562,0.781c0.451,0.321,0.894,0.668,1.302,1.041l1.041,1.293   c0.33,0.486,0.59,1.015,0.781,1.571c0.252,0.486,0.425,1.015,0.521,1.562c0.104,0.573,0.156,1.154,0.174,1.736   c0.043,4.747-3.766,8.635-8.513,8.678C394.959,399.184,394.898,399.184,394.846,399.184z"/>
	<path style="fill:#DF4D60;" d="M134.507,381.828c-2.308,0.026-4.53-0.885-6.161-2.517c-0.764-0.842-1.38-1.814-1.822-2.864   c-0.929-2.1-0.929-4.495,0-6.595c0.417-1.059,1.041-2.031,1.822-2.864l1.293-1.041c0.486-0.33,1.015-0.59,1.571-0.781   c2.109-0.876,4.487-0.876,6.595,0c1.059,0.417,2.031,1.041,2.864,1.822c0.764,0.842,1.38,1.814,1.822,2.864   c1.388,3.228,0.66,6.977-1.822,9.459c-0.842,0.764-1.814,1.38-2.864,1.822C136.772,381.62,135.644,381.854,134.507,381.828z"/>
	<path style="fill:#DF4D60;" d="M134.507,416.54c-4.747,0.052-8.626-3.758-8.678-8.496c-0.009-1.198,0.226-2.378,0.694-3.471   c0.417-1.059,1.041-2.031,1.822-2.864l1.293-1.041c0.486-0.33,1.015-0.59,1.571-0.781c2.109-0.876,4.487-0.876,6.595,0   c1.05,0.443,2.022,1.059,2.864,1.822c0.764,0.842,1.38,1.814,1.822,2.864c0.929,2.1,0.929,4.495,0,6.595   c-0.79,2.178-2.508,3.896-4.686,4.686C136.764,416.288,135.644,416.523,134.507,416.54z"/>
	<path style="fill:#DF4D60;" d="M117.151,399.184c-2.308,0.026-4.53-0.885-6.161-2.517c-0.764-0.868-1.406-1.831-1.918-2.864   c-0.417-1.05-0.616-2.169-0.599-3.298c0.026-2.3,0.929-4.495,2.517-6.161c3.445-3.211,8.791-3.211,12.236,0   c2.551,2.447,3.306,6.213,1.909,9.459c-0.443,1.067-1.085,2.048-1.909,2.864C121.638,398.308,119.434,399.219,117.151,399.184z"/>
	<path style="fill:#DF4D60;" d="M151.863,399.184c-4.747,0.043-8.635-3.766-8.678-8.513c0-0.052,0-0.113,0-0.165   c0.026-2.3,0.929-4.495,2.517-6.161c0.408-0.373,0.842-0.72,1.293-1.041c0.486-0.33,1.015-0.59,1.571-0.781   c0.495-0.252,1.015-0.425,1.562-0.529c2.838-0.607,5.78,0.278,7.81,2.352c1.64,1.631,2.577,3.844,2.603,6.161   C160.507,395.288,156.645,399.149,151.863,399.184z"/>
	<path style="fill:#DF4D60;" d="M96.585,194.037c-0.434,0.868-0.781,1.822-1.215,2.69c-3.905,8.852-7.55,17.703-10.761,26.468   c-0.174,0.434-0.26,0.781-0.434,1.215c-1.128,3.124-2.256,6.248-3.298,9.372c-2.951,8.504-5.554,17.009-7.81,25.253h-0.087   c-18.449-5.224-29.167-24.42-23.934-42.869c4.226-14.935,17.868-25.253,33.393-25.253   C87.334,190.878,92.168,191.946,96.585,194.037z"/>
	<path style="fill:#DF4D60;" d="M127.999,136.068c-1.475,2.343-3.037,4.773-4.513,7.116c-3.992,6.508-7.81,13.017-11.455,19.699   c-3.905,7.116-7.637,14.405-11.021,21.608c-1.041,2.083-1.996,4.252-2.951,6.335c-19.135-0.929-33.896-17.182-32.976-36.326   c0.92-19.144,17.182-33.896,36.326-32.976C112.031,122.045,121.829,127.399,127.999,136.068L127.999,136.068z"/>
	<path style="fill:#DF4D60;" d="M174.339,80.269c-2.43,2.256-4.946,4.599-7.376,6.942c-7.185,7.237-13.937,14.883-20.22,22.91   h-0.174c-1.128,1.475-2.256,2.951-3.471,4.426c-2.256,3.037-4.513,5.988-6.682,9.112c-1.128,1.649-2.343,3.298-3.384,4.946   c-18.319-5.58-28.655-24.967-23.066-43.286c5.58-18.319,24.967-28.655,43.286-23.066C162.485,65.065,170.122,71.591,174.339,80.269   L174.339,80.269z"/>
	<path style="fill:#DF4D60;" d="M221.287,43.388c-0.017,2.187,0.182,4.365,0.607,6.508c-13.078,5.059-25.305,12.088-36.274,20.827   c-2.256,1.736-4.426,3.558-6.595,5.467c-13.347-13.737-13.034-35.684,0.703-49.031c6.482-6.3,15.169-9.815,24.203-9.806   c8.183,0.026,16.106,2.907,22.389,8.157C223.014,30.891,221.278,37.079,221.287,43.388z"/>
	<path style="fill:#DF4D60;" d="M464.27,225.625c-0.017,15.525-10.318,29.158-25.253,33.41h-0.087   c-2.256-8.331-4.946-16.748-7.897-25.253c-0.955-3.037-2.083-6.161-3.211-9.112c-0.104-0.503-0.252-0.998-0.434-1.475   c-3.211-8.852-6.856-17.616-10.761-26.468c-0.434-0.868-0.781-1.822-1.215-2.69c4.417-2.091,9.251-3.159,14.145-3.124   c19.17-0.009,34.703,15.525,34.712,34.694C464.27,225.616,464.27,225.616,464.27,225.625z"/>
	<path style="fill:#DF4D60;" d="M446.914,156.201c0.017,18.493-14.501,33.74-32.976,34.625c-4.339-9.546-9.112-18.918-14.145-28.203   c-3.558-6.595-7.376-13.104-11.281-19.439c-1.475-2.43-2.951-4.773-4.513-7.116c11.09-15.603,32.733-19.256,48.336-8.166   C441.499,134.419,446.931,144.963,446.914,156.201z"/>
	<path style="fill:#DF4D60;" d="M403.524,95.455c0.009,15.195-9.876,28.637-24.385,33.15c-3.211-4.599-6.422-9.112-9.719-13.451   c-0.955-1.041-1.736-2.083-2.603-3.211c-0.087-0.26-0.26-0.521-0.347-0.781c0-0.087,0-0.087-0.087-0.174   c-6.482-8.227-13.442-16.08-20.827-23.517c-2.603-2.603-5.12-5.033-7.81-7.376c8.461-17.182,29.253-24.246,46.427-15.777   C396.035,70.159,403.542,82.239,403.524,95.455z"/>
	<path style="fill:#DF4D60;" d="M290.711,43.388c0.017,2.126-0.182,4.252-0.607,6.335c-10.847-4.113-22.337-6.257-33.931-6.335   c-11.733,0.043-23.352,2.248-34.278,6.508c-0.425-2.143-0.625-4.322-0.607-6.508c-0.009-6.309,1.727-12.496,5.033-17.877   c9.797-16.393,31.032-21.738,47.416-11.941c4.903,2.933,9.008,7.029,11.941,11.941C288.984,30.891,290.719,37.079,290.711,43.388z"/>
	<path style="fill:#DF4D60;" d="M342.779,52.065c0.035,8.956-3.419,17.582-9.633,24.038c-12.696-11.247-27.266-20.176-43.043-26.381   c0.425-2.083,0.625-4.209,0.607-6.335c0.009-6.309-1.727-12.496-5.033-17.877c6.283-5.25,14.206-8.131,22.389-8.157   c19.17-0.009,34.703,15.525,34.712,34.695C342.779,52.057,342.779,52.057,342.779,52.065z"/>
</g>
<path style="fill:#FFFFFF;" d="M238.643,303.726c0,23.951-27.162,43.39-60.746,43.39s-60.746-19.439-60.746-43.39  c0-4.079,0.79-8.114,2.343-11.889c2.213-5.415,5.589-10.275,9.893-14.232c3.272-3.072,6.916-5.727,10.847-7.897  c5.198-2.977,10.769-5.224,16.575-6.682c6.882-1.805,13.972-2.708,21.087-2.69C211.481,260.337,238.643,279.775,238.643,303.726z"/>
<g>
	<path style="fill:#464F5D;" d="M129.387,277.606c-4.304,3.957-7.68,8.817-9.893,14.232c-0.72-0.417-1.388-0.911-1.996-1.475   l-15.186-15.186c-3.402-3.402-3.402-8.921,0-12.323s8.921-3.402,12.323,0L129.387,277.606z"/>
	<path style="fill:#464F5D;" d="M156.81,263.027c-5.806,1.458-11.385,3.705-16.575,6.682l-20.567-20.567   c-3.402-3.402-3.402-8.921,0-12.323c3.402-3.402,8.921-3.402,12.323,0l22.736,22.736   C155.725,260.502,156.445,261.699,156.81,263.027z"/>
</g>
<path style="fill:#FFFFFF;" d="M394.846,303.726c0,23.951-27.162,43.39-60.746,43.39s-60.746-19.439-60.746-43.39  s27.162-43.39,60.746-43.39c7.116-0.017,14.206,0.885,21.087,2.69c5.806,1.458,11.385,3.705,16.575,6.682  c3.931,2.169,7.576,4.825,10.847,7.897c4.304,3.957,7.68,8.817,9.893,14.232C394.057,295.613,394.846,299.648,394.846,303.726z"/>
<g>
	<path style="fill:#464F5D;" d="M409.686,275.176l-15.186,15.186c-0.607,0.564-1.276,1.059-1.996,1.475   c-2.213-5.415-5.589-10.275-9.893-14.232l14.753-14.753c3.419-3.393,8.93-3.367,12.323,0.052   C413.061,266.298,413.053,271.783,409.686,275.176z"/>
	<path style="fill:#464F5D;" d="M392.33,249.142l-20.567,20.567c-5.198-2.977-10.769-5.224-16.575-6.682   c0.373-1.328,1.085-2.525,2.083-3.471l22.736-22.736c3.402-3.402,8.921-3.402,12.323,0   C395.731,240.221,395.731,245.74,392.33,249.142L392.33,249.142z"/>
</g>
<g>
	<path style="fill:#F0C419;" d="M47.728,329.76H30.372c-4.79,0-8.678-3.888-8.678-8.678s3.888-8.678,8.678-8.678h17.356   c4.79,0,8.678,3.888,8.678,8.678S52.518,329.76,47.728,329.76z"/>
	<path style="fill:#F0C419;" d="M481.626,329.76H464.27c-4.79,0-8.678-3.888-8.678-8.678s3.888-8.678,8.678-8.678h17.356   c4.79,0,8.678,3.888,8.678,8.678S486.416,329.76,481.626,329.76z"/>
</g>
<path style="fill:#F29C1F;" d="M381.569,132.25v0.087c-10.795,21.409-36.907,30.008-58.316,19.213  c-14.622-7.376-23.856-22.354-23.864-38.738c0-1.25,0.087-2.499,0.26-3.732c-5.537,2.482-11.542,3.749-17.616,3.732  c-23.995-0.026-43.416-19.499-43.39-43.494c0.009-9.129,2.898-18.015,8.244-25.409h0.087c3.055-0.347,6.127-0.521,9.199-0.521  c32.195,0,62.568,17.356,89.383,44.084c7.385,7.437,14.336,15.291,20.827,23.517c0.087,0.087,0.087,0.087,0.087,0.174  c0.087,0.26,0.26,0.521,0.347,0.781c0.868,1.128,1.649,2.169,2.603,3.211C373.585,120.621,377.664,126.349,381.569,132.25z"/>
<g>
	<circle style="fill:#4482C3;" cx="186.575" cy="321.082" r="26.034"/>
	<circle style="fill:#4482C3;" cx="325.423" cy="321.082" r="26.034"/>
</g>
<g>
	<path style="fill:#802F34;" d="M195.253,433.896h-26.034c-4.79,0-8.678-3.888-8.678-8.678s3.888-8.678,8.678-8.678h26.034   c4.79,0,8.678,3.888,8.678,8.678S200.043,433.896,195.253,433.896z"/>
	<path style="fill:#802F34;" d="M342.779,433.896h-26.034c-4.79,0-8.678-3.888-8.678-8.678s3.888-8.678,8.678-8.678h26.034   c4.79,0,8.678,3.888,8.678,8.678S347.569,433.896,342.779,433.896z"/>
</g>
<ellipse style="fill:#DF4D60;" cx="255.999" cy="425.218" rx="60.746" ry="52.068"/>
<path style="fill:#802F34;" d="M255.999,451.252c-14.371-0.017-26.017-11.663-26.034-26.034c0-4.79,3.888-8.678,8.678-8.678  s8.678,3.888,8.678,8.678s3.888,8.678,8.678,8.678c4.79,0,8.678-3.888,8.678-8.678s3.888-8.678,8.678-8.678  c4.79,0,8.678,3.888,8.678,8.678C282.015,439.589,270.37,451.235,255.999,451.252z"/>
<g>
</g>
<g>
</g>
<g>
</g>
<g>
</g>
<g>
</g>
<g>
</g>
<g>
</g>
<g>
</g>
<g>
</g>
<g>
</g>
<g>
</g>
<g>
</g>
<g>
</g>
<g>
</g>
<g>
</g>
</svg>
