<?xml version="1.0" encoding="iso-8859-1"?>
<!-- Generator: Adobe Illustrator 19.0.0, SVG Export Plug-In . SVG Version: 6.00 Build 0)  -->
<svg xmlns="http://www.w3.org/2000/svg" xmlns:xlink="http://www.w3.org/1999/xlink" version="1.1" id="Capa_1" x="0px" y="0px" viewBox="0 0 512.001 512.001" style="enable-background:new 0 0 512.001 512.001;" xml:space="preserve">
<g>
	<path style="fill:#F29C1F;" d="M84.398,241.872c-10.39,30.287-17.558,61.598-21.362,93.394   c-26.738-1.73-47.006-24.814-45.276-51.552c1.651-25.538,22.863-45.399,48.454-45.373   C72.446,238.314,78.625,239.515,84.398,241.872z"/>
	<path style="fill:#F29C1F;" d="M494.344,286.892c0.035,25.847-20.259,47.156-46.079,48.374   c-3.769-31.717-10.928-62.94-21.362-93.129c5.985-2.481,12.403-3.769,18.891-3.796c26.8-0.018,48.533,21.698,48.551,48.498   C494.344,286.856,494.344,286.874,494.344,286.892z"/>
</g>
<path style="fill:#F0C419;" d="M454.268,317.788c-1.148,108.366-89.899,195.298-198.264,194.204  c-108.366,1.095-197.117-85.838-198.264-194.204c0.018-8.916,0.583-17.814,1.677-26.659c1.589-14.768,4.122-29.422,7.592-43.872  c1.501-6.532,3.178-13.241,5.12-19.95c1.765-6.356,3.708-12.8,5.738-19.332c0.618-1.854,1.148-3.708,1.854-5.561  c0.441-1.501,0.971-3.09,1.501-4.679c0.177-0.441,0.265-0.794,0.441-1.236c3.266-9.622,6.974-19.332,10.946-28.954  c1.854-4.502,3.708-8.916,5.738-13.329c3.443-7.945,7.238-15.889,11.211-23.658c3.708-7.327,7.592-14.477,11.652-21.451  c4.237-7.327,8.563-14.477,13.153-21.362c2.207-3.443,4.502-6.709,6.797-9.975c1.236-1.677,2.383-3.266,3.531-4.855h0.177  c6.347-8.739,13.215-17.081,20.568-24.982c5.994-6.373,12.332-12.411,18.979-18.096C204.054,11.714,229.486,1.148,256.18,0  c32.75,0,63.646,18.891,90.923,48.198c7.565,8.139,14.636,16.71,21.186,25.688c0.088,0.088,0.088,0.088,0.088,0.177  c0.088,0.265,0.265,0.53,0.353,0.794c0.883,1.236,1.677,2.383,2.648,3.619c6.982,9.878,13.462,20.1,19.42,30.631  c3.972,6.797,7.856,13.947,11.476,21.186c6.179,12.182,11.891,24.602,17.125,37.252c3.972,9.622,7.68,19.244,10.946,28.954  c0.185,0.486,0.335,0.989,0.441,1.501c0.53,1.501,1.059,3.09,1.501,4.59c0.618,1.765,1.236,3.619,1.766,5.385  c8.995,27.012,15.21,54.88,18.538,83.154C453.685,299.974,454.25,308.872,454.268,317.788z"/>
<path style="fill:#F29C1F;" d="M339.864,57.378c0.044,46.273-37.428,83.816-83.702,83.861c-29.828,0.026-57.431-15.81-72.456-41.577  c7.238,4.122,15.422,6.276,23.746,6.267c26.809,0,48.551-21.733,48.551-48.542c0-23.649-17.037-43.855-40.341-47.854  C228.286,3.372,242.136,0.115,256.18,0c29.042,0,56.672,14.918,81.566,38.752C339.167,44.861,339.882,51.111,339.864,57.378z"/>
<g>
	<path style="fill:#2C2F38;" d="M137.937,332.547c-4.873,0-8.827-3.946-8.827-8.819c0-1.298,0.282-2.578,0.839-3.743   c0.75-1.598,18.661-39.256,71.67-37.437c4.864,0.159,8.686,4.228,8.527,9.092c0,0.009,0,0.018,0,0.018   c0.053,4.67-3.699,8.501-8.368,8.554c-0.247,0-0.494-0.009-0.742-0.026c-41.224-1.077-54.96,26.994-55.083,27.286   C144.487,330.57,141.371,332.547,137.937,332.547z"/>
	<path style="fill:#2C2F38;" d="M360.229,332.547c-3.407,0-6.515-1.96-7.98-5.032c-0.609-1.253-14.83-28.407-55.11-27.339   c-4.723,0.3-8.792-3.284-9.092-7.998c-0.009-0.177-0.018-0.353-0.018-0.53c-0.168-4.864,3.637-8.942,8.501-9.11   c0.009,0,0.018,0,0.018,0c53.106-1.995,70.92,35.848,71.67,37.437c2.066,4.414,0.168,9.666-4.246,11.732   C362.798,332.265,361.518,332.547,360.229,332.547z"/>
	<path style="fill:#2C2F38;" d="M190.628,370.761c-1.024,0-2.048-0.053-3.072-0.159c-10.231-1.412-19.403-7.053-25.264-15.554   c-2.692-4.061-1.589-9.542,2.472-12.235c4.025-2.675,9.463-1.607,12.182,2.392c2.975,4.14,7.45,6.947,12.464,7.839   c7.071-0.283,13.683-3.61,18.123-9.128c3.469-3.425,9.057-3.39,12.482,0.079c3.399,3.434,3.399,8.969,0,12.403   C212.555,364.953,201.953,370.134,190.628,370.761z"/>
	<path style="fill:#2C2F38;" d="M307.538,370.761c-11.334-0.627-21.927-5.808-29.387-14.362c-3.425-3.469-3.39-9.057,0.079-12.482   c3.434-3.399,8.969-3.399,12.403,0c4.423,5.535,11.034,8.872,18.123,9.128c5.023-0.892,9.498-3.708,12.473-7.848   c2.754-4.017,8.254-5.04,12.27-2.286c3.972,2.719,5.023,8.121,2.375,12.138c-5.87,8.501-15.033,14.142-25.264,15.554   C309.586,370.708,308.562,370.761,307.538,370.761z"/>
	<path style="fill:#2C2F38;" d="M275.565,428.131c0,17.063,0,30.896-26.482,30.896s-26.482-13.833-26.482-30.896   c-1.121-15.81,10.681-29.59,26.482-30.896C264.875,398.541,276.686,412.321,275.565,428.131z"/>
</g>
<g>
	<path style="fill:#FFFFFF;" d="M238.781,264.964c-4.873,0-8.827-3.946-8.827-8.819c0-1.536,0.397-3.054,1.165-4.387l19.8-34.657   l-17.761,3.549c-4.776,0.953-9.428-2.145-10.39-6.921s2.145-9.428,6.921-10.39l36.784-7.362c4.776-0.962,9.428,2.136,10.39,6.912   c0.424,2.092,0.071,4.272-0.989,6.126l-19.8,34.657l17.761-3.549c4.784-0.953,9.428,2.145,10.39,6.921   c0.953,4.784-2.145,9.428-6.921,10.39l-36.784,7.362C239.938,264.902,239.364,264.964,238.781,264.964z"/>
	<path style="fill:#FFFFFF;" d="M358.349,265.088c-0.671,0-1.342-0.071-1.995-0.221l-50.122-11.573   c-4.749-1.095-7.715-5.826-6.621-10.575c0.477-2.083,1.695-3.919,3.425-5.173l50.149-36.36l-31.223-7.203   c-4.749-1.103-7.706-5.853-6.594-10.602c1.103-4.731,5.826-7.689,10.558-6.603l50.122,11.582c4.749,1.095,7.715,5.826,6.621,10.575   c-0.477,2.083-1.695,3.919-3.425,5.173l-50.14,36.351l31.214,7.203c4.749,1.095,7.715,5.835,6.621,10.584   C366.02,262.245,362.454,265.088,358.349,265.088L358.349,265.088z"/>
</g>
<g>
</g>
<g>
</g>
<g>
</g>
<g>
</g>
<g>
</g>
<g>
</g>
<g>
</g>
<g>
</g>
<g>
</g>
<g>
</g>
<g>
</g>
<g>
</g>
<g>
</g>
<g>
</g>
<g>
</g>
</svg>
