<?xml version="1.0" encoding="iso-8859-1"?>
<!-- Generator: Adobe Illustrator 19.0.0, SVG Export Plug-In . SVG Version: 6.00 Build 0)  -->
<svg xmlns="http://www.w3.org/2000/svg" xmlns:xlink="http://www.w3.org/1999/xlink" version="1.1" id="Capa_1" x="0px" y="0px" viewBox="0 0 512.001 512.001" style="enable-background:new 0 0 512.001 512.001;" xml:space="preserve">
<g>
	<path style="fill:#F29C1F;" d="M84.398,241.872c-10.39,30.287-17.558,61.598-21.362,93.394   c-26.738-1.73-47.006-24.814-45.276-51.552c1.651-25.538,22.863-45.399,48.454-45.373   C72.446,238.314,78.625,239.515,84.398,241.872z"/>
	<path style="fill:#F29C1F;" d="M494.344,286.892c0.035,25.847-20.259,47.156-46.079,48.374   c-3.769-31.717-10.928-62.94-21.362-93.129c5.985-2.481,12.403-3.769,18.891-3.796c26.8-0.018,48.533,21.698,48.551,48.498   C494.344,286.856,494.344,286.874,494.344,286.892z"/>
</g>
<path style="fill:#F0C419;" d="M454.268,317.788c-1.148,108.366-89.899,195.298-198.264,194.204  c-108.366,1.095-197.117-85.838-198.264-194.204c0.018-8.916,0.583-17.814,1.677-26.659c1.589-14.768,4.122-29.422,7.592-43.872  c1.501-6.532,3.178-13.241,5.12-19.95c1.765-6.356,3.708-12.8,5.738-19.332c0.618-1.854,1.148-3.708,1.854-5.561  c0.441-1.501,0.971-3.09,1.501-4.679c0.177-0.441,0.265-0.794,0.441-1.236c3.266-9.622,6.974-19.332,10.946-28.954  c1.854-4.502,3.708-8.916,5.738-13.329c3.443-7.945,7.238-15.889,11.211-23.658c3.708-7.327,7.592-14.477,11.652-21.451  c4.237-7.327,8.563-14.477,13.153-21.362c2.207-3.443,4.502-6.709,6.797-9.975c1.236-1.677,2.383-3.266,3.531-4.855h0.177  c6.347-8.739,13.215-17.081,20.568-24.982c5.994-6.373,12.332-12.411,18.979-18.096C204.054,11.714,229.486,1.148,256.18,0  c32.75,0,63.646,18.891,90.923,48.198c7.565,8.139,14.636,16.71,21.186,25.688c0.088,0.088,0.088,0.088,0.088,0.177  c0.088,0.265,0.265,0.53,0.353,0.794c0.883,1.236,1.677,2.383,2.648,3.619c6.982,9.878,13.462,20.1,19.42,30.631  c3.972,6.797,7.856,13.947,11.476,21.186c6.179,12.182,11.891,24.602,17.125,37.252c3.972,9.622,7.68,19.244,10.946,28.954  c0.185,0.486,0.335,0.989,0.441,1.501c0.53,1.501,1.059,3.09,1.501,4.59c0.618,1.765,1.236,3.619,1.766,5.385  c8.995,27.012,15.21,54.88,18.538,83.154C453.685,299.974,454.25,308.872,454.268,317.788z"/>
<path style="fill:#F29C1F;" d="M339.864,57.378c0.044,46.273-37.428,83.816-83.702,83.861c-29.828,0.026-57.431-15.81-72.456-41.577  c7.238,4.122,15.422,6.276,23.746,6.267c26.809,0,48.551-21.733,48.551-48.542c0-23.649-17.037-43.855-40.341-47.854  C228.286,3.372,242.136,0.115,256.18,0c29.042,0,56.672,14.918,81.566,38.752C339.167,44.861,339.882,51.111,339.864,57.378z"/>
<g>
	<path style="fill:#DF4D60;" d="M379.588,414.889c-1.156,0.026-2.304-0.212-3.354-0.706c-1.077-0.424-2.066-1.059-2.913-1.854   c-0.38-0.424-0.733-0.865-1.059-1.324c-0.335-0.494-0.6-1.024-0.794-1.589c-0.256-0.503-0.433-1.033-0.538-1.589   c-0.097-0.583-0.15-1.174-0.177-1.765c0.018-1.156,0.256-2.295,0.706-3.354c0.424-1.077,1.059-2.066,1.854-2.913   c2.533-2.507,6.329-3.24,9.622-1.854c1.068,0.45,2.057,1.077,2.913,1.854c0.794,0.839,1.43,1.827,1.854,2.913   c0.45,1.059,0.689,2.207,0.706,3.354c-0.018,0.591-0.079,1.183-0.185,1.765c-0.088,0.556-0.274,1.095-0.53,1.589   c-0.194,0.565-0.459,1.095-0.794,1.589c-0.353,0.441-0.706,0.883-1.059,1.324c-0.856,0.777-1.845,1.404-2.913,1.854   C381.892,414.678,380.744,414.916,379.588,414.889z"/>
	<path style="fill:#DF4D60;" d="M397.243,397.235c-2.339-0.035-4.573-0.945-6.267-2.56c-1.633-1.677-2.542-3.928-2.56-6.267   c0.018-1.156,0.256-2.295,0.706-3.354c0.424-1.077,1.059-2.066,1.854-2.913c3.54-3.266,8.995-3.266,12.535,0   c0.794,0.839,1.43,1.827,1.854,2.913c0.945,2.136,0.945,4.573,0,6.709c-0.424,1.077-1.059,2.066-1.854,2.913   C401.815,396.281,399.582,397.199,397.243,397.235z"/>
	<path style="fill:#DF4D60;" d="M132.42,379.58c-2.339-0.018-4.581-0.936-6.267-2.56c-1.615-1.695-2.525-3.928-2.56-6.267   c0.018-1.156,0.256-2.295,0.706-3.354c0.424-1.077,1.059-2.066,1.854-2.913c3.54-3.266,8.995-3.266,12.535,0   c0.794,0.839,1.43,1.827,1.854,2.913c0.45,1.059,0.689,2.207,0.706,3.354c0.044,4.829-3.831,8.783-8.66,8.827   C132.534,379.58,132.473,379.58,132.42,379.58z"/>
	<path style="fill:#DF4D60;" d="M132.42,414.889c-2.339-0.018-4.581-0.936-6.267-2.56c-0.777-0.856-1.404-1.845-1.854-2.913   c-0.45-1.059-0.689-2.198-0.706-3.354c0.026-2.339,0.945-4.573,2.56-6.267l1.315-1.059c0.494-0.335,1.033-0.6,1.598-0.794   c0.503-0.256,1.033-0.433,1.589-0.53c1.165-0.265,2.375-0.265,3.531,0c0.556,0.097,1.086,0.274,1.589,0.53   c0.565,0.194,1.095,0.459,1.589,0.794c0.441,0.353,0.892,0.706,1.324,1.059c1.615,1.695,2.525,3.928,2.56,6.267   c-0.018,1.156-0.256,2.295-0.706,3.354c-0.45,1.068-1.077,2.057-1.854,2.913C136.992,413.936,134.759,414.854,132.42,414.889z"/>
	<path style="fill:#DF4D60;" d="M114.765,397.235c-2.339-0.018-4.581-0.936-6.267-2.56c-1.615-1.695-2.525-3.928-2.56-6.267   c0.018-1.156,0.256-2.295,0.706-3.354c0.424-1.077,1.059-2.066,1.854-2.913c2.11-2.083,5.129-2.975,8.033-2.383   c0.556,0.097,1.086,0.274,1.589,0.53c0.538,0.177,1.05,0.45,1.501,0.794c1.474,0.953,2.613,2.339,3.266,3.972   c0.45,1.059,0.689,2.207,0.706,3.354c-0.026,2.357-0.98,4.608-2.648,6.267c-0.388,0.424-0.83,0.777-1.324,1.059   c-0.45,0.353-0.953,0.618-1.501,0.794c-0.503,0.256-1.033,0.433-1.589,0.53C115.948,397.155,115.356,397.217,114.765,397.235z"/>
</g>
<g>
	<path style="fill:#802F34;" d="M194.212,414.889h-26.482c-4.873,0-8.827-3.955-8.827-8.827c0-4.873,3.955-8.827,8.827-8.827h26.482   c4.873,0,8.827,3.955,8.827,8.827C203.039,410.935,199.084,414.889,194.212,414.889z"/>
	<path style="fill:#802F34;" d="M344.278,414.889h-26.482c-4.873,0-8.827-3.955-8.827-8.827c0-4.873,3.955-8.827,8.827-8.827h26.482   c4.873,0,8.827,3.955,8.827,8.827C353.105,410.935,349.151,414.889,344.278,414.889z"/>
</g>
<ellipse style="fill:#DF4D60;" cx="255.995" cy="406.062" rx="61.792" ry="52.965"/>
<path style="fill:#802F34;" d="M256.004,432.544c-14.618-0.018-26.465-11.864-26.482-26.482c0-4.873,3.955-8.827,8.827-8.827  s8.827,3.955,8.827,8.827c0,4.873,3.955,8.827,8.827,8.827s8.827-3.955,8.827-8.827c0-4.873,3.955-8.827,8.827-8.827  s8.827,3.955,8.827,8.827C282.468,420.68,270.622,432.527,256.004,432.544z"/>
<path style="fill:#DF4D60;" d="M379.588,379.58c-1.156-0.018-2.295-0.256-3.354-0.706c-1.068-0.45-2.057-1.077-2.913-1.854  c-0.777-0.856-1.404-1.845-1.854-2.913c-0.494-1.05-0.742-2.198-0.706-3.354c0.018-1.156,0.256-2.295,0.706-3.354  c0.45-1.068,1.077-2.057,1.854-2.913c3.54-3.266,8.995-3.266,12.535,0c0.777,0.856,1.404,1.845,1.854,2.913  c0.945,2.136,0.945,4.573,0,6.709c-0.45,1.068-1.077,2.057-1.854,2.913C384.196,378.679,381.936,379.597,379.588,379.58z"/>
<g>
	<path style="fill:#2C3E50;" d="M216.536,297.167c-3.143,0.009-6.056-1.668-7.636-4.387c-2.277-3.76-5.323-7.018-8.925-9.542   c-4.325-3.09-9.128-5.438-14.221-6.947c-11.758-3.496-24.293-3.496-36.051,0c-5.093,1.518-9.896,3.858-14.221,6.947   c-3.602,2.525-6.638,5.782-8.925,9.542c-2.454,4.211-7.856,5.641-12.067,3.187c-4.211-2.454-5.641-7.856-3.187-12.067   c3.504-5.888,8.201-10.973,13.788-14.936c5.906-4.237,12.473-7.468,19.429-9.551c15.148-4.537,31.284-4.537,46.432,0   c6.965,2.083,13.524,5.314,19.429,9.551c5.579,3.964,10.275,9.057,13.788,14.936c2.454,4.211,1.024,9.613-3.187,12.067   C219.626,296.752,218.099,297.167,216.536,297.167L216.536,297.167z"/>
	<path style="fill:#2C3E50;" d="M123.327,291.041c-2.339,0-4.59-0.927-6.241-2.586l-17.39-17.39   c-3.416-3.478-3.363-9.066,0.115-12.482c3.434-3.372,8.933-3.372,12.367,0l17.39,17.39c3.443,3.452,3.443,9.039,0,12.482   C127.909,290.105,125.667,291.041,123.327,291.041z"/>
	<path style="fill:#2C3E50;" d="M159.423,274.18c-2.339,0-4.59-0.927-6.241-2.586l-18.185-18.185   c-3.416-3.478-3.363-9.066,0.115-12.482c3.434-3.372,8.933-3.372,12.367,0l18.185,18.184c3.443,3.452,3.443,9.039,0,12.482   C164.013,273.244,161.771,274.18,159.423,274.18z"/>
	<path style="fill:#2C3E50;" d="M393.085,297.167c-3.143,0.009-6.056-1.668-7.636-4.387c-2.277-3.76-5.323-7.018-8.925-9.542   c-4.325-3.09-9.128-5.438-14.221-6.947c-11.758-3.496-24.293-3.496-36.051,0c-5.093,1.518-9.896,3.858-14.221,6.947   c-3.602,2.525-6.638,5.782-8.925,9.542c-2.454,4.211-7.856,5.641-12.067,3.187c-4.211-2.454-5.641-7.856-3.187-12.067   c3.504-5.888,8.201-10.973,13.788-14.936c5.906-4.237,12.473-7.468,19.429-9.551c15.148-4.537,31.284-4.537,46.432,0   c6.965,2.083,13.524,5.314,19.429,9.551c5.579,3.964,10.275,9.057,13.788,14.936c2.454,4.211,1.024,9.613-3.187,12.067   C396.174,296.752,394.647,297.167,393.085,297.167L393.085,297.167z"/>
	<path style="fill:#2C3E50;" d="M388.68,291.041c-4.873,0-8.827-3.955-8.827-8.827c0-2.339,0.927-4.581,2.586-6.241l17.39-17.39   c3.478-3.416,9.066-3.363,12.482,0.115c3.372,3.434,3.372,8.933,0,12.367l-17.39,17.39   C393.27,290.114,391.019,291.041,388.68,291.041z"/>
	<path style="fill:#2C3E50;" d="M352.576,274.18c-4.873,0-8.827-3.955-8.827-8.827c0-2.339,0.927-4.581,2.586-6.241l18.185-18.185   c3.478-3.416,9.066-3.363,12.482,0.115c3.372,3.434,3.372,8.933,0,12.367l-18.185,18.185   C357.166,273.244,354.924,274.18,352.576,274.18z"/>
</g>
<g>
</g>
<g>
</g>
<g>
</g>
<g>
</g>
<g>
</g>
<g>
</g>
<g>
</g>
<g>
</g>
<g>
</g>
<g>
</g>
<g>
</g>
<g>
</g>
<g>
</g>
<g>
</g>
<g>
</g>
</svg>
