<?xml version="1.0" encoding="iso-8859-1"?>
<!-- Generator: Adobe Illustrator 19.0.0, SVG Export Plug-In . SVG Version: 6.00 Build 0)  -->
<svg xmlns="http://www.w3.org/2000/svg" xmlns:xlink="http://www.w3.org/1999/xlink" version="1.1" id="Capa_1" x="0px" y="0px" viewBox="0 0 512.001 512.001" style="enable-background:new 0 0 512.001 512.001;" xml:space="preserve">
<g>
	<path style="fill:#F29C1F;" d="M84.398,241.872c-10.39,30.287-17.558,61.598-21.362,93.394   c-26.738-1.73-47.006-24.814-45.276-51.552c1.651-25.538,22.863-45.399,48.454-45.373   C72.446,238.314,78.625,239.515,84.398,241.872z"/>
	<path style="fill:#F29C1F;" d="M494.344,286.892c0.035,25.847-20.259,47.156-46.079,48.374   c-3.769-31.717-10.928-62.94-21.362-93.129c5.985-2.481,12.403-3.769,18.891-3.796c26.8-0.018,48.533,21.698,48.551,48.498   C494.344,286.856,494.344,286.874,494.344,286.892z"/>
</g>
<path style="fill:#F0C419;" d="M454.268,317.788c-1.148,108.366-89.899,195.298-198.264,194.204  c-108.366,1.095-197.117-85.838-198.264-194.204c0.018-8.916,0.583-17.814,1.677-26.659c1.589-14.768,4.122-29.422,7.592-43.872  c1.501-6.532,3.178-13.241,5.12-19.95c1.765-6.356,3.708-12.8,5.738-19.332c0.618-1.854,1.148-3.708,1.854-5.561  c0.441-1.501,0.971-3.09,1.501-4.679c0.177-0.441,0.265-0.794,0.441-1.236c3.266-9.622,6.974-19.332,10.946-28.954  c1.854-4.502,3.708-8.916,5.738-13.329c3.443-7.945,7.238-15.889,11.211-23.658c3.708-7.327,7.592-14.477,11.652-21.451  c4.237-7.327,8.563-14.477,13.153-21.362c2.207-3.443,4.502-6.709,6.797-9.975c1.236-1.677,2.383-3.266,3.531-4.855h0.177  c6.347-8.739,13.215-17.081,20.568-24.982c5.994-6.373,12.332-12.411,18.979-18.096C204.054,11.714,229.486,1.148,256.18,0  c32.75,0,63.646,18.891,90.923,48.198c7.565,8.139,14.636,16.71,21.186,25.688c0.088,0.088,0.088,0.088,0.088,0.177  c0.088,0.265,0.265,0.53,0.353,0.794c0.883,1.236,1.677,2.383,2.648,3.619c6.982,9.878,13.462,20.1,19.42,30.631  c3.972,6.797,7.856,13.947,11.476,21.186c6.179,12.182,11.891,24.602,17.125,37.252c3.972,9.622,7.68,19.244,10.946,28.954  c0.185,0.486,0.335,0.989,0.441,1.501c0.53,1.501,1.059,3.09,1.501,4.59c0.618,1.765,1.236,3.619,1.766,5.385  c8.995,27.012,15.21,54.88,18.538,83.154C453.685,299.974,454.25,308.872,454.268,317.788z"/>
<path style="fill:#F29C1F;" d="M339.864,57.378c0.044,46.273-37.428,83.816-83.702,83.861c-29.828,0.026-57.431-15.81-72.456-41.577  c7.238,4.122,15.422,6.276,23.746,6.267c26.809,0,48.551-21.733,48.551-48.542c0-23.649-17.037-43.855-40.341-47.854  C228.286,3.372,242.136,0.115,256.18,0c29.042,0,56.672,14.918,81.566,38.752C339.167,44.861,339.882,51.111,339.864,57.378z"/>
<g>
	<path style="fill:#2C3E50;" d="M317.116,459.027c-4.873,0-8.827-3.946-8.827-8.819c0,0,0,0,0-0.009   c0-19.138-23.94-35.31-52.285-35.31s-52.285,16.172-52.285,35.31c0,4.873-3.955,8.827-8.827,8.827s-8.827-3.955-8.827-8.827   c0-29.21,31.373-52.965,69.94-52.965s69.94,23.755,69.94,52.965C325.943,455.072,321.989,459.027,317.116,459.027L317.116,459.027z   "/>
	<path style="fill:#2C3E50;" d="M144.857,323.72c-4.882-0.009-8.827-3.972-8.819-8.845c0-1.289,0.282-2.551,0.83-3.716   c0.742-1.598,19.164-39.397,71.67-37.437c4.873,0.159,8.686,4.228,8.536,9.092c0,0.009,0,0.009,0,0.018   c-0.018,4.732-3.858,8.554-8.589,8.545c-0.177,0-0.344-0.009-0.521-0.018c-41.18-1.183-54.977,27.003-55.101,27.286   C151.407,321.734,148.282,323.72,144.857,323.72z"/>
	<path style="fill:#2C3E50;" d="M367.15,323.72c-3.407,0-6.515-1.96-7.98-5.032c-0.627-1.298-14.265-28.513-55.127-27.339   c-4.714,0.309-8.783-3.257-9.092-7.971c-0.009-0.185-0.018-0.371-0.018-0.556c-0.168-4.873,3.646-8.951,8.518-9.11   c0.009,0,0.009,0,0.018,0c52.726-1.969,70.92,35.831,71.67,37.437c2.066,4.423,0.15,9.675-4.272,11.741   C369.701,323.437,368.43,323.72,367.15,323.72z"/>
	<path style="fill:#2C3E50;" d="M197.548,361.934c-1.024,0-2.048-0.053-3.072-0.159c-10.231-1.404-19.403-7.053-25.264-15.554   c-2.701-4.061-1.598-9.534,2.454-12.235c4.034-2.684,9.472-1.615,12.191,2.392c2.975,4.131,7.45,6.947,12.464,7.839   c7.088-0.221,13.727-3.557,18.123-9.128c3.478-3.416,9.066-3.363,12.482,0.115c3.372,3.434,3.372,8.933,0,12.367   C219.476,356.125,208.883,361.307,197.548,361.934z"/>
	<path style="fill:#2C3E50;" d="M314.45,361.934c-11.334-0.627-21.927-5.808-29.387-14.362c-3.416-3.478-3.363-9.066,0.115-12.482   c3.434-3.372,8.933-3.372,12.367,0c4.396,5.57,11.034,8.907,18.123,9.128c5.023-0.892,9.49-3.707,12.473-7.848   c2.763-4.017,8.254-5.032,12.27-2.277c3.964,2.719,5.014,8.112,2.375,12.129c-5.861,8.501-15.033,14.142-25.264,15.554   C316.507,361.881,315.483,361.934,314.45,361.934z"/>
</g>
<g>
	<path style="fill:#46B29D;" d="M436.966,445.785c-11.688,11.449-28.83,15.342-44.314,10.063   c-7.141-2.233-13.621-6.17-18.891-11.476c-17.831-17.831-38.311-100.103-38.311-100.103s82.272,20.48,100.103,38.311   c0.883,0.883,1.766,1.766,2.56,2.737C453.518,402.708,453.014,428.996,436.966,445.785z"/>
	<path style="fill:#46B29D;" d="M176.557,344.27c0,0-20.48,82.272-38.311,100.103c-5.27,5.305-11.749,9.242-18.891,11.476   c-15.483,5.279-32.626,1.386-44.314-10.063c-16.048-16.79-16.551-43.078-1.148-60.468c0.794-0.971,1.677-1.854,2.56-2.737   C94.285,364.75,176.557,344.27,176.557,344.27z"/>
</g>
<g>
</g>
<g>
</g>
<g>
</g>
<g>
</g>
<g>
</g>
<g>
</g>
<g>
</g>
<g>
</g>
<g>
</g>
<g>
</g>
<g>
</g>
<g>
</g>
<g>
</g>
<g>
</g>
<g>
</g>
</svg>
