<?xml version="1.0" encoding="iso-8859-1"?>
<!-- Generator: Adobe Illustrator 19.0.0, SVG Export Plug-In . SVG Version: 6.00 Build 0)  -->
<svg xmlns="http://www.w3.org/2000/svg" xmlns:xlink="http://www.w3.org/1999/xlink" version="1.1" id="Capa_1" x="0px" y="0px" viewBox="0 0 512.001 512.001" style="enable-background:new 0 0 512.001 512.001;" xml:space="preserve">
<g>
	<path style="fill:#F29C1F;" d="M84.398,241.872c-10.39,30.287-17.558,61.598-21.362,93.394   c-26.738-1.73-47.006-24.814-45.276-51.552c1.651-25.538,22.863-45.399,48.454-45.373   C72.446,238.314,78.625,239.515,84.398,241.872z"/>
	<path style="fill:#F29C1F;" d="M494.344,286.892c0.035,25.847-20.259,47.156-46.079,48.374   c-3.769-31.717-10.928-62.94-21.362-93.129c5.985-2.481,12.403-3.769,18.891-3.796c26.8-0.018,48.533,21.698,48.551,48.498   C494.344,286.856,494.344,286.874,494.344,286.892z"/>
</g>
<path style="fill:#F0C419;" d="M454.268,317.788c-1.148,108.366-89.899,195.298-198.264,194.204  c-108.366,1.095-197.117-85.838-198.264-194.204c0.018-8.916,0.583-17.814,1.677-26.659c1.589-14.768,4.122-29.422,7.592-43.872  c1.501-6.532,3.178-13.241,5.12-19.95c1.765-6.356,3.708-12.8,5.738-19.332c0.618-1.854,1.148-3.708,1.854-5.561  c0.441-1.501,0.971-3.09,1.501-4.679c0.177-0.441,0.265-0.794,0.441-1.236c3.266-9.622,6.974-19.332,10.946-28.954  c1.854-4.502,3.708-8.916,5.738-13.329c3.443-7.945,7.238-15.889,11.211-23.658c3.708-7.327,7.592-14.477,11.652-21.451  c4.237-7.327,8.563-14.477,13.153-21.362c2.207-3.443,4.502-6.709,6.797-9.975c1.236-1.677,2.383-3.266,3.531-4.855h0.177  c6.347-8.739,13.215-17.081,20.568-24.982c5.994-6.373,12.332-12.411,18.979-18.096C204.054,11.714,229.486,1.148,256.18,0  c32.75,0,63.646,18.891,90.923,48.198c7.565,8.139,14.636,16.71,21.186,25.688c0.088,0.088,0.088,0.088,0.088,0.177  c0.088,0.265,0.265,0.53,0.353,0.794c0.883,1.236,1.677,2.383,2.648,3.619c6.982,9.878,13.462,20.1,19.42,30.631  c3.972,6.797,7.856,13.947,11.476,21.186c6.179,12.182,11.891,24.602,17.125,37.252c3.972,9.622,7.68,19.244,10.946,28.954  c0.185,0.486,0.335,0.989,0.441,1.501c0.53,1.501,1.059,3.09,1.501,4.59c0.618,1.765,1.236,3.619,1.766,5.385  c8.995,27.012,15.21,54.88,18.538,83.154C453.685,299.974,454.25,308.872,454.268,317.788z"/>
<path style="fill:#FFFFFF;" d="M231.225,277.429c2.851,3.293,2.851,8.174,0,11.458c-10.152,11.802-35.866,37.728-65.985,37.728  s-55.842-25.926-65.994-37.728c-2.851-3.293-2.851-8.174,0-11.458c10.152-11.802,35.866-37.728,65.994-37.728  S221.074,265.626,231.225,277.429z"/>
<circle style="fill:#2FA8CC;" cx="165.24" cy="300.133" r="26.482"/>
<path style="fill:#FFFFFF;" d="M412.761,277.429c2.851,3.293,2.851,8.174,0,11.458c-10.152,11.802-35.866,37.728-65.994,37.728  s-55.842-25.926-65.994-37.728c-2.851-3.293-2.851-8.174,0-11.458c10.152-11.802,35.866-37.728,65.994-37.728  S402.61,265.626,412.761,277.429z"/>
<circle style="fill:#2FA8CC;" cx="346.741" cy="300.133" r="26.482"/>
<path style="fill:#F29C1F;" d="M339.864,57.378c0.044,46.273-37.428,83.816-83.702,83.861c-29.828,0.026-57.431-15.81-72.456-41.577  c7.238,4.122,15.422,6.276,23.746,6.267c26.809,0,48.551-21.733,48.551-48.542c0-23.649-17.037-43.855-40.341-47.854  C228.286,3.372,242.136,0.115,256.18,0c29.042,0,56.672,14.918,81.566,38.752C339.167,44.861,339.882,51.111,339.864,57.378z"/>
<path style="fill:#46B29D;" d="M194.212,379.58h52.965l0,0v44.137c0,14.627-11.855,26.482-26.482,26.482l0,0  c-14.627,0-26.482-11.855-26.482-26.482V379.58L194.212,379.58z"/>
<path style="fill:#2C3E50;" d="M397.243,388.407H114.765c-4.873,0-8.827-3.955-8.827-8.827c0-4.873,3.955-8.827,8.827-8.827h282.478  c4.873,0,8.827,3.955,8.827,8.827C406.07,384.452,402.115,388.407,397.243,388.407z"/>
<g>
</g>
<g>
</g>
<g>
</g>
<g>
</g>
<g>
</g>
<g>
</g>
<g>
</g>
<g>
</g>
<g>
</g>
<g>
</g>
<g>
</g>
<g>
</g>
<g>
</g>
<g>
</g>
<g>
</g>
</svg>
