<?xml version="1.0" encoding="iso-8859-1"?>
<!-- Generator: Adobe Illustrator 19.0.0, SVG Export Plug-In . SVG Version: 6.00 Build 0)  -->
<svg xmlns="http://www.w3.org/2000/svg" xmlns:xlink="http://www.w3.org/1999/xlink" version="1.1" id="Capa_1" x="0px" y="0px" viewBox="0 0 512.001 512.001" style="enable-background:new 0 0 512.001 512.001;" xml:space="preserve">
<g>
	<path style="fill:#F29C1F;" d="M84.398,241.872c-10.39,30.287-17.558,61.598-21.362,93.394   c-26.738-1.73-47.006-24.814-45.276-51.552c1.651-25.538,22.863-45.399,48.454-45.373   C72.446,238.314,78.625,239.515,84.398,241.872z"/>
	<path style="fill:#F29C1F;" d="M494.344,286.892c0.035,25.847-20.259,47.156-46.079,48.374   c-3.769-31.717-10.928-62.94-21.362-93.129c5.985-2.481,12.403-3.769,18.891-3.796c26.8-0.018,48.533,21.698,48.551,48.498   C494.344,286.856,494.344,286.874,494.344,286.892z"/>
</g>
<path style="fill:#F0C419;" d="M454.268,317.788c-1.148,108.366-89.899,195.298-198.264,194.204  c-108.366,1.095-197.117-85.838-198.264-194.204c0.018-8.916,0.583-17.814,1.677-26.659c1.589-14.768,4.122-29.422,7.592-43.872  c1.501-6.532,3.178-13.241,5.12-19.95c1.765-6.356,3.708-12.8,5.738-19.332c0.618-1.854,1.148-3.708,1.854-5.561  c0.441-1.501,0.971-3.09,1.501-4.679c0.177-0.441,0.265-0.794,0.441-1.236c3.266-9.622,6.974-19.332,10.946-28.954  c1.854-4.502,3.708-8.916,5.738-13.329c3.443-7.945,7.238-15.889,11.211-23.658c3.708-7.327,7.592-14.477,11.652-21.451  c4.237-7.327,8.563-14.477,13.153-21.362c2.207-3.443,4.502-6.709,6.797-9.975c1.236-1.677,2.383-3.266,3.531-4.855h0.177  c6.347-8.739,13.215-17.081,20.568-24.982c5.994-6.373,12.332-12.411,18.979-18.096C204.054,11.714,229.486,1.148,256.18,0  c32.75,0,63.646,18.891,90.923,48.198c7.565,8.139,14.636,16.71,21.186,25.688c0.088,0.088,0.088,0.088,0.088,0.177  c0.088,0.265,0.265,0.53,0.353,0.794c0.883,1.236,1.677,2.383,2.648,3.619c6.982,9.878,13.462,20.1,19.42,30.631  c3.972,6.797,7.856,13.947,11.476,21.186c6.179,12.182,11.891,24.602,17.125,37.252c3.972,9.622,7.68,19.244,10.946,28.954  c0.185,0.486,0.335,0.989,0.441,1.501c0.53,1.501,1.059,3.09,1.501,4.59c0.618,1.765,1.236,3.619,1.766,5.385  c8.995,27.012,15.21,54.88,18.538,83.154C453.685,299.974,454.25,308.872,454.268,317.788z"/>
<path style="fill:#2C3E50;" d="M317.125,382.413c-0.83,1.942-1.695,3.831-2.692,5.667c-0.168,0.318-0.371,0.627-0.538,0.892  c-5.782,10.478-14.283,19.2-24.62,25.246c-0.706,0.424-1.404,0.839-2.11,1.209c-20.056,11.476-44.799,11.008-64.414-1.209  c-0.177-0.088-0.344-0.194-0.494-0.318c-4.864-2.887-9.339-6.382-13.321-10.39c-4.705-4.758-8.66-10.204-11.705-16.163  c-0.874-1.598-1.66-3.248-2.357-4.935c-1.81-4.211,0.132-9.092,4.352-10.902c2.083-0.9,4.449-0.9,6.532-0.009  c32.079,13.788,68.413,13.788,100.492,0c4.211-1.801,9.083,0.15,10.893,4.361C318.034,377.955,318.025,380.321,317.125,382.413z"/>
<g>
	<path style="fill:#DF4D60;" d="M379.588,379.58c-4.829,0.044-8.783-3.831-8.827-8.66c0-0.053,0-0.115,0-0.168   c0.018-1.156,0.256-2.295,0.706-3.354c0.45-1.068,1.077-2.048,1.854-2.913c2.092-2.057,5.058-2.948,7.936-2.383   c0.583,0.079,1.156,0.256,1.677,0.53c0.565,0.194,1.095,0.459,1.589,0.794c0.441,0.353,0.892,0.706,1.324,1.059   c0.777,0.856,1.404,1.845,1.854,2.913c0.45,1.059,0.689,2.207,0.706,3.354c-0.018,0.591-0.071,1.183-0.185,1.766   c-0.088,0.556-0.274,1.095-0.53,1.589c-0.194,0.565-0.459,1.095-0.794,1.589c-0.353,0.441-0.706,0.883-1.059,1.324   c-0.441,0.353-0.892,0.706-1.324,1.059c-0.494,0.335-1.024,0.6-1.589,0.794c-0.53,0.265-1.095,0.441-1.677,0.53   C380.709,379.5,380.144,379.562,379.588,379.58z"/>
	<path style="fill:#DF4D60;" d="M379.588,414.889c-0.591-0.018-1.183-0.079-1.766-0.177c-0.556-0.097-1.086-0.274-1.589-0.53   c-0.565-0.194-1.103-0.459-1.598-0.794c-0.459-0.327-0.9-0.68-1.315-1.059c-3.416-3.478-3.416-9.057,0-12.535   c2.083-2.066,5.058-2.966,7.936-2.383c0.583,0.079,1.156,0.256,1.677,0.53c0.565,0.194,1.095,0.459,1.589,0.794   c0.468,0.327,0.909,0.68,1.324,1.059c3.416,3.478,3.416,9.057,0,12.535c-0.424,0.38-0.865,0.733-1.324,1.059   c-0.494,0.335-1.024,0.6-1.589,0.794c-0.53,0.265-1.095,0.441-1.677,0.53C380.709,414.81,380.144,414.872,379.588,414.889z"/>
	<path style="fill:#DF4D60;" d="M361.933,397.235c-2.339-0.035-4.573-0.945-6.267-2.56c-0.777-0.856-1.404-1.845-1.854-2.913   c-0.494-1.05-0.741-2.198-0.706-3.354c0-4.873,3.955-8.827,8.827-8.827c4.873,0,8.827,3.955,8.827,8.827   c-0.018,1.156-0.256,2.295-0.706,3.354c-0.45,1.068-1.077,2.057-1.854,2.913C366.505,396.281,364.272,397.199,361.933,397.235z"/>
	<path style="fill:#DF4D60;" d="M397.243,397.235c-2.339-0.035-4.573-0.945-6.267-2.56c-0.777-0.856-1.404-1.845-1.854-2.913   c-0.45-1.059-0.689-2.198-0.706-3.354c0.026-2.339,0.945-4.573,2.56-6.267c2.56-2.472,6.329-3.196,9.622-1.854   c1.068,0.45,2.057,1.077,2.913,1.854c1.615,1.695,2.525,3.928,2.56,6.267c-0.018,1.156-0.256,2.295-0.706,3.354   c-0.45,1.068-1.077,2.057-1.854,2.913C401.815,396.281,399.582,397.199,397.243,397.235z"/>
	<path style="fill:#DF4D60;" d="M132.42,379.58c-0.591-0.018-1.183-0.079-1.765-0.177c-0.556-0.097-1.086-0.274-1.589-0.53   c-0.565-0.194-1.103-0.459-1.598-0.794c-0.441-0.353-0.883-0.706-1.315-1.059c-3.416-3.478-3.416-9.057,0-12.535   c2.11-2.03,5.067-2.922,7.936-2.383c0.583,0.079,1.156,0.256,1.677,0.53c0.565,0.194,1.095,0.459,1.589,0.794   c0.441,0.353,0.892,0.706,1.324,1.059c3.416,3.478,3.416,9.057,0,12.535c-0.441,0.353-0.892,0.706-1.324,1.059   c-0.494,0.335-1.024,0.6-1.589,0.794c-0.53,0.265-1.095,0.441-1.677,0.53C133.541,379.509,132.976,379.562,132.42,379.58z"/>
	<path style="fill:#DF4D60;" d="M132.42,414.889c-0.591-0.018-1.183-0.079-1.765-0.177c-0.556-0.097-1.086-0.274-1.589-0.53   c-0.565-0.194-1.103-0.459-1.598-0.794c-0.441-0.353-0.883-0.706-1.315-1.059c-1.615-1.695-2.525-3.928-2.56-6.267   c0.018-1.156,0.256-2.295,0.706-3.354c0.45-1.068,1.077-2.048,1.854-2.913c2.083-2.066,5.058-2.966,7.936-2.383   c0.583,0.079,1.156,0.256,1.677,0.53c0.565,0.194,1.095,0.459,1.589,0.794c0.441,0.353,0.892,0.706,1.324,1.059   c3.416,3.478,3.416,9.057,0,12.535c-0.441,0.353-0.892,0.706-1.324,1.059c-0.494,0.335-1.024,0.6-1.589,0.794   c-0.53,0.265-1.095,0.441-1.677,0.53C133.541,414.81,132.976,414.872,132.42,414.889z"/>
	<path style="fill:#DF4D60;" d="M114.765,397.235c-2.339-0.035-4.573-0.945-6.267-2.56c-0.794-0.847-1.43-1.836-1.854-2.913   c-0.45-1.059-0.689-2.198-0.706-3.354c0.018-0.591,0.079-1.183,0.177-1.766c0.097-0.556,0.282-1.086,0.538-1.589   c0.424-1.077,1.059-2.066,1.854-2.913c0.856-0.786,1.845-1.412,2.913-1.854c1.58-0.697,3.337-0.883,5.023-0.53   c0.583,0.079,1.156,0.256,1.677,0.53c0.565,0.194,1.095,0.459,1.589,0.794c0.441,0.353,0.892,0.706,1.324,1.059   c3.416,3.478,3.416,9.057,0,12.535c-0.441,0.353-0.892,0.706-1.324,1.059c-0.494,0.335-1.024,0.6-1.589,0.794   c-0.53,0.265-1.095,0.441-1.677,0.53C115.886,397.155,115.321,397.217,114.765,397.235z"/>
	<path style="fill:#DF4D60;" d="M150.074,397.235c-4.829,0.044-8.783-3.831-8.827-8.66c0-0.053,0-0.115,0-0.168   c0.018-1.156,0.256-2.295,0.706-3.354c0.45-1.068,1.077-2.048,1.854-2.913c2.11-2.03,5.067-2.922,7.936-2.383   c0.583,0.079,1.156,0.256,1.677,0.53c0.565,0.194,1.095,0.459,1.589,0.794c0.468,0.327,0.909,0.68,1.324,1.059   c3.416,3.478,3.416,9.057,0,12.535c-0.424,0.38-0.865,0.733-1.324,1.059c-0.494,0.335-1.024,0.6-1.589,0.794   c-0.53,0.265-1.095,0.441-1.677,0.53C151.196,397.155,150.631,397.217,150.074,397.235z"/>
</g>
<path style="fill:#F29C1F;" d="M339.864,57.378c0.044,46.273-37.428,83.816-83.702,83.861c-29.828,0.026-57.431-15.81-72.456-41.577  c7.238,4.122,15.422,6.276,23.746,6.267c26.809,0,48.551-21.733,48.551-48.542c0-23.649-17.037-43.855-40.341-47.854  C228.286,3.372,242.136,0.115,256.18,0c29.042,0,56.672,14.918,81.566,38.752C339.167,44.861,339.882,51.111,339.864,57.378z"/>
<g>
	<path style="fill:#FF5364;" d="M213.455,244.034c1.404,3.019,2.18,6.294,2.286,9.622l-0.141,1.589l-18.97,62.481   c-0.441,1.448-1.969,2.269-3.425,1.836c-0.106-0.035-0.203-0.071-0.309-0.115l-59.859-26.103l-1.306-0.927   c-4.97-4.537-7.901-10.884-8.13-17.611c-0.538-13.63,10.072-25.114,23.702-25.653c3.275-0.132,6.55,0.397,9.622,1.545   c3.372,1.386,6.471,3.346,9.172,5.8l0,0c-0.115-3.646,0.406-7.274,1.536-10.743c4.723-12.844,18.961-19.42,31.796-14.698   c3.019,1.112,5.8,2.798,8.174,4.97C210.083,238.288,212.07,241.007,213.455,244.034z"/>
	<path style="fill:#FF5364;" d="M298.543,244.034c-1.404,3.019-2.18,6.294-2.286,9.622l0.141,1.589l18.97,62.481   c0.441,1.448,1.969,2.269,3.425,1.836c0.106-0.035,0.203-0.071,0.309-0.115l59.859-26.103l1.306-0.927   c4.97-4.537,7.901-10.884,8.13-17.611c0.538-13.63-10.072-25.114-23.702-25.653c-3.275-0.132-6.55,0.397-9.622,1.545   c-3.372,1.386-6.471,3.346-9.172,5.8l0,0c0.115-3.646-0.406-7.274-1.536-10.743c-4.723-12.844-18.961-19.42-31.796-14.698   c-3.019,1.112-5.8,2.798-8.174,4.97C301.924,238.288,299.938,241.007,298.543,244.034z"/>
</g>
<g>
</g>
<g>
</g>
<g>
</g>
<g>
</g>
<g>
</g>
<g>
</g>
<g>
</g>
<g>
</g>
<g>
</g>
<g>
</g>
<g>
</g>
<g>
</g>
<g>
</g>
<g>
</g>
<g>
</g>
</svg>
