<?xml version="1.0" encoding="iso-8859-1"?>
<!-- Generator: Adobe Illustrator 19.0.0, SVG Export Plug-In . SVG Version: 6.00 Build 0)  -->
<svg xmlns="http://www.w3.org/2000/svg" xmlns:xlink="http://www.w3.org/1999/xlink" version="1.1" id="Capa_1" x="0px" y="0px" viewBox="0 0 512.001 512.001" style="enable-background:new 0 0 512.001 512.001;" xml:space="preserve">
<g>
	<path style="fill:#F29C1F;" d="M75.571,241.872c-10.39,30.287-17.558,61.598-21.362,93.394   c-26.738-1.73-47.006-24.814-45.276-51.552c1.651-25.538,22.863-45.399,48.454-45.373   C63.618,238.314,69.798,239.515,75.571,241.872z"/>
	<path style="fill:#F29C1F;" d="M485.517,286.892c0.035,25.847-20.259,47.156-46.079,48.374   c-3.769-31.717-10.928-62.94-21.362-93.129c5.985-2.481,12.403-3.769,18.891-3.796c26.8-0.018,48.533,21.698,48.551,48.498   C485.517,286.856,485.517,286.874,485.517,286.892z"/>
</g>
<path style="fill:#F0C419;" d="M445.44,317.788c-1.148,108.366-89.899,195.298-198.264,194.204  C138.81,513.086,50.059,426.153,48.912,317.788c0.018-8.916,0.583-17.814,1.677-26.659c1.589-14.768,4.122-29.422,7.592-43.872  c1.501-6.532,3.178-13.241,5.12-19.95c1.765-6.356,3.708-12.8,5.738-19.332c0.618-1.854,1.148-3.708,1.854-5.561  c0.441-1.501,0.971-3.09,1.501-4.679c0.177-0.441,0.265-0.794,0.441-1.236c3.266-9.622,6.974-19.332,10.946-28.954  c1.854-4.502,3.708-8.916,5.738-13.329c3.443-7.945,7.238-15.889,11.211-23.658c3.708-7.327,7.592-14.477,11.652-21.451  c4.237-7.327,8.563-14.477,13.153-21.362c2.207-3.443,4.502-6.709,6.797-9.975c1.236-1.677,2.383-3.266,3.531-4.855h0.177  c6.347-8.739,13.215-17.081,20.568-24.982c5.994-6.373,12.332-12.411,18.979-18.096C195.227,11.714,220.658,1.148,247.353,0  c32.75,0,63.646,18.891,90.923,48.198c7.565,8.139,14.636,16.71,21.186,25.688c0.088,0.088,0.088,0.088,0.088,0.177  c0.088,0.265,0.265,0.53,0.353,0.794c0.883,1.236,1.677,2.383,2.648,3.619c6.982,9.878,13.462,20.1,19.42,30.631  c3.972,6.797,7.856,13.947,11.476,21.186c6.179,12.182,11.891,24.602,17.125,37.252c3.972,9.622,7.68,19.244,10.946,28.954  c0.185,0.486,0.335,0.989,0.441,1.501c0.53,1.501,1.059,3.09,1.501,4.59c0.618,1.765,1.236,3.619,1.765,5.385  c8.995,27.012,15.21,54.88,18.538,83.154C444.858,299.974,445.423,308.872,445.44,317.788z"/>
<path style="fill:#FFFFFF;" d="M222.397,276.069c2.851,3.293,2.851,8.174,0,11.458c-10.152,11.802-35.866,37.728-65.994,37.728  s-55.842-25.926-65.994-37.728c-2.851-3.293-2.851-8.174,0-11.458c10.16-11.802,35.875-37.728,66.003-37.728  S212.246,264.267,222.397,276.069z"/>
<circle style="fill:#2FA8CC;" cx="156.412" cy="264.823" r="26.482"/>
<path style="fill:#FFFFFF;" d="M403.934,276.069c2.851,3.293,2.851,8.174,0,11.458c-10.152,11.802-35.866,37.728-65.994,37.728  s-55.842-25.926-65.994-37.728c-2.851-3.293-2.851-8.174,0-11.458c10.152-11.802,35.875-37.728,65.994-37.728  C368.059,238.341,393.782,264.267,403.934,276.069z"/>
<circle style="fill:#2FA8CC;" cx="337.913" cy="264.823" r="26.482"/>
<path style="fill:#F29C1F;" d="M331.037,57.378c0.044,46.273-37.428,83.816-83.702,83.861c-29.828,0.026-57.431-15.81-72.456-41.577  c7.238,4.122,15.422,6.276,23.746,6.267c26.809,0,48.551-21.733,48.551-48.542c0-23.649-17.037-43.855-40.341-47.854  C219.458,3.372,233.308,0.115,247.353,0c29.042,0,56.672,14.918,81.566,38.752C330.339,44.861,331.054,51.111,331.037,57.378z"/>
<g>
	<path style="fill:#DF4D60;" d="M123.592,379.58c-2.339-0.018-4.581-0.936-6.267-2.56c-1.615-1.695-2.525-3.928-2.56-6.267   c0.018-1.156,0.256-2.295,0.706-3.354c0.424-1.077,1.059-2.066,1.854-2.913c3.54-3.266,8.995-3.266,12.535,0   c0.794,0.839,1.43,1.827,1.854,2.913c0.45,1.059,0.689,2.207,0.706,3.354c0.044,4.829-3.831,8.783-8.66,8.827   C123.707,379.58,123.645,379.58,123.592,379.58z"/>
	<path style="fill:#DF4D60;" d="M123.592,414.889c-2.339-0.018-4.581-0.936-6.267-2.56c-0.777-0.856-1.404-1.845-1.854-2.913   c-0.45-1.059-0.689-2.198-0.706-3.354c0.026-2.339,0.945-4.573,2.56-6.267l1.315-1.059c0.494-0.335,1.033-0.6,1.598-0.794   c0.503-0.256,1.033-0.433,1.589-0.53c1.165-0.265,2.375-0.265,3.531,0c0.556,0.097,1.086,0.274,1.589,0.53   c0.565,0.194,1.095,0.459,1.589,0.794c0.441,0.353,0.892,0.706,1.324,1.059c1.615,1.695,2.525,3.928,2.56,6.267   c-0.018,1.156-0.256,2.295-0.706,3.354c-0.45,1.068-1.077,2.057-1.854,2.913C128.165,413.936,125.931,414.854,123.592,414.889z"/>
	<path style="fill:#DF4D60;" d="M105.937,397.235c-2.339-0.018-4.581-0.936-6.267-2.56c-1.615-1.695-2.525-3.928-2.56-6.267   c0.018-1.156,0.256-2.295,0.706-3.354c0.424-1.077,1.059-2.066,1.854-2.913c2.11-2.083,5.129-2.975,8.033-2.383   c0.556,0.097,1.086,0.274,1.589,0.53c0.538,0.177,1.05,0.45,1.501,0.794c1.474,0.953,2.613,2.339,3.266,3.972   c0.45,1.059,0.689,2.207,0.706,3.354c-0.026,2.357-0.98,4.608-2.648,6.267c-0.388,0.424-0.83,0.777-1.324,1.059   c-0.45,0.353-0.953,0.618-1.501,0.794c-0.503,0.256-1.033,0.433-1.589,0.53C107.12,397.155,106.529,397.217,105.937,397.235z"/>
</g>
<path style="fill:#2C2F38;" d="M242.753,459c-4.873,0-8.827-3.955-8.827-8.836c0-3.84,2.489-7.247,6.153-8.413l36.757-11.688  l-15.66-9.384c-8.086-4.352-11.114-14.442-6.762-22.536c1.545-2.869,3.893-5.217,6.762-6.762l15.713-9.375l-36.802-11.714  c-4.652-1.465-7.23-6.426-5.764-11.078c1.465-4.652,6.426-7.23,11.078-5.764c0.018,0.009,0.035,0.009,0.044,0.018l37.155,11.829  c6.894,1.898,12.005,7.706,13.02,14.786c0.662,6.718-2.728,13.188-8.633,16.463L271.134,406l15.845,9.49  c5.897,3.284,9.295,9.745,8.642,16.463c-1.015,7.08-6.126,12.888-13.02,14.795l-37.163,11.82  C244.572,458.859,243.663,459,242.753,459z"/>
<path style="fill:#FF5364;" d="M503.172,411.773c0.026,5.491-1.086,10.937-3.266,15.978l-1.236,2.295l-71.591,80.418  c-1.615,1.854-4.431,2.039-6.285,0.424c-0.15-0.132-0.291-0.274-0.424-0.424l-18.185-20.391l-53.406-60.027l-1.236-2.295  c-2.18-5.04-3.293-10.487-3.266-15.978c-0.009-5.491,1.103-10.928,3.266-15.978c2.021-4.864,4.987-9.278,8.739-12.976  c3.655-3.822,8.077-6.832,12.976-8.827c15.316-6.523,33.059-3.019,44.755,8.827c4.105,4.387,7.389,9.463,9.71,15.007  c2.322-5.544,5.605-10.619,9.71-15.007c3.69-3.787,8.104-6.788,12.976-8.827c3.646-1.598,7.521-2.613,11.476-3.001  c1.465-0.177,2.94-0.265,4.414-0.265c5.464-0.018,10.875,1.095,15.889,3.266c4.899,1.995,9.322,5.005,12.976,8.827  c3.752,3.699,6.718,8.112,8.739,12.976C502.068,400.845,503.18,406.283,503.172,411.773z"/>
<g>
</g>
<g>
</g>
<g>
</g>
<g>
</g>
<g>
</g>
<g>
</g>
<g>
</g>
<g>
</g>
<g>
</g>
<g>
</g>
<g>
</g>
<g>
</g>
<g>
</g>
<g>
</g>
<g>
</g>
</svg>
