<?xml version="1.0" encoding="iso-8859-1"?>
<!-- Generator: Adobe Illustrator 19.0.0, SVG Export Plug-In . SVG Version: 6.00 Build 0)  -->
<svg xmlns="http://www.w3.org/2000/svg" xmlns:xlink="http://www.w3.org/1999/xlink" version="1.1" id="Capa_1" x="0px" y="0px" viewBox="0 0 512.001 512.001" style="enable-background:new 0 0 512.001 512.001;" xml:space="preserve">
<g>
	<path style="fill:#F29C1F;" d="M84.398,241.872c-10.39,30.287-17.558,61.598-21.362,93.394   c-26.738-1.73-47.006-24.814-45.276-51.552c1.651-25.538,22.863-45.399,48.454-45.373   C72.446,238.314,78.625,239.515,84.398,241.872z"/>
	<path style="fill:#F29C1F;" d="M494.344,286.892c0.035,25.847-20.259,47.156-46.079,48.374   c-3.769-31.717-10.928-62.94-21.362-93.129c5.985-2.481,12.403-3.769,18.891-3.796c26.8-0.018,48.533,21.698,48.551,48.498   C494.344,286.856,494.344,286.874,494.344,286.892z"/>
</g>
<path style="fill:#F0C419;" d="M454.268,317.788c-1.148,108.366-89.899,195.298-198.264,194.204  c-108.366,1.095-197.117-85.838-198.264-194.204c0.018-8.916,0.583-17.814,1.677-26.659c1.589-14.768,4.122-29.422,7.592-43.872  c1.501-6.532,3.178-13.241,5.12-19.95c1.765-6.356,3.708-12.8,5.738-19.332c0.618-1.854,1.148-3.708,1.854-5.561  c0.441-1.501,0.971-3.09,1.501-4.679c0.177-0.441,0.265-0.794,0.441-1.236c3.266-9.622,6.974-19.332,10.946-28.954  c1.854-4.502,3.708-8.916,5.738-13.329c3.443-7.945,7.238-15.889,11.211-23.658c3.708-7.327,7.592-14.477,11.652-21.451  c4.237-7.327,8.563-14.477,13.153-21.362c2.207-3.443,4.502-6.709,6.797-9.975c1.236-1.677,2.383-3.266,3.531-4.855h0.177  c6.347-8.739,13.215-17.081,20.568-24.982c5.994-6.373,12.332-12.411,18.979-18.096C204.054,11.714,229.486,1.148,256.18,0  c32.75,0,63.646,18.891,90.923,48.198c7.565,8.139,14.636,16.71,21.186,25.688c0.088,0.088,0.088,0.088,0.088,0.177  c0.088,0.265,0.265,0.53,0.353,0.794c0.883,1.236,1.677,2.383,2.648,3.619c6.982,9.878,13.462,20.1,19.42,30.631  c3.972,6.797,7.856,13.947,11.476,21.186c6.179,12.182,11.891,24.602,17.125,37.252c3.972,9.622,7.68,19.244,10.946,28.954  c0.185,0.486,0.335,0.989,0.441,1.501c0.53,1.501,1.059,3.09,1.501,4.59c0.618,1.765,1.236,3.619,1.766,5.385  c8.995,27.012,15.21,54.88,18.538,83.154C453.685,299.974,454.25,308.872,454.268,317.788z"/>
<path style="fill:#F29C1F;" d="M339.864,57.378c0.044,46.273-37.428,83.816-83.702,83.861c-29.828,0.026-57.431-15.81-72.456-41.577  c7.238,4.122,15.422,6.276,23.746,6.267c26.809,0,48.551-21.733,48.551-48.542c0-23.649-17.037-43.855-40.341-47.854  C228.286,3.372,242.136,0.115,256.18,0c29.042,0,56.672,14.918,81.566,38.752C339.167,44.861,339.882,51.111,339.864,57.378z"/>
<g>
	<path style="fill:#2C2F38;" d="M282.486,428.131c0,17.063,0,30.896-26.482,30.896s-26.482-13.833-26.482-30.896   s11.855-48.551,26.482-48.551C270.631,379.58,282.486,411.067,282.486,428.131z"/>
	<path style="fill:#2C2F38;" d="M376.366,291.305c-50.025,0-67.433-35.928-68.165-37.499c-2.057-4.423-0.141-9.675,4.272-11.732   c4.387-2.048,9.604-0.168,11.696,4.193c0.627,1.289,14.195,28.433,55.127,27.339c4.696-0.327,8.766,3.222,9.092,7.927   c0.018,0.203,0.018,0.397,0.018,0.6c0.168,4.873-3.646,8.951-8.518,9.11c-0.009,0-0.009,0-0.018,0   C378.687,291.288,377.513,291.305,376.366,291.305z"/>
</g>
<path style="fill:#46B29D;" d="M317.796,318.229v184.935c0.018,4.873,3.955,8.81,8.827,8.827h51.199  c3.319,0.044,6.365-1.81,7.856-4.767c0.918-1.73,1.227-3.716,0.883-5.65l-6.267-34.25v-0.177l-27.188-149.36l0.177-0.53  C341.656,313.754,329.21,314.098,317.796,318.229z"/>
<g>
	<path style="fill:#2C2F38;" d="M295.445,319.138c6.073-3.875,12.606-6.982,19.456-9.233l0.053-0.026l0.071-0.018l0.106-0.044   l0.088-0.009c13.1-4.67,27.356-5.014,40.668-0.98l0.018,0.009c7.671,2.269,14.786,6.117,20.877,11.317   c3.584,3.31,3.805,8.889,0.503,12.473c-3.301,3.584-8.889,3.805-12.473,0.503c-4.175-3.372-8.96-5.888-14.097-7.424h-0.009   c-9.851-2.948-20.383-2.639-30.04,0.883l-0.097,0.018l-0.079,0.044c-5.5,1.81-10.752,4.317-15.633,7.45   c-4.14,2.578-9.587,1.306-12.164-2.825C290.122,327.145,291.349,321.734,295.445,319.138z"/>
	<path style="fill:#2C2F38;" d="M135.642,291.305c50.025,0,67.433-35.928,68.165-37.499c2.057-4.423,0.141-9.675-4.272-11.732   c-4.387-2.048-9.604-0.177-11.696,4.193c-0.627,1.289-14.195,28.433-55.127,27.339c-4.696-0.327-8.766,3.222-9.092,7.927   c-0.018,0.203-0.018,0.397-0.018,0.6c-0.168,4.873,3.646,8.951,8.518,9.11c0.009,0,0.009,0,0.018,0   C133.311,291.288,134.485,291.305,135.642,291.305z"/>
</g>
<path style="fill:#46B29D;" d="M194.212,318.229v184.935c-0.018,4.873-3.955,8.81-8.827,8.827h-51.199  c-3.319,0.044-6.365-1.81-7.856-4.767c-0.918-1.73-1.227-3.716-0.883-5.65l6.267-34.25v-0.177l27.189-149.36l-0.177-0.53  C170.351,313.754,182.789,314.098,194.212,318.229z"/>
<path style="fill:#2C2F38;" d="M216.563,319.138c-6.073-3.875-12.606-6.982-19.456-9.233l-0.053-0.026l-0.071-0.018l-0.106-0.044  l-0.088-0.009c-13.1-4.67-27.356-5.014-40.668-0.98l-0.018,0.009c-7.671,2.269-14.786,6.117-20.877,11.317  c-3.584,3.31-3.805,8.889-0.503,12.473s8.889,3.805,12.473,0.503c4.175-3.372,8.96-5.888,14.097-7.424h0.009  c9.851-2.948,20.383-2.639,30.04,0.883l0.097,0.018l0.079,0.044c5.499,1.81,10.752,4.317,15.633,7.45  c4.131,2.595,9.578,1.351,12.173-2.772C221.921,327.207,220.685,321.734,216.563,319.138z"/>
<g>
</g>
<g>
</g>
<g>
</g>
<g>
</g>
<g>
</g>
<g>
</g>
<g>
</g>
<g>
</g>
<g>
</g>
<g>
</g>
<g>
</g>
<g>
</g>
<g>
</g>
<g>
</g>
<g>
</g>
</svg>
