<?xml version="1.0" encoding="iso-8859-1"?>
<!-- Generator: Adobe Illustrator 19.0.0, SVG Export Plug-In . SVG Version: 6.00 Build 0)  -->
<svg xmlns="http://www.w3.org/2000/svg" xmlns:xlink="http://www.w3.org/1999/xlink" version="1.1" id="Capa_1" x="0px" y="0px" viewBox="0 0 512.001 512.001" style="enable-background:new 0 0 512.001 512.001;" xml:space="preserve">
<g>
	<path style="fill:#F29C1F;" d="M84.398,241.872c-10.39,30.287-17.558,61.598-21.362,93.394   c-26.738-1.73-47.006-24.814-45.276-51.552c1.651-25.538,22.863-45.399,48.454-45.373   C72.446,238.314,78.625,239.515,84.398,241.872z"/>
	<path style="fill:#F29C1F;" d="M494.344,286.892c0.035,25.847-20.259,47.156-46.079,48.374   c-3.769-31.717-10.928-62.94-21.362-93.129c5.985-2.481,12.403-3.769,18.891-3.796c26.8-0.018,48.533,21.698,48.551,48.498   C494.344,286.856,494.344,286.874,494.344,286.892z"/>
</g>
<path style="fill:#F0C419;" d="M454.268,317.788c-1.148,108.366-89.899,195.298-198.264,194.204  c-108.366,1.095-197.117-85.838-198.264-194.204c0.018-8.916,0.583-17.814,1.677-26.659c1.589-14.768,4.122-29.422,7.592-43.872  c1.501-6.532,3.178-13.241,5.12-19.95c1.765-6.356,3.708-12.8,5.738-19.332c0.618-1.854,1.148-3.708,1.854-5.561  c0.441-1.501,0.971-3.09,1.501-4.679c0.177-0.441,0.265-0.794,0.441-1.236c3.266-9.622,6.974-19.332,10.946-28.954  c1.854-4.502,3.708-8.916,5.738-13.329c3.443-7.945,7.238-15.889,11.211-23.658c3.708-7.327,7.592-14.477,11.652-21.451  c4.237-7.327,8.563-14.477,13.153-21.362c2.207-3.443,4.502-6.709,6.797-9.975c1.236-1.677,2.383-3.266,3.531-4.855h0.177  c6.347-8.739,13.215-17.081,20.568-24.982c5.994-6.373,12.332-12.411,18.979-18.096C204.054,11.714,229.486,1.148,256.18,0  c32.75,0,63.646,18.891,90.923,48.198c7.565,8.139,14.636,16.71,21.186,25.688c0.088,0.088,0.088,0.088,0.088,0.177  c0.088,0.265,0.265,0.53,0.353,0.794c0.883,1.236,1.677,2.383,2.648,3.619c6.982,9.878,13.462,20.1,19.42,30.631  c3.972,6.797,7.856,13.947,11.476,21.186c6.179,12.182,11.891,24.602,17.125,37.252c3.972,9.622,7.68,19.244,10.946,28.954  c0.185,0.486,0.335,0.989,0.441,1.501c0.53,1.501,1.059,3.09,1.501,4.59c0.618,1.765,1.236,3.619,1.766,5.385  c8.995,27.012,15.21,54.88,18.538,83.154C453.685,299.974,454.25,308.872,454.268,317.788z"/>
<path style="fill:#2C3E50;" d="M432.288,202.59l-1.236,0.441c-29.969,0.018-54.871-23.084-57.113-52.965H268.45  c-8.13-0.062-15.192,5.57-16.949,13.506c-0.892,4.264-1.342,8.616-1.324,12.976c-0.124,23.869,13.621,45.638,35.221,55.789  c-8.351,3.999-17.496,6.047-26.747,6.003c-30.163-0.327-55.763-22.236-60.733-51.994c-0.847-5.402-0.998-10.893-0.441-16.331  c1.333-9.595-5.367-18.449-14.963-19.782c-0.715-0.097-1.439-0.159-2.163-0.168h-36.281c-2.322,29.916-27.286,52.991-57.29,52.965  c-1.942,0-3.972-0.088-5.914-0.265l-1.148-0.353c0.441-1.501,0.971-3.09,1.501-4.679c0.177-0.441,0.265-0.794,0.441-1.236  c3.266-9.622,6.974-19.332,10.946-28.954c1.854-4.502,3.708-8.916,5.738-13.329c3.443-7.945,7.238-15.889,11.211-23.658  c3.708-7.327,7.592-14.477,11.652-21.451c4.237-7.327,8.563-14.477,13.153-21.362c2.207-3.443,4.502-6.709,6.797-9.975  c1.236-1.677,2.383-3.266,3.531-4.855h0.177c6.347-8.739,13.215-17.081,20.568-24.982c5.994-6.373,12.332-12.411,18.979-18.096  C204.054,11.714,229.486,1.148,256.18,0c32.75,0,63.646,18.891,90.923,48.198c7.565,8.139,14.636,16.71,21.186,25.688  c0.088,0.088,0.088,0.088,0.088,0.177c0.088,0.265,0.265,0.53,0.353,0.794c0.883,1.236,1.677,2.383,2.648,3.619  c6.982,9.878,13.462,20.1,19.42,30.631c3.972,6.797,7.856,13.947,11.476,21.186c6.179,12.182,11.891,24.602,17.125,37.252  c3.972,9.622,7.68,19.244,10.946,28.954c0.185,0.486,0.335,0.989,0.441,1.501C431.317,199.5,431.846,201.089,432.288,202.59z"/>
<g>
	<path style="fill:#2FA8CC;" d="M192.676,299.25c1.315,3.063,1.977,6.373,1.942,9.71c-0.009,14.627-11.864,26.482-26.491,26.473   c-14.627-0.009-26.482-11.864-26.473-26.491c0.009-14.345,11.432-26.085,25.776-26.465"/>
	<path style="fill:#2FA8CC;" d="M344.569,282.478c14.627,0.388,26.165,12.553,25.776,27.18   c-0.388,14.627-12.553,26.165-27.18,25.776c-14.345-0.38-25.785-12.12-25.785-26.473c-0.035-3.337,0.627-6.647,1.942-9.71"/>
</g>
<g>
	<path style="fill:#2C3E50;" d="M220.288,308.845h-19.747c-15.192-0.035-29.484-7.186-38.629-19.314l-0.132-0.177   c-5.808-7.6-14.821-12.067-24.39-12.094h-19.747c-4.873,0-8.827-3.955-8.827-8.827c0-4.873,3.955-8.827,8.827-8.827h19.747   c15.192,0.035,29.484,7.186,38.629,19.314l0.132,0.177c5.808,7.6,14.821,12.067,24.39,12.094h19.747   c4.873,0,8.827,3.955,8.827,8.827C229.115,304.891,225.161,308.845,220.288,308.845L220.288,308.845z"/>
	<path style="fill:#2C3E50;" d="M311.475,308.845h-19.747c-4.873,0-8.827-3.955-8.827-8.827c0-4.873,3.955-8.827,8.827-8.827h19.747   c9.569-0.018,18.582-4.493,24.39-12.094l0.132-0.177c9.145-12.129,23.437-19.279,38.629-19.314h19.747   c4.873,0,8.827,3.955,8.827,8.827c0,4.873-3.955,8.827-8.827,8.827h-19.747c-9.569,0.026-18.582,4.493-24.39,12.102l-0.132,0.177   C340.959,301.669,326.658,308.81,311.475,308.845z"/>
</g>
<path style="fill:#2C2F38;" d="M353.105,414.889c0,39-45.452,70.619-101.516,70.619s-101.515-31.62-101.515-70.619  s76.348-70.619,132.412-70.619S353.105,375.89,353.105,414.889z"/>
<path style="fill:#FFFFFF;" d="M346.397,377.638l-2.119,0.883H176.557l-1.236-1.766c31.911-20.789,69.084-32.052,107.165-32.485  C318.855,344.27,337.834,357.599,346.397,377.638z"/>
<g>
</g>
<g>
</g>
<g>
</g>
<g>
</g>
<g>
</g>
<g>
</g>
<g>
</g>
<g>
</g>
<g>
</g>
<g>
</g>
<g>
</g>
<g>
</g>
<g>
</g>
<g>
</g>
<g>
</g>
</svg>
