<?xml version="1.0" encoding="iso-8859-1"?>
<!-- Generator: Adobe Illustrator 19.0.0, SVG Export Plug-In . SVG Version: 6.00 Build 0)  -->
<svg xmlns="http://www.w3.org/2000/svg" xmlns:xlink="http://www.w3.org/1999/xlink" version="1.1" id="Capa_1" x="0px" y="0px" viewBox="0 0 512.001 512.001" style="enable-background:new 0 0 512.001 512.001;" xml:space="preserve">
<g>
	<path style="fill:#F29C1F;" d="M84.398,241.872c-10.39,30.287-17.558,61.598-21.362,93.394   c-26.738-1.73-47.006-24.814-45.276-51.552c1.651-25.538,22.863-45.399,48.454-45.373   C72.446,238.314,78.625,239.515,84.398,241.872z"/>
	<path style="fill:#F29C1F;" d="M494.344,286.892c0.035,25.847-20.259,47.156-46.079,48.374   c-3.769-31.717-10.928-62.94-21.362-93.129c5.985-2.481,12.403-3.769,18.891-3.796c26.8-0.018,48.533,21.698,48.551,48.498   C494.344,286.856,494.344,286.874,494.344,286.892z"/>
</g>
<path style="fill:#F0C419;" d="M454.268,317.788c-1.148,108.366-89.899,195.298-198.264,194.204  c-108.366,1.095-197.117-85.838-198.264-194.204c0.018-8.916,0.583-17.814,1.677-26.659c1.589-14.768,4.122-29.422,7.592-43.872  c1.501-6.532,3.178-13.241,5.12-19.95c1.765-6.356,3.708-12.8,5.738-19.332c0.618-1.854,1.148-3.708,1.854-5.561  c0.441-1.501,0.971-3.09,1.501-4.679c0.177-0.441,0.265-0.794,0.441-1.236c3.266-9.622,6.974-19.332,10.946-28.954  c1.854-4.502,3.708-8.916,5.738-13.329c3.443-7.945,7.238-15.889,11.211-23.658c3.708-7.327,7.592-14.477,11.652-21.451  c4.237-7.327,8.563-14.477,13.153-21.362c2.207-3.443,4.502-6.709,6.797-9.975c1.236-1.677,2.383-3.266,3.531-4.855h0.177  c6.347-8.739,13.215-17.081,20.568-24.982c5.994-6.373,12.332-12.411,18.979-18.096C204.054,11.714,229.486,1.148,256.18,0  c32.75,0,63.646,18.891,90.923,48.198c7.565,8.139,14.636,16.71,21.186,25.688c0.088,0.088,0.088,0.088,0.088,0.177  c0.088,0.265,0.265,0.53,0.353,0.794c0.883,1.236,1.677,2.383,2.648,3.619c6.982,9.878,13.462,20.1,19.42,30.631  c3.972,6.797,7.856,13.947,11.476,21.186c6.179,12.182,11.891,24.602,17.125,37.252c3.972,9.622,7.68,19.244,10.946,28.954  c0.185,0.486,0.335,0.989,0.441,1.501c0.53,1.501,1.059,3.09,1.501,4.59c0.618,1.765,1.236,3.619,1.766,5.385  c8.995,27.012,15.21,54.88,18.538,83.154C453.685,299.974,454.25,308.872,454.268,317.788z"/>
<path style="fill:#2C3E50;" d="M432.288,202.59l-1.236,0.441c-29.969,0.018-54.871-23.084-57.113-52.965H268.45  c-8.13-0.062-15.192,5.57-16.949,13.506c-0.892,4.264-1.342,8.616-1.324,12.976c-0.124,23.869,13.621,45.638,35.221,55.789  c-8.351,3.999-17.496,6.047-26.747,6.003c-30.163-0.327-55.763-22.236-60.733-51.994c-0.847-5.402-0.998-10.893-0.441-16.331  c1.333-9.595-5.367-18.449-14.963-19.782c-0.715-0.097-1.439-0.159-2.163-0.168h-36.281c-2.322,29.916-27.286,52.991-57.29,52.965  c-1.942,0-3.972-0.088-5.914-0.265l-1.148-0.353c0.441-1.501,0.971-3.09,1.501-4.679c0.177-0.441,0.265-0.794,0.441-1.236  c3.266-9.622,6.974-19.332,10.946-28.954c1.854-4.502,3.708-8.916,5.738-13.329c3.443-7.945,7.238-15.889,11.211-23.658  c3.708-7.327,7.592-14.477,11.652-21.451c4.237-7.327,8.563-14.477,13.153-21.362c2.207-3.443,4.502-6.709,6.797-9.975  c1.236-1.677,2.383-3.266,3.531-4.855h0.177c6.347-8.739,13.215-17.081,20.568-24.982c5.994-6.373,12.332-12.411,18.979-18.096  C204.054,11.714,229.486,1.148,256.18,0c32.75,0,63.646,18.891,90.923,48.198c7.565,8.139,14.636,16.71,21.186,25.688  c0.088,0.088,0.088,0.088,0.088,0.177c0.088,0.265,0.265,0.53,0.353,0.794c0.883,1.236,1.677,2.383,2.648,3.619  c6.982,9.878,13.462,20.1,19.42,30.631c3.972,6.797,7.856,13.947,11.476,21.186c6.179,12.182,11.891,24.602,17.125,37.252  c3.972,9.622,7.68,19.244,10.946,28.954c0.185,0.486,0.335,0.989,0.441,1.501C431.317,199.5,431.846,201.089,432.288,202.59z"/>
<path style="fill:#2FA8CC;" d="M170.378,273.739c0.583-0.071,1.174-0.106,1.766-0.088c17.152-0.088,31.134,13.744,31.231,30.896  c0.088,17.152-13.744,31.134-30.896,31.231s-31.134-13.744-31.231-30.896c-0.053-9.648,4.387-18.776,12.005-24.699"/>
<path style="fill:#2C3E50;" d="M123.592,300.133c-4.873,0-8.827-3.955-8.827-8.836c0-3.681,2.286-6.974,5.729-8.262l70.619-26.482  c4.555-1.739,9.657,0.547,11.396,5.102c1.739,4.555-0.547,9.657-5.102,11.396c-0.035,0.009-0.062,0.026-0.097,0.035l-70.619,26.482  C125.702,299.947,124.651,300.133,123.592,300.133z"/>
<path style="fill:#2FA8CC;" d="M358.755,280.183c13.409,10.478,15.792,29.846,5.314,43.254  c-10.478,13.409-29.846,15.792-43.254,5.314c-13.409-10.478-15.792-29.846-5.314-43.254c5.861-7.494,14.848-11.864,24.364-11.846  c0.591-0.018,1.183,0.018,1.766,0.088"/>
<g>
	<path style="fill:#2C3E50;" d="M388.415,300.133c-1.059,0-2.11-0.194-3.098-0.565l-70.619-26.482   c-4.573-1.686-6.921-6.762-5.235-11.334c1.686-4.573,6.762-6.921,11.334-5.235c0.035,0.009,0.062,0.026,0.097,0.035l70.619,26.482   c4.564,1.713,6.877,6.806,5.164,11.37C395.389,297.855,392.096,300.133,388.415,300.133z"/>
	<path style="fill:#2C3E50;" d="M282.486,410.476c0,17.063,0,30.896-26.482,30.896s-26.482-13.833-26.482-30.896   c-1.121-15.81,10.681-29.59,26.482-30.896C271.805,380.886,283.607,394.666,282.486,410.476z"/>
</g>
<g>
</g>
<g>
</g>
<g>
</g>
<g>
</g>
<g>
</g>
<g>
</g>
<g>
</g>
<g>
</g>
<g>
</g>
<g>
</g>
<g>
</g>
<g>
</g>
<g>
</g>
<g>
</g>
<g>
</g>
</svg>
