<?xml version="1.0" encoding="iso-8859-1"?>
<!-- Generator: Adobe Illustrator 19.0.0, SVG Export Plug-In . SVG Version: 6.00 Build 0)  -->
<svg xmlns="http://www.w3.org/2000/svg" xmlns:xlink="http://www.w3.org/1999/xlink" version="1.1" id="Capa_1" x="0px" y="0px" viewBox="0 0 512.001 512.001" style="enable-background:new 0 0 512.001 512.001;" xml:space="preserve">
<g>
	<path style="fill:#F29C1F;" d="M84.398,241.872c-10.39,30.287-17.558,61.598-21.362,93.394   c-26.738-1.73-47.006-24.814-45.276-51.552c1.651-25.538,22.863-45.399,48.454-45.373   C72.446,238.314,78.625,239.515,84.398,241.872z"/>
	<path style="fill:#F29C1F;" d="M494.344,286.892c0.035,25.847-20.259,47.156-46.079,48.374   c-3.769-31.717-10.928-62.94-21.362-93.129c5.985-2.481,12.403-3.769,18.891-3.796c26.8-0.018,48.533,21.698,48.551,48.498   C494.344,286.856,494.344,286.874,494.344,286.892z"/>
</g>
<path style="fill:#F0C419;" d="M454.268,317.788c-1.148,108.366-89.899,195.298-198.264,194.204  c-108.366,1.095-197.117-85.838-198.264-194.204c0.018-8.916,0.583-17.814,1.677-26.659c1.589-14.768,4.122-29.422,7.592-43.872  c1.501-6.532,3.178-13.241,5.12-19.95c1.765-6.356,3.708-12.8,5.738-19.332c0.618-1.854,1.148-3.708,1.854-5.561  c0.441-1.501,0.971-3.09,1.501-4.679c0.177-0.441,0.265-0.794,0.441-1.236c3.266-9.622,6.974-19.332,10.946-28.954  c1.854-4.502,3.708-8.916,5.738-13.329c3.443-7.945,7.238-15.889,11.211-23.658c3.708-7.327,7.592-14.477,11.652-21.451  c4.237-7.327,8.563-14.477,13.153-21.362c2.207-3.443,4.502-6.709,6.797-9.975c1.236-1.677,2.383-3.266,3.531-4.855h0.177  c6.347-8.739,13.215-17.081,20.568-24.982c5.994-6.373,12.332-12.411,18.979-18.096C204.054,11.714,229.486,1.148,256.18,0  c32.75,0,63.646,18.891,90.923,48.198c7.565,8.139,14.636,16.71,21.186,25.688c0.088,0.088,0.088,0.088,0.088,0.177  c0.088,0.265,0.265,0.53,0.353,0.794c0.883,1.236,1.677,2.383,2.648,3.619c6.982,9.878,13.462,20.1,19.42,30.631  c3.972,6.797,7.856,13.947,11.476,21.186c6.179,12.182,11.891,24.602,17.125,37.252c3.972,9.622,7.68,19.244,10.946,28.954  c0.185,0.486,0.335,0.989,0.441,1.501c0.53,1.501,1.059,3.09,1.501,4.59c0.618,1.765,1.236,3.619,1.766,5.385  c8.995,27.012,15.21,54.88,18.538,83.154C453.685,299.974,454.25,308.872,454.268,317.788z"/>
<g>
	<path style="fill:#2980BA;" d="M282.486,313.374c0,36.563,29.643,66.206,66.206,66.206s66.206-29.643,66.206-66.206   c0.026-10.116-2.33-20.1-6.885-29.131c-2.595-5.473-5.985-10.531-10.063-15.007c-24.346-27.241-66.153-29.59-93.394-5.243   C290.492,276.555,282.468,294.519,282.486,313.374z"/>
	<path style="fill:#2980BA;" d="M397.949,269.237c4.078,4.476,7.468,9.534,10.063,15.007l36.987-36.987   c-1.501-6.532-3.178-13.241-5.12-19.95L397.949,269.237z"/>
</g>
<path style="fill:#2C3E50;" d="M432.288,202.59l-1.236,0.441c-29.969,0.018-54.871-23.084-57.113-52.965H268.45  c-8.13-0.062-15.192,5.57-16.949,13.506c-0.892,4.264-1.342,8.616-1.324,12.976c-0.124,23.869,13.621,45.638,35.221,55.789  c-8.351,3.999-17.496,6.047-26.747,6.003c-30.163-0.327-55.763-22.236-60.733-51.994c-0.847-5.402-0.998-10.893-0.441-16.331  c1.333-9.595-5.367-18.449-14.963-19.782c-0.715-0.097-1.439-0.159-2.163-0.168h-36.281c-2.322,29.916-27.286,52.991-57.29,52.965  c-1.942,0-3.972-0.088-5.914-0.265l-1.148-0.353c0.441-1.501,0.971-3.09,1.501-4.679c0.177-0.441,0.265-0.794,0.441-1.236  c3.266-9.622,6.974-19.332,10.946-28.954c1.854-4.502,3.708-8.916,5.738-13.329c3.443-7.945,7.238-15.889,11.211-23.658  c3.708-7.327,7.592-14.477,11.652-21.451c4.237-7.327,8.563-14.477,13.153-21.362c2.207-3.443,4.502-6.709,6.797-9.975  c1.236-1.677,2.383-3.266,3.531-4.855h0.177c6.347-8.739,13.215-17.081,20.568-24.982c5.994-6.373,12.332-12.411,18.979-18.096  C204.054,11.714,229.486,1.148,256.18,0c32.75,0,63.646,18.891,90.923,48.198c7.565,8.139,14.636,16.71,21.186,25.688  c0.088,0.088,0.088,0.088,0.088,0.177c0.088,0.265,0.265,0.53,0.353,0.794c0.883,1.236,1.677,2.383,2.648,3.619  c6.982,9.878,13.462,20.1,19.42,30.631c3.972,6.797,7.856,13.947,11.476,21.186c6.179,12.182,11.891,24.602,17.125,37.252  c3.972,9.622,7.68,19.244,10.946,28.954c0.185,0.486,0.335,0.989,0.441,1.501C431.317,199.5,431.846,201.089,432.288,202.59z"/>
<path style="fill:#2980BA;" d="M229.521,313.374c0,36.563-29.643,66.206-66.206,66.206S97.11,349.937,97.11,313.374  c-0.026-10.116,2.33-20.1,6.885-29.131c2.595-5.473,5.985-10.531,10.063-15.007c24.346-27.241,66.153-29.59,93.394-5.243  C221.506,276.555,229.539,294.519,229.521,313.374z"/>
<path style="fill:#2C3E50;" d="M284.613,305.959c-2.86,0-5.544-1.377-7.194-3.699c-8.536-11.829-25.043-14.495-36.872-5.959  c-2.295,1.651-4.299,3.663-5.959,5.959c-2.816,3.981-8.333,4.917-12.305,2.101c-3.981-2.816-4.917-8.333-2.101-12.305  c0.009-0.018,0.018-0.026,0.026-0.044c14.203-19.765,41.736-24.275,61.51-10.081c3.884,2.789,7.291,6.197,10.081,10.081  c2.834,3.972,1.907,9.481-2.057,12.314C288.241,305.385,286.449,305.959,284.613,305.959L284.613,305.959z"/>
<path style="fill:#2980BA;" d="M114.059,269.237c-4.078,4.476-7.468,9.534-10.063,15.007l-36.987-36.987  c1.501-6.532,3.178-13.241,5.12-19.95L114.059,269.237z"/>
<g>
	<path style="fill:#2C3E50;" d="M167.729,335.443c-4.873,0-8.827-3.955-8.827-8.827v-26.482c0-4.873,3.955-8.827,8.827-8.827   s8.827,3.955,8.827,8.827v26.482C176.557,331.488,172.602,335.443,167.729,335.443z"/>
	<path style="fill:#2C3E50;" d="M335.442,448.469c-1.227,0-2.445-0.265-3.575-0.759c-7.433-3.275-15.095-5.994-22.916-8.157   c-8.368-2.304-16.887-4.043-25.494-5.191c-18.229-2.401-36.696-2.401-54.924,0c-8.607,1.148-17.116,2.887-25.485,5.191   c-7.83,2.163-15.483,4.89-22.916,8.157c-4.449,1.986-9.675-0.009-11.652-4.467c-1.986-4.449,0.009-9.675,4.467-11.652   c0.009-0.009,0.026-0.009,0.035-0.018c8.218-3.628,16.693-6.647,25.361-9.03c9.145-2.525,18.449-4.423,27.851-5.685   c19.791-2.613,39.838-2.613,59.62,0c9.401,1.262,18.714,3.16,27.859,5.685c8.66,2.383,17.134,5.402,25.361,9.03   c4.458,1.977,6.471,7.194,4.493,11.652C342.106,446.412,338.937,448.469,335.442,448.469L335.442,448.469z"/>
	<path style="fill:#2C3E50;" d="M176.566,467.854c-2.957,0-5.711-1.474-7.353-3.928c-17.143-25.714-6.779-47.403,1.103-55.277   c3.443-3.452,9.039-3.452,12.482,0c3.425,3.425,3.452,8.96,0.062,12.42c-1.315,1.395-11.917,13.63,1.042,33.068   c2.701,4.061,1.607,9.534-2.445,12.244C180.008,467.333,178.305,467.854,176.566,467.854z"/>
	<path style="fill:#2C3E50;" d="M335.442,467.854c-4.873-0.009-8.827-3.964-8.819-8.836c0-1.739,0.521-3.443,1.483-4.89   c13.479-20.232,1.227-32.873,1.103-32.997c-3.425-3.46-3.399-9.057,0.062-12.482c3.443-3.407,8.977-3.407,12.42,0   c7.883,7.874,18.246,29.563,1.103,55.277C341.153,466.38,338.399,467.854,335.442,467.854z"/>
	<path style="fill:#2C3E50;" d="M194.212,317.788c-0.953,0-1.889-0.159-2.789-0.459l-52.965-17.655   c-4.626-1.545-7.124-6.541-5.579-11.167s6.541-7.124,11.167-5.579l52.965,17.655c4.626,1.545,7.124,6.55,5.579,11.176   C201.38,315.36,198.007,317.788,194.212,317.788z"/>
	<path style="fill:#2C3E50;" d="M344.278,335.443c-4.873,0-8.827-3.955-8.827-8.827v-26.482c0-4.873,3.955-8.827,8.827-8.827   c4.873,0,8.827,3.955,8.827,8.827v26.482C353.105,331.488,349.151,335.443,344.278,335.443z"/>
	<path style="fill:#2C3E50;" d="M317.796,317.788c-4.873,0-8.827-3.955-8.827-8.836c0-3.796,2.428-7.168,6.038-8.377l52.965-17.655   c4.626-1.545,9.622,0.953,11.167,5.579c1.545,4.626-0.953,9.622-5.579,11.167l-52.965,17.655   C319.685,317.638,318.74,317.788,317.796,317.788z"/>
</g>
<g>
</g>
<g>
</g>
<g>
</g>
<g>
</g>
<g>
</g>
<g>
</g>
<g>
</g>
<g>
</g>
<g>
</g>
<g>
</g>
<g>
</g>
<g>
</g>
<g>
</g>
<g>
</g>
<g>
</g>
</svg>
