<?xml version="1.0" encoding="iso-8859-1"?>
<!-- Generator: Adobe Illustrator 19.0.0, SVG Export Plug-In . SVG Version: 6.00 Build 0)  -->
<svg xmlns="http://www.w3.org/2000/svg" xmlns:xlink="http://www.w3.org/1999/xlink" version="1.1" id="Capa_1" x="0px" y="0px" viewBox="0 0 512.001 512.001" style="enable-background:new 0 0 512.001 512.001;" xml:space="preserve">
<g>
	<path style="fill:#F29C1F;" d="M84.398,241.872c-10.39,30.287-17.558,61.598-21.362,93.394   c-26.738-1.73-47.006-24.814-45.276-51.552c1.651-25.538,22.863-45.399,48.454-45.373   C72.446,238.314,78.625,239.515,84.398,241.872z"/>
	<path style="fill:#F29C1F;" d="M494.344,286.892c0.035,25.847-20.259,47.156-46.079,48.374   c-3.769-31.717-10.928-62.94-21.362-93.129c5.985-2.481,12.403-3.769,18.891-3.796c26.8-0.018,48.533,21.698,48.551,48.498   C494.344,286.856,494.344,286.874,494.344,286.892z"/>
</g>
<path style="fill:#F0C419;" d="M452.591,291.129c-3.328-28.274-9.542-56.143-18.538-83.154c-0.53-1.765-1.148-3.619-1.765-5.385  c-0.441-1.501-0.971-3.09-1.501-4.59c-0.106-0.512-0.256-1.015-0.441-1.501c-3.266-9.71-6.974-19.332-10.946-28.954  c-5.208-12.623-10.92-25.043-17.125-37.252c-3.619-7.238-7.503-14.389-11.476-21.186c-5.959-10.531-12.438-20.753-19.42-30.631  c-0.971-1.236-1.765-2.383-2.648-3.619c-0.088-0.265-0.265-0.53-0.353-0.794c0-0.088,0-0.088-0.088-0.177  c-6.55-8.978-13.621-17.549-21.186-25.688C319.826,18.891,288.93,0,256.18,0c-26.694,1.148-52.126,11.714-71.767,29.837  c-6.647,5.685-12.985,11.723-18.979,18.096c-7.353,7.901-14.221,16.242-20.568,24.982h-0.177c-1.148,1.589-2.295,3.178-3.531,4.855  c-2.295,3.266-4.59,6.532-6.797,9.975c-4.59,6.885-8.916,14.036-13.153,21.362c-4.061,6.974-7.945,14.124-11.652,21.451  c-3.972,7.768-7.768,15.713-11.211,23.658c-2.03,4.414-3.884,8.827-5.738,13.329c-3.972,9.622-7.68,19.332-10.946,28.954  c-0.177,0.441-0.265,0.794-0.441,1.236c-0.53,1.589-1.059,3.178-1.501,4.679c-0.706,1.854-1.236,3.708-1.854,5.561  c-8.916,27.03-15.095,54.889-18.449,83.154c-1.095,8.845-1.66,17.743-1.677,26.659c1.148,108.366,89.899,195.298,198.264,194.204  c108.366,1.095,197.117-85.838,198.264-194.204C454.25,308.872,453.685,299.974,452.591,291.129z"/>
<path style="fill:#2C3E50;" d="M432.288,202.59l-1.236,0.441c-29.969,0.018-54.871-23.084-57.114-52.965H268.45  c-8.13-0.062-15.192,5.57-16.949,13.506c-0.892,4.264-1.342,8.616-1.324,12.976c-0.124,23.869,13.621,45.638,35.221,55.789  c-8.351,3.999-17.496,6.047-26.747,6.003c-30.163-0.327-55.763-22.236-60.733-51.994c-0.847-5.402-0.998-10.893-0.441-16.331  c1.333-9.595-5.367-18.449-14.963-19.782c-0.715-0.097-1.439-0.159-2.163-0.168h-36.281c-2.322,29.916-27.286,52.991-57.29,52.965  c-1.942,0-3.972-0.088-5.914-0.265l-1.148-0.353c0.441-1.501,0.971-3.09,1.501-4.679c0.177-0.441,0.265-0.794,0.441-1.236  c3.266-9.622,6.974-19.332,10.946-28.954c1.854-4.502,3.708-8.916,5.738-13.329c3.443-7.945,7.238-15.889,11.211-23.658  c3.708-7.327,7.592-14.477,11.652-21.451c4.237-7.327,8.563-14.477,13.153-21.362c2.207-3.443,4.502-6.709,6.797-9.975  c1.236-1.677,2.383-3.266,3.531-4.855h0.177c6.347-8.739,13.215-17.081,20.568-24.982c5.994-6.373,12.332-12.411,18.979-18.096  C204.054,11.714,229.486,1.148,256.18,0c32.75,0,63.646,18.891,90.923,48.198c7.565,8.139,14.636,16.71,21.186,25.688  c0.088,0.088,0.088,0.088,0.088,0.177c0.088,0.265,0.265,0.53,0.353,0.794c0.883,1.236,1.677,2.383,2.648,3.619  c6.983,9.878,13.462,20.1,19.42,30.631c3.972,6.797,7.856,13.947,11.476,21.186c6.179,12.182,11.891,24.602,17.125,37.252  c3.972,9.622,7.68,19.244,10.946,28.954c0.185,0.486,0.335,0.989,0.441,1.501C431.317,199.5,431.846,201.089,432.288,202.59z"/>
<g>
	<path style="fill:#2980BA;" d="M196.948,286.274c3.972,5.261,6.117,11.679,6.091,18.273c0.044,17.063-13.744,30.931-30.808,30.984   c-17.063,0.044-30.931-13.744-30.984-30.808c-0.026-9.913,4.696-19.226,12.712-25.061"/>
	<path style="fill:#2980BA;" d="M358.049,279.653c13.762,10.054,16.763,29.369,6.709,43.131   c-10.054,13.762-29.369,16.763-43.131,6.709c-7.962-5.817-12.667-15.086-12.659-24.946c-0.026-6.594,2.119-13.012,6.091-18.273"/>
</g>
<g>
	<path style="fill:#2C2F38;" d="M229.53,300.133c-0.45,0-0.909-0.035-1.351-0.106l-114.757-17.655   c-4.811-0.786-8.068-5.332-7.283-10.143c0.777-4.749,5.208-7.998,9.975-7.309l114.757,17.655c4.82,0.741,8.121,5.252,7.38,10.072   C237.581,296.955,233.882,300.124,229.53,300.133z"/>
	<path style="fill:#2C2F38;" d="M282.477,300.133c-4.873-0.009-8.819-3.964-8.819-8.836c0.009-4.352,3.178-8.051,7.477-8.713   l114.757-17.655c4.829-0.697,9.304,2.648,9.993,7.477c0.689,4.758-2.56,9.189-7.309,9.975l-114.757,17.655   C283.378,300.097,282.927,300.133,282.477,300.133z"/>
	<path style="fill:#2C2F38;" d="M341.692,373.339c-3.478-3.416-9.066-3.363-12.482,0.115c-3.372,3.434-3.372,8.933,0,12.367   c2.057,2.383,3.54,5.208,4.343,8.254c-6.488-2.657-13.126-4.943-19.879-6.85c-9.145-2.525-18.458-4.423-27.859-5.685   c-19.791-2.613-39.838-2.613-59.629,0c-9.401,1.262-18.705,3.16-27.851,5.685c-6.771,1.907-13.427,4.202-19.932,6.868   c0.83-3.09,2.357-5.941,4.467-8.342c3.407-3.487,3.337-9.075-0.15-12.482c-3.46-3.372-8.986-3.346-12.403,0.071   c-7.883,7.874-18.237,29.563-1.103,55.277c2.666,4.078,8.139,5.226,12.217,2.56c4.078-2.666,5.226-8.139,2.56-12.217   c-0.026-0.044-0.053-0.088-0.088-0.132c-1.377-2.057-2.586-4.228-3.593-6.488c7.38-3.24,14.98-5.941,22.748-8.095   c8.368-2.304,16.878-4.043,25.485-5.191c18.229-2.401,36.696-2.401,54.924,0c8.607,1.148,17.125,2.878,25.494,5.191   c7.759,2.145,15.36,4.846,22.731,8.086c-1.006,2.269-2.198,4.44-3.575,6.497c-2.737,4.034-1.677,9.525,2.357,12.261   c4.034,2.737,9.525,1.677,12.261-2.357c0.026-0.035,0.044-0.071,0.071-0.106C359.929,402.902,349.574,381.213,341.692,373.339z"/>
</g>
<path style="fill:#F29C1F;" d="M282.477,450.42c-2.048,0-4.034-0.715-5.614-2.021c-12.429-9.066-29.298-9.066-41.727,0  c-3.76,3.107-9.331,2.569-12.429-1.192c-3.107-3.76-2.569-9.331,1.192-12.429l0,0c18.855-14.751,45.347-14.751,64.202,0  c3.76,3.107,4.29,8.669,1.183,12.429C287.615,449.246,285.117,450.42,282.477,450.42L282.477,450.42z"/>
<g>
</g>
<g>
</g>
<g>
</g>
<g>
</g>
<g>
</g>
<g>
</g>
<g>
</g>
<g>
</g>
<g>
</g>
<g>
</g>
<g>
</g>
<g>
</g>
<g>
</g>
<g>
</g>
<g>
</g>
</svg>
