<?xml version="1.0" encoding="iso-8859-1"?>
<!-- Generator: Adobe Illustrator 19.0.0, SVG Export Plug-In . SVG Version: 6.00 Build 0)  -->
<svg xmlns="http://www.w3.org/2000/svg" xmlns:xlink="http://www.w3.org/1999/xlink" version="1.1" id="Capa_1" x="0px" y="0px" viewBox="0 0 512 512" style="enable-background:new 0 0 512 512;" xml:space="preserve">
<path style="fill:#F0C419;" d="M146.979,72.916c-3.443,4.767-6.886,9.71-10.152,14.83c-2.737,4.237-5.473,8.563-8.121,13.065  l-0.088,0.088c-10.134,17.187-19.182,35.001-27.101,53.319c-4.502,10.328-8.651,20.833-12.447,31.338  c-1.412,3.619-2.648,7.327-3.884,10.946c-14.001,38.983-21.892,79.898-23.393,121.291C61.793,425.048,148.744,512,255.999,512  s194.207-86.952,194.207-194.207c-1.501-41.393-9.393-82.308-23.393-121.291c-1.236-3.531-2.472-7.15-3.796-10.681h-0.088  c-10.637-29.978-24.143-58.862-40.342-86.246c-5.111-8.519-10.478-16.772-16.084-24.638c-0.132-0.274-0.283-0.627-0.406-0.874  c0-0.088,0-0.088-0.088-0.177C334.671,30.367,296.889,0,256.194,0c-26.244,1.174-51.191,11.767-70.268,29.837  c-14.592,12.765-27.604,27.224-38.753,43.079H146.979z"/>
<path style="fill:#475962;" d="M448.617,291.134c-1.271-11.917-3.16-23.764-5.65-35.487h-0.088L441.379,256l-65.412-8.21  c-3.452-0.397-6.938-0.221-10.328,0.53l-7.327,1.677l-90.394,20.921c-7.848,1.766-15.987,1.766-23.834,0l-5.738-1.324  l-91.983-21.274c-3.39-0.75-6.877-0.927-10.328-0.53l-17.655,2.207L70.62,256l-1.589-0.353c-2.481,11.723-4.37,23.57-5.65,35.487  c-1.024,8.854-1.562,17.752-1.589,26.659c0,1.148,0,2.383,0.088,3.531h25.777c6.135,0.009,12.12,1.924,17.126,5.473l41.49,29.661  c0.247,0.177,0.512,0.327,0.794,0.441c7.742,5.314,17.585,6.532,26.394,3.266l64.883-23.57l11.652-4.237  c3.858-1.501,8.148-1.501,12.006,0l67.619,24.541l8.916,3.266c9.119,3.346,19.297,1.951,27.189-3.708l41.49-29.661  c1.871-1.306,3.884-2.41,6.003-3.266c3.531-1.439,7.309-2.189,11.123-2.207h25.777c0.088-1.148,0.088-2.383,0.088-3.531  C450.171,308.886,449.641,299.988,448.617,291.134z"/>
<path style="fill:#4482C3;" d="M399.977,132.414H111.315c0.265-0.618,0.618-1.236,0.883-1.854  c7.265-14.724,15.369-29.025,24.276-42.814c2.207-3.443,4.414-6.709,6.709-9.975c1.148-1.677,2.295-3.266,3.443-4.855h0.177  c6.197-8.73,12.915-17.073,20.127-24.982c5.853-6.391,12.067-12.429,18.626-18.097C204.623,11.767,229.57,1.174,255.823,0  c32.044,0,62.323,18.891,89.07,48.199c7.415,8.139,14.345,16.719,20.745,25.688c0.088,0.088,0.088,0.088,0.088,0.177  c0.088,0.265,0.265,0.53,0.353,0.794c0.883,1.236,1.677,2.383,2.56,3.619c11.343,16.508,21.46,33.827,30.279,51.818L399.977,132.414  z"/>
<path style="fill:#285680;" d="M436.435,203.034H75.564c-9.772-0.018-17.673-7.962-17.655-17.735c0-1.43,0.177-2.86,0.53-4.246  l8.828-35.31c1.96-7.857,9.031-13.356,17.126-13.33h343.217c8.095-0.026,15.166,5.473,17.126,13.33l8.828,35.31  c2.366,9.481-3.399,19.085-12.879,21.451C439.295,202.858,437.865,203.034,436.435,203.034z"/>
<g>
	<path style="fill:#4482C3;" d="M105.93,167.724v35.31H88.275v-35.31c0-4.873,3.955-8.828,8.828-8.828   S105.93,162.851,105.93,167.724z"/>
	<path style="fill:#4482C3;" d="M141.241,167.724v35.31h-17.655v-35.31c0-4.873,3.955-8.828,8.828-8.828   C137.286,158.897,141.241,162.851,141.241,167.724z"/>
	<path style="fill:#4482C3;" d="M176.551,167.724v35.31h-17.655v-35.31c0-4.873,3.955-8.828,8.828-8.828   C172.596,158.897,176.551,162.851,176.551,167.724z"/>
	<path style="fill:#4482C3;" d="M211.862,167.724v35.31h-17.655v-35.31c0-4.873,3.955-8.828,8.828-8.828   C207.907,158.897,211.862,162.851,211.862,167.724z"/>
	<path style="fill:#4482C3;" d="M247.172,167.724v35.31h-17.655v-35.31c0-4.873,3.955-8.828,8.828-8.828   S247.172,162.851,247.172,167.724z"/>
	<path style="fill:#4482C3;" d="M282.482,167.724v35.31h-17.655v-35.31c0-4.873,3.955-8.828,8.828-8.828   C278.527,158.897,282.482,162.851,282.482,167.724z"/>
	<path style="fill:#4482C3;" d="M317.793,167.724v35.31h-17.655v-35.31c0-4.873,3.955-8.828,8.828-8.828   C313.838,158.897,317.793,162.851,317.793,167.724z"/>
	<path style="fill:#4482C3;" d="M353.103,167.724v35.31h-17.655v-35.31c0-4.873,3.955-8.828,8.828-8.828   S353.103,162.851,353.103,167.724z"/>
	<path style="fill:#4482C3;" d="M388.413,167.724v35.31h-17.655v-35.31c0-4.873,3.955-8.828,8.828-8.828   C384.458,158.897,388.413,162.851,388.413,167.724z"/>
	<path style="fill:#4482C3;" d="M423.724,167.724v35.31h-17.655v-35.31c0-4.873,3.955-8.828,8.828-8.828   S423.724,162.851,423.724,167.724z"/>
</g>
<g>
	<path style="fill:#285680;" d="M207.448,78.301c-22.069,12.623-32.839,39.371-37.252,54.113h-18.361   c4.061-15.537,16.419-52.083,46.786-69.473c4.237-2.436,9.657-0.971,12.094,3.266C213.15,70.444,211.685,75.864,207.448,78.301   L207.448,78.301z"/>
	<path style="fill:#285680;" d="M360.165,132.414h-18.361c-4.414-14.742-15.183-41.49-37.252-54.113   c-4.237-2.436-5.703-7.857-3.266-12.094c2.436-4.237,7.857-5.703,12.094-3.266l0,0C343.746,80.331,356.104,116.877,360.165,132.414   z"/>
	<path style="fill:#285680;" d="M247.172,70.621v61.793h-17.655V70.621c0-4.873,3.955-8.828,8.828-8.828   S247.172,65.748,247.172,70.621z"/>
	<path style="fill:#285680;" d="M282.482,70.621v61.793h-17.655V70.621c0-4.873,3.955-8.828,8.828-8.828   C278.527,61.793,282.482,65.748,282.482,70.621z"/>
</g>
<g>
	<path style="fill:#2C2F38;" d="M211.862,317.793c-2.33,0-4.564-0.918-6.215-2.56c-16.199-16.075-39.706-22.369-61.767-16.525   c-4.661,1.439-9.604-1.165-11.043-5.826c-1.43-4.626,1.13-9.534,5.729-11.017c28.319-7.777,58.642,0.159,79.51,20.824   c3.46,3.434,3.487,9.022,0.053,12.482C216.469,316.849,214.21,317.793,211.862,317.793z"/>
	<path style="fill:#2C2F38;" d="M176.719,326.621c-4.873,0.026-8.845-3.911-8.872-8.783c-0.026-4.873,3.911-8.845,8.783-8.872h0.088   c4.873,0,8.828,3.955,8.828,8.828C185.546,322.666,181.601,326.621,176.719,326.621z"/>
	<path style="fill:#2C2F38;" d="M300.137,317.793c-4.873,0-8.828-3.955-8.828-8.828c0-2.357,0.945-4.608,2.613-6.268   c20.86-20.674,51.191-28.619,79.51-20.824c4.643,1.474,7.221,6.435,5.738,11.087c-1.483,4.652-6.435,7.221-11.087,5.738   c-22.051-5.809-45.533,0.477-61.731,16.534C304.701,316.875,302.468,317.793,300.137,317.793z"/>
	<path style="fill:#2C2F38;" d="M335.615,326.621c-4.873,0.026-8.845-3.911-8.872-8.783c-0.026-4.873,3.911-8.845,8.783-8.872h0.088   c4.873,0,8.828,3.955,8.828,8.828C344.443,322.666,340.497,326.621,335.615,326.621z"/>
	<path style="fill:#2C2F38;" d="M341.689,391c-3.478-3.416-9.066-3.363-12.482,0.115c-3.372,3.434-3.372,8.934,0,12.367   c2.057,2.383,3.54,5.208,4.343,8.254c-6.488-2.657-13.127-4.943-19.88-6.85c-9.145-2.525-18.458-4.423-27.86-5.685   c-19.791-2.613-39.839-2.613-59.63,0c-9.401,1.262-18.706,3.16-27.851,5.685c-6.771,1.907-13.427,4.202-19.933,6.868   c0.83-3.09,2.357-5.941,4.467-8.342c3.407-3.487,3.337-9.075-0.15-12.482c-3.46-3.372-8.986-3.346-12.403,0.071   c-7.883,7.874-18.238,29.564-1.103,55.278c2.666,4.078,8.139,5.226,12.217,2.56c4.078-2.666,5.226-8.139,2.56-12.217   c-0.026-0.044-0.053-0.088-0.088-0.132c-1.377-2.057-2.586-4.228-3.593-6.488c7.38-3.24,14.98-5.941,22.749-8.095   c8.369-2.304,16.878-4.043,25.485-5.191c18.229-2.401,36.696-2.401,54.925,0c8.607,1.148,17.125,2.878,25.494,5.191   c7.759,2.145,15.36,4.846,22.731,8.086c-1.006,2.269-2.198,4.44-3.575,6.497c-2.728,4.034-1.668,9.525,2.366,12.262   c4.034,2.728,9.525,1.668,12.262-2.366c0.018-0.035,0.044-0.062,0.062-0.097C359.927,420.564,349.563,398.874,341.689,391z"/>
</g>
<g>
	<path style="fill:#F29C1F;" d="M282.473,468.083c-2.048,0-4.034-0.715-5.614-2.022c-12.429-9.066-29.299-9.066-41.728,0   c-3.761,3.107-9.331,2.569-12.429-1.192c-3.107-3.761-2.569-9.331,1.192-12.429l0,0c18.856-14.751,45.347-14.751,64.203,0   c3.761,3.107,4.29,8.669,1.183,12.429C287.611,466.909,285.104,468.083,282.473,468.083L282.473,468.083z"/>
	<path style="fill:#F29C1F;" d="M273.655,379.586h-35.31c-4.873,0-8.828-3.955-8.828-8.828c0-4.873,3.955-8.828,8.828-8.828h35.31   c4.873,0,8.828,3.955,8.828,8.828C282.482,375.631,278.527,379.586,273.655,379.586z"/>
</g>
<g>
</g>
<g>
</g>
<g>
</g>
<g>
</g>
<g>
</g>
<g>
</g>
<g>
</g>
<g>
</g>
<g>
</g>
<g>
</g>
<g>
</g>
<g>
</g>
<g>
</g>
<g>
</g>
<g>
</g>
</svg>
