<?xml version="1.0" encoding="iso-8859-1"?>
<!-- Generator: Adobe Illustrator 19.0.0, SVG Export Plug-In . SVG Version: 6.00 Build 0)  -->
<svg xmlns="http://www.w3.org/2000/svg" xmlns:xlink="http://www.w3.org/1999/xlink" version="1.1" id="Capa_1" x="0px" y="0px" viewBox="0 0 512 512" style="enable-background:new 0 0 512 512;" xml:space="preserve">
<path style="fill:#F0C419;" d="M146.98,72.916c-3.443,4.767-6.886,9.71-10.152,14.83c-2.737,4.237-5.473,8.563-8.121,13.065  l-0.088,0.088c-10.134,17.187-19.182,35.001-27.101,53.319c-4.502,10.328-8.651,20.833-12.447,31.338  c-1.412,3.619-2.648,7.327-3.884,10.946c-14.001,38.983-21.884,79.898-23.393,121.291C61.794,425.048,148.746,512,256.001,512  s194.207-86.952,194.207-194.207c-1.501-41.393-9.393-82.308-23.393-121.291c-1.236-3.531-2.472-7.15-3.796-10.681h-0.088  c-10.637-29.978-24.143-58.862-40.342-86.246c-5.111-8.519-10.478-16.772-16.084-24.638c-0.132-0.274-0.282-0.627-0.406-0.874  c0-0.088,0-0.088-0.088-0.177C334.672,30.367,296.89,0,256.195,0c-26.244,1.174-51.191,11.767-70.268,29.837  c-14.592,12.765-27.604,27.224-38.753,43.079H146.98z"/>
<path style="fill:#E57E25;" d="M431.14,152.629v-0.088l-7.768-35.046C408.1,48.825,347.181-0.018,276.834,0h-41.666  C164.821-0.018,103.902,48.825,88.63,117.495l-7.768,35.134c-28.601,20.039-45.55,45.197-45.55,72.474  c0,9.119,1.889,18.141,5.561,26.483c0.53,1.324,1.148,2.56,1.766,3.796c1.148-5.208,2.56-10.24,4.061-15.095  c9.181-14.204,21.239-26.324,35.399-35.575h0.088c16.128-10.849,33.607-19.544,51.994-25.865c8.157-3.037,16.463-5.658,24.894-7.857  c26.394-6.797,53.442-10.734,80.684-11.741c5.385-0.265,10.77-0.353,16.243-0.353c70.003,0,132.414,17.567,172.844,45.109  c8.678,26.147,14.919,53.036,18.626,80.331c10.143-9.101,18.211-20.268,23.658-32.75c3.672-8.342,5.561-17.364,5.561-26.483  C476.691,197.826,459.653,172.668,431.14,152.629z"/>
<g>
	<path style="fill:#D25627;" d="M404.649,150.069c-1.81,0-3.575-0.556-5.049-1.598c-9.013-6.223-18.52-11.705-28.416-16.402   c-15.069-7-30.746-12.623-46.83-16.817c-4.714-1.227-7.548-6.047-6.321-10.77c1.227-4.714,6.047-7.548,10.77-6.321   c0.026,0.009,0.062,0.018,0.088,0.026c17.126,4.467,33.819,10.47,49.876,17.938c10.778,5.111,21.133,11.087,30.95,17.876   c3.999,2.798,4.97,8.298,2.172,12.297C410.237,148.665,407.535,150.069,404.649,150.069z"/>
	<path style="fill:#D25627;" d="M471.129,251.586c-5.447,12.482-13.515,23.649-23.658,32.75   c-3.708-27.295-9.949-54.184-18.626-80.331C447.268,215.42,461.966,231.954,471.129,251.586z"/>
	<path style="fill:#D25627;" d="M107.353,140.535c-4.873,0.009-8.828-3.946-8.836-8.819c0-2.86,1.377-5.544,3.708-7.203   c9.507-6.691,19.571-12.562,30.076-17.54c16.322-7.698,33.333-13.859,50.803-18.406c4.705-1.28,9.551,1.501,10.831,6.197   s-1.501,9.551-6.197,10.831c-0.026,0.009-0.062,0.018-0.088,0.026c-16.402,4.264-32.38,10.046-47.713,17.267   c-9.596,4.546-18.785,9.896-27.471,16.004C110.973,139.97,109.181,140.535,107.353,140.535z"/>
</g>
<path style="fill:#F0C419;" d="M291.311,79.448h-10.452c-0.3-0.856-0.644-1.695-1.024-2.516l7.38-7.38  c3.443-3.443,3.443-9.039,0-12.482c-3.443-3.443-9.039-3.443-12.482,0l0,0l-7.38,7.38c-0.83-0.388-1.668-0.733-2.525-1.033V52.966  c0-4.873-3.955-8.828-8.828-8.828s-8.828,3.955-8.828,8.828v10.452c-0.856,0.3-1.695,0.644-2.516,1.024l-7.38-7.38  c-3.443-3.443-9.039-3.443-12.482,0c-3.443,3.443-3.443,9.039,0,12.482l0,0l7.38,7.38c-0.388,0.83-0.733,1.668-1.033,2.525h-10.452  c-4.873,0-8.828,3.955-8.828,8.828c0,4.873,3.955,8.828,8.828,8.828h10.452c0.3,0.856,0.644,1.695,1.024,2.516l-7.38,7.38  c-3.443,3.443-3.443,9.039,0,12.482s9.039,3.443,12.482,0l7.38-7.38c0.821,0.388,1.66,0.724,2.516,1.024v10.461  c0,4.873,3.955,8.828,8.828,8.828c4.873,0,8.828-3.955,8.828-8.828v-10.452c0.856-0.3,1.695-0.644,2.516-1.024l7.38,7.38  c3.443,3.443,9.039,3.443,12.482,0c3.443-3.443,3.443-9.039,0-12.482l0,0l-7.38-7.38c0.388-0.821,0.733-1.66,1.024-2.516h10.47  c4.873,0,8.828-3.955,8.828-8.828C300.139,83.412,296.184,79.448,291.311,79.448z M247.173,88.276c0-4.873,3.955-8.828,8.828-8.828  s8.828,3.955,8.828,8.828c0,4.873-3.955,8.828-8.828,8.828C251.128,97.095,247.182,93.149,247.173,88.276z"/>
<g>
	<path style="fill:#DF4D60;" d="M361.932,441.379c-2.339-0.035-4.573-0.945-6.268-2.56c-0.38-0.424-0.733-0.865-1.059-1.324   c-0.335-0.494-0.6-1.024-0.794-1.589c-0.256-0.503-0.433-1.033-0.538-1.589c-0.141-0.583-0.194-1.174-0.168-1.766   c0-4.873,3.955-8.828,8.828-8.828s8.828,3.955,8.828,8.828c-0.018,0.591-0.071,1.183-0.185,1.766   c-0.088,0.556-0.274,1.095-0.53,1.589c-0.194,0.565-0.459,1.095-0.794,1.589c-0.353,0.441-0.706,0.883-1.059,1.324   C366.505,440.426,364.271,441.344,361.932,441.379z"/>
	<path style="fill:#DF4D60;" d="M379.587,423.724c-2.339-0.035-4.573-0.945-6.268-2.56c-0.794-0.847-1.43-1.836-1.854-2.913   c-0.945-2.136-0.945-4.573,0-6.709c1.501-3.946,5.667-6.197,9.79-5.297c0.583,0.079,1.156,0.256,1.677,0.53   c0.565,0.194,1.095,0.459,1.589,0.794c0.441,0.353,0.892,0.706,1.324,1.059c0.777,0.856,1.404,1.845,1.854,2.913   c0.945,2.136,0.945,4.573,0,6.709c-0.45,1.068-1.077,2.057-1.854,2.913c-0.441,0.353-0.892,0.706-1.324,1.059   c-0.494,0.335-1.024,0.6-1.589,0.794c-0.53,0.265-1.095,0.441-1.677,0.53C380.708,423.645,380.152,423.706,379.587,423.724z"/>
	<path style="fill:#DF4D60;" d="M150.07,441.379c-4.829,0.044-8.783-3.831-8.828-8.66c0-0.053,0-0.115,0-0.168   c0.018-1.156,0.256-2.295,0.706-3.354c0.45-1.068,1.077-2.048,1.854-2.913c2.083-2.066,5.058-2.966,7.936-2.383   c0.583,0.079,1.156,0.256,1.677,0.53c0.565,0.194,1.095,0.459,1.589,0.794c0.468,0.327,0.909,0.68,1.324,1.059   c3.416,3.478,3.416,9.057,0,12.535c-0.424,0.38-0.865,0.733-1.324,1.059c-0.494,0.335-1.024,0.6-1.589,0.794   c-0.53,0.265-1.095,0.441-1.677,0.53C151.191,441.3,150.635,441.362,150.07,441.379z"/>
	<path style="fill:#DF4D60;" d="M132.415,423.724c-0.591-0.018-1.183-0.079-1.766-0.177c-0.556-0.097-1.086-0.274-1.589-0.53   c-0.565-0.194-1.103-0.459-1.598-0.794c-0.441-0.353-0.883-0.706-1.315-1.059c-3.416-3.478-3.416-9.057,0-12.535   c2.083-2.066,5.058-2.966,7.936-2.383c0.583,0.079,1.156,0.256,1.677,0.53c0.565,0.194,1.095,0.459,1.589,0.794   c0.441,0.353,0.892,0.706,1.324,1.059c3.416,3.478,3.416,9.057,0,12.535c-0.441,0.353-0.892,0.706-1.324,1.059   c-0.494,0.335-1.024,0.6-1.589,0.794c-0.53,0.265-1.095,0.441-1.677,0.53C133.536,423.654,132.98,423.706,132.415,423.724z"/>
</g>
<path style="fill:#2C2F38;" d="M317.123,417.73c-0.83,1.942-1.695,3.831-2.692,5.667c-0.168,0.318-0.371,0.627-0.538,0.892  c-5.782,10.478-14.283,19.2-24.62,25.247c-0.706,0.424-1.404,0.839-2.11,1.209c-20.056,11.476-44.8,11.008-64.415-1.209  c-0.177-0.088-0.344-0.194-0.494-0.318c-4.864-2.887-9.34-6.382-13.321-10.39c-4.705-4.758-8.66-10.205-11.705-16.163  c-0.874-1.598-1.66-3.249-2.357-4.935c-1.81-4.211,0.132-9.092,4.352-10.902c2.083-0.9,4.449-0.9,6.532-0.009  c32.079,13.789,68.414,13.789,100.493,0c4.211-1.801,9.084,0.15,10.893,4.361C318.032,413.272,318.024,415.638,317.123,417.73z"/>
<g>
	<path style="fill:#9BC8C2;" d="M164.812,238.345c-16.093,0.733-32.035,3.399-47.492,7.945   c-20.48,5.473-40.607,12.447-52.701,17.037c-7.239,2.648-11.652,4.414-11.652,4.414c0.653,7.989,2.013,15.907,4.061,23.658   c0.706,2.913,1.501,5.914,2.56,9.181v0.177c10.593,32.927,37.429,78.83,105.225,78.83c35.628,0.009,65.686-26.527,70.091-61.881   c0.353-2.895,0.53-5.817,0.53-8.739c0.009-38.991-31.594-70.612-70.585-70.621C164.838,238.345,164.83,238.345,164.812,238.345z"/>
	<path style="fill:#9BC8C2;" d="M441.557,263.327c-12.094-4.59-32.221-11.564-52.701-17.037c-15.457-4.546-31.4-7.212-47.492-7.945   c-38.991-0.009-70.612,31.594-70.621,70.585c0,0.009,0,0.026,0,0.035c0,2.922,0.177,5.844,0.53,8.739   c4.405,35.354,34.463,61.89,70.091,61.881c67.972,0,94.72-45.992,105.225-79.007c1.059-3.266,1.854-6.268,2.56-9.181   c2.048-7.751,3.407-15.669,4.061-23.658C453.209,267.741,448.795,265.975,441.557,263.327z"/>
</g>
<path style="fill:#894B9D;" d="M270.743,326.621h-35.31c-4.873,0-8.828-3.955-8.828-8.828c0-4.873,3.955-8.828,8.828-8.828h35.31  c4.873,0,8.828,3.955,8.828,8.828C279.571,322.666,275.616,326.621,270.743,326.621z"/>
<path style="fill:#D1D4D1;" d="M166.569,301.25c-1.183,3.937-1.774,8.024-1.757,12.129c0,14.336,6.268,22.069,8.828,22.069  c2.56,0,8.828-7.733,8.828-22.069c0-0.468,0-0.927-0.018-1.386C177.718,307.641,172.368,304.022,166.569,301.25z"/>
<path style="fill:#2980BA;" d="M306.053,313.379c0-2.127,0.106-4.255,0.318-6.374c0.212-2.083,1.156-4.025,2.675-5.473  c9.101-9.295,20.427-16.119,32.909-19.827c3.663-0.962,7.539,0.521,9.613,3.69c5.111,8.422,7.698,18.132,7.459,27.975  c0,22.643-11.388,39.724-26.483,39.724C317.45,353.095,306.053,336.022,306.053,313.379z"/>
<path style="fill:#D1D4D1;" d="M323.726,311.993c-0.009,0.459-0.018,0.918-0.018,1.386c0,14.336,6.268,22.069,8.828,22.069  s8.828-7.733,8.828-22.069c0.018-4.105-0.574-8.192-1.757-12.129C333.807,304.022,328.458,307.641,323.726,311.993z"/>
<path style="fill:#2C2F38;" d="M299.274,312.143c2.86-3.425,5.914-6.762,9.631-10.478c0.035-0.044,0.097-0.053,0.132-0.088l0,0  c9.022-9.181,20.206-15.951,32.53-19.686c0.115-0.035,0.194-0.124,0.309-0.15c17.611-4.793,36.449-0.194,49.867,12.164  c3.478,3.416,3.531,9.004,0.115,12.482c-3.416,3.478-9.004,3.531-12.482,0.115c-0.035-0.035-0.079-0.079-0.115-0.115  c-8.907-7.883-21.186-10.752-32.671-7.627c-0.062,0.018-0.106,0.062-0.159,0.079c-9.56,2.957-18.22,8.289-25.176,15.492  l-0.097,0.062c-3.213,3.231-5.879,6.126-8.324,9.057c-3.134,3.734-8.704,4.228-12.438,1.095  C296.678,321.421,296.175,315.878,299.274,312.143L299.274,312.143z"/>
<path style="fill:#894B9D;" d="M136.829,271.272v0.088c-0.353,0.53-0.618,1.059-0.971,1.589l-12.623,21.804  c-18.511,29.396-29.625,62.835-32.397,97.457c-0.883,8.474-1.324,17.126-1.412,25.953v2.119  c-0.053,16.852,1.518,33.677,4.679,50.229c-33.015-25.159-56.497-79.272-58.527-142.919c-0.177-3.178-0.265-6.444-0.265-9.71  c-0.079-21.054,2.383-42.037,7.327-62.499c1.148-5.208,2.56-10.24,4.061-15.095c9.181-14.204,21.239-26.324,35.399-35.575h0.088  c16.128-10.849,33.607-19.544,51.994-25.865c-1.818,12.809-2.737,25.732-2.737,38.665c0,3.266,0.088,6.532,0.265,9.71  C132.203,242.017,133.915,256.75,136.829,271.272z"/>
<path style="fill:#CC66A1;" d="M239.758,159.25c-2.295,4.061-4.855,8.474-7.768,13.33l-12.623,21.804  c-18.511,29.396-29.625,62.835-32.397,97.457c-0.883,8.474-1.324,17.214-1.412,26.041v2.03c-0.053,16.852,1.518,33.677,4.679,50.229  c-25.07-19.068-44.579-54.819-53.407-98.781v-0.088c-2.913-14.521-4.626-29.255-5.12-44.05c-0.177-3.178-0.265-6.444-0.265-9.71  c0-12.932,0.918-25.856,2.737-38.665c8.157-3.037,16.463-5.658,24.894-7.857C185.469,164.193,212.525,160.256,239.758,159.25z"/>
<g>
</g>
<g>
</g>
<g>
</g>
<g>
</g>
<g>
</g>
<g>
</g>
<g>
</g>
<g>
</g>
<g>
</g>
<g>
</g>
<g>
</g>
<g>
</g>
<g>
</g>
<g>
</g>
<g>
</g>
</svg>
