<?xml version="1.0" encoding="iso-8859-1"?>
<!-- Generator: Adobe Illustrator 19.0.0, SVG Export Plug-In . SVG Version: 6.00 Build 0)  -->
<svg xmlns="http://www.w3.org/2000/svg" xmlns:xlink="http://www.w3.org/1999/xlink" version="1.1" id="Capa_1" x="0px" y="0px" viewBox="0 0 512.005 512.005" style="enable-background:new 0 0 512.005 512.005;" xml:space="preserve">
<path style="fill:#F0C419;" d="M426.814,196.499c-1.236-3.531-2.472-7.15-3.796-10.681h-0.088  c-10.637-29.978-24.143-58.861-40.341-86.244c-5.12-8.563-10.505-16.772-16.066-24.629c-0.177-0.265-0.265-0.618-0.441-0.883  c0-0.088,0-0.088-0.088-0.177C334.656,30.366,296.874,0,256.18,0c-26.244,1.174-51.19,11.767-70.266,29.837  c-14.592,12.764-27.603,27.224-38.752,43.078h-0.177c-3.443,4.767-6.885,9.71-10.152,14.83c-2.737,4.237-5.473,8.563-8.121,13.065  l-0.088,0.088c-10.134,17.187-19.182,35.001-27.1,53.318c-4.502,10.328-8.651,20.833-12.447,31.337  c-1.412,3.619-2.648,7.327-3.884,10.946c-14,38.982-21.892,79.897-23.393,121.289c-0.053,34.092,8.898,67.583,25.953,97.102  c3.531,6.091,7.397,11.979,11.564,17.655c63.399,86.535,184.935,105.294,271.47,41.904c16.031-11.741,30.155-25.873,41.904-41.904  c4.167-5.676,8.033-11.564,11.564-17.655c17.055-29.519,26.006-63.01,25.953-97.102  C448.697,276.396,440.814,235.481,426.814,196.499z"/>
<path style="fill:#E57E25;" d="M431.139,152.626v-0.088l-7.768-35.045C408.1,48.825,347.182-0.018,276.836,0H235.17  C164.825-0.018,103.907,48.825,88.635,117.493l-7.768,35.133c-28.601,20.038-45.55,45.196-45.55,72.473  c0,9.119,1.889,18.14,5.561,26.482c0.53,1.324,1.148,2.56,1.765,3.796c1.148-5.208,2.56-10.24,4.061-15.095  c9.181-14.203,21.239-26.323,35.398-35.575h0.088c16.128-10.849,33.606-19.544,51.994-25.864c8.157-3.037,16.463-5.658,24.893-7.856  c26.394-6.797,53.441-10.734,80.683-11.74c5.385-0.265,10.769-0.353,16.242-0.353c70.002,0,132.411,17.567,172.841,45.108  c8.677,26.147,14.918,53.035,18.626,80.33c10.143-9.101,18.211-20.268,23.658-32.75c3.672-8.342,5.561-17.364,5.561-26.482  C476.689,197.823,459.652,172.665,431.139,152.626z"/>
<g>
	<path style="fill:#D25627;" d="M404.648,150.066c-1.81,0-3.575-0.556-5.049-1.598c-9.013-6.223-18.52-11.705-28.416-16.401   c-15.068-7-30.746-12.623-46.83-16.816c-4.714-1.227-7.547-6.047-6.32-10.769c1.227-4.714,6.047-7.547,10.769-6.32   c0.026,0.009,0.062,0.018,0.088,0.026c17.125,4.467,33.818,10.469,49.875,17.937c10.778,5.111,21.133,11.087,30.949,17.876   c3.999,2.798,4.97,8.298,2.172,12.297C410.236,148.663,407.535,150.066,404.648,150.066z"/>
	<path style="fill:#D25627;" d="M471.128,251.582c-5.447,12.482-13.515,23.649-23.658,32.75   c-3.708-27.294-9.949-54.183-18.626-80.33C447.267,215.416,461.956,231.95,471.128,251.582z"/>
</g>
<path style="fill:#894B9D;" d="M136.833,271.267v0.088c-0.353,0.53-0.618,1.059-0.971,1.589l-12.623,21.804  c-18.511,29.395-29.625,62.834-32.397,97.455c-0.883,8.474-1.324,17.125-1.412,25.953v2.119  c-0.053,16.852,1.518,33.677,4.679,50.228c-33.015-25.158-56.496-79.27-58.526-142.916c-0.177-3.178-0.265-6.444-0.265-9.71  c-0.079-21.053,2.383-42.036,7.327-62.498c1.148-5.208,2.56-10.24,4.061-15.095c9.181-14.203,21.239-26.323,35.398-35.575h0.088  c16.128-10.849,33.606-19.544,51.994-25.864c-1.818,12.809-2.737,25.732-2.737,38.664c0,3.266,0.088,6.532,0.265,9.71  C132.198,242.013,133.911,256.746,136.833,271.267z"/>
<path style="fill:#D25627;" d="M107.358,140.533c-4.873,0.009-8.827-3.946-8.836-8.819c0-2.86,1.377-5.544,3.708-7.203  c9.507-6.691,19.57-12.561,30.075-17.54c16.322-7.698,33.332-13.859,50.802-18.405c4.705-1.28,9.551,1.501,10.831,6.197  c1.28,4.696-1.501,9.551-6.197,10.831c-0.026,0.009-0.062,0.018-0.088,0.026c-16.401,4.264-32.379,10.046-47.712,17.266  c-9.595,4.546-18.785,9.896-27.471,16.004C110.968,139.968,109.185,140.533,107.358,140.533z"/>
<path style="fill:#CC66A1;" d="M239.761,159.247c-2.295,4.061-4.855,8.474-7.768,13.329l-12.623,21.804  c-18.511,29.395-29.625,62.834-32.397,97.455c-0.883,8.474-1.324,17.214-1.412,26.041v2.03c-0.053,16.852,1.518,33.677,4.679,50.228  c-25.07-19.067-44.579-54.818-53.406-98.779v-0.088c-2.913-14.521-4.626-29.254-5.12-44.049c-0.177-3.178-0.265-6.444-0.265-9.71  c0-12.932,0.918-25.856,2.737-38.664c8.157-3.037,16.463-5.658,24.893-7.856C185.472,164.19,212.519,160.253,239.761,159.247z"/>
<path style="fill:#F0C419;" d="M291.313,79.447h-10.452c-0.3-0.856-0.644-1.695-1.024-2.516l7.38-7.38  c3.443-3.443,3.443-9.039,0-12.482s-9.039-3.443-12.482,0l0,0l-7.38,7.38c-0.821-0.388-1.66-0.724-2.516-1.024V52.965  c0-4.873-3.955-8.827-8.827-8.827s-8.827,3.955-8.827,8.827v10.452c-0.856,0.3-1.695,0.644-2.516,1.024l-7.389-7.38  c-3.443-3.443-9.039-3.443-12.482,0c-3.443,3.443-3.443,9.039,0,12.482l0,0l7.38,7.38c-0.388,0.83-0.733,1.668-1.033,2.525h-10.452  c-4.873,0-8.827,3.955-8.827,8.827c0,4.873,3.955,8.827,8.827,8.827h10.452c0.3,0.856,0.644,1.695,1.024,2.516l-7.38,7.38  c-3.443,3.443-3.443,9.039,0,12.482c3.443,3.443,9.039,3.443,12.482,0l7.38-7.38c0.821,0.388,1.66,0.724,2.516,1.024v10.461  c0,4.873,3.955,8.827,8.827,8.827s8.827-3.955,8.827-8.827v-10.452c0.856-0.3,1.695-0.644,2.516-1.024l7.38,7.38  c3.443,3.443,9.039,3.443,12.482,0c3.443-3.443,3.443-9.039,0-12.482l0,0l-7.371-7.389c0.388-0.821,0.733-1.66,1.024-2.516h10.452  c4.873,0,8.827-3.955,8.827-8.827C300.132,83.402,296.186,79.447,291.313,79.447z M247.176,88.274c0-4.873,3.955-8.827,8.827-8.827  s8.827,3.955,8.827,8.827c0,4.873-3.955,8.827-8.827,8.827C251.13,97.093,247.176,93.147,247.176,88.274z"/>
<path style="fill:#2980BA;" d="M328.088,332.856c-9.11-5.72-19.111-9.878-29.598-12.279c-3.646-0.847-6.356-3.902-6.771-7.618  c-0.291-2.789-0.433-5.588-0.406-8.395c0-24.125,9.092-48.551,26.482-48.551c17.39,0,26.482,24.426,26.482,48.551  c0.053,7.83-0.945,15.642-2.975,23.207c-1.306,4.696-6.179,7.433-10.867,6.126C329.606,333.668,328.812,333.315,328.088,332.856z"/>
<path style="fill:#FFFFFF;" d="M308.968,304.564v0.521c5.95,1.739,11.741,3.964,17.328,6.638c0.212-2.348,0.327-4.758,0.327-7.159  c0-19.367-6.532-30.11-8.633-30.914C315.5,274.454,308.968,285.197,308.968,304.564z"/>
<g>
	<path style="fill:#2C2F38;" d="M361.941,361.925c4.873-0.009,8.819-3.964,8.81-8.845c0-1.589-0.433-3.143-1.245-4.502   c-8.307-12.438-19.244-22.898-32.017-30.667c-10.769-6.771-22.589-11.688-34.983-14.53c-9.472-2.163-19.147-3.249-28.848-3.231   c-4.873,0-8.827,3.955-8.827,8.827c0,4.873,3.955,8.827,8.827,8.827c8.36-0.018,16.701,0.918,24.849,2.772   c10.478,2.401,20.471,6.55,29.572,12.279c10.408,6.338,19.367,14.795,26.288,24.823   C355.983,360.318,358.852,361.925,361.941,361.925z"/>
	<path style="fill:#2C2F38;" d="M361.941,450.19c-2.684,0.009-5.226-1.209-6.903-3.31l-21.521-26.906   c-3.257-3.805-8.986-4.246-12.791-0.989c-0.353,0.3-0.68,0.636-0.989,0.989l-7.75,9.675c-9.136,11.414-25.803,13.259-37.225,4.122   c-1.518-1.218-2.904-2.604-4.122-4.122l-7.742-9.675c-3.266-3.805-8.995-4.246-12.809-0.98c-0.353,0.3-0.68,0.627-0.98,0.98   l-7.75,9.675c-9.136,11.414-25.803,13.259-37.225,4.122c-1.518-1.218-2.904-2.604-4.122-4.122l-7.742-9.675   c-3.266-3.805-8.995-4.246-12.809-0.98c-0.353,0.3-0.68,0.627-0.98,0.98l-21.521,26.906c-3.054,3.805-8.616,4.414-12.42,1.359   c-3.796-3.045-4.405-8.589-1.377-12.394l21.521-26.906c9.136-11.423,25.803-13.276,37.225-4.14c1.527,1.218,2.913,2.613,4.14,4.14   l7.733,9.675c3.293,3.805,9.048,4.228,12.853,0.936c0.335-0.291,0.644-0.6,0.936-0.936l7.742-9.675   c9.136-11.423,25.794-13.276,37.216-4.14c1.527,1.227,2.922,2.613,4.14,4.14l7.733,9.675c3.293,3.805,9.048,4.228,12.853,0.936   c0.335-0.291,0.644-0.6,0.936-0.936l7.742-9.675c9.136-11.423,25.794-13.276,37.216-4.14c1.527,1.227,2.922,2.613,4.14,4.14   l21.521,26.906c3.045,3.805,2.436,9.357-1.368,12.411C365.896,449.511,363.945,450.19,361.941,450.19z"/>
</g>
<g>
</g>
<g>
</g>
<g>
</g>
<g>
</g>
<g>
</g>
<g>
</g>
<g>
</g>
<g>
</g>
<g>
</g>
<g>
</g>
<g>
</g>
<g>
</g>
<g>
</g>
<g>
</g>
<g>
</g>
</svg>
