<?xml version="1.0" encoding="iso-8859-1"?>
<!-- Generator: Adobe Illustrator 19.0.0, SVG Export Plug-In . SVG Version: 6.00 Build 0)  -->
<svg xmlns="http://www.w3.org/2000/svg" xmlns:xlink="http://www.w3.org/1999/xlink" version="1.1" id="Capa_1" x="0px" y="0px" viewBox="0 0 512.005 512.005" style="enable-background:new 0 0 512.005 512.005;" xml:space="preserve">
<path style="fill:#F0C419;" d="M426.814,196.499c-1.236-3.531-2.472-7.15-3.796-10.681h-0.088  c-10.637-29.978-24.143-58.861-40.341-86.244c-5.12-8.563-10.505-16.772-16.066-24.629c-0.177-0.265-0.265-0.618-0.441-0.883  c0-0.088,0-0.088-0.088-0.177C334.656,30.366,296.874,0,256.18,0c-26.244,1.174-51.19,11.767-70.266,29.837  c-14.592,12.764-27.603,27.224-38.752,43.078h-0.177c-3.443,4.767-6.885,9.71-10.152,14.83c-2.737,4.237-5.473,8.563-8.121,13.065  l-0.088,0.088c-10.134,17.187-19.182,35.001-27.1,53.318c-4.502,10.328-8.651,20.833-12.447,31.337  c-1.412,3.619-2.648,7.327-3.884,10.946c-14,38.982-21.892,79.897-23.393,121.289c-0.053,34.092,8.898,67.583,25.953,97.102  c3.531,6.091,7.397,11.979,11.564,17.655c63.399,86.535,184.935,105.294,271.47,41.904c16.031-11.741,30.155-25.873,41.904-41.904  c4.167-5.676,8.033-11.564,11.564-17.655c17.055-29.519,26.006-63.01,25.953-97.102  C448.697,276.396,440.814,235.481,426.814,196.499z"/>
<path style="fill:#E57E25;" d="M431.139,152.626v-0.088l-7.768-35.045C408.1,48.825,347.182-0.018,276.836,0H235.17  C164.825-0.018,103.907,48.825,88.635,117.493l-7.768,35.133c-28.601,20.038-45.55,45.196-45.55,72.473  c0,9.119,1.889,18.14,5.561,26.482c0.53,1.324,1.148,2.56,1.765,3.796c1.148-5.208,2.56-10.24,4.061-15.095  c9.181-14.203,21.239-26.323,35.398-35.575h0.088c16.128-10.849,33.606-19.544,51.994-25.864c8.157-3.037,16.463-5.658,24.893-7.856  c26.394-6.797,53.441-10.734,80.683-11.74c5.385-0.265,10.769-0.353,16.242-0.353c70.002,0,132.411,17.567,172.841,45.108  c8.677,26.147,14.918,53.035,18.626,80.33c10.143-9.101,18.211-20.268,23.658-32.75c3.672-8.342,5.561-17.364,5.561-26.482  C476.689,197.823,459.652,172.665,431.139,152.626z"/>
<g>
	<path style="fill:#D25627;" d="M404.648,150.066c-1.81,0-3.575-0.556-5.049-1.598c-9.013-6.223-18.52-11.705-28.416-16.401   c-15.068-7-30.746-12.623-46.83-16.816c-4.714-1.227-7.547-6.047-6.32-10.769c1.227-4.714,6.047-7.547,10.769-6.32   c0.026,0.009,0.062,0.018,0.088,0.026c17.125,4.467,33.818,10.469,49.875,17.937c10.778,5.111,21.133,11.087,30.949,17.876   c3.999,2.798,4.97,8.298,2.172,12.297C410.236,148.663,407.535,150.066,404.648,150.066z"/>
	<path style="fill:#D25627;" d="M471.128,251.582c-5.447,12.482-13.515,23.649-23.658,32.75   c-3.708-27.294-9.949-54.183-18.626-80.33C447.267,215.416,461.956,231.95,471.128,251.582z"/>
</g>
<path style="fill:#894B9D;" d="M136.833,271.267v0.088c-0.353,0.53-0.618,1.059-0.971,1.589l-12.623,21.804  c-18.511,29.395-29.625,62.834-32.397,97.455c-0.883,8.474-1.324,17.125-1.412,25.953v2.119  c-0.053,16.852,1.518,33.677,4.679,50.228c-33.015-25.158-56.496-79.27-58.526-142.916c-0.177-3.178-0.265-6.444-0.265-9.71  c-0.079-21.053,2.383-42.036,7.327-62.498c1.148-5.208,2.56-10.24,4.061-15.095c9.181-14.203,21.239-26.323,35.398-35.575h0.088  c16.128-10.849,33.606-19.544,51.994-25.864c-1.818,12.809-2.737,25.732-2.737,38.664c0,3.266,0.088,6.532,0.265,9.71  C132.198,242.013,133.911,256.746,136.833,271.267z"/>
<path style="fill:#D25627;" d="M107.358,140.533c-4.873,0.009-8.827-3.946-8.836-8.819c0-2.86,1.377-5.544,3.708-7.203  c9.507-6.691,19.57-12.561,30.075-17.54c16.322-7.698,33.332-13.859,50.802-18.405c4.705-1.28,9.551,1.501,10.831,6.197  c1.28,4.696-1.501,9.551-6.197,10.831c-0.026,0.009-0.062,0.018-0.088,0.026c-16.401,4.264-32.379,10.046-47.712,17.266  c-9.595,4.546-18.785,9.896-27.471,16.004C110.968,139.968,109.185,140.533,107.358,140.533z"/>
<path style="fill:#CC66A1;" d="M239.761,159.247c-2.295,4.061-4.855,8.474-7.768,13.329l-12.623,21.804  c-18.511,29.395-29.625,62.834-32.397,97.455c-0.883,8.474-1.324,17.214-1.412,26.041v2.03c-0.053,16.852,1.518,33.677,4.679,50.228  c-25.07-19.067-44.579-54.818-53.406-98.779v-0.088c-2.913-14.521-4.626-29.254-5.12-44.049c-0.177-3.178-0.265-6.444-0.265-9.71  c0-12.932,0.918-25.856,2.737-38.664c8.157-3.037,16.463-5.658,24.893-7.856C185.472,164.19,212.519,160.253,239.761,159.247z"/>
<g>
	<path style="fill:#DF4D60;" d="M388.415,344.27c-0.591-0.018-1.183-0.079-1.765-0.177c-0.556-0.097-1.086-0.274-1.589-0.53   c-0.565-0.194-1.103-0.459-1.598-0.794c-0.459-0.327-0.9-0.68-1.315-1.059c-3.416-3.478-3.416-9.057,0-12.535l1.315-1.059   c0.494-0.335,1.033-0.6,1.598-0.794c0.503-0.256,1.033-0.433,1.589-0.53c1.165-0.221,2.366-0.221,3.531,0   c0.556,0.097,1.086,0.274,1.589,0.53c0.565,0.194,1.095,0.459,1.589,0.794c0.441,0.353,0.892,0.706,1.324,1.059   c3.416,3.478,3.416,9.057,0,12.535c-0.424,0.38-0.865,0.733-1.324,1.059c-0.494,0.335-1.024,0.6-1.589,0.794   c-0.503,0.256-1.033,0.433-1.589,0.53C389.598,344.191,389.006,344.252,388.415,344.27z"/>
	<path style="fill:#DF4D60;" d="M406.07,361.925c-2.339-0.035-4.573-0.945-6.267-2.56c-0.777-0.856-1.404-1.845-1.854-2.913   c-0.494-1.05-0.742-2.198-0.706-3.354c0-4.873,3.955-8.827,8.827-8.827c4.873,0,8.827,3.955,8.827,8.827   c-0.018,1.156-0.256,2.295-0.706,3.354c-0.45,1.068-1.077,2.057-1.854,2.913c-0.441,0.353-0.892,0.706-1.324,1.059   c-0.494,0.335-1.024,0.6-1.589,0.794c-0.503,0.256-1.033,0.433-1.589,0.53C407.252,361.845,406.661,361.907,406.07,361.925z"/>
	<path style="fill:#DF4D60;" d="M370.76,361.925c-4.899-0.018-8.845-3.999-8.827-8.898c0.009-2.322,0.927-4.546,2.56-6.197   c2.083-2.066,5.058-2.966,7.936-2.383c0.583,0.079,1.156,0.256,1.677,0.53c0.538,0.177,1.05,0.45,1.501,0.794   c0.503,0.3,0.98,0.662,1.412,1.059c3.416,3.478,3.416,9.057,0,12.535c-0.433,0.397-0.909,0.75-1.412,1.059   c-0.45,0.353-0.953,0.618-1.501,0.794c-0.53,0.265-1.095,0.441-1.677,0.53C371.881,361.845,371.316,361.907,370.76,361.925z"/>
</g>
<path style="fill:#F0C419;" d="M291.313,79.447h-10.452c-0.3-0.856-0.644-1.695-1.024-2.516l7.38-7.38  c3.443-3.443,3.443-9.039,0-12.482s-9.039-3.443-12.482,0l0,0l-7.38,7.38c-0.821-0.388-1.66-0.724-2.516-1.024V52.965  c0-4.873-3.955-8.827-8.827-8.827s-8.827,3.955-8.827,8.827v10.452c-0.856,0.3-1.695,0.644-2.516,1.024l-7.389-7.38  c-3.443-3.443-9.039-3.443-12.482,0c-3.443,3.443-3.443,9.039,0,12.482l0,0l7.38,7.38c-0.388,0.83-0.733,1.668-1.033,2.525h-10.452  c-4.873,0-8.827,3.955-8.827,8.827c0,4.873,3.955,8.827,8.827,8.827h10.452c0.3,0.856,0.644,1.695,1.024,2.516l-7.38,7.38  c-3.443,3.443-3.443,9.039,0,12.482c3.443,3.443,9.039,3.443,12.482,0l7.38-7.38c0.821,0.388,1.66,0.724,2.516,1.024v10.461  c0,4.873,3.955,8.827,8.827,8.827s8.827-3.955,8.827-8.827v-10.452c0.856-0.3,1.695-0.644,2.516-1.024l7.38,7.38  c3.443,3.443,9.039,3.443,12.482,0c3.443-3.443,3.443-9.039,0-12.482l0,0l-7.371-7.389c0.388-0.821,0.733-1.66,1.024-2.516h10.452  c4.873,0,8.827-3.955,8.827-8.827C300.132,83.402,296.186,79.447,291.313,79.447z M247.176,88.274c0-4.873,3.955-8.827,8.827-8.827  s8.827,3.955,8.827,8.827c0,4.873-3.955,8.827-8.827,8.827C251.13,97.093,247.176,93.147,247.176,88.274z"/>
<g>
	<path style="fill:#2C2F38;" d="M367.149,306.065c-3.407,0-6.515-1.96-7.971-5.032c-0.609-1.245-14.265-28.539-55.127-27.33   c-4.873,0.159-8.951-3.663-9.11-8.536c-0.159-4.873,3.663-8.951,8.536-9.11c52.673-1.704,70.92,35.848,71.67,37.446   c2.066,4.414,0.159,9.666-4.255,11.741C369.718,305.782,368.438,306.065,367.149,306.065L367.149,306.065z"/>
	<path style="fill:#2C2F38;" d="M314.45,344.279c-11.334-0.627-21.927-5.808-29.387-14.362c-3.425-3.469-3.39-9.057,0.079-12.482   c3.434-3.39,8.96-3.39,12.403,0c4.414,5.552,11.034,8.889,18.123,9.136c5.023-0.9,9.49-3.707,12.473-7.848   c2.754-4.017,8.254-5.04,12.27-2.286c3.972,2.719,5.023,8.121,2.375,12.138c-5.861,8.501-15.033,14.142-25.264,15.554   C316.506,344.226,315.482,344.279,314.45,344.279z"/>
	<path style="fill:#2C2F38;" d="M424.254,414.889c-3.531,6.091-7.397,11.979-11.564,17.655h-59.585v17.655   c0,4.873-3.955,8.827-8.827,8.827c-4.873,0-8.827-3.955-8.827-8.827v-17.655h-17.655v17.655c0,4.873-3.955,8.827-8.827,8.827   c-4.873,0-8.827-3.955-8.827-8.827v-17.655h-17.655v17.655c0,4.873-3.955,8.827-8.827,8.827s-8.827-3.955-8.827-8.827v-17.655   h-17.655v17.655c0,4.873-3.955,8.827-8.827,8.827s-8.827-3.955-8.827-8.827v-17.655h-17.655v17.655   c0,4.873-3.955,8.827-8.827,8.827s-8.827-3.955-8.827-8.827v-17.655h-17.655v17.655c0,4.873-3.955,8.827-8.827,8.827   s-8.827-3.955-8.827-8.827v-17.655H99.316c-4.167-5.676-8.033-11.564-11.564-17.655h18.185v-17.655   c0-4.873,3.955-8.827,8.827-8.827c4.873,0,8.827,3.955,8.827,8.827v17.655h17.655v-17.655c0-4.873,3.955-8.827,8.827-8.827   s8.827,3.955,8.827,8.827v17.655h17.655v-17.655c0-4.873,3.955-8.827,8.827-8.827s8.827,3.955,8.827,8.827v17.655h17.655v-17.655   c0-4.873,3.955-8.827,8.827-8.827s8.827,3.955,8.827,8.827v17.655h17.655v-17.655c0-4.873,3.955-8.827,8.827-8.827   s8.827,3.955,8.827,8.827v17.655h17.655v-17.655c0-4.873,3.955-8.827,8.827-8.827c4.873,0,8.827,3.955,8.827,8.827v17.655h17.655   v-17.655c0-4.873,3.955-8.827,8.827-8.827c4.873,0,8.827,3.955,8.827,8.827v17.655h17.655v-17.655c0-4.873,3.955-8.827,8.827-8.827   c4.873,0,8.827,3.955,8.827,8.827v17.655h17.655v-17.655c0-4.873,3.955-8.827,8.827-8.827c4.873,0,8.827,3.955,8.827,8.827v17.655   H424.254z"/>
</g>
<g>
</g>
<g>
</g>
<g>
</g>
<g>
</g>
<g>
</g>
<g>
</g>
<g>
</g>
<g>
</g>
<g>
</g>
<g>
</g>
<g>
</g>
<g>
</g>
<g>
</g>
<g>
</g>
<g>
</g>
</svg>
