<?xml version="1.0" encoding="iso-8859-1"?>
<!-- Generator: Adobe Illustrator 19.0.0, SVG Export Plug-In . SVG Version: 6.00 Build 0)  -->
<svg xmlns="http://www.w3.org/2000/svg" xmlns:xlink="http://www.w3.org/1999/xlink" version="1.1" id="Capa_1" x="0px" y="0px" viewBox="0 0 512 512" style="enable-background:new 0 0 512 512;" xml:space="preserve">
<path style="fill:#F0C419;" d="M146.98,72.916c-3.443,4.767-6.886,9.71-10.152,14.83c-2.737,4.237-5.473,8.563-8.121,13.065  l-0.088,0.088c-10.134,17.187-19.182,35.001-27.101,53.319c-4.502,10.328-8.651,20.833-12.447,31.338  c-1.412,3.619-2.648,7.327-3.884,10.946c-14.001,38.983-21.884,79.898-23.393,121.291C61.794,425.048,148.746,512,256.001,512  s194.207-86.952,194.207-194.207c-1.501-41.393-9.393-82.308-23.393-121.291c-1.236-3.531-2.472-7.15-3.796-10.681h-0.088  c-10.637-29.978-24.143-58.862-40.342-86.246c-5.111-8.519-10.478-16.772-16.084-24.638c-0.132-0.274-0.282-0.627-0.406-0.874  c0-0.088,0-0.088-0.088-0.177C334.672,30.367,296.89,0,256.195,0c-26.244,1.174-51.191,11.767-70.268,29.837  c-14.592,12.765-27.604,27.224-38.753,43.079H146.98z"/>
<path style="fill:#24AE5F;" d="M431.14,152.629v-0.088l-7.768-35.046C408.1,48.825,347.181-0.018,276.834,0h-41.666  C164.821-0.018,103.902,48.825,88.63,117.495l-7.768,35.134c-28.601,20.039-45.55,45.197-45.55,72.474  c0,9.119,1.889,18.141,5.561,26.483c0.53,1.324,1.148,2.56,1.766,3.796c1.148-5.208,2.56-10.24,4.061-15.095  c9.181-14.204,21.239-26.324,35.399-35.575h0.088c16.128-10.849,33.607-19.544,51.994-25.865c8.157-3.037,16.463-5.658,24.894-7.857  c26.394-6.797,53.442-10.734,80.684-11.741c5.385-0.265,10.77-0.353,16.243-0.353c70.003,0,132.414,17.567,172.844,45.109  c8.678,26.147,14.919,53.036,18.626,80.331c10.143-9.101,18.211-20.268,23.658-32.75c3.672-8.342,5.561-17.364,5.561-26.483  C476.691,197.826,459.653,172.668,431.14,152.629z"/>
<g>
	<path style="fill:#4C8056;" d="M404.649,150.069c-1.81,0-3.575-0.556-5.049-1.598c-9.013-6.223-18.52-11.705-28.416-16.402   c-15.069-7-30.746-12.623-46.83-16.817c-4.714-1.227-7.548-6.047-6.321-10.77c1.227-4.714,6.047-7.548,10.77-6.321   c0.026,0.009,0.062,0.018,0.088,0.026c17.126,4.467,33.819,10.47,49.876,17.938c10.778,5.111,21.133,11.087,30.95,17.876   c3.999,2.798,4.97,8.298,2.172,12.297C410.237,148.665,407.535,150.069,404.649,150.069z"/>
	<path style="fill:#4C8056;" d="M471.129,251.586c-5.447,12.482-13.515,23.649-23.658,32.75   c-3.708-27.295-9.949-54.184-18.626-80.331C447.268,215.42,461.966,231.954,471.129,251.586z"/>
</g>
<path style="fill:#804537;" d="M136.829,271.272v0.088c-0.353,0.53-0.618,1.059-0.971,1.589l-12.623,21.804  c-18.511,29.396-29.625,62.835-32.397,97.457c-0.883,8.474-1.324,17.126-1.412,25.953v2.119  c-0.053,16.852,1.518,33.677,4.679,50.229c-33.015-25.159-56.497-79.272-58.527-142.919c-0.177-3.178-0.265-6.444-0.265-9.71  c-0.079-21.054,2.383-42.037,7.327-62.499c1.148-5.208,2.56-10.24,4.061-15.095c9.181-14.204,21.239-26.324,35.399-35.575h0.088  c16.128-10.849,33.607-19.544,51.994-25.865c-1.818,12.809-2.737,25.732-2.737,38.665c0,3.266,0.088,6.532,0.265,9.71  C132.203,242.017,133.915,256.75,136.829,271.272z"/>
<path style="fill:#4C8056;" d="M107.353,140.535c-4.873,0.009-8.828-3.946-8.836-8.819c0-2.86,1.377-5.544,3.708-7.203  c9.507-6.691,19.571-12.562,30.076-17.54c16.322-7.698,33.333-13.859,50.803-18.406c4.705-1.28,9.551,1.501,10.831,6.197  s-1.501,9.551-6.197,10.831c-0.026,0.009-0.062,0.018-0.088,0.026c-16.402,4.264-32.38,10.046-47.713,17.267  c-9.596,4.546-18.785,9.896-27.471,16.004C110.973,139.97,109.181,140.535,107.353,140.535z"/>
<path style="fill:#CC6F56;" d="M239.758,159.25c-2.295,4.061-4.855,8.474-7.768,13.33l-12.623,21.804  c-18.511,29.396-29.625,62.835-32.397,97.457c-0.883,8.474-1.324,17.214-1.412,26.041v2.03c-0.053,16.852,1.518,33.677,4.679,50.229  c-25.07-19.068-44.579-54.819-53.407-98.781v-0.088c-2.913-14.521-4.626-29.255-5.12-44.05c-0.177-3.178-0.265-6.444-0.265-9.71  c0-12.932,0.918-25.856,2.737-38.665c8.157-3.037,16.463-5.658,24.894-7.857C185.469,164.193,212.525,160.256,239.758,159.25z"/>
<g>
	<path style="fill:#2C2F38;" d="M317.114,459.034c-4.873,0-8.828-3.946-8.828-8.819c0,0,0,0,0-0.009   c0-19.138-23.94-35.31-52.286-35.31s-52.286,16.172-52.286,35.31c0,4.873-3.955,8.828-8.828,8.828   c-4.873,0-8.828-3.955-8.828-8.828c0-29.21,31.373-52.966,69.941-52.966s69.941,23.755,69.941,52.966   C325.942,455.08,321.996,459.034,317.114,459.034L317.114,459.034z"/>
	<path style="fill:#2C2F38;" d="M367.149,323.725c-3.407,0-6.515-1.96-7.98-5.032c-0.609-1.262-14.733-28.637-55.111-27.33   c-4.873,0.141-8.942-3.69-9.084-8.563c-0.141-4.846,3.655-8.898,8.492-9.084c53.01-1.73,70.921,35.84,71.671,37.447   c2.066,4.423,0.159,9.675-4.264,11.741C369.709,323.443,368.438,323.725,367.149,323.725L367.149,323.725z"/>
	<path style="fill:#2C2F38;" d="M314.457,361.931c-11.335-0.627-21.928-5.809-29.387-14.362c-3.425-3.469-3.39-9.057,0.079-12.482   c3.434-3.39,8.96-3.39,12.403,0c4.423,5.544,11.034,8.881,18.123,9.137c5.023-0.892,9.498-3.708,12.473-7.848   c2.754-4.017,8.254-5.041,12.27-2.286c3.972,2.719,5.023,8.121,2.375,12.138c-5.87,8.501-15.033,14.142-25.265,15.554   C316.505,361.887,315.481,361.931,314.457,361.931z"/>
</g>
<g>
</g>
<g>
</g>
<g>
</g>
<g>
</g>
<g>
</g>
<g>
</g>
<g>
</g>
<g>
</g>
<g>
</g>
<g>
</g>
<g>
</g>
<g>
</g>
<g>
</g>
<g>
</g>
<g>
</g>
</svg>
