<?xml version="1.0" encoding="iso-8859-1"?>
<!-- Generator: Adobe Illustrator 19.0.0, SVG Export Plug-In . SVG Version: 6.00 Build 0)  -->
<svg xmlns="http://www.w3.org/2000/svg" xmlns:xlink="http://www.w3.org/1999/xlink" version="1.1" id="Capa_1" x="0px" y="0px" viewBox="0 0 512 512" style="enable-background:new 0 0 512 512;" xml:space="preserve">
<path style="fill:#F0C419;" d="M133.739,72.916c-3.443,4.767-6.886,9.71-10.152,14.83c-2.737,4.237-5.473,8.563-8.121,13.065  l-0.088,0.088c-10.134,17.187-19.182,35.001-27.101,53.319c-4.502,10.328-8.651,20.833-12.447,31.338  c-1.412,3.619-2.648,7.327-3.884,10.946c-14.001,38.983-21.892,79.898-23.393,121.291C48.552,425.048,135.504,512,242.759,512  s194.207-86.952,194.207-194.207c-1.501-41.393-9.393-82.308-23.393-121.291c-1.236-3.531-2.472-7.15-3.796-10.681h-0.088  c-10.637-29.978-24.143-58.862-40.342-86.246c-5.111-8.519-10.478-16.772-16.084-24.638c-0.132-0.274-0.283-0.627-0.406-0.874  c0-0.088,0-0.088-0.088-0.177C321.431,30.367,283.649,0,242.954,0c-26.244,1.174-51.191,11.767-70.268,29.837  c-14.592,12.765-27.604,27.224-38.753,43.079H133.739z"/>
<path style="fill:#24AE5F;" d="M417.899,152.629v-0.088l-7.768-35.046C394.859,48.825,333.939-0.018,263.592,0h-41.666  C151.579-0.018,90.66,48.825,75.388,117.495l-7.768,35.134c-28.601,20.039-45.55,45.197-45.55,72.474  c0,9.119,1.889,18.141,5.561,26.483c0.53,1.324,1.148,2.56,1.766,3.796c1.148-5.208,2.56-10.24,4.061-15.095  c9.181-14.204,21.239-26.324,35.399-35.575h0.088c16.128-10.849,33.607-19.544,51.994-25.865c8.157-3.037,16.463-5.658,24.894-7.857  c26.394-6.797,53.442-10.734,80.684-11.741c5.385-0.265,10.77-0.353,16.243-0.353c70.003,0,132.414,17.567,172.844,45.109  c8.678,26.147,14.919,53.036,18.626,80.331c10.143-9.101,18.211-20.268,23.658-32.75c3.672-8.342,5.561-17.364,5.561-26.483  C463.449,197.826,446.412,172.668,417.899,152.629z"/>
<path style="fill:#FF5364;" d="M489.932,411.78c0.026,5.491-1.086,10.937-3.266,15.978l-1.236,2.295l-71.592,80.419  c-1.615,1.854-4.431,2.039-6.285,0.424c-0.15-0.132-0.291-0.274-0.424-0.424l-18.185-20.392l-53.407-60.028l-1.236-2.295  c-2.18-5.041-3.293-10.487-3.266-15.978c-0.009-5.491,1.103-10.929,3.266-15.978c2.022-4.864,4.988-9.278,8.739-12.977  c3.655-3.822,8.077-6.833,12.977-8.828c15.316-6.524,33.059-3.019,44.756,8.828c4.105,4.387,7.389,9.463,9.71,15.007  c2.322-5.544,5.605-10.62,9.71-15.007c3.69-3.787,8.104-6.788,12.977-8.828c3.646-1.598,7.521-2.613,11.476-3.001  c1.465-0.177,2.94-0.265,4.414-0.265c5.464-0.018,10.876,1.095,15.89,3.266c4.899,1.995,9.322,5.005,12.977,8.828  c3.752,3.699,6.718,8.113,8.739,12.977C488.828,400.852,489.941,406.29,489.932,411.78z"/>
<g>
	<path style="fill:#4C8056;" d="M391.407,150.069c-1.81,0-3.575-0.556-5.049-1.598c-9.013-6.223-18.52-11.705-28.416-16.402   c-15.069-7-30.747-12.623-46.83-16.817c-4.714-1.227-7.548-6.047-6.321-10.77c1.227-4.714,6.047-7.548,10.77-6.321   c0.026,0.009,0.062,0.018,0.088,0.026c17.125,4.467,33.818,10.47,49.876,17.938c10.779,5.111,21.133,11.087,30.95,17.876   c3.999,2.798,4.97,8.298,2.172,12.297C396.995,148.665,394.294,150.069,391.407,150.069z"/>
	<path style="fill:#4C8056;" d="M457.888,251.586c-5.447,12.482-13.515,23.649-23.658,32.75   c-3.708-27.295-9.949-54.184-18.626-80.331C434.027,215.42,448.725,231.954,457.888,251.586z"/>
</g>
<path style="fill:#804537;" d="M123.587,271.272v0.088c-0.353,0.53-0.618,1.059-0.971,1.589l-12.623,21.804  c-18.511,29.396-29.625,62.835-32.397,97.457c-0.883,8.474-1.324,17.126-1.412,25.953v2.119  c-0.053,16.852,1.518,33.677,4.679,50.229c-33.015-25.159-56.497-79.272-58.527-142.919c-0.177-3.178-0.265-6.444-0.265-9.71  c-0.079-21.054,2.383-42.037,7.327-62.499c1.148-5.208,2.56-10.24,4.061-15.095c9.181-14.204,21.239-26.324,35.399-35.575h0.088  c16.128-10.849,33.607-19.544,51.994-25.865c-1.818,12.809-2.737,25.732-2.737,38.665c0,3.266,0.088,6.532,0.265,9.71  C118.961,242.017,120.674,256.75,123.587,271.272z"/>
<path style="fill:#CC6F56;" d="M226.517,159.25c-2.295,4.061-4.855,8.474-7.768,13.33l-12.623,21.804  c-18.511,29.396-29.625,62.835-32.397,97.457c-0.883,8.474-1.324,17.214-1.412,26.041v2.03c-0.053,16.852,1.518,33.677,4.679,50.229  c-25.07-19.068-44.579-54.819-53.407-98.781v-0.088c-2.913-14.521-4.626-29.255-5.12-44.05c-0.177-3.178-0.265-6.444-0.265-9.71  c0-12.932,0.918-25.856,2.737-38.665c8.157-3.037,16.463-5.658,24.894-7.857C172.227,164.193,199.275,160.256,226.517,159.25z"/>
<path style="fill:#2C2F38;" d="M219.949,459.017c-4.873,0-8.828-3.964-8.828-8.836c0-3.84,2.489-7.239,6.153-8.413l36.758-11.697  l-15.66-9.384c-8.086-4.352-11.114-14.442-6.762-22.528c1.545-2.869,3.893-5.217,6.762-6.762l15.713-9.375l-36.811-11.705  c-4.643-1.492-7.194-6.462-5.703-11.105c1.483-4.626,6.426-7.177,11.061-5.72l37.155,11.82c6.903,1.907,12.014,7.715,13.03,14.804  c0.653,6.718-2.745,13.18-8.642,16.446l-15.846,9.454l15.846,9.499c5.906,3.275,9.295,9.737,8.642,16.455  c-1.015,7.08-6.126,12.897-13.03,14.795l-37.155,11.82C221.767,458.876,220.858,459.017,219.949,459.017z"/>
<path style="fill:#4C8056;" d="M94.112,140.535c-4.873,0.009-8.828-3.946-8.836-8.819c0-2.86,1.377-5.544,3.708-7.203  c9.507-6.691,19.571-12.562,30.076-17.54c16.322-7.698,33.333-13.859,50.803-18.406c4.705-1.28,9.551,1.501,10.831,6.197  s-1.501,9.551-6.197,10.831c-0.026,0.009-0.062,0.018-0.088,0.026c-16.402,4.264-32.38,10.046-47.713,17.267  c-9.596,4.546-18.785,9.896-27.471,16.004C97.731,139.97,95.939,140.535,94.112,140.535z"/>
<circle style="fill:#FFFFFF;" cx="313.38" cy="291.31" r="52.966"/>
<circle style="fill:#2FA8CC;" cx="313.38" cy="291.31" r="26.483"/>
<circle style="fill:#2C2F38;" cx="313.38" cy="291.31" r="8.828"/>
<circle style="fill:#FFFFFF;" cx="313.38" cy="291.31" r="52.966"/>
<circle style="fill:#2FA8CC;" cx="313.38" cy="291.31" r="26.483"/>
<circle style="fill:#2C2F38;" cx="313.38" cy="291.31" r="8.828"/>
<g>
</g>
<g>
</g>
<g>
</g>
<g>
</g>
<g>
</g>
<g>
</g>
<g>
</g>
<g>
</g>
<g>
</g>
<g>
</g>
<g>
</g>
<g>
</g>
<g>
</g>
<g>
</g>
<g>
</g>
</svg>
