<?xml version="1.0" encoding="iso-8859-1"?>
<!-- Generator: Adobe Illustrator 19.0.0, SVG Export Plug-In . SVG Version: 6.00 Build 0)  -->
<svg xmlns="http://www.w3.org/2000/svg" xmlns:xlink="http://www.w3.org/1999/xlink" version="1.1" id="Capa_1" x="0px" y="0px" viewBox="0 0 512 512" style="enable-background:new 0 0 512 512;" xml:space="preserve">
<path style="fill:#7F8C8D;" d="M450.207,317.793C450.207,425.048,363.255,512,256,512S61.793,425.048,61.793,317.793  c0.035-8.907,0.565-17.805,1.589-26.659c3.805-31.797,10.973-63.108,21.363-93.396c0.177-0.441,0.265-0.794,0.441-1.236  c3.266-9.622,6.886-19.332,10.77-28.954c1.766-4.502,3.619-8.916,5.561-13.33c3.443-7.945,7.15-15.89,11.034-23.658  c7.265-14.724,15.369-29.025,24.276-42.814c2.207-3.443,4.414-6.709,6.709-9.975c1.148-1.677,2.295-3.266,3.443-4.855h0.177  c6.197-8.73,12.915-17.073,20.127-24.982c5.853-6.391,12.067-12.429,18.626-18.097C204.985,11.767,229.932,1.174,256.177,0  c32.044,0,62.323,18.891,89.07,48.199c7.415,8.139,14.345,16.719,20.745,25.688c0.088,0.088,0.088,0.088,0.088,0.177  c0.088,0.265,0.265,0.53,0.353,0.794c0.883,1.236,1.677,2.383,2.56,3.619c11.343,16.508,21.46,33.827,30.279,51.818  c6.091,12.182,11.679,24.602,16.772,37.252c3.884,9.622,7.503,19.244,10.77,28.954c0.185,0.486,0.335,0.989,0.441,1.501  c10.434,30.19,17.593,61.413,21.363,93.131C449.642,299.988,450.172,308.886,450.207,317.793z"/>
<g>
	<path style="fill:#2C2F38;" d="M249.273,312.497l-26.598,36.096c-2.719,3.778-1.854,9.039,1.916,11.758   c1.501,1.077,3.31,1.633,5.164,1.58h53.186c4.652,0.132,8.527-3.531,8.66-8.174c0.053-1.845-0.503-3.663-1.58-5.155l-26.589-36.105   c-2.94-3.911-8.501-4.696-12.412-1.748C250.359,311.243,249.777,311.835,249.273,312.497z"/>
	<circle style="fill:#2C2F38;" cx="194.56" cy="114.759" r="17.655"/>
	<path style="fill:#2C2F38;" d="M221.043,79.448c-2.339-0.035-4.573-0.945-6.268-2.56c-0.353-0.441-0.706-0.883-1.059-1.324   c-0.335-0.494-0.6-1.024-0.794-1.589c-0.256-0.503-0.433-1.033-0.53-1.589c-0.238-1.165-0.238-2.366,0-3.531   c0.097-0.556,0.274-1.086,0.53-1.589c0.194-0.565,0.459-1.095,0.794-1.589c0.353-0.441,0.706-0.883,1.059-1.324   c0.856-0.777,1.845-1.412,2.913-1.854c2.154-0.883,4.564-0.883,6.709,0c1.077,0.433,2.066,1.059,2.913,1.854   c0.353,0.441,0.706,0.883,1.059,1.324c0.335,0.494,0.6,1.024,0.794,1.589c0.256,0.503,0.433,1.042,0.53,1.589   c0.097,0.583,0.159,1.174,0.177,1.766c-0.018,0.591-0.079,1.183-0.177,1.766c-0.097,0.556-0.274,1.086-0.53,1.589   c-0.194,0.565-0.459,1.095-0.794,1.589c-0.353,0.441-0.706,0.883-1.059,1.324C225.615,78.495,223.382,79.413,221.043,79.448z"/>
	<circle style="fill:#2C2F38;" cx="318.146" cy="114.759" r="17.655"/>
	<circle style="fill:#2C2F38;" cx="168.077" cy="361.931" r="17.655"/>
	<path style="fill:#2C2F38;" d="M291.663,79.448c-0.591-0.018-1.183-0.079-1.766-0.177c-0.556-0.097-1.086-0.274-1.589-0.53   c-0.565-0.194-1.095-0.459-1.589-0.794c-0.468-0.327-0.909-0.68-1.324-1.059c-3.416-3.478-3.416-9.057,0-12.535   c0.415-0.38,0.856-0.733,1.324-1.059c0.494-0.335,1.024-0.6,1.589-0.794c0.503-0.256,1.033-0.433,1.589-0.53   c2.904-0.547,5.897,0.335,8.033,2.383c0.777,0.856,1.404,1.845,1.854,2.913c0.945,2.136,0.945,4.573,0,6.709   c-0.45,1.068-1.077,2.057-1.854,2.913C296.236,78.495,294.003,79.413,291.663,79.448z"/>
	<path style="fill:#2C2F38;" d="M221.043,467.862c-2.339-0.035-4.573-0.945-6.268-2.56c-1.624-1.686-2.542-3.928-2.56-6.268   c0.009-1.156,0.247-2.295,0.706-3.354c0.424-1.077,1.059-2.066,1.854-2.913c3.54-3.266,8.995-3.266,12.535,0   c0.794,0.847,1.43,1.827,1.854,2.913c0.45,1.059,0.697,2.207,0.706,3.354c-0.018,2.339-0.936,4.582-2.56,6.268   C225.615,466.909,223.382,467.827,221.043,467.862z"/>
	<path style="fill:#2C2F38;" d="M194.56,423.724c-1.156-0.018-2.295-0.256-3.354-0.706c-1.077-0.424-2.066-1.059-2.913-1.854   c-3.46-3.46-3.46-9.075,0-12.535c3.46-3.46,9.075-3.46,12.535,0l0,0c0.777,0.856,1.404,1.845,1.854,2.913   c0.45,1.059,0.689,2.207,0.706,3.354c0.044,4.829-3.831,8.783-8.66,8.828C194.675,423.724,194.613,423.724,194.56,423.724z"/>
	<circle style="fill:#2C2F38;" cx="344.629" cy="361.931" r="17.655"/>
	<path style="fill:#2C2F38;" d="M291.663,467.862c-4.829-0.044-8.704-3.999-8.66-8.828c0.044-4.829,3.999-8.704,8.828-8.66   c4.829,0.044,8.704,3.999,8.66,8.828c-0.026,2.286-0.945,4.476-2.56,6.1C296.236,466.918,294.003,467.827,291.663,467.862z"/>
	<path style="fill:#2C2F38;" d="M318.146,423.724c-1.156-0.018-2.295-0.256-3.354-0.706c-1.068-0.45-2.048-1.077-2.913-1.854   c-1.615-1.695-2.525-3.928-2.56-6.268c0.018-0.565,0.071-1.121,0.177-1.677c0.079-0.583,0.256-1.156,0.53-1.677   c0.194-0.565,0.459-1.095,0.794-1.589c0.327-0.468,0.68-0.909,1.059-1.324c3.54-3.266,8.995-3.266,12.535,0   c0.38,0.415,0.733,0.856,1.059,1.324c0.335,0.494,0.6,1.024,0.794,1.589c0.265,0.53,0.45,1.095,0.53,1.677   c0.106,0.556,0.159,1.112,0.177,1.677c-0.035,2.339-0.953,4.573-2.56,6.268c-0.83,0.812-1.827,1.448-2.913,1.854   C320.441,423.468,319.303,423.707,318.146,423.724z"/>
</g>
<circle style="fill:#FFFFFF;" cx="176.905" cy="247.172" r="52.966"/>
<circle style="fill:#805333;" cx="176.905" cy="247.172" r="26.483"/>
<circle style="fill:#2C2F38;" cx="176.905" cy="247.172" r="8.828"/>
<circle style="fill:#FFFFFF;" cx="335.801" cy="247.172" r="52.966"/>
<circle style="fill:#805333;" cx="335.801" cy="247.172" r="26.483"/>
<circle style="fill:#2C2F38;" cx="335.801" cy="247.172" r="8.828"/>
<g>
</g>
<g>
</g>
<g>
</g>
<g>
</g>
<g>
</g>
<g>
</g>
<g>
</g>
<g>
</g>
<g>
</g>
<g>
</g>
<g>
</g>
<g>
</g>
<g>
</g>
<g>
</g>
<g>
</g>
</svg>
