<?xml version="1.0" encoding="iso-8859-1"?>
<!-- Generator: Adobe Illustrator 19.0.0, SVG Export Plug-In . SVG Version: 6.00 Build 0)  -->
<svg xmlns="http://www.w3.org/2000/svg" xmlns:xlink="http://www.w3.org/1999/xlink" version="1.1" id="Capa_1" x="0px" y="0px" viewBox="0 0 512 512" style="enable-background:new 0 0 512 512;" xml:space="preserve">
<g>
	<path style="fill:#F29C1F;" d="M74.982,291.31c-26.818,0-48.552-21.734-48.552-48.552s21.734-48.552,48.552-48.552   c2.401,0.009,4.802,0.185,7.186,0.521l8.58,1.165l-0.998,8.598c-0.98,8.307-1.492,16.658-1.527,25.026   c-0.018,16.561,2.189,33.05,6.568,49.028l2.313,8.377l-8.333,2.436C84.286,290.666,79.651,291.319,74.982,291.31z"/>
	<path style="fill:#F29C1F;" d="M437.018,291.31c-4.661,0.009-9.304-0.644-13.789-1.951l-8.333-2.436l2.313-8.377   c4.378-15.969,6.594-32.459,6.568-49.028c-0.035-8.369-0.547-16.719-1.527-25.026l-0.998-8.607l8.58-1.165   c2.383-0.335,4.785-0.503,7.186-0.521c26.818,0,48.552,21.734,48.552,48.552S463.828,291.31,437.018,291.31z"/>
</g>
<path style="fill:#F0C419;" d="M146.979,72.916c-3.443,4.767-6.886,9.71-10.152,14.83c-2.737,4.237-5.473,8.563-8.121,13.065  l-0.088,0.088c-10.134,17.187-19.182,35.001-27.101,53.319c-4.502,10.328-8.651,20.833-12.447,31.338  c-1.412,3.619-2.648,7.327-3.884,10.946c-14.001,38.983-21.892,79.898-23.393,121.291C61.793,425.048,148.745,512,256,512  s194.207-86.952,194.207-194.207c-1.501-41.393-9.393-82.308-23.393-121.291c-1.236-3.531-2.472-7.15-3.796-10.681h-0.088  c-10.637-29.978-24.143-58.862-40.342-86.246c-5.111-8.519-10.478-16.772-16.084-24.638c-0.132-0.274-0.283-0.627-0.406-0.874  c0-0.088,0-0.088-0.088-0.177C334.671,30.367,296.889,0,256.194,0c-26.244,1.174-51.191,11.767-70.268,29.837  c-14.592,12.765-27.604,27.224-38.753,43.079H146.979z"/>
<path style="fill:#894B9D;" d="M401.39,135.327c-26.659-26.218-88.806-74.063-145.39-20.568  c-57.556-54.378-120.673-4.061-146.714,21.892c0.883-2.03,1.942-4.061,2.913-6.091c1.015-2.26,1.863-4.59,2.56-6.974  c0,0,17.655-61.793-8.828-79.448c0,0-9.181-44.138,149.892-44.138c32.044,0,62.323,18.891,89.07,48.199  c7.415,8.139,14.345,16.719,20.745,25.688c0.088,0.088,0.088,0.088,0.088,0.177c0.088,0.265,0.265,0.53,0.353,0.794  c0.883,1.236,1.677,2.383,2.56,3.619c11.343,16.508,21.46,33.827,30.279,51.818C399.713,131.972,400.596,133.65,401.39,135.327z"/>
<g>
	<path style="fill:#24AE5F;" d="M189.687,240.11v-36.546c8.916-0.212,17.532,3.204,23.87,9.481   c3.019,3.831,8.572,4.484,12.403,1.465c3.831-3.019,4.484-8.572,1.465-12.403c-0.009-0.018-0.018-0.026-0.035-0.044   c-9.613-10.637-23.375-16.569-37.703-16.234v-4.687c0-4.873-3.955-8.828-8.828-8.828s-8.828,3.955-8.828,8.828v5.129   c-24.161,3.363-37.041,19.068-37.279,34.56c-0.23,14.972,11.414,30.429,37.279,34.242v35.84   c-9.304,0.538-18.335-3.257-24.461-10.275c-3.416-3.478-9.004-3.522-12.482-0.106c-3.452,3.39-3.531,8.934-0.168,12.42   c9.481,10.417,23.049,16.137,37.12,15.66v4.599c0,4.873,3.955,8.828,8.828,8.828c4.873,0,8.828-3.955,8.828-8.828v-5.067   c22.166-2.895,38.382-15.078,39.733-30.888C229.985,270.76,228.502,249.821,189.687,240.11z M152.408,221.087   c0.106-7.009,7.009-14.371,19.624-16.922v33.059C158.508,234.575,152.311,227.716,152.408,221.087z M189.687,290.277v-31.797   c15.651,4.802,22.607,11.882,22.148,17.258C211.332,281.644,202.937,288.018,189.687,290.277z"/>
	<path style="fill:#24AE5F;" d="M339.756,244.621v-36.537c8.916-0.221,17.532,3.204,23.87,9.472   c2.993,3.849,8.545,4.537,12.385,1.545c3.849-2.993,4.537-8.545,1.545-12.385c-0.026-0.035-0.062-0.079-0.097-0.115   c-9.604-10.646-23.375-16.569-37.703-16.243v-4.696c0-4.873-3.955-8.828-8.828-8.828s-8.828,3.955-8.828,8.828v5.129   c-24.161,3.354-37.041,19.059-37.279,34.551c-0.23,14.972,11.414,30.429,37.279,34.242v35.84   c-9.304,0.539-18.335-3.257-24.461-10.275c-3.416-3.478-9.004-3.522-12.482-0.106c-3.452,3.39-3.531,8.934-0.168,12.42   c9.472,10.417,23.049,16.137,37.12,15.66v4.599c0,4.873,3.955,8.828,8.828,8.828s8.828-3.955,8.828-8.828v-5.067   c22.166-2.895,38.382-15.078,39.733-30.888C380.054,275.279,378.571,254.34,339.756,244.621z M302.477,225.615   c0.106-7.009,7.009-14.371,19.624-16.922v33.059C308.577,239.095,302.38,232.236,302.477,225.615z M339.756,294.788v-31.797   c15.651,4.802,22.607,11.882,22.148,17.258C361.401,286.164,353.006,292.529,339.756,294.788z"/>
</g>
<path style="fill:#2C2F38;" d="M386.41,363.891c-1.748,3.275-3.663,6.462-5.747,9.534c-0.353,0.53-0.794,1.059-1.148,1.501  c-6.444,9.225-14.23,17.434-23.093,24.364c-9.048,7.247-18.979,13.33-29.546,18.097c-1.501,0.706-3.01,1.412-4.511,2.03  c-44.05,19.279-94.287,18.538-137.737-2.03c-0.371-0.141-0.724-0.318-1.059-0.53c-10.143-4.696-19.703-10.567-28.487-17.479  c-9.754-7.662-18.202-16.843-25.035-27.189c-1.845-2.657-3.531-5.429-5.041-8.298c-6.1-11.652,8.757-23.57,23.27-18.361  c34.578,11.873,70.93,17.752,107.485,17.39c36.529,0.353,72.845-5.526,107.396-17.39  C377.653,340.321,392.598,352.238,386.41,363.891z"/>
<path style="fill:#FF5364;" d="M300.138,398.053c4.873,0,8.828,3.955,8.828,8.828v18.185c-0.291,29.255-24.249,52.727-53.495,52.436  c-28.734-0.291-52.003-23.437-52.436-52.171v-18.45c0-4.873,3.955-8.828,8.828-8.828H300.138z"/>
<g>
</g>
<g>
</g>
<g>
</g>
<g>
</g>
<g>
</g>
<g>
</g>
<g>
</g>
<g>
</g>
<g>
</g>
<g>
</g>
<g>
</g>
<g>
</g>
<g>
</g>
<g>
</g>
<g>
</g>
</svg>
