<?xml version="1.0" encoding="iso-8859-1"?>
<!-- Generator: Adobe Illustrator 19.0.0, SVG Export Plug-In . SVG Version: 6.00 Build 0)  -->
<svg xmlns="http://www.w3.org/2000/svg" xmlns:xlink="http://www.w3.org/1999/xlink" version="1.1" id="Capa_1" x="0px" y="0px" viewBox="0 0 512 512" style="enable-background:new 0 0 512 512;" xml:space="preserve">
<g>
	<path style="fill:#F29C1F;" d="M74.982,291.31c-26.818,0-48.552-21.734-48.552-48.552s21.734-48.552,48.552-48.552   c2.401,0.009,4.802,0.185,7.186,0.521l8.58,1.165l-0.998,8.598c-0.98,8.307-1.492,16.658-1.527,25.026   c-0.018,16.561,2.189,33.05,6.568,49.028l2.313,8.377l-8.333,2.436C84.286,290.666,79.651,291.319,74.982,291.31z"/>
	<path style="fill:#F29C1F;" d="M437.018,291.31c-4.661,0.009-9.304-0.644-13.789-1.951l-8.333-2.436l2.313-8.377   c4.378-15.969,6.594-32.459,6.568-49.028c-0.035-8.369-0.547-16.719-1.527-25.026l-0.998-8.607l8.58-1.165   c2.383-0.335,4.785-0.503,7.186-0.521c26.818,0,48.552,21.734,48.552,48.552S463.828,291.31,437.018,291.31z"/>
</g>
<path style="fill:#F0C419;" d="M146.979,72.916c-3.443,4.767-6.886,9.71-10.152,14.83c-2.737,4.237-5.473,8.563-8.121,13.065  l-0.088,0.088c-10.134,17.187-19.182,35.001-27.101,53.319c-4.502,10.328-8.651,20.833-12.447,31.338  c-1.412,3.619-2.648,7.327-3.884,10.946c-14.001,38.983-21.892,79.898-23.393,121.291C61.793,425.048,148.745,512,256,512  s194.207-86.952,194.207-194.207c-1.501-41.393-9.393-82.308-23.393-121.291c-1.236-3.531-2.472-7.15-3.796-10.681h-0.088  c-10.637-29.978-24.143-58.862-40.342-86.246c-5.111-8.519-10.478-16.772-16.084-24.638c-0.132-0.274-0.283-0.627-0.406-0.874  c0-0.088,0-0.088-0.088-0.177C334.671,30.367,296.889,0,256.194,0c-26.244,1.174-51.191,11.767-70.268,29.837  c-14.592,12.765-27.604,27.224-38.753,43.079H146.979z"/>
<path style="fill:#894B9D;" d="M401.39,135.327c-26.659-26.218-88.806-74.063-145.39-20.568  c-57.556-54.378-120.673-4.061-146.714,21.892c0.883-2.03,1.942-4.061,2.913-6.091c1.015-2.26,1.863-4.59,2.56-6.974  c0,0,17.655-61.793-8.828-79.448c0,0-9.181-44.138,149.892-44.138c32.044,0,62.323,18.891,89.07,48.199  c7.415,8.139,14.345,16.719,20.745,25.688c0.088,0.088,0.088,0.088,0.088,0.177c0.088,0.265,0.265,0.53,0.353,0.794  c0.883,1.236,1.677,2.383,2.56,3.619c11.343,16.508,21.46,33.827,30.279,51.818C399.713,131.972,400.596,133.65,401.39,135.327z"/>
<circle style="fill:#FFFFFF;" cx="326.621" cy="229.517" r="52.966"/>
<circle style="fill:#2FA8CC;" cx="326.621" cy="229.517" r="26.483"/>
<circle style="fill:#2C2F38;" cx="326.621" cy="229.517" r="8.828"/>
<g>
	<path style="fill:#F29C1F;" d="M376.497,211.862h-99.752c9.702-27.542,39.901-42.01,67.443-32.309   C359.292,184.876,371.174,196.758,376.497,211.862z"/>
	<path style="fill:#F29C1F;" d="M376.497,247.172c-9.702,27.542-39.901,42.01-67.443,32.309   c-15.104-5.323-26.986-17.205-32.309-32.309H376.497z"/>
</g>
<circle style="fill:#FFFFFF;" cx="185.379" cy="229.517" r="52.966"/>
<circle style="fill:#2FA8CC;" cx="185.379" cy="229.517" r="26.483"/>
<circle style="fill:#2C2F38;" cx="185.379" cy="229.517" r="8.828"/>
<g>
	<path style="fill:#F29C1F;" d="M235.255,211.862h-99.752c9.702-27.542,39.901-42.01,67.443-32.309   C218.05,184.876,229.932,196.758,235.255,211.862z"/>
	<path style="fill:#F29C1F;" d="M235.255,247.172c-9.702,27.542-39.901,42.01-67.443,32.309   c-15.104-5.323-26.986-17.205-32.309-32.309H235.255z"/>
</g>
<path style="fill:#2C2F38;" d="M353.103,388.414c0,39-45.453,70.621-101.517,70.621s-101.517-31.62-101.517-70.621  s76.35-70.621,132.414-70.621S353.103,349.414,353.103,388.414z"/>
<path style="fill:#FFFFFF;" d="M346.395,351.161l-2.119,0.883H176.552l-1.236-1.766c31.912-20.789,69.085-32.053,107.167-32.486  C318.852,317.793,337.832,331.123,346.395,351.161z"/>
<g>
</g>
<g>
</g>
<g>
</g>
<g>
</g>
<g>
</g>
<g>
</g>
<g>
</g>
<g>
</g>
<g>
</g>
<g>
</g>
<g>
</g>
<g>
</g>
<g>
</g>
<g>
</g>
<g>
</g>
</svg>
