<?xml version="1.0" encoding="iso-8859-1"?>
<!-- Generator: Adobe Illustrator 19.0.0, SVG Export Plug-In . SVG Version: 6.00 Build 0)  -->
<svg xmlns="http://www.w3.org/2000/svg" xmlns:xlink="http://www.w3.org/1999/xlink" version="1.1" id="Capa_1" x="0px" y="0px" viewBox="0 0 511.997 511.997" style="enable-background:new 0 0 511.997 511.997;" xml:space="preserve">
<path style="fill:#FDD7AD;" d="M146.979,72.917c-3.443,4.767-6.885,9.71-10.152,14.83c-2.737,4.237-5.473,8.563-8.121,13.065  l-0.088,0.088c-10.134,17.187-19.182,35.001-27.1,53.318c-4.502,10.328-8.651,20.833-12.447,31.337  c-1.412,3.619-2.648,7.327-3.884,10.946c-13.991,38.991-21.883,79.897-23.393,121.289c0,107.253,86.95,194.204,194.204,194.204  s194.204-86.95,194.204-194.204c-1.501-41.392-9.392-82.307-23.393-121.289c-1.236-3.531-2.472-7.15-3.796-10.681h-0.088  c-10.637-29.978-24.143-58.861-40.341-86.244c-5.111-8.518-10.478-16.772-16.084-24.637c-0.132-0.274-0.282-0.627-0.406-0.874  c0-0.088,0-0.088-0.088-0.177C334.668,30.369,296.887,0.003,256.192,0.003c-26.244,1.174-51.19,11.767-70.266,29.837  c-14.592,12.764-27.603,27.224-38.752,43.078H146.979z"/>
<path style="fill:#2C3E50;" d="M440.58,21.983l-62.587,70.355c-3.619-6.003-7.503-11.74-11.476-17.39  c-0.177-0.265-0.265-0.618-0.441-0.883c0-0.088,0-0.088-0.088-0.177C334.651,30.369,296.869,0.003,256.175,0.003  c-26.244,1.174-51.19,11.767-70.266,29.837c-14.592,12.764-27.603,27.224-38.752,43.078h-0.177  c-3.443,4.767-6.885,9.71-10.152,14.83c-0.971,1.501-1.942,3.001-2.825,4.502L71.417,21.983  C26.273,54.865-0.306,107.459,0.003,163.31c-0.238,48.772,20.003,95.398,55.789,128.527c4.043,3.549,6.259,8.748,6.003,14.124  c-0.265,4.061-0.353,8.033-0.353,11.829c-0.053,41.966,13.612,82.793,38.929,116.257c1.677,2.207,3.443,4.414,5.12,6.621  c1.324,1.677,2.737,3.178,4.061,4.767c0.044,0,0.088,0.035,0.088,0.088l0,0c0.212,0.256,0.45,0.494,0.706,0.706  c1.765,2.03,3.708,4.149,5.65,6.179l0.265,0.265c2.295,2.472,4.502,4.679,6.885,6.797l0.441-0.441  c-17.655-52.965-6.621-83.861,8.827-101.515c12.014-13.303,28.724-21.407,46.609-22.598c14.221-1.068,28.23-4.043,41.665-8.827  v11.917c0,14.389,22.245,26.571,31.426,30.984c2.463,1.148,5.305,1.148,7.768,0c9.181-4.414,31.426-16.596,31.426-30.984v-11.917  c13.435,4.784,27.444,7.759,41.665,8.827c17.884,1.192,34.595,9.295,46.609,22.598c15.448,17.655,26.482,48.551,8.827,101.515  l0.265,0.265c39.114-36.66,61.262-87.895,61.174-141.504c0-3.619-0.088-7.415-0.265-11.299c-0.071-1.006-0.018-2.013,0.177-3.001  v-0.088c0.53-4.264,2.604-8.192,5.826-11.034c36.175-33.129,56.663-80.003,56.407-129.057  C512.312,107.459,485.732,54.865,440.58,21.983z"/>
<path style="fill:#F0C419;" d="M377.993,92.338l-2.207,2.472l-67.353,82.448l-25.953,31.69c-2.895,3.222-4.502,7.406-4.502,11.74  l6.797,53.759l6.532,51.64v11.917c0,14.389-22.245,26.571-31.426,30.984c-2.463,1.148-5.305,1.148-7.768,0  c-9.181-4.414-31.426-16.596-31.426-30.984v-11.917l6.532-51.641l6.797-53.759c0-4.334-1.607-8.518-4.502-11.74l-25.953-31.69  L136.21,94.809l-2.207-2.56c0.883-1.501,1.854-3.001,2.825-4.502c3.266-5.12,6.709-10.063,10.152-14.83h0.177  c11.149-15.854,24.161-30.313,38.752-43.078c19.076-18.07,44.022-28.663,70.266-29.837c40.694,0,78.476,30.366,109.813,73.886  c0.088,0.088,0.088,0.088,0.088,0.177c0.177,0.265,0.265,0.618,0.441,0.883C370.49,80.597,374.374,86.335,377.993,92.338z"/>
<path style="fill:#2C2F38;" d="M282.481,436.961c0,17.063,0,30.896-26.482,30.896s-26.482-13.833-26.482-30.896  c-1.121-15.81,10.681-29.59,26.482-30.896C271.799,407.38,283.602,421.151,282.481,436.961z"/>
<g>
	<path style="fill:#B0D3F0;" d="M234.018,220.689l-6.797,53.759l-6.532-0.794L115.73,297.84c-4.705,1.13-9.437-1.774-10.566-6.479   c-0.097-0.397-0.159-0.794-0.203-1.201l-6.797-67.883c-0.503-4.846,3.01-9.181,7.856-9.684c0.503-0.053,1.006-0.062,1.501-0.026   l96.042-35.31l25.953,31.691C232.411,212.179,234.018,216.354,234.018,220.689z"/>
	<path style="fill:#B0D3F0;" d="M413.833,222.278l-6.797,67.883c-0.468,4.82-4.749,8.351-9.569,7.883   c-0.406-0.035-0.803-0.106-1.201-0.203l-104.958-24.187l-6.532,0.794l-6.797-53.759c0-4.334,1.607-8.518,4.502-11.74l25.953-31.69   l96.042,35.31c4.855-0.327,9.057,3.346,9.384,8.21C413.895,221.28,413.886,221.783,413.833,222.278z"/>
</g>
<g>
</g>
<g>
</g>
<g>
</g>
<g>
</g>
<g>
</g>
<g>
</g>
<g>
</g>
<g>
</g>
<g>
</g>
<g>
</g>
<g>
</g>
<g>
</g>
<g>
</g>
<g>
</g>
<g>
</g>
</svg>
