<?xml version="1.0" encoding="iso-8859-1"?>
<!-- Generator: Adobe Illustrator 19.0.0, SVG Export Plug-In . SVG Version: 6.00 Build 0)  -->
<svg xmlns="http://www.w3.org/2000/svg" xmlns:xlink="http://www.w3.org/1999/xlink" version="1.1" id="Capa_1" x="0px" y="0px" viewBox="0 0 512.005 512.005" style="enable-background:new 0 0 512.005 512.005;" xml:space="preserve">
<g>
	<path style="fill:#F29C1F;" d="M84.403,215.386c-10.39,30.286-17.557,61.597-21.362,93.393   c-26.738-1.73-47.005-24.814-45.275-51.551c1.651-25.537,22.854-45.39,48.453-45.372C72.451,211.828,78.63,213.029,84.403,215.386z   "/>
	<path style="fill:#F29C1F;" d="M494.342,260.405c0.035,25.846-20.259,47.155-46.078,48.374   c-3.769-31.716-10.928-62.939-21.362-93.128c5.985-2.48,12.402-3.769,18.89-3.796c26.8-0.018,48.532,21.697,48.55,48.497   C494.342,260.37,494.342,260.387,494.342,260.405z"/>
</g>
<path style="fill:#F0C419;" d="M146.989,72.913c-3.443,4.767-6.885,9.71-10.151,14.83c-2.736,4.237-5.473,8.562-8.121,13.064  l-0.088,0.088c-10.134,17.187-19.182,35-27.1,53.317c-4.502,10.328-8.651,20.832-12.446,31.337  c-1.412,3.619-2.648,7.327-3.884,10.946c-14,38.981-21.892,79.896-23.392,121.287c0,107.251,86.949,194.2,194.2,194.2  s194.2-86.949,194.2-194.2c-1.501-41.391-9.392-82.306-23.392-121.287c-1.236-3.531-2.472-7.15-3.796-10.681h-0.088  c-10.637-29.977-24.143-58.86-40.341-86.243c-5.111-8.518-10.478-16.772-16.083-24.637c-0.132-0.274-0.283-0.627-0.406-0.874  c0-0.088,0-0.088-0.088-0.177C334.674,30.366,296.894,0,256.2,0c-26.244,1.174-51.189,11.767-70.265,29.836  C171.343,42.6,158.332,57.06,147.183,72.913H146.989z"/>
<path style="fill:#7F8C8D;" d="M448.617,342.675c-13.735,106.36-111.1,181.445-217.46,167.71  C143.74,499.095,74.887,430.339,63.483,342.94l31.866-25.334c12.861-10.24,31.099-10.24,43.96,0l6.797,5.473  c14.874,11.846,36.466,9.781,48.815-4.678l34.25-39.988c12.747-14.821,35.097-16.498,49.918-3.752  c1.342,1.156,2.595,2.41,3.752,3.752l34.25,39.988c12.349,14.459,33.941,16.525,48.815,4.678l6.797-5.473  c12.861-10.24,31.099-10.24,43.96,0l31.602,25.069H448.617z"/>
<g>
	<path style="fill:#2C3E50;" d="M238.351,335.437c-4.873,0-8.827-3.946-8.827-8.818c0,0,0,0,0-0.009v-8.827   c0-4.873,3.955-8.827,8.827-8.827c4.873,0,8.827,3.955,8.827,8.827v8.827C247.178,331.482,243.224,335.437,238.351,335.437   L238.351,335.437z"/>
	<path style="fill:#2C3E50;" d="M273.66,335.437c-4.873,0-8.827-3.946-8.827-8.818c0,0,0,0,0-0.009v-8.827   c0-4.873,3.955-8.827,8.827-8.827c4.873,0,8.827,3.955,8.827,8.827v8.827C282.487,331.482,278.533,335.437,273.66,335.437   L273.66,335.437z"/>
</g>
<path style="fill:#F29C1F;" d="M220.696,370.746h70.618c24.372,0,44.136,19.764,44.136,44.136l0,0  c0,24.372-19.764,44.136-44.136,44.136h-70.618c-24.372,0-44.136-19.764-44.136-44.136l0,0  C176.56,390.51,196.316,370.746,220.696,370.746z"/>
<g>
	<path style="fill:#5E5F62;" d="M220.696,467.846c-4.873,0-8.827-3.946-8.827-8.818c0,0,0,0,0-0.009v-88.273   c0-4.873,3.955-8.827,8.827-8.827s8.827,3.955,8.827,8.827v88.273C229.524,463.891,225.569,467.846,220.696,467.846   L220.696,467.846z"/>
	<path style="fill:#5E5F62;" d="M256.006,467.846c-4.873,0-8.827-3.946-8.827-8.818c0,0,0,0,0-0.009v-88.273   c0-4.873,3.955-8.827,8.827-8.827c4.873,0,8.827,3.955,8.827,8.827v88.273C264.833,463.891,260.878,467.846,256.006,467.846   L256.006,467.846z"/>
	<path style="fill:#5E5F62;" d="M291.315,467.846c-4.873,0-8.827-3.946-8.827-8.818c0,0,0,0,0-0.009v-88.273   c0-4.873,3.955-8.827,8.827-8.827c4.873,0,8.827,3.955,8.827,8.827v88.273C300.142,463.891,296.187,467.846,291.315,467.846   L291.315,467.846z"/>
</g>
<g>
	<path style="fill:#2C3E50;" d="M105.942,388.4c-2.339-0.035-4.573-0.944-6.267-2.56c-0.794-0.847-1.43-1.836-1.854-2.913   c-0.45-1.059-0.689-2.198-0.706-3.354c0.026-2.339,0.945-4.573,2.56-6.267c2.11-2.021,5.067-2.904,7.936-2.383   c0.583,0.079,1.156,0.256,1.677,0.53c0.538,0.177,1.05,0.45,1.501,0.794c0.53,0.353,0.971,0.706,1.412,1.059   c3.416,3.478,3.416,9.057,0,12.535c-0.433,0.397-0.909,0.75-1.412,1.059c-0.45,0.353-0.953,0.618-1.501,0.794   c-0.53,0.265-1.095,0.441-1.677,0.53C107.054,388.321,106.498,388.383,105.942,388.4z"/>
	<path style="fill:#2C3E50;" d="M123.596,414.882c-2.339-0.035-4.573-0.945-6.267-2.56c-1.651-1.668-2.569-3.919-2.56-6.267   c-0.035-1.156,0.212-2.313,0.706-3.354c0.45-1.068,1.077-2.048,1.854-2.913c2.092-2.057,5.058-2.948,7.936-2.383   c0.583,0.079,1.156,0.256,1.677,0.53c0.538,0.177,1.05,0.45,1.501,0.794c0.53,0.353,0.971,0.706,1.412,1.059   c0.777,0.856,1.404,1.845,1.854,2.913c0.45,1.059,0.689,2.207,0.706,3.354c0.044,4.829-3.831,8.783-8.66,8.827   C123.702,414.882,123.649,414.882,123.596,414.882z"/>
	<path style="fill:#2C3E50;" d="M141.251,441.364c-4.829,0.044-8.783-3.831-8.827-8.66c0-0.053,0-0.115,0-0.168   c0.018-1.156,0.256-2.295,0.706-3.354c0.45-1.068,1.077-2.048,1.854-2.913l1.315-1.059c0.494-0.335,1.033-0.6,1.598-0.794   c0.503-0.256,1.033-0.433,1.589-0.53c2.904-0.538,5.888,0.353,8.033,2.383c0.777,0.856,1.404,1.845,1.854,2.913   c0.45,1.059,0.697,2.207,0.706,3.354c0.044,4.829-3.831,8.783-8.66,8.827C141.357,441.364,141.304,441.364,141.251,441.364z"/>
	<path style="fill:#2C3E50;" d="M406.069,388.4c-1.156-0.018-2.295-0.256-3.354-0.706c-1.077-0.424-2.066-1.059-2.913-1.854   c-0.777-0.856-1.404-1.845-1.854-2.913c-0.494-1.05-0.742-2.198-0.706-3.354c0.026-2.339,0.944-4.573,2.56-6.267   c3.513-3.328,9.021-3.328,12.535,0c0.353,0.441,0.706,0.883,1.059,1.324c0.335,0.494,0.6,1.024,0.794,1.589   c0.274,0.53,0.45,1.095,0.53,1.677c0.097,0.556,0.159,1.112,0.177,1.677c0.044,4.829-3.831,8.783-8.66,8.827   C406.175,388.4,406.122,388.4,406.069,388.4z"/>
	<path style="fill:#2C3E50;" d="M388.415,414.882c-1.156-0.018-2.295-0.256-3.354-0.706c-1.077-0.424-2.066-1.059-2.913-1.854   c-0.777-0.856-1.404-1.845-1.854-2.913c-0.945-2.136-0.945-4.573,0-6.709c0.803-2.216,2.551-3.963,4.767-4.767   c3.293-1.377,7.079-0.644,9.622,1.854c0.794,0.839,1.43,1.827,1.854,2.913c0.945,2.136,0.945,4.573,0,6.709   c-0.45,1.068-1.077,2.057-1.854,2.913C392.987,413.929,390.745,414.847,388.415,414.882z"/>
	<path style="fill:#2C3E50;" d="M370.76,441.364c-1.156-0.018-2.295-0.256-3.354-0.706c-1.077-0.424-2.066-1.059-2.913-1.854   c-1.615-1.695-2.525-3.928-2.56-6.267c-0.035-1.156,0.212-2.313,0.706-3.354c1.73-4.484,6.762-6.718,11.246-4.996   c2.295,0.883,4.105,2.701,4.996,4.996c0.45,1.059,0.697,2.207,0.706,3.354c0.044,4.829-3.831,8.783-8.66,8.827   C370.866,441.364,370.813,441.364,370.76,441.364z"/>
</g>
<path style="fill:#556080;" d="M350.899,54.906c-39.193,52.346-106.457,71.413-77.239,42.194  c27.541-27.541,1.236-76.621-11.652-96.835c29.748,2.207,57.907,20.479,82.888,47.932C346.927,50.404,348.869,52.611,350.899,54.906  z"/>
<circle style="fill:#FFFFFF;" cx="176.542" cy="238.337" r="52.964"/>
<circle style="fill:#2FA8CC;" cx="176.542" cy="238.337" r="26.482"/>
<circle style="fill:#2C2F38;" cx="176.542" cy="238.337" r="8.827"/>
<circle style="fill:#FFFFFF;" cx="335.433" cy="238.337" r="52.964"/>
<circle style="fill:#2FA8CC;" cx="335.433" cy="238.337" r="26.482"/>
<circle style="fill:#2C2F38;" cx="335.433" cy="238.337" r="8.827"/>
<g>
</g>
<g>
</g>
<g>
</g>
<g>
</g>
<g>
</g>
<g>
</g>
<g>
</g>
<g>
</g>
<g>
</g>
<g>
</g>
<g>
</g>
<g>
</g>
<g>
</g>
<g>
</g>
<g>
</g>
</svg>
